<?xml version="1.0" encoding="utf-8"?>
<!-- Generator: Adobe Illustrator 25.0.0, SVG Export Plug-In . SVG Version: 6.00 Build 0)  -->
<svg version="1.1" id="Layer_1" xmlns="http://www.w3.org/2000/svg" xmlns:xlink="http://www.w3.org/1999/xlink" x="0px" y="0px"
	 viewBox="0 0 1377 309" style="enable-background:new 0 0 1377 309;" xml:space="preserve">
<style type="text/css">
	.st0{fill:#293E81;}
	.st1{opacity:0.5;fill:#293E81;enable-background:new    ;}
	.st2{opacity:0.5;}
	.st3{opacity:0.5;enable-background:new    ;}
</style>
<rect x="-0.4" y="286" class="st0" width="1377" height="23"/>
<polygon class="st1" points="489.2,127.7 489.2,57.5 474.9,57.5 474.9,127.7 460.4,127.7 414.9,127.7 414.9,141.7 423,141.7 
	424.4,153.3 424.4,153.3 444,308.9 482.1,308.9 520.2,308.9 541.2,141.7 549.3,141.7 549.3,134.7 549.3,127.7 "/>
<path class="st1" d="M416.3,185.7h-12.6v-7l0,0v-1.5l0,0v-11l0,0v-1.5l0,0v-11l0,0v-1.5l0,0v-11l0,0v-1.5l0,0v-11l0,0v-1.5l0,0v-17
	h-19.6V143h-9.5v0.3v6.6v4.6v31.2h-1.8v-55.2v-4.6V119h-12v6.9v4.6v19.3c-0.5-0.3-1.1-0.5-1.8-0.5c-1.8,0-3.3,1.5-3.3,3.3v6.6h-3.5
	v-10.8v-4.6v-6.9h-7.6v-5.7h1.6v-4.9h-3.6v-5.5c0-2.2-1.8-4-4-4s-4,1.8-4,4v5.5h-4.5v1.5v3.4V162h2.5v23.8h-15.3v9.5v2.6
	c-0.7,0-1.4,0-2.1,0.1c-0.2,0-0.5,0-0.7,0.1c-1,0.1-2,0.2-3,0.3c-0.1,0-0.1,0-0.2,0c-0.9,0.1-1.8,0.3-2.7,0.5
	c-0.2,0-0.3,0.1-0.5,0.1c-0.9,0.2-1.8,0.5-2.7,0.8h-0.1c-0.9,0.3-1.7,0.6-2.6,0.9c-0.1,0-0.2,0.1-0.3,0.1c-0.9,0.4-1.7,0.8-2.5,1.2
	l0,0c-0.8,0.4-1.6,0.9-2.4,1.4l0,0c-27.4,17.2-20.7,68.3,19.9,69.2v12.1h12.4v13.2h74.9v-6.6v-6.6h11.8v-99L416.3,185.7L416.3,185.7
	z M353.8,163.8v21.9h-1.5v-21.9H353.8z M304.1,216.2c0.2-0.1,0.4-0.3,0.6-0.4c0.4-0.3,0.7-0.5,1.1-0.7c0.2-0.1,0.5-0.3,0.7-0.4
	c0.4-0.2,0.8-0.4,1.2-0.6c0.2-0.1,0.5-0.2,0.7-0.3c0.6-0.3,1.3-0.5,2-0.8c0.2,0,0.3-0.1,0.5-0.1c0.6-0.2,1.2-0.3,1.8-0.5
	c0.3-0.1,0.5-0.1,0.8-0.1c0.6-0.1,1.1-0.2,1.7-0.3c0.3,0,0.5-0.1,0.8-0.1c0.5,0,1-0.1,1.5-0.1v47.1c-0.5,0-1,0-1.5-0.1
	c-0.2,0-0.4,0-0.6-0.1c-0.7-0.1-1.4-0.2-2.1-0.3c-0.1,0-0.2,0-0.3,0c-0.7-0.2-1.5-0.3-2.2-0.6c-0.2-0.1-0.4-0.1-0.6-0.2
	c-0.6-0.2-1.1-0.4-1.7-0.6c-0.1-0.1-0.3-0.1-0.4-0.2c-0.6-0.3-1.2-0.6-1.8-0.9c-0.2-0.1-0.3-0.2-0.5-0.3
	C292.1,247.4,291.5,225.6,304.1,216.2z"/>
<g class="st2">
	<polygon class="st0" points="231.8,95 231.8,150.5 190.6,150.5 190.6,141.6 190.6,119.6 137.3,119.6 137.3,141.6 137.3,196.4 
		137.3,297.9 190.6,297.9 231.8,297.9 232.6,297.9 276.2,297.9 276.2,95 	"/>
	<rect x="0.1" y="255.6" class="st0" width="130.7" height="42.1"/>
</g>
<g class="st3">
	<polygon class="st0" points="1148.1,151.5 1106.8,151.5 1106.8,142.6 1106.8,120.6 1053.4,120.6 1053.4,76.6 1004.8,76.6 
		1004.8,298.9 1053.4,298.9 1053.4,298.9 1106.8,298.9 1148.1,298.9 1149,298.9 1192.6,298.9 1192.6,96 1148.1,96 	"/>
	
		<rect x="1253.4" y="186.7" transform="matrix(0.2396 -0.9709 0.9709 0.2396 716.2156 1435.4255)" class="st0" width="42.1" height="147.7"/>
	
		<rect x="874.7" y="192" transform="matrix(0.3393 -0.9407 0.9407 0.3393 428.9782 1040.7827)" class="st0" width="161.4" height="46.1"/>
	<rect x="847.9" y="103.5" class="st0" width="58.4" height="195.4"/>
</g>
<g>
	<path class="st0" d="M872.7-0.3H503.5c-7.4,0-13.4,6-13.4,13.4v196.5v19.3c0,7.4,6,13.4,13.4,13.4h134.8V257v23.3h-37.4v8.9h186.9
		v-3.6v-5.3h-38.3v-38.1h123.2c7.4,0,13.4-6,13.4-13.4v-19.3V13.1C886.1,5.7,880.1-0.3,872.7-0.3z"/>
</g>
</svg>
