<?xml version="1.0" encoding="utf-8"?>
<!-- Generator: Adobe Illustrator 22.1.0, SVG Export Plug-In . SVG Version: 6.00 Build 0)  -->
<svg version="1.1" id="Layer_1" xmlns="http://www.w3.org/2000/svg" xmlns:xlink="http://www.w3.org/1999/xlink" x="0px" y="0px"
	 viewBox="0 0 724 593" style="enable-background:new 0 0 724 593;" xml:space="preserve">
<style type="text/css">
	.st0{fill:#FFFFFF;}
</style>
<g id="Layer_3">
</g>
<g id="Layer_1_1_">
</g>
<g id="Layer_3_1_">
</g>
<g id="Layer_1_2_">
</g>
<title>BHVLogo</title>
<g>
	<path class="st0" d="M253.7,104.8c4.1-2.9,2.4-6.6,0-8.4c-2.5-1.8-15.5-8-15.5-8L216,100.8c0,0,11.1,6,18.4,8.9
		C241.7,112.6,249.7,107.8,253.7,104.8z"/>
	<path class="st0" d="M325.8,148.6c4.5-3.4,2.7-7.5,0-9.6s-14.1-8.1-14.1-8.1l-24.9,14.2c5.6,3.4,11.4,6.5,17.4,9.1
		C312.2,157.6,321.2,152,325.8,148.6z"/>
	<polygon class="st0" points="227.6,316.6 269.6,341.3 248.3,241.6 	"/>
	<path class="st0" d="M218.3,126c4-2.9,2.4-6.6,0-8.4s-15.5-8-15.5-8L180.6,122c0,0,11.1,6,18.4,8.9
		C206.3,133.8,214.3,128.9,218.3,126z"/>
	<path class="st0" d="M620.9,252.5L242.9,32.4c-9.4-5.5-21-5.4-30.3,0l-107.7,63c-9.7,5.7-15.6,16-15.6,27.2v190.1
		c0,8.2,4.4,15.8,11.5,20l383.8,224.9c8,4.7,17.9,4.7,25.9,0l113.5-66.1c6.7-3.9,10.8-11.1,10.8-18.9V276.7
		C634.7,266.7,629.5,257.5,620.9,252.5z M344.1,129.9c6.5,4,12.5,7.7,12,18c-0.5,10.3-18,18.2-26.3,19.8c-8.3,1.7-17.7,1.3-22.2,1
		l-4.5-0.3l-19.9,31.5l-22.2-12.5l18.5-26.3l-10.3-6.3l-32.2,18.7l-19.5-11.7l91.8-52.2C309.2,109.6,337.6,125.9,344.1,129.9z
		 M236.7,67.3c0,0,32.5,18.3,39,23.3s10.5,13,4.3,20c-6.2,7-17,12-25.8,12.2c-8.8,0.2-12.5-0.8-12.5-0.8s4.2,3.7,1.3,10.2
		c-2.8,6.5-16.3,15.8-30.8,15.8s-22.2-1.8-36.5-9.7c-14.3-7.8-31.2-18.5-31.2-18.5L236.7,67.3z M195.9,347.3l-3.8-1.7v-71.5
		l-58.8-34.4v71.4l-4.1-2.5v-144l4.1,1.1l-0.1,68l58.7,34v-66.7l4,1.5V347.3z M281.2,397.4l-9.7-48.8l-45.5-26.5l-10.5,37l-4.3-2.5
		l35-124.5l4.8,2.7l34.3,164.8L281.2,397.4z M384.1,152.8l19.8,11.3l-92.3,53l-19.2-12L384.1,152.8z M362.7,407.2
		c-0.4,4.4-2.1,12.8-5.6,17.4c-1.6,2.4-3.8,4.3-6.2,5.7c-3.1,1.5-6.6,2.1-10,1.8c-5-0.4-15.4-3.4-26-16.1
		c-13.2-15.9-15.9-33.6-18.5-51.1c-0.7-4.9-0.6-19.3-0.4-48.3c0.1-11.2,1.4-20.2,6.2-29.9c4.4-9.1,11.3-11.8,15.8-11.9
		c4.6-0.1,7.4,0.1,17.4,7c10,6.9,17.2,19.9,22.2,31.4c4.9,11.5,5.2,30.3,5.2,30.3l-4-1.2c0.2-3.9,0-7.7-0.5-11.6
		c-0.4-2.8-2.5-11.8-7.6-23.1c-4.2-9.3-10.3-15.2-17.1-21c-6.8-5.8-12.4-5.8-14.8-5.7c-2.4,0.2-5.9,0-11.2,7
		c-7.2,9.6-7.1,25.2-7.1,25.2c-0.7,24-1.1,36,0.3,46.4c1.9,15.2,3.3,25.8,9.6,38.7c0,0,9,17.8,23.6,25.9c6.6,3.7,13.3,2.8,19.4-3.3
		c6.1-6.1,5.8-22.2,5.8-22.2l4.1,1.6C363.2,400.2,363.1,402.8,362.7,407.2z M353.4,242.9c-3.9-2.8-7.9-5.7-9.8-10.9
		c-2.3-6.5-0.2-12.6,0.8-14.9c2.8-6.8,17.8-18.3,34.5-26.2c16.7-7.8,35.2-10.2,49.3-8.7c14.2,1.5,22.7,7.8,28.7,12.2
		c6,4.3,9.5,13.5,5.7,21.2c-3.8,7.7-12.5,12.5-12.5,12.5l-19.7-11c1.3-0.5,6.3-2.3,7.3-6.3c1.4-5.4-5.1-12.4-10.8-13.5
		c-9-1.7-16.3,1-23,3.5s-34.7,15.8-35.8,23c-1.2,7.2,4.3,9.7,13.3,12.8s19.8-4.2,19.8-4.2l20,12c0,0-5.3,5.3-24.8,7.5
		c-6.9,0.8-14,0.5-20.8-0.8C369.1,249.9,361.3,248.5,353.4,242.9z M445.1,492.9l-42.5-101l-14.8,12.5v55.2l-3.9-2.2v-145l3.9,1.4
		l0.2,83.6l53.3-52.5l5.7,3.7l-41.3,40.5l44,105.5L445.1,492.9z M490.8,261.4l-24.2,44.8l-23.2-12.8l16.8-29.5l-16.8,0.8l-24.2,14
		l-19.8-11.2l91.5-53.2l19.2,11.8l-38.8,22.5l63-9l24.2,14.8L490.8,261.4z M576.8,483.6l-8,4.8l-49-108.2l9.5-5.5l42.2,90l35.8-137
		l10.5-5.8L576.8,483.6z"/>
</g>
</svg>
