<?xml version="1.0" encoding="UTF-8" standalone="no"?>
<svg
   xmlns:dc="http://purl.org/dc/elements/1.1/"
   xmlns:cc="http://creativecommons.org/ns#"
   xmlns:rdf="http://www.w3.org/1999/02/22-rdf-syntax-ns#"
   xmlns:svg="http://www.w3.org/2000/svg"
   xmlns="http://www.w3.org/2000/svg"
   xmlns:sodipodi="http://sodipodi.sourceforge.net/DTD/sodipodi-0.dtd"
   xmlns:inkscape="http://www.inkscape.org/namespaces/inkscape"
   inkscape:version="1.0 (4035a4fb49, 2020-05-01)"
   sodipodi:docname="club-logo-name.svg"
   id="svg54"
   version="1.1"
   viewBox="0 0 865.76593 718.96747"
   height="718.96747"
   width="865.76593">
  <metadata
     id="metadata58">
    <rdf:RDF>
      <cc:Work
         rdf:about="">
        <dc:format>image/svg+xml</dc:format>
        <dc:type
           rdf:resource="http://purl.org/dc/dcmitype/StillImage" />
        <dc:title></dc:title>
      </cc:Work>
    </rdf:RDF>
  </metadata>
  <sodipodi:namedview
     inkscape:current-layer="svg54"
     inkscape:window-maximized="1"
     inkscape:window-y="-8"
     inkscape:window-x="-8"
     inkscape:cy="273.3395"
     inkscape:cx="428.4385"
     inkscape:zoom="0.70833333"
     fit-margin-bottom="0"
     fit-margin-right="0"
     fit-margin-left="0"
     fit-margin-top="0"
     showgrid="false"
     id="namedview56"
     inkscape:window-height="1017"
     inkscape:window-width="1920"
     inkscape:pageshadow="2"
     inkscape:pageopacity="0"
     guidetolerance="10"
     gridtolerance="10"
     objecttolerance="10"
     borderopacity="1"
     bordercolor="#666666"
     pagecolor="#ffffff" />
  <defs
     id="defs7">
    <style
       id="style2">
      .cls-1 {
        fill: none;
      }

      .cls-2 {
        clip-path: url(#clip-path);
      }

      .cls-3 {
        fill: #ff9c4a;
      }

      .cls-4 {
        fill: #193787;
      }

      .cls-5 {
        fill: #44c6e6;
      }

      .cls-6 {
        fill: #13358c;
      }
    </style>
    <clipPath
       id="clip-path">
      <path
         id="path4"
         d="m 171.69,296.2425 v 327.8929 a 26.0523,26.0523 0 0 0 7.6307,18.422 l 115.0017,115.0019 a 26.0528,26.0528 0 0 0 18.422,7.6306 h 223.6824 a 26.0526,26.0526 0 0 0 26.0526,-26.0526 v -80.3929 a 26.0528,26.0528 0 0 0 -7.6306,-18.422 L 443.3349,528.8086 A 6.5132,6.5132 0 0 1 447.94,517.69 h 88.4864 a 26.0526,26.0526 0 0 0 26.0526,-26.0526 v -80.393 a 26.0528,26.0528 0 0 0 -7.6306,-18.422 L 439.8469,277.8206 a 26.0523,26.0523 0 0 0 -18.422,-7.6307 H 197.7425 A 26.0527,26.0527 0 0 0 171.69,296.2425 Z"
         class="cls-1" />
    </clipPath>
  </defs>
  <g
     transform="translate(-171.5615,-270.18991)"
     id="H">
    <g
       id="g31">
      <g
         id="g23"
         clip-path="url(#clip-path)"
         class="cls-2">
        <polygon
           id="polygon9"
           points="301.953,270.19 301.953,765.19 171.69,634.927 171.69,270.19 "
           class="cls-3" />
        <polygon
           id="polygon11"
           points="432.216,517.69 432.216,270.19 562.479,400.453 562.479,517.69 "
           class="cls-4" />
        <polygon
           id="polygon13"
           points="432.216,765.19 432.216,517.69 562.479,647.953 562.479,765.19 "
           class="cls-4" />
        <rect
           id="rect15"
           height="78.157898"
           width="130.2632"
           y="270.18991"
           x="301.95309"
           class="cls-5" />
        <rect
           id="rect17"
           height="78.157898"
           width="130.2632"
           y="687.03198"
           x="301.95309"
           class="cls-4" />
        <rect
           id="rect19"
           height="78.157898"
           width="130.2632"
           y="478.61099"
           x="301.95309"
           class="cls-5" />
        <rect
           id="rect21"
           height="78.157898"
           width="26.052601"
           y="478.61099"
           x="432.21619"
           class="cls-6" />
      </g>
      <path
         id="path25"
         d="M 759.8251,763.2874 648.2679,652.5952 a 25.81,25.81 0 0 1 -7.6306,-18.3211 V 296.2425 A 26.0526,26.0526 0 0 1 666.69,270.19 h 78.1579 A 26.0526,26.0526 0 0 1 770.9,296.2425 v 462.4321 a 6.4983,6.4983 0 0 1 -11.0749,4.6128 z"
         class="cls-3" />
      <path
         id="path27"
         d="m 912.2823,272.15 111.5138,111.5139 a 26.0527,26.0527 0 0 1 7.6307,18.4219 v 337.0515 a 26.0526,26.0526 0 0 1 -26.0527,26.0526 H 927.2162 A 26.0526,26.0526 0 0 1 901.1636,739.1373 V 276.7559 a 6.5132,6.5132 0 0 1 11.1187,-4.6059 z"
         class="cls-4" />
      <rect
         id="rect29"
         height="78.157898"
         width="130.2632"
         y="478.61099"
         x="770.90039"
         class="cls-5" />
    </g>
    <g
       id="g51">
      <path
         id="path33"
         d="m 171.5615,987.2407 v -100.64 h 18.9038 v 100.64 z m 16.1836,-46.376 v -11.832 h 21.2163 q 6.936,0 10.2,-3.6719 3.264,-3.6719 3.2642,-9.792 0,-6.12 -3.2642,-9.792 -3.2642,-3.672 -10.2,-3.6718 h -21.2163 v -15.5039 h 19.4482 q 16.8618,0 25.6358,7.0722 8.7721,7.0723 8.772,20.2637 v 1.9043 q 0,9.249 -4.42,14.7558 a 24.22,24.22 0 0 1 -12.1718,7.8877 60.725,60.725 0 0 1 -17.816,2.38 z m 0,46.376 v -15.5039 h 24.8882 q 6.799,0 10.3359,-3.74 3.5348,-3.7383 3.5361,-10.2676 0,-6.5274 -3.5361,-10.1319 -3.5384,-3.6019 -10.3359,-3.6044 h -24.8882 v -11.8323 h 23.5283 a 60.9713,60.9713 0 0 1 17.7481,2.3809 24.0583,24.0583 0 0 1 12.24,7.9551 q 4.4179,5.5781 4.42,14.9609 v 1.9033 a 27.7555,27.7555 0 0 1 -3.8759,15.0283 24.78,24.78 0 0 1 -11.56,9.52 q -7.6847,3.3339 -18.9717,3.332 z"
         class="cls-4" />
      <path
         id="path35"
         d="m 283.76,986.561 v -73.8476 h 14.96 v 31.2793 h -0.4082 q 0,-15.9112 6.8,-24.0713 6.7983,-8.1607 19.9917,-8.16 h 2.72 v 16.4561 h -5.168 q -9.5214,0 -14.7563,5.1 -5.2368,5.1006 -5.2358,14.7558 v 38.4877 z"
         class="cls-4" />
      <path
         id="path37"
         d="m 353.7983,926.8569 v -14.1435 h 29.24 v 14.1435 z m 17.272,-22.9844 q -5.5782,0 -8.228,-2.9238 a 10.6118,10.6118 0 0 1 -2.6519,-7.4121 10.3679,10.3679 0 0 1 2.6519,-7.3438 q 2.652,-2.8563 8.228,-2.8554 5.576,9e-4 8.16,2.8554 a 10.5349,10.5349 0 0 1 2.584,7.3438 10.785,10.785 0 0 1 -2.584,7.4121 q -2.5845,2.9268 -8.1603,2.9238 z m -6.936,82.6885 v -73.8476 h 18.9043 v 73.8476 z"
         class="cls-4" />
      <path
         id="path39"
         d="m 457.7021,989.145 a 39.1442,39.1442 0 0 1 -16.66,-3.2637 34.37,34.37 0 0 1 -11.6958,-8.7041 36.5709,36.5709 0 0 1 -7.0039,-12.24 42.7639,42.7639 0 0 1 -2.312,-13.8721 v -2.584 a 43.4934,43.4934 0 0 1 2.38,-14.3476 36.0748,36.0748 0 0 1 7.14,-12.24 34.755,34.755 0 0 1 11.7636,-8.5683 42.3166,42.3166 0 0 1 33.524,0.5439 31.0089,31.0089 0 0 1 12.172,10.4038 30.2208,30.2208 0 0 1 5.1,15.5039 h -18.36 a 14.9131,14.9131 0 0 0 -4.8277,-9.5195 q -4.1505,-3.8057 -11.3564,-3.8086 a 17.3345,17.3345 0 0 0 -10.4038,2.9922 17.84,17.84 0 0 0 -6.188,8.2285 32.9964,32.9964 0 0 0 -2.04,12.0352 33.72,33.72 0 0 0 1.9721,11.832 17.369,17.369 0 0 0 6.12,8.2969 q 4.1463,2.9927 10.6758,2.9912 a 18.6544,18.6544 0 0 0 8.4322,-1.7676 14.4592,14.4592 0 0 0 5.644,-4.8965 16.51,16.51 0 0 0 2.6519,-7.0713 h 18.36 a 30.0846,30.0846 0 0 1 -5.2358,15.708 32.2449,32.2449 0 0 1 -12.376,10.54 38.8629,38.8629 0 0 1 -17.4762,3.8077 z"
         class="cls-4" />
      <path
         id="path41"
         d="m 528.0127,986.561 v -99.28 h 18.9038 v 99.28 z m 51.68,0 -24.7527,-34.5439 h -11.0157 l 31.416,-39.3037 h 19.72 l -28.9677,36.3115 0.4077,-9.52 34.5439,47.0557 z"
         class="cls-4" />
      <path
         id="path43"
         d="m 633.5473,986.561 v -99.28 h 19.3116 v 99.28 z m 15.7759,-41.208 v -17 h 52.9038 v 17 z m 49.3677,41.208 v -99.28 h 19.312 v 99.28 z"
         class="cls-4" />
      <path
         id="path45"
         d="m 782.0581,988.4653 a 32.6385,32.6385 0 0 1 -14.0762,-2.8564 21.7313,21.7313 0 0 1 -9.3838,-8.16 23.5354,23.5354 0 0 1 -3.332,-12.7842 q 0,-8.1591 4.0122,-13.3271 a 24.0091,24.0091 0 0 1 11.2876,-7.752 51.028,51.028 0 0 1 17.0684,-2.584 H 804.77 v 11.2872 h -17.4077 q -6.5281,0 -9.9961,3.1962 a 10.6884,10.6884 0 0 0 -3.4683,8.2286 10.468,10.468 0 0 0 3.4683,8.1591 q 3.468,3.13 9.9961,3.1289 a 18.2814,18.2814 0 0 0 7.2759,-1.4287 12.5047,12.5047 0 0 0 5.5761,-4.8955 q 2.2434,-3.4687 2.5157,-9.4521 l 4.624,5.3037 a 31.4064,31.4064 0 0 1 -3.74,13.0566 20.4182,20.4182 0 0 1 -8.4321,8.0918 28.244,28.244 0 0 1 -13.1238,2.7879 z m 23.8,-1.9043 V 964.6645 H 802.73 v -24.3437 q 0,-6.3912 -3.128,-9.52 -3.13,-3.1273 -9.6557,-3.1279 -3.4014,0 -8.16,0.1358 -4.7622,0.1377 -9.5879,0.34 -4.83,0.2035 -8.6362,0.4766 v -16.0487 q 3.1273,-0.2709 7.0723,-0.5439 3.9426,-0.2711 8.0918,-0.34 4.1469,-0.0674 7.82,-0.0673 11.4243,0 18.9721,2.9912 a 22.6605,22.6605 0 0 1 11.4239,9.3847 q 3.8766,6.394 3.8764,16.7276 v 45.832 z"
         class="cls-4" />
      <path
         id="path47"
         d="m 893.9858,989.145 a 39.1442,39.1442 0 0 1 -16.66,-3.2637 34.37,34.37 0 0 1 -11.6958,-8.7041 36.5709,36.5709 0 0 1 -7.0039,-12.24 42.764,42.764 0 0 1 -2.3121,-13.8721 v -2.584 a 43.4935,43.4935 0 0 1 2.38,-14.3476 36.0748,36.0748 0 0 1 7.14,-12.24 34.755,34.755 0 0 1 11.7636,-8.5683 42.3166,42.3166 0 0 1 33.524,0.5439 31.0089,31.0089 0 0 1 12.1723,10.4043 30.2217,30.2217 0 0 1 5.1,15.5039 h -18.36 a 14.9131,14.9131 0 0 0 -4.8277,-9.5195 q -4.1507,-3.8057 -11.3564,-3.8086 a 17.3345,17.3345 0 0 0 -10.4038,2.9922 17.84,17.84 0 0 0 -6.188,8.2285 32.9964,32.9964 0 0 0 -2.04,12.0352 33.72,33.72 0 0 0 1.9721,11.832 17.3683,17.3683 0 0 0 6.12,8.2969 q 4.1463,2.9927 10.6758,2.9912 a 18.6537,18.6537 0 0 0 8.4321,-1.7676 14.4588,14.4588 0 0 0 5.6441,-4.8965 16.5088,16.5088 0 0 0 2.6518,-7.0713 h 18.36 a 30.0846,30.0846 0 0 1 -5.2358,15.708 32.2449,32.2449 0 0 1 -12.376,10.54 38.8632,38.8632 0 0 1 -17.4763,3.8072 z"
         class="cls-4" />
      <path
         id="path49"
         d="m 964.2959,986.561 v -99.28 H 983.2 v 99.28 z m 51.68,0 -24.752,-34.5439 h -11.0164 l 31.416,-39.3037 h 19.72 l -28.9677,36.3115 0.4077,-9.52 34.5439,47.0557 z"
         class="cls-4" />
    </g>
  </g>
</svg>
