<svg width="430" height="334" viewBox="0 0 430 334" fill="none" xmlns="http://www.w3.org/2000/svg">
<path d="M0 5.99999C0 2.68629 2.68629 0 6 0H424C427.314 0 430 2.68629 430 6V254.423C430 257.736 427.314 260.423 424 260.423H6.00001C2.6863 260.423 0 257.736 0 254.423V5.99999Z" fill="#D0D9E2"/>
<path d="M181.689 236.142C181.689 232.828 184.376 230.142 187.689 230.142H236.253C239.567 230.142 242.253 232.828 242.253 236.142V308.93C242.253 312.244 239.567 314.93 236.253 314.93H187.689C184.376 314.93 181.689 312.244 181.689 308.93V236.142Z" fill="#D0D9E2"/>
<path d="M139.295 308.816C139.295 305.503 141.981 302.816 145.295 302.816H278.647C281.961 302.816 284.647 305.503 284.647 308.816V327.098C284.647 330.412 281.961 333.098 278.647 333.098H145.295C141.981 333.098 139.295 330.412 139.295 327.098V308.816Z" fill="#D0D9E2"/>
</svg>
