<?xml version="1.0" encoding="utf-8"?>
<!-- Generator: Adobe Illustrator 25.1.0, SVG Export Plug-In . SVG Version: 6.00 Build 0)  -->
<svg version="1.1" id="Layer_1" xmlns="http://www.w3.org/2000/svg" xmlns:xlink="http://www.w3.org/1999/xlink" x="0px" y="0px"
	 viewBox="0 0 763.2 633.6" style="enable-background:new 0 0 763.2 633.6;" xml:space="preserve">
<style type="text/css">
	.st0{fill:#F26368;}
	.st1{fill:#445097;}
	.st2{fill:#FFFFFF;}
	.st3{fill:#F3EBDE;}
	.st4{fill:#1B315E;}
	.st5{fill:#FAA264;}
	.st6{fill:#F9C2BA;}
	.st7{fill:#F8A26A;}
	.st8{fill:none;stroke:#1A305F;stroke-width:2.344;stroke-miterlimit:10;}
	.st9{fill:#F6EEE3;}
	.st10{fill:#EE6670;}
	.st11{fill:#F7A470;}
	.st12{fill:#EF656E;}
	.st13{fill:none;stroke:#1B325C;stroke-width:3.0008;stroke-linecap:round;stroke-linejoin:round;stroke-miterlimit:10;}
	.st14{fill:none;stroke:#1B325C;stroke-width:1.5004;stroke-linecap:round;stroke-linejoin:round;stroke-miterlimit:10;}
	.st15{fill:#F5EDE1;}
	.st16{fill:#1B325C;}
	.st17{fill:none;stroke:#1B325C;stroke-width:3.1644;stroke-linecap:round;stroke-linejoin:round;stroke-miterlimit:10;}
	.st18{opacity:5.000000e-02;fill:#FFFFFF;}
	.st19{fill:none;stroke:#FFFFFF;stroke-width:1.5786;stroke-miterlimit:10;}
	.st20{fill:#F9C3BC;}
	.st21{fill:#455296;}
	.st22{fill:#F7A36F;}
	.st23{fill:#F1646B;}
	.st24{fill:#F4ECE0;}
	.st25{fill:#F9A36A;}
	.st26{fill:none;stroke:#1B325C;stroke-width:0.8703;stroke-linecap:round;stroke-linejoin:round;stroke-miterlimit:10;}
	.st27{fill:#455292;}
	.st28{fill:#102E4D;}
	.st29{opacity:0.42;fill:#081827;enable-background:new    ;}
	
		.st30{opacity:0.4;fill:none;stroke:#F7A36F;stroke-width:4.1141;stroke-linecap:round;stroke-linejoin:round;stroke-miterlimit:10;}
	.st31{opacity:0.4;fill:#F7A36F;}
	
		.st32{opacity:0.4;fill:none;stroke:#F7A36F;stroke-width:4.0531;stroke-linecap:round;stroke-linejoin:round;stroke-miterlimit:10;}
</style>
<rect x="33" y="538" class="st0" width="731" height="95"/>
<polygon class="st2" points="763.6,457.8 531,213 440,213 91.1,516.5 763.6,520 "/>
<circle class="st3" cx="485.5" cy="204.4" r="19.6"/>
<g>
	<rect x="734.9" y="316" class="st4" width="28.8" height="174.4"/>
	
		<rect x="489.8" y="316" transform="matrix(-1 -4.507429e-11 4.507429e-11 -1 1017.7574 806.4374)" class="st1" width="38.1" height="174.4"/>
	
		<rect x="699.4" y="363.8" transform="matrix(-1 -4.492374e-11 4.492374e-11 -1 1435.0082 854.2068)" class="st0" width="36.2" height="126.7"/>
	
		<rect x="538.4" y="361.6" transform="matrix(-0.984 0.1784 -0.1784 -0.984 1179.7559 743.68)" class="st0" width="36.2" height="126.7"/>
	
		<rect x="653.6" y="337.1" transform="matrix(-1 -4.490731e-11 4.490731e-11 -1 1353.0382 827.5729)" class="st5" width="45.8" height="153.3"/>
	
		<rect x="653.6" y="356.1" transform="matrix(-1 -4.502633e-11 4.502633e-11 -1 1353.0382 759.2692)" class="st1" width="45.8" height="47.2"/>
	<path class="st1" d="M763.6,335.5c-2.4-2.6-5.9-4.3-9.7-4.3c-7.3,0-13.2,5.9-13.2,13.2s5.9,13.2,13.2,13.2c3.8,0,7.3-1.6,9.7-4.3
		V335.5z"/>
	<rect x="612.5" y="377.8" class="st1" width="41.2" height="112.2"/>
	<circle class="st6" cx="509.1" cy="339.2" r="12.9"/>
	<rect x="612.5" y="387" class="st4" width="41.2" height="94.7"/>
</g>
<g>
	<path class="st5" d="M494,460H251.7c-4.9,0-8.8-3.9-8.8-8.8V290c0-4.9,3.9-8.8,8.8-8.8H494c4.9,0,8.8,3.9,8.8,8.8v161.3
		C502.8,456.1,498.9,460,494,460z"/>
	<path class="st4" d="M494,281.2H251.7c-4.9,0-8.8,3.9-8.8,8.8V432h259.9V290C502.8,285.1,498.9,281.2,494,281.2z"/>
	<rect x="315.6" y="485" class="st5" width="122.6" height="5.9"/>
	<rect x="340.2" y="460" class="st5" width="73" height="25"/>
	<rect x="258.6" y="296.3" class="st2" width="227.7" height="123.3"/>
	<circle class="st1" cx="377.5" cy="445.5" r="5"/>
	<polygon class="st0" points="340.2,460 340.2,469.7 413.2,460 	"/>
	<polygon class="st0" points="395.9,485 438.3,485 438.3,488.5 	"/>
</g>
<g>
	<polyline class="st7" points="481.7,352.4 431.5,352.4 431.5,287.5 496.5,287.5 496.5,337.7 	"/>
	<polyline class="st0" points="481.7,352.4 481.7,337.7 496.5,337.7 	"/>
</g>
<g>
	<rect x="194" y="380.5" class="st6" width="9.5" height="3.7"/>
	<rect x="161.8" y="480.4" class="st1" width="59.6" height="10.5"/>
	<rect x="194" y="384.2" class="st1" width="8.3" height="19.8"/>
	<path class="st1" d="M198.2,372.6L198.2,372.6c1.4,0,2.6,1.2,2.6,2.6v5.2h-5.2v-5.2C195.6,373.8,196.7,372.6,198.2,372.6z"/>
	<path class="st1" d="M214.3,346.7L214.3,346.7c1.7,0,3.2,1.4,3.2,3.2v4.4c0,0.2-0.1,0.3-0.3,0.3h-5.7c-0.2,0-0.3-0.1-0.3-0.3v-4.4
		C211.2,348.1,212.6,346.7,214.3,346.7z"/>
	<polygon class="st4" points="161.8,480.4 161.8,485.6 196,480.4 	"/>
	<path class="st1" d="M230.4,422.3c24.9,0,24.9,37.6,0,37.6v10.9c39.7,0,39.7-59.5,0-59.5V422.3z"/>
	<path class="st4" d="M240.9,456.9c-2.8,1.8-6.3,2.9-10.6,2.9v10L240.9,456.9z"/>
	<path class="st4" d="M241.9,425.9c0.4-4.9,3.5-7,7-7.8l-0.1-1.1c-4.7-3.5-10.8-5.7-18.4-5.7v11.1
		C235.1,422.3,239,423.7,241.9,425.9z"/>
	<rect x="162.6" y="341.4" class="st6" width="15.6" height="60.2"/>
	<rect x="187.2" y="348.5" class="st0" width="9.5" height="5.5"/>
	<rect x="187.2" y="353.9" class="st1" width="9.5" height="3.7"/>
	<rect x="187.2" y="357.6" class="st7" width="9.5" height="43.9"/>
	<rect x="203.5" y="362.6" class="st0" width="9.5" height="5.5"/>
	<rect x="203.5" y="368.1" class="st1" width="9.5" height="3.7"/>
	<rect x="203.5" y="371.8" class="st7" width="9.5" height="43.9"/>
	<rect x="209.6" y="356.1" class="st1" width="9.5" height="49"/>
	<rect x="176.2" y="367.5" class="st6" width="9.5" height="5.5"/>
	<rect x="176.2" y="373" class="st1" width="9.5" height="3.7"/>
	<rect x="176.2" y="376.7" class="st7" width="9.5" height="43.9"/>
	<rect x="208.3" y="354.2" class="st6" width="12.8" height="3.9"/>
	<rect x="217.5" y="355.4" class="st6" width="3.6" height="27.3"/>
	<polygon class="st0" points="177.9,341.4 170.3,401.6 177.9,401.6 	"/>
	<circle class="st2" cx="170.4" cy="347.8" r="2.6"/>
	<rect x="162.6" y="354.9" class="st2" width="5.7" height="1.2"/>
	<rect x="162.6" y="364.9" class="st2" width="5.7" height="1.2"/>
	<rect x="162.6" y="374.8" class="st2" width="5.7" height="1.2"/>
	<rect x="162.6" y="384.8" class="st2" width="5.7" height="1.2"/>
	<rect x="162.6" y="394.8" class="st2" width="5.7" height="1.2"/>
	<rect x="152.4" y="401.6" class="st1" width="78.8" height="78.8"/>
	<polygon class="st4" points="231.2,401.6 231.2,409.1 152.6,401.6 	"/>
	<polyline class="st4" points="185.8,373 185.8,376.7 183.5,376.7 184.5,373 	"/>
	<polyline class="st0" points="184.5,373 185.8,367.8 185.8,373 	"/>
</g>
<g>
	<path class="st0" d="M410.9,419.7h-84.3v-79.6c0-4.9,3.9-8.8,8.8-8.8h66.7c4.9,0,8.8,3.9,8.8,8.8V419.7z"/>
	<path class="st8" d="M326.6,384.1H318c-4.7,0-8.6-3.8-8.6-8.6v-18.8"/>
	<path class="st4" d="M309.4,365.5L309.4,365.5c-1.4,0-2.5-1.1-2.5-2.5v-4.1c0-1.4,1.1-2.5,2.5-2.5l0,0c1.4,0,2.5,1.1,2.5,2.5v4.1
		C311.9,364.3,310.8,365.5,309.4,365.5z"/>
	<path class="st4" d="M349.5,382.4L349.5,382.4c-2.8,0-5.1-2.3-5.1-5.1v-9c0-2.8,2.3-5.1,5.1-5.1l0,0c2.8,0,5.1,2.3,5.1,5.1v9
		C354.6,380.1,352.3,382.4,349.5,382.4z"/>
	<path class="st4" d="M384.8,382.4L384.8,382.4c-2.8,0-5.1-2.3-5.1-5.1v-9c0-2.8,2.3-5.1,5.1-5.1l0,0c2.8,0,5.1,2.3,5.1,5.1v9
		C389.9,380.1,387.6,382.4,384.8,382.4z"/>
	<path class="st4" d="M367.4,393.9L367.4,393.9c-3.8,0-6.8-3.1-6.8-6.8v-1.5h13.6v1.5C374.2,390.8,371.2,393.9,367.4,393.9z"/>
	<line class="st8" x1="412.6" y1="384.1" x2="412.6" y2="419.7"/>
</g>
<rect x="131.1" y="483.8" transform="matrix(-1.836970e-16 1 -1 -1.836970e-16 622.3903 350.776)" class="st6" width="9.5" height="5.5"/>
<rect x="126.5" y="484.7" transform="matrix(-1.836970e-16 1 -1 -1.836970e-16 617.797 355.3692)" class="st1" width="9.5" height="3.7"/>
<polygon class="st7" points="85.4,491.3 75.4,486.6 85.4,481.8 129.4,481.8 129.4,491.3 "/>
<polyline class="st4" points="133.1,491.3 129.4,491.3 129.4,489.1 133.1,490 "/>
<polyline class="st0" points="133.1,490 138.3,491.3 133.1,491.3 "/>
<path class="st4" d="M531,213h-91l4-26.6c4.6-19.6,22.2-33.4,42.4-33.1h0c20.1,0.2,37.4,14.4,41.6,34.1L531,213z"/>
<path class="st4" d="M504.5,178l-38-0.4l0.3-22.5c0.1-10.5,8.7-18.9,19.2-18.8h0c10.5,0.1,18.9,8.7,18.8,19.2L504.5,178z"/>
<polygon class="st6" points="763.6,489.2 84.6,491.1 0.6,491.3 0.7,540.1 763.6,538 "/>
</svg>
