<?xml version="1.0" encoding="UTF-8" standalone="no"?>
<!DOCTYPE svg PUBLIC "-//W3C//DTD SVG 1.1//EN" "http://www.w3.org/Graphics/SVG/1.1/DTD/svg11.dtd">
<svg width="100%" height="100%" viewBox="0 0 1376 309" version="1.1" xmlns="http://www.w3.org/2000/svg" xmlns:xlink="http://www.w3.org/1999/xlink" xml:space="preserve" xmlns:serif="http://www.serif.com/" style="fill-rule:evenodd;clip-rule:evenodd;stroke-linejoin:round;stroke-miterlimit:2;">
    <rect x="-0.4" y="286" width="1377" height="23" style="fill:rgb(41,62,129);"/>
    <path d="M489.2,127.7L489.2,57.5L474.9,57.5L474.9,127.7L414.9,127.7L414.9,141.7L423,141.7L424.4,153.3L444,308.9L520.2,308.9L541.2,141.7L549.3,141.7L549.3,127.7L489.2,127.7Z" style="fill:rgb(41,62,129);fill-opacity:0.5;fill-rule:nonzero;"/>
    <path d="M416.5,185.7L403.7,185.7L403.7,110.2L384.1,110.2L384.1,143L374.6,143L374.6,185.7L372.8,185.7L372.8,119L360.8,119L360.8,149.8C360.3,149.5 359.7,149.3 359,149.3C357.2,149.3 355.7,150.8 355.7,152.6L355.7,159.2L352.2,159.2L352.2,136.9L344.6,136.9L344.6,131.2L346.2,131.2L346.2,126.3L342.6,126.3L342.6,120.8C342.6,118.6 340.8,116.8 338.6,116.8C336.4,116.8 334.6,118.6 334.6,120.8L334.6,126.3L330.1,126.3L330.1,162L332.6,162L332.6,185.8L317.3,185.8L317.3,197.9C316.6,197.9 315.9,197.9 315.2,198C315,198 314.7,198 314.5,198.1C313.5,198.2 312.5,198.3 311.5,198.4L311.3,198.4C310.4,198.5 309.5,198.7 308.6,198.9C308.4,198.9 308.3,199 308.1,199C307.2,199.2 306.3,199.5 305.4,199.8L305.3,199.8C304.4,200.1 303.6,200.4 302.7,200.7C302.6,200.7 302.5,200.8 302.4,200.8C301.5,201.2 300.7,201.6 299.9,202C299.1,202.4 298.3,202.9 297.5,203.4C270.1,220.6 276.8,271.7 317.4,272.6L317.4,284.7L329.8,284.7L329.8,297.9L404.7,297.9L404.7,284.7L416.5,284.7L416.5,185.7ZM353.8,163.8L353.8,185.7L352.3,185.7L352.3,163.8L353.8,163.8ZM304.1,216.2C304.3,216.1 304.5,215.9 304.7,215.8C305.1,215.5 305.4,215.3 305.8,215.1C306,215 306.3,214.8 306.5,214.7C306.9,214.5 307.3,214.3 307.7,214.1C307.9,214 308.2,213.9 308.4,213.8C309,213.5 309.7,213.3 310.4,213C310.6,213 310.7,212.9 310.9,212.9C311.5,212.7 312.1,212.6 312.7,212.4C313,212.3 313.2,212.3 313.5,212.3C314.1,212.2 314.6,212.1 315.2,212C315.5,212 315.7,211.9 316,211.9C316.5,211.9 317,211.8 317.5,211.8L317.5,258.9C317,258.9 316.5,258.9 316,258.8C315.8,258.8 315.6,258.8 315.4,258.7C314.7,258.6 314,258.5 313.3,258.4L313,258.4C312.3,258.2 311.5,258.1 310.8,257.8C310.6,257.7 310.4,257.7 310.2,257.6C309.6,257.4 309.1,257.2 308.5,257C308.4,256.9 308.2,256.9 308.1,256.8C307.5,256.5 306.9,256.2 306.3,255.9C306.1,255.8 306,255.7 305.8,255.6C292.1,247.4 291.5,225.6 304.1,216.2Z" style="fill:rgb(41,62,129);fill-opacity:0.5;fill-rule:nonzero;"/>
    <g opacity="0.5">
        <path d="M231.8,95L231.8,150.5L190.6,150.5L190.6,119.6L137.3,119.6L137.3,297.9L276.2,297.9L276.2,95L231.8,95Z" style="fill:rgb(41,62,129);fill-rule:nonzero;"/>
        <rect x="0.1" y="255.6" width="130.7" height="42.1" style="fill:rgb(41,62,129);"/>
    </g>
    <g opacity="0.5">
        <path d="M1148.1,151.5L1106.8,151.5L1106.8,120.6L1053.4,120.6L1053.4,76.6L1004.8,76.6L1004.8,298.9L1192.6,298.9L1192.6,96L1148.1,96L1148.1,151.5Z" style="fill:rgb(41,62,129);fill-rule:nonzero;"/>
        <g transform="matrix(0.2396,-0.9709,0.9709,0.2396,716.216,1435.43)">
            <rect x="1253.4" y="186.7" width="42.1" height="147.7" style="fill:rgb(41,62,129);"/>
        </g>
        <g transform="matrix(0.3393,-0.9407,0.9407,0.3393,428.978,1040.78)">
            <rect x="874.7" y="192" width="161.4" height="46.1" style="fill:rgb(41,62,129);"/>
        </g>
        <rect x="847.9" y="103.5" width="58.4" height="195.4" style="fill:rgb(41,62,129);"/>
    </g>
    <g>
        <path d="M872.7,-0.3L503.5,-0.3C496.1,-0.3 490.1,5.7 490.1,13.1L490.1,228.9C490.1,236.3 496.1,242.3 503.5,242.3L638.3,242.3L638.3,280.3L600.9,280.3L600.9,289.2L787.8,289.2L787.8,280.3L749.5,280.3L749.5,242.2L872.7,242.2C880.1,242.2 886.1,236.2 886.1,228.8L886.1,13.1C886.1,5.7 880.1,-0.3 872.7,-0.3Z" style="fill:rgb(41,62,129);fill-rule:nonzero;"/>
    </g>
</svg>
