<?xml version="1.0" encoding="utf-8"?>
<!-- Generator: Adobe Illustrator 25.1.0, SVG Export Plug-In . SVG Version: 6.00 Build 0)  -->
<svg version="1.1" id="Layer_1" xmlns="http://www.w3.org/2000/svg" xmlns:xlink="http://www.w3.org/1999/xlink" x="0px" y="0px"
	 viewBox="0 0 534.2 60.6" style="enable-background:new 0 0 534.2 60.6;" xml:space="preserve">
<style type="text/css">
	.st0{fill:#E77625;}
</style>
<g>
	<path d="M203.7,10.8l6.1,16.4h-3.7l-1.2-3.7h-6.1l-1.3,3.7h-3.6l6.2-16.4C200.1,10.8,203.7,10.8,203.7,10.8z M203.9,20.9l-2.1-6
		l0,0l-2.1,6H203.9z"/>
	<path d="M214.1,10.8v16.4h-3.3V10.8H214.1z"/>
	<path d="M219.8,10.5v6l0,0c0.4-0.6,0.9-1.1,1.6-1.3c0.7-0.3,1.4-0.4,2.1-0.4c0.6,0,1.2,0.1,1.8,0.4c0.6,0.2,1.1,0.6,1.6,1.1
		c0.5,0.5,0.8,1.2,1.1,1.9c0.3,0.8,0.4,1.7,0.4,2.8c0,1.1-0.1,2-0.4,2.8c-0.3,0.8-0.7,1.4-1.1,1.9c-0.5,0.5-1,0.9-1.6,1.1
		s-1.2,0.4-1.8,0.4c-0.9,0-1.7-0.1-2.3-0.4c-0.7-0.3-1.2-0.7-1.6-1.4l0,0v1.5h-3.1V10.5H219.8z M225.1,19.5
		c-0.1-0.5-0.3-0.9-0.5-1.2c-0.2-0.4-0.5-0.6-0.9-0.8c-0.3-0.2-0.8-0.3-1.3-0.3s-0.9,0.1-1.2,0.3c-0.4,0.2-0.6,0.5-0.9,0.8
		c-0.2,0.4-0.4,0.8-0.5,1.2c-0.1,0.5-0.2,0.9-0.2,1.4s0.1,1,0.2,1.4c0.1,0.5,0.3,0.9,0.5,1.2c0.2,0.4,0.5,0.6,0.9,0.8
		c0.4,0.2,0.8,0.3,1.2,0.3c0.5,0,0.9-0.1,1.3-0.3c0.3-0.2,0.6-0.5,0.9-0.8c0.2-0.4,0.4-0.8,0.5-1.2s0.2-0.9,0.2-1.4
		C225.3,20.5,225.2,20,225.1,19.5z"/>
	<path d="M233.8,24.1c0.5,0.5,1.2,0.7,2.1,0.7c0.7,0,1.2-0.2,1.7-0.5s0.8-0.7,0.9-1h2.9c-0.5,1.4-1.2,2.4-2.1,3.1
		c-1,0.6-2.1,0.9-3.5,0.9c-0.9,0-1.8-0.1-2.5-0.4c-0.8-0.3-1.4-0.7-1.9-1.3c-0.5-0.6-0.9-1.2-1.2-2s-0.4-1.6-0.4-2.5
		s0.1-1.7,0.4-2.5c0.3-0.8,0.7-1.4,1.2-2s1.2-1,1.9-1.3s1.6-0.5,2.5-0.5c1,0,1.9,0.2,2.6,0.6s1.4,0.9,1.9,1.6s0.8,1.4,1,2.3
		c0.2,0.8,0.3,1.7,0.2,2.6H233C233.1,22.8,233.3,23.6,233.8,24.1z M237.5,17.8c-0.4-0.4-1-0.6-1.8-0.6c-0.5,0-1,0.1-1.3,0.3
		c-0.3,0.2-0.6,0.4-0.8,0.7s-0.4,0.5-0.4,0.8c-0.1,0.3-0.1,0.6-0.1,0.8h5.3C238.2,18.9,237.9,18.2,237.5,17.8z"/>
	<path d="M245.9,15.3v2.2l0,0c0.2-0.4,0.4-0.7,0.6-1c0.3-0.3,0.6-0.6,0.9-0.8c0.3-0.2,0.7-0.4,1.1-0.5c0.4-0.1,0.8-0.2,1.2-0.2
		c0.2,0,0.5,0,0.7,0.1v3c-0.2,0-0.3-0.1-0.6-0.1s-0.4,0-0.6,0c-0.6,0-1.1,0.1-1.5,0.3s-0.7,0.5-1,0.8s-0.4,0.7-0.5,1.2
		s-0.2,1-0.2,1.5v5.4h-3.3V15.3H245.9z"/>
	<path d="M258.6,15.2v2.2h-2.4v5.9c0,0.6,0.1,0.9,0.3,1.1c0.2,0.2,0.6,0.3,1.1,0.3c0.2,0,0.4,0,0.5,0c0.2,0,0.3,0,0.5-0.1v2.5
		c-0.3,0-0.6,0.1-0.9,0.1s-0.7,0-1,0c-0.5,0-1,0-1.4-0.1c-0.5-0.1-0.9-0.2-1.2-0.4c-0.3-0.2-0.6-0.5-0.8-0.9s-0.3-0.9-0.3-1.4v-7h-2
		v-2.2h2v-3.6h3.3v3.6C256.3,15.2,258.6,15.2,258.6,15.2z"/>
	<path d="M273.7,23.5c-0.1,0.6-0.4,1.2-0.7,1.8c-0.4,0.6-0.9,1-1.7,1.4c-0.7,0.4-1.7,0.6-2.9,0.6c-0.7,0-1.4-0.1-2-0.3
		c-0.6-0.2-1.2-0.5-1.7-0.9s-0.9-0.9-1.2-1.6c-0.3-0.6-0.5-1.4-0.5-2.3v-1.4h3.3v0.7c0,0.4,0,0.8,0.1,1.1s0.2,0.6,0.3,0.9
		c0.2,0.2,0.4,0.4,0.6,0.6c0.3,0.1,0.6,0.2,1,0.2c0.5,0,0.8-0.1,1.1-0.3c0.3-0.2,0.4-0.4,0.6-0.7c0.1-0.3,0.2-0.6,0.2-0.9
		s0-0.6,0-0.9V10.4h3.6v11.2C273.9,22.2,273.8,22.8,273.7,23.5z"/>
	<path d="M279.1,23.7v3.5h-3.6v-3.5H279.1z"/>
	<path d="M288.5,22.8c0.2,0.4,0.5,0.7,0.8,0.9c0.3,0.2,0.7,0.4,1.2,0.5c0.4,0.1,0.9,0.2,1.4,0.2c0.3,0,0.7,0,1-0.1
		c0.4-0.1,0.7-0.2,1-0.3c0.3-0.2,0.6-0.4,0.8-0.6c0.2-0.3,0.3-0.6,0.3-1s-0.1-0.8-0.4-1.1c-0.3-0.3-0.7-0.5-1.1-0.7s-1-0.3-1.6-0.5
		c-0.6-0.1-1.2-0.3-1.8-0.5c-0.6-0.2-1.2-0.3-1.8-0.6s-1.1-0.5-1.6-0.9s-0.8-0.8-1.1-1.3c-0.3-0.5-0.4-1.2-0.4-1.9
		c0-0.8,0.2-1.6,0.5-2.2s0.8-1.1,1.4-1.6c0.6-0.4,1.2-0.7,2-0.9c0.7-0.2,1.5-0.3,2.2-0.3c0.9,0,1.7,0.1,2.5,0.3s1.5,0.5,2.1,0.9
		s1.1,1,1.5,1.6s0.5,1.5,0.5,2.4h-3.5c0-0.5-0.1-0.9-0.3-1.2c-0.2-0.3-0.4-0.6-0.7-0.8c-0.3-0.2-0.6-0.3-1-0.4
		c-0.4-0.1-0.8-0.1-1.2-0.1c-0.3,0-0.6,0-0.9,0.1s-0.6,0.2-0.8,0.3c-0.2,0.2-0.4,0.3-0.6,0.6s-0.2,0.5-0.2,0.9
		c0,0.3,0.1,0.6,0.2,0.8s0.4,0.4,0.7,0.6c0.4,0.2,0.9,0.3,1.5,0.5s1.5,0.4,2.5,0.6c0.3,0.1,0.7,0.2,1.3,0.3c0.5,0.2,1.1,0.4,1.6,0.8
		s1,0.8,1.4,1.4s0.6,1.3,0.6,2.3c0,0.8-0.1,1.4-0.4,2.1c-0.3,0.6-0.7,1.2-1.3,1.7c-0.6,0.5-1.3,0.8-2.1,1.1c-0.9,0.3-1.8,0.4-3,0.4
		c-0.9,0-1.8-0.1-2.6-0.3c-0.9-0.2-1.6-0.6-2.3-1c-0.7-0.5-1.2-1.1-1.6-1.8c-0.4-0.7-0.6-1.6-0.6-2.6h3.5
		C288.2,22,288.3,22.4,288.5,22.8z"/>
	<path d="M301,13.5v-2.7h3.3v2.7H301z M304.3,15.3v11.9H301V15.3H304.3z"/>
	<path d="M308.7,15.3v1.6l0,0c0.4-0.6,0.9-1.1,1.6-1.4c0.6-0.3,1.3-0.5,2.1-0.5c0.8,0,1.4,0.1,2.1,0.4c0.6,0.3,1.1,0.8,1.4,1.5
		c0.4-0.5,0.8-1,1.4-1.4s1.3-0.6,2.2-0.6c0.6,0,1.2,0.1,1.7,0.2c0.5,0.2,1,0.4,1.4,0.7c0.4,0.3,0.7,0.8,0.9,1.3s0.3,1.2,0.3,2v8
		h-3.3v-6.7c0-0.4,0-0.8,0-1.1c0-0.4-0.1-0.7-0.3-0.9c-0.1-0.3-0.3-0.5-0.6-0.6c-0.3-0.2-0.6-0.2-1.1-0.2s-0.8,0.1-1.1,0.3
		c-0.3,0.2-0.5,0.4-0.7,0.7c-0.2,0.3-0.3,0.6-0.3,1c-0.1,0.4-0.1,0.7-0.1,1.1v6.6H313v-6.7c0-0.4,0-0.7,0-1s-0.1-0.7-0.2-1
		s-0.3-0.5-0.6-0.7s-0.7-0.3-1.2-0.3c-0.2,0-0.4,0-0.6,0.1c-0.3,0.1-0.5,0.2-0.7,0.4c-0.2,0.2-0.4,0.5-0.6,0.8
		c-0.2,0.4-0.3,0.8-0.3,1.4v6.9h-3.3V15.3H308.7z"/>
	<path d="M326.6,18.4c0.3-0.8,0.7-1.4,1.2-2c0.5-0.5,1.2-1,1.9-1.3c0.8-0.3,1.6-0.4,2.5-0.4s1.8,0.1,2.5,0.4
		c0.8,0.3,1.4,0.7,1.9,1.3c0.5,0.5,1,1.2,1.2,2c0.3,0.8,0.4,1.6,0.4,2.6s-0.1,1.8-0.4,2.6c-0.3,0.8-0.7,1.4-1.2,2
		c-0.5,0.5-1.2,1-1.9,1.3c-0.8,0.3-1.6,0.4-2.5,0.4s-1.8-0.1-2.5-0.4c-0.8-0.3-1.4-0.7-1.9-1.3c-0.5-0.5-1-1.2-1.2-2
		c-0.3-0.8-0.4-1.6-0.4-2.6S326.3,19.2,326.6,18.4z M329.6,22.4c0.1,0.5,0.2,0.9,0.5,1.2c0.2,0.4,0.5,0.6,0.9,0.9s0.8,0.3,1.4,0.3
		s1-0.1,1.4-0.3s0.7-0.5,0.9-0.9c0.2-0.4,0.4-0.8,0.5-1.2c0.1-0.5,0.1-0.9,0.1-1.4s0-0.9-0.1-1.4s-0.2-0.9-0.5-1.2
		c-0.2-0.4-0.5-0.6-0.9-0.9s-0.8-0.3-1.4-0.3s-1,0.1-1.4,0.3s-0.7,0.5-0.9,0.9c-0.2,0.4-0.4,0.8-0.5,1.2c-0.1,0.5-0.1,0.9-0.1,1.4
		C329.4,21.5,329.5,21.9,329.6,22.4z"/>
	<path d="M343.2,15.3V17h0.1c0.4-0.7,1-1.2,1.6-1.5c0.7-0.3,1.3-0.5,2-0.5c0.9,0,1.6,0.1,2.2,0.4s1,0.6,1.3,1s0.5,0.9,0.7,1.5
		c0.1,0.6,0.2,1.3,0.2,2v7.3H348v-6.7c0-1-0.2-1.7-0.5-2.2s-0.9-0.7-1.6-0.7c-0.9,0-1.5,0.3-1.9,0.8s-0.6,1.4-0.6,2.6v6.2h-3.3V15.3
		H343.2z"/>
	<path d="M357.1,24.1c0.5,0.5,1.2,0.7,2.1,0.7c0.7,0,1.2-0.2,1.7-0.5s0.8-0.7,0.9-1h2.9c-0.5,1.4-1.2,2.4-2.1,3.1
		c-1,0.6-2.1,0.9-3.5,0.9c-0.9,0-1.8-0.1-2.5-0.4c-0.8-0.3-1.4-0.7-1.9-1.3c-0.5-0.6-0.9-1.2-1.2-2c-0.3-0.8-0.4-1.6-0.4-2.5
		s0.1-1.7,0.4-2.5s0.7-1.4,1.2-2s1.2-1,1.9-1.3c0.7-0.3,1.6-0.5,2.5-0.5c1,0,1.9,0.2,2.6,0.6s1.4,0.9,1.9,1.6c0.5,0.7,0.8,1.4,1,2.3
		c0.2,0.8,0.3,1.7,0.2,2.6h-8.6C356.3,22.8,356.6,23.6,357.1,24.1z M360.7,17.8c-0.4-0.4-1-0.6-1.8-0.6c-0.5,0-1,0.1-1.3,0.3
		s-0.6,0.4-0.8,0.7s-0.4,0.5-0.4,0.8c-0.1,0.3-0.1,0.6-0.1,0.8h5.3C361.4,18.9,361.1,18.2,360.7,17.8z"/>
	<path d="M381.5,14.8c-0.2-0.3-0.5-0.6-0.8-0.9c-0.3-0.3-0.7-0.5-1.1-0.6s-0.8-0.2-1.3-0.2c-0.8,0-1.5,0.2-2.1,0.5s-1,0.7-1.4,1.3
		s-0.6,1.1-0.8,1.8s-0.2,1.4-0.2,2.1s0.1,1.4,0.2,2s0.4,1.2,0.8,1.8c0.4,0.5,0.8,0.9,1.4,1.3c0.6,0.3,1.3,0.5,2.1,0.5
		c1.1,0,2-0.3,2.6-1s1-1.6,1.1-2.7h3.5c-0.1,1-0.3,2-0.7,2.8c-0.4,0.8-0.9,1.5-1.5,2.1s-1.4,1-2.2,1.3c-0.8,0.3-1.8,0.5-2.8,0.5
		c-1.3,0-2.4-0.2-3.4-0.7c-1-0.4-1.9-1-2.5-1.8c-0.7-0.8-1.2-1.7-1.6-2.7s-0.6-2.2-0.6-3.3c0-1.2,0.2-2.4,0.6-3.4s0.9-2,1.6-2.7
		c0.7-0.8,1.5-1.4,2.5-1.8c1-0.4,2.1-0.7,3.4-0.7c0.9,0,1.8,0.1,2.6,0.4c0.8,0.3,1.5,0.6,2.2,1.1c0.6,0.5,1.2,1.1,1.6,1.9
		c0.4,0.7,0.7,1.6,0.8,2.5H382C381.9,15.5,381.8,15.2,381.5,14.8z"/>
	<path d="M390.7,24.1c0.5,0.5,1.2,0.7,2.1,0.7c0.7,0,1.2-0.2,1.7-0.5s0.8-0.7,0.9-1h2.9c-0.5,1.4-1.2,2.4-2.1,3.1
		c-1,0.6-2.1,0.9-3.5,0.9c-0.9,0-1.8-0.1-2.5-0.4c-0.8-0.3-1.4-0.7-1.9-1.3c-0.5-0.6-0.9-1.2-1.2-2c-0.3-0.8-0.4-1.6-0.4-2.5
		s0.1-1.7,0.4-2.5s0.7-1.4,1.2-2s1.2-1,1.9-1.3c0.7-0.3,1.6-0.5,2.5-0.5c1,0,1.9,0.2,2.6,0.6s1.4,0.9,1.9,1.6c0.5,0.7,0.8,1.4,1,2.3
		c0.2,0.8,0.3,1.7,0.2,2.6h-8.6C390,22.8,390.2,23.6,390.7,24.1z M394.4,17.8c-0.4-0.4-1-0.6-1.8-0.6c-0.5,0-1,0.1-1.3,0.3
		s-0.6,0.4-0.8,0.7s-0.4,0.5-0.4,0.8c-0.1,0.3-0.1,0.6-0.1,0.8h5.3C395.1,18.9,394.8,18.2,394.4,17.8z"/>
	<path d="M403.2,15.3V17h0.1c0.4-0.7,1-1.2,1.6-1.5c0.7-0.3,1.3-0.5,2-0.5c0.9,0,1.6,0.1,2.2,0.4s1,0.6,1.3,1s0.5,0.9,0.7,1.5
		c0.1,0.6,0.2,1.3,0.2,2v7.3H408v-6.7c0-1-0.2-1.7-0.5-2.2s-0.9-0.7-1.6-0.7c-0.9,0-1.5,0.3-1.9,0.8s-0.6,1.4-0.6,2.6v6.2h-3.3V15.3
		H403.2z"/>
	<path d="M419.9,15.2v2.2h-2.4v5.9c0,0.6,0.1,0.9,0.3,1.1c0.2,0.2,0.6,0.3,1.1,0.3c0.2,0,0.4,0,0.5,0c0.2,0,0.3,0,0.5-0.1v2.5
		c-0.3,0-0.6,0.1-0.9,0.1s-0.7,0-1,0c-0.5,0-1,0-1.4-0.1c-0.5-0.1-0.9-0.2-1.2-0.4c-0.3-0.2-0.6-0.5-0.8-0.9
		c-0.2-0.4-0.3-0.9-0.3-1.4v-7h-2v-2.2h2v-3.6h3.3v3.6C417.6,15.2,419.9,15.2,419.9,15.2z"/>
	<path d="M424.7,24.1c0.5,0.5,1.2,0.7,2.1,0.7c0.7,0,1.2-0.2,1.7-0.5s0.8-0.7,0.9-1h2.9c-0.5,1.4-1.2,2.4-2.1,3.1
		c-1,0.6-2.1,0.9-3.5,0.9c-0.9,0-1.8-0.1-2.5-0.4c-0.8-0.3-1.4-0.7-1.9-1.3c-0.5-0.6-0.9-1.2-1.2-2c-0.3-0.8-0.4-1.6-0.4-2.5
		s0.1-1.7,0.4-2.5s0.7-1.4,1.2-2s1.2-1,1.9-1.3c0.7-0.3,1.6-0.5,2.5-0.5c1,0,1.9,0.2,2.6,0.6s1.4,0.9,1.9,1.6c0.5,0.7,0.8,1.4,1,2.3
		c0.2,0.8,0.3,1.7,0.2,2.6h-8.6C424,22.8,424.2,23.6,424.7,24.1z M428.4,17.8c-0.4-0.4-1-0.6-1.8-0.6c-0.5,0-1,0.1-1.3,0.3
		s-0.6,0.4-0.8,0.7s-0.4,0.5-0.4,0.8c-0.1,0.3-0.1,0.6-0.1,0.8h5.3C429.1,18.9,428.8,18.2,428.4,17.8z"/>
	<path d="M437.3,15.3v2.2l0,0c0.2-0.4,0.4-0.7,0.6-1c0.3-0.3,0.6-0.6,0.9-0.8s0.7-0.4,1.1-0.5s0.8-0.2,1.2-0.2c0.2,0,0.5,0,0.7,0.1
		v3c-0.2,0-0.3-0.1-0.6-0.1s-0.4,0-0.6,0c-0.6,0-1.1,0.1-1.5,0.3s-0.7,0.5-1,0.8s-0.4,0.7-0.5,1.2s-0.2,1-0.2,1.5v5.4h-3.3V15.3
		H437.3z"/>
	<path d="M445.8,17.5v-2.2h2v-0.9c0-1.1,0.3-1.9,1-2.6s1.7-1,3-1c0.3,0,0.6,0,0.9,0s0.6,0,0.9,0.1v2.4c-0.4,0-0.8-0.1-1.2-0.1
		c-0.4,0-0.8,0.1-1,0.3s-0.3,0.6-0.3,1v0.7h2.3v2.2H451v9.7h-3.3v-9.7L445.8,17.5L445.8,17.5z"/>
	<path d="M454.6,18.4c0.3-0.8,0.7-1.4,1.2-2c0.5-0.5,1.2-1,1.9-1.3c0.8-0.3,1.6-0.4,2.5-0.4s1.8,0.1,2.5,0.4
		c0.8,0.3,1.4,0.7,1.9,1.3c0.5,0.5,1,1.2,1.2,2c0.3,0.8,0.4,1.6,0.4,2.6s-0.1,1.8-0.4,2.6c-0.3,0.8-0.7,1.4-1.2,2
		c-0.5,0.5-1.2,1-1.9,1.3c-0.8,0.3-1.6,0.4-2.5,0.4s-1.8-0.1-2.5-0.4c-0.8-0.3-1.4-0.7-1.9-1.3c-0.5-0.5-1-1.2-1.2-2
		c-0.3-0.8-0.4-1.6-0.4-2.6S454.3,19.2,454.6,18.4z M457.6,22.4c0.1,0.5,0.2,0.9,0.5,1.2c0.2,0.4,0.5,0.6,0.9,0.9s0.8,0.3,1.4,0.3
		s1-0.1,1.4-0.3s0.7-0.5,0.9-0.9c0.2-0.4,0.4-0.8,0.5-1.2c0.1-0.5,0.1-0.9,0.1-1.4s0-0.9-0.1-1.4s-0.2-0.9-0.5-1.2
		c-0.2-0.4-0.5-0.6-0.9-0.9s-0.8-0.3-1.4-0.3s-1,0.1-1.4,0.3s-0.7,0.5-0.9,0.9c-0.2,0.4-0.4,0.8-0.5,1.2c-0.1,0.5-0.1,0.9-0.1,1.4
		S457.5,21.9,457.6,22.4z"/>
	<path d="M471.3,15.3v2.2l0,0c0.2-0.4,0.4-0.7,0.6-1c0.3-0.3,0.6-0.6,0.9-0.8s0.7-0.4,1.1-0.5s0.8-0.2,1.2-0.2c0.2,0,0.5,0,0.7,0.1
		v3c-0.2,0-0.3-0.1-0.6-0.1s-0.4,0-0.6,0c-0.6,0-1.1,0.1-1.5,0.3s-0.7,0.5-1,0.8s-0.4,0.7-0.5,1.2s-0.2,1-0.2,1.5v5.4h-3.3V15.3
		H471.3z"/>
	<path d="M196.6,35.1v16.4H193V35.1H196.6z"/>
	<path d="M202.6,39.6v1.7h0.1c0.4-0.7,1-1.2,1.6-1.5c0.7-0.3,1.3-0.5,2-0.5c0.9,0,1.6,0.1,2.2,0.4c0.6,0.2,1,0.6,1.3,1
		s0.5,0.9,0.7,1.5c0.1,0.6,0.2,1.3,0.2,2v7.3h-3.3v-6.7c0-1-0.2-1.7-0.5-2.2s-0.9-0.7-1.6-0.7c-0.9,0-1.5,0.3-1.9,0.8
		s-0.6,1.4-0.6,2.6v6.2h-3.3V39.6H202.6z"/>
	<path d="M216.2,39.6v1.7h0.1c0.4-0.7,1-1.2,1.6-1.5c0.7-0.3,1.3-0.5,2-0.5c0.9,0,1.6,0.1,2.2,0.4c0.6,0.2,1,0.6,1.3,1
		s0.5,0.9,0.7,1.5c0.1,0.6,0.2,1.3,0.2,2v7.3H221v-6.7c0-1-0.2-1.7-0.5-2.2s-0.9-0.7-1.6-0.7c-0.9,0-1.5,0.3-1.9,0.8
		s-0.6,1.4-0.6,2.6v6.2h-3.3V39.6H216.2z"/>
	<path d="M226.8,42.7c0.3-0.8,0.7-1.4,1.2-2c0.5-0.5,1.2-1,1.9-1.3c0.8-0.3,1.6-0.4,2.5-0.4s1.8,0.1,2.5,0.4
		c0.8,0.3,1.4,0.7,1.9,1.3c0.5,0.5,1,1.2,1.2,2c0.3,0.8,0.4,1.6,0.4,2.6s-0.1,1.8-0.4,2.6c-0.3,0.8-0.7,1.4-1.2,2
		c-0.5,0.5-1.2,1-1.9,1.3c-0.8,0.3-1.6,0.4-2.5,0.4s-1.8-0.1-2.5-0.4c-0.8-0.3-1.4-0.7-1.9-1.3c-0.5-0.5-1-1.2-1.2-2
		c-0.3-0.8-0.4-1.6-0.4-2.6C226.4,44.3,226.5,43.5,226.8,42.7z M229.8,46.7c0.1,0.5,0.2,0.9,0.5,1.2c0.2,0.4,0.5,0.6,0.9,0.9
		c0.4,0.2,0.8,0.3,1.4,0.3c0.6,0,1-0.1,1.4-0.3s0.7-0.5,0.9-0.9s0.4-0.8,0.5-1.2c0.1-0.5,0.1-0.9,0.1-1.4s0-0.9-0.1-1.4
		s-0.2-0.9-0.5-1.2c-0.2-0.4-0.5-0.6-0.9-0.9c-0.4-0.2-0.8-0.3-1.4-0.3c-0.6,0-1,0.1-1.4,0.3s-0.7,0.5-0.9,0.9s-0.4,0.8-0.5,1.2
		c-0.1,0.5-0.1,0.9-0.1,1.4C229.6,45.7,229.7,46.2,229.8,46.7z"/>
	<path d="M242.8,51.5l-4.1-11.9h3.4l2.5,8.1l0,0l2.5-8.1h3.2l-4,11.9H242.8z"/>
	<path d="M250.9,43c0-0.8,0.2-1.4,0.6-1.9s0.8-0.9,1.3-1.2s1.1-0.5,1.8-0.7c0.7-0.1,1.3-0.2,2-0.2c0.6,0,1.2,0,1.8,0.1
		c0.6,0.1,1.2,0.2,1.7,0.5c0.5,0.2,0.9,0.6,1.2,1c0.3,0.4,0.5,1,0.5,1.7v6.2c0,0.5,0,1.1,0.1,1.5s0.2,0.9,0.3,1.1h-3.3
		c-0.1-0.2-0.1-0.4-0.1-0.6c0-0.2-0.1-0.4-0.1-0.6c-0.5,0.5-1.1,0.9-1.8,1.1c-0.7,0.2-1.4,0.3-2.2,0.3c-0.6,0-1.1-0.1-1.6-0.2
		c-0.5-0.1-0.9-0.4-1.3-0.6c-0.4-0.3-0.7-0.7-0.9-1.1s-0.3-1-0.3-1.6c0-0.7,0.1-1.2,0.4-1.7c0.2-0.4,0.5-0.8,0.9-1
		c0.4-0.3,0.8-0.5,1.3-0.6s1-0.2,1.5-0.3s1-0.1,1.4-0.2c0.5,0,0.9-0.1,1.3-0.2c0.4-0.1,0.7-0.2,0.9-0.4s0.3-0.4,0.3-0.8
		c0-0.4-0.1-0.6-0.2-0.8s-0.3-0.4-0.5-0.5s-0.4-0.2-0.7-0.2c-0.3,0-0.5-0.1-0.8-0.1c-0.6,0-1.2,0.1-1.5,0.4
		c-0.4,0.3-0.6,0.7-0.6,1.4h-3.4V43z M258.4,45.4c-0.1,0.1-0.3,0.2-0.5,0.3s-0.4,0.1-0.7,0.2c-0.2,0-0.5,0.1-0.7,0.1
		c-0.3,0-0.5,0.1-0.8,0.1c-0.2,0-0.5,0.1-0.7,0.2c-0.2,0.1-0.4,0.2-0.6,0.3c-0.2,0.1-0.3,0.3-0.4,0.5c-0.1,0.2-0.2,0.5-0.2,0.8
		s0.1,0.5,0.2,0.7c0.1,0.2,0.3,0.4,0.4,0.5c0.2,0.1,0.4,0.2,0.6,0.2s0.5,0.1,0.8,0.1c0.6,0,1.1-0.1,1.5-0.3c0.4-0.2,0.6-0.5,0.8-0.8
		c0.2-0.3,0.3-0.6,0.3-0.9c0-0.3,0.1-0.6,0.1-0.7L258.4,45.4L258.4,45.4z"/>
	<path d="M270.6,39.5v2.2h-2.4v5.9c0,0.6,0.1,0.9,0.3,1.1c0.2,0.2,0.6,0.3,1.1,0.3c0.2,0,0.4,0,0.5,0c0.2,0,0.3,0,0.5-0.1v2.5
		c-0.3,0-0.6,0.1-0.9,0.1s-0.7,0-1,0c-0.5,0-1,0-1.4-0.1c-0.5-0.1-0.9-0.2-1.2-0.4c-0.3-0.2-0.6-0.5-0.8-0.9
		c-0.2-0.4-0.3-0.9-0.3-1.4v-7h-2v-2.2h2v-3.6h3.3v3.6C268.3,39.5,270.6,39.5,270.6,39.5z"/>
	<path d="M272,37.8v-2.7h3.3v2.7H272z M275.2,39.6v11.9H272V39.6H275.2z"/>
	<path d="M277.2,42.7c0.3-0.8,0.7-1.4,1.2-2c0.5-0.5,1.2-1,1.9-1.3c0.8-0.3,1.6-0.4,2.5-0.4s1.8,0.1,2.5,0.4
		c0.8,0.3,1.4,0.7,1.9,1.3c0.5,0.5,1,1.2,1.2,2c0.3,0.8,0.4,1.6,0.4,2.6s-0.1,1.8-0.4,2.6s-0.7,1.4-1.2,2c-0.5,0.5-1.2,1-1.9,1.3
		c-0.8,0.3-1.6,0.4-2.5,0.4s-1.8-0.1-2.5-0.4c-0.8-0.3-1.4-0.7-1.9-1.3c-0.5-0.5-1-1.2-1.2-2c-0.3-0.8-0.4-1.6-0.4-2.6
		C276.8,44.3,276.9,43.5,277.2,42.7z M280.2,46.7c0.1,0.5,0.2,0.9,0.5,1.2c0.2,0.4,0.5,0.6,0.9,0.9s0.8,0.3,1.4,0.3s1-0.1,1.4-0.3
		s0.7-0.5,0.9-0.9c0.2-0.4,0.4-0.8,0.5-1.2c0.1-0.5,0.1-0.9,0.1-1.4s0-0.9-0.1-1.4s-0.2-0.9-0.5-1.2c-0.2-0.4-0.5-0.6-0.9-0.9
		s-0.8-0.3-1.4-0.3s-1,0.1-1.4,0.3s-0.7,0.5-0.9,0.9c-0.2,0.4-0.4,0.8-0.5,1.2c-0.1,0.5-0.1,0.9-0.1,1.4
		C280,45.7,280.1,46.2,280.2,46.7z"/>
	<path d="M294,39.6v1.7h0.1c0.4-0.7,1-1.2,1.6-1.5c0.7-0.3,1.3-0.5,2-0.5c0.9,0,1.6,0.1,2.2,0.4s1,0.6,1.3,1s0.5,0.9,0.7,1.5
		c0.1,0.6,0.2,1.3,0.2,2v7.3h-3.3v-6.7c0-1-0.2-1.7-0.5-2.2s-0.9-0.7-1.6-0.7c-0.9,0-1.5,0.3-1.9,0.8s-0.6,1.4-0.6,2.6v6.2h-3.3
		V39.6H294z"/>
	<path d="M307.8,43c0-0.8,0.2-1.4,0.6-1.9s0.8-0.9,1.3-1.2s1.1-0.5,1.8-0.7c0.7-0.1,1.3-0.2,2-0.2c0.6,0,1.2,0,1.8,0.1
		c0.6,0.1,1.2,0.2,1.7,0.5c0.5,0.2,0.9,0.6,1.2,1c0.3,0.4,0.5,1,0.5,1.7v6.2c0,0.5,0,1.1,0.1,1.5s0.2,0.9,0.3,1.1h-3.3
		c-0.1-0.2-0.1-0.4-0.1-0.6c0-0.2-0.1-0.4-0.1-0.6c-0.5,0.5-1.1,0.9-1.8,1.1c-0.7,0.2-1.4,0.3-2.2,0.3c-0.6,0-1.1-0.1-1.6-0.2
		c-0.5-0.1-0.9-0.4-1.3-0.6c-0.4-0.3-0.7-0.7-0.9-1.1s-0.3-1-0.3-1.6c0-0.7,0.1-1.2,0.4-1.7c0.2-0.4,0.5-0.8,0.9-1
		c0.4-0.3,0.8-0.5,1.3-0.6s1-0.2,1.5-0.3s1-0.1,1.4-0.2s0.9-0.1,1.3-0.2c0.4-0.1,0.7-0.2,0.9-0.4s0.3-0.4,0.3-0.8
		c0-0.4-0.1-0.6-0.2-0.8s-0.3-0.4-0.5-0.5s-0.4-0.2-0.7-0.2c-0.3,0-0.5-0.1-0.8-0.1c-0.6,0-1.2,0.1-1.5,0.4
		c-0.4,0.3-0.6,0.7-0.6,1.4h-3.4V43z M315.3,45.4c-0.1,0.1-0.3,0.2-0.5,0.3s-0.4,0.1-0.7,0.2c-0.2,0-0.5,0.1-0.7,0.1
		c-0.3,0-0.5,0.1-0.8,0.1c-0.2,0-0.5,0.1-0.7,0.2c-0.2,0.1-0.4,0.2-0.6,0.3s-0.3,0.3-0.4,0.5s-0.2,0.5-0.2,0.8s0.1,0.5,0.2,0.7
		s0.3,0.4,0.4,0.5c0.2,0.1,0.4,0.2,0.6,0.2s0.5,0.1,0.8,0.1c0.6,0,1.1-0.1,1.5-0.3s0.6-0.5,0.8-0.8c0.2-0.3,0.3-0.6,0.3-0.9
		c0-0.3,0.1-0.6,0.1-0.7L315.3,45.4L315.3,45.4z"/>
	<path d="M324.2,39.6v1.7h0.1c0.4-0.7,1-1.2,1.6-1.5c0.7-0.3,1.3-0.5,2-0.5c0.9,0,1.6,0.1,2.2,0.4s1,0.6,1.3,1s0.5,0.9,0.7,1.5
		c0.1,0.6,0.2,1.3,0.2,2v7.3H329v-6.7c0-1-0.2-1.7-0.5-2.2s-0.9-0.7-1.6-0.7c-0.9,0-1.5,0.3-1.9,0.8s-0.6,1.4-0.6,2.6v6.2h-3.3V39.6
		H324.2z"/>
	<path d="M342.4,49.7c-0.4,0.6-0.9,1.1-1.5,1.4s-1.3,0.4-2.1,0.4c-0.9,0-1.7-0.2-2.3-0.5c-0.7-0.3-1.2-0.8-1.7-1.4
		c-0.4-0.6-0.8-1.3-1-2c-0.2-0.8-0.3-1.6-0.3-2.4c0-0.8,0.1-1.6,0.3-2.3s0.6-1.4,1-2s1-1,1.6-1.4c0.7-0.3,1.4-0.5,2.3-0.5
		c0.7,0,1.4,0.1,2,0.4c0.6,0.3,1.1,0.7,1.5,1.3l0,0v-6h3.3v16.4h-3.1L342.4,49.7L342.4,49.7z M342.2,43.8c-0.1-0.5-0.2-0.9-0.5-1.2
		c-0.2-0.3-0.5-0.6-0.9-0.8s-0.8-0.3-1.3-0.3s-1,0.1-1.4,0.3s-0.7,0.5-0.9,0.9c-0.2,0.4-0.4,0.8-0.5,1.2c-0.1,0.5-0.1,0.9-0.1,1.4
		s0.1,0.9,0.2,1.4s0.3,0.9,0.5,1.2c0.2,0.4,0.5,0.7,0.9,0.9s0.8,0.3,1.3,0.3s1-0.1,1.3-0.3s0.6-0.5,0.9-0.9c0.2-0.4,0.4-0.8,0.5-1.2
		s0.1-0.9,0.1-1.4S342.3,44.3,342.2,43.8z"/>
	<path d="M364.2,34.7v3h-8.7v3.5h8V44h-8v4h8.9v3h-12.5V34.7H364.2z"/>
	<path d="M369.5,39.2v1.7h0.1c0.4-0.7,1-1.2,1.6-1.5c0.7-0.3,1.3-0.5,2-0.5c0.9,0,1.6,0.1,2.2,0.4s1,0.6,1.3,1s0.5,0.9,0.7,1.5
		c0.1,0.6,0.2,1.3,0.2,2v7.3h-3.3v-6.7c0-1-0.2-1.7-0.5-2.2s-0.9-0.7-1.6-0.7c-0.9,0-1.5,0.3-1.9,0.8s-0.6,1.4-0.6,2.6v6.2h-3.3
		V39.2H369.5z"/>
	<path d="M386.6,39.1v2.2h-2.4v5.9c0,0.6,0.1,0.9,0.3,1.1c0.2,0.2,0.6,0.3,1.1,0.3c0.2,0,0.4,0,0.5,0c0.2,0,0.3,0,0.5-0.1V51
		c-0.3,0-0.6,0.1-0.9,0.1s-0.7,0-1,0c-0.5,0-1,0-1.4-0.1c-0.5-0.1-0.9-0.2-1.2-0.4c-0.3-0.2-0.6-0.5-0.8-0.9
		c-0.2-0.4-0.3-0.9-0.3-1.4v-7h-2v-2.2h2v-3.6h3.3v3.6C384.3,39.1,386.6,39.1,386.6,39.1z"/>
	<path d="M391.3,39.2v2.2l0,0c0.2-0.4,0.4-0.7,0.6-1c0.3-0.3,0.6-0.6,0.9-0.8s0.7-0.4,1.1-0.5s0.8-0.2,1.2-0.2c0.2,0,0.5,0,0.7,0.1
		v3c-0.2,0-0.3-0.1-0.6-0.1s-0.4,0-0.6,0c-0.6,0-1.1,0.1-1.5,0.3s-0.7,0.5-1,0.8s-0.4,0.7-0.5,1.2s-0.2,1-0.2,1.5v5.4h-3.3V39.2
		H391.3z"/>
	<path d="M400.2,47.9c0.5,0.5,1.2,0.7,2.1,0.7c0.7,0,1.2-0.2,1.7-0.5s0.8-0.7,0.9-1h2.9c-0.5,1.4-1.2,2.4-2.1,3.1
		c-1,0.6-2.1,0.9-3.5,0.9c-0.9,0-1.8-0.1-2.5-0.4c-0.8-0.3-1.4-0.7-1.9-1.3s-0.9-1.2-1.2-2c-0.3-0.8-0.4-1.6-0.4-2.5
		s0.1-1.7,0.4-2.5s0.7-1.4,1.2-2s1.2-1,1.9-1.3c0.7-0.3,1.6-0.5,2.5-0.5c1,0,1.9,0.2,2.6,0.6s1.4,0.9,1.9,1.6c0.5,0.7,0.8,1.4,1,2.3
		c0.2,0.8,0.3,1.7,0.2,2.6h-8.6C399.4,46.7,399.7,47.4,400.2,47.9z M403.9,41.7c-0.4-0.4-1-0.6-1.8-0.6c-0.5,0-1,0.1-1.3,0.3
		s-0.6,0.4-0.8,0.7s-0.4,0.5-0.4,0.8c-0.1,0.3-0.1,0.6-0.1,0.8h5.3C404.6,42.7,404.3,42.1,403.9,41.7z"/>
	<path d="M412.2,38.7v1.5l0,0c0.4-0.6,0.9-1.1,1.5-1.4c0.6-0.3,1.3-0.4,2-0.4c0.9,0,1.7,0.2,2.4,0.5c0.7,0.4,1.2,0.8,1.7,1.4
		c0.4,0.6,0.8,1.3,1,2c0.2,0.8,0.3,1.6,0.3,2.4c0,0.8-0.1,1.6-0.3,2.3s-0.5,1.4-1,2c-0.4,0.6-1,1-1.6,1.4s-1.4,0.5-2.3,0.5
		c-0.7,0-1.4-0.1-2-0.4c-0.6-0.3-1.1-0.7-1.5-1.3l0,0v5.6h-3.3V38.7H412.2z M416.5,48.1c0.4-0.2,0.7-0.5,0.9-0.8
		c0.2-0.3,0.4-0.7,0.5-1.2s0.1-0.9,0.1-1.4s0-0.9-0.1-1.4s-0.3-0.9-0.5-1.2c-0.2-0.4-0.5-0.7-0.9-0.9s-0.8-0.3-1.3-0.3
		s-1,0.1-1.3,0.3c-0.4,0.2-0.7,0.5-0.9,0.9c-0.2,0.4-0.4,0.8-0.5,1.2s-0.1,0.9-0.1,1.4s0,0.9,0.2,1.4c0.1,0.5,0.3,0.9,0.5,1.2
		s0.5,0.6,0.9,0.8s0.8,0.3,1.3,0.3C415.6,48.4,416.1,48.3,416.5,48.1z"/>
	<path d="M425.7,39.2v2.2l0,0c0.2-0.4,0.4-0.7,0.6-1c0.3-0.3,0.6-0.6,0.9-0.8s0.7-0.4,1.1-0.5s0.8-0.2,1.2-0.2c0.2,0,0.5,0,0.7,0.1
		v3c-0.2,0-0.3-0.1-0.6-0.1s-0.4,0-0.6,0c-0.6,0-1.1,0.1-1.5,0.3s-0.7,0.5-1,0.8s-0.4,0.7-0.5,1.2s-0.2,1-0.2,1.5v5.4h-3.3V39.2
		H425.7z"/>
	<path d="M434.7,47.9c0.5,0.5,1.2,0.7,2.1,0.7c0.7,0,1.2-0.2,1.7-0.5s0.8-0.7,0.9-1h2.9c-0.5,1.4-1.2,2.4-2.1,3.1
		c-1,0.6-2.1,0.9-3.5,0.9c-0.9,0-1.8-0.1-2.5-0.4c-0.8-0.3-1.4-0.7-1.9-1.3s-0.9-1.2-1.2-2c-0.3-0.8-0.4-1.6-0.4-2.5
		s0.1-1.7,0.4-2.5s0.7-1.4,1.2-2s1.2-1,1.9-1.3c0.7-0.3,1.6-0.5,2.5-0.5c1,0,1.9,0.2,2.6,0.6s1.4,0.9,1.9,1.6c0.5,0.7,0.8,1.4,1,2.3
		c0.2,0.8,0.3,1.7,0.2,2.6h-8.6C434,46.7,434.2,47.4,434.7,47.9z M438.4,41.7c-0.4-0.4-1-0.6-1.8-0.6c-0.5,0-1,0.1-1.3,0.3
		s-0.6,0.4-0.8,0.7s-0.4,0.5-0.4,0.8c-0.1,0.3-0.1,0.6-0.1,0.8h5.3C439.1,42.7,438.8,42.1,438.4,41.7z"/>
	<path d="M447.3,39.2v1.7h0.1c0.4-0.7,1-1.2,1.6-1.5c0.7-0.3,1.3-0.5,2-0.5c0.9,0,1.6,0.1,2.2,0.4s1,0.6,1.3,1s0.5,0.9,0.7,1.5
		c0.1,0.6,0.2,1.3,0.2,2v7.3h-3.3v-6.7c0-1-0.2-1.7-0.5-2.2s-0.9-0.7-1.6-0.7c-0.9,0-1.5,0.3-1.9,0.8s-0.6,1.4-0.6,2.6v6.2h-3.3
		V39.2H447.3z"/>
	<path d="M460.7,47.9c0.5,0.5,1.2,0.7,2.1,0.7c0.7,0,1.2-0.2,1.7-0.5s0.8-0.7,0.9-1h2.9c-0.5,1.4-1.2,2.4-2.1,3.1
		c-1,0.6-2.1,0.9-3.5,0.9c-0.9,0-1.8-0.1-2.5-0.4c-0.8-0.3-1.4-0.7-1.9-1.3s-0.9-1.2-1.2-2c-0.3-0.8-0.4-1.6-0.4-2.5
		s0.1-1.7,0.4-2.5s0.7-1.4,1.2-2s1.2-1,1.9-1.3c0.7-0.3,1.6-0.5,2.5-0.5c1,0,1.9,0.2,2.6,0.6s1.4,0.9,1.9,1.6c0.5,0.7,0.8,1.4,1,2.3
		c0.2,0.8,0.3,1.7,0.2,2.6h-8.6C459.9,46.7,460.2,47.4,460.7,47.9z M464.3,41.7c-0.4-0.4-1-0.6-1.8-0.6c-0.5,0-1,0.1-1.3,0.3
		s-0.6,0.4-0.8,0.7s-0.4,0.5-0.4,0.8c-0.1,0.3-0.1,0.6-0.1,0.8h5.3C465,42.7,464.7,42.1,464.3,41.7z"/>
	<path d="M478.3,50.8v-1.7h-0.1c-0.4,0.7-1,1.2-1.6,1.5c-0.7,0.3-1.3,0.5-2,0.5c-0.9,0-1.6-0.1-2.2-0.3s-1-0.6-1.3-1
		s-0.5-0.9-0.7-1.5c-0.1-0.6-0.2-1.3-0.2-2V39h3.3v6.7c0,1,0.2,1.7,0.5,2.2s0.9,0.7,1.6,0.7c0.9,0,1.5-0.3,1.9-0.8s0.6-1.4,0.6-2.6
		V39h3.3v11.9h-3.1V50.8z"/>
	<path d="M486.8,39.2v2.2l0,0c0.2-0.4,0.4-0.7,0.6-1c0.3-0.3,0.6-0.6,0.9-0.8s0.7-0.4,1.1-0.5s0.8-0.2,1.2-0.2c0.2,0,0.5,0,0.7,0.1
		v3c-0.2,0-0.3-0.1-0.6-0.1s-0.4,0-0.6,0c-0.6,0-1.1,0.1-1.5,0.3s-0.7,0.5-1,0.8s-0.4,0.7-0.5,1.2s-0.2,1-0.2,1.5v5.4h-3.3V39.2
		H486.8z"/>
	<path d="M494.7,47.8c0.1,0.3,0.3,0.5,0.6,0.6c0.2,0.2,0.5,0.3,0.8,0.4c0.3,0.1,0.6,0.1,0.9,0.1c0.2,0,0.5,0,0.7-0.1
		s0.5-0.1,0.7-0.3c0.2-0.1,0.4-0.3,0.5-0.5s0.2-0.4,0.2-0.7c0-0.5-0.3-0.9-1-1.1s-1.6-0.5-2.7-0.7c-0.5-0.1-0.9-0.2-1.4-0.4
		c-0.5-0.1-0.9-0.3-1.2-0.6c-0.4-0.2-0.6-0.5-0.9-0.9s-0.3-0.8-0.3-1.3c0-0.8,0.1-1.4,0.4-1.9s0.7-0.9,1.2-1.2s1-0.5,1.7-0.6
		c0.6-0.1,1.2-0.2,1.9-0.2c0.6,0,1.3,0.1,1.9,0.2s1.1,0.3,1.6,0.6s0.9,0.7,1.2,1.2c0.3,0.5,0.5,1.1,0.6,1.8H499
		c0-0.6-0.3-1.1-0.7-1.3c-0.4-0.2-0.9-0.3-1.5-0.3c-0.2,0-0.4,0-0.6,0s-0.4,0.1-0.6,0.1c-0.2,0.1-0.3,0.2-0.4,0.3s-0.2,0.3-0.2,0.6
		s0.1,0.5,0.3,0.7c0.2,0.2,0.5,0.3,0.8,0.4c0.3,0.1,0.7,0.2,1.2,0.3c0.4,0.1,0.9,0.2,1.4,0.3s0.9,0.2,1.4,0.4s0.9,0.4,1.2,0.6
		s0.6,0.6,0.9,0.9c0.2,0.4,0.3,0.8,0.3,1.4c0,0.8-0.2,1.4-0.5,2c-0.3,0.5-0.7,1-1.2,1.3s-1.1,0.5-1.7,0.7c-0.7,0.1-1.3,0.2-2,0.2
		s-1.4-0.1-2-0.2c-0.7-0.1-1.2-0.4-1.8-0.7c-0.5-0.3-0.9-0.7-1.3-1.3c-0.3-0.5-0.5-1.2-0.5-2h3.1C494.4,47.3,494.5,47.6,494.7,47.8z
		"/>
	<path d="M506.6,34.7v6.2h0.1c0.4-0.7,0.9-1.2,1.6-1.5c0.6-0.3,1.3-0.5,1.9-0.5c0.9,0,1.6,0.1,2.2,0.4c0.6,0.2,1,0.6,1.3,1
		s0.5,0.9,0.7,1.5c0.1,0.6,0.2,1.3,0.2,2v7.3h-3.3v-6.7c0-1-0.2-1.7-0.5-2.2s-0.9-0.7-1.6-0.7c-0.9,0-1.5,0.3-1.9,0.8
		s-0.6,1.4-0.6,2.6v6.2h-3.3V34.7H506.6z"/>
	<path d="M516.8,37.3v-2.7h3.3v2.7H516.8z M520.1,39.2v11.9h-3.3V39.2H520.1z"/>
	<path d="M525.1,38.7v1.5l0,0c0.4-0.6,0.9-1.1,1.5-1.4c0.6-0.3,1.3-0.4,2-0.4c0.9,0,1.7,0.2,2.4,0.5c0.7,0.4,1.2,0.8,1.7,1.4
		c0.4,0.6,0.8,1.3,1,2c0.2,0.8,0.3,1.6,0.3,2.4c0,0.8-0.1,1.6-0.3,2.3s-0.5,1.4-1,2c-0.4,0.6-1,1-1.6,1.4s-1.4,0.5-2.3,0.5
		c-0.7,0-1.4-0.1-2-0.4c-0.6-0.3-1.1-0.7-1.5-1.3l0,0v5.6H522V38.7H525.1z M529.3,48.1c0.4-0.2,0.7-0.5,0.9-0.8s0.4-0.7,0.5-1.2
		s0.1-0.9,0.1-1.4s0-0.9-0.1-1.4s-0.3-0.9-0.5-1.2c-0.2-0.4-0.5-0.7-0.9-0.9s-0.8-0.3-1.3-0.3s-1,0.1-1.3,0.3
		c-0.4,0.2-0.7,0.5-0.9,0.9s-0.4,0.8-0.5,1.2s-0.1,0.9-0.1,1.4s0,0.9,0.2,1.4c0.1,0.5,0.3,0.9,0.5,1.2s0.5,0.6,0.9,0.8
		s0.8,0.3,1.3,0.3C528.5,48.4,528.9,48.3,529.3,48.1z"/>
</g>
<g>
	<rect x="175.7" y="0.4" width="2" height="59.4"/>
</g>
<g>
	<path class="st0" d="M87.7,6.5c1-2.7,4.5-2.7,7.2-2.7h0.5V0c0,0-10.8,0.2-14.1,0.2C78,0.3,68,0,68,0v3.8h0.5c2.8,0,6.2,0,7.2,2.7
		c0.7,3.9,1,7.8,0.9,11.8v24c0.2,3.9-0.1,7.9-0.9,11.8c-1,2.7-4.5,2.7-7.2,2.7H68v3.8c0,0,8.7-0.4,13.5-0.4c5.5,0,14.1,0.4,14.1,0.4
		v-3.8H95c-2.8,0-6.2,0-7.2-2.7c-0.7-3.9-1-7.8-0.9-11.8v-24C86.7,14.3,87,10.4,87.7,6.5z"/>
	<path class="st0" d="M103.7,0.1v15.7h3.7v-0.5c0.3-10.2,4.2-10.6,13.1-10.6c0.3,0,0.6,0,0.9,0c2.2,0,4.3,0,5.1,0.8
		c0.3,0.3,0.4,0.7,0.4,1.1v41.3c0,6.1-0.9,8.7-9.5,9h-0.5v3.7c0,0,10.1-0.4,15.9-0.4c4.4,0,14.4,0.4,14.4,0.4v-3.7h-0.5
		c-8.6-0.4-9.5-2.9-9.5-9V6.5c0-0.4,0.1-0.8,0.4-1c1-1,3.7-0.9,5.9-0.9c0.4,0,0.8,0,1.2,0c8.6,0,11.4,2.5,11.9,10.7v0.5h3.7V0.1
		c0,0-21.7,0.1-28.3,0.1C125.4,0.2,103.7,0.1,103.7,0.1z"/>
	<path class="st0" d="M59.6,56.8c-3.4-0.1-6.5-1.7-8.5-4.5L33.3,31.8c9.4-1.2,15.2-7.4,15.2-16.4c0.4-5.1-2.2-10-6.7-12.5
		C37.3,0.7,32.3-0.3,27.4,0C25.5,0,21,0.2,16,0.2C10.8,0.2,0,0,0,0v3.8h0.7c2.9,0,6.1,0,6.9,2.7c0.6,3.7,0.9,7.4,0.8,11.1v24.7
		C8.5,45.5,8.3,48.8,8,52c-0.1,0.7-0.2,1.4-0.4,2.1c-0.9,2.7-4.4,2.7-7.1,2.7H0v3.8c0,0,8.4-0.4,14-0.4c4.8,0,13.2,0.4,13.2,0.4
		v-3.8h-0.7c-2.8,0-6,0-6.9-2.7c-0.2-0.7-0.3-1.4-0.4-2.1c-0.3-3-0.4-6-0.4-9V32.8c3.3,0,3.6,0.4,5.4,2.5c0.3,0.4,0.7,0.8,1.1,1.3
		l14.9,18.5l4.4,5.4c0,0,4.8-0.2,7.1-0.2c3.4,0,8.4,0.2,8.4,0.2v-3.7H59.6z M18.7,28.7c0,0,0-21.9,0-22c0-0.9,0-2.1,0.7-2.4
		c1.9-0.1,3.8-0.1,5.6,0c7.7,0,12.1,4.5,12.1,12.3c0,5.7-1.5,9-4.9,10.6C29,28.7,18.7,28.7,18.7,28.7z"/>
</g>
</svg>
