<?xml version="1.0" encoding="utf-8"?>
<!-- Generator: Adobe Illustrator 20.1.0, SVG Export Plug-In . SVG Version: 6.00 Build 0)  -->
<svg version="1.1" id="Layer_2" xmlns="http://www.w3.org/2000/svg" xmlns:xlink="http://www.w3.org/1999/xlink" x="0px" y="0px"
	 viewBox="0 0 1366 768" style="enable-background:new 0 0 1366 768;" xml:space="preserve">
<style type="text/css">
	.st0{fill:#232220;}
	.st1{fill:#444341;}
	.st2{fill:#D4D7DE;}
	.st3{fill:#BBBBC0;}
	.st4{fill:#BFC2C9;}
	.st5{fill:#F79420;}
	.st6{fill:none;stroke:#F6921E;stroke-width:0.25;stroke-miterlimit:10;}
	.st7{fill:#DE582D;}
	.st8{fill:#8A4232;}
	.st9{fill:#682E26;}
	.st10{fill:#F69977;}
	.st11{fill:#F58962;}
	.st12{fill:#404041;}
	.st13{fill:#F8F1A9;}
</style>
<g>
	<path class="st0" d="M25,222.7l93.9,9.8c0.5,0.1,0.9,0.4,1.2,0.8l23.5,52.8c0.4,1-0.3,2.1-1.4,2l-94.5-8.9c-0.5,0-1-0.4-1.2-0.9
		l-23-53.6C23.1,223.7,23.9,222.6,25,222.7z"/>
	<path class="st1" d="M30,227.9c0.9,0.1,84.9,8.8,84.9,8.8l20.8,46.6L51,275.2L30,227.9z"/>
	<path class="st0" d="M13.1,329.7L13.1,329.7c0,1.7,1.3,3.1,3,3.3l87.7,9.1c1.9,0.2,3.7-0.6,4.8-2.1l30.9-42
		c1.5-2.1,2.4-4.6,2.4-7.2l0,0L13.1,329.7z"/>
	<path class="st2" d="M103.6,339.5L15,330.4c-2-0.2-3-2.5-1.8-4.1l32.6-44.5c1.2-1.7,3.2-2.6,5.3-2.4l87.8,8.1
		c2.5,0.2,3.8,3.1,2.3,5.1L109,337.1C107.7,338.8,105.7,339.7,103.6,339.5z"/>
	<path class="st3" d="M114,323.6l-86.7-9.7c-0.9-0.1-1.3-1.1-0.8-1.8l19.4-26.3c0.6-0.8,1.6-1.3,2.6-1.2l86.3,8.5
		c1,0.1,1.5,1.2,0.9,2l-19,27.3C116.1,323.3,115.1,323.7,114,323.6z"/>
	<polygon class="st0" points="62.4,280.5 60.7,282.2 128.4,289.6 129.6,286.9 	"/>
	<polygon class="st4" points="73.5,333.6 48.7,330.9 57.2,318.9 81.1,321.4 	"/>
	<polygon class="st0" points="85.2,318.7 50,314.6 53.5,310.4 88.7,314.5 	"/>
	<polyline class="st0" points="46.2,309.6 51.7,310.1 48.2,314.3 42.7,313.8 	"/>
	<polyline class="st0" points="38.7,308.9 44.2,309.4 40.7,313.6 35.2,313.1 	"/>
	<polyline class="st0" points="31.5,308.3 37,308.8 33.5,313 28,312.5 	"/>
	<polyline class="st0" points="46.8,303.7 52.3,304.2 48.8,308.3 43.3,307.8 	"/>
	<polyline class="st0" points="54.2,304.3 59.7,304.8 56.2,308.9 50.7,308.4 	"/>
	<polyline class="st0" points="61.4,304.9 66.9,305.4 63.4,309.6 57.9,309.1 	"/>
	<polyline class="st0" points="68.8,305.8 74.3,306.3 70.8,310.4 65.3,309.9 	"/>
	<polyline class="st0" points="76.2,306.6 81.7,307.1 78.2,311.3 72.7,310.8 	"/>
	<polyline class="st0" points="90.5,314.5 96,315 92.5,319.2 87,318.7 	"/>
	<polyline class="st0" points="98.2,315.3 103.7,315.8 100.2,319.9 94.7,319.4 	"/>
	<polyline class="st0" points="84,307.3 89.5,307.8 86,312 80.5,311.5 	"/>
	<polyline class="st0" points="91.2,308.1 96.7,308.6 93.2,312.8 87.7,312.3 	"/>
	<polyline class="st0" points="98.2,308.9 103.7,309.4 100.2,313.6 94.7,313.1 	"/>
	<polyline class="st0" points="105.8,309.6 111.3,310.1 107.8,314.3 102.3,313.8 	"/>
	<polyline class="st0" points="105.4,315.9 118,317.1 114.5,321.3 101.9,320.1 	"/>
	<polyline class="st0" points="113.2,310.3 122.2,311.3 118.7,315.5 109.7,314.5 	"/>
	<polyline class="st0" points="36,302.3 45,303.3 41.5,307.5 32.5,306.5 	"/>
	<polyline class="st0" points="53.5,298.3 59,298.8 55.5,303 50,302.5 	"/>
	<polyline class="st0" points="60.9,298.9 66.4,299.4 62.9,303.6 57.4,303.1 	"/>
	<polyline class="st0" points="68.1,299.6 73.6,300.1 70.1,304.3 64.6,303.8 	"/>
	<polyline class="st0" points="75.5,300.4 81,300.9 77.5,305.1 72,304.6 	"/>
	<polyline class="st0" points="83,301.3 88.5,301.8 85,306 79.5,305.5 	"/>
	<polyline class="st0" points="90.7,302 96.2,302.5 92.7,306.6 87.2,306.1 	"/>
	<polyline class="st0" points="97.9,302.8 103.4,303.3 99.9,307.5 94.4,307 	"/>
	<polyline class="st0" points="104.9,303.6 110.4,304.1 106.9,308.3 101.4,307.8 	"/>
	<polyline class="st0" points="112.5,304.3 118,304.8 114.5,309 109,308.5 	"/>
	<polyline class="st0" points="54.8,292.4 60.3,292.9 56.8,297 51.3,296.5 	"/>
	<polyline class="st0" points="62.2,293 67.7,293.5 64.2,297.6 58.7,297.1 	"/>
	<polyline class="st0" points="69.4,293.6 74.9,294.1 71.4,298.3 65.9,297.8 	"/>
	<polyline class="st0" points="76.8,294.5 82.3,295 78.8,299.1 73.3,298.6 	"/>
	<polyline class="st0" points="84.2,295.3 89.7,295.8 86.2,300 80.7,299.5 	"/>
	<polyline class="st0" points="92,296 97.5,296.5 94,300.7 88.5,300.2 	"/>
	<polyline class="st0" points="99.2,296.8 104.7,297.3 101.2,301.5 95.7,301 	"/>
	<polyline class="st0" points="106.2,297.6 111.7,298.1 108.2,302.3 102.7,301.8 	"/>
	<polyline class="st0" points="113.8,298.3 119.3,298.8 115.8,303 110.3,302.5 	"/>
	<polyline class="st0" points="48.3,285.6 53.8,286.1 50.3,290.3 44.8,289.8 	"/>
	<polyline class="st0" points="55.7,286.2 61.2,286.7 57.7,290.9 52.2,290.4 	"/>
	<polyline class="st0" points="62.9,286.9 68.4,287.4 64.9,291.6 59.4,291.1 	"/>
	<polyline class="st0" points="70.3,287.7 75.8,288.2 72.3,292.4 66.8,291.9 	"/>
	<polyline class="st0" points="77.7,288.6 83.2,289.1 79.7,293.3 74.2,292.8 	"/>
	<polyline class="st0" points="85.5,289.3 91,289.8 87.5,293.9 82,293.4 	"/>
	<polyline class="st0" points="92.7,290.1 98.2,290.6 94.7,294.8 89.2,294.3 	"/>
	<polyline class="st0" points="99.7,290.9 105.2,291.4 101.7,295.6 96.2,295.1 	"/>
	<polyline class="st0" points="107.3,291.6 112.8,292.1 109.3,296.3 103.8,295.8 	"/>
	<polyline class="st0" points="115.1,292.4 120.6,292.9 117.1,297.1 111.6,296.6 	"/>
	<polyline class="st0" points="121.8,292.9 134.4,294.1 130.9,298.3 118.3,297.1 	"/>
	<polyline class="st0" points="40.2,296.6 52.8,297.8 49.3,302 36.7,300.8 	"/>
	<polyline class="st0" points="44.2,291.2 53.1,292.1 49.6,296.3 40.7,295.4 	"/>
	<polyline class="st0" points="121.1,299.3 130.7,299.9 122.8,309.9 116.1,309.3 120.9,303.7 117.6,303.4 	"/>
</g>
<g>
	<path class="st0" d="M562.5,434.9l21.2,92c0.1,0.5,0,1-0.4,1.4l-42.3,39.4c-0.8,0.7-2.1,0.4-2.4-0.7l-22.1-92.3
		c-0.1-0.5,0-1,0.4-1.4l43.3-39.1C560.9,433.4,562.2,433.8,562.5,434.9z"/>
	<path class="st1" d="M559.1,441.3c0.2,0.9,19.2,83.1,19.2,83.1l-37.4,34.7l-19.7-82.7L559.1,441.3z"/>
	<path class="st0" d="M457.3,458.3L457.3,458.3c-1.6,0.6-2.5,2.2-2.2,3.9l19.8,85.9c0.4,1.8,1.8,3.3,3.5,3.8l49.8,15.6
		c2.5,0.8,5.1,0.7,7.6-0.1l0,0L457.3,458.3z"/>
	<path class="st2" d="M477.4,547.1l-20.1-86.8c-0.5-1.9,1.4-3.7,3.3-3.1l52.6,16.4c2,0.6,3.5,2.2,4,4.2l20.8,85.7
		c0.6,2.4-1.7,4.6-4.1,3.9l-52.4-16.1C479.4,550.7,477.9,549.1,477.4,547.1z"/>
	<path class="st3" d="M495.8,551.8l-18.9-85.2c-0.2-0.9,0.6-1.6,1.5-1.3l31.2,9.8c1,0.3,1.7,1.1,1.9,2.1l19.9,84.4
		c0.2,0.9-0.7,1.8-1.6,1.5l-32-9.2C496.8,553.6,496,552.8,495.8,551.8z"/>
	<polygon class="st0" points="519.9,489 517.7,487.9 532.6,554.4 535.6,554.6 	"/>
	<polygon class="st4" points="473.2,516.7 467.7,492.4 481.9,496.5 487.2,520 	"/>
	<polygon class="st0" points="491.1,522.9 483.6,488.3 488.7,490.3 496.2,524.8 	"/>
	<polyline class="st0" points="487.1,483 488.4,488.4 483.3,486.5 482,481.1 	"/>
	<polyline class="st0" points="485.3,475.7 486.6,481.1 481.5,479.1 480.2,473.8 	"/>
	<polyline class="st0" points="483.5,468.8 484.8,474.2 479.7,472.2 478.4,466.8 	"/>
	<polyline class="st0" points="492.9,481.7 494.2,487.1 489.1,485.1 487.8,479.7 	"/>
	<polyline class="st0" points="494.7,488.9 496,494.2 490.9,492.3 489.6,486.9 	"/>
	<polyline class="st0" points="496.4,495.9 497.7,501.3 492.6,499.3 491.3,493.9 	"/>
	<polyline class="st0" points="498,503.2 499.4,508.6 494.3,506.6 493,501.2 	"/>
	<polyline class="st0" points="499.7,510.5 501,515.8 495.9,513.9 494.6,508.5 	"/>
	<polyline class="st0" points="496.8,526.6 498.1,532 493,530 491.7,524.7 	"/>
	<polyline class="st0" points="498.6,534.1 499.9,539.4 494.8,537.5 493.5,532.1 	"/>
	<polyline class="st0" points="501.5,518.1 502.8,523.4 497.7,521.5 496.4,516.1 	"/>
	<polyline class="st0" points="503.1,525.1 504.4,530.5 499.3,528.5 498,523.2 	"/>
	<polyline class="st0" points="504.5,532 505.9,537.4 500.8,535.4 499.5,530.1 	"/>
	<polyline class="st0" points="506.4,539.5 507.7,544.8 502.6,542.9 501.3,537.5 	"/>
	<polyline class="st0" points="500.3,541.2 503.2,553.5 498.1,551.5 495.2,539.2 	"/>
	<polyline class="st0" points="508.1,546.6 510.1,555.5 505,553.5 503,544.7 	"/>
	<polyline class="st0" points="490.7,471.1 492.6,479.9 487.5,478 485.6,469.2 	"/>
	<polyline class="st0" points="500.1,486.4 501.4,491.7 496.3,489.8 495,484.4 	"/>
	<polyline class="st0" points="502,493.5 503.3,498.9 498.2,496.9 496.9,491.6 	"/>
	<polyline class="st0" points="503.6,500.6 504.9,505.9 499.8,504 498.5,498.6 	"/>
	<polyline class="st0" points="505.3,507.9 506.6,513.2 501.5,511.3 500.2,505.9 	"/>
	<polyline class="st0" points="506.9,515.1 508.2,520.5 503.1,518.6 501.8,513.2 	"/>
	<polyline class="st0" points="508.7,522.7 510.1,528.1 505,526.1 503.7,520.8 	"/>
	<polyline class="st0" points="510.3,529.8 511.6,535.2 506.5,533.2 505.2,527.8 	"/>
	<polyline class="st0" points="511.8,536.7 513.1,542 508,540.1 506.7,534.7 	"/>
	<polyline class="st0" points="513.6,544.1 514.9,549.5 509.8,547.5 508.5,542.2 	"/>
	<polyline class="st0" points="506.2,485.6 507.5,491 502.4,489.1 501.1,483.7 	"/>
	<polyline class="st0" points="508,492.8 509.3,498.2 504.2,496.2 502.9,490.9 	"/>
	<polyline class="st0" points="509.7,499.8 511,505.2 505.9,503.3 504.6,497.9 	"/>
	<polyline class="st0" points="511.3,507.1 512.6,512.5 507.6,510.6 506.2,505.2 	"/>
	<polyline class="st0" points="512.9,514.4 514.2,519.8 509.2,517.8 507.8,512.5 	"/>
	<polyline class="st0" points="514.8,522 516.1,527.4 511,525.4 509.7,520.1 	"/>
	<polyline class="st0" points="516.4,529.1 517.7,534.4 512.6,532.5 511.3,527.1 	"/>
	<polyline class="st0" points="517.8,536 519.1,541.3 514.1,539.4 512.7,534 	"/>
	<polyline class="st0" points="519.7,543.4 521,548.8 515.9,546.8 514.6,541.4 	"/>
	<polyline class="st0" points="510.4,477.3 511.8,482.6 506.7,480.7 505.4,475.3 	"/>
	<polyline class="st0" points="512.3,484.5 513.6,489.8 508.5,487.9 507.2,482.5 	"/>
	<polyline class="st0" points="514,491.5 515.3,496.8 510.2,494.9 508.9,489.5 	"/>
	<polyline class="st0" points="515.6,498.8 516.9,504.1 511.8,502.2 510.5,496.8 	"/>
	<polyline class="st0" points="517.2,506.1 518.5,511.4 513.4,509.5 512.1,504.1 	"/>
	<polyline class="st0" points="519.1,513.6 520.4,519 515.3,517.1 514,511.7 	"/>
	<polyline class="st0" points="520.6,520.7 521.9,526.1 516.8,524.1 515.5,518.7 	"/>
	<polyline class="st0" points="522.1,527.6 523.4,533 518.3,531 517,525.6 	"/>
	<polyline class="st0" points="523.9,535 525.2,540.4 520.1,538.4 518.8,533.1 	"/>
	<polyline class="st0" points="525.7,542.7 527,548 521.9,546.1 520.6,540.7 	"/>
	<polyline class="st0" points="527.4,549.2 530.3,561.5 525.2,559.5 522.3,547.2 	"/>
	<polyline class="st0" points="497.5,473.2 500.4,485.5 495.3,483.6 492.4,471.3 	"/>
	<polyline class="st0" points="503.9,475.2 505.9,483.9 500.8,481.9 498.8,473.2 	"/>
	<polyline class="st0" points="521.1,550.6 523.7,559.8 511.6,555.6 510.1,549.1 516.9,551.8 516,548.7 	"/>
</g>
<g>
	<path class="st5" d="M840.2,435v-0.8c0-3.3,2.7-6,6-6h0.8c3.3,0,6,2.7,6,6v0.8c0,3.3-2.7,6-6,6h-0.8
		C842.8,441.1,840.2,438.4,840.2,435z"/>
	<path class="st5" d="M771.6,464.9v-0.8c0-3.3,2.7-6,6-6h0.8c3.3,0,6,2.7,6,6v0.8c0,3.3-2.7,6-6,6h-0.8
		C774.3,470.9,771.6,468.3,771.6,464.9z"/>
	<path class="st5" d="M789.3,489.9v-0.8c0-3.3,2.7-6,6-6h0.8c3.3,0,6,2.7,6,6v0.8c0,3.3-2.7,6-6,6h-0.8
		C792,495.9,789.3,493.2,789.3,489.9z"/>
	<path class="st5" d="M683.5,550.3v-0.8c0-3.3,2.7-6,6-6h0.8c3.3,0,6,2.7,6,6v0.8c0,3.3-2.7,6-6,6h-0.8
		C686.2,556.3,683.5,553.6,683.5,550.3z"/>
	<path class="st5" d="M646.7,607.6v-0.8c0-3.3,2.7-6,6-6h0.8c3.3,0,6,2.7,6,6v0.8c0,3.3-2.7,6-6,6h-0.8
		C649.4,613.7,646.7,611,646.7,607.6z"/>
	<path class="st5" d="M573.9,685.9v-0.8c0-3.3,2.7-6,6-6h0.8c3.3,0,6,2.7,6,6v0.8c0,3.3-2.7,6-6,6h-0.8
		C576.6,691.9,573.9,689.3,573.9,685.9z"/>
	<path class="st5" d="M561.1,713.8V713c0-3.3,2.7-6,6-6h0.8c3.3,0,6,2.7,6,6v0.8c0,3.3-2.7,6-6,6h-0.8
		C563.8,719.8,561.1,717.1,561.1,713.8z"/>
	<path class="st5" d="M591.4,735.2v-0.8c0-3.3,2.7-6,6-6h0.8c3.3,0,6,2.7,6,6v0.8c0,3.3-2.7,6-6,6h-0.8
		C594,741.2,591.4,738.5,591.4,735.2z"/>
	<path class="st5" d="M606,739.2v-0.8c0-3.3,2.7-6,6-6h0.8c3.3,0,6,2.7,6,6v0.8c0,3.3-2.7,6-6,6H612
		C608.7,745.2,606,742.5,606,739.2z"/>
	<path class="st5" d="M633.5,774.3v-0.8c0-3.3,2.7-6,6-6h0.8c3.3,0,6,2.7,6,6v0.8c0,3.3-2.7,6-6,6h-0.8
		C636.2,780.3,633.5,777.6,633.5,774.3z"/>
	<path class="st5" d="M584.1,771.3v-0.8c0-3.3,2.7-6,6-6h0.8c3.3,0,6,2.7,6,6v0.8c0,3.3-2.7,6-6,6h-0.8
		C586.8,777.3,584.1,774.6,584.1,771.3z"/>
	<path class="st5" d="M694.1,769.3v-0.8c0-3.3,2.7-6,6-6h0.8c3.3,0,6,2.7,6,6v0.8c0,3.3-2.7,6-6,6h-0.8
		C696.8,775.3,694.1,772.6,694.1,769.3z"/>
	<path class="st5" d="M747,713.4v-0.8c0-3.3,2.7-6,6-6h0.8c3.3,0,6,2.7,6,6v0.8c0,3.3-2.7,6-6,6H753
		C749.7,719.4,747,716.7,747,713.4z"/>
	<path class="st5" d="M785.3,668v-0.8c0-3.3,2.7-6,6-6h0.8c3.3,0,6,2.7,6,6v0.8c0,3.3-2.7,6-6,6h-0.8C788,674,785.3,671.3,785.3,668
		z"/>
	<path class="st5" d="M769,563.6v-0.8c0-3.3,2.7-6,6-6h0.8c3.3,0,6,2.7,6,6v0.8c0,3.3-2.7,6-6,6H775
		C771.7,569.6,769,566.9,769,563.6z"/>
	<path class="st5" d="M734.8,573.2v-0.8c0-3.3,2.7-6,6-6h0.8c3.3,0,6,2.7,6,6v0.8c0,3.3-2.7,6-6,6h-0.8
		C737.4,579.2,734.8,576.5,734.8,573.2z"/>
	<path class="st5" d="M716.7,586.6v-0.8c0-3.3,2.7-6,6-6h0.8c3.3,0,6,2.7,6,6v0.8c0,3.3-2.7,6-6,6h-0.8
		C719.3,592.6,716.7,589.9,716.7,586.6z"/>
	<path class="st5" d="M793.4,627.6v-0.8c0-3.3,2.7-6,6-6h0.8c3.3,0,6,2.7,6,6v0.8c0,3.3-2.7,6-6,6h-0.8
		C796.1,633.6,793.4,630.9,793.4,627.6z"/>
	<path class="st5" d="M817.6,632.8V632c0-3.3,2.7-6,6-6h0.8c3.3,0,6,2.7,6,6v0.8c0,3.3-2.7,6-6,6h-0.8
		C820.3,638.8,817.6,636.1,817.6,632.8z"/>
	<path class="st5" d="M845.4,547.7v-0.8c0-3.3,2.7-6,6-6h0.8c3.3,0,6,2.7,6,6v0.8c0,3.3-2.7,6-6,6h-0.8
		C848.1,553.7,845.4,551,845.4,547.7z"/>
	<path class="st5" d="M883.6,540.1v-0.8c0-3.3,2.7-6,6-6h0.8c3.3,0,6,2.7,6,6v0.8c0,3.3-2.7,6-6,6h-0.8
		C886.2,546.1,883.6,543.4,883.6,540.1z"/>
	<path class="st5" d="M902.7,505.9v-0.8c0-3.3,2.7-6,6-6h0.8c3.3,0,6,2.7,6,6v0.8c0,3.3-2.7,6-6,6h-0.8
		C905.4,511.9,902.7,509.2,902.7,505.9z"/>
	<path class="st5" d="M940.5,505v-0.8c0-3.3,2.7-6,6-6h0.8c3.3,0,6,2.7,6,6v0.8c0,3.3-2.7,6-6,6h-0.8
		C943.2,511,940.5,508.3,940.5,505z"/>
	<path class="st5" d="M905,571.3v-0.8c0-3.3,2.7-6,6-6h0.8c3.3,0,6,2.7,6,6v0.8c0,3.3-2.7,6-6,6H911
		C907.7,577.4,905,574.7,905,571.3z"/>
	<path class="st5" d="M943.9,564.9v-0.8c0-3.3,2.7-6,6-6h0.8c3.3,0,6,2.7,6,6v0.8c0,3.3-2.7,6-6,6h-0.8
		C946.6,570.9,943.9,568.2,943.9,564.9z"/>
	<path class="st5" d="M973.8,585.4v-0.8c0-3.3,2.7-6,6-6h0.8c3.3,0,6,2.7,6,6v0.8c0,3.3-2.7,6-6,6h-0.8
		C976.5,591.4,973.8,588.7,973.8,585.4z"/>
	<path class="st5" d="M1014.2,515.4v-0.8c0-3.3,2.7-6,6-6h0.8c3.3,0,6,2.7,6,6v0.8c0,3.3-2.7,6-6,6h-0.8
		C1016.9,521.4,1014.2,518.7,1014.2,515.4z"/>
	<path class="st5" d="M1040,498.5v-0.8c0-3.3,2.7-6,6-6h0.8c3.3,0,6,2.7,6,6v0.8c0,3.3-2.7,6-6,6h-0.8
		C1042.7,504.5,1040,501.8,1040,498.5z"/>
	<path class="st5" d="M961.3,431.1v-0.8c0-3.3,2.7-6,6-6h0.8c3.3,0,6,2.7,6,6v0.8c0,3.3-2.7,6-6,6h-0.8
		C964,437.1,961.3,434.4,961.3,431.1z"/>
	<path class="st5" d="M1017.9,435.3v-0.8c0-3.3,2.7-6,6-6h0.8c3.3,0,6,2.7,6,6v0.8c0,3.3-2.7,6-6,6h-0.8
		C1020.6,441.4,1017.9,438.7,1017.9,435.3z"/>
	<path class="st5" d="M1028.3,456.4v-0.8c0-3.3,2.7-6,6-6h0.8c3.3,0,6,2.7,6,6v0.8c0,3.3-2.7,6-6,6h-0.8
		C1031,462.4,1028.3,459.7,1028.3,456.4z"/>
	<path class="st5" d="M1037.4,416.9v-0.8c0-3.3,2.7-6,6-6h0.8c3.3,0,6,2.7,6,6v0.8c0,3.3-2.7,6-6,6h-0.8
		C1040,422.9,1037.4,420.2,1037.4,416.9z"/>
	<path class="st5" d="M1056,436.8V436c0-3.3,2.7-6,6-6h0.8c3.3,0,6,2.7,6,6v0.8c0,3.3-2.7,6-6,6h-0.8
		C1058.7,442.8,1056,440.1,1056,436.8z"/>
	<path class="st5" d="M1142.8,297.5v-0.8c0-3.3,2.7-6,6-6h0.8c3.3,0,6,2.7,6,6v0.8c0,3.3-2.7,6-6,6h-0.8
		C1145.5,303.5,1142.8,300.8,1142.8,297.5z"/>
	<path class="st5" d="M1174,326v-0.8c0-3.3,2.7-6,6-6h0.8c3.3,0,6,2.7,6,6v0.8c0,3.3-2.7,6-6,6h-0.8C1176.7,332,1174,329.3,1174,326
		z"/>
	<path class="st5" d="M1161.9,366v-0.8c0-3.3,2.7-6,6-6h0.8c3.3,0,6,2.7,6,6v0.8c0,3.3-2.7,6-6,6h-0.8
		C1164.5,372,1161.9,369.3,1161.9,366z"/>
	<path class="st5" d="M1188.4,346.5v-0.8c0-3.3,2.7-6,6-6h0.8c3.3,0,6,2.7,6,6v0.8c0,3.3-2.7,6-6,6h-0.8
		C1191.1,352.6,1188.4,349.9,1188.4,346.5z"/>
	<path class="st5" d="M1200.5,275.4v-0.8c0-3.3,2.7-6,6-6h0.8c3.3,0,6,2.7,6,6v0.8c0,3.3-2.7,6-6,6h-0.8
		C1203.2,281.4,1200.5,278.7,1200.5,275.4z"/>
	<path class="st5" d="M1189.8,226.7v-0.8c0-3.3,2.7-6,6-6h0.8c3.3,0,6,2.7,6,6v0.8c0,3.3-2.7,6-6,6h-0.8
		C1192.5,232.7,1189.8,230,1189.8,226.7z"/>
	<path class="st5" d="M1239.8,222.5v-0.8c0-3.3,2.7-6,6-6h0.8c3.3,0,6,2.7,6,6v0.8c0,3.3-2.7,6-6,6h-0.8
		C1242.5,228.6,1239.8,225.9,1239.8,222.5z"/>
	<path class="st5" d="M1259.6,197v-0.8c0-3.3,2.7-6,6-6h0.8c3.3,0,6,2.7,6,6v0.8c0,3.3-2.7,6-6,6h-0.8
		C1262.3,203.1,1259.6,200.4,1259.6,197z"/>
	<path class="st5" d="M1248.7,288.2v-0.8c0-3.3,2.7-6,6-6h0.8c3.3,0,6,2.7,6,6v0.8c0,3.3-2.7,6-6,6h-0.8
		C1251.4,294.2,1248.7,291.5,1248.7,288.2z"/>
	<path class="st5" d="M1243.5,307.8V307c0-3.3,2.7-6,6-6h0.8c3.3,0,6,2.7,6,6v0.8c0,3.3-2.7,6-6,6h-0.8
		C1246.2,313.8,1243.5,311.1,1243.5,307.8z"/>
	<path class="st5" d="M1258.4,338.1v-0.8c0-3.3,2.7-6,6-6h0.8c3.3,0,6,2.7,6,6v0.8c0,3.3-2.7,6-6,6h-0.8
		C1261.1,344.1,1258.4,341.4,1258.4,338.1z"/>
	<path class="st5" d="M1162.1,502.9v-0.8c0-3.3,2.7-6,6-6h0.8c3.3,0,6,2.7,6,6v0.8c0,3.3-2.7,6-6,6h-0.8
		C1164.8,508.9,1162.1,506.2,1162.1,502.9z"/>
	<path class="st5" d="M1151.3,476.6v-0.8c0-3.3,2.7-6,6-6h0.8c3.3,0,6,2.7,6,6v0.8c0,3.3-2.7,6-6,6h-0.8
		C1154,482.6,1151.3,479.9,1151.3,476.6z"/>
	<path class="st5" d="M1115.1,511.7v-0.8c0-3.3,2.7-6,6-6h0.8c3.3,0,6,2.7,6,6v0.8c0,3.3-2.7,6-6,6h-0.8
		C1117.8,517.7,1115.1,515,1115.1,511.7z"/>
	<path class="st5" d="M1136.7,613.7v-0.8c0-3.3,2.7-6,6-6h0.8c3.3,0,6,2.7,6,6v0.8c0,3.3-2.7,6-6,6h-0.8
		C1139.4,619.7,1136.7,617,1136.7,613.7z"/>
	<path class="st5" d="M1353.2,243.8V243c0-3.3,2.7-6,6-6h0.8c3.3,0,6,2.7,6,6v0.8c0,3.3-2.7,6-6,6h-0.8
		C1355.9,249.8,1353.2,247.1,1353.2,243.8z"/>
	<path class="st5" d="M1313.3,219.1v-0.8c0-3.3,2.7-6,6-6h0.8c3.3,0,6,2.7,6,6v0.8c0,3.3-2.7,6-6,6h-0.8
		C1316,225.1,1313.3,222.4,1313.3,219.1z"/>
	<path class="st5" d="M1344.2,181.4v-0.8c0-3.3,2.7-6,6-6h0.8c3.3,0,6,2.7,6,6v0.8c0,3.3-2.7,6-6,6h-0.8
		C1346.9,187.4,1344.2,184.7,1344.2,181.4z"/>
	<line class="st6" x1="930.6" y1="432.2" x2="805.1" y2="520.5"/>
	<line class="st6" x1="747.6" y1="509.3" x2="805.1" y2="520.5"/>
	<line class="st6" x1="747.6" y1="541" x2="657.2" y2="604.6"/>
	<line class="st6" x1="695.4" y1="546.5" x2="747.6" y2="509.3"/>
	<line class="st6" x1="783.1" y1="460.6" x2="788" y2="456.8"/>
	<line class="st6" x1="827.5" y1="429.4" x2="887" y2="387.4"/>
	<line class="st6" x1="851.9" y1="431.1" x2="890.7" y2="403.6"/>
	<line class="st6" x1="800.9" y1="485.7" x2="902.7" y2="414.4"/>
	<line class="st6" x1="1019" y1="438.5" x2="978.8" y2="466.9"/>
	<line class="st6" x1="949.4" y1="460" x2="978.8" y2="466.9"/>
	<line class="st6" x1="815.7" y1="553.7" x2="949.4" y2="460"/>
	<line class="st6" x1="747.6" y1="541" x2="815.7" y2="553.7"/>
	<line class="st6" x1="819.4" y1="569.6" x2="846.6" y2="551"/>
	<line class="st6" x1="819.4" y1="569.6" x2="781.7" y2="564.3"/>
	<line class="st6" x1="1190.9" y1="229.9" x2="1004.1" y2="360.9"/>
	<line class="st6" x1="1260.7" y1="200.1" x2="1003.7" y2="378.4"/>
	<line class="st6" x1="1187.7" y1="263.4" x2="1241.3" y2="226.3"/>
	<line class="st6" x1="1181.3" y1="297.1" x2="1187.7" y2="263.4"/>
	<line class="st6" x1="1143.9" y1="300.7" x2="1001" y2="401"/>
	<line class="st6" x1="1044.8" y1="410.2" x2="1048.3" y2="389.4"/>
	<line class="st6" x1="1063.5" y1="430" x2="1067.3" y2="404.1"/>
	<line class="st6" x1="1181.3" y1="297.1" x2="1048.3" y2="389.4"/>
	<line class="st6" x1="1163" y1="369.2" x2="1117.8" y2="400.9"/>
	<line class="st6" x1="1175.2" y1="329.3" x2="1067.3" y2="404.1"/>
	<line class="st6" x1="1072.7" y1="483.1" x2="1239.7" y2="366"/>
	<line class="st6" x1="1065.4" y1="525.3" x2="1072.7" y2="483.1"/>
	<line class="st6" x1="1045.3" y1="504.4" x2="1042.7" y2="519"/>
	<line class="st6" x1="1065.4" y1="525.3" x2="985.6" y2="581.5"/>
	<line class="st6" x1="1042.7" y1="519" x2="958.3" y2="578.6"/>
	<line class="st6" x1="1015.3" y1="518.5" x2="955.6" y2="560.8"/>
	<line class="st6" x1="942" y1="508.6" x2="915.5" y2="526.9"/>
	<line class="st6" x1="912.8" y1="548.8" x2="915.5" y2="526.9"/>
	<line class="st6" x1="875.9" y1="596.3" x2="888.2" y2="598.6"/>
	<line class="st6" x1="829.3" y1="628.7" x2="875.9" y2="596.3"/>
	<line class="st6" x1="912.8" y1="548.8" x2="805.2" y2="623.7"/>
	<line class="st6" x1="822.2" y1="586.2" x2="747.6" y2="572.8"/>
	<line class="st6" x1="884.7" y1="543.3" x2="822.2" y2="586.2"/>
	<line class="st6" x1="1029.2" y1="459.3" x2="980.2" y2="494"/>
	<line class="st6" x1="937.7" y1="485.2" x2="980.2" y2="494"/>
	<line class="st6" x1="914.1" y1="501.5" x2="937.7" y2="485.2"/>
	<line class="st6" x1="916.9" y1="567.6" x2="1209.1" y2="363.4"/>
	<line class="st6" x1="1205.8" y1="281.4" x2="1196" y2="339.8"/>
	<line class="st6" x1="1225" y1="269.3" x2="1209.1" y2="363.4"/>
	<line class="st6" x1="1256.3" y1="281.4" x2="1257.6" y2="262.5"/>
	<line class="st6" x1="1314.3" y1="222.1" x2="1257.6" y2="262.5"/>
	<line class="st6" x1="1345.5" y1="184.8" x2="1225" y2="269.3"/>
	<line class="st6" x1="1239.7" y1="366" x2="1249.9" y2="308.2"/>
	<line class="st6" x1="1255.1" y1="387.9" x2="1264" y2="342.5"/>
	<line class="st6" x1="1122.7" y1="504.8" x2="1126.9" y2="477.3"/>
	<line class="st6" x1="1255.1" y1="387.9" x2="1126.9" y2="477.3"/>
	<line class="st6" x1="1139.2" y1="578" x2="1157.7" y2="479.1"/>
	<line class="st6" x1="1167.2" y1="508.8" x2="1154.7" y2="585.7"/>
	<line class="st6" x1="967.8" y1="698.1" x2="1139.2" y2="578"/>
	<line class="st6" x1="970.1" y1="715.3" x2="1154.7" y2="585.7"/>
	<line class="st6" x1="972.7" y1="730.4" x2="1139.2" y2="615.9"/>
	<line class="st6" x1="976.8" y1="747.9" x2="1183" y2="604.5"/>
	<line class="st6" x1="1212.4" y1="439.7" x2="1183" y2="604.5"/>
	<line class="st6" x1="1342.4" y1="348.6" x2="1212.4" y2="439.7"/>
	<line class="st6" x1="1358.5" y1="249.7" x2="1342.4" y2="348.6"/>
	<line class="st6" x1="967.8" y1="698.1" x2="798" y2="668.9"/>
	<line class="st6" x1="970.1" y1="715.3" x2="774.6" y2="680"/>
	<line class="st6" x1="972.7" y1="730.4" x2="778.6" y2="695.4"/>
	<line class="st6" x1="976.8" y1="747.9" x2="781.9" y2="711.4"/>
	<line class="st6" x1="778.6" y1="695.4" x2="755.9" y2="711.3"/>
	<line class="st6" x1="774.6" y1="680" x2="644.2" y2="770.8"/>
	<line class="st6" x1="781.9" y1="711.4" x2="704.4" y2="765.9"/>
	<path class="st5" d="M703,688.8V688c0-3.3,2.7-6,6-6h0.8c3.3,0,6,2.7,6,6v0.8c0,3.3-2.7,6-6,6H709C705.7,694.8,703,692.2,703,688.8
		z"/>
	<path class="st5" d="M642.2,674.7v-0.8c0-3.3,2.7-6,6-6h0.8c3.3,0,6,2.7,6,6v0.8c0,3.3-2.7,6-6,6h-0.8
		C644.9,680.7,642.2,678,642.2,674.7z"/>
	<line class="st6" x1="704.1" y1="692.1" x2="595.9" y2="767.5"/>
	<line class="st6" x1="599.2" y1="728.6" x2="602.9" y2="706.5"/>
	<line class="st6" x1="613.5" y1="732.4" x2="616.2" y2="716"/>
	<line class="st6" x1="643.4" y1="678" x2="602.9" y2="706.5"/>
	<line class="st6" x1="688" y1="665.8" x2="616.2" y2="716"/>
	<line class="st6" x1="671.8" y1="640.5" x2="572.9" y2="709.9"/>
	<line class="st6" x1="585.4" y1="681.5" x2="678.3" y2="616.8"/>
</g>
<g>
	<polygon class="st7" points="218.5,114.9 266.8,128.6 245.6,158.7 198.1,140.6 	"/>
	<polygon class="st8" points="266.8,128.6 279.4,143.7 258.2,173.4 245.6,158.7 	"/>
	<path class="st9" d="M267.2,130l-2.6,3.7c0,0,1.8-1.5,3.2,0c1.4,1.5,7.3,7.5,7.8,8.4c0.6,0.9,0.9,2.2,0.8,3.2c-0.2,1-0.6,2-0.6,2
		l2.6-3.9L267.2,130z"/>
	<polygon class="st10" points="258.2,173.4 245.6,158.7 198.1,140.6 209.9,153.8 	"/>
	<path class="st11" d="M255.3,172c0,0-9.7-12.6-10.9-12.9c-1.2-0.4-18.4-6.7-18.4-6.7s16.5,6.6,18,7.8
		C245.6,161.5,255.3,172,255.3,172z"/>
</g>
<g>
	<polygon class="st7" points="486.9,286.4 497.8,335.3 461.2,331.1 454.5,280.7 	"/>
	<polygon class="st8" points="497.8,335.3 490.6,353.5 454.3,349.1 461.2,331.1 	"/>
	<path class="st9" d="M496.8,336.3l-4.5-0.5c0,0,2.2,0.9,1.6,2.8c-0.6,1.9-3.1,10-3.6,10.9c-0.5,0.9-1.5,1.9-2.5,2.2
		c-1,0.4-2.1,0.4-2.1,0.4l4.6,0.4L496.8,336.3z"/>
	<polygon class="st10" points="454.3,349.1 461.2,331.1 454.5,280.7 448.6,297.3 	"/>
	<path class="st11" d="M454.2,345.9c0,0,6.4-14.5,6.1-15.8c-0.3-1.2-2.9-19.4-2.9-19.4s2.1,17.6,1.7,19.6S454.2,345.9,454.2,345.9z"
		/>
</g>
<g>
	<polygon class="st7" points="546.3,49.1 592.5,29.3 595,66.1 546.7,81.9 	"/>
	<polygon class="st8" points="592.5,29.3 611.7,33.1 614,69.6 595,66.1 	"/>
	<path class="st9" d="M593.6,30.2l0.3,4.5c0,0,0.4-2.3,2.5-2.1s10.4,1.2,11.4,1.6c1,0.4,2.1,1.1,2.6,2c0.5,0.9,0.8,2,0.8,2l-0.4-4.6
		L593.6,30.2z"/>
	<polygon class="st10" points="614,69.6 595,66.1 546.7,81.9 564.1,84.8 	"/>
	<path class="st11" d="M610.9,70.3c0,0-15.5-3.6-16.6-3.1c-1.2,0.5-18.5,6.4-18.5,6.4s17-5.3,18.9-5.3
		C596.7,68.3,610.9,70.3,610.9,70.3z"/>
</g>
<g>
	<polygon class="st7" points="70.1,32.4 36,69.1 18.8,36.6 56.5,2.5 	"/>
	<polygon class="st8" points="36,69.1 16.9,73.5 0,41.1 18.8,36.6 	"/>
	<path class="st9" d="M34.6,68.9l-2.1-4c0,0,0.5,2.3-1.4,2.9c-2,0.6-10,3.1-11,3.2c-1.1,0.1-2.4-0.2-3.2-0.8
		c-0.8-0.6-1.5-1.5-1.5-1.5l2.3,4.1L34.6,68.9z"/>
	<polygon class="st10" points="0,41.1 18.8,36.6 56.5,2.5 39.4,7 	"/>
	<path class="st11" d="M2.5,39.2c0,0,15.6-3,16.5-3.9s14.3-13.4,14.3-13.4S19.9,33.6,18.1,34.4C16.3,35.2,2.5,39.2,2.5,39.2z"/>
</g>
<g>
	<polygon class="st7" points="78,510.3 109,470.8 128.9,501.8 94.2,538.9 	"/>
	<polygon class="st8" points="109,470.8 127.6,464.9 147.2,495.7 128.9,501.8 	"/>
	<path class="st9" d="M110.4,470.9l2.4,3.8c0,0-0.7-2.2,1.2-3c1.9-0.8,9.7-3.9,10.7-4.1c1.1-0.2,2.4,0,3.3,0.5
		c0.9,0.5,1.7,1.3,1.7,1.3l-2.6-3.9L110.4,470.9z"/>
	<polygon class="st10" points="147.2,495.7 128.9,501.8 94.2,538.9 110.8,533 	"/>
	<path class="st11" d="M144.8,497.8c0,0-15.3,4.3-16.1,5.2c-0.8,1-13.1,14.5-13.1,14.5s12.3-12.8,14.1-13.7
		C131.4,502.9,144.8,497.8,144.8,497.8z"/>
</g>
<g>
	<path class="st12" d="M324.1,577.6l-6.3,1.2c-0.3,0-0.4,0.3-0.4,0.6l0,0c0,0.3,0.3,0.4,0.6,0.4l6.3-1.2c0.3,0,0.4-0.3,0.4-0.6l0,0
		C324.6,577.7,324.4,577.5,324.1,577.6z"/>
	<path class="st12" d="M323.8,575.9l-6.3,1.2c-0.3,0-0.4,0.3-0.4,0.6l0,0c0,0.3,0.3,0.4,0.6,0.4l6.3-1.2c0.3,0,0.4-0.3,0.4-0.6l0,0
		C324.3,576,324.1,575.9,323.8,575.9z"/>
	<path class="st12" d="M323.5,574.4l-6.3,1.2c-0.3,0-0.4,0.3-0.4,0.6l0,0c0,0.3,0.3,0.4,0.6,0.4l6.3-1.2c0.3,0,0.4-0.3,0.4-0.6l0,0
		C324,574.5,323.8,574.3,323.5,574.4z"/>
	<path class="st13" d="M323.8,573.6l-7.1,1.4c-0.2-1.7-0.8-4-2.3-6.2c-2-2.8-3.8-2.9-6.3-5.3c-0.7-0.7-5-4.8-5.2-10.8
		c0-0.8-0.1-6.5,4.3-10.5c4.1-3.8,10.2-4.5,15.1-2.3c0.5,0.2,5.6,2.7,7.4,8.4c1.6,5.2-0.5,9.8-1,10.8c-1.7,3.7-3.9,4.4-5,8.1
		C323.1,569.7,323.4,572.1,323.8,573.6z"/>
</g>
<g>
	<path class="st12" d="M428.6,104l-6-2.1c-0.3-0.1-0.5,0-0.6,0.3l0,0c-0.1,0.3,0,0.5,0.3,0.6l6,2.1c0.3,0.1,0.5,0,0.6-0.3l0,0
		C429,104.4,428.9,104.1,428.6,104z"/>
	<path class="st12" d="M429.2,102.4l-6-2.1c-0.3-0.1-0.5,0-0.6,0.3l0,0c-0.1,0.3,0,0.5,0.3,0.6l6,2.1c0.3,0.1,0.5,0,0.6-0.3l0,0
		C429.6,102.8,429.4,102.5,429.2,102.4z"/>
	<path class="st12" d="M429.7,100.9l-6-2.1c-0.3-0.1-0.5,0-0.6,0.3l0,0c-0.1,0.3,0,0.5,0.3,0.6l6,2.1c0.3,0.1,0.5,0,0.6-0.3l0,0
		C430.1,101.3,430,101,429.7,100.9z"/>
	<path class="st13" d="M430.3,100.4l-6.8-2.4c0.6-1.5,1.3-3.8,1.1-6.5c-0.3-3.4-1.8-4.4-2.8-7.8c-0.3-1-1.9-6.6,0.9-11.9
		c0.4-0.7,3.2-5.6,9-6.9c5.4-1.2,11.1,1.2,14.2,5.6c0.3,0.5,3.5,5.1,2.2,11c-1.2,5.3-5.4,8.2-6.3,8.8c-3.4,2.4-5.6,1.8-8.4,4.5
		C431.7,96.7,430.8,98.9,430.3,100.4z"/>
</g>
</svg>
