<?xml version="1.0" encoding="UTF-8"?>
<svg width="805px" height="607px" viewBox="0 0 805 607" version="1.1" xmlns="http://www.w3.org/2000/svg" xmlns:xlink="http://www.w3.org/1999/xlink">
    <!-- Generator: Sketch 51.2 (57519) - http://www.bohemiancoding.com/sketch -->
    <title>Group</title>
    <desc>Created with Sketch.</desc>
    <defs></defs>
    <g id="Page-1" stroke="none" stroke-width="1" fill="none" fill-rule="evenodd">
        <g id="about-background" transform="translate(-571.000000, -462.000000)">
            <g id="Group" transform="translate(571.000000, 462.000000)">
                <path d="M279.2,261 L279.2,260.2 C279.2,256.9 281.9,254.2 285.2,254.2 L286,254.2 C289.3,254.2 292,256.9 292,260.2 L292,261 C292,264.3 289.3,267 286,267 L285.2,267 C281.8,267.1 279.2,264.4 279.2,261 Z" id="Shape" fill="#F79420" fill-rule="nonzero"></path>
                <path d="M210.6,290.9 L210.6,290.1 C210.6,286.8 213.3,284.1 216.6,284.1 L217.4,284.1 C220.7,284.1 223.4,286.8 223.4,290.1 L223.4,290.9 C223.4,294.2 220.7,296.9 217.4,296.9 L216.6,296.9 C213.3,296.9 210.6,294.3 210.6,290.9 Z" id="Shape" fill="#F79420" fill-rule="nonzero"></path>
                <path d="M228.3,315.9 L228.3,315.1 C228.3,311.8 231,309.1 234.3,309.1 L235.1,309.1 C238.4,309.1 241.1,311.8 241.1,315.1 L241.1,315.9 C241.1,319.2 238.4,321.9 235.1,321.9 L234.3,321.9 C231,321.9 228.3,319.2 228.3,315.9 Z" id="Shape" fill="#F79420" fill-rule="nonzero"></path>
                <path d="M122.5,376.3 L122.5,375.5 C122.5,372.2 125.2,369.5 128.5,369.5 L129.3,369.5 C132.6,369.5 135.3,372.2 135.3,375.5 L135.3,376.3 C135.3,379.6 132.6,382.3 129.3,382.3 L128.5,382.3 C125.2,382.3 122.5,379.6 122.5,376.3 Z" id="Shape" fill="#F79420" fill-rule="nonzero"></path>
                <path d="M85.7,433.6 L85.7,432.8 C85.7,429.5 88.4,426.8 91.7,426.8 L92.5,426.8 C95.8,426.8 98.5,429.5 98.5,432.8 L98.5,433.6 C98.5,436.9 95.8,439.6 92.5,439.6 L91.7,439.6 C88.4,439.7 85.7,437 85.7,433.6 Z" id="Shape" fill="#F79420" fill-rule="nonzero"></path>
                <path d="M12.9,511.9 L12.9,511.1 C12.9,507.8 15.6,505.1 18.9,505.1 L19.7,505.1 C23,505.1 25.7,507.8 25.7,511.1 L25.7,511.9 C25.7,515.2 23,517.9 19.7,517.9 L18.9,517.9 C15.6,517.9 12.9,515.3 12.9,511.9 Z" id="Shape" fill="#F79420" fill-rule="nonzero"></path>
                <path d="M0.1,539.8 L0.1,539 C0.1,535.7 2.8,533 6.1,533 L6.9,533 C10.2,533 12.9,535.7 12.9,539 L12.9,539.8 C12.9,543.1 10.2,545.8 6.9,545.8 L6.1,545.8 C2.8,545.8 0.1,543.1 0.1,539.8 Z" id="Shape" fill="#F79420" fill-rule="nonzero"></path>
                <path d="M30.4,561.2 L30.4,560.4 C30.4,557.1 33.1,554.4 36.4,554.4 L37.2,554.4 C40.5,554.4 43.2,557.1 43.2,560.4 L43.2,561.2 C43.2,564.5 40.5,567.2 37.2,567.2 L36.4,567.2 C33,567.2 30.4,564.5 30.4,561.2 Z" id="Shape" fill="#F79420" fill-rule="nonzero"></path>
                <path d="M45,565.2 L45,564.4 C45,561.1 47.7,558.4 51,558.4 L51.8,558.4 C55.1,558.4 57.8,561.1 57.8,564.4 L57.8,565.2 C57.8,568.5 55.1,571.2 51.8,571.2 L51,571.2 C47.7,571.2 45,568.5 45,565.2 Z" id="Shape" fill="#F79420" fill-rule="nonzero"></path>
                <path d="M72.5,600.3 L72.5,599.5 C72.5,596.2 75.2,593.5 78.5,593.5 L79.3,593.5 C82.6,593.5 85.3,596.2 85.3,599.5 L85.3,600.3 C85.3,603.6 82.6,606.3 79.3,606.3 L78.5,606.3 C75.2,606.3 72.5,603.6 72.5,600.3 Z" id="Shape" fill="#F79420" fill-rule="nonzero"></path>
                <path d="M23.1,597.3 L23.1,596.5 C23.1,593.2 25.8,590.5 29.1,590.5 L29.9,590.5 C33.2,590.5 35.9,593.2 35.9,596.5 L35.9,597.3 C35.9,600.6 33.2,603.3 29.9,603.3 L29.1,603.3 C25.8,603.3 23.1,600.6 23.1,597.3 Z" id="Shape" fill="#F79420" fill-rule="nonzero"></path>
                <path d="M133.1,595.3 L133.1,594.5 C133.1,591.2 135.8,588.5 139.1,588.5 L139.9,588.5 C143.2,588.5 145.9,591.2 145.9,594.5 L145.9,595.3 C145.9,598.6 143.2,601.3 139.9,601.3 L139.1,601.3 C135.8,601.3 133.1,598.6 133.1,595.3 Z" id="Shape" fill="#F79420" fill-rule="nonzero"></path>
                <path d="M186,539.4 L186,538.6 C186,535.3 188.7,532.6 192,532.6 L192.8,532.6 C196.1,532.6 198.8,535.3 198.8,538.6 L198.8,539.4 C198.8,542.7 196.1,545.4 192.8,545.4 L192,545.4 C188.7,545.4 186,542.7 186,539.4 Z" id="Shape" fill="#F79420" fill-rule="nonzero"></path>
                <path d="M224.3,494 L224.3,493.2 C224.3,489.9 227,487.2 230.3,487.2 L231.1,487.2 C234.4,487.2 237.1,489.9 237.1,493.2 L237.1,494 C237.1,497.3 234.4,500 231.1,500 L230.3,500 C227,500 224.3,497.3 224.3,494 Z" id="Shape" fill="#F79420" fill-rule="nonzero"></path>
                <path d="M208,389.6 L208,388.8 C208,385.5 210.7,382.8 214,382.8 L214.8,382.8 C218.1,382.8 220.8,385.5 220.8,388.8 L220.8,389.6 C220.8,392.9 218.1,395.6 214.8,395.6 L214,395.6 C210.7,395.6 208,392.9 208,389.6 Z" id="Shape" fill="#F79420" fill-rule="nonzero"></path>
                <path d="M173.8,399.2 L173.8,398.4 C173.8,395.1 176.5,392.4 179.8,392.4 L180.6,392.4 C183.9,392.4 186.6,395.1 186.6,398.4 L186.6,399.2 C186.6,402.5 183.9,405.2 180.6,405.2 L179.8,405.2 C176.4,405.2 173.8,402.5 173.8,399.2 Z" id="Shape" fill="#F79420" fill-rule="nonzero"></path>
                <path d="M155.7,412.6 L155.7,411.8 C155.7,408.5 158.4,405.8 161.7,405.8 L162.5,405.8 C165.8,405.8 168.5,408.5 168.5,411.8 L168.5,412.6 C168.5,415.9 165.8,418.6 162.5,418.6 L161.7,418.6 C158.3,418.6 155.7,415.9 155.7,412.6 Z" id="Shape" fill="#F79420" fill-rule="nonzero"></path>
                <path d="M232.4,453.6 L232.4,452.8 C232.4,449.5 235.1,446.8 238.4,446.8 L239.2,446.8 C242.5,446.8 245.2,449.5 245.2,452.8 L245.2,453.6 C245.2,456.9 242.5,459.6 239.2,459.6 L238.4,459.6 C235.1,459.6 232.4,456.9 232.4,453.6 Z" id="Shape" fill="#F79420" fill-rule="nonzero"></path>
                <path d="M256.6,458.8 L256.6,458 C256.6,454.7 259.3,452 262.6,452 L263.4,452 C266.7,452 269.4,454.7 269.4,458 L269.4,458.8 C269.4,462.1 266.7,464.8 263.4,464.8 L262.6,464.8 C259.3,464.8 256.6,462.1 256.6,458.8 Z" id="Shape" fill="#F79420" fill-rule="nonzero"></path>
                <path d="M284.4,373.7 L284.4,372.9 C284.4,369.6 287.1,366.9 290.4,366.9 L291.2,366.9 C294.5,366.9 297.2,369.6 297.2,372.9 L297.2,373.7 C297.2,377 294.5,379.7 291.2,379.7 L290.4,379.7 C287.1,379.7 284.4,377 284.4,373.7 Z" id="Shape" fill="#F79420" fill-rule="nonzero"></path>
                <path d="M322.6,366.1 L322.6,365.3 C322.6,362 325.3,359.3 328.6,359.3 L329.4,359.3 C332.7,359.3 335.4,362 335.4,365.3 L335.4,366.1 C335.4,369.4 332.7,372.1 329.4,372.1 L328.6,372.1 C325.2,372.1 322.6,369.4 322.6,366.1 Z" id="Shape" fill="#F79420" fill-rule="nonzero"></path>
                <path d="M341.7,331.9 L341.7,331.1 C341.7,327.8 344.4,325.1 347.7,325.1 L348.5,325.1 C351.8,325.1 354.5,327.8 354.5,331.1 L354.5,331.9 C354.5,335.2 351.8,337.9 348.5,337.9 L347.7,337.9 C344.4,337.9 341.7,335.2 341.7,331.9 Z" id="Shape" fill="#F79420" fill-rule="nonzero"></path>
                <path d="M379.5,331 L379.5,330.2 C379.5,326.9 382.2,324.2 385.5,324.2 L386.3,324.2 C389.6,324.2 392.3,326.9 392.3,330.2 L392.3,331 C392.3,334.3 389.6,337 386.3,337 L385.5,337 C382.2,337 379.5,334.3 379.5,331 Z" id="Shape" fill="#F79420" fill-rule="nonzero"></path>
                <path d="M344,397.3 L344,396.5 C344,393.2 346.7,390.5 350,390.5 L350.8,390.5 C354.1,390.5 356.8,393.2 356.8,396.5 L356.8,397.3 C356.8,400.6 354.1,403.3 350.8,403.3 L350,403.3 C346.7,403.4 344,400.7 344,397.3 Z" id="Shape" fill="#F79420" fill-rule="nonzero"></path>
                <path d="M382.9,390.9 L382.9,390.1 C382.9,386.8 385.6,384.1 388.9,384.1 L389.7,384.1 C393,384.1 395.7,386.8 395.7,390.1 L395.7,390.9 C395.7,394.2 393,396.9 389.7,396.9 L388.9,396.9 C385.6,396.9 382.9,394.2 382.9,390.9 Z" id="Shape" fill="#F79420" fill-rule="nonzero"></path>
                <path d="M412.8,411.4 L412.8,410.6 C412.8,407.3 415.5,404.6 418.8,404.6 L419.6,404.6 C422.9,404.6 425.6,407.3 425.6,410.6 L425.6,411.4 C425.6,414.7 422.9,417.4 419.6,417.4 L418.8,417.4 C415.5,417.4 412.8,414.7 412.8,411.4 Z" id="Shape" fill="#F79420" fill-rule="nonzero"></path>
                <path d="M453.2,341.4 L453.2,340.6 C453.2,337.3 455.9,334.6 459.2,334.6 L460,334.6 C463.3,334.6 466,337.3 466,340.6 L466,341.4 C466,344.7 463.3,347.4 460,347.4 L459.2,347.4 C455.9,347.4 453.2,344.7 453.2,341.4 Z" id="Shape" fill="#F79420" fill-rule="nonzero"></path>
                <path d="M479,324.5 L479,323.7 C479,320.4 481.7,317.7 485,317.7 L485.8,317.7 C489.1,317.7 491.8,320.4 491.8,323.7 L491.8,324.5 C491.8,327.8 489.1,330.5 485.8,330.5 L485,330.5 C481.7,330.5 479,327.8 479,324.5 Z" id="Shape" fill="#F79420" fill-rule="nonzero"></path>
                <path d="M400.3,257.1 L400.3,256.3 C400.3,253 403,250.3 406.3,250.3 L407.1,250.3 C410.4,250.3 413.1,253 413.1,256.3 L413.1,257.1 C413.1,260.4 410.4,263.1 407.1,263.1 L406.3,263.1 C403,263.1 400.3,260.4 400.3,257.1 Z" id="Shape" fill="#F79420" fill-rule="nonzero"></path>
                <path d="M456.9,261.3 L456.9,260.5 C456.9,257.2 459.6,254.5 462.9,254.5 L463.7,254.5 C467,254.5 469.7,257.2 469.7,260.5 L469.7,261.3 C469.7,264.6 467,267.3 463.7,267.3 L462.9,267.3 C459.6,267.4 456.9,264.7 456.9,261.3 Z" id="Shape" fill="#F79420" fill-rule="nonzero"></path>
                <path d="M467.3,282.4 L467.3,281.6 C467.3,278.3 470,275.6 473.3,275.6 L474.1,275.6 C477.4,275.6 480.1,278.3 480.1,281.6 L480.1,282.4 C480.1,285.7 477.4,288.4 474.1,288.4 L473.3,288.4 C470,288.4 467.3,285.7 467.3,282.4 Z" id="Shape" fill="#F79420" fill-rule="nonzero"></path>
                <path d="M476.4,242.9 L476.4,242.1 C476.4,238.8 479.1,236.1 482.4,236.1 L483.2,236.1 C486.5,236.1 489.2,238.8 489.2,242.1 L489.2,242.9 C489.2,246.2 486.5,248.9 483.2,248.9 L482.4,248.9 C479,248.9 476.4,246.2 476.4,242.9 Z" id="Shape" fill="#F79420" fill-rule="nonzero"></path>
                <path d="M495,262.8 L495,262 C495,258.7 497.7,256 501,256 L501.8,256 C505.1,256 507.8,258.7 507.8,262 L507.8,262.8 C507.8,266.1 505.1,268.8 501.8,268.8 L501,268.8 C497.7,268.8 495,266.1 495,262.8 Z" id="Shape" fill="#F79420" fill-rule="nonzero"></path>
                <path d="M581.8,123.5 L581.8,122.7 C581.8,119.4 584.5,116.7 587.8,116.7 L588.6,116.7 C591.9,116.7 594.6,119.4 594.6,122.7 L594.6,123.5 C594.6,126.8 591.9,129.5 588.6,129.5 L587.8,129.5 C584.5,129.5 581.8,126.8 581.8,123.5 Z" id="Shape" fill="#F79420" fill-rule="nonzero"></path>
                <path d="M613,152 L613,151.2 C613,147.9 615.7,145.2 619,145.2 L619.8,145.2 C623.1,145.2 625.8,147.9 625.8,151.2 L625.8,152 C625.8,155.3 623.1,158 619.8,158 L619,158 C615.7,158 613,155.3 613,152 Z" id="Shape" fill="#F79420" fill-rule="nonzero"></path>
                <path d="M600.9,192 L600.9,191.2 C600.9,187.9 603.6,185.2 606.9,185.2 L607.7,185.2 C611,185.2 613.7,187.9 613.7,191.2 L613.7,192 C613.7,195.3 611,198 607.7,198 L606.9,198 C603.5,198 600.9,195.3 600.9,192 Z" id="Shape" fill="#F79420" fill-rule="nonzero"></path>
                <path d="M627.4,172.5 L627.4,171.7 C627.4,168.4 630.1,165.7 633.4,165.7 L634.2,165.7 C637.5,165.7 640.2,168.4 640.2,171.7 L640.2,172.5 C640.2,175.8 637.5,178.5 634.2,178.5 L633.4,178.5 C630.1,178.6 627.4,175.9 627.4,172.5 Z" id="Shape" fill="#F79420" fill-rule="nonzero"></path>
                <path d="M639.5,101.4 L639.5,100.6 C639.5,97.3 642.2,94.6 645.5,94.6 L646.3,94.6 C649.6,94.6 652.3,97.3 652.3,100.6 L652.3,101.4 C652.3,104.7 649.6,107.4 646.3,107.4 L645.5,107.4 C642.2,107.4 639.5,104.7 639.5,101.4 Z" id="Shape" fill="#F79420" fill-rule="nonzero"></path>
                <path d="M628.8,52.7 L628.8,51.9 C628.8,48.6 631.5,45.9 634.8,45.9 L635.6,45.9 C638.9,45.9 641.6,48.6 641.6,51.9 L641.6,52.7 C641.6,56 638.9,58.7 635.6,58.7 L634.8,58.7 C631.5,58.7 628.8,56 628.8,52.7 Z" id="Shape" fill="#F79420" fill-rule="nonzero"></path>
                <path d="M678.8,48.5 L678.8,47.7 C678.8,44.4 681.5,41.7 684.8,41.7 L685.6,41.7 C688.9,41.7 691.6,44.4 691.6,47.7 L691.6,48.5 C691.6,51.8 688.9,54.5 685.6,54.5 L684.8,54.5 C681.5,54.6 678.8,51.9 678.8,48.5 Z" id="Shape" fill="#F79420" fill-rule="nonzero"></path>
                <path d="M698.6,23 L698.6,22.2 C698.6,18.9 701.3,16.2 704.6,16.2 L705.4,16.2 C708.7,16.2 711.4,18.9 711.4,22.2 L711.4,23 C711.4,26.3 708.7,29 705.4,29 L704.6,29 C701.3,29.1 698.6,26.4 698.6,23 Z" id="Shape" fill="#F79420" fill-rule="nonzero"></path>
                <path d="M687.7,114.2 L687.7,113.4 C687.7,110.1 690.4,107.4 693.7,107.4 L694.5,107.4 C697.8,107.4 700.5,110.1 700.5,113.4 L700.5,114.2 C700.5,117.5 697.8,120.2 694.5,120.2 L693.7,120.2 C690.4,120.2 687.7,117.5 687.7,114.2 Z" id="Shape" fill="#F79420" fill-rule="nonzero"></path>
                <path d="M682.5,133.8 L682.5,133 C682.5,129.7 685.2,127 688.5,127 L689.3,127 C692.6,127 695.3,129.7 695.3,133 L695.3,133.8 C695.3,137.1 692.6,139.8 689.3,139.8 L688.5,139.8 C685.2,139.8 682.5,137.1 682.5,133.8 Z" id="Shape" fill="#F79420" fill-rule="nonzero"></path>
                <path d="M697.4,164.1 L697.4,163.3 C697.4,160 700.1,157.3 703.4,157.3 L704.2,157.3 C707.5,157.3 710.2,160 710.2,163.3 L710.2,164.1 C710.2,167.4 707.5,170.1 704.2,170.1 L703.4,170.1 C700.1,170.1 697.4,167.4 697.4,164.1 Z" id="Shape" fill="#F79420" fill-rule="nonzero"></path>
                <path d="M601.1,328.9 L601.1,328.1 C601.1,324.8 603.8,322.1 607.1,322.1 L607.9,322.1 C611.2,322.1 613.9,324.8 613.9,328.1 L613.9,328.9 C613.9,332.2 611.2,334.9 607.9,334.9 L607.1,334.9 C603.8,334.9 601.1,332.2 601.1,328.9 Z" id="Shape" fill="#F79420" fill-rule="nonzero"></path>
                <path d="M590.3,302.6 L590.3,301.8 C590.3,298.5 593,295.8 596.3,295.8 L597.1,295.8 C600.4,295.8 603.1,298.5 603.1,301.8 L603.1,302.6 C603.1,305.9 600.4,308.6 597.1,308.6 L596.3,308.6 C593,308.6 590.3,305.9 590.3,302.6 Z" id="Shape" fill="#F79420" fill-rule="nonzero"></path>
                <path d="M554.1,337.7 L554.1,336.9 C554.1,333.6 556.8,330.9 560.1,330.9 L560.9,330.9 C564.2,330.9 566.9,333.6 566.9,336.9 L566.9,337.7 C566.9,341 564.2,343.7 560.9,343.7 L560.1,343.7 C556.8,343.7 554.1,341 554.1,337.7 Z" id="Shape" fill="#F79420" fill-rule="nonzero"></path>
                <path d="M575.7,439.7 L575.7,438.9 C575.7,435.6 578.4,432.9 581.7,432.9 L582.5,432.9 C585.8,432.9 588.5,435.6 588.5,438.9 L588.5,439.7 C588.5,443 585.8,445.7 582.5,445.7 L581.7,445.7 C578.4,445.7 575.7,443 575.7,439.7 Z" id="Shape" fill="#F79420" fill-rule="nonzero"></path>
                <path d="M792.2,69.8 L792.2,69 C792.2,65.7 794.9,63 798.2,63 L799,63 C802.3,63 805,65.7 805,69 L805,69.8 C805,73.1 802.3,75.8 799,75.8 L798.2,75.8 C794.9,75.8 792.2,73.1 792.2,69.8 Z" id="Shape" fill="#F79420" fill-rule="nonzero"></path>
                <path d="M752.3,45.1 L752.3,44.3 C752.3,41 755,38.3 758.3,38.3 L759.1,38.3 C762.4,38.3 765.1,41 765.1,44.3 L765.1,45.1 C765.1,48.4 762.4,51.1 759.1,51.1 L758.3,51.1 C755,51.1 752.3,48.4 752.3,45.1 Z" id="Shape" fill="#F79420" fill-rule="nonzero"></path>
                <path d="M783.2,7.4 L783.2,6.6 C783.2,3.3 785.9,0.6 789.2,0.6 L790,0.6 C793.3,0.6 796,3.3 796,6.6 L796,7.4 C796,10.7 793.3,13.4 790,13.4 L789.2,13.4 C785.9,13.4 783.2,10.7 783.2,7.4 Z" id="Shape" fill="#F79420" fill-rule="nonzero"></path>
                <path d="M369.6,258.2 L244.1,346.5" id="Shape" stroke="#F6921E" stroke-width="0.25"></path>
                <path d="M186.6,335.3 L244.1,346.5" id="Shape" stroke="#F6921E" stroke-width="0.25"></path>
                <path d="M186.6,367 L96.2,430.6" id="Shape" stroke="#F6921E" stroke-width="0.25"></path>
                <path d="M134.4,372.5 L186.6,335.3" id="Shape" stroke="#F6921E" stroke-width="0.25"></path>
                <path d="M222.1,286.6 L227,282.8" id="Shape" stroke="#F6921E" stroke-width="0.25"></path>
                <path d="M266.5,255.4 L326,213.4" id="Shape" stroke="#F6921E" stroke-width="0.25"></path>
                <path d="M290.9,257.1 L329.7,229.6" id="Shape" stroke="#F6921E" stroke-width="0.25"></path>
                <path d="M239.9,311.7 L341.7,240.4" id="Shape" stroke="#F6921E" stroke-width="0.25"></path>
                <path d="M458,264.5 L417.8,292.9" id="Shape" stroke="#F6921E" stroke-width="0.25"></path>
                <path d="M388.4,286 L417.8,292.9" id="Shape" stroke="#F6921E" stroke-width="0.25"></path>
                <path d="M254.7,379.7 L388.4,286" id="Shape" stroke="#F6921E" stroke-width="0.25"></path>
                <path d="M186.6,367 L254.7,379.7" id="Shape" stroke="#F6921E" stroke-width="0.25"></path>
                <path d="M258.4,395.6 L285.6,377" id="Shape" stroke="#F6921E" stroke-width="0.25"></path>
                <path d="M258.4,395.6 L220.7,390.3" id="Shape" stroke="#F6921E" stroke-width="0.25"></path>
                <path d="M629.9,55.9 L443.1,186.9" id="Shape" stroke="#F6921E" stroke-width="0.25"></path>
                <path d="M699.7,26.1 L442.7,204.4" id="Shape" stroke="#F6921E" stroke-width="0.25"></path>
                <path d="M626.7,89.4 L680.3,52.3" id="Shape" stroke="#F6921E" stroke-width="0.25"></path>
                <path d="M620.3,123.1 L626.7,89.4" id="Shape" stroke="#F6921E" stroke-width="0.25"></path>
                <path d="M582.9,126.7 L440,227" id="Shape" stroke="#F6921E" stroke-width="0.25"></path>
                <path d="M483.8,236.2 L487.3,215.4" id="Shape" stroke="#F6921E" stroke-width="0.25"></path>
                <path d="M502.5,256 L506.3,230.1" id="Shape" stroke="#F6921E" stroke-width="0.25"></path>
                <path d="M620.3,123.1 L487.3,215.4" id="Shape" stroke="#F6921E" stroke-width="0.25"></path>
                <path d="M602,195.2 L556.8,226.9" id="Shape" stroke="#F6921E" stroke-width="0.25"></path>
                <path d="M614.2,155.3 L506.3,230.1" id="Shape" stroke="#F6921E" stroke-width="0.25"></path>
                <path d="M511.7,309.1 L678.7,192" id="Shape" stroke="#F6921E" stroke-width="0.25"></path>
                <path d="M504.4,351.3 L511.7,309.1" id="Shape" stroke="#F6921E" stroke-width="0.25"></path>
                <path d="M484.3,330.4 L481.7,345" id="Shape" stroke="#F6921E" stroke-width="0.25"></path>
                <path d="M504.4,351.3 L424.6,407.5" id="Shape" stroke="#F6921E" stroke-width="0.25"></path>
                <path d="M481.7,345 L397.3,404.6" id="Shape" stroke="#F6921E" stroke-width="0.25"></path>
                <path d="M454.3,344.5 L394.6,386.8" id="Shape" stroke="#F6921E" stroke-width="0.25"></path>
                <path d="M381,334.6 L354.5,352.9" id="Shape" stroke="#F6921E" stroke-width="0.25"></path>
                <path d="M351.8,374.8 L354.5,352.9" id="Shape" stroke="#F6921E" stroke-width="0.25"></path>
                <path d="M314.9,422.3 L327.2,424.6" id="Shape" stroke="#F6921E" stroke-width="0.25"></path>
                <path d="M268.3,454.7 L314.9,422.3" id="Shape" stroke="#F6921E" stroke-width="0.25"></path>
                <path d="M351.8,374.8 L244.2,449.7" id="Shape" stroke="#F6921E" stroke-width="0.25"></path>
                <path d="M261.2,412.2 L186.6,398.8" id="Shape" stroke="#F6921E" stroke-width="0.25"></path>
                <path d="M323.7,369.3 L261.2,412.2" id="Shape" stroke="#F6921E" stroke-width="0.25"></path>
                <path d="M468.2,285.3 L419.2,320" id="Shape" stroke="#F6921E" stroke-width="0.25"></path>
                <path d="M376.7,311.2 L419.2,320" id="Shape" stroke="#F6921E" stroke-width="0.25"></path>
                <path d="M353.1,327.5 L376.7,311.2" id="Shape" stroke="#F6921E" stroke-width="0.25"></path>
                <path d="M355.9,393.6 L648.1,189.4" id="Shape" stroke="#F6921E" stroke-width="0.25"></path>
                <path d="M644.8,107.4 L635,165.8" id="Shape" stroke="#F6921E" stroke-width="0.25"></path>
                <path d="M664,95.3 L648.1,189.4" id="Shape" stroke="#F6921E" stroke-width="0.25"></path>
                <path d="M695.3,107.4 L696.6,88.5" id="Shape" stroke="#F6921E" stroke-width="0.25"></path>
                <path d="M753.3,48.1 L696.6,88.5" id="Shape" stroke="#F6921E" stroke-width="0.25"></path>
                <path d="M784.5,10.8 L664,95.3" id="Shape" stroke="#F6921E" stroke-width="0.25"></path>
                <path d="M678.7,192 L688.9,134.2" id="Shape" stroke="#F6921E" stroke-width="0.25"></path>
                <path d="M694.1,213.9 L703,168.5" id="Shape" stroke="#F6921E" stroke-width="0.25"></path>
                <path d="M561.7,330.8 L565.9,303.3" id="Shape" stroke="#F6921E" stroke-width="0.25"></path>
                <path d="M694.1,213.9 L565.9,303.3" id="Shape" stroke="#F6921E" stroke-width="0.25"></path>
                <path d="M578.2,404 L596.7,305.1" id="Shape" stroke="#F6921E" stroke-width="0.25"></path>
                <path d="M606.2,334.8 L593.7,411.7" id="Shape" stroke="#F6921E" stroke-width="0.25"></path>
                <path d="M406.8,524.1 L578.2,404" id="Shape" stroke="#F6921E" stroke-width="0.25"></path>
                <path d="M409.1,541.3 L593.7,411.7" id="Shape" stroke="#F6921E" stroke-width="0.25"></path>
                <path d="M411.7,556.4 L578.2,441.9" id="Shape" stroke="#F6921E" stroke-width="0.25"></path>
                <path d="M415.8,573.9 L622,430.5" id="Shape" stroke="#F6921E" stroke-width="0.25"></path>
                <path d="M651.4,265.7 L622,430.5" id="Shape" stroke="#F6921E" stroke-width="0.25"></path>
                <path d="M781.4,174.6 L651.4,265.7" id="Shape" stroke="#F6921E" stroke-width="0.25"></path>
                <path d="M797.5,75.7 L781.4,174.6" id="Shape" stroke="#F6921E" stroke-width="0.25"></path>
                <path d="M406.8,524.1 L237,494.9" id="Shape" stroke="#F6921E" stroke-width="0.25"></path>
                <path d="M409.1,541.3 L213.6,506" id="Shape" stroke="#F6921E" stroke-width="0.25"></path>
                <path d="M411.7,556.4 L217.6,521.4" id="Shape" stroke="#F6921E" stroke-width="0.25"></path>
                <path d="M415.8,573.9 L220.9,537.4" id="Shape" stroke="#F6921E" stroke-width="0.25"></path>
                <path d="M217.6,521.4 L194.9,537.3" id="Shape" stroke="#F6921E" stroke-width="0.25"></path>
                <path d="M213.6,506 L83.2,596.8" id="Shape" stroke="#F6921E" stroke-width="0.25"></path>
                <path d="M220.9,537.4 L143.4,591.9" id="Shape" stroke="#F6921E" stroke-width="0.25"></path>
                <path d="M142,514.8 L142,514 C142,510.7 144.7,508 148,508 L148.8,508 C152.1,508 154.8,510.7 154.8,514 L154.8,514.8 C154.8,518.1 152.1,520.8 148.8,520.8 L148,520.8 C144.7,520.8 142,518.2 142,514.8 Z" id="Shape" fill="#F79420" fill-rule="nonzero"></path>
                <path d="M81.2,500.7 L81.2,499.9 C81.2,496.6 83.9,493.9 87.2,493.9 L88,493.9 C91.3,493.9 94,496.6 94,499.9 L94,500.7 C94,504 91.3,506.7 88,506.7 L87.2,506.7 C83.9,506.7 81.2,504 81.2,500.7 Z" id="Shape" fill="#F79420" fill-rule="nonzero"></path>
                <path d="M143.1,518.1 L34.9,593.5" id="Shape" stroke="#F6921E" stroke-width="0.25"></path>
                <path d="M38.2,554.6 L41.9,532.5" id="Shape" stroke="#F6921E" stroke-width="0.25"></path>
                <path d="M52.5,558.4 L55.2,542" id="Shape" stroke="#F6921E" stroke-width="0.25"></path>
                <path d="M82.4,504 L41.9,532.5" id="Shape" stroke="#F6921E" stroke-width="0.25"></path>
                <path d="M127,491.8 L55.2,542" id="Shape" stroke="#F6921E" stroke-width="0.25"></path>
                <path d="M110.8,466.5 L11.9,535.9" id="Shape" stroke="#F6921E" stroke-width="0.25"></path>
                <path d="M24.4,507.5 L117.3,442.8" id="Shape" stroke="#F6921E" stroke-width="0.25"></path>
            </g>
        </g>
    </g>
</svg>