<?xml version="1.0" encoding="UTF-8"?>
<svg width="1374px" height="183px" viewBox="0 0 1374 183" version="1.1" xmlns="http://www.w3.org/2000/svg" xmlns:xlink="http://www.w3.org/1999/xlink">
    <!-- Generator: Sketch 52.5 (67469) - http://www.bohemiancoding.com/sketch -->
    <title>background-bricks-wide</title>
    <desc>Created with Sketch.</desc>
    <g id="Page-1" stroke="none" stroke-width="1" fill="none" fill-rule="evenodd">
        <g id="background-bricks-wide">
            <g id="Group" transform="translate(198.000000, 112.000000)">
                <polygon id="Shape" fill="#DE582D" points="20.5 0.9 68.8 14.6 47.6 44.7 0.1 26.6"></polygon>
                <polygon id="Shape" fill="#8A4232" points="68.8 14.6 81.4 29.7 60.2 59.4 47.6 44.7"></polygon>
                <path d="M69.2,16 L66.6,19.7 C66.6,19.7 68.4,18.2 69.8,19.7 C71.2,21.2 77.1,27.2 77.6,28.1 C78.2,29 78.5,30.3 78.4,31.3 C78.2,32.3 77.8,33.3 77.8,33.3 L80.4,29.4 L69.2,16 Z" id="Shape" fill="#682E26"></path>
                <polygon id="Shape" fill="#F69977" points="60.2 59.4 47.6 44.7 0.1 26.6 11.9 39.8"></polygon>
                <path d="M57.3,58 C57.3,58 47.6,45.4 46.4,45.1 C45.2,44.7 28,38.4 28,38.4 C28,38.4 44.5,45 46,46.2 C47.6,47.5 57.3,58 57.3,58 Z" id="Shape" fill="#F58962"></path>
            </g>
            <g id="Group" transform="translate(546.000000, 27.000000)">
                <polygon id="Shape" fill="#DE582D" points="0.3 20.1 46.5 0.3 49 37.1 0.7 52.9"></polygon>
                <polygon id="Shape" fill="#8A4232" points="46.5 0.3 65.7 4.1 68 40.6 49 37.1"></polygon>
                <path d="M47.6,1.2 L47.9,5.7 C47.9,5.7 48.3,3.4 50.4,3.6 C52.5,3.8 60.8,4.8 61.8,5.2 C62.8,5.6 63.9,6.3 64.4,7.2 C64.9,8.1 65.2,9.2 65.2,9.2 L64.8,4.6 L47.6,1.2 Z" id="Shape" fill="#682E26"></path>
                <polygon id="Shape" fill="#F69977" points="68 40.6 49 37.1 0.7 52.9 18.1 55.8"></polygon>
                <path d="M64.9,41.3 C64.9,41.3 49.4,37.7 48.3,38.2 C47.1,38.7 29.8,44.6 29.8,44.6 C29.8,44.6 46.8,39.3 48.7,39.3 C50.7,39.3 64.9,41.3 64.9,41.3 Z" id="Shape" fill="#F58962"></path>
            </g>
            <g id="Group">
                <polygon id="Shape" fill="#DE582D" points="70.1 30.4 36 67.1 18.8 34.6 56.5 0.5"></polygon>
                <polygon id="Shape" fill="#8A4232" points="36 67.1 16.9 71.5 0 39.1 18.8 34.6"></polygon>
                <path d="M34.6,66.9 L32.5,62.9 C32.5,62.9 33,65.2 31.1,65.8 C29.1,66.4 21.1,68.9 20.1,69 C19,69.1 17.7,68.8 16.9,68.2 C16.1,67.6 15.4,66.7 15.4,66.7 L17.7,70.8 L34.6,66.9 Z" id="Shape" fill="#682E26"></path>
                <polygon id="Shape" fill="#F69977" points="0 39.1 18.8 34.6 56.5 0.5 39.4 5"></polygon>
                <path d="M2.5,37.2 C2.5,37.2 18.1,34.2 19,33.3 C19.9,32.4 33.3,19.9 33.3,19.9 C33.3,19.9 19.9,31.6 18.1,32.4 C16.3,33.2 2.5,37.2 2.5,37.2 Z" id="Shape" fill="#F58962"></path>
            </g>
            <g id="Group" transform="translate(421.000000, 62.000000)">
                <path d="M7.6,40 L1.6,37.9 C1.3,37.8 1.1,37.9 1,38.2 C0.9,38.5 1,38.7 1.3,38.8 L7.3,40.9 C7.6,41 7.8,40.9 7.9,40.6 C8,40.4 7.9,40.1 7.6,40 Z" id="Shape" fill="#404041"></path>
                <path d="M8.2,38.4 L2.2,36.3 C1.9,36.2 1.7,36.3 1.6,36.6 C1.5,36.9 1.6,37.1 1.9,37.2 L7.9,39.3 C8.2,39.4 8.4,39.3 8.5,39 C8.6,38.8 8.4,38.5 8.2,38.4 Z" id="Shape" fill="#404041"></path>
                <path d="M8.7,36.9 L2.7,34.8 C2.4,34.7 2.2,34.8 2.1,35.1 C2,35.4 2.1,35.6 2.4,35.7 L8.4,37.8 C8.7,37.9 8.9,37.8 9,37.5 C9.1,37.3 9,37 8.7,36.9 Z" id="Shape" fill="#404041"></path>
                <path d="M9.3,36.4 L2.5,34 C3.1,32.5 3.8,30.2 3.6,27.5 C3.3,24.1 1.8,23.1 0.8,19.7 C0.5,18.7 -1.1,13.1 1.7,7.8 C2.1,7.1 4.9,2.2 10.7,0.9 C16.1,-0.3 21.8,2.1 24.9,6.5 C25.2,7 28.4,11.6 27.1,17.5 C25.9,22.8 21.7,25.7 20.8,26.3 C17.4,28.7 15.2,28.1 12.4,30.8 C10.7,32.7 9.8,34.9 9.3,36.4 Z" id="Shape" fill="#F8F1A9"></path>
            </g>
            <g id="Group-Copy-3" transform="translate(1146.000000, 142.000000)">
                <path d="M7.6,40 L1.6,37.9 C1.3,37.8 1.1,37.9 1,38.2 C0.9,38.5 1,38.7 1.3,38.8 L7.3,40.9 C7.6,41 7.8,40.9 7.9,40.6 C8,40.4 7.9,40.1 7.6,40 Z" id="Shape" fill="#404041"></path>
                <path d="M8.2,38.4 L2.2,36.3 C1.9,36.2 1.7,36.3 1.6,36.6 C1.5,36.9 1.6,37.1 1.9,37.2 L7.9,39.3 C8.2,39.4 8.4,39.3 8.5,39 C8.6,38.8 8.4,38.5 8.2,38.4 Z" id="Shape" fill="#404041"></path>
                <path d="M8.7,36.9 L2.7,34.8 C2.4,34.7 2.2,34.8 2.1,35.1 C2,35.4 2.1,35.6 2.4,35.7 L8.4,37.8 C8.7,37.9 8.9,37.8 9,37.5 C9.1,37.3 9,37 8.7,36.9 Z" id="Shape" fill="#404041"></path>
                <path d="M9.3,36.4 L2.5,34 C3.1,32.5 3.8,30.2 3.6,27.5 C3.3,24.1 1.8,23.1 0.8,19.7 C0.5,18.7 -1.1,13.1 1.7,7.8 C2.1,7.1 4.9,2.2 10.7,0.9 C16.1,-0.3 21.8,2.1 24.9,6.5 C25.2,7 28.4,11.6 27.1,17.5 C25.9,22.8 21.7,25.7 20.8,26.3 C17.4,28.7 15.2,28.1 12.4,30.8 C10.7,32.7 9.8,34.9 9.3,36.4 Z" id="Shape" fill="#F8F1A9"></path>
            </g>
            <g id="Group" transform="translate(741.000000, 55.000000)">
                <path d="M13,0.7 L106.9,10.5 C107.4,10.6 107.8,10.9 108.1,11.3 L131.6,64.1 C132,65.1 131.3,66.2 130.2,66.1 L35.7,57.2 C35.2,57.2 34.7,56.8 34.5,56.3 L11.5,2.7 C11.1,1.7 11.9,0.6 13,0.7 Z" id="Shape" fill="#232220"></path>
                <path d="M18,5.9 C18.9,6 102.9,14.7 102.9,14.7 L123.7,61.3 L39,53.2 L18,5.9 Z" id="Shape" fill="#444341"></path>
                <path d="M1.1,107.7 C1.1,109.4 2.4,110.8 4.1,111 L91.8,120.1 C93.7,120.3 95.5,119.5 96.6,118 L127.5,76 C129,73.9 129.9,71.4 129.9,68.8 L1.1,107.7 Z" id="Shape" fill="#232220"></path>
                <path d="M91.6,117.5 L3,108.4 C1,108.2 -2.22044605e-16,105.9 1.2,104.3 L33.8,59.8 C35,58.1 37,57.2 39.1,57.4 L126.9,65.5 C129.4,65.7 130.7,68.6 129.2,70.6 L97,115.1 C95.7,116.8 93.7,117.7 91.6,117.5 Z" id="Shape" fill="#D4D7DE"></path>
                <path d="M102,101.6 L15.3,91.9 C14.4,91.8 14,90.8 14.5,90.1 L33.9,63.8 C34.5,63 35.5,62.5 36.5,62.6 L122.8,71.1 C123.8,71.2 124.3,72.3 123.7,73.1 L104.7,100.4 C104.1,101.3 103.1,101.7 102,101.6 Z" id="Shape" fill="#BBBBC0"></path>
                <polygon id="Shape" fill="#232220" points="50.4 58.5 48.7 60.2 116.4 67.6 117.6 64.9"></polygon>
                <polygon id="Shape" fill="#BFC2C9" points="61.5 111.6 36.7 108.9 45.2 96.9 69.1 99.4"></polygon>
                <polygon id="Shape" fill="#232220" points="73.2 96.7 38 92.6 41.5 88.4 76.7 92.5"></polygon>
                <polyline id="Shape" fill="#232220" points="34.2 87.6 39.7 88.1 36.2 92.3 30.7 91.8"></polyline>
                <polyline id="Shape" fill="#232220" points="26.7 86.9 32.2 87.4 28.7 91.6 23.2 91.1"></polyline>
                <polyline id="Shape" fill="#232220" points="19.5 86.3 25 86.8 21.5 91 16 90.5"></polyline>
                <polyline id="Shape" fill="#232220" points="34.8 81.7 40.3 82.2 36.8 86.3 31.3 85.8"></polyline>
                <polyline id="Shape" fill="#232220" points="42.2 82.3 47.7 82.8 44.2 86.9 38.7 86.4"></polyline>
                <polyline id="Shape" fill="#232220" points="49.4 82.9 54.9 83.4 51.4 87.6 45.9 87.1"></polyline>
                <polyline id="Shape" fill="#232220" points="56.8 83.8 62.3 84.3 58.8 88.4 53.3 87.9"></polyline>
                <polyline id="Shape" fill="#232220" points="64.2 84.6 69.7 85.1 66.2 89.3 60.7 88.8"></polyline>
                <polyline id="Shape" fill="#232220" points="78.5 92.5 84 93 80.5 97.2 75 96.7"></polyline>
                <polyline id="Shape" fill="#232220" points="86.2 93.3 91.7 93.8 88.2 97.9 82.7 97.4"></polyline>
                <polyline id="Shape" fill="#232220" points="72 85.3 77.5 85.8 74 90 68.5 89.5"></polyline>
                <polyline id="Shape" fill="#232220" points="79.2 86.1 84.7 86.6 81.2 90.8 75.7 90.3"></polyline>
                <polyline id="Shape" fill="#232220" points="86.2 86.9 91.7 87.4 88.2 91.6 82.7 91.1"></polyline>
                <polyline id="Shape" fill="#232220" points="93.8 87.6 99.3 88.1 95.8 92.3 90.3 91.8"></polyline>
                <polyline id="Shape" fill="#232220" points="93.4 93.9 106 95.1 102.5 99.3 89.9 98.1"></polyline>
                <polyline id="Shape" fill="#232220" points="101.2 88.3 110.2 89.3 106.7 93.5 97.7 92.5"></polyline>
                <polyline id="Shape" fill="#232220" points="24 80.3 33 81.3 29.5 85.5 20.5 84.5"></polyline>
                <polyline id="Shape" fill="#232220" points="41.5 76.3 47 76.8 43.5 81 38 80.5"></polyline>
                <polyline id="Shape" fill="#232220" points="48.9 76.9 54.4 77.4 50.9 81.6 45.4 81.1"></polyline>
                <polyline id="Shape" fill="#232220" points="56.1 77.6 61.6 78.1 58.1 82.3 52.6 81.8"></polyline>
                <polyline id="Shape" fill="#232220" points="63.5 78.4 69 78.9 65.5 83.1 60 82.6"></polyline>
                <polyline id="Shape" fill="#232220" points="71 79.3 76.5 79.8 73 84 67.5 83.5"></polyline>
                <polyline id="Shape" fill="#232220" points="78.7 80 84.2 80.5 80.7 84.6 75.2 84.1"></polyline>
                <polyline id="Shape" fill="#232220" points="85.9 80.8 91.4 81.3 87.9 85.5 82.4 85"></polyline>
                <polyline id="Shape" fill="#232220" points="92.9 81.6 98.4 82.1 94.9 86.3 89.4 85.8"></polyline>
                <polyline id="Shape" fill="#232220" points="100.5 82.3 106 82.8 102.5 87 97 86.5"></polyline>
                <polyline id="Shape" fill="#232220" points="42.8 70.4 48.3 70.9 44.8 75 39.3 74.5"></polyline>
                <polyline id="Shape" fill="#232220" points="50.2 71 55.7 71.5 52.2 75.6 46.7 75.1"></polyline>
                <polyline id="Shape" fill="#232220" points="57.4 71.6 62.9 72.1 59.4 76.3 53.9 75.8"></polyline>
                <polyline id="Shape" fill="#232220" points="64.8 72.5 70.3 73 66.8 77.1 61.3 76.6"></polyline>
                <polyline id="Shape" fill="#232220" points="72.2 73.3 77.7 73.8 74.2 78 68.7 77.5"></polyline>
                <polyline id="Shape" fill="#232220" points="80 74 85.5 74.5 82 78.7 76.5 78.2"></polyline>
                <polyline id="Shape" fill="#232220" points="87.2 74.8 92.7 75.3 89.2 79.5 83.7 79"></polyline>
                <polyline id="Shape" fill="#232220" points="94.2 75.6 99.7 76.1 96.2 80.3 90.7 79.8"></polyline>
                <polyline id="Shape" fill="#232220" points="101.8 76.3 107.3 76.8 103.8 81 98.3 80.5"></polyline>
                <polyline id="Shape" fill="#232220" points="36.3 63.6 41.8 64.1 38.3 68.3 32.8 67.8"></polyline>
                <polyline id="Shape" fill="#232220" points="43.7 64.2 49.2 64.7 45.7 68.9 40.2 68.4"></polyline>
                <polyline id="Shape" fill="#232220" points="50.9 64.9 56.4 65.4 52.9 69.6 47.4 69.1"></polyline>
                <polyline id="Shape" fill="#232220" points="58.3 65.7 63.8 66.2 60.3 70.4 54.8 69.9"></polyline>
                <polyline id="Shape" fill="#232220" points="65.7 66.6 71.2 67.1 67.7 71.3 62.2 70.8"></polyline>
                <polyline id="Shape" fill="#232220" points="73.5 67.3 79 67.8 75.5 71.9 70 71.4"></polyline>
                <polyline id="Shape" fill="#232220" points="80.7 68.1 86.2 68.6 82.7 72.8 77.2 72.3"></polyline>
                <polyline id="Shape" fill="#232220" points="87.7 68.9 93.2 69.4 89.7 73.6 84.2 73.1"></polyline>
                <polyline id="Shape" fill="#232220" points="95.3 69.6 100.8 70.1 97.3 74.3 91.8 73.8"></polyline>
                <polyline id="Shape" fill="#232220" points="103.1 70.4 108.6 70.9 105.1 75.1 99.6 74.6"></polyline>
                <polyline id="Shape" fill="#232220" points="109.8 70.9 122.4 72.1 118.9 76.3 106.3 75.1"></polyline>
                <polyline id="Shape" fill="#232220" points="28.2 74.6 40.8 75.8 37.3 80 24.7 78.8"></polyline>
                <polyline id="Shape" fill="#232220" points="32.2 69.2 41.1 70.1 37.6 74.3 28.7 73.4"></polyline>
                <polyline id="Shape" fill="#232220" points="109.1 77.3 118.7 77.9 110.8 87.9 104.1 87.3 108.9 81.7 105.6 81.4"></polyline>
            </g>
            <g id="Group-Copy-4" transform="translate(1292.000000, 6.000000)">
                <polygon id="Shape" fill="#DE582D" points="20.5 0.9 68.8 14.6 47.6 44.7 0.1 26.6"></polygon>
                <polygon id="Shape" fill="#8A4232" points="68.8 14.6 81.4 29.7 60.2 59.4 47.6 44.7"></polygon>
                <path d="M69.2,16 L66.6,19.7 C66.6,19.7 68.4,18.2 69.8,19.7 C71.2,21.2 77.1,27.2 77.6,28.1 C78.2,29 78.5,30.3 78.4,31.3 C78.2,32.3 77.8,33.3 77.8,33.3 L80.4,29.4 L69.2,16 Z" id="Shape" fill="#682E26"></path>
                <polygon id="Shape" fill="#F69977" points="60.2 59.4 47.6 44.7 0.1 26.6 11.9 39.8"></polygon>
                <path d="M57.3,58 C57.3,58 47.6,45.4 46.4,45.1 C45.2,44.7 28,38.4 28,38.4 C28,38.4 44.5,45 46,46.2 C47.6,47.5 57.3,58 57.3,58 Z" id="Shape" fill="#F58962"></path>
            </g>
            <g id="Group" transform="translate(983.000000, 35.000000)">
                <polygon id="Shape" fill="#DE582D" points="38.9 6.4 49.8 55.3 13.2 51.1 6.5 0.7"></polygon>
                <polygon id="Shape" fill="#8A4232" points="49.8 55.3 42.6 73.5 6.3 69.1 13.2 51.1"></polygon>
                <path d="M48.8,56.3 L44.3,55.8 C44.3,55.8 46.5,56.7 45.9,58.6 C45.3,60.5 42.8,68.6 42.3,69.5 C41.8,70.4 40.8,71.4 39.8,71.7 C38.8,72.1 37.7,72.1 37.7,72.1 L42.3,72.5 L48.8,56.3 Z" id="Shape" fill="#682E26"></path>
                <polygon id="Shape" fill="#F69977" points="6.3 69.1 13.2 51.1 6.5 0.7 0.6 17.3"></polygon>
                <path d="M6.2,65.9 C6.2,65.9 12.6,51.4 12.3,50.1 C12,48.9 9.4,30.7 9.4,30.7 C9.4,30.7 11.5,48.3 11.1,50.3 C10.7,52.3 6.2,65.9 6.2,65.9 Z" id="Shape" fill="#F58962"></path>
            </g>
        </g>
    </g>
</svg>