<?xml version="1.0" encoding="utf-8"?>
<!-- Generator: Adobe Illustrator 25.1.0, SVG Export Plug-In . SVG Version: 6.00 Build 0)  -->
<svg version="1.1" id="Layer_1" xmlns="http://www.w3.org/2000/svg" xmlns:xlink="http://www.w3.org/1999/xlink" x="0px" y="0px"
	 viewBox="0 0 378.8 526.3" style="enable-background:new 0 0 378.8 526.3;" xml:space="preserve">
<style type="text/css">
	.st0{fill:none;stroke:#FAC5BF;stroke-width:3.2344;stroke-linecap:round;}
	.st1{fill:none;stroke:#F9A56F;stroke-width:3.2344;stroke-linecap:round;}
	.st2{fill:none;stroke:#FFFFFF;stroke-width:3.2344;stroke-linecap:round;}
	.st3{fill:#F9A56F;}
	.st4{fill:#FAC5BF;}
	.st5{fill:#FFFFFF;}
	.st6{fill:#1B315E;}
	.st7{fill:none;stroke:#1B315E;stroke-width:4.3437;stroke-miterlimit:10;}
	.st8{fill:#F1656E;}
	.st9{fill-rule:evenodd;clip-rule:evenodd;fill:#F9A56F;}
</style>
<g>
	<path class="st0" d="M159.5,41.4c1.5-1,4.9-1.8,7.6,1c3.4,3.5-0.9,7.1,1.7,11.2c2,3.2,6,2.7,7.7,2"/>
	<path class="st1" d="M22.4,114.8c1,1.4,2.1,4.8-0.5,7.7c-3.2,3.6-7.2-0.4-11,2.4c-3.1,2.2-2.3,6.1-1.5,7.8"/>
	<path class="st0" d="M278.4,123.1c0.9,1.5,1.5,5-1.5,7.5c-3.6,3.2-7-1.3-11.2,1c-3.4,1.8-3,5.8-2.5,7.5"/>
	<path class="st2" d="M312,72.6c-0.1-1.7,1.1-5.2,4.8-6.1c4.7-1.1,5.7,4.4,10.4,4.4c3.8-0.1,5.3-3.7,5.7-5.5"/>
	<path class="st2" d="M349.8,251.5c0.9-1.4,3.8-3.6,7.4-2.2c4.4,1.8,2.1,6.9,6,9.6c3.2,2.1,6.5,0,7.9-1.2"/>
	<path class="st1" d="M94.3,1.6c-1.5,0.8-4,3.5-2.8,7.2c1.5,4.6,6.6,2.7,9,6.8c1.9,3.3-0.6,6.5-1.9,7.7"/>
	<path class="st3" d="M266.3,185l8.2-3.5c1.2-0.6,2.7,0.1,3.2,1.3l3.5,8.2c0.6,1.2-0.1,2.7-1.3,3.2l-8.2,3.5
		c-1.2,0.6-2.7-0.1-3.2-1.3l-3.5-8.2C264.5,187,265,185.6,266.3,185z"/>
	<path class="st3" d="M186.9,129.9l8.2-3.5c1.2-0.6,2.7,0.1,3.2,1.3l3.5,8.2c0.6,1.2-0.1,2.7-1.3,3.2l-8.2,3.5
		c-1.2,0.6-2.7-0.1-3.2-1.3l-3.5-8.2C185,131.9,185.6,130.5,186.9,129.9z"/>
	<path class="st3" d="M-0.1,211.3l1.6,8.7c0.2,1.3,1.5,2.2,2.8,1.9l8.7-1.6c1.3-0.2,2.2-1.5,1.9-2.8l-1.6-8.7
		c-0.2-1.3-1.5-2.2-2.8-1.9l-8.7,1.6C0.5,208.7-0.3,210-0.1,211.3z"/>
	<path class="st4" d="M74.5,147.3l-4.9,7.4c-0.7,1.1-2.3,1.5-3.4,0.6l-7.4-4.9c-1.1-0.7-1.5-2.3-0.6-3.4l4.9-7.4
		c0.7-1.1,2.3-1.5,3.4-0.6l7.4,4.9C74.9,144.6,75.2,146.1,74.5,147.3z"/>
	<path class="st4" d="M181.5,95.4l-4.9,7.4c-0.7,1.1-2.3,1.5-3.4,0.6l-7.4-4.9c-1.1-0.7-1.5-2.3-0.6-3.4l4.9-7.4
		c0.7-1.1,2.3-1.5,3.4-0.6l7.4,4.9C181.9,92.7,182.2,94.2,181.5,95.4z"/>
	<path class="st4" d="M180.1,161.6l-4.9,7.4c-0.7,1.1-2.3,1.5-3.4,0.6l-7.4-4.9c-1.1-0.7-1.5-2.3-0.6-3.4l4.9-7.4
		c0.7-1.1,2.3-1.5,3.4-0.6l7.4,4.9C180.5,158.9,180.8,160.4,180.1,161.6z"/>
	<path class="st5" d="M26.8,244.7l8.4,3c1.3,0.5,1.9,1.9,1.5,3.1l-3,8.4c-0.5,1.3-1.9,1.9-3.1,1.5l-8.4-3c-1.3-0.5-1.9-1.9-1.5-3.1
		l3-8.4C24.1,244.9,25.6,244.2,26.8,244.7z"/>
	<path class="st3" d="M368.7,190l8.4,3c1.3,0.5,1.9,1.9,1.5,3.1l-3,8.4c-0.5,1.3-1.9,1.9-3.1,1.5l-8.4-3c-1.3-0.5-1.9-1.9-1.5-3.1
		l3-8.4C366,190.3,367.4,189.5,368.7,190z"/>
	<path class="st3" d="M259.2,47l8.4,3c1.3,0.5,1.9,1.9,1.5,3.1l-3,8.4c-0.5,1.3-1.9,1.9-3.1,1.5l-8.4-3c-1.3-0.5-1.9-1.9-1.5-3.1
		l3-8.4C256.5,47.2,258,46.5,259.2,47z"/>
	<path class="st3" d="M120.6,89.3l-8.4,3c-1.3,0.5-1.9,1.9-1.5,3.1l3,8.4c0.5,1.3,1.9,1.9,3.1,1.5l8.3-3c1.3-0.5,1.9-1.9,1.5-3.1
		l-3-8.4C123.2,89.5,121.8,88.8,120.6,89.3z"/>
	<path class="st5" d="M213,209.8l-7.1,5.3c-1.1,0.8-2.6,0.6-3.4-0.5l-5.3-7.1c-0.8-1.1-0.6-2.6,0.5-3.4l7.1-5.3
		c1.1-0.8,2.6-0.6,3.4,0.5l5.3,7.1C214.2,207.4,214,209,213,209.8z"/>
	<path class="st3" d="M369.5,131.5l-8.9-0.3c-1.4-0.1-2.4-1.1-2.3-2.5l0.3-8.9c0.1-1.4,1.1-2.4,2.5-2.3l8.9,0.3
		c1.4,0.1,2.4,1.1,2.3,2.5l-0.3,8.9C371.9,130.5,370.7,131.5,369.5,131.5z"/>
	<path class="st5" d="M327.8,136.3l4.7,7.6c0.7,1.1,0.3,2.7-0.8,3.3l-7.6,4.7c-1.1,0.7-2.7,0.3-3.3-0.8l-4.7-7.6
		c-0.7-1.1-0.3-2.7,0.8-3.3l7.6-4.7C325.6,134.8,327.1,135.1,327.8,136.3z"/>
	<path class="st5" d="M249.1,77.2l4.7,7.6c0.7,1.1,0.3,2.7-0.8,3.3l-7.6,4.7c-1.1,0.7-2.7,0.3-3.3-0.8l-4.7-7.6
		c-0.7-1.1-0.3-2.7,0.8-3.3l7.6-4.7C246.9,75.7,248.4,76,249.1,77.2z"/>
	<path class="st0" d="M50.7,205.5L68.5,195"/>
	<path class="st0" d="M225.2,166.4l17.8-10.5"/>
	<path class="st0" d="M154.6,211.8l-17.8-10.5"/>
	<path class="st0" d="M83.8,82.1l-15.2-14"/>
	<path class="st2" d="M119,161.3l6.7-19.6"/>
	<path class="st2" d="M328.6,45.5l18-10.2"/>
	<path class="st1" d="M184.9,5.8l12.6,16.4"/>
</g>
<path class="st6" d="M307.8,252.6c-1.5-2.8-0.5-6.4,2.4-7.9l8.5-4.6c2.8-1.5,6.4-0.5,7.9,2.4c1.5,2.8,0.5,6.4-2.4,7.9l-8.5,4.6
	C312.9,256.5,309.3,255.4,307.8,252.6z"/>
<path class="st7" d="M314.8,248.3l-54.8,83"/>
<path class="st6" d="M75,252.6c1.5-2.8,0.5-6.4-2.4-7.9l-8.5-4.6c-2.8-1.5-6.4-0.5-7.9,2.4c-1.5,2.8-0.5,6.4,2.4,7.9l8.5,4.6
	C70,256.5,73.5,255.4,75,252.6z"/>
<path class="st7" d="M68,248.3l54.8,83"/>
<path class="st8" d="M269.8,395.6H113.6V248.1c0-9,7.3-16.3,16.3-16.3h123.6c9,0,16.3,7.3,16.3,16.3V395.6z"/>
<path class="st6" d="M158.6,326.4c-5.2,0-9.5-4.2-9.5-9.5v-16.6c0-5.2,4.2-9.5,9.5-9.5c5.2,0,9.5,4.2,9.5,9.5v16.6
	C168.1,322.1,163.8,326.4,158.6,326.4z"/>
<path class="st6" d="M224.1,326.4c-5.2,0-9.5-4.2-9.5-9.5v-16.6c0-5.2,4.2-9.5,9.5-9.5c5.2,0,9.5,4.2,9.5,9.5v16.6
	C233.6,322.1,229.3,326.4,224.1,326.4z"/>
<path class="st6" d="M191.8,347.7c-7,0-12.6-5.6-12.6-12.6v-2.9h25.3v2.9C204.5,342,198.8,347.7,191.8,347.7z"/>
<path class="st9" d="M17,487.2l47.5-71.3v99.9c0,5.5,4.5,10,10,10h234c5.5,0,10-4.5,10-10V414.5l48.5,72.7l11-7.4l-60.5-90.4
	c-1.6-3.3-5-5.6-9-5.6h-234c-4.8,0-8.8,3.4-9.8,7.9L5.9,479.8L17,487.2z"/>
<path class="st8" d="M165,400.8h52c5.8,0,10.5,4.7,10.5,10.5l0,0c0,5.8-4.7,10.5-10.5,10.5h-52c-5.8,0-10.5-4.7-10.5-10.5l0,0
	C154.5,405.5,159.2,400.8,165,400.8z"/>
<path class="st4" d="M313.5,217.4l-4.9,7.4c-0.7,1.1-2.3,1.5-3.4,0.6l-7.4-4.9c-1.1-0.7-1.5-2.3-0.6-3.4l4.9-7.4
	c0.7-1.1,2.3-1.5,3.4-0.6l7.4,4.9C313.9,214.7,314.2,216.2,313.5,217.4z"/>
</svg>
