<?xml version="1.0" encoding="utf-8"?>
<!-- Generator: Adobe Illustrator 17.0.1, SVG Export Plug-In . SVG Version: 6.00 Build 0)  -->
<!DOCTYPE svg PUBLIC "-//W3C//DTD SVG 1.1//EN" "http://www.w3.org/Graphics/SVG/1.1/DTD/svg11.dtd">
<svg version="1.1" id="Layer_1" xmlns="http://www.w3.org/2000/svg" xmlns:xlink="http://www.w3.org/1999/xlink" x="0px" y="0px"
	 width="513px" height="513px" viewBox="0 0 513 513" enable-background="new 0 0 513 513" xml:space="preserve">
<g>
	<g>
		<g>
			<g>
				<path fill="#F9F6F3" d="M121.386,274.046L20.041,221.262L55.7,204.011c12.67-6.135,24.734-9.751,36.254-10.906
					c11.502-1.152,21.758,0.495,30.817,4.967c4.753,2.346,7.876,4.997,9.366,7.953c1.49,2.967,0.852,6.1-1.949,9.398
					c7.232-2.285,14.277-3.128,21.137-2.513c6.862,0.609,12.977,2.228,18.332,4.868c10.064,4.952,14.465,10.397,13.127,16.354
					c-1.341,6.001-8.199,12.237-20.641,18.705L121.386,274.046z M101.261,238.664l25.775,13.191l16.454-8.444
					c5.044-2.591,7.811-5.042,8.304-7.339c0.489-2.294-1.347-4.479-5.496-6.557c-4.463-2.235-8.905-3.379-13.331-3.42
					c-4.422-0.043-9.061,1.159-13.921,3.6L101.261,238.664z M85.678,230.689l11.886-5.924c5.296-2.733,8.285-5.257,8.99-7.562
					c0.697-2.302-0.838-4.393-4.597-6.277c-4.245-2.137-8.677-3.015-13.307-2.661c-4.633,0.352-9.754,1.905-15.38,4.656
					l-11.389,5.591L85.678,230.689z"/>
			</g>
			<g>
				<path fill="#F9F6F3" d="M196.384,195.34l39.689,19.032l-22.737,11.833l-101.359-49.428l37.405-18.094
					c11.078-5.359,22.4-8.347,34.062-8.995c11.638-0.649,22.055,1.155,31.292,5.436c5.174,2.387,8.359,5.088,9.54,8.087
					c1.184,3.014,0.468,6.319-2.178,9.945c7.555-2.082,14.627-2.8,21.266-2.149c6.636,0.654,13.06,2.407,19.272,5.283l6.536,3.014
					c2.701,1.247,6.15,2.494,10.352,3.73c4.206,1.229,7.958,1.73,11.232,1.487l1.432,0.669l-22.373,11.631
					c-3.212,0.201-6.987-0.444-11.309-1.94c-4.303-1.49-8.054-2.975-11.237-4.469l-6.246-2.935c-4.904-2.301-9.832-3.449-14.8-3.449
					c-4.971-0.009-9.776,1.167-14.42,3.516L196.384,195.34z M178.261,186.646l14.765-7.376c4.469-2.227,6.807-4.432,7.019-6.625
					c0.216-2.173-1.676-4.199-5.666-6.072c-4.066-1.915-8.543-2.856-13.437-2.836c-4.898,0.023-9.554,1.116-13.99,3.285
					l-14.634,7.176L178.261,186.646z"/>
			</g>
			<g>
				<path fill="#F9F6F3" d="M324.35,168.446l-21.123,10.992l-101.152-46.245l21.195-10.26L324.35,168.446z"/>
			</g>
			<g>
				<path fill="#F9F6F3" d="M371.611,109.774l0.54,0.119c11.574,5.273,17.825,10.691,18.69,16.264
					c0.865,5.624-3.991,11.212-14.671,16.773c-10.813,5.631-23.627,8.498-38.403,8.559c-14.766,0.064-28.384-2.688-40.778-8.215
					l-21.085-9.401c-12.078-5.387-18.511-11.383-19.358-17.966c-0.842-6.52,4.006-12.304,14.473-17.368
					c11.026-5.33,22.493-8.031,34.476-8.172c11.978-0.139,24.115,2.069,36.495,6.635l0.293,0.235l-19.392,9.62
					c-6.755-2.647-12.8-4.09-18.172-4.333c-5.364-0.243-10.759,0.965-16.193,3.626c-4.62,2.26-6.18,4.958-4.654,8.101
					c1.528,3.158,5.721,6.243,12.586,9.257l21.211,9.315c7.034,3.095,14.203,4.867,21.483,5.296
					c7.281,0.432,13.439-0.649,18.48-3.237c4.865-2.493,6.77-4.921,5.721-7.275c-1.029-2.356-4.736-5.022-11.098-8.02
					L371.611,109.774z"/>
			</g>
			<g>
				<path fill="#F9F6F3" d="M405.466,87.958l-8.866,4.477l41.096,17.047l-19.428,10.103L317.667,77.268l19.555-9.467l38.548,15.991
					l6.554-3.257L361.89,55.872l23.361-11.31l19.49,30.347l82.761,8.655l-22.705,11.818L405.466,87.958z"/>
			</g>
		</g>
	</g>
	<g>
		<g>
			<g>
				<path fill="#F9F6F3" d="M207.743,419.763l-4.293,2.469v-80.261l-75.842,41.67v82.19l-4.515,2.602V295.999l4.515-2.357v83.614
					l75.842-41.526v-81.645l4.293-2.234V419.763z"/>
			</g>
			<g>
				<path fill="#F9F6F3" d="M299.117,318.521l-54.172,30.288l-12.697,56.871l-4.622,2.656l42.087-188.818l5.03-2.617l40.914,140.826
					l-4.376,2.511L299.117,318.521z M246.495,341.786l51.126-28.481l-23.026-79.164l-2.136-8.483l-0.455,0.235l-2.054,10.693
					L246.495,341.786z"/>
			</g>
			<g>
				<path fill="#F9F6F3" d="M401.663,260.01l0.132,0.571c0.182,16.056-2.967,30.215-9.502,42.502
					c-6.563,12.349-15.242,21.635-26.095,27.876c-11.458,6.603-20.69,5.436-27.681-3.559c-7.021-9.049-10.545-24.195-10.545-45.421
					v-24.182c0-21.153,3.525-40.138,10.545-56.914c6.991-16.699,16.223-28.024,27.681-33.985
					c10.853-5.652,19.531-5.862,26.095-0.673c6.536,5.167,9.685,15.757,9.502,31.802l-0.132,0.728l-3.225,1.73
					c0-14.231-2.862-23.692-8.608-28.403c-5.77-4.725-13.636-4.499-23.632,0.723c-10.209,5.339-18.464,15.575-24.762,30.731
					c-6.332,15.227-9.497,32.536-9.497,51.88v24.378c0,19.568,3.165,33.5,9.497,41.748c6.298,8.217,14.553,9.362,24.762,3.512
					c9.996-5.738,17.862-13.989,23.632-24.751c5.746-10.717,8.608-23.544,8.608-38.497L401.663,260.01z"/>
			</g>
			<g>
				<path fill="#F9F6F3" d="M442.485,207.846l-12.497,6.855v77.288l-3.711,2.135V137.853l3.711-1.93v73.103l13.526-7.391
					l40.081-93.674l4.232-2.205l0.125,0.461l-41.39,97.377l46.395,51.567l-0.197,0.74l-4.15,2.385L442.485,207.846z"/>
			</g>
		</g>
	</g>
	<g>
		
			<rect x="14.259" y="435.515" transform="matrix(0.8767 0.481 -0.481 0.8767 219.6736 18.9544)" fill="#F9F6F3" width="117.197" height="5.067"/>
	</g>
	<g>
		<rect x="20.204" y="221.211" fill="#F9F6F3" width="10.638" height="190.873"/>
	</g>
</g>
<rect x="58.644" y="-169.468" fill="#F58626" stroke="#FFFFFF" stroke-miterlimit="10" width="68.493" height="60.274"/>
<rect x="58.644" y="-90.016" fill="#3A4859" stroke="#FFFFFF" stroke-miterlimit="10" width="68.493" height="60.273"/>
<text transform="matrix(1 0 0 1 75.082 -96.8652)" font-family="'ArialMT'" font-size="12">f58629</text>
<text transform="matrix(1 0 0 1 75.082 -10.564)" font-family="'ArialMT'" font-size="12">394859</text>
<text transform="matrix(1 0 0 1 58.644 -228)" font-family="'ArialMT'" font-size="24">Final Brick Hack Logo</text>
<text transform="matrix(1 0 0 1 58.644 -181.0635)" font-family="'ArialMT'" font-size="18">Colors:</text>
<text transform="matrix(1 0 0 1 200.644 -181.0635)" font-family="'ArialMT'" font-size="18">Type:</text>
<text transform="matrix(1 0 0 1 199.644 -109.1938)" font-family="'ArialMT'" font-size="18">HACK</text>
<text transform="matrix(1 0 0 1 199.2363 -131.6621)" font-family="'ArialMT'" font-size="18">BRICK</text>
<text transform="matrix(1 0 0 1 200.6665 -159.9995)" font-family="'ArialMT'" font-size="14">Roboto Light &amp; Black</text>
</svg>
