<?xml version="1.0" encoding="utf-8"?>
<!-- Generator: Adobe Illustrator 25.0.1, SVG Export Plug-In . SVG Version: 6.00 Build 0)  -->
<svg version="1.1" id="Layer_1" xmlns="http://www.w3.org/2000/svg" xmlns:xlink="http://www.w3.org/1999/xlink" x="0px" y="0px"
	 viewBox="0 0 365.8 242.6" style="enable-background:new 0 0 365.8 242.6;" xml:space="preserve">
<style type="text/css">
	.st0{fill:#1E1A1B;}
	.st1{fill:url(#SVGID_1_);}
	.st2{fill:#FFFFFF;}
</style>
<g>
	<path class="st0" d="M111.8,221c0.7,0.2,1.4,0.5,2.1,0.7c1.7,0.7,3.3,1.6,4.7,2.8c4.4,4,3.6,11.2-1.3,14.3c-2.4,1.5-5,2.1-7.8,2.4
		c-1.1,0.1-2.4,0.2-3.5,0.2c-6.3,0-12.7,0-19,0c-1.2,0-1.2,0.2-1.3-1.2c0-0.6,0.3-0.7,0.7-0.8c1.1-0.2,2.4-0.4,3.5-0.6
		c1.3-0.3,1.4-0.4,1.4-1.7c0-3.9,0-7.9,0-11.7c0-6.1,0-12.2,0-18.3c0-1.8,0-1.8-1.8-2.2c-1-0.2-2-0.4-3.1-0.6
		c-0.7-0.2-0.8-0.3-0.8-1.4c0-0.8,0.5-0.7,1-0.7c6.6,0,13.3,0,19.8,0c2.7,0,5.2,0.5,7.6,1.6c2.9,1.4,4.9,3.4,5.4,6.5
		c0.5,2.7-0.3,4.9-2.1,7c-1.3,1.5-3,2.4-4.8,3.1C112.3,220.7,112,220.7,111.8,221z M98.3,230.6c0,2.4,0,4.9,0,7.3
		c0,0.7,0.2,1.1,0.9,1.2c3,0.4,5.8,0.6,8.8,0c2.7-0.6,4.8-1.9,5.6-4.6c1.7-5.3-0.2-9.4-5.6-11.3c-0.4-0.1-0.8-0.2-1.2-0.3
		c-2.5-0.6-4.9-0.5-7.4-0.5c-1.1,0-1.1,0-1.1,1.1C98.3,225.8,98.3,228.1,98.3,230.6z M98.3,212.5c0,2.2,0,4.6,0,6.8
		c0,0.7,0.2,1,0.9,0.9c1.5-0.1,3.1,0,4.6-0.1c1.5-0.1,3.1-0.3,4.5-0.8c2.1-0.8,3.7-2.2,4.4-4.4c0.4-1.5,0.5-2.9,0.3-4.5
		c-0.4-2.8-2-4.8-5-5.6c-2.9-0.8-5.7-0.7-8.6-0.3c-0.8,0.1-1,0.5-1,1.3C98.4,208.1,98.3,210.3,98.3,212.5z"/>
	<path class="st0" d="M240.6,237.5c-0.4,0.1-0.5,0.5-0.8,0.8c-5,5.4-15.1,5.1-19.4-1.6c-1.3-2.1-2.1-4.4-2.5-6.8
		c-0.7-5.1,0.1-9.9,3.9-13.9c3.7-4,8.5-5.6,14-4.7c1.8,0.3,3.4,1.2,4.7,2.3c0.4-0.3,0.2-0.7,0.2-1c0-3.3,0-6.6,0-9.9
		c0-1.6-0.2-1.9-1.8-2.4c-1-0.3-1.9-0.6-3-0.8c-0.4-0.1-0.5-0.4-0.5-0.8s0.1-0.6,0.5-0.7c3.4-0.5,6.6-1.2,10-1.4
		c1.2-0.1,1.2,0,1.1,1.1c-0.3,2.9-0.3,5.8-0.3,8.8c0,10,0,19.9,0,29.9c0,0.3,0,0.6,0,0.9c0,1.1,0.1,1.2,1.2,1.5
		c0.8,0.2,1.7,0.4,2.6,0.5c0.6,0.1,0.7,0.4,0.8,1c0,0.6-0.4,0.7-0.8,0.7c-3,0.4-5.9,0.9-8.9,1.3c-0.7,0.1-1,0-0.9-0.8
		c0.1-1.1,0-2.2,0-3.4C240.8,237.9,240.9,237.7,240.6,237.5z M240.8,225.4c0-3,0-6,0-9.1c0-0.5,0.1-1-0.6-1.3
		c-2.6-1.2-5.2-1.6-8-1.1c-3.6,0.8-5.7,3.2-7.1,6.4c-1.2,3-1.2,6.1-0.7,9.2c0.2,1.6,0.7,3.1,1.6,4.5c2.9,4.6,9.7,5.6,13.9,2.1
		c0.5-0.5,0.8-1,0.8-1.6C240.7,231.4,240.8,228.4,240.8,225.4z"/>
	<path class="st0" d="M191,211.1c0,1,0,1.8,0,2.8c0,0.9-0.1,1.8,0.1,2.8c0.6-0.1,0.7-0.6,0.9-1c1.8-2.4,4.1-4.1,7.3-4.6
		c2.5-0.4,4.8-0.2,7.1,0.8c3,1.4,4.6,3.7,5.1,6.7c0.2,1.1,0.3,2.1,0.3,3.2c0,5.1,0,10.3,0,15.3c0,1.5,0.1,1.6,1.6,2
		c0.7,0.2,1.4,0.4,2.1,0.5c0.8,0.1,0.7,0.6,0.7,1.1c0,0.7-0.5,0.6-0.9,0.6c-4.5,0-8.9,0-13.4,0c-0.4,0-0.8,0.1-0.8-0.5
		c0-0.5-0.2-1.1,0.6-1.2c0.9-0.2,1.9-0.5,2.9-0.6c0.8-0.1,1.1-0.5,1.1-1.4c0-5.4-0.1-10.8-0.1-16.2c0-1.1-0.2-2-0.6-3
		c-0.8-2.2-2.4-3.5-4.8-3.8c-2.9-0.4-5.4,0.3-7.6,2.3c-1.2,1.2-1.9,2.4-1.8,4.2c0.1,5.3,0,10.6,0,15.9c0,1.6,0.1,1.6,1.7,2
		c0.7,0.2,1.5,0.4,2.2,0.5c0.6,0.2,0.4,0.7,0.4,1.1s-0.2,0.6-0.6,0.6c-4.7,0-9.5,0.1-14.2-0.1c0,0-0.1,0-0.1-0.1
		c-0.2-1.4-0.2-1.4,1.1-1.6c0.7-0.2,1.3-0.3,2-0.5c1.2-0.4,1.3-0.5,1.3-1.7c0-6.1,0-12.2,0-18.3c0-0.6,0-1.2,0-1.6
		c0-1-0.4-1.6-1.3-2c-0.8-0.4-1.7-0.7-2.6-1.1c-0.5-0.2-0.8-0.5-0.7-1.1c0-0.6,0.4-0.7,0.9-0.8c2.5-0.5,5-1.1,7.5-1.5
		C189.5,210.9,190.2,210.9,191,211.1z"/>
	<path class="st0" d="M88.1,160.7c0.6-0.2,0.7-0.7,1-1.1c3.4-4.6,8.6-5.6,13.5-4.1c3.6,1.2,5.3,3.8,5.9,7.2c0.2,1,0.2,2,0.2,3.1
		c0,5.1,0,10.3,0,15.3c0,1.5,0.1,1.6,1.5,1.9c0.7,0.2,1.4,0.4,2.1,0.5c0.9,0.1,0.8,0.6,0.8,1.2c0,0.5-0.2,0.6-0.6,0.6
		c-1,0-2,0-3.1,0c-3.5,0-6.9,0-10.4,0c-0.4,0-0.9,0.2-1-0.5c0-0.6-0.1-1.1,0.8-1.2s1.7-0.4,2.6-0.6c1.2-0.3,1.2-0.4,1.2-1.6
		c0-3.5,0-6.9,0-10.4c0-1.9,0-3.9-0.1-5.8c0-1.1-0.3-2.1-0.7-3.1c-0.9-2.2-2.7-3.4-5.1-3.6c-3.7-0.3-6.4,1.1-8.5,4.1
		c-0.3,0.5-0.5,1-0.5,1.6c0,5.7,0,11.5,0,17.2c0,1.2,0.2,1.4,1.3,1.6c0.8,0.2,1.6,0.5,2.5,0.6c0.8,0.1,0.7,0.6,0.7,1.1
		c0,0.7-0.4,0.6-0.9,0.6c-4.4,0-8.8,0-13.3,0c-0.4,0-0.9,0.2-0.9-0.5c0-0.6-0.1-1.1,0.8-1.2c0.8-0.1,1.6-0.3,2.5-0.6
		c1.2-0.3,1.4-0.6,1.4-1.7c0-3.2,0-6.4,0-9.6c0-3.3,0-6.6,0-9.9c0-1.4-0.5-2.2-1.8-2.7c-0.7-0.3-1.3-0.6-2-0.8
		c-0.5-0.2-0.8-0.5-0.7-1c0-0.6,0.4-0.7,0.8-0.8c2.5-0.5,5-1,7.5-1.6c0.1,0,0.2,0,0.3,0c2-0.2,1.9-0.2,2,1.7
		C88,158,87.9,159.3,88.1,160.7z"/>
	<path class="st0" d="M340.6,160.7c0.3-0.5,0.6-0.9,1-1.4c3.7-4.9,9.4-5.3,13.9-3.6c3.1,1.2,4.7,3.6,5.3,6.6c0.2,1,0.3,2,0.3,3
		c0,5.2,0,10.4,0,15.6c0,1.6,0.1,1.6,1.7,2c0.7,0.2,1.4,0.4,2.1,0.5c0.8,0.1,0.6,0.7,0.6,1.2c0,0.6-0.4,0.5-0.8,0.5
		c-4.5,0-8.9,0-13.4,0c-0.4,0-0.9,0.1-0.9-0.6c0-0.5-0.1-1,0.7-1.1c0.8-0.1,1.6-0.3,2.5-0.5c1.4-0.3,1.5-0.4,1.5-1.7
		c0-2.6,0-5.3,0-8c0-2.7,0.1-5.5-0.1-8.2c0-0.2,0-0.5-0.1-0.7c-0.6-4.8-4.5-7-9.4-5.4c-1.4,0.5-2.8,1.3-3.8,2.3
		c-1,1.1-1.5,2.1-1.5,3.7c0.1,5.3,0,10.7,0,16.1c0,1.6,0.1,1.7,1.7,2.1c0.7,0.2,1.3,0.4,2,0.5c0.8,0.1,0.8,0.6,0.8,1.2
		c0,0.3-0.2,0.5-0.5,0.5c-0.1,0-0.3,0-0.4,0c-4.4,0-8.8,0-13.3,0c-0.9,0-1-0.2-0.9-1c0-0.4,0.2-0.6,0.6-0.7c0.9-0.2,1.8-0.4,2.8-0.6
		c1.1-0.3,1.3-0.5,1.3-1.6c0-6.7,0-13.3,0-20c0-1.1-0.4-1.7-1.4-2.2c-0.8-0.4-1.6-0.7-2.5-1c-0.5-0.2-0.7-0.5-0.7-1.1
		s0.5-0.6,0.9-0.7c2.5-0.5,5-1.1,7.5-1.6c0.1,0,0.2,0,0.3,0c1.9-0.2,1.9-0.2,1.9,1.6c0,1.4,0,2.7,0,4.2
		C340.4,160.7,340.5,160.7,340.6,160.7z"/>
	<path class="st0" d="M37.8,172c-0.7,3.7-1.4,7.2-2.1,10.7c-0.1,0.8-0.5,1.1-1.2,1.4c-2.7,1-5.5,1.5-8.3,1.7
		c-4.2,0.4-8.5,0.3-12.5-1.1c-7.4-2.5-11.6-7.7-13.2-14.8c-0.9-4.4-0.5-8.6,1.4-12.7c3.1-6.3,8.4-10,15.4-11.4
		c5.4-1.1,10.7-0.8,15.9,1c0.6,0.2,1.1,0.2,1.4-0.4c0.1-0.2,0.3-0.5,0.5-0.7c0.4-0.3,0.8-0.2,1.2-0.2c0.5,0.1,0.3,0.5,0.3,0.8
		c0.2,3.9,0.5,7.8,0.7,11.5c0,0.4,0.4,1-0.4,1.1c-1,0.1-1.2,0-1.5-1c-0.5-2-1.1-4.2-1.9-6.1c-0.6-1.4-1.5-2.4-2.9-3
		c-5.1-2.3-10.2-2.4-15.2,0.1c-3,1.5-4.9,4-6,7c-2.5,6.4-2.4,12.8,0.3,19.2c0.6,1.5,1.5,2.8,2.6,4.1c3.7,4.2,8.4,5.2,13.8,4
		c4.7-1.1,5.8-2,7.8-6.2c0.6-1.4,1.1-2.6,1.6-4.1c0.3-1.1,0.4-1.1,1.5-1.1C37.3,171.9,37.5,171.9,37.8,172z"/>
	<path class="st0" d="M179.5,239.1c0.3,1.3,0.1,1.3-0.9,1.7c-1.7,0.8-3.6,1.3-5.5,1.3c-2.5-0.1-3.8-1.1-4.4-3.3
		c-0.1-0.4-0.2-0.8-0.3-1.2c-0.5,0-0.6,0.5-0.8,0.7c-3.5,4-9,4.6-13,3.2c-2.6-0.9-4.1-2.6-4.6-5.1c-0.5-2.7,0.2-5,2.7-6.8
		c1.6-1.2,3.5-1.9,5.3-2.5c3-1,6.1-1.6,9.2-2.4c1.3-0.4,1.3-0.4,1.3-1.6c0-1.2,0-2.4-0.2-3.6c-0.5-3.1-2.1-4.8-5.4-5.2
		c-2.4-0.3-4.6,0-6.6,1.1c0.2,0.7,0.6,1.1,0.9,1.6c0.6,1.2,0.9,2.3,0.4,3.6c-0.5,1.5-1.9,2.3-3.6,2.1c-1.6-0.2-2.7-1.3-2.9-2.8
		c-0.2-1.5,0.3-2.7,1.3-3.7c4.5-3.9,9.5-6,15.7-4.4c3.5,0.9,5.4,3.1,5.9,6.4c0.1,1,0.2,1.8,0.2,2.8c0,4.8,0,9.5,0,14.3
		c0,0.9,0.1,1.7,0.2,2.6c0.1,0.7,0.5,1,1.1,1.1c1.1,0.2,2.2,0.3,3.4,0.3C179.1,239,179.3,239.1,179.5,239.1z M168.2,226.2
		c-3.2,1-6.1,1.6-9,2.7c-0.9,0.4-1.7,0.9-2.4,1.6c-1.5,1.6-1.7,3.3-1.1,5.1c0.6,1.7,1.9,2.5,3.8,2.8c3.4,0.5,6-0.7,8.3-2.9
		c0.3-0.3,0.4-0.6,0.4-1C168.2,231.9,168.2,229.2,168.2,226.2z"/>
	<path class="st0" d="M246.8,181.3c-0.5,0.2-0.6,0.6-0.9,0.8c-3.4,3.9-8.9,4.5-12.9,3.2c-2.7-0.9-4.2-2.6-4.7-5.2
		c-0.5-2.7,0.3-5,2.7-6.8c1.6-1.2,3.6-1.9,5.5-2.6c3-1,6.1-1.6,9.2-2.4c1.1-0.3,1.1-0.3,1.1-1.4c0-1.2,0.1-2.4-0.1-3.6
		c-0.5-3.5-2.5-5.2-6-5.5c-2-0.2-4.1,0.2-6,1.2c0.1,0.7,0.6,1.1,0.9,1.6c0.7,1.2,0.9,2.3,0.5,3.6c-0.5,1.6-2,2.4-3.7,2.2
		c-1.6-0.2-2.7-1.3-2.9-2.9c-0.1-1.5,0.3-2.7,1.4-3.7c4.5-3.9,9.6-5.9,15.7-4.3c3.4,0.9,5.3,3,5.8,6.3c0.2,1,0.2,1.9,0.2,2.9
		c0,4.7,0,9.3,0,14c0,1,0,1.9,0.2,2.9c0.1,0.6,0.4,0.9,1,1c1,0.2,2.1,0.3,3.2,0.3c0.3,0,0.7-0.1,0.8,0.3c0.1,0.5,0.2,1-0.4,1.3
		c-0.1,0-0.2,0.1-0.3,0.1c-1.8,0.9-3.8,1.5-5.9,1.4c-2.5-0.1-3.7-1.1-4.3-3.2C247,182.2,246.9,181.8,246.8,181.3z M246.8,170
		c-3.5,1.2-7.1,1.6-10,3.3c-0.5,0.3-0.9,0.7-1.3,1.1c-1.4,1.5-1.6,3.2-1.1,5c0.5,1.7,1.9,2.6,3.8,2.9c2.9,0.5,5.3-0.4,7.5-2.1
		c0.9-0.7,1.4-1.5,1.3-2.6c-0.1-0.9,0-1.8,0-2.8C246.8,173.3,246.8,171.8,246.8,170z"/>
	<path class="st0" d="M43.5,170.4c0-2.7,0.6-5.3,1.9-7.8c3.3-5.8,9.5-8.3,15.7-7.6c7.7,0.9,12.6,5.7,13.5,13
		c0.5,3.9-0.1,7.6-2.1,10.9c-2.8,4.5-6.9,6.8-12.5,7c-1.7,0.1-3.5,0-5.1-0.5c-6.3-1.6-10.6-6.5-11.2-12.8
		C43.5,171.9,43.5,171.2,43.5,170.4z M68.1,170.7c-0.1-1.1-0.1-2-0.2-3.1c-0.3-2.6-1.1-5.2-2.9-7.4c-3.3-4.2-9.3-4.1-12.5,0.2
		c-0.8,1.1-1.3,2.2-1.7,3.5c-1,3.6-1.1,7.2-0.4,10.8c0.4,2.1,1.2,4.1,2.5,5.9c3.6,4.9,10.2,4,12.9-0.5c0.5-0.9,0.9-1.7,1.2-2.7
		C67.9,175.2,68.1,173,68.1,170.7z"/>
	<path class="st0" d="M295.7,170.5c0-4.5,1.3-8.4,4.8-11.5c4.8-4.2,10.4-5,16.5-3.1c5.7,1.8,8.8,6,9.7,11.5
		c0.6,3.6,0.2,7.1-1.4,10.4c-2.7,5.2-7.2,8-13.3,8.2c-2,0.1-4-0.1-5.9-0.8c-5.6-1.7-8.7-5.6-9.9-11
		C295.8,173,295.7,171.7,295.7,170.5z M320.4,171.5c0.1-2.1-0.1-4.2-0.6-6.2c-0.5-2-1.3-3.9-2.8-5.5c-3.2-3.6-8.5-3.5-11.6,0
		c-0.9,1-1.5,2.1-1.9,3.4c-1.5,4.9-1.5,9.7,0.3,14.5c0.5,1.4,1.2,2.6,2.2,3.7c3.2,3.3,8.3,3.2,11.3-0.2c0.9-1.1,1.5-2.2,1.9-3.6
		C320,175.6,320.2,173.6,320.4,171.5z"/>
	<path class="st0" d="M179.1,168.1c-3-0.1-6-0.1-9-0.2c-1.1,0-1.1,0-1.1,1.1c0,1.6,0.2,3.4,0.6,4.9c1.3,5.1,5.4,8.1,11.1,7.8
		c2.9-0.1,5.2-1.2,7.2-3.1c0.1-0.1,0.2-0.2,0.3-0.3c0.2-0.2,0.4-0.6,0.8-0.3c0.3,0.2,0.3,0.5,0.1,0.9c-1.6,3-4,5.3-7.5,6.3
		c-7.3,2-14.6-0.5-17.4-8.1c-1.7-4.7-1.7-9.4,0.3-14c3.2-6.9,10.2-9.3,16.8-8c5.8,1.2,9,5.9,8.1,11.5c-0.3,1.7-0.3,1.6-2.1,1.6
		C184.5,168.3,179.1,168.2,179.1,168.1z M169.3,166c0.3,0,0.5,0.1,0.7,0.1c4-0.1,8.1-0.3,12.1-0.5c0.2,0,0.4,0,0.6,0
		c0.5,0,0.7-0.3,0.8-0.8c0.3-1.6,0.1-3.1-0.5-4.6c-0.8-2-2.5-3.1-4.7-3.2c-2.8-0.2-4.9,0.9-6.6,3C170.2,161.8,169.6,163.8,169.3,166
		z"/>
	<path class="st0" d="M135.1,156.5c0.2-0.4,0.4-0.6,0.5-0.9c0.2-0.7,0.7-0.8,1.3-0.8c0.5,0,0.7,0.2,0.7,0.7c0,0.4,0,0.8,0,1.2
		c0,2.3,0,4.7,0,7c0,0.4,0.1,0.9-0.6,0.9c-0.6,0-1.2,0.2-1.3-0.7c-0.2-1.4-0.7-2.6-1.3-3.8c-1.8-3.5-7.6-4.3-10.2-1.3
		c-2.4,2.6-1.3,6.9,2,8.2c2,0.8,4.2,1.6,6.3,2.3c1,0.4,2,0.9,3,1.5c5.4,3.6,4.1,10,0.2,12.8c-1.9,1.4-4.1,2.1-6.5,2.2
		c-3.2,0.2-6.2,0.1-9.2-1.4c-0.6-0.3-0.7,0.1-0.9,0.5c-0.5,0.9-0.8,1.1-1.6,1c-0.3,0-0.5-0.2-0.5-0.5c0-0.1,0-0.2,0-0.3
		c-0.1-3.1-0.2-6.2-0.3-9.3c0-0.4-0.2-0.9,0.5-0.9c0.5,0,1.2-0.2,1.4,0.6c0.4,1.6,1,3.1,1.8,4.6c1.4,2.5,4.1,4,7.2,3.7
		c0.2,0,0.5-0.1,0.7-0.1c4-0.5,5.9-3.7,4.3-7.2c-0.5-1.2-1.5-1.9-2.8-2.3c-1.8-0.7-3.7-1.4-5.5-2c-1.2-0.4-2.4-1-3.4-1.6
		c-4.7-3.2-5-9.4-0.5-13c2.9-2.2,6.2-2.9,9.9-2.5C132,155.1,133.6,155.7,135.1,156.5z"/>
	<path class="st0" d="M274.5,212.6c0.6-0.8,0.8-2.1,2.5-1.5c0.2,0.9,0.1,1.8,0.1,2.8c0,1.8,0,3.7,0,5.6c0,1.1,0,1.1-1.1,1.1
		c-0.2,0-0.4,0-0.6-0.1c-0.3-1.6-0.7-3.1-1.5-4.5c-1.4-2.6-5.4-3.9-8.4-2.4c-3.1,1.5-3.7,4.6-2.5,7.3c0.5,1.2,1.5,1.8,2.7,2.2
		c2,0.8,4.2,1.6,6.3,2.3c1.2,0.5,2.4,1,3.4,1.7c4.9,3.5,3.7,9.3,0.8,11.8c-2,1.8-4.5,2.8-7.3,3c-3.4,0.3-6.6,0-9.8-1.6
		c-0.6,0.9-0.8,2.2-2.6,1.5c-0.2-2-0.2-4.2-0.3-6.3c0-1.2-0.1-2.4-0.1-3.6c0-0.4-0.2-0.9,0.5-1c0.8-0.1,1.2,0,1.4,0.8
		c0.5,1.5,1.1,2.8,1.7,4.2c1.6,3.8,6.3,4.7,9.4,3.6c2-0.7,3.3-2,3.4-4.2c0.2-2.3-0.7-4.1-2.8-4.9c-1.8-0.8-3.8-1.5-5.7-2.1
		c-1.3-0.5-2.6-1.1-3.8-1.8c-5-3.4-4.4-10-0.2-13c4.1-2.9,8.6-3.1,13.2-1.5C273.6,212.1,274,212.4,274.5,212.6z"/>
	<path class="st0" d="M202,160.7c0,7.3,0,13.8,0,20.3c0,1.6,0.1,1.7,1.7,2.2c0.6,0.2,1.3,0.4,2,0.5c0.8,0.1,0.7,0.6,0.7,1.1
		c0,0.7-0.5,0.6-0.9,0.6c-4.4,0-8.8,0-13.3,0c-0.4,0-0.9,0.2-0.9-0.5c0-0.6-0.1-1.1,0.8-1.2c0.8-0.1,1.5-0.3,2.2-0.5
		c1.2-0.3,1.4-0.5,1.4-1.7c0-0.1,0-0.3,0-0.4c0-11,0-22,0-33c0-2.7-0.1-2.8-2.7-3.8c-0.4-0.1-0.7-0.3-1.1-0.4
		c-0.6-0.2-0.5-0.6-0.5-1c0-0.5,0.4-0.6,0.8-0.7c2.6-0.5,5.2-1,7.8-1.4c2.1-0.3,2.2-0.2,2,1.8C201.8,148.8,202,155.1,202,160.7z"/>
	<path class="st0" d="M221,160.4c0,7.7,0,14.1,0,20.6c0,1.6,0.1,1.7,1.6,2.1c0.7,0.2,1.4,0.4,2.1,0.5c0.8,0.1,0.6,0.7,0.6,1.2
		c0,0.6-0.4,0.5-0.8,0.5c-4.5,0-8.9,0-13.4,0c-0.4,0-0.8,0.1-0.8-0.5c0-0.5-0.3-1.1,0.6-1.2c0.8-0.1,1.6-0.4,2.5-0.6
		c1.3-0.4,1.4-0.5,1.4-1.8c0-4.6,0-9.1,0-13.7c0-6.5,0-13,0-19.6c0-0.5,0-1.1,0-1.6c0-0.8-0.4-1.4-1.1-1.6c-0.8-0.4-1.6-0.7-2.5-1
		c-0.5-0.2-0.8-0.4-0.8-1s0.4-0.6,0.9-0.7c2.6-0.5,5.1-0.9,7.7-1.4h0.1c2-0.3,2.1-0.2,2,1.7C220.8,148.8,221.2,155.1,221,160.4z"/>
	<path class="st0" d="M135.9,217.1c1.1-1.6,2.1-3.1,3.7-4.3c1.4-1.1,2.9-1.7,4.7-1.7c0.6,0,1.1,0.1,1.7,0.3c2.1,0.9,2.9,2.6,1.8,4.6
		c-0.3,0.7-0.8,1.2-1.3,1.6c-1.1,1-1.1,1-2-0.2c-0.7-0.9-1.6-1.3-2.9-1.2c-1.5,0.1-2.9,0.7-4.1,1.6c-1.1,0.8-1.8,1.7-1.7,3.3
		c0.1,5.3,0,10.7,0,16.1c0,1.5,0.1,1.6,1.6,1.9c1.5,0.3,3,0.6,4.5,0.7c0.7,0.1,0.7,0.5,0.7,1c0,0.6-0.4,0.7-0.8,0.7
		c-5.3,0-10.6,0-15.9,0c-0.4,0-0.8,0-0.8-0.6c0-0.5-0.1-1,0.6-1.1c0.9-0.2,1.8-0.4,2.8-0.6c1.2-0.3,1.2-0.4,1.2-1.6
		c0-6.7,0-13.4,0-20.1c0-1.1-0.5-1.7-1.4-2.2c-0.8-0.4-1.6-0.7-2.5-1c-0.6-0.2-0.6-0.6-0.6-1.1c0-0.6,0.4-0.6,0.8-0.7
		c2.5-0.5,5-1.1,7.5-1.6c2.2-0.4,2.4-0.3,2.4,1.9C135.9,214.3,135.9,215.7,135.9,217.1z"/>
	<path class="st0" d="M160.8,159.3c-2.6,0-5,0-7.5,0c-0.4,0-0.8,0-1.2,0c-0.5,0-0.7,0.2-0.7,0.7c0,0.3,0,0.6,0,0.9
		c0,5.1,0,10.2,0,15.3c0,1,0,1.8,0.2,2.8c0.3,1.9,1.3,2.9,3.4,3.4c2.4,0.5,4.5,0.1,6.4-1.3c0.3-0.2,0.5-0.7,0.9-0.2
		c0.4,0.4,0.2,0.8-0.1,1.1c-1.7,2.3-4.1,3.6-6.9,4c-1.6,0.2-3.3,0.2-4.8-0.3c-2.8-0.9-4.4-2.7-4.8-5.4c-0.1-0.9-0.2-1.6-0.2-2.5
		c0-5.5,0-11.1,0-16.6c0-0.3,0-0.7,0-1c0-0.5-0.2-0.7-0.7-0.7c-0.7,0-1.3,0-2,0c-0.6,0-0.8-0.1-0.8-0.8c0-1.3-0.1-1.4,1.2-1.7
		c2.1-0.6,3.6-1.8,4.2-3.9c0.4-1.4,1-2.7,1.6-4.1c0.3-0.9,1.3-1.3,2.1-0.9c0.4,0.2,0.3,0.6,0.3,0.9c0,1.9,0,3.8,0,5.7
		c0,0.3,0,0.6,0,0.9c0,1.1,0,1.1,1.1,1.1c2.4,0,4.8,0,7.2,0c1,0,1,0,1,1C160.8,158.1,160.8,158.6,160.8,159.3z"/>
	<path class="st0" d="M276.1,159.3c-2.7,0-5.2,0-7.8,0c-1.7,0-1.6-0.2-1.6,1.6c0,5,0,10.1,0,15c0,1,0,1.9,0.2,2.9
		c0.3,1.9,1.3,3,3.4,3.4c2.4,0.5,4.6,0.1,6.5-1.4c0.2-0.2,0.4-0.6,0.8-0.2c0.3,0.3,0.3,0.6,0,1c-0.2,0.2-0.3,0.5-0.5,0.7
		c-1.6,1.9-3.8,3.1-6.3,3.4c-1.6,0.2-3.3,0.2-4.8-0.3c-2.9-0.9-4.5-2.7-5-5.4c-0.1-0.9-0.2-1.6-0.2-2.5c0-5.5,0-11.1,0-16.6
		c0-0.3,0-0.7,0-1c0-0.5-0.2-0.7-0.7-0.7c-0.7,0-1.4,0-2.2,0c-0.6,0-0.7-0.2-0.7-0.8c0-1.4-0.1-1.4,1.2-1.7c2.1-0.6,3.6-1.8,4.2-3.9
		c0.5-1.5,1.1-2.9,1.7-4.3c0.2-0.6,1.7-1.1,2.2-0.6c0.3,0.2,0.2,0.6,0.2,1c0,2.1,0,4.2,0,6.3c0,1.3,0,1.3,1.2,1.3c2.4,0,4.8,0,7.2,0
		c0.7,0,1,0.2,0.9,0.9C276.1,158,276.1,158.6,276.1,159.3z"/>
	<path class="st0" d="M290.1,168.6c0,4.1,0,8.2,0,12.1c0,1.8,0,1.8,1.9,2.3c0.7,0.2,1.3,0.4,2,0.5c0.8,0.1,0.6,0.7,0.6,1.2
		c0,0.6-0.5,0.5-0.8,0.5c-4.5,0-8.9,0-13.4,0c-0.4,0-0.9,0.1-0.9-0.6c0-0.5-0.1-1,0.7-1.1c0.9-0.1,1.7-0.3,2.6-0.6
		c1.1-0.3,1.3-0.6,1.3-1.6c0-6.7,0-13.3,0-20c0-1.2-0.5-1.8-1.5-2.2c-0.8-0.3-1.6-0.7-2.5-1c-0.5-0.2-0.5-0.6-0.6-1
		c0-0.5,0.2-0.6,0.7-0.7c2.6-0.5,5.1-1.1,7.8-1.6c2.1-0.4,2.1-0.3,2.1,1.7C290.1,160.7,290.1,164.7,290.1,168.6z"/>
	<path class="st0" d="M283.4,144.6c0-2.1,1.7-4,3.9-4c2.1,0,3.9,1.8,3.8,4c0,2.1-1.7,3.9-3.8,3.9C285,148.5,283.3,146.8,283.4,144.6
		z"/>
	<g>
		
			<linearGradient id="SVGID_1_" gradientUnits="userSpaceOnUse" x1="121.0047" y1="184.4153" x2="244.2813" y2="184.4153" gradientTransform="matrix(1 0 0 -1 0 244.84)">
			<stop  offset="0" style="stop-color:#0174BD"/>
			<stop  offset="0.5152" style="stop-color:#00407E"/>
			<stop  offset="1" style="stop-color:#00225C"/>
		</linearGradient>
		<path class="st1" d="M242.6,1.8c-40,0-79.9,0.1-120,0.1c-1.9,0-1.6-0.2-1.6,1.6c0,31.2,0,62.4,0,93.6c0,0.4,0,0.8,0,1.2
			c2.7-4.7,5.5-9.1,8.7-13.3c3.3-4.2,6.7-8.2,10.6-11.8c3.9-3.7,8.1-6.9,12.5-10c2.5-1.7,12.1-7.9,13.9-8c0,0.5-0.5,0.7-0.8,0.9
			c-1.4,1.2-3,2.3-4.4,3.5c-15.9,13.7-26.7,30.2-31.6,50.2c-0.6,2.6-1.1,5.2-1.5,8c-0.2,1.4-0.2,1.4,1.3,1.4c1.5,0,3.2,0,4.7,0
			c1,0,1.1,0,1.2-1c0.6-4.8,1.7-9.5,3-14.2c0.6-2.3,1.4-4.7,2.4-6.9c2.7-6.7,5.9-13.1,9.9-19c1.4-2.2,3.1-4.3,4.6-6.4
			c1-1.5,2.4-2.6,3.6-3.9c2.7-2.9,5.5-5.7,8.6-8.3c1.5-1.3,3.1-2.7,4.7-3.8c4.2-3,8.5-5.9,13.1-8.3c2.4-1.2,4.7-2.5,7.1-3.6
			c2.4-1.1,4.9-2,7.4-2.9c0.6-0.4,1.2-0.8,1.9-0.7c-0.1,0.1-0.1,0.2-0.2,0.2c-0.4,0.3-0.8,0.5-1.2,0.8
			c-16.1,9.7-28.8,22.5-37.1,38.9c-6,11.7-9.1,24.3-9.8,37.3c-0.1,2.1-0.2,1.7,1.8,1.7c29.1,0,58.1,0,87.3,0c0.2,0,0.5,0,0.7,0
			c0.7,0.1,1.1-0.1,1-0.9c0-0.2,0-0.5,0-0.7c0-38,0-76,0-114C244.3,1.6,244.6,1.8,242.6,1.8z M225.1,35.6c1.7,2.9,3.5,5.8,5.2,8.7
			c0.1,0.4,0.4,0.8,0.5,1.3c-0.5,0.3-0.9-0.1-1.3-0.3c-3.5-1.6-7.1-3.1-10.5-4.7c-1.1-0.5-1.1-0.5-1.9,0.4c-2.9,3-5.8,6-8.9,9.3
			c-0.1-1.6,0.3-2.8,0.4-4.2c0.3-2.8,0.7-5.6,1.1-8.4c0.1-0.9-0.1-1.3-0.9-1.6c-1.8-0.7-3.8-1.5-5.6-2.1c-2.1-0.9-4.3-1.8-6.5-3.1
			c4.4-0.8,8.7-1.6,12.9-2.4c1.3-0.3,1.3-0.2,1.5-1.6c0.5-3.9,0.9-7.8,1.3-11.6c0-0.2,0-0.3,0.1-0.7c0.5,0.4,0.7,0.8,0.9,1.2
			c1.8,3.1,3.7,6.2,5.5,9.4c0.8,1.3,0.8,1.4,2.4,1c3.8-0.8,7.5-1.5,11.2-2.2c0.2,0,0.5-0.1,0.7-0.1c0.1,0.1,0.2,0.2,0.3,0.3
			c-2.7,2.8-5.4,5.5-8.1,8.3C223.7,34.2,223.8,33.4,225.1,35.6z"/>
		<path class="st0" d="M287.3,140.6c-2.1,0-3.9,1.8-3.9,4c0,2.2,1.6,3.9,3.9,3.9c2,0,3.8-1.7,3.8-3.9
			C291.1,142.4,289.3,140.6,287.3,140.6z"/>
	</g>
	<g>
		<path class="st2" d="M121,121.3V97.1c0,0.4,5.5-8,8.7-12.1c3.3-4.2,6.7-8.2,10.6-11.8c3.9-3.7,8.1-6.9,12.5-10
			c2.5-1.7,12.1-7.9,13.9-8c0,0.5-0.5,0.7-0.8,0.9c-1.4,1.2-3,2.3-4.4,3.5c-15.9,13.7-26.7,30.2-31.6,50.2c-0.6,2.6-1.1,5.2-1.5,8
			c-0.2,1.4-0.2,1.4,1.3,1.4s3.2,0,4.7,0c1,0,1.1,0,1.2-1c0.6-4.8,1.7-9.5,3-14.2c0.6-2.3,1.4-4.7,2.4-6.9c2.7-6.7,5.9-13.1,9.9-19
			c1.4-2.2,3.1-4.3,4.6-6.4c1-1.5,2.4-2.6,3.6-3.9c2.7-2.9,5.5-5.7,8.6-8.3c1.5-1.3,3.1-2.7,4.7-3.8c4.2-3,8.5-5.9,13.1-8.3
			c2.4-1.2,4.7-2.5,7.1-3.6c2.4-1.1,4.9-2,7.4-2.9c0.6-0.4,1.2-0.8,1.9-0.7c-0.1,0.1-0.1,0.2-0.2,0.2c-0.4,0.3-0.8,0.5-1.2,0.8
			c-16.1,9.7-28.8,22.5-37.1,38.9c-6,11.7-9.1,24.3-9.8,37.3l0,2.4 M225.1,35.6c1.7,2.9,3.5,5.8,5.2,8.7c0.1,0.4,0.4,0.8,0.5,1.3
			c-0.5,0.3-0.9-0.1-1.3-0.3c-3.5-1.6-7.1-3.1-10.5-4.7c-1.1-0.5-1.1-0.5-1.9,0.4c-2.9,3-5.8,6-8.9,9.3c-0.1-1.6,0.3-2.8,0.4-4.2
			c0.3-2.8,0.7-5.6,1.1-8.4c0.1-0.9-0.1-1.3-0.9-1.6c-1.8-0.7-3.8-1.5-5.6-2.1c-2.1-0.9-4.3-1.8-6.5-3.1c4.4-0.8,8.7-1.6,12.9-2.4
			c1.3-0.3,1.3-0.2,1.5-1.6c0.5-3.9,0.9-7.8,1.3-11.6c0-0.2,0-0.3,0.1-0.7c0.5,0.4,0.7,0.8,0.9,1.2c1.8,3.1,3.7,6.2,5.5,9.4
			c0.8,1.3,0.8,1.4,2.4,1c3.8-0.8,7.5-1.5,11.2-2.2c0.2,0,0.5-0.1,0.7-0.1c0.1,0.1,0.2,0.2,0.3,0.3c-2.7,2.8-5.4,5.5-8.1,8.3
			C223.7,34.2,223.8,33.4,225.1,35.6z"/>
	</g>
	<path class="st2" d="M168.1,54.2c-0.4,0.3-0.7,0.8-1.5,1C167,54.4,167.6,54.4,168.1,54.2z"/>
</g>
<path class="st2" d="M118.6,0v121.6h128.9V0H118.6z M244.4,118.7H121.7V2.9h122.6V118.7z"/>
</svg>
