<?xml version="1.0" encoding="utf-8"?>
<!-- Generator: Adobe Illustrator 25.0.1, SVG Export Plug-In . SVG Version: 6.00 Build 0)  -->
<svg version="1.1" id="Layer_1" xmlns="http://www.w3.org/2000/svg" xmlns:xlink="http://www.w3.org/1999/xlink" x="0px" y="0px"
	 viewBox="0 0 357.8 247.7" style="enable-background:new 0 0 357.8 247.7;" xml:space="preserve">
<style type="text/css">
	.st0{fill:#FFFFFF;}
</style>
<g>
	<path class="st0" d="M109.3,225.8c0.7,0.2,1.4,0.5,2.1,0.7c1.7,0.7,3.2,1.6,4.6,2.9c4.3,4.1,3.5,11.5-1.3,14.7
		c-2.3,1.5-4.9,2.2-7.6,2.5c-1.1,0.1-2.3,0.2-3.4,0.2c-6.2,0-12.4,0-18.6,0c-1.2,0-1.2,0.2-1.3-1.2c0-0.6,0.3-0.7,0.7-0.8
		c1.1-0.2,2.3-0.4,3.4-0.6c1.3-0.3,1.4-0.4,1.4-1.8c0-4,0-8.1,0-12.1c0-6.3,0-12.6,0-18.9c0-1.9,0-1.9-1.8-2.3c-1-0.2-2-0.4-3-0.6
		c-0.7-0.2-0.8-0.3-0.8-1.4c0-0.8,0.5-0.7,1-0.7c6.5,0,13,0,19.4,0c2.6,0,5.1,0.5,7.4,1.6c2.8,1.4,4.8,3.5,5.3,6.7
		c0.5,2.8-0.3,5.1-2.1,7.2c-1.3,1.5-2.9,2.5-4.7,3.2C109.8,225.4,109.5,225.4,109.3,225.8z M96.1,235.6c0,2.5,0,5,0,7.5
		c0,0.7,0.2,1.1,0.9,1.2c2.9,0.4,5.7,0.6,8.6,0c2.6-0.6,4.7-2,5.5-4.7c1.7-5.5-0.2-9.7-5.5-11.6c-0.4-0.1-0.8-0.2-1.2-0.3
		c-2.4-0.6-4.8-0.5-7.2-0.5c-1.1,0-1.1,0-1.1,1.1C96.1,230.7,96.1,233.1,96.1,235.6z M96.1,217c0,2.3,0,4.7,0,7c0,0.7,0.2,1,0.9,0.9
		c1.5-0.1,3,0,4.5-0.1s3-0.3,4.4-0.8c2.1-0.8,3.6-2.3,4.3-4.5c0.4-1.5,0.5-3,0.3-4.6c-0.4-2.9-2-4.9-4.9-5.8
		c-2.8-0.8-5.6-0.7-8.4-0.3c-0.8,0.1-1,0.5-1,1.3C96.2,212.5,96.1,214.7,96.1,217z"/>
	<path class="st0" d="M235.3,242.8c-0.4,0.1-0.5,0.5-0.8,0.8c-4.9,5.6-14.8,5.3-19-1.7c-1.3-2.2-2.1-4.5-2.4-7
		c-0.7-5.3,0.1-10.2,3.8-14.3c3.6-4.1,8.3-5.8,13.7-4.8c1.8,0.3,3.3,1.2,4.6,2.4c0.4-0.3,0.2-0.7,0.2-1c0-3.4,0-6.8,0-10.2
		c0-1.7-0.2-2-1.8-2.5c-1-0.3-1.9-0.6-2.9-0.8c-0.4-0.1-0.5-0.4-0.5-0.8c0-0.4,0.1-0.6,0.5-0.7c3.3-0.5,6.5-1.2,9.8-1.4
		c1.2-0.1,1.2,0,1.1,1.1c-0.3,3-0.3,6-0.3,9.1c0,10.3,0,20.5,0,30.8c0,0.3,0,0.6,0,0.9c0,1.1,0.1,1.2,1.2,1.5
		c0.8,0.2,1.7,0.4,2.5,0.5c0.6,0.1,0.7,0.4,0.8,1c0,0.6-0.4,0.7-0.8,0.7c-2.9,0.4-5.8,0.9-8.7,1.3c-0.7,0.1-1,0-0.9-0.8
		c0.1-1.1,0-2.3,0-3.5C235.5,243.2,235.6,243,235.3,242.8z M235.5,230.3c0-3.1,0-6.2,0-9.4c0-0.5,0.1-1-0.6-1.3
		c-2.5-1.2-5.1-1.7-7.8-1.1c-3.5,0.8-5.6,3.3-6.9,6.6c-1.2,3.1-1.2,6.3-0.7,9.5c0.2,1.6,0.7,3.2,1.6,4.6c2.8,4.7,9.5,5.8,13.6,2.2
		c0.5-0.5,0.8-1,0.8-1.7C235.4,236.5,235.5,233.4,235.5,230.3z"/>
	<path class="st0" d="M186.8,215.6c0,1,0,1.9,0,2.9c0,0.9-0.1,1.9,0.1,2.9c0.6-0.1,0.7-0.6,0.9-1c1.8-2.5,4-4.2,7.1-4.7
		c2.4-0.4,4.7-0.2,6.9,0.8c2.9,1.4,4.5,3.8,5,6.9c0.2,1.1,0.3,2.2,0.3,3.3c0,5.3,0,10.6,0,15.8c0,1.5,0.1,1.7,1.6,2.1
		c0.7,0.2,1.4,0.4,2.1,0.5c0.8,0.1,0.7,0.6,0.7,1.1c0,0.7-0.5,0.6-0.9,0.6c-4.4,0-8.7,0-13.1,0c-0.4,0-0.8,0.1-0.8-0.5
		c0-0.5-0.2-1.1,0.6-1.2c0.9-0.2,1.9-0.5,2.8-0.6c0.8-0.1,1.1-0.5,1.1-1.4c0-5.6-0.1-11.1-0.1-16.7c0-1.1-0.2-2.1-0.6-3.1
		c-0.8-2.3-2.3-3.6-4.7-3.9c-2.8-0.4-5.3,0.3-7.4,2.4c-1.2,1.2-1.9,2.5-1.8,4.3c0.1,5.5,0,10.9,0,16.4c0,1.6,0.1,1.7,1.7,2.1
		c0.7,0.2,1.5,0.4,2.2,0.5c0.6,0.2,0.4,0.7,0.4,1.1s-0.2,0.6-0.6,0.6c-4.6,0-9.3,0.1-13.9-0.1c0,0-0.1,0-0.1-0.1
		c-0.2-1.4-0.2-1.4,1.1-1.7c0.7-0.2,1.3-0.3,2-0.5c1.2-0.4,1.3-0.5,1.3-1.8c0-6.3,0-12.6,0-18.9c0-0.6,0-1.2,0-1.7
		c0-1-0.4-1.7-1.3-2.1c-0.8-0.4-1.7-0.7-2.5-1.1c-0.5-0.2-0.8-0.5-0.7-1.1c0-0.6,0.4-0.7,0.9-0.8c2.4-0.5,4.9-1.1,7.3-1.5
		C185.3,215.4,186,215.4,186.8,215.6z"/>
	<path class="st0" d="M86.1,163.6c0.6-0.2,0.7-0.7,1-1.1c3.3-4.7,8.4-5.8,13.2-4.2c3.5,1.2,5.2,3.9,5.8,7.4c0.2,1,0.2,2.1,0.2,3.2
		c0,5.3,0,10.6,0,15.8c0,1.5,0.1,1.6,1.5,2c0.7,0.2,1.4,0.4,2.1,0.5c0.9,0.1,0.8,0.6,0.8,1.2c0,0.5-0.2,0.6-0.6,0.6c-1,0-2,0-3,0
		c-3.4,0-6.8,0-10.2,0c-0.4,0-0.9,0.2-1-0.5c0-0.6-0.1-1.1,0.8-1.2c0.9-0.1,1.7-0.4,2.5-0.6c1.2-0.3,1.2-0.4,1.2-1.6
		c0-3.6,0-7.1,0-10.7c0-2,0-4-0.1-6c0-1.1-0.3-2.2-0.7-3.2c-0.9-2.3-2.6-3.5-5-3.7c-3.6-0.3-6.3,1.1-8.3,4.2c-0.3,0.5-0.5,1-0.5,1.6
		c0,5.9,0,11.8,0,17.7c0,1.2,0.2,1.4,1.3,1.7c0.8,0.2,1.6,0.5,2.4,0.6c0.8,0.1,0.7,0.6,0.7,1.1c0,0.7-0.4,0.6-0.9,0.6
		c-4.3,0-8.6,0-13,0c-0.4,0-0.9,0.2-0.9-0.5c0-0.6-0.1-1.1,0.8-1.2c0.8-0.1,1.6-0.3,2.4-0.6c1.2-0.3,1.4-0.6,1.4-1.8
		c0-3.3,0-6.6,0-9.9c0-3.4,0-6.8,0-10.2c0-1.4-0.5-2.3-1.8-2.8c-0.7-0.3-1.3-0.6-2-0.8c-0.5-0.2-0.8-0.5-0.7-1
		c0-0.6,0.4-0.7,0.8-0.8c2.4-0.5,4.9-1,7.3-1.6c0.1,0,0.2,0,0.3,0c2-0.2,1.9-0.2,2,1.8C86,160.8,85.9,162.2,86.1,163.6z"/>
	<path class="st0" d="M333.2,163.6c0.3-0.5,0.6-0.9,1-1.4c3.6-5,9.2-5.5,13.6-3.7c3,1.2,4.6,3.7,5.2,6.8c0.2,1,0.3,2.1,0.3,3.1
		c0,5.4,0,10.7,0,16.1c0,1.6,0.1,1.7,1.7,2.1c0.7,0.2,1.4,0.4,2.1,0.5c0.8,0.1,0.6,0.7,0.6,1.2c0,0.6-0.4,0.5-0.8,0.5
		c-4.4,0-8.7,0-13.1,0c-0.4,0-0.9,0.1-0.9-0.6c0-0.5-0.1-1,0.7-1.1c0.8-0.1,1.6-0.3,2.4-0.5c1.4-0.3,1.5-0.4,1.5-1.8
		c0-2.7,0-5.5,0-8.2c0-2.8,0.1-5.7-0.1-8.5c0-0.2,0-0.5-0.1-0.7c-0.6-4.9-4.4-7.2-9.2-5.6c-1.4,0.5-2.7,1.3-3.7,2.4
		c-1,1.1-1.5,2.2-1.5,3.8c0.1,5.5,0,11,0,16.6c0,1.7,0.1,1.8,1.7,2.2c0.7,0.2,1.3,0.4,2,0.5c0.8,0.1,0.8,0.6,0.8,1.2
		c0,0.3-0.2,0.5-0.5,0.5c-0.1,0-0.3,0-0.4,0c-4.3,0-8.6,0-13,0c-0.9,0-1-0.2-0.9-1c0-0.4,0.2-0.6,0.6-0.7c0.9-0.2,1.8-0.4,2.7-0.6
		c1.1-0.3,1.3-0.5,1.3-1.7c0-6.9,0-13.7,0-20.6c0-1.1-0.4-1.8-1.4-2.3c-0.8-0.4-1.6-0.7-2.4-1c-0.5-0.2-0.7-0.5-0.7-1.1
		s0.5-0.6,0.9-0.7c2.4-0.5,4.9-1.1,7.3-1.6c0.1,0,0.2,0,0.3,0c1.9-0.2,1.9-0.2,1.9,1.7c0,1.4,0,2.8,0,4.3
		C333,163.6,333.1,163.6,333.2,163.6z"/>
	<path class="st0" d="M36.9,175.3c-0.7,3.8-1.4,7.4-2.1,11c-0.1,0.8-0.5,1.1-1.2,1.4c-2.6,1-5.4,1.5-8.1,1.8
		c-4.1,0.4-8.3,0.3-12.2-1.1c-7.2-2.6-11.4-7.9-12.9-15.3c-0.9-4.5-0.5-8.9,1.4-13.1c3-6.5,8.2-10.3,15.1-11.7
		c5.3-1.1,10.5-0.8,15.6,1c0.6,0.2,1.1,0.2,1.4-0.4c0.1-0.2,0.3-0.5,0.5-0.7c0.4-0.3,0.8-0.2,1.2-0.2c0.5,0.1,0.3,0.5,0.3,0.8
		c0.2,4,0.5,8,0.7,11.9c0,0.4,0.4,1-0.4,1.1c-1,0.1-1.2,0-1.5-1c-0.5-2.1-1.1-4.3-1.9-6.3c-0.6-1.4-1.5-2.5-2.8-3.1
		c-5-2.4-10-2.5-14.9,0.1c-2.9,1.5-4.8,4.1-5.9,7.2c-2.4,6.6-2.3,13.2,0.3,19.8c0.6,1.5,1.5,2.9,2.5,4.2c3.6,4.3,8.2,5.4,13.5,4.1
		c4.6-1.1,5.7-2.1,7.6-6.4c0.6-1.4,1.1-2.7,1.6-4.2c0.3-1.1,0.4-1.1,1.5-1.1C36.4,175.2,36.6,175.2,36.9,175.3z"/>
	<path class="st0" d="M175.5,244.4c0.3,1.3,0.1,1.3-0.9,1.8c-1.7,0.8-3.5,1.3-5.4,1.3c-2.4-0.1-3.7-1.1-4.3-3.4
		c-0.1-0.4-0.2-0.8-0.3-1.2c-0.5,0-0.6,0.5-0.8,0.7c-3.4,4.1-8.8,4.7-12.7,3.3c-2.5-0.9-4-2.7-4.5-5.3c-0.5-2.8,0.2-5.2,2.6-7
		c1.6-1.2,3.4-2,5.2-2.6c2.9-1,6-1.7,9-2.5c1.3-0.4,1.3-0.4,1.3-1.7c0-1.2,0-2.5-0.2-3.7c-0.5-3.2-2.1-4.9-5.3-5.4
		c-2.3-0.3-4.5,0-6.5,1.1c0.2,0.7,0.6,1.1,0.9,1.7c0.6,1.2,0.9,2.4,0.4,3.7c-0.5,1.5-1.9,2.4-3.5,2.2s-2.6-1.3-2.8-2.9
		c-0.2-1.5,0.3-2.8,1.3-3.8c4.4-4,9.3-6.2,15.4-4.5c3.4,0.9,5.3,3.2,5.8,6.6c0.1,1,0.2,1.9,0.2,2.9c0,4.9,0,9.8,0,14.7
		c0,0.9,0.1,1.8,0.2,2.7c0.1,0.7,0.5,1,1.1,1.1c1.1,0.2,2.2,0.3,3.3,0.3C175.1,244.3,175.3,244.4,175.5,244.4z M164.5,231.1
		c-3.1,1-6,1.6-8.8,2.8c-0.9,0.4-1.7,0.9-2.3,1.6c-1.5,1.6-1.7,3.4-1.1,5.3c0.6,1.8,1.9,2.6,3.7,2.9c3.3,0.5,5.9-0.7,8.1-3
		c0.3-0.3,0.4-0.6,0.4-1C164.5,237,164.5,234.2,164.5,231.1z"/>
	<path class="st0" d="M241.4,184.9c-0.5,0.2-0.6,0.6-0.9,0.8c-3.3,4-8.7,4.6-12.6,3.3c-2.6-0.9-4.1-2.7-4.6-5.4
		c-0.5-2.8,0.3-5.2,2.6-7c1.6-1.2,3.5-2,5.4-2.7c2.9-1,6-1.7,9-2.5c1.1-0.3,1.1-0.3,1.1-1.4c0-1.2,0.1-2.5-0.1-3.7
		c-0.5-3.6-2.4-5.4-5.9-5.7c-2-0.2-4,0.2-5.9,1.2c0.1,0.7,0.6,1.1,0.9,1.6c0.7,1.2,0.9,2.4,0.5,3.7c-0.5,1.6-2,2.5-3.6,2.3
		s-2.6-1.3-2.8-3c-0.1-1.5,0.3-2.8,1.4-3.8c4.4-4,9.4-6.1,15.4-4.4c3.3,0.9,5.2,3.1,5.7,6.5c0.2,1,0.2,2,0.2,3c0,4.8,0,9.6,0,14.4
		c0,1,0,2,0.2,3c0.1,0.6,0.4,0.9,1,1c1,0.2,2.1,0.3,3.1,0.3c0.3,0,0.7-0.1,0.8,0.3c0.1,0.5,0.2,1-0.4,1.3c-0.1,0-0.2,0.1-0.3,0.1
		c-1.8,0.9-3.7,1.5-5.8,1.4c-2.4-0.1-3.6-1.1-4.2-3.3C241.6,185.8,241.5,185.4,241.4,184.9z M241.4,173.2c-3.4,1.2-6.9,1.6-9.8,3.4
		c-0.5,0.3-0.9,0.7-1.3,1.1c-1.4,1.5-1.6,3.3-1.1,5.2c0.5,1.8,1.9,2.7,3.7,3c2.8,0.5,5.2-0.4,7.3-2.2c0.9-0.7,1.4-1.5,1.3-2.7
		c-0.1-0.9,0-1.9,0-2.9C241.4,176.6,241.4,175.1,241.4,173.2z"/>
	<path class="st0" d="M42.4,173.6c0-2.8,0.6-5.5,1.9-8c3.2-6,9.3-8.6,15.4-7.8c7.5,0.9,12.3,5.9,13.2,13.4c0.5,4-0.1,7.8-2.1,11.2
		c-2.7,4.6-6.8,7-12.2,7.2c-1.7,0.1-3.4,0-5-0.5c-6.2-1.6-10.4-6.7-11-13.2C42.4,175.2,42.4,174.4,42.4,173.6z M66.5,173.9
		c-0.1-1.1-0.1-2.1-0.2-3.2c-0.3-2.7-1.1-5.4-2.8-7.6c-3.2-4.3-9.1-4.2-12.2,0.2c-0.8,1.1-1.3,2.3-1.7,3.6c-1,3.7-1.1,7.4-0.4,11.1
		c0.4,2.2,1.2,4.2,2.4,6.1c3.5,5,10,4.1,12.6-0.5c0.5-0.9,0.9-1.8,1.2-2.8C66.3,178.6,66.5,176.3,66.5,173.9z"/>
	<path class="st0" d="M289.2,173.7c0-4.6,1.3-8.7,4.7-11.9c4.7-4.3,10.2-5.2,16.1-3.2c5.6,1.9,8.6,6.2,9.5,11.9
		c0.6,3.7,0.2,7.3-1.4,10.7c-2.6,5.4-7,8.2-13,8.5c-2,0.1-3.9-0.1-5.8-0.8c-5.5-1.8-8.5-5.8-9.7-11.3
		C289.3,176.3,289.2,175,289.2,173.7z M313.4,174.8c0.1-2.2-0.1-4.3-0.6-6.4c-0.5-2.1-1.3-4-2.7-5.7c-3.1-3.7-8.3-3.6-11.4,0
		c-0.9,1-1.5,2.2-1.9,3.5c-1.5,5-1.5,10,0.3,14.9c0.5,1.4,1.2,2.7,2.2,3.8c3.1,3.4,8.1,3.3,11.1-0.2c0.9-1.1,1.5-2.3,1.9-3.7
		C313,179,313.2,176.9,313.4,174.8z"/>
	<path class="st0" d="M175.1,171.3c-2.9-0.1-5.9-0.1-8.8-0.2c-1.1,0-1.1,0-1.1,1.1c0,1.7,0.2,3.5,0.6,5.1c1.3,5.3,5.3,8.3,10.9,8
		c2.8-0.1,5.1-1.2,7-3.2c0.1-0.1,0.2-0.2,0.3-0.3c0.2-0.2,0.4-0.6,0.8-0.3c0.3,0.2,0.3,0.5,0.1,0.9c-1.6,3.1-3.9,5.5-7.3,6.5
		c-7.1,2.1-14.3-0.5-17-8.3c-1.7-4.8-1.7-9.7,0.3-14.4c3.1-7.1,10-9.6,16.4-8.2c5.7,1.2,8.8,6.1,7.9,11.8c-0.3,1.8-0.3,1.7-2.1,1.7
		C180.4,171.5,175.1,171.4,175.1,171.3z M165.5,169.1c0.3,0,0.5,0.1,0.7,0.1c3.9-0.1,7.9-0.3,11.8-0.5c0.2,0,0.4,0,0.6,0
		c0.5,0,0.7-0.3,0.8-0.8c0.3-1.6,0.1-3.2-0.5-4.7c-0.8-2.1-2.4-3.2-4.6-3.3c-2.7-0.2-4.8,0.9-6.5,3.1
		C166.4,164.8,165.8,166.8,165.5,169.1z"/>
	<path class="st0" d="M132.1,159.3c0.2-0.4,0.4-0.6,0.5-0.9c0.2-0.7,0.7-0.8,1.3-0.8c0.5,0,0.7,0.2,0.7,0.7c0,0.4,0,0.8,0,1.2
		c0,2.4,0,4.8,0,7.2c0,0.4,0.1,0.9-0.6,0.9c-0.6,0-1.2,0.2-1.3-0.7c-0.2-1.4-0.7-2.7-1.3-3.9c-1.8-3.6-7.4-4.4-10-1.3
		c-2.3,2.7-1.3,7.1,2,8.5c2,0.8,4.1,1.6,6.2,2.4c1,0.4,2,0.9,2.9,1.5c5.3,3.7,4,10.3,0.2,13.2c-1.9,1.4-4,2.2-6.4,2.3
		c-3.1,0.2-6.1,0.1-9-1.4c-0.6-0.3-0.7,0.1-0.9,0.5c-0.5,0.9-0.8,1.1-1.6,1c-0.3,0-0.5-0.2-0.5-0.5c0-0.1,0-0.2,0-0.3
		c-0.1-3.2-0.2-6.4-0.3-9.6c0-0.4-0.2-0.9,0.5-0.9c0.5,0,1.2-0.2,1.4,0.6c0.4,1.6,1,3.2,1.8,4.7c1.4,2.6,4,4.1,7,3.8
		c0.2,0,0.5-0.1,0.7-0.1c3.9-0.5,5.8-3.8,4.2-7.4c-0.5-1.2-1.5-2-2.7-2.4c-1.8-0.7-3.6-1.4-5.4-2.1c-1.2-0.4-2.3-1-3.3-1.7
		c-4.6-3.3-4.9-9.7-0.5-13.4c2.8-2.3,6.1-3,9.7-2.6C129,157.9,130.6,158.5,132.1,159.3z"/>
	<path class="st0" d="M268.5,217.1c0.6-0.8,0.8-2.2,2.4-1.5c0.2,0.9,0.1,1.9,0.1,2.9c0,1.9,0,3.8,0,5.8c0,1.1,0,1.1-1.1,1.1
		c-0.2,0-0.4,0-0.6-0.1c-0.3-1.6-0.7-3.2-1.5-4.6c-1.4-2.7-5.3-4-8.2-2.5c-3,1.5-3.6,4.7-2.4,7.5c0.5,1.2,1.5,1.9,2.6,2.3
		c2,0.8,4.1,1.6,6.2,2.4c1.2,0.5,2.3,1,3.3,1.8c4.8,3.6,3.6,9.6,0.8,12.2c-2,1.9-4.4,2.9-7.1,3.1c-3.3,0.3-6.5,0-9.6-1.6
		c-0.6,0.9-0.8,2.3-2.5,1.5c-0.2-2.1-0.2-4.3-0.3-6.5c0-1.2-0.1-2.5-0.1-3.7c0-0.4-0.2-0.9,0.5-1c0.8-0.1,1.2,0,1.4,0.8
		c0.5,1.5,1.1,2.9,1.7,4.3c1.6,3.9,6.2,4.8,9.2,3.7c2-0.7,3.2-2.1,3.3-4.3c0.2-2.4-0.7-4.2-2.7-5.1c-1.8-0.8-3.7-1.5-5.6-2.2
		c-1.3-0.5-2.5-1.1-3.7-1.9c-4.9-3.5-4.3-10.3-0.2-13.4c4-3,8.4-3.2,12.9-1.5C267.6,216.6,268,216.9,268.5,217.1z"/>
	<path class="st0" d="M197.5,163.6c0,7.5,0,14.2,0,20.9c0,1.7,0.1,1.8,1.7,2.3c0.6,0.2,1.3,0.4,2,0.5c0.8,0.1,0.7,0.6,0.7,1.1
		c0,0.7-0.5,0.6-0.9,0.6c-4.3,0-8.6,0-13,0c-0.4,0-0.9,0.2-0.9-0.5c0-0.6-0.1-1.1,0.8-1.2c0.8-0.1,1.5-0.3,2.2-0.5
		c1.2-0.3,1.4-0.5,1.4-1.8c0-0.1,0-0.3,0-0.4c0-11.3,0-22.7,0-34c0-2.8-0.1-2.9-2.6-3.9c-0.4-0.1-0.7-0.3-1.1-0.4
		c-0.6-0.2-0.5-0.6-0.5-1c0-0.5,0.4-0.6,0.8-0.7c2.5-0.5,5.1-1,7.6-1.4c2.1-0.3,2.2-0.2,2,1.9C197.3,151.4,197.5,157.9,197.5,163.6z
		"/>
	<path class="st0" d="M216.1,163.3c0,7.9,0,14.5,0,21.2c0,1.7,0.1,1.8,1.6,2.2c0.7,0.2,1.4,0.4,2.1,0.5c0.8,0.1,0.6,0.7,0.6,1.2
		c0,0.6-0.4,0.5-0.8,0.5c-4.4,0-8.7,0-13.1,0c-0.4,0-0.8,0.1-0.8-0.5c0-0.5-0.3-1.1,0.6-1.2c0.8-0.1,1.6-0.4,2.4-0.6
		c1.3-0.4,1.4-0.5,1.4-1.9c0-4.7,0-9.4,0-14.1c0-6.7,0-13.4,0-20.2c0-0.5,0-1.1,0-1.6c0-0.8-0.4-1.4-1.1-1.7c-0.8-0.4-1.6-0.7-2.4-1
		c-0.5-0.2-0.8-0.4-0.8-1s0.4-0.6,0.9-0.7c2.5-0.5,5-0.9,7.5-1.4h0.1c2-0.3,2.1-0.2,2,1.8C215.9,151.4,216.3,157.9,216.1,163.3z"/>
	<path class="st0" d="M132.9,221.7c1.1-1.7,2.1-3.2,3.6-4.4c1.4-1.1,2.8-1.8,4.6-1.8c0.6,0,1.1,0.1,1.7,0.3c2.1,0.9,2.8,2.7,1.8,4.7
		c-0.3,0.7-0.8,1.2-1.3,1.7c-1.1,1-1.1,1-2-0.2c-0.7-0.9-1.6-1.3-2.8-1.2c-1.5,0.1-2.8,0.7-4,1.6c-1.1,0.8-1.8,1.8-1.7,3.4
		c0.1,5.5,0,11,0,16.6c0,1.5,0.1,1.7,1.6,2s2.9,0.6,4.4,0.7c0.7,0.1,0.7,0.5,0.7,1c0,0.6-0.4,0.7-0.8,0.7c-5.2,0-10.4,0-15.6,0
		c-0.4,0-0.8,0-0.8-0.6c0-0.5-0.1-1,0.6-1.1c0.9-0.2,1.8-0.4,2.7-0.6c1.2-0.3,1.2-0.4,1.2-1.6c0-6.9,0-13.8,0-20.7
		c0-1.1-0.5-1.8-1.4-2.3c-0.8-0.4-1.6-0.7-2.4-1c-0.6-0.2-0.6-0.6-0.6-1.1c0-0.6,0.4-0.6,0.8-0.7c2.4-0.5,4.9-1.1,7.3-1.6
		c2.2-0.4,2.3-0.3,2.3,2C132.9,218.9,132.9,220.3,132.9,221.7z"/>
	<path class="st0" d="M157.2,162.2c-2.5,0-4.9,0-7.3,0c-0.4,0-0.8,0-1.2,0c-0.5,0-0.7,0.2-0.7,0.7c0,0.3,0,0.6,0,0.9
		c0,5.3,0,10.5,0,15.8c0,1,0,1.9,0.2,2.9c0.3,2,1.3,3,3.3,3.5c2.3,0.5,4.4,0.1,6.3-1.3c0.3-0.2,0.5-0.7,0.9-0.2
		c0.4,0.4,0.2,0.8-0.1,1.1c-1.7,2.4-4,3.7-6.8,4.1c-1.6,0.2-3.2,0.2-4.7-0.3c-2.7-0.9-4.3-2.8-4.7-5.6c-0.1-0.9-0.2-1.7-0.2-2.6
		c0-5.7,0-11.4,0-17.1c0-0.3,0-0.7,0-1c0-0.5-0.2-0.7-0.7-0.7c-0.7,0-1.3,0-2,0c-0.6,0-0.8-0.1-0.8-0.8c0-1.3-0.1-1.4,1.2-1.8
		c2.1-0.6,3.5-1.9,4.1-4c0.4-1.4,1-2.8,1.6-4.2c0.3-0.9,1.3-1.3,2.1-0.9c0.4,0.2,0.3,0.6,0.3,0.9c0,2,0,3.9,0,5.9c0,0.3,0,0.6,0,0.9
		c0,1.1,0,1.1,1.1,1.1c2.3,0,4.7,0,7,0c1,0,1,0,1,1C157.2,160.9,157.2,161.5,157.2,162.2z"/>
	<path class="st0" d="M270.1,162.2c-2.6,0-5.1,0-7.6,0c-1.7,0-1.6-0.2-1.6,1.6c0,5.2,0,10.4,0,15.5c0,1,0,2,0.2,3
		c0.3,2,1.3,3.1,3.3,3.5c2.3,0.5,4.5,0.1,6.4-1.4c0.2-0.2,0.4-0.6,0.8-0.2c0.3,0.3,0.3,0.6,0,1c-0.2,0.2-0.3,0.5-0.5,0.7
		c-1.6,2-3.7,3.2-6.2,3.5c-1.6,0.2-3.2,0.2-4.7-0.3c-2.8-0.9-4.4-2.8-4.9-5.6c-0.1-0.9-0.2-1.7-0.2-2.6c0-5.7,0-11.4,0-17.1
		c0-0.3,0-0.7,0-1c0-0.5-0.2-0.7-0.7-0.7c-0.7,0-1.4,0-2.2,0c-0.6,0-0.7-0.2-0.7-0.8c0-1.4-0.1-1.4,1.2-1.8c2.1-0.6,3.5-1.9,4.1-4
		c0.5-1.5,1.1-3,1.7-4.4c0.2-0.6,1.7-1.1,2.2-0.6c0.3,0.2,0.2,0.6,0.2,1c0,2.2,0,4.3,0,6.5c0,1.3,0,1.3,1.2,1.3c2.3,0,4.7,0,7,0
		c0.7,0,1,0.2,0.9,0.9C270.1,160.8,270.1,161.5,270.1,162.2z"/>
	<path class="st0" d="M283.8,171.8c0,4.2,0,8.4,0,12.5c0,1.9,0,1.9,1.9,2.4c0.7,0.2,1.3,0.4,2,0.5c0.8,0.1,0.6,0.7,0.6,1.2
		c0,0.6-0.5,0.5-0.8,0.5c-4.4,0-8.7,0-13.1,0c-0.4,0-0.9,0.1-0.9-0.6c0-0.5-0.1-1,0.7-1.1c0.9-0.1,1.7-0.3,2.5-0.6
		c1.1-0.3,1.3-0.6,1.3-1.7c0-6.9,0-13.7,0-20.6c0-1.2-0.5-1.9-1.5-2.3c-0.8-0.3-1.6-0.7-2.4-1c-0.5-0.2-0.5-0.6-0.6-1
		c0-0.5,0.2-0.6,0.7-0.7c2.5-0.5,5-1.1,7.6-1.6c2.1-0.4,2.1-0.3,2.1,1.8C283.8,163.6,283.8,167.7,283.8,171.8z"/>
	<path class="st0" d="M277.2,147c0-2.2,1.7-4.1,3.8-4.1c2.1,0,3.8,1.9,3.7,4.1c0,2.2-1.7,4-3.7,4C278.8,151.1,277.1,149.3,277.2,147
		z"/>
	<g>
		<path class="st0" d="M237.3-0.1C198.2-0.1,159.1,0,119.9,0c-1.9,0-1.6-0.2-1.6,1.6c0,32.2,0,64.3,0,96.5c0,0.4,0,0.8,0,1.2
			c2.6-4.8,5.4-9.4,8.5-13.7c3.2-4.3,6.6-8.4,10.4-12.2s7.9-7.1,12.2-10.3c2.4-1.8,11.8-8.1,13.6-8.2c0,0.5-0.5,0.7-0.8,0.9
			c-1.4,1.2-2.9,2.4-4.3,3.6c-15.6,14.1-26.1,31.1-30.9,51.7c-0.6,2.7-1.1,5.4-1.5,8.2c-0.2,1.4-0.2,1.4,1.3,1.4c1.5,0,3.1,0,4.6,0
			c1,0,1.1,0,1.2-1c0.6-4.9,1.7-9.8,2.9-14.6c0.6-2.4,1.4-4.8,2.3-7.1c2.6-6.9,5.8-13.5,9.7-19.6c1.4-2.3,3-4.4,4.5-6.6
			c1-1.5,2.3-2.7,3.5-4c2.6-3,5.4-5.9,8.4-8.6c1.5-1.3,3-2.8,4.6-3.9c4.1-3.1,8.3-6.1,12.8-8.6c2.3-1.2,4.6-2.6,6.9-3.7
			c2.3-1.1,4.8-2.1,7.2-3c0.6-0.4,1.2-0.8,1.9-0.7c-0.1,0.1-0.1,0.2-0.2,0.2c-0.4,0.3-0.8,0.5-1.2,0.8c-15.8,10-28.2,23.2-36.3,40.1
			c-5.9,12.1-8.9,25-9.6,38.4c-0.1,2.2-0.2,1.8,1.8,1.8c28.5,0,56.9,0,85.4,0c0.2,0,0.5,0,0.7,0c0.7,0.1,1.1-0.1,1-0.9
			c0-0.2,0-0.5,0-0.7c0-39.2,0-78.3,0-117.5C238.9-0.3,239.2-0.1,237.3-0.1z M220.1,34.7c1.7,3,3.4,6,5.1,9c0.1,0.4,0.4,0.8,0.5,1.3
			c-0.5,0.3-0.9-0.1-1.3-0.3c-3.4-1.6-6.9-3.2-10.3-4.8c-1.1-0.5-1.1-0.5-1.9,0.4c-2.8,3.1-5.7,6.2-8.7,9.6
			c-0.1-1.6,0.3-2.9,0.4-4.3c0.3-2.9,0.7-5.8,1.1-8.7c0.1-0.9-0.1-1.3-0.9-1.6c-1.8-0.7-3.7-1.5-5.5-2.2c-2.1-0.9-4.2-1.9-6.4-3.2
			c4.3-0.8,8.5-1.7,12.6-2.5c1.3-0.3,1.3-0.2,1.5-1.6c0.5-4,0.9-8,1.3-12c0-0.2,0-0.3,0.1-0.7c0.5,0.4,0.7,0.8,0.9,1.2
			c1.8,3.2,3.6,6.4,5.4,9.7c0.8,1.3,0.8,1.4,2.3,1c3.7-0.8,7.3-1.5,11-2.3c0.2,0,0.5-0.1,0.7-0.1c0.1,0.1,0.2,0.2,0.3,0.3
			c-2.6,2.9-5.3,5.7-7.9,8.6C218.8,33.3,218.9,32.5,220.1,34.7z"/>
		<path class="st0" d="M281,142.9c-2.1,0-3.8,1.9-3.8,4.1c0,2.3,1.6,4,3.8,4c2,0,3.7-1.8,3.7-4C284.7,144.8,283,142.9,281,142.9z"/>
	</g>
	<path class="st0" d="M164.4,53.9c-0.4,0.3-0.7,0.8-1.5,1C163.3,54.1,163.9,54.1,164.4,53.9z"/>
	<path class="st0" d="M227.8,22.7c0.1-0.1,0.4-0.2,0.5-0.1c0.1,0.2-0.1,0.2-0.2,0.4C228,22.9,227.9,22.8,227.8,22.7z"/>
	<path class="st0" d="M225.6,45c0.1,0,0.2,0.1,0.2,0.2h-0.1C225.5,45.1,225.5,45,225.6,45S225.6,45,225.6,45z"/>
</g>
</svg>
