<?xml version="1.0" encoding="utf-8"?>
<!-- Generator: Adobe Illustrator 24.1.0, SVG Export Plug-In . SVG Version: 6.00 Build 0)  -->
<svg version="1.1" id="Layer_1" xmlns="http://www.w3.org/2000/svg" xmlns:xlink="http://www.w3.org/1999/xlink" x="0px" y="0px"
	 viewBox="0 0 1205 250" style="enable-background:new 0 0 1205 250;" xml:space="preserve">
<style type="text/css">
	.st0{fill:#FFFFFF;}
</style>
<path class="st0" d="M998.9,177.8c0.1,3.2-1.2,6.4-3.4,8.7c-4.9,4.8-12.7,4.8-17.6,0c-2.2-2.3-3.5-5.5-3.4-8.7
	c0-3.1,1.2-6.1,3.4-8.3c4.6-4.9,12.3-5,17.2-0.4c0.1,0.1,0.3,0.3,0.4,0.4C997.7,171.7,998.9,174.7,998.9,177.8z"/>
<rect x="1033.8" y="59.3" class="st0" width="14.9" height="131.2"/>
<path class="st0" d="M1205.1,124.8c0.1,9-1.6,17.9-4.8,26.2c-3.1,7.8-7.7,14.9-13.6,20.9c-6,6-13.1,10.7-21,13.8
	c-8.5,3.4-17.6,5-26.8,4.9c-9.1,0.1-18.2-1.6-26.7-4.9c-15.8-6.3-28.3-18.8-34.5-34.6c-3.3-8.3-4.9-17.2-4.8-26.2
	c-0.1-9,1.6-17.9,4.8-26.2c3.1-7.8,7.7-14.8,13.6-20.7c6-5.9,13.1-10.5,20.9-13.6c8.5-3.4,17.5-5,26.7-4.9
	c9.2-0.1,18.3,1.6,26.8,4.9c7.8,3.1,15,7.7,21,13.6c5.9,5.9,10.5,12.9,13.6,20.7C1203.5,106.9,1205.2,115.8,1205.1,124.8z
	 M1190,124.8c0.1-7.1-1.1-14.2-3.5-20.8c-2.2-6.2-5.7-11.9-10.2-16.7c-4.6-4.8-10.1-8.6-16.2-11.2c-6.7-2.9-14-4.3-21.3-4.2
	c-7.3-0.1-14.5,1.3-21.1,4.2c-6,2.6-11.5,6.5-16,11.2c-4.6,4.8-8,10.5-10.3,16.8c-4.7,13.5-4.7,28.2,0,41.7
	c2.2,6.2,5.7,11.9,10.2,16.7c4.5,4.7,10,8.5,16,11.1c6.7,2.8,13.9,4.1,21.1,4c7.3,0.1,14.5-1.2,21.3-4c12.3-5.1,21.9-15.2,26.4-27.8
	C1188.9,139,1190.1,131.9,1190,124.8L1190,124.8z"/>
<g id="Dolby">
	<rect x="653.4" y="1.3" class="st0" width="28.7" height="189.2"/>
	<path class="st0" d="M569.3,59.5c-36.2,0-65.6,29.4-65.6,65.6c0,36.2,29.4,65.6,65.6,65.6s65.6-29.4,65.6-65.6
		C634.8,88.9,605.5,59.6,569.3,59.5z M569.3,164.4c-21.8,0-39.5-17.7-39.5-39.5s17.7-39.6,39.5-39.6c21.8,0,39.5,17.7,39.5,39.5
		c0,0,0,0,0,0C608.8,146.7,591.1,164.4,569.3,164.4z"/>
	<path class="st0" d="M268.8,190.5h-27.9c-52.3-0.5-94.2-43.3-93.7-95.6c0.5-51.5,42.2-93.1,93.7-93.7h27.9V190.5z"/>
	<path class="st0" d="M-0.4,1.3h27.9c52.3,0.5,94.2,43.3,93.7,95.6c-0.5,51.5-42.2,93.1-93.7,93.7H-0.4V1.3z"/>
	<path class="st0" d="M772.5,59.5c-13.4,0-26.5,4.1-37.5,11.8V1.3h-28.8v189.2H735v-11.6c29.7,20.7,70.6,13.4,91.3-16.3
		s13.4-70.6-16.3-91.3C799,63.7,785.9,59.5,772.5,59.5z M772.5,164.4c-21.8,0-39.6-17.7-39.6-39.5c0-21.8,17.7-39.6,39.5-39.6
		c21.8,0,39.6,17.7,39.6,39.5c0,0,0,0,0,0C812,146.7,794.3,164.4,772.5,164.4z"/>
	<path class="st0" d="M394.5,1.2h-68.4v189.3h68.4c52.3-0.5,94.2-43.3,93.7-95.6C487.7,43.4,446,1.8,394.5,1.2z M394.5,161.8h-39.7
		V29.9h39.7c36.4,0.4,65.6,30.3,65.1,66.8C459.2,132.5,430.3,161.4,394.5,161.8z"/>
	<path class="st0" d="M943.2,59.7l-37.4,84l-37.4-84h-31.3l53,119.2l-13,29.3c-3.4,7.7-12.4,11.2-20.1,7.8l-4.1-1.8l-11.6,26l0,0
		l0,0l9.9,4.4c18.7,8.3,40.6-0.1,49-18.8c0.1-0.1,67.9-151.8,74.3-166.1L943.2,59.7z"/>
</g>
<path class="st0" d="M1053.4,13.4c0.1,3.2-1.2,6.4-3.4,8.7c-4.9,4.8-12.7,4.8-17.6,0c-2.2-2.3-3.5-5.5-3.4-8.7
	c0-3.1,1.2-6.1,3.4-8.4c4.6-4.8,12.3-5,17.2-0.4c0.1,0.1,0.3,0.2,0.4,0.4C1052.2,7.2,1053.4,10.2,1053.4,13.4z"/>
</svg>
