<svg id="Layer_1" data-name="Layer 1" xmlns="http://www.w3.org/2000/svg" viewBox="0 0 1205 250"><path d="M998.9,177.79a12.33,12.33,0,0,1-3.38,8.72,12.46,12.46,0,0,1-17.58,0,12.3,12.3,0,0,1-3.39-8.72,12.14,12.14,0,0,1,3.39-8.32,12.15,12.15,0,0,1,17.58,0A12.17,12.17,0,0,1,998.9,177.79Z"/><rect x="1033.8" y="59.28" width="14.88" height="131.23"/><path d="M1205.09,124.8a69.47,69.47,0,0,1-4.84,26.2,62.49,62.49,0,0,1-13.6,20.85,61.86,61.86,0,0,1-21,13.77,71.08,71.08,0,0,1-26.8,4.94,70,70,0,0,1-26.66-4.94A61.32,61.32,0,0,1,1077.7,151a69.48,69.48,0,0,1-4.85-26.2,69.51,69.51,0,0,1,4.85-26.2,60.86,60.86,0,0,1,13.6-20.71,63.15,63.15,0,0,1,20.88-13.64,70,70,0,0,1,26.66-4.94,71.08,71.08,0,0,1,26.8,4.94,62.91,62.91,0,0,1,21,13.64,61,61,0,0,1,13.6,20.71A69.51,69.51,0,0,1,1205.09,124.8Zm-15.08,0a60.67,60.67,0,0,0-3.5-20.85,47.61,47.61,0,0,0-10.23-16.71A49.52,49.52,0,0,0,1160.12,76a52.26,52.26,0,0,0-21.28-4.15A51.26,51.26,0,0,0,1117.7,76a49.82,49.82,0,0,0-16,11.22A47.47,47.47,0,0,0,1091.44,104a63.85,63.85,0,0,0,0,41.7,47.38,47.38,0,0,0,10.23,16.71,48.13,48.13,0,0,0,16,11.09,52.75,52.75,0,0,0,21.14,4,53.79,53.79,0,0,0,21.28-4,47,47,0,0,0,26.39-27.8A60.59,60.59,0,0,0,1190,124.8Z"/><g id="Dolby"><rect x="653.44" y="1.28" width="28.69" height="189.25"/><path d="M569.29,59.54a65.59,65.59,0,1,0,65.59,65.59A65.66,65.66,0,0,0,569.29,59.54Zm0,104.89a39.55,39.55,0,1,1,39.55-39.54A39.56,39.56,0,0,1,569.29,164.43Z"/><path d="M268.83,190.53H240.9a94.64,94.64,0,0,1,0-189.27h27.93Z"/><path d="M-.4,1.26H27.52a94.64,94.64,0,0,1,0,189.27H-.4Z"/><path d="M772.5,59.55A65.15,65.15,0,0,0,735,71.38V1.28H706.25V190.53H735V178.9A65.57,65.57,0,1,0,772.5,59.55Zm0,104.89A39.55,39.55,0,1,1,812,124.89,39.54,39.54,0,0,1,772.5,164.44Z"/><path d="M394.51,1.24H326.14V190.53h68.37a94.65,94.65,0,0,0,0-189.29Zm0,160.59H354.84V29.94h39.67a65.95,65.95,0,0,1,0,131.89Z"/><path d="M943.21,59.66l-37.38,84-37.38-84H837.11l53,119.25-13,29.28A15.33,15.33,0,0,1,857,216l-4.12-1.84-11.58,26h0l0,0,9.94,4.43a37.19,37.19,0,0,0,49-18.84c.07-.15,67.94-151.82,74.31-166.07Z"/></g><path d="M1053.41,13.36a12.33,12.33,0,0,1-3.38,8.72,12.46,12.46,0,0,1-17.58,0,12.3,12.3,0,0,1-3.39-8.72A12.14,12.14,0,0,1,1032.45,5,12.15,12.15,0,0,1,1050,5,12.17,12.17,0,0,1,1053.41,13.36Z"/></svg>