<?xml version="1.0" encoding="UTF-8" standalone="no"?>
<!DOCTYPE svg PUBLIC "-//W3C//DTD SVG 1.1//EN" "http://www.w3.org/Graphics/SVG/1.1/DTD/svg11.dtd">
<svg width="100%" height="100%" viewBox="0 0 287 77" version="1.1" xmlns="http://www.w3.org/2000/svg" xmlns:xlink="http://www.w3.org/1999/xlink" xml:space="preserve" xmlns:serif="http://www.serif.com/" style="fill-rule:evenodd;clip-rule:evenodd;stroke-linejoin:round;stroke-miterlimit:2;">
    <g transform="matrix(1,0,0,1,-268,-269)">
        <g>
            <path d="M416.7,290.4C421.5,289.3 424.7,285.8 424.7,280.5C424.7,274 420.5,269.7 411.7,269.7L397.5,269.7L397.5,312.6L412.1,312.6C421.2,312.6 426.1,308.3 426.1,301C426.1,295.1 422.7,291.4 416.7,290.4ZM400.2,271.8L411.6,271.8C418.5,271.8 421.8,275.2 421.8,280.6C421.8,286 418.5,289.4 411.6,289.4L400.2,289.4L400.2,271.8ZM412,310.3L400.2,310.3L400.2,291.6L412,291.6C419.7,291.6 423.3,295.1 423.3,300.9C423.3,306.8 419.7,310.3 412,310.3Z" style="fill:rgb(0,130,101);fill-rule:nonzero;"/>
            <path d="M441.5,282C435.9,282 431.8,285.1 430.3,289.7L432.6,290.4C434.1,286.2 437.3,284.1 441.4,284.1C446.5,284.1 449.5,286.6 449.5,293L449.5,294.7L445.6,294.9C432.4,295.3 428.7,299.4 428.7,304.6C428.7,309.9 433,313.2 438.7,313.2C443.7,313.2 447.6,310.8 449.5,306.5L449.5,312.4L452.1,312.4L452.1,293.5C452.2,285.5 448.3,282 441.5,282ZM449.6,300.9C449.6,306.6 445.6,311.1 439.1,311.1C434.6,311.1 431.4,308.5 431.4,304.5C431.4,300.3 434.3,297 445.8,296.7L449.6,296.6L449.6,300.9Z" style="fill:rgb(0,130,101);fill-rule:nonzero;"/>
            <path d="M470.9,282C465.4,282 461.4,285.5 459.6,290.3L459.6,282.7L457,282.7L457,312.5L459.6,312.5L459.6,297.5C459.6,289.6 464,284.1 470.4,284.1C475.4,284.1 478,287.1 478,293L478,312.4L480.6,312.4L480.6,292.4C480.6,286.1 477.2,282 470.9,282Z" style="fill:rgb(0,130,101);fill-rule:nonzero;"/>
            <path d="M496.4,294.4L507.2,282.7L504,282.7L488,300.4L488,269.6L485.3,269.6L485.3,312.5L488,312.5L488,303.5L494.7,296.3L505.9,312.5L508.9,312.5L496.4,294.4Z" style="fill:rgb(0,130,101);fill-rule:nonzero;"/>
            <path d="M352,281.2L354.6,281.2C354.6,281.2 354.6,271.8 363.1,271.8L365.7,271.8L365.7,310.3L361.6,310.3C359,310 356.8,308.4 354.7,306.4L351.6,303.4C352.3,302.5 353.2,301.1 353.8,299.7C354.5,298.1 355,295 355.4,294.2C355.5,294 355.6,293.7 355.8,293.5C356.2,292.9 356.9,292.3 357.6,292C358.1,291.8 358.8,291.6 359.4,291.6L359.8,291.6L359.8,289.4L347,289.4L347,291.6L347.9,291.6C350.2,291.6 352.1,293.5 352.1,295.9C352.1,299 349.8,301.5 349.8,301.5L338.1,290.1C343.3,288.2 347.8,285.6 347.8,280.6C347.8,275.4 343.8,271.8 336.7,271.8C329.5,271.8 324.6,275.8 324.6,282.3C324.6,286.6 326.6,289.3 328.5,291.2C322.5,293.5 319,296.5 319,302.1C319,309.9 326,313 333.8,313C338.9,313 343.2,311.5 346.6,309C346.6,309 348.8,312.5 355.2,312.5L379.6,312.5L379.6,310.3L374.9,310.3L374.9,271.8L377.5,271.8C386,271.8 386,281.2 386,281.2L388.6,281.2L388.6,269.6L352,269.6L352,281.2ZM336.2,274C339,274 340.8,276.3 340.8,279.5C340.8,283.1 339.2,286.2 335.8,288C333.6,285.8 331.7,282.9 331.7,279.4C331.7,276.2 333.4,274 336.2,274ZM336,309.3C330.9,309.3 327.1,305.5 327.1,300.5C327.1,297 327.9,294.8 330.3,293.3L344.5,307.2C342.1,308.8 339.2,309.3 336,309.3Z" style="fill:rgb(0,130,101);fill-rule:nonzero;"/>
            <path d="M314.4,271.8L319.5,271.8L319.5,269.6L305.8,269.6C305.8,269.6 294.5,297.9 294.1,298.8C293.7,297.9 282.3,269.6 282.3,269.6L268.3,269.6L268.3,271.8L273.4,271.8L273.4,310.3L269.2,310.3L269.2,312.5L281.6,312.5L281.6,310.3L276.1,310.3L276.1,276.7C276.7,278.3 289.9,311.5 289.9,311.5L292.1,311.5C292.1,311.5 305.1,278.3 305.7,276.7L305.7,310.3L301.4,310.3L301.4,312.5L318.7,312.5L318.7,310.3L314.4,310.3L314.4,271.8Z" style="fill:rgb(0,130,101);fill-rule:nonzero;"/>
        </g>
        <g>
            <path d="M274.5,339.9C276.7,339.9 278.1,338.8 278.1,335.9L278.1,326.7L279.8,326.7L279.8,335.8C279.8,339.4 277.8,341.3 274.5,341.3C271.2,341.3 269.2,339.4 269.2,335.8L269.2,326.7L270.9,326.7L270.9,335.9C270.9,338.8 272.3,339.9 274.5,339.9Z" style="fill:rgb(0,130,101);fill-rule:nonzero;"/>
            <path d="M281.9,341.1L281.9,331.1L283.5,331.1L283.5,333.2C284.2,331.6 285.5,330.8 287,330.8C289.4,330.8 290.5,332.5 290.5,334.4L290.5,341.1L288.9,341.1L288.9,334.7C288.9,332.9 288.2,332 286.7,332C284.7,332 283.5,333.6 283.5,335.9L283.5,341L281.9,341L281.9,341.1Z" style="fill:rgb(0,130,101);fill-rule:nonzero;"/>
            <path d="M300.4,339C299.7,340.4 298.4,341.3 296.8,341.3C294.2,341.3 292.4,338.9 292.4,336C292.4,333.1 294.1,330.7 296.8,330.7C298.4,330.7 299.7,331.6 300.4,333L300.4,326.7L302,326.7L302,341L300.4,341L300.4,339ZM294.1,336C294.1,338.7 295.4,340.1 297.3,340.1C299,340.1 300.5,338.3 300.5,336C300.5,333.7 299,331.9 297.3,331.9C295.4,331.9 294.1,333.4 294.1,336Z" style="fill:rgb(0,130,101);fill-rule:nonzero;"/>
            <path d="M304,336.1C304,332.9 305.8,330.7 308.8,330.7C311.7,330.7 313.3,332.6 313.3,335.9L313.3,336.2L305.7,336.2C305.8,338.7 307,340.1 309,340.1C310.1,340.1 311,339.5 311.9,338L313.3,338.6C312.5,340.6 310.7,341.4 309,341.4C305.8,341.4 304,339.3 304,336.1ZM305.7,335.1L311.6,335.1C311.4,333 310.5,332 308.8,332C307.1,331.9 306,333.2 305.7,335.1Z" style="fill:rgb(0,130,101);fill-rule:nonzero;"/>
            <path d="M315.2,341.2L315.2,331.1L316.8,331.1L316.8,333.5C317.5,331.8 318.7,331 320.3,331L320.7,331L320.7,332.5L320.1,332.5C318.1,332.5 316.8,333.7 316.8,336.3L316.8,341.2L315.2,341.2Z" style="fill:rgb(0,130,101);fill-rule:nonzero;"/>
            <path d="M321.2,338.2L322.6,337.8C323,339.3 324,340.1 325.6,340.1C327.4,340.1 328.3,339.4 328.3,338.5C328.3,337.7 327.8,337.2 326.2,336.9L324.9,336.6C322.7,336.1 321.8,335.1 321.8,333.6C321.8,332 323.3,330.7 325.7,330.7C327.8,330.7 329.2,331.8 329.7,333.5L328.3,333.9C328,332.7 326.9,331.9 325.7,331.9C324.3,331.9 323.4,332.6 323.4,333.4C323.4,334.2 323.8,334.7 325.2,335L326.5,335.3C328.9,335.8 329.9,336.8 329.9,338.3C329.9,340 328.3,341.3 325.6,341.3C323.3,341.4 321.7,340.2 321.2,338.2Z" style="fill:rgb(0,130,101);fill-rule:nonzero;"/>
            <path d="M332.3,338.3L332.3,332.3L330.7,332.3L330.7,331L332.3,331L332.3,328L333.9,328L333.9,331L337.1,331L337.1,332.2L333.9,332.2L333.9,338.3C333.9,339.4 334.3,339.9 335.2,339.9C335.8,339.9 336.3,339.8 337,339.7L337,341C336.3,341.1 335.7,341.2 335,341.2C333.1,341.2 332.3,340.3 332.3,338.3Z" style="fill:rgb(0,130,101);fill-rule:nonzero;"/>
            <path d="M345.3,339.3C344.6,340.6 343.3,341.4 341.8,341.4C339.9,341.4 338.3,340.3 338.3,338.4C338.3,336.6 339.6,335.1 344,334.9L345.2,334.8L345.2,334.5C345.2,332.8 344.5,331.9 342.9,331.9C341.8,331.9 340.9,332.5 340.4,333.8L339,333.4C339.5,331.9 340.9,330.7 342.9,330.7C345.5,330.7 346.8,332.2 346.8,335L346.8,341L345.2,341L345.2,339.3L345.3,339.3ZM345.2,337.1L345.2,335.9L344,335.9C340.7,336 339.9,337.1 339.9,338.3C339.9,339.4 340.8,340.1 342,340.1C343.9,340.1 345.2,338.8 345.2,337.1Z" style="fill:rgb(0,130,101);fill-rule:nonzero;"/>
            <path d="M349.1,341.1L349.1,331.1L350.7,331.1L350.7,333.2C351.4,331.6 352.7,330.8 354.2,330.8C356.6,330.8 357.7,332.5 357.7,334.4L357.7,341.1L356.1,341.1L356.1,334.7C356.1,332.9 355.4,332 353.9,332C351.9,332 350.7,333.6 350.7,335.9L350.7,341L349.1,341L349.1,341.1Z" style="fill:rgb(0,130,101);fill-rule:nonzero;"/>
            <path d="M367.6,339C366.9,340.4 365.6,341.3 364,341.3C361.4,341.3 359.6,338.9 359.6,336C359.6,333.1 361.3,330.7 364,330.7C365.6,330.7 366.9,331.6 367.6,333L367.6,326.7L369.2,326.7L369.2,341L367.6,341L367.6,339ZM361.2,336C361.2,338.7 362.5,340.1 364.4,340.1C366.1,340.1 367.6,338.3 367.6,336C367.6,333.7 366.1,331.9 364.4,331.9C362.6,331.9 361.2,333.4 361.2,336Z" style="fill:rgb(0,130,101);fill-rule:nonzero;"/>
            <path d="M371.6,329.2L371.6,327.1L373.2,327.1L373.2,329.2L371.6,329.2ZM371.6,341.1L371.6,331.1L373.2,331.1L373.2,341.1L371.6,341.1Z" style="fill:rgb(0,130,101);fill-rule:nonzero;"/>
            <path d="M375.7,341.1L375.7,331.1L377.3,331.1L377.3,333.2C378,331.6 379.3,330.8 380.8,330.8C383.2,330.8 384.3,332.5 384.3,334.4L384.3,341.1L382.7,341.1L382.7,334.7C382.7,332.9 382,332 380.5,332C378.5,332 377.3,333.6 377.3,335.9L377.3,341L375.7,341L375.7,341.1Z" style="fill:rgb(0,130,101);fill-rule:nonzero;"/>
            <path d="M390.3,345.3C387.2,345.3 385.5,344.3 385.5,342.5C385.5,341.4 386.1,340.6 387.6,340.3C386.9,340 386.6,339.4 386.6,338.9C386.6,338.2 387.1,337.7 388.1,337.4C386.9,336.8 386.2,335.7 386.2,334.4C386.2,332.4 387.8,330.9 390.4,330.9C391.4,330.9 392.3,331.1 392.9,331.5C393.4,330.6 394.3,330 395.5,330L395.5,331.3C394.6,331.3 394,331.6 393.5,332C394.1,332.6 394.4,333.4 394.4,334.3C394.4,336.3 392.8,337.8 390.2,337.8C389.8,337.8 389.5,337.8 389.2,337.7C388.4,338 388.1,338.3 388.1,338.6C388.1,339 388.4,339.2 389.2,339.2C391.8,339.3 392.9,339.4 393.8,339.9C394.7,340.3 395.3,341.2 395.3,342.1C395.4,343.9 393.5,345.3 390.3,345.3ZM393.8,342.3C393.8,341.4 392.7,340.7 389.8,340.7C388,340.7 387.2,341.4 387.2,342.4C387.2,343.6 388.3,344.1 390.4,344.1C392.6,344 393.8,343.2 393.8,342.3ZM392.9,334.2C392.9,332.9 392,331.8 390.3,331.8C388.6,331.8 387.7,332.8 387.7,334.1C387.7,335.4 388.6,336.4 390.3,336.4C392,336.6 392.9,335.6 392.9,334.2Z" style="fill:rgb(0,130,101);fill-rule:nonzero;"/>
            <path d="M407.5,332.4L405.1,341L403.1,341L400.5,331L402.1,331L404.2,339.6L406.6,331L408.6,331L411,339.6L413.1,331L414.5,331L411.9,341L409.9,341L407.5,332.4Z" style="fill:rgb(0,130,101);fill-rule:nonzero;"/>
            <path d="M416.2,341.1L416.2,326.8L417.8,326.8L417.8,333.1C418.5,331.5 419.8,330.7 421.3,330.7C423.7,330.7 424.8,332.4 424.8,334.3L424.8,341L423.2,341L423.2,334.6C423.2,332.8 422.5,331.9 421,331.9C419,331.9 417.8,333.5 417.8,335.8L417.8,340.9L416.2,340.9L416.2,341.1Z" style="fill:rgb(0,130,101);fill-rule:nonzero;"/>
            <path d="M433.4,339.3C432.7,340.6 431.4,341.4 429.9,341.4C428,341.4 426.4,340.3 426.4,338.4C426.4,336.6 427.7,335.1 432.1,334.9L433.3,334.8L433.3,334.5C433.3,332.8 432.6,331.9 431,331.9C429.9,331.9 429,332.5 428.5,333.8L427.1,333.4C427.6,331.9 429,330.7 431,330.7C433.6,330.7 434.9,332.2 434.9,335L434.9,341L433.3,341L433.3,339.3L433.4,339.3ZM433.3,337.1L433.3,335.9L432.1,335.9C428.8,336 428,337.1 428,338.3C428,339.4 428.9,340.1 430.1,340.1C432,340.1 433.3,338.8 433.3,337.1Z" style="fill:rgb(0,130,101);fill-rule:nonzero;"/>
            <path d="M437.8,338.3L437.8,332.3L436.2,332.3L436.2,331L437.8,331L437.8,328L439.4,328L439.4,331L442.6,331L442.6,332.2L439.4,332.2L439.4,338.3C439.4,339.4 439.8,339.9 440.7,339.9C441.3,339.9 441.8,339.8 442.5,339.7L442.5,341C441.8,341.1 441.2,341.2 440.5,341.2C438.6,341.2 437.8,340.3 437.8,338.3Z" style="fill:rgb(0,130,101);fill-rule:nonzero;"/>
            <path d="M445.6,329L444.7,329L444.7,326.8L446.8,326.8L446.8,329L445.8,331.3L444.7,331.3L445.6,329Z" style="fill:rgb(0,130,101);fill-rule:nonzero;"/>
            <path d="M446.7,338.2L448.1,337.8C448.5,339.3 449.5,340.1 451.1,340.1C452.9,340.1 453.8,339.4 453.8,338.5C453.8,337.7 453.3,337.2 451.7,336.9L450.4,336.6C448.2,336.1 447.3,335.1 447.3,333.6C447.3,332 448.8,330.7 451.2,330.7C453.3,330.7 454.7,331.8 455.2,333.5L453.8,333.9C453.5,332.7 452.4,331.9 451.2,331.9C449.8,331.9 448.9,332.6 448.9,333.4C448.9,334.2 449.3,334.7 450.7,335L452,335.3C454.4,335.8 455.4,336.8 455.4,338.3C455.4,340 453.8,341.3 451.1,341.3C448.8,341.4 447.1,340.2 446.7,338.2Z" style="fill:rgb(0,130,101);fill-rule:nonzero;"/>
            <path d="M461.5,329.2L461.5,327.1L463.1,327.1L463.1,329.2L461.5,329.2ZM461.5,341.1L461.5,331.1L463.1,331.1L463.1,341.1L461.5,341.1Z" style="fill:rgb(0,130,101);fill-rule:nonzero;"/>
            <path d="M465.6,341.1L465.6,331.1L467.2,331.1L467.2,333.2C468,331.6 469.3,330.8 470.5,330.8C472.3,330.8 473.4,331.8 473.7,333.3C474.4,331.7 475.8,330.8 477.1,330.8C479.5,330.8 480.5,332.5 480.5,334.4L480.5,341.1L478.9,341.1L478.9,334.7C478.9,332.9 478.3,332 476.7,332C475.1,332 473.9,333.7 473.9,335.9L473.9,341L472.3,341L472.3,334.6C472.3,332.8 471.7,331.9 470.1,331.9C468.5,331.9 467.3,333.6 467.3,335.8L467.3,340.9L465.6,340.9L465.6,341.1Z" style="fill:rgb(0,130,101);fill-rule:nonzero;"/>
            <path d="M482.8,345L482.8,331L484.4,331L484.4,333C485.1,331.6 486.4,330.7 488,330.7C490.6,330.7 492.3,333.1 492.3,336L492.3,336.1C492.3,339 490.6,341.4 488,341.4C486.4,341.4 485.1,340.5 484.4,339.1L484.4,345L482.8,345ZM490.7,336.1C490.7,333.4 489.4,332 487.5,332C485.8,332 484.3,333.8 484.3,336.1L484.3,336.2C484.3,338.5 485.8,340.3 487.5,340.3C489.4,340.1 490.7,338.7 490.7,336.1Z" style="fill:rgb(0,130,101);fill-rule:nonzero;"/>
            <path d="M503.7,336.1C503.7,339.3 501.8,341.4 498.8,341.4C495.8,341.4 493.9,339.3 493.9,336.1L493.9,336C493.9,332.8 495.8,330.7 498.8,330.7C501.8,330.7 503.7,332.8 503.7,336.1ZM502,336.1C502,333.4 500.7,332 498.8,332C496.9,332 495.6,333.5 495.6,336.1L495.6,336.2C495.6,338.8 496.9,340.3 498.8,340.3C500.7,340.1 502,338.7 502,336.1Z" style="fill:rgb(0,130,101);fill-rule:nonzero;"/>
            <path d="M505.6,341.2L505.6,331.1L507.2,331.1L507.2,333.5C507.9,331.8 509.1,331 510.7,331L511.1,331L511.1,332.5L510.5,332.5C508.5,332.5 507.2,333.7 507.2,336.3L507.2,341.2L505.6,341.2Z" style="fill:rgb(0,130,101);fill-rule:nonzero;"/>
            <path d="M513.6,338.3L513.6,332.3L512,332.3L512,331L513.6,331L513.6,328L515.2,328L515.2,331L518.4,331L518.4,332.2L515.2,332.2L515.2,338.3C515.2,339.4 515.6,339.9 516.5,339.9C517.1,339.9 517.6,339.8 518.3,339.7L518.3,341C517.6,341.1 517,341.2 516.3,341.2C514.4,341.2 513.6,340.3 513.6,338.3Z" style="fill:rgb(0,130,101);fill-rule:nonzero;"/>
            <path d="M526.6,339.3C525.9,340.6 524.6,341.4 523.1,341.4C521.2,341.4 519.6,340.3 519.6,338.4C519.6,336.6 520.9,335.1 525.3,334.9L526.5,334.8L526.5,334.5C526.5,332.8 525.8,331.9 524.2,331.9C523.1,331.9 522.2,332.5 521.7,333.8L520.3,333.4C520.8,331.9 522.2,330.7 524.2,330.7C526.8,330.7 528.1,332.2 528.1,335L528.1,341L526.5,341L526.5,339.3L526.6,339.3ZM526.6,337.1L526.6,335.9L525.4,335.9C522.1,336 521.3,337.1 521.3,338.3C521.3,339.4 522.2,340.1 523.4,340.1C525.3,340.1 526.6,338.8 526.6,337.1Z" style="fill:rgb(0,130,101);fill-rule:nonzero;"/>
            <path d="M530.5,341.1L530.5,331.1L532.1,331.1L532.1,333.2C532.8,331.6 534.1,330.8 535.6,330.8C538,330.8 539.1,332.5 539.1,334.4L539.1,341.1L537.5,341.1L537.5,334.7C537.5,332.9 536.8,332 535.3,332C533.3,332 532.1,333.6 532.1,335.9L532.1,341L530.5,341L530.5,341.1Z" style="fill:rgb(0,130,101);fill-rule:nonzero;"/>
            <path d="M541.9,338.3L541.9,332.3L540.3,332.3L540.3,331L541.9,331L541.9,328L543.5,328L543.5,331L546.7,331L546.7,332.2L543.5,332.2L543.5,338.3C543.5,339.4 543.9,339.9 544.8,339.9C545.4,339.9 545.9,339.8 546.6,339.7L546.6,341C545.9,341.1 545.3,341.2 544.6,341.2C542.7,341.2 541.9,340.3 541.9,338.3Z" style="fill:rgb(0,130,101);fill-rule:nonzero;"/>
            <path d="M548,330.2C548,328.2 549.5,326.7 551.4,326.7L551.5,326.7C553.4,326.7 554.9,328.2 554.9,330.1L554.9,330.2C554.9,332.1 553.4,333.6 551.5,333.6L551.4,333.6C549.4,333.6 548,332.2 548,330.2ZM554.2,330.2C554.2,328.6 553,327.3 551.5,327.3L551.4,327.3C549.9,327.3 548.7,328.5 548.7,330.1L548.7,330.2C548.7,331.7 549.9,333 551.4,333L551.5,333C553,333 554.2,331.8 554.2,330.2ZM551.4,330.6L550.9,330.6L550.9,331.9L550.2,331.9L550.2,328.3L551.4,328.3C552.4,328.3 552.9,328.8 552.9,329.4C552.9,329.9 552.6,330.2 552.2,330.4L553,331.8L552.2,331.8L551.4,330.6ZM550.9,330L551.4,330C551.9,330 552.1,329.8 552.1,329.5C552.1,329.1 551.9,329 551.4,329L550.9,329L550.9,330Z" style="fill:rgb(0,130,101);fill-rule:nonzero;"/>
        </g>
    </g>
</svg>
