<?xml version="1.0" encoding="utf-8"?>
<!-- Generator: Adobe Illustrator 25.0.1, SVG Export Plug-In . SVG Version: 6.00 Build 0)  -->
<svg version="1.1" id="OUTLINES" xmlns="http://www.w3.org/2000/svg" xmlns:xlink="http://www.w3.org/1999/xlink" x="0px" y="0px"
	 viewBox="0 0 286.6 75.6" style="enable-background:new 0 0 286.6 75.6;" xml:space="preserve">
<style type="text/css">
	.st0{fill:#FFFFFF;}
</style>
<g>
	<g>
		<path class="st0" d="M148,21.2c4.8-1.1,8-4.6,8-9.9c0-6.5-4.2-10.8-13-10.8h-14.2v42.9h14.6c9.1,0,14-4.3,14-11.6
			C157.4,25.9,154,22.2,148,21.2z M131.5,2.6h11.4c6.9,0,10.2,3.4,10.2,8.8s-3.3,8.8-10.2,8.8h-11.4V2.6z M143.3,41.1h-11.8V22.4
			h11.8c7.7,0,11.3,3.5,11.3,9.3C154.6,37.6,151,41.1,143.3,41.1z"/>
		<path class="st0" d="M172.8,12.8c-5.6,0-9.7,3.1-11.2,7.7l2.3,0.7c1.5-4.2,4.7-6.3,8.8-6.3c5.1,0,8.1,2.5,8.1,8.9v1.7l-3.9,0.2
			c-13.2,0.4-16.9,4.5-16.9,9.7c0,5.3,4.3,8.6,10,8.6c5,0,8.9-2.4,10.8-6.7v5.9h2.6V24.3C183.5,16.3,179.6,12.8,172.8,12.8z
			 M180.9,31.7c0,5.7-4,10.2-10.5,10.2c-4.5,0-7.7-2.6-7.7-6.6c0-4.2,2.9-7.5,14.4-7.8l3.8-0.1L180.9,31.7L180.9,31.7z"/>
		<path class="st0" d="M202.2,12.8c-5.5,0-9.5,3.5-11.3,8.3v-7.6h-2.6v29.8h2.6v-15c0-7.9,4.4-13.4,10.8-13.4c5,0,7.6,3,7.6,8.9
			v19.4h2.6v-20C211.9,16.9,208.5,12.8,202.2,12.8z"/>
		<polygon class="st0" points="227.7,25.2 238.5,13.5 235.3,13.5 219.3,31.2 219.3,0.4 216.6,0.4 216.6,43.3 219.3,43.3 219.3,34.3 
			226,27.1 237.2,43.3 240.2,43.3 		"/>
		<path class="st0" d="M83.3,12h2.6c0,0,0-9.4,8.5-9.4c0,0,2.2,0,2.6,0c0,0.4,0,38.5,0,38.5h-4.1c-2.6-0.3-4.8-1.9-6.9-3.9l-3.1-3
			c0.7-0.9,1.6-2.3,2.2-3.7c0.7-1.6,1.2-4.7,1.6-5.5c0.1-0.2,0.2-0.5,0.4-0.7c0.4-0.6,1.1-1.2,1.8-1.5c0.5-0.2,1.2-0.4,1.8-0.4h0.4
			v-2.2H78.3v2.2h0.9c2.3,0,4.2,1.9,4.2,4.3c0,3.1-2.3,5.6-2.3,5.6L69.4,20.9c5.2-1.9,9.7-4.5,9.7-9.5c0-5.2-4-8.8-11.1-8.8
			c-7.2,0-12.1,4-12.1,10.5c0,4.3,2,7,3.9,8.9c-6,2.3-9.5,5.3-9.5,10.9c0,7.8,7,10.9,14.8,10.9c5.1,0,9.4-1.5,12.8-4
			c0,0,2.2,3.5,8.6,3.5c0.5,0,24.4,0,24.4,0v-2.2h-4.7c0,0,0-38.1,0-38.5c0.4,0,2.6,0,2.6,0c8.5,0,8.5,9.4,8.5,9.4h2.6V0.4H83.3V12z
			 M67.5,4.8c2.8,0,4.6,2.3,4.6,5.5c0,3.6-1.6,6.7-5,8.5c-2.2-2.2-4.1-5.1-4.1-8.6C63,7,64.7,4.8,67.5,4.8z M67.3,40.1
			c-5.1,0-8.9-3.8-8.9-8.8c0-3.5,0.8-5.7,3.2-7.2L75.8,38C73.4,39.6,70.5,40.1,67.3,40.1z"/>
		<path class="st0" d="M45.7,2.6h5.1V0.4H37.1c0,0-11.3,28.3-11.7,29.2C25,28.7,13.6,0.4,13.6,0.4h-14v2.2h5.1v38.5H0.5v2.2h12.4
			v-2.2H7.4c0,0,0-32.1,0-33.6C8,9.1,21.2,42.3,21.2,42.3h2.2c0,0,13-33.2,13.6-34.8c0,1.8,0,33.6,0,33.6h-4.3v2.2H50v-2.2h-4.3V2.6
			z"/>
	</g>
	<g>
		<path class="st0" d="M5.8,70.7c2.2,0,3.6-1.1,3.6-4v-9.2h1.7v9.1c0,3.6-2,5.5-5.3,5.5s-5.3-1.9-5.3-5.5v-9.1h1.7v9.2
			C2.2,69.6,3.6,70.7,5.8,70.7z"/>
		<path class="st0" d="M13.2,71.9v-10h1.6V64c0.7-1.6,2-2.4,3.5-2.4c2.4,0,3.5,1.7,3.5,3.6v6.7h-1.6v-6.4c0-1.8-0.7-2.7-2.2-2.7
			c-2,0-3.2,1.6-3.2,3.9v5.1L13.2,71.9L13.2,71.9z"/>
		<path class="st0" d="M31.7,69.8c-0.7,1.4-2,2.3-3.6,2.3c-2.6,0-4.4-2.4-4.4-5.3l0,0c0-2.9,1.7-5.3,4.4-5.3c1.6,0,2.9,0.9,3.6,2.3
			v-6.3h1.6v14.3h-1.6V69.8z M25.4,66.8L25.4,66.8c0,2.7,1.3,4.1,3.2,4.1c1.7,0,3.2-1.8,3.2-4.1l0,0c0-2.3-1.5-4.1-3.2-4.1
			C26.7,62.7,25.4,64.2,25.4,66.8z"/>
		<path class="st0" d="M35.3,66.9L35.3,66.9c0-3.2,1.8-5.4,4.8-5.4c2.9,0,4.5,1.9,4.5,5.2V67H37c0.1,2.5,1.3,3.9,3.3,3.9
			c1.1,0,2-0.6,2.9-2.1l1.4,0.6c-0.8,2-2.6,2.8-4.3,2.8C37.1,72.2,35.3,70.1,35.3,66.9z M37,65.9h5.9c-0.2-2.1-1.1-3.1-2.8-3.1
			C38.4,62.7,37.3,64,37,65.9z"/>
		<path class="st0" d="M46.5,71.9v-10h1.6v2.4c0.7-1.7,1.9-2.5,3.5-2.5c0.1,0,0.3,0,0.4,0v1.5c-0.2,0-0.4,0-0.6,0
			c-2,0-3.3,1.2-3.3,3.8V72L46.5,71.9L46.5,71.9z"/>
		<path class="st0" d="M52.5,69l1.4-0.4c0.4,1.5,1.4,2.3,3,2.3c1.8,0,2.7-0.7,2.7-1.6c0-0.8-0.5-1.3-2.1-1.6l-1.3-0.3
			c-2.2-0.5-3.1-1.5-3.1-3c0-1.6,1.5-2.9,3.9-2.9c2.1,0,3.5,1.1,4,2.8l-1.4,0.4c-0.3-1.2-1.4-2-2.6-2c-1.4,0-2.3,0.7-2.3,1.5
			c0,0.8,0.4,1.3,1.8,1.6l1.3,0.3c2.4,0.5,3.4,1.5,3.4,3c0,1.7-1.6,3-4.3,3C54.6,72.2,53,71,52.5,69z"/>
		<path class="st0" d="M63.6,69.1v-6H62v-1.3h1.6v-3h1.6v3h3.2V63h-3.2v6.1c0,1.1,0.4,1.6,1.3,1.6c0.6,0,1.1-0.1,1.8-0.2v1.3
			c-0.7,0.1-1.3,0.2-2,0.2C64.4,72,63.6,71.1,63.6,69.1z"/>
		<path class="st0" d="M76.6,70.1c-0.7,1.3-2,2.1-3.5,2.1c-1.9,0-3.5-1.1-3.5-3c0-1.8,1.3-3.3,5.7-3.5l1.2-0.1v-0.3
			c0-1.7-0.7-2.6-2.3-2.6c-1.1,0-2,0.6-2.5,1.9l-1.4-0.4c0.5-1.5,1.9-2.7,3.9-2.7c2.6,0,3.9,1.5,3.9,4.3v6h-1.6L76.6,70.1L76.6,70.1
			z M76.5,67.9v-1.2h-1.2c-3.3,0.1-4.1,1.2-4.1,2.4c0,1.1,0.9,1.8,2.1,1.8C75.2,70.9,76.5,69.6,76.5,67.9z"/>
		<path class="st0" d="M80.4,71.9v-10H82V64c0.7-1.6,2-2.4,3.5-2.4c2.4,0,3.5,1.7,3.5,3.6v6.7h-1.6v-6.4c0-1.8-0.7-2.7-2.2-2.7
			c-2,0-3.2,1.6-3.2,3.9v5.1L80.4,71.9L80.4,71.9z"/>
		<path class="st0" d="M98.9,69.8c-0.7,1.4-2,2.3-3.6,2.3c-2.6,0-4.4-2.4-4.4-5.3l0,0c0-2.9,1.7-5.3,4.4-5.3c1.6,0,2.9,0.9,3.6,2.3
			v-6.3h1.6v14.3h-1.6V69.8z M92.5,66.8L92.5,66.8c0,2.7,1.3,4.1,3.2,4.1c1.7,0,3.2-1.8,3.2-4.1l0,0c0-2.3-1.5-4.1-3.2-4.1
			C93.9,62.7,92.5,64.2,92.5,66.8z"/>
		<path class="st0" d="M102.9,60v-2.1h1.6V60H102.9z M102.9,71.9v-10h1.6v10H102.9z"/>
		<path class="st0" d="M107,71.9v-10h1.6V64c0.7-1.6,2-2.4,3.5-2.4c2.4,0,3.5,1.7,3.5,3.6v6.7H114v-6.4c0-1.8-0.7-2.7-2.2-2.7
			c-2,0-3.2,1.6-3.2,3.9v5.1L107,71.9L107,71.9z"/>
		<path class="st0" d="M121.6,76.1c-3.1,0-4.8-1-4.8-2.8c0-1.1,0.6-1.9,2.1-2.2c-0.7-0.3-1-0.9-1-1.4c0-0.7,0.5-1.2,1.5-1.5
			c-1.2-0.6-1.9-1.7-1.9-3l0,0c0-2,1.6-3.5,4.2-3.5c1,0,1.9,0.2,2.5,0.6c0.5-0.9,1.4-1.5,2.6-1.5l0,0v1.3c-0.9,0-1.5,0.3-2,0.7
			c0.6,0.6,0.9,1.4,0.9,2.3l0,0c0,2-1.6,3.5-4.2,3.5c-0.4,0-0.7,0-1-0.1c-0.8,0.3-1.1,0.6-1.1,0.9c0,0.4,0.3,0.6,1.1,0.6
			c2.6,0.1,3.7,0.2,4.6,0.7c0.9,0.4,1.5,1.3,1.5,2.2C126.7,74.7,124.8,76.1,121.6,76.1z M125.1,73.1c0-0.9-1.1-1.6-4-1.6
			c-1.8,0-2.6,0.7-2.6,1.7c0,1.2,1.1,1.7,3.2,1.7C123.9,74.8,125.1,74,125.1,73.1z M124.2,65L124.2,65c0-1.3-0.9-2.4-2.6-2.4
			s-2.6,1-2.6,2.3l0,0c0,1.3,0.9,2.3,2.6,2.3C123.3,67.4,124.2,66.4,124.2,65z"/>
		<path class="st0" d="M138.8,63.2l-2.4,8.6h-2l-2.6-10h1.6l2.1,8.6l2.4-8.6h2l2.4,8.6l2.1-8.6h1.4l-2.6,10h-2L138.8,63.2z"/>
		<path class="st0" d="M147.5,71.9V57.6h1.6v6.3c0.7-1.6,2-2.4,3.5-2.4c2.4,0,3.5,1.7,3.5,3.6v6.7h-1.6v-6.4c0-1.8-0.7-2.7-2.2-2.7
			c-2,0-3.2,1.6-3.2,3.9v5.1h-1.6V71.9z"/>
		<path class="st0" d="M164.7,70.1c-0.7,1.3-2,2.1-3.5,2.1c-1.9,0-3.5-1.1-3.5-3c0-1.8,1.3-3.3,5.7-3.5l1.2-0.1v-0.3
			c0-1.7-0.7-2.6-2.3-2.6c-1.1,0-2,0.6-2.5,1.9l-1.4-0.4c0.5-1.5,1.9-2.7,3.9-2.7c2.6,0,3.9,1.5,3.9,4.3v6h-1.6L164.7,70.1
			L164.7,70.1z M164.6,67.9v-1.2h-1.2c-3.3,0.1-4.1,1.2-4.1,2.4c0,1.1,0.9,1.8,2.1,1.8C163.3,70.9,164.6,69.6,164.6,67.9z"/>
		<path class="st0" d="M169.1,69.1v-6h-1.6v-1.3h1.6v-3h1.6v3h3.2V63h-3.2v6.1c0,1.1,0.4,1.6,1.3,1.6c0.6,0,1.1-0.1,1.8-0.2v1.3
			c-0.7,0.1-1.3,0.2-2,0.2C169.9,72,169.1,71.1,169.1,69.1z"/>
		<path class="st0" d="M176.9,59.8H176v-2.2h2.1v2.2l-1,2.3H176L176.9,59.8z"/>
		<path class="st0" d="M178,69l1.4-0.4c0.4,1.5,1.4,2.3,3,2.3c1.8,0,2.7-0.7,2.7-1.6c0-0.8-0.5-1.3-2.1-1.6l-1.3-0.3
			c-2.2-0.5-3.1-1.5-3.1-3c0-1.6,1.5-2.9,3.9-2.9c2.1,0,3.5,1.1,4,2.8l-1.4,0.4c-0.3-1.2-1.4-2-2.6-2c-1.4,0-2.3,0.7-2.3,1.5
			c0,0.8,0.4,1.3,1.8,1.6l1.3,0.3c2.4,0.5,3.4,1.5,3.4,3c0,1.7-1.6,3-4.3,3C180.1,72.2,178.4,71,178,69z"/>
		<path class="st0" d="M192.8,60v-2.1h1.6V60H192.8z M192.8,71.9v-10h1.6v10H192.8z"/>
		<path class="st0" d="M196.9,71.9v-10h1.6V64c0.8-1.6,2.1-2.4,3.3-2.4c1.8,0,2.9,1,3.2,2.5c0.7-1.6,2.1-2.5,3.4-2.5
			c2.4,0,3.4,1.7,3.4,3.6v6.7h-1.6v-6.4c0-1.8-0.6-2.7-2.2-2.7s-2.8,1.7-2.8,3.9v5.1h-1.6v-6.4c0-1.8-0.6-2.7-2.2-2.7
			s-2.8,1.7-2.8,3.9v5.1h-1.7V71.9z"/>
		<path class="st0" d="M214.1,75.7V61.8h1.6v2c0.7-1.4,2-2.3,3.6-2.3c2.6,0,4.3,2.4,4.3,5.3v0.1c0,2.9-1.7,5.3-4.3,5.3
			c-1.6,0-2.9-0.9-3.6-2.3v5.9h-1.6V75.7z M222,66.9L222,66.9c0-2.7-1.3-4.1-3.2-4.1c-1.7,0-3.2,1.8-3.2,4.1V67
			c0,2.3,1.5,4.1,3.2,4.1C220.7,70.9,222,69.5,222,66.9z"/>
		<path class="st0" d="M235,66.9c0,3.2-1.9,5.3-4.9,5.3s-4.9-2.1-4.9-5.3v-0.1c0-3.2,1.9-5.3,4.9-5.3C233.1,61.5,235,63.6,235,66.9
			L235,66.9z M233.3,66.9L233.3,66.9c0-2.7-1.3-4.1-3.2-4.1c-1.9,0-3.2,1.5-3.2,4.1V67c0,2.6,1.3,4.1,3.2,4.1
			C232,70.9,233.3,69.5,233.3,66.9z"/>
		<path class="st0" d="M236.9,71.9v-10h1.6v2.4c0.7-1.7,1.9-2.5,3.5-2.5c0.1,0,0.3,0,0.4,0v1.5c-0.2,0-0.4,0-0.6,0
			c-2,0-3.3,1.2-3.3,3.8V72L236.9,71.9L236.9,71.9z"/>
		<path class="st0" d="M244.9,69.1v-6h-1.6v-1.3h1.6v-3h1.6v3h3.2V63h-3.2v6.1c0,1.1,0.4,1.6,1.3,1.6c0.6,0,1.1-0.1,1.8-0.2v1.3
			c-0.7,0.1-1.3,0.2-2,0.2C245.7,72,244.9,71.1,244.9,69.1z"/>
		<path class="st0" d="M257.9,70.1c-0.7,1.3-2,2.1-3.5,2.1c-1.9,0-3.5-1.1-3.5-3c0-1.8,1.3-3.3,5.7-3.5l1.2-0.1v-0.3
			c0-1.7-0.7-2.6-2.3-2.6c-1.1,0-2,0.6-2.5,1.9l-1.4-0.4c0.5-1.5,1.9-2.7,3.9-2.7c2.6,0,3.9,1.5,3.9,4.3v6h-1.6L257.9,70.1
			L257.9,70.1z M257.9,67.9v-1.2h-1.2c-3.3,0.1-4.1,1.2-4.1,2.4c0,1.1,0.9,1.8,2.1,1.8C256.6,70.9,257.9,69.6,257.9,67.9z"/>
		<path class="st0" d="M261.8,71.9v-10h1.6V64c0.7-1.6,2-2.4,3.5-2.4c2.4,0,3.5,1.7,3.5,3.6v6.7h-1.6v-6.4c0-1.8-0.7-2.7-2.2-2.7
			c-2,0-3.2,1.6-3.2,3.9v5.1L261.8,71.9L261.8,71.9z"/>
		<path class="st0" d="M273.2,69.1v-6h-1.6v-1.3h1.6v-3h1.6v3h3.2V63h-3.2v6.1c0,1.1,0.4,1.6,1.3,1.6c0.6,0,1.1-0.1,1.8-0.2v1.3
			c-0.7,0.1-1.3,0.2-2,0.2C274,72,273.2,71.1,273.2,69.1z"/>
		<path class="st0" d="M279.3,61L279.3,61c0-2,1.5-3.5,3.4-3.5h0.1c1.9,0,3.4,1.5,3.4,3.4V61c0,1.9-1.5,3.4-3.4,3.4h-0.1
			C280.7,64.4,279.3,63,279.3,61z M285.5,61L285.5,61c0-1.6-1.2-2.9-2.7-2.9h-0.1c-1.5,0-2.7,1.2-2.7,2.8V61c0,1.5,1.2,2.8,2.7,2.8
			h0.1C284.3,63.8,285.5,62.6,285.5,61z M282.7,61.4h-0.5v1.3h-0.7v-3.6h1.2c1,0,1.5,0.5,1.5,1.1c0,0.5-0.3,0.8-0.7,1l0.8,1.4h-0.8
			L282.7,61.4z M282.2,60.8h0.5c0.5,0,0.7-0.2,0.7-0.5c0-0.4-0.2-0.5-0.7-0.5h-0.5V60.8z"/>
	</g>
</g>
</svg>
