<?xml version="1.0" encoding="utf-8"?>
<!-- Generator: Adobe Illustrator 25.1.0, SVG Export Plug-In . SVG Version: 6.00 Build 0)  -->
<svg version="1.1" id="Layer_1" xmlns="http://www.w3.org/2000/svg" xmlns:xlink="http://www.w3.org/1999/xlink" x="0px" y="0px"
	 viewBox="0 0 474.6 84.8" style="enable-background:new 0 0 474.6 84.8;" xml:space="preserve">
<style type="text/css">
	.st0{fill:#292829;}
</style>
<g>
	<path class="st0" d="M253.6,4.6V0.1h67.5v4.5H290v79.7h-5.4V4.6H253.6L253.6,4.6z"/>
	<path class="st0" d="M307.2,53.1v0.7c0,3.6,0.5,6.9,1.4,10.2c1,3.2,2.5,6.1,4.4,8.5s4.4,4.4,7.3,5.7c3,1.4,6.4,2.2,10.2,2.2
		c6.4,0,11.4-1.6,15.1-4.8s6.3-7.6,7.7-13.2h4.7c-1.4,7.1-4.4,12.5-9,16.3c-4.6,3.8-10.8,5.6-18.5,5.6c-4.7,0-8.8-0.8-12.3-2.5
		c-3.5-1.6-6.4-3.8-8.7-6.6c-2.4-2.8-4.1-6.1-5.2-9.9c-1.1-3.8-1.7-7.9-1.7-12.3c0-4.2,0.6-8.3,1.7-12.2c1.2-3.9,3-7.3,5.3-10.3
		c2.4-3,5.3-5.3,8.9-7.1c3.6-1.7,7.8-2.7,12.6-2.7c4.4,0,8.4,0.8,11.8,2.4c3.4,1.5,6.3,3.7,8.6,6.5c2.3,2.7,4,5.8,5.2,9.4
		c1.2,3.6,1.7,7.4,1.7,11.5c0,0.4,0,0.8-0.1,1.3c0,0.5-0.1,0.9-0.1,1.2h-51V53.1z M353.8,49.2c-0.2-3.3-0.7-6.5-1.7-9.3
		c-1-3-2.5-5.5-4.4-7.8s-4.3-4-7.1-5.3c-2.8-1.3-5.9-2.1-9.4-2.1c-3.8,0-7.2,0.7-10,2.1c-2.9,1.3-5.3,3.2-7.3,5.4
		c-1.9,2.3-3.5,4.8-4.6,7.8c-1,3-1.7,6.1-1.9,9.2L353.8,49.2L353.8,49.2z"/>
	<path class="st0" d="M412.3,41c-0.2-2.7-0.9-5-2.2-7.1c-1.2-2.1-2.8-3.7-4.6-5c-1.8-1.3-4.1-2.4-6.6-3.1s-5.2-1-8.1-1
		c-3.9,0-7.5,0.7-10.5,2.3c-3.1,1.5-5.6,3.6-7.7,6.2c-2.1,2.6-3.6,5.4-4.7,8.7c-1,3.3-1.6,6.7-1.6,10c0,4.1,0.5,7.9,1.4,11.3
		c1,3.5,2.5,6.5,4.5,9c2.1,2.6,4.6,4.5,7.7,5.9s6.7,2.2,10.8,2.2c3,0,5.6-0.5,8.2-1.4c2.5-0.9,4.7-2.3,6.7-3.9
		c1.9-1.6,3.5-3.6,4.7-5.9c1.2-2.4,2.1-4.8,2.5-7.6h4.7c-0.5,3.6-1.5,6.9-3.1,9.6c-1.5,2.9-3.5,5.2-5.9,7.2
		c-2.4,1.9-5.1,3.4-8.1,4.4c-3.1,1-6.3,1.5-9.6,1.5c-5.1,0-9.6-0.9-13.2-2.7c-3.7-1.7-6.7-4.1-9-7.2c-2.4-3-4.1-6.5-5.1-10.4
		c-1.1-3.9-1.6-8-1.6-12.2s0.6-8.3,1.9-12c1.2-3.8,3.2-7.1,5.6-9.9c2.5-2.9,5.5-5,9.1-6.8c3.6-1.6,7.8-2.5,12.4-2.5
		c3.5,0,6.7,0.4,9.6,1.2c3,0.8,5.6,2.1,8,3.7c2.4,1.6,4.2,3.8,5.7,6.4c1.4,2.6,2.4,5.5,2.7,8.9L412.3,41L412.3,41z"/>
	<path class="st0" d="M429.1,0.1v36.5h0.2c0.8-2.3,1.9-4.3,3.5-6.1c1.5-1.7,3.3-3.3,5.3-4.5c2.1-1.2,4.2-2.2,6.6-2.9
		c2.4-0.6,4.8-0.9,7.3-0.9c3.7,0,6.9,0.4,9.4,1.3c2.6,0.8,4.7,2.1,6.4,3.4c1.6,1.4,3,3,3.9,4.8c0.9,1.7,1.6,3.6,2.1,5.3
		c0.4,1.8,0.6,3.6,0.7,5.2c0.1,1.8,0.1,3.3,0.1,4.6v37.5h-4.7V45.9c0-1.5-0.1-3.4-0.4-5.6c-0.2-2.3-0.9-4.5-2.2-6.6
		c-1.2-2.1-3-3.9-5.4-5.3c-2.5-1.5-5.7-2.3-10-2.3c-3.6,0-6.9,0.6-9.6,1.8c-2.8,1.2-5.1,3-7.2,5.2c-1.9,2.3-3.5,4.9-4.5,8
		s-1.5,6.5-1.5,10.2v32.8h-4.7v-84H429.1z"/>
</g>
<g>
	<path class="st0" d="M172.1,22.6h5.3c0,0,0-18.4,17.5-18.4c0,0,4.5,0,5.3,0c0,0.8,0,75.2,0,75.2h-8.4c-5.3-0.6-9.9-3.7-14.2-7.6
		l-6.4-5.9c1.4-1.8,3.3-4.5,4.5-7.2c1.4-3.1,2.5-9.2,3.3-10.7c0.2-0.4,0.4-1,0.8-1.4c0.8-1.2,2.3-2.3,3.7-2.9c1-0.4,2.5-0.8,3.7-0.8
		h0.8v-4.3h-26.3v4.3h1.8c4.7,0,8.6,3.7,8.6,8.4c0,6.1-4.7,10.9-4.7,10.9l-24-22.3c10.7-3.7,19.9-8.8,19.9-18.6
		c0-10.2-8.2-17.2-22.8-17.2c-14.8,0-24.9,7.8-24.9,20.5c0,8.4,4.1,13.7,8,17.4c-12.3,4.5-19.5,10.4-19.5,21.3
		c0,15.2,14.4,21.3,30.4,21.3c10.5,0,19.3-2.9,26.3-7.8c0,0,4.5,6.8,17.7,6.8c1,0,50.1,0,50.1,0v-4.3h-9.7c0,0,0-74.4,0-75.2
		c0.8,0,5.3,0,5.3,0c17.5,0,17.5,18.4,17.5,18.4h5.3V-0.2h-75.2v22.8L172.1,22.6L172.1,22.6z M139.6,8.6c5.8,0,9.5,4.5,9.5,10.7
		c0,7-3.3,13.1-10.3,16.6c-4.5-4.3-8.4-10-8.4-16.8C130.4,12.9,133.9,8.6,139.6,8.6z M139.2,77.5c-10.5,0-18.3-7.4-18.3-17.2
		c0-6.8,1.6-11.1,6.6-14.1l29.2,27.2C151.8,76.5,145.8,77.5,139.2,77.5z"/>
	<path class="st0" d="M94.8,4.3h10.5V0H77.1c0,0-23.2,55.3-24,57C52.3,55.2,28.8,0,28.8,0H0v4.3h10.5v75.2H1.9v4.3h25.5v-4.3H16.1
		c0,0,0-62.7,0-65.6c1.2,3.1,28.4,68,28.4,68H49c0,0,26.7-64.8,27.9-68c0,3.5,0,65.6,0,65.6h-8.8v4.3h35.6v-4.3h-8.8L94.8,4.3
		L94.8,4.3z"/>
</g>
</svg>
