<?xml version="1.0" encoding="utf-8"?>
<!-- Generator: Adobe Illustrator 25.0.1, SVG Export Plug-In . SVG Version: 6.00 Build 0)  -->
<svg version="1.1" id="Layer_1" xmlns="http://www.w3.org/2000/svg" xmlns:xlink="http://www.w3.org/1999/xlink" x="0px" y="0px"
	 viewBox="0 0 2777 501.8" style="enable-background:new 0 0 2777 501.8;" xml:space="preserve">
<style type="text/css">
	.st0{fill:#FFFFFF;}
</style>
<g>
	<path class="st0" d="M1957.5-1c3.3,2.9,4.2,6.6,4.2,11c-0.1,89.3-0.1,178.6-0.1,267.9c0,33.8-0.1,67.6-0.2,101.4
		c0,10.1-4.5,14.7-14.6,14.7c-13,0-26,0-39,0c-11.2,0-17.3-6.1-17.3-17.2c0-9,0-18-0.1-27c0-0.2-0.4-0.4-0.9-1
		c-4.8,8.7-11,16.2-18.5,22.6c-24.9,21.2-54,28.5-86,26.1c-27.6-2.1-52.7-10.9-74.2-28.7c-24.6-20.4-38.8-47.1-45.6-77.8
		c-9-40.8-8.3-81.2,8.4-120c21.2-49.4,59.3-76.3,112.9-81.1c19.5-1.7,38.6,0.2,56.8,7.8c16.3,6.8,29.5,17.3,38.7,32.6
		c0.3,0.6,0.8,1.1,1.2,1.6c0.1,0.1,0.3,0,1,0.1c-0.2-3.4-0.5-6.7-0.6-10.1c-0.1-17.7-0.4-35.3-0.2-53c0-4.3-1.3-5.4-5.4-5.2
		c-5,0.3-10,0.1-15,0.1c-6-0.1-9-2.9-9.1-8.9c-0.1-15.7,0-31.3-0.1-47c0-3.9,2.1-6.4,4.6-8.8C1891.5-1,1924.5-1,1957.5-1z
		 M1882.7,239.7c0.2-5.4-0.7-14-2.4-22.5c-1.3-6.2-3.2-12.2-5.6-18.1c-21.8-52.4-88.2-52-115.9-16.4c-10.7,13.7-16.2,29.3-17.8,46.4
		c-2.2,24,0.8,47.1,13.4,68.3c25.7,43,91.1,43.4,115.5-0.2C1879.3,280.3,1882.5,262,1882.7,239.7z"/>
	<path class="st0" d="M2777.4,330.9c-9.5,16.4-23.4,28.4-38.7,39c-54.3,37.3-135.4,38.7-190.6,2.9c-35.9-23.2-56.5-56.7-63.5-98.5
		c-5.6-33.5-3.7-66.6,11.8-97.5c26.9-53.7,70.6-82.7,130.7-85.9c27.8-1.5,54.9,2.7,79.9,15.7c32.3,16.7,50.7,44.2,60.4,78.3
		c5.7,20,7.7,40.5,7.9,61.2c0.1,8.1-3.8,11.9-11.9,11.9c-64,0-128,0-192,0c-6.1,0-6.1,0-5.2,6.2c6.3,40.4,40.5,68,81.4,66.3
		c33.8-1.4,61.8-14.2,84.3-39.5c3.8-4.3,8.7-4.7,12.6-0.6c10.3,10.9,20.5,21.9,30.6,32.9c1,1.1,1.6,2.5,2.4,3.7
		C2777.4,328.2,2777.4,329.6,2777.4,330.9z M2631.9,210.5c20.3,0,40.7-0.1,61,0.1c3.7,0,5.1-0.7,4.6-4.7
		c-2.9-22-13.3-38.5-34.5-46.9c-12.2-4.8-24.9-5.4-37.8-4.2c-30,2.7-51.9,22.1-57.9,51.4c-0.8,3.8,0.2,4.4,3.7,4.4
		C2591.3,210.5,2611.6,210.5,2631.9,210.5z"/>
	<path class="st0" d="M0.4,372.9c0-1.2,0.1-2.3,0.1-3.5c0-84.3,0-168.6,0-252.9c0-1.2-0.1-2.3-0.2-3.5c2.9-29.7,23.1-48,52.8-48
		c46.3,0,92.6,0.6,139-0.2c51.3-0.8,95.1,32.9,107.4,80.4c0.1,0.5,0.3,0.9,0.7,2.3c1.5-4.6,2.7-8.5,4.2-12.2
		c15.8-39.7,44.9-62.9,87.2-69.4c4.8-0.7,9.6-0.9,14.4-0.9c47.5,0,95,0,142.5,0c29.9,0,51.4,21.3,51.4,51.2
		c0.1,84.4,0.1,168.9,0,253.3c0,29.7-21.8,51.1-51.6,51.2c-36.2,0.1-72.3-0.2-108.5,0.3c-25.3,0.4-50.5,2.9-74.9,10.7
		c-30.3,9.7-49.6,30-59.3,59.9c-0.7,2.1-1.4,4.1-2,6.2c-0.5,1.7-1.2,3.1-3.3,3.2c-2.4,0.1-3.2-1.5-3.7-3.3
		c-1.9-6.2-4.1-12.3-6.7-18.2c-12.4-28-35-43.1-63.7-50.4c-21.6-5.5-43.6-7.7-65.8-7.9c-35.8-0.4-71.6-0.2-107.5-0.3
		C23.8,420.6,3.4,402.1,0.4,372.9z M435.6,344.5c26.5,0,52.9,0,79.4,0c6.7,0,7.3-0.6,7.3-7.5c0-5.5,0-11,0-16.5
		c0-6.5-0.6-7.1-7.1-7.1c-31.3,0-62.6,0-93.9,0c-22.1,0-44.3,0-66.4,0c-6.2,0-6.8,0.6-6.8,6.9c0,5.7,0,11.3,0,17
		c0,6.6,0.6,7.2,7.1,7.2C382,344.5,408.8,344.5,435.6,344.5z M165.6,186.9c-27.1,0-54.3,0.1-81.4-0.1c-4.3,0-6,1.4-5.9,5.8
		c0.2,6.6,0.2,13.3,0,20c-0.1,3.9,1.6,5.3,5.4,5.3c54.4-0.1,108.9-0.1,163.3,0c4.2,0,5.6-1.9,5.5-5.8c-0.1-6.2,0-12.3,0-18.5
		s-0.5-6.7-6.9-6.7C218.9,186.9,192.3,186.9,165.6,186.9z M165.1,281.1c27,0,53.9,0,80.9,0c6,0,6.5-0.5,6.5-6.6
		c0-6.2-0.1-12.3,0-18.5c0.1-4.3-1.7-6-6-5.9c-10.3,0.1-20.6,0-31,0c-43.4,0-86.9,0-130.3,0c-6.4,0-6.9,0.5-6.9,6.8
		c0,5.8,0,11.6,0,17.5c0,6.5,0.3,6.7,6.8,6.7C111.8,281.1,138.4,281.1,165.1,281.1z M435.1,217.8c26.7,0,53.3,0,80,0
		c6.8,0,7.3-0.6,7.3-7.5c0-5.8-0.1-11.7,0-17.5c0.1-4.1-1.3-6-5.8-6c-54.3,0.1-108.6,0.1-162.9,0c-4.2,0-5.6,1.7-5.5,5.7
		c0.2,6.2,0,12.3,0,18.5c0,6.3,0.5,6.8,6.9,6.8C381.8,217.8,408.4,217.8,435.1,217.8z M435.4,281c27,0,53.9-0.1,80.9,0.1
		c4.6,0,6.3-1.7,6.2-6.1c-0.2-6.3-0.2-12.6,0-19c0.1-4.2-1.5-6-5.9-6c-54.1,0.1-108.2,0.1-162.3,0c-4.6,0-6.2,1.8-6,6.3
		c0.2,6,0,12,0.1,18c0,6.5,0.4,6.8,6.7,6.8C381.8,281,408.6,281,435.4,281z M165.5,313.7c-27,0-53.9,0.1-80.9-0.1
		c-4.8,0-6.6,1.6-6.3,6.4c0.3,6,0.1,12,0.1,18c0,6.2,0.5,6.7,6.9,6.7c28.8,0,57.6,0,86.4,0c24.8,0,49.6-0.1,74.4,0.1
		c4.7,0,6.6-1.7,6.4-6.5c-0.3-5.8-0.1-11.6-0.1-17.5c0-6.7-0.3-7.1-7.1-7.1C218.8,313.7,192.2,313.7,165.5,313.7z"/>
	<path class="st0" d="M2071.7,143.1c19.2-35.7,50.1-52,89.3-52.8c39.2-0.9,71.4,12.5,91.2,49.5c1.9-2.7,3.6-5.1,5.2-7.5
		c17-25,41.3-37.4,70.6-41.1c17.9-2.2,35.6-1.2,52.8,4.5c34.5,11.3,53.3,36.4,61.5,70.6c2.5,10.7,3.2,21.7,3.2,32.7
		c-0.1,42,0,84-0.1,125.9c0,4.3,1.2,5.4,5.3,5.1c6-0.4,12-0.2,18-0.1c5.3,0,8,2.7,8,8c0.1,15.8,0.1,31.7-0.1,47.5
		c0,6-3.2,9.2-9.4,9.2c-24.7,0.1-49.3,0.3-74,0c-16.4-0.2-28-12.5-28-29c0-47.3,0-94.6,0-141.9c0-9-0.7-17.9-2.8-26.8
		c-4.9-21.1-16.5-32-38-35.4c-24.9-4-48.3,8.1-58.2,30c-1.1,2.5-1.8,4.8-1.1,7.6c1.1,4.4,1.2,8.9,1.2,13.4c0,37.5,0,75-0.1,112.4
		c0,4.3,1.2,5.4,5.2,5.1c5.5-0.4,11-0.1,16.5-0.1c6,0,8.7,2.5,8.7,8.4c0,15.5,0,31,0,46.5c0,6.7-2.7,9.4-9.4,9.4c-31,0-62,0-93,0
		c-7.2,0-9.2-2-9.2-9.2c0-53.3,0-106.6,0-159.9c0-10.8-0.7-21.6-3.7-32.1c-5.6-19.7-19.3-30.3-39.7-32.1
		c-32.6-2.9-52.1,16.7-58.9,35.1c-1,2.7-1.5,5.4-1.5,8.3c0.1,40.3,0.1,80.6-0.1,120.9c0,3.9,1,5.1,4.9,4.9c5.6-0.3,11.3-0.2,17-0.1
		c4.9,0.1,7.9,2.9,7.9,7.7c0.1,16,0.1,32-0.1,48c-0.1,5.6-3.5,8.9-9.3,9c-28,0.1-56,0.2-84-0.1c-11-0.1-18.1-8.3-18.2-19.7
		c-0.1-18,0-36,0-54c0-69.8,0-139.6,0-209.4c0-12.3,4.7-17,16.8-17c14.2-0.1,28.3-0.2,42.5-0.2c6.8,0,11.5,4.7,11.5,11.7
		c0,10.7-0.1,21.3,0,32C2070.5,139.3,2069.9,141,2071.7,143.1z"/>
	<path class="st0" d="M1547.7,133.3c0-9.8,0-18.6,0-27.4c0-7.4,2.5-10,9.8-10c17.3,0,34.7,0,52,0c7.6,0,10.1,2.5,10.1,10.2
		c0,72.8,0.1,145.6-0.1,218.4c0,5,1.4,6.3,6.1,5.9c5.5-0.4,11-0.2,16.5-0.1c5.9,0.1,8.4,2.7,8.4,8.6c0,15.2,0,30.3,0,45.5
		c0,8.1-2.3,10.5-10.3,10.5c-18.8,0-37.7,0-56.5,0c-3.5,0-7,0.9-10.4,0.5c-13.9-1.4-23-12.1-22.9-26.1c0.1-9.1,0-18.2,0-27.7
		c-2.7,0.8-2.9,2.8-3.6,4.3c-15.8,32.6-42.5,49.5-77.9,52.9c-31.8,3.1-61.8-2.9-88.6-20.8c-29.8-19.9-47-48.5-55-82.8
		c-10.4-44.3-8.8-88.2,10.5-129.9c21.4-46.2,58.7-70.4,109.3-74.5c16.8-1.4,33.3,0,49.4,4.7C1517.5,102.1,1530.2,111.2,1547.7,133.3
		z M1542,245.2c-0.2-13.5-1.8-28.2-7.6-42.1c-10.1-24.4-27.6-39.9-54.2-42.7c-25.4-2.7-47,5.4-62.8,26.2
		c-22.4,29.4-24.1,82.4-3.8,113.9c27.4,42.5,88.6,42.1,115.2-0.8C1538.9,283.5,1541.8,265.3,1542,245.2z"/>
	<path class="st0" d="M1180.8,258.7c-32,0-64,0-96-0.1c-3.5,0-5.2,0.1-4.6,4.7c4.8,41.5,42.2,71.4,84.8,68.2
		c32.5-2.5,59.6-15.1,81.2-39.7c3.8-4.3,8.6-4.5,12.6-0.3c10.2,10.8,20.3,21.6,30.3,32.6c3.4,3.7,3.1,7.8,0.3,11.9
		c-10.3,14.9-23.5,26.7-38.7,36.4c-34.1,21.8-71.5,29.8-111.6,26.6c-32.3-2.5-61.8-12.6-87.5-32.7c-29.6-23.2-46.7-53.9-52.8-90.6
		c-5.4-32.6-4.1-65,10.3-95.4c25-52.9,66.9-82.8,125.3-88.6c23.3-2.3,46.3,0.3,68.5,7.6c41.7,13.8,66.6,43.6,78.6,84.9
		c5.9,20.5,8.2,41.4,8.1,62.7c0,7.8-3.8,11.6-11.7,11.6c-17.3,0.1-34.7,0-52,0C1210.8,258.7,1195.8,258.7,1180.8,258.7z
		 M1146.5,211.3c2.8,0,5.7,0,8.5,0c17.7,0,35.3,0,53,0c1.9,0,4.5,0.9,4.1-3c-1.6-14.9-6.8-28.1-18.1-38.3
		c-10.6-9.6-23.5-13.6-37.5-14.5c-34-2.2-65.3,11.4-74.6,50.8c-1,4.1-0.1,5.1,4.1,5.1C1106.2,211.2,1126.4,211.3,1146.5,211.3z"/>
	<path class="st0" d="M785.7,243.8c0-26.8-0.1-53.6,0.1-80.5c0-3.7-0.9-4.8-4.7-4.7c-8.2,0.3-16.3,0.1-24.5,0.1
		c-6.5,0-9.2-2.7-9.2-9c0-15.2,0-30.3,0-45.5c0-7,3-10.2,9.9-10.2c29.3,0,58.6,0,88,0c6.8,0,10,3.3,10,10.3c0.1,20,0,40,0,60
		c0,1.3,0,2.7,0,4c0,0.6,0,1.4,0.8,1.6c1.1,0.3,1.6-0.4,1.9-1.1c0.8-1.8,1.6-3.7,2.4-5.5c17.9-38.2,47.8-60.9,88.9-69.3
		c23.9-4.9,47.7-3.3,71.5,0.9c2.7,0.5,4.8,1.6,5.6,4.3c0.9,2.8-0.1,5.1-2.4,7.1c-20.2,16.7-36,36.9-47.3,60.5
		c-1.7,3.6-4.5,4.4-8.2,4.3c-36.8-1.4-65.3,14.4-87.1,43c-10,13.2-15.3,28.1-15,45c0.4,21.8,0.2,43.6,0,65.5c0,4.3,1.2,5.4,5.3,5.1
		c5-0.4,10-0.2,15-0.1c5.9,0.1,9.3,3,9.4,8.7c0.2,15.7,0.2,31.3,0,47c-0.1,5.7-3.5,8.6-9.4,8.6c-40.8,0-81.6,0-122.5,0
		c-6,0-8.9-2.8-8.9-8.9c-0.1-15.8-0.1-31.6,0-47.5c0-5.5,2.8-8.1,8.4-8.1c5.5,0,11-0.3,16.5,0.2c4.9,0.4,5.6-1.5,5.6-5.9
		C785.6,297.1,785.7,270.5,785.7,243.8z"/>
</g>
</svg>
