<?xml version="1.0" encoding="utf-8"?>
<!-- Generator: Adobe Illustrator 25.1.0, SVG Export Plug-In . SVG Version: 6.00 Build 0)  -->
<svg version="1.1" id="Layer_1" xmlns="http://www.w3.org/2000/svg" xmlns:xlink="http://www.w3.org/1999/xlink" x="0px" y="0px"
	 viewBox="0 0 534.2 60.6" style="enable-background:new 0 0 534.2 60.6;" xml:space="preserve">
<style type="text/css">
	.st0{fill:none;stroke:#FFFFFF;stroke-width:7;stroke-linecap:round;stroke-linejoin:round;stroke-miterlimit:10;}
	.st1{fill:#48558E;}
	.st2{fill:#DE6F74;}
	.st3{clip-path:url(#SVGID_2_);}
	.st4{fill:none;}
	.st5{clip-path:url(#SVGID_4_);}
	.st6{fill:#FFFFFF;}
</style>
<g id="HWahaw.tif">
	
		<image style="overflow:visible;enable-background:new    ;" width="1310" height="1088" id="Layer_0" xlink:href="B19785DD1C4380B4.png"  transform="matrix(0.4992 0 0 0.4992 -1045.0859 -254.9438)">
	</image>
</g>
<g id="HWahaw.tif_1_">
	
		<image style="overflow:visible;enable-background:new    ;" width="1310" height="1088" id="Layer_0_1_" xlink:href="B19785DD1C4380B5.png"  transform="matrix(0.4992 0 0 0.4992 -1045.0859 -846.2559)">
	</image>
</g>
<path class="st0" d="M-953.8-654.1c0,6.6-9.1,12-20.4,12c-11.3,0-20.4-5.4-20.4-12s9.1-12,20.4-12"/>
<rect x="-978.8" y="-680.8" class="st1" width="10.7" height="27.7"/>
<path class="st0" d="M-953.8-673.5c0,6.6-9.1,12-20.4,12c-11.3,0-20.4-5.4-20.4-12s9.1-12,20.4-12"/>
<rect x="-978.8" y="-700.2" class="st1" width="10.7" height="27.7"/>
<path class="st0" d="M-953.8-383.9c0,6.6-9.1,12-20.4,12c-11.3,0-20.4-5.4-20.4-12s9.1-12,20.4-12"/>
<rect x="-978.8" y="-410.6" class="st1" width="10.7" height="27.7"/>
<path class="st0" d="M-953.8-403.3c0,6.6-9.1,12-20.4,12c-11.3,0-20.4-5.4-20.4-12s9.1-12,20.4-12"/>
<rect x="-978.8" y="-430" class="st1" width="10.7" height="27.7"/>
<path class="st0" d="M-953.8-513.1c0,6.6-9.1,12-20.4,12c-11.3,0-20.4-5.4-20.4-12c0-6.6,9.1-12,20.4-12"/>
<rect x="-978.8" y="-539.9" class="st1" width="10.7" height="27.7"/>
<path class="st0" d="M-953.8-532.6c0,6.6-9.1,12-20.4,12c-11.3,0-20.4-5.4-20.4-12s9.1-12,20.4-12"/>
<rect x="-978.8" y="-559.3" class="st1" width="10.7" height="27.7"/>
<path class="st2" d="M-969.7-76.1h-22.7c-2.6,0-4.7-2.1-4.7-4.7l0,0c0-2.6,2.1-4.7,4.7-4.7h22.7c2.6,0,4.7,2.1,4.7,4.7l0,0
	C-965-78.3-967.1-76.1-969.7-76.1z"/>
<path class="st2" d="M-969.7-59h-22.7c-2.6,0-4.7-2.1-4.7-4.7l0,0c0-2.6,2.1-4.7,4.7-4.7h22.7c2.6,0,4.7,2.1,4.7,4.7l0,0
	C-965-61.2-967.1-59-969.7-59z"/>
<path class="st2" d="M-969.7-7.7h-22.7c-2.6,0-4.7-2.1-4.7-4.7l0,0c0-2.6,2.1-4.7,4.7-4.7h22.7c2.6,0,4.7,2.1,4.7,4.7l0,0
	C-965-9.8-967.1-7.7-969.7-7.7z"/>
<path class="st2" d="M-969.7,9.4h-22.7c-2.6,0-4.7-2.1-4.7-4.7l0,0c0-2.6,2.1-4.7,4.7-4.7h22.7c2.6,0,4.7,2.1,4.7,4.7l0,0
	C-965,7.3-967.1,9.4-969.7,9.4z"/>
<path class="st2" d="M-969.7,114.4h-22.7c-2.6,0-4.7-2.1-4.7-4.7l0,0c0-2.6,2.1-4.7,4.7-4.7h22.7c2.6,0,4.7,2.1,4.7,4.7l0,0
	C-965,112.3-967.1,114.4-969.7,114.4z"/>
<path class="st2" d="M-969.7,131.5h-22.7c-2.6,0-4.7-2.1-4.7-4.7l0,0c0-2.6,2.1-4.7,4.7-4.7h22.7c2.6,0,4.7,2.1,4.7,4.7l0,0
	C-965,129.4-967.1,131.5-969.7,131.5z"/>
<path class="st2" d="M-969.7,182.8h-22.7c-2.6,0-4.7-2.1-4.7-4.7l0,0c0-2.6,2.1-4.7,4.7-4.7h22.7c2.6,0,4.7,2.1,4.7,4.7l0,0
	C-965,180.7-967.1,182.8-969.7,182.8z"/>
<path class="st2" d="M-969.7,200h-22.7c-2.6,0-4.7-2.1-4.7-4.7l0,0c0-2.6,2.1-4.7,4.7-4.7h22.7c2.6,0,4.7,2.1,4.7,4.7l0,0
	C-965,197.8-967.1,200-969.7,200z"/>
<rect x="-951.7" y="-101.5" class="st1" width="92.1" height="184.3"/>
<g>
	<g>
		<defs>
			<rect id="SVGID_1_" x="-941.2" y="-96.2" width="76.8" height="164.9"/>
		</defs>
		<clipPath id="SVGID_2_">
			<use xlink:href="#SVGID_1_"  style="overflow:visible;"/>
		</clipPath>
		<g id="HWahaw.tif_2_" class="st3">
			
				<image style="overflow:visible;enable-background:new    ;" width="1310" height="1088" id="Layer_0_2_" xlink:href="B19785DD1C4380B3.png"  transform="matrix(0.4992 0 0 0.4992 -1034.5355 -249.655)">
			</image>
		</g>
	</g>
</g>
<rect x="-660.6" y="-153.1" class="st4" width="114.6" height="37.5"/>
<text transform="matrix(1 0 0 1 -660.6268 -142.7001)" style="fill:#1C325D; font-family:'Poppins-Bold'; font-size:14px;">Workshop</text>
<rect x="-533.7" y="-153.7" class="st4" width="114.6" height="37.5"/>
<text transform="matrix(1 0 0 1 -533.6764 -143.3406)" style="fill:#1C325D; font-family:'Poppins-Bold'; font-size:14px;">Event </text>
<g id="HWahaw.tif_4_">
	
		<image style="overflow:visible;enable-background:new    ;" width="1310" height="1088" id="Layer_0_4_" xlink:href="B19785DD1C4380BC.png"  transform="matrix(0.4992 0 0 0.4992 -1045.0859 353.0561)">
	</image>
</g>
<path class="st2" d="M-969.7,531.9h-22.7c-2.6,0-4.7-2.1-4.7-4.7l0,0c0-2.6,2.1-4.7,4.7-4.7h22.7c2.6,0,4.7,2.1,4.7,4.7l0,0
	C-965,529.7-967.1,531.9-969.7,531.9z"/>
<path class="st2" d="M-969.7,549h-22.7c-2.6,0-4.7-2.1-4.7-4.7l0,0c0-2.6,2.1-4.7,4.7-4.7h22.7c2.6,0,4.7,2.1,4.7,4.7l0,0
	C-965,546.8-967.1,549-969.7,549z"/>
<path class="st2" d="M-969.7,600.3h-22.7c-2.6,0-4.7-2.1-4.7-4.7l0,0c0-2.6,2.1-4.7,4.7-4.7h22.7c2.6,0,4.7,2.1,4.7,4.7l0,0
	C-965,598.2-967.1,600.3-969.7,600.3z"/>
<path class="st2" d="M-969.7,617.4h-22.7c-2.6,0-4.7-2.1-4.7-4.7l0,0c0-2.6,2.1-4.7,4.7-4.7h22.7c2.6,0,4.7,2.1,4.7,4.7l0,0
	C-965,615.3-967.1,617.4-969.7,617.4z"/>
<path class="st2" d="M-969.7,722.4h-22.7c-2.6,0-4.7-2.1-4.7-4.7l0,0c0-2.6,2.1-4.7,4.7-4.7h22.7c2.6,0,4.7,2.1,4.7,4.7l0,0
	C-965,720.3-967.1,722.4-969.7,722.4z"/>
<path class="st2" d="M-969.7,739.5h-22.7c-2.6,0-4.7-2.1-4.7-4.7l0,0c0-2.6,2.1-4.7,4.7-4.7h22.7c2.6,0,4.7,2.1,4.7,4.7l0,0
	C-965,737.4-967.1,739.5-969.7,739.5z"/>
<path class="st2" d="M-969.7,790.8h-22.7c-2.6,0-4.7-2.1-4.7-4.7l0,0c0-2.6,2.1-4.7,4.7-4.7h22.7c2.6,0,4.7,2.1,4.7,4.7l0,0
	C-965,788.7-967.1,790.8-969.7,790.8z"/>
<path class="st2" d="M-969.7,808h-22.7c-2.6,0-4.7-2.1-4.7-4.7l0,0c0-2.6,2.1-4.7,4.7-4.7h22.7c2.6,0,4.7,2.1,4.7,4.7l0,0
	C-965,805.8-967.1,808-969.7,808z"/>
<rect x="-951.7" y="506.5" class="st1" width="92.1" height="184.3"/>
<rect x="-660.6" y="454.9" class="st4" width="114.6" height="37.5"/>
<text transform="matrix(1 0 0 1 -660.6268 465.2999)" style="fill:#1C325D; font-family:'Poppins-Bold'; font-size:14px;">Workshop</text>
<rect x="-533.7" y="454.3" class="st4" width="114.6" height="37.5"/>
<text transform="matrix(1 0 0 1 -533.6764 464.6594)" style="fill:#1C325D; font-family:'Poppins-Bold'; font-size:14px;">Event </text>
<rect x="-858.2" y="497.8" class="st1" width="86.9" height="353.5"/>
<circle class="st2" cx="-775.6" cy="585.5" r="5.3"/>
<g>
	<g>
		<defs>
			<rect id="SVGID_3_" x="-914.3" y="511.8" width="76.8" height="164.9"/>
		</defs>
		<clipPath id="SVGID_4_">
			<use xlink:href="#SVGID_3_"  style="overflow:visible;"/>
		</clipPath>
		<g id="HWahaw.tif_3_" class="st5">
			
				<image style="overflow:visible;enable-background:new    ;" width="1310" height="1088" id="Layer_0_3_" xlink:href="B19785DD1C4380BF.png"  transform="matrix(0.4992 0 0 0.4992 -1007.6594 358.345)">
			</image>
		</g>
	</g>
</g>
<g>
	<path class="st6" d="M203.5,10.9l6.1,16.4h-3.7l-1.2-3.7h-6.1l-1.3,3.7h-3.6l6.2-16.4H203.5z M203.7,21l-2.1-6l0,0l-2.1,6H203.7z"
		/>
	<path class="st6" d="M214,10.9v16.4h-3.3V10.9H214z"/>
	<path class="st6" d="M219.7,10.6v6l0,0c0.4-0.6,0.9-1.1,1.6-1.3c0.7-0.3,1.4-0.4,2.1-0.4c0.6,0,1.2,0.1,1.8,0.4
		c0.6,0.2,1.1,0.6,1.6,1.1c0.5,0.5,0.8,1.2,1.1,1.9c0.3,0.8,0.4,1.7,0.4,2.8c0,1.1-0.1,2-0.4,2.8c-0.3,0.8-0.7,1.4-1.1,1.9
		c-0.5,0.5-1,0.9-1.6,1.1s-1.2,0.4-1.8,0.4c-0.9,0-1.7-0.1-2.3-0.4c-0.7-0.3-1.2-0.7-1.6-1.4l0,0V27h-3.1V10.6H219.7z M225,19.6
		c-0.1-0.5-0.3-0.9-0.5-1.2c-0.2-0.4-0.5-0.6-0.9-0.8c-0.3-0.2-0.8-0.3-1.3-0.3s-0.9,0.1-1.2,0.3c-0.4,0.2-0.6,0.5-0.9,0.8
		c-0.2,0.4-0.4,0.8-0.5,1.2c-0.1,0.5-0.2,0.9-0.2,1.4s0.1,1,0.2,1.4c0.1,0.5,0.3,0.9,0.5,1.2c0.2,0.4,0.5,0.6,0.9,0.8
		c0.4,0.2,0.8,0.3,1.2,0.3c0.5,0,0.9-0.1,1.3-0.3c0.3-0.2,0.6-0.5,0.9-0.8c0.2-0.4,0.4-0.8,0.5-1.2s0.2-0.9,0.2-1.4
		C225.1,20.6,225.1,20.1,225,19.6z"/>
	<path class="st6" d="M233.6,24.2c0.5,0.5,1.2,0.7,2.1,0.7c0.7,0,1.2-0.2,1.7-0.5s0.8-0.7,0.9-1h2.9c-0.5,1.4-1.2,2.4-2.1,3.1
		c-1,0.6-2.1,0.9-3.5,0.9c-0.9,0-1.8-0.1-2.5-0.4c-0.8-0.3-1.4-0.7-1.9-1.3c-0.5-0.6-0.9-1.2-1.2-2s-0.4-1.6-0.4-2.5
		s0.1-1.7,0.4-2.5c0.3-0.8,0.7-1.4,1.2-2s1.2-1,1.9-1.3s1.6-0.5,2.5-0.5c1,0,1.9,0.2,2.6,0.6s1.4,0.9,1.9,1.6s0.8,1.4,1,2.3
		c0.2,0.8,0.3,1.7,0.2,2.6h-8.6C232.9,22.9,233.2,23.7,233.6,24.2z M237.3,17.9c-0.4-0.4-1-0.6-1.8-0.6c-0.5,0-1,0.1-1.3,0.3
		c-0.3,0.2-0.6,0.4-0.8,0.7s-0.4,0.5-0.4,0.8c-0.1,0.3-0.1,0.6-0.1,0.8h5.3C238,19,237.7,18.3,237.3,17.9z"/>
	<path class="st6" d="M245.7,15.4v2.2l0,0c0.2-0.4,0.4-0.7,0.6-1c0.3-0.3,0.6-0.6,0.9-0.8c0.3-0.2,0.7-0.4,1.1-0.5
		c0.4-0.1,0.8-0.2,1.2-0.2c0.2,0,0.5,0,0.7,0.1v3c-0.2,0-0.3-0.1-0.6-0.1s-0.4,0-0.6,0c-0.6,0-1.1,0.1-1.5,0.3s-0.7,0.5-1,0.8
		s-0.4,0.7-0.5,1.2s-0.2,1-0.2,1.5v5.4h-3.3V15.4H245.7z"/>
	<path class="st6" d="M258.5,15.3v2.2h-2.4v5.9c0,0.6,0.1,0.9,0.3,1.1c0.2,0.2,0.6,0.3,1.1,0.3c0.2,0,0.4,0,0.5,0
		c0.2,0,0.3,0,0.5-0.1v2.5c-0.3,0-0.6,0.1-0.9,0.1s-0.7,0-1,0c-0.5,0-1,0-1.4-0.1c-0.5-0.1-0.9-0.2-1.2-0.4
		c-0.3-0.2-0.6-0.5-0.8-0.9s-0.3-0.9-0.3-1.4v-7h-2v-2.2h2v-3.6h3.3v3.6C256.2,15.3,258.5,15.3,258.5,15.3z"/>
	<path class="st6" d="M273.6,23.5c-0.1,0.6-0.4,1.2-0.7,1.8c-0.4,0.6-0.9,1-1.7,1.4c-0.7,0.4-1.7,0.6-2.9,0.6c-0.7,0-1.4-0.1-2-0.3
		c-0.6-0.2-1.2-0.5-1.7-0.9s-0.9-0.9-1.2-1.6c-0.3-0.6-0.5-1.4-0.5-2.3v-1.4h3.3v0.7c0,0.4,0,0.8,0.1,1.1s0.2,0.6,0.3,0.9
		c0.2,0.2,0.4,0.4,0.6,0.6c0.3,0.1,0.6,0.2,1,0.2c0.5,0,0.8-0.1,1.1-0.3c0.3-0.2,0.4-0.4,0.6-0.7c0.1-0.3,0.2-0.6,0.2-0.9
		s0-0.6,0-0.9v-11h3.6v11.2C273.7,22.3,273.7,22.9,273.6,23.5z"/>
	<path class="st6" d="M279,23.8v3.5h-3.6v-3.5H279z"/>
	<path class="st6" d="M288.4,22.9c0.2,0.4,0.5,0.7,0.8,0.9c0.3,0.2,0.7,0.4,1.2,0.5c0.4,0.1,0.9,0.2,1.4,0.2c0.3,0,0.7,0,1-0.1
		c0.4-0.1,0.7-0.2,1-0.3c0.3-0.2,0.6-0.4,0.8-0.6c0.2-0.3,0.3-0.6,0.3-1s-0.1-0.8-0.4-1.1c-0.3-0.3-0.7-0.5-1.1-0.7s-1-0.3-1.6-0.5
		c-0.6-0.1-1.2-0.3-1.8-0.5c-0.6-0.2-1.2-0.3-1.8-0.6s-1.1-0.5-1.6-0.9s-0.8-0.8-1.1-1.3c-0.3-0.5-0.4-1.2-0.4-1.9
		c0-0.8,0.2-1.6,0.5-2.2s0.8-1.1,1.4-1.6c0.6-0.4,1.2-0.7,2-0.9c0.7-0.2,1.5-0.3,2.2-0.3c0.9,0,1.7,0.1,2.5,0.3s1.5,0.5,2.1,0.9
		s1.1,1,1.5,1.6s0.5,1.5,0.5,2.4h-3.5c0-0.5-0.1-0.9-0.3-1.2c-0.2-0.3-0.4-0.6-0.7-0.8c-0.3-0.2-0.6-0.3-1-0.4
		c-0.4-0.1-0.8-0.1-1.2-0.1c-0.3,0-0.6,0-0.9,0.1s-0.6,0.2-0.8,0.3c-0.2,0.2-0.4,0.3-0.6,0.6s-0.2,0.5-0.2,0.9
		c0,0.3,0.1,0.6,0.2,0.8s0.4,0.4,0.7,0.6c0.4,0.2,0.9,0.3,1.5,0.5s1.5,0.4,2.5,0.6c0.3,0.1,0.7,0.2,1.3,0.3c0.5,0.2,1.1,0.4,1.6,0.8
		s1,0.8,1.4,1.4s0.6,1.3,0.6,2.3c0,0.8-0.1,1.4-0.4,2.1c-0.3,0.6-0.7,1.2-1.3,1.7c-0.6,0.5-1.3,0.8-2.1,1.1c-0.9,0.3-1.8,0.4-3,0.4
		c-0.9,0-1.8-0.1-2.6-0.3c-0.9-0.2-1.6-0.6-2.3-1c-0.7-0.5-1.2-1.1-1.6-1.8c-0.4-0.7-0.6-1.6-0.6-2.6h3.5
		C288.1,22,288.2,22.5,288.4,22.9z"/>
	<path class="st6" d="M300.9,13.6v-2.7h3.3v2.7H300.9z M304.1,15.4v11.9h-3.3V15.4H304.1z"/>
	<path class="st6" d="M308.5,15.4V17l0,0c0.4-0.6,0.9-1.1,1.6-1.4c0.6-0.3,1.3-0.5,2.1-0.5c0.8,0,1.4,0.1,2.1,0.4
		c0.6,0.3,1.1,0.8,1.4,1.5c0.4-0.5,0.8-1,1.4-1.4s1.3-0.6,2.2-0.6c0.6,0,1.2,0.1,1.7,0.2c0.5,0.2,1,0.4,1.4,0.7
		c0.4,0.3,0.7,0.8,0.9,1.3s0.3,1.2,0.3,2v8h-3.3v-6.7c0-0.4,0-0.8,0-1.1c0-0.4-0.1-0.7-0.3-0.9c-0.1-0.3-0.3-0.5-0.6-0.6
		c-0.3-0.2-0.6-0.2-1.1-0.2s-0.8,0.1-1.1,0.3c-0.3,0.2-0.5,0.4-0.7,0.7c-0.2,0.3-0.3,0.6-0.3,1c-0.1,0.4-0.1,0.7-0.1,1.1v6.6h-3.3
		v-6.7c0-0.4,0-0.7,0-1s-0.1-0.7-0.2-1s-0.3-0.5-0.6-0.7s-0.7-0.3-1.2-0.3c-0.2,0-0.4,0-0.6,0.1c-0.3,0.1-0.5,0.2-0.7,0.4
		c-0.2,0.2-0.4,0.5-0.6,0.8c-0.2,0.4-0.3,0.8-0.3,1.4v6.9h-3.3V15.4H308.5z"/>
	<path class="st6" d="M326.4,18.5c0.3-0.8,0.7-1.4,1.2-2c0.5-0.5,1.2-1,1.9-1.3c0.8-0.3,1.6-0.4,2.5-0.4s1.8,0.1,2.5,0.4
		c0.8,0.3,1.4,0.7,1.9,1.3c0.5,0.5,1,1.2,1.2,2c0.3,0.8,0.4,1.6,0.4,2.6s-0.1,1.8-0.4,2.6c-0.3,0.8-0.7,1.4-1.2,2
		c-0.5,0.5-1.2,1-1.9,1.3c-0.8,0.3-1.6,0.4-2.5,0.4s-1.8-0.1-2.5-0.4c-0.8-0.3-1.4-0.7-1.9-1.3c-0.5-0.5-1-1.2-1.2-2
		c-0.3-0.8-0.4-1.6-0.4-2.6S326.1,19.3,326.4,18.5z M329.4,22.5c0.1,0.5,0.2,0.9,0.5,1.2c0.2,0.4,0.5,0.6,0.9,0.9s0.8,0.3,1.4,0.3
		s1-0.1,1.4-0.3s0.7-0.5,0.9-0.9c0.2-0.4,0.4-0.8,0.5-1.2c0.1-0.5,0.1-0.9,0.1-1.4s0-0.9-0.1-1.4s-0.2-0.9-0.5-1.2
		c-0.2-0.4-0.5-0.6-0.9-0.9s-0.8-0.3-1.4-0.3s-1,0.1-1.4,0.3s-0.7,0.5-0.9,0.9c-0.2,0.4-0.4,0.8-0.5,1.2c-0.1,0.5-0.1,0.9-0.1,1.4
		C329.3,21.5,329.3,22,329.4,22.5z"/>
	<path class="st6" d="M343,15.4v1.7h0.1c0.4-0.7,1-1.2,1.6-1.5c0.7-0.3,1.3-0.5,2-0.5c0.9,0,1.6,0.1,2.2,0.4s1,0.6,1.3,1
		s0.5,0.9,0.7,1.5c0.1,0.6,0.2,1.3,0.2,2v7.3h-3.3v-6.7c0-1-0.2-1.7-0.5-2.2s-0.9-0.7-1.6-0.7c-0.9,0-1.5,0.3-1.9,0.8
		s-0.6,1.4-0.6,2.6v6.2h-3.3V15.4H343z"/>
	<path class="st6" d="M356.9,24.2c0.5,0.5,1.2,0.7,2.1,0.7c0.7,0,1.2-0.2,1.7-0.5s0.8-0.7,0.9-1h2.9c-0.5,1.4-1.2,2.4-2.1,3.1
		c-1,0.6-2.1,0.9-3.5,0.9c-0.9,0-1.8-0.1-2.5-0.4c-0.8-0.3-1.4-0.7-1.9-1.3c-0.5-0.6-0.9-1.2-1.2-2c-0.3-0.8-0.4-1.6-0.4-2.5
		s0.1-1.7,0.4-2.5s0.7-1.4,1.2-2s1.2-1,1.9-1.3c0.7-0.3,1.6-0.5,2.5-0.5c1,0,1.9,0.2,2.6,0.6s1.4,0.9,1.9,1.6c0.5,0.7,0.8,1.4,1,2.3
		c0.2,0.8,0.3,1.7,0.2,2.6H356C356.1,22.9,356.4,23.7,356.9,24.2z M360.6,17.9c-0.4-0.4-1-0.6-1.8-0.6c-0.5,0-1,0.1-1.3,0.3
		s-0.6,0.4-0.8,0.7s-0.4,0.5-0.4,0.8c-0.1,0.3-0.1,0.6-0.1,0.8h5.3C361.2,19,361,18.3,360.6,17.9z"/>
	<path class="st6" d="M381.4,14.9c-0.2-0.3-0.5-0.6-0.8-0.9c-0.3-0.3-0.7-0.5-1.1-0.6s-0.8-0.2-1.3-0.2c-0.8,0-1.5,0.2-2.1,0.5
		s-1,0.7-1.4,1.3s-0.6,1.1-0.8,1.8s-0.2,1.4-0.2,2.1s0.1,1.4,0.2,2s0.4,1.2,0.8,1.8c0.4,0.5,0.8,0.9,1.4,1.3
		c0.6,0.3,1.3,0.5,2.1,0.5c1.1,0,2-0.3,2.6-1s1-1.6,1.1-2.7h3.5c-0.1,1-0.3,2-0.7,2.8c-0.4,0.8-0.9,1.5-1.5,2.1s-1.4,1-2.2,1.3
		c-0.8,0.3-1.8,0.5-2.8,0.5c-1.3,0-2.4-0.2-3.4-0.7c-1-0.4-1.9-1-2.5-1.8c-0.7-0.8-1.2-1.7-1.6-2.7s-0.6-2.2-0.6-3.3
		c0-1.2,0.2-2.4,0.6-3.4s0.9-2,1.6-2.7c0.7-0.8,1.5-1.4,2.5-1.8c1-0.4,2.1-0.7,3.4-0.7c0.9,0,1.8,0.1,2.6,0.4
		c0.8,0.3,1.5,0.6,2.2,1.1c0.6,0.5,1.2,1.1,1.6,1.9c0.4,0.7,0.7,1.6,0.8,2.5h-3.5C381.7,15.6,381.6,15.2,381.4,14.9z"/>
	<path class="st6" d="M390.5,24.2c0.5,0.5,1.2,0.7,2.1,0.7c0.7,0,1.2-0.2,1.7-0.5s0.8-0.7,0.9-1h2.9c-0.5,1.4-1.2,2.4-2.1,3.1
		c-1,0.6-2.1,0.9-3.5,0.9c-0.9,0-1.8-0.1-2.5-0.4c-0.8-0.3-1.4-0.7-1.9-1.3c-0.5-0.6-0.9-1.2-1.2-2c-0.3-0.8-0.4-1.6-0.4-2.5
		s0.1-1.7,0.4-2.5s0.7-1.4,1.2-2s1.2-1,1.9-1.3c0.7-0.3,1.6-0.5,2.5-0.5c1,0,1.9,0.2,2.6,0.6s1.4,0.9,1.9,1.6c0.5,0.7,0.8,1.4,1,2.3
		c0.2,0.8,0.3,1.7,0.2,2.6h-8.6C389.8,22.9,390.1,23.7,390.5,24.2z M394.2,17.9c-0.4-0.4-1-0.6-1.8-0.6c-0.5,0-1,0.1-1.3,0.3
		s-0.6,0.4-0.8,0.7s-0.4,0.5-0.4,0.8c-0.1,0.3-0.1,0.6-0.1,0.8h5.3C394.9,19,394.6,18.3,394.2,17.9z"/>
	<path class="st6" d="M403.1,15.4v1.7h0.1c0.4-0.7,1-1.2,1.6-1.5c0.7-0.3,1.3-0.5,2-0.5c0.9,0,1.6,0.1,2.2,0.4s1,0.6,1.3,1
		s0.5,0.9,0.7,1.5c0.1,0.6,0.2,1.3,0.2,2v7.3h-3.3v-6.7c0-1-0.2-1.7-0.5-2.2s-0.9-0.7-1.6-0.7c-0.9,0-1.5,0.3-1.9,0.8
		s-0.6,1.4-0.6,2.6v6.2H400V15.4H403.1z"/>
	<path class="st6" d="M419.7,15.3v2.2h-2.4v5.9c0,0.6,0.1,0.9,0.3,1.1c0.2,0.2,0.6,0.3,1.1,0.3c0.2,0,0.4,0,0.5,0
		c0.2,0,0.3,0,0.5-0.1v2.5c-0.3,0-0.6,0.1-0.9,0.1s-0.7,0-1,0c-0.5,0-1,0-1.4-0.1c-0.5-0.1-0.9-0.2-1.2-0.4
		c-0.3-0.2-0.6-0.5-0.8-0.9c-0.2-0.4-0.3-0.9-0.3-1.4v-7h-2v-2.2h2v-3.6h3.3v3.6C417.4,15.3,419.7,15.3,419.7,15.3z"/>
	<path class="st6" d="M424.6,24.2c0.5,0.5,1.2,0.7,2.1,0.7c0.7,0,1.2-0.2,1.7-0.5s0.8-0.7,0.9-1h2.9c-0.5,1.4-1.2,2.4-2.1,3.1
		c-1,0.6-2.1,0.9-3.5,0.9c-0.9,0-1.8-0.1-2.5-0.4c-0.8-0.3-1.4-0.7-1.9-1.3c-0.5-0.6-0.9-1.2-1.2-2c-0.3-0.8-0.4-1.6-0.4-2.5
		s0.1-1.7,0.4-2.5s0.7-1.4,1.2-2s1.2-1,1.9-1.3c0.7-0.3,1.6-0.5,2.5-0.5c1,0,1.9,0.2,2.6,0.6s1.4,0.9,1.9,1.6c0.5,0.7,0.8,1.4,1,2.3
		c0.2,0.8,0.3,1.7,0.2,2.6h-8.6C423.8,22.9,424.1,23.7,424.6,24.2z M428.3,17.9c-0.4-0.4-1-0.6-1.8-0.6c-0.5,0-1,0.1-1.3,0.3
		s-0.6,0.4-0.8,0.7s-0.4,0.5-0.4,0.8c-0.1,0.3-0.1,0.6-0.1,0.8h5.3C428.9,19,428.6,18.3,428.3,17.9z"/>
	<path class="st6" d="M437.2,15.4v2.2l0,0c0.2-0.4,0.4-0.7,0.6-1c0.3-0.3,0.6-0.6,0.9-0.8s0.7-0.4,1.1-0.5s0.8-0.2,1.2-0.2
		c0.2,0,0.5,0,0.7,0.1v3c-0.2,0-0.3-0.1-0.6-0.1s-0.4,0-0.6,0c-0.6,0-1.1,0.1-1.5,0.3s-0.7,0.5-1,0.8s-0.4,0.7-0.5,1.2
		s-0.2,1-0.2,1.5v5.4H434V15.4H437.2z"/>
	<path class="st6" d="M445.6,17.6v-2.2h2v-0.9c0-1.1,0.3-1.9,1-2.6s1.7-1,3-1c0.3,0,0.6,0,0.9,0s0.6,0,0.9,0.1v2.4
		c-0.4,0-0.8-0.1-1.2-0.1c-0.4,0-0.8,0.1-1,0.3s-0.3,0.6-0.3,1v0.7h2.3v2.2h-2.3v9.7h-3.3v-9.7h-2V17.6z"/>
	<path class="st6" d="M454.5,18.5c0.3-0.8,0.7-1.4,1.2-2c0.5-0.5,1.2-1,1.9-1.3c0.8-0.3,1.6-0.4,2.5-0.4s1.8,0.1,2.5,0.4
		c0.8,0.3,1.4,0.7,1.9,1.3c0.5,0.5,1,1.2,1.2,2c0.3,0.8,0.4,1.6,0.4,2.6s-0.1,1.8-0.4,2.6c-0.3,0.8-0.7,1.4-1.2,2
		c-0.5,0.5-1.2,1-1.9,1.3c-0.8,0.3-1.6,0.4-2.5,0.4s-1.8-0.1-2.5-0.4c-0.8-0.3-1.4-0.7-1.9-1.3c-0.5-0.5-1-1.2-1.2-2
		c-0.3-0.8-0.4-1.6-0.4-2.6C454,20.1,454.2,19.3,454.5,18.5z M457.4,22.5c0.1,0.5,0.2,0.9,0.5,1.2c0.2,0.4,0.5,0.6,0.9,0.9
		s0.8,0.3,1.4,0.3s1-0.1,1.4-0.3s0.7-0.5,0.9-0.9c0.2-0.4,0.4-0.8,0.5-1.2c0.1-0.5,0.1-0.9,0.1-1.4s0-0.9-0.1-1.4s-0.2-0.9-0.5-1.2
		c-0.2-0.4-0.5-0.6-0.9-0.9s-0.8-0.3-1.4-0.3s-1,0.1-1.4,0.3s-0.7,0.5-0.9,0.9c-0.2,0.4-0.4,0.8-0.5,1.2c-0.1,0.5-0.1,0.9-0.1,1.4
		C457.3,21.5,457.3,22,457.4,22.5z"/>
	<path class="st6" d="M471.2,15.4v2.2l0,0c0.2-0.4,0.4-0.7,0.6-1c0.3-0.3,0.6-0.6,0.9-0.8s0.7-0.4,1.1-0.5s0.8-0.2,1.2-0.2
		c0.2,0,0.5,0,0.7,0.1v3c-0.2,0-0.3-0.1-0.6-0.1s-0.4,0-0.6,0c-0.6,0-1.1,0.1-1.5,0.3s-0.7,0.5-1,0.8s-0.4,0.7-0.5,1.2
		s-0.2,1-0.2,1.5v5.4H468V15.4H471.2z"/>
	<path class="st6" d="M196.5,35.2v16.4h-3.6V35.2H196.5z"/>
	<path class="st6" d="M202.4,39.7v1.7h0.1c0.4-0.7,1-1.2,1.6-1.5c0.7-0.3,1.3-0.5,2-0.5c0.9,0,1.6,0.1,2.2,0.4c0.6,0.2,1,0.6,1.3,1
		s0.5,0.9,0.7,1.5c0.1,0.6,0.2,1.3,0.2,2v7.3h-3.3v-6.7c0-1-0.2-1.7-0.5-2.2s-0.9-0.7-1.6-0.7c-0.9,0-1.5,0.3-1.9,0.8
		s-0.6,1.4-0.6,2.6v6.2h-3.3V39.7H202.4z"/>
	<path class="st6" d="M216,39.7v1.7h0.1c0.4-0.7,1-1.2,1.6-1.5c0.7-0.3,1.3-0.5,2-0.5c0.9,0,1.6,0.1,2.2,0.4c0.6,0.2,1,0.6,1.3,1
		s0.5,0.9,0.7,1.5c0.1,0.6,0.2,1.3,0.2,2v7.3h-3.3v-6.7c0-1-0.2-1.7-0.5-2.2s-0.9-0.7-1.6-0.7c-0.9,0-1.5,0.3-1.9,0.8
		s-0.6,1.4-0.6,2.6v6.2h-3.3V39.7H216z"/>
	<path class="st6" d="M226.6,42.8c0.3-0.8,0.7-1.4,1.2-2c0.5-0.5,1.2-1,1.9-1.3c0.8-0.3,1.6-0.4,2.5-0.4s1.8,0.1,2.5,0.4
		c0.8,0.3,1.4,0.7,1.9,1.3c0.5,0.5,1,1.2,1.2,2c0.3,0.8,0.4,1.6,0.4,2.6s-0.1,1.8-0.4,2.6c-0.3,0.8-0.7,1.4-1.2,2
		c-0.5,0.5-1.2,1-1.9,1.3c-0.8,0.3-1.6,0.4-2.5,0.4s-1.8-0.1-2.5-0.4c-0.8-0.3-1.4-0.7-1.9-1.3c-0.5-0.5-1-1.2-1.2-2
		c-0.3-0.8-0.4-1.6-0.4-2.6C226.2,44.4,226.4,43.5,226.6,42.8z M229.6,46.7c0.1,0.5,0.2,0.9,0.5,1.2c0.2,0.4,0.5,0.6,0.9,0.9
		c0.4,0.2,0.8,0.3,1.4,0.3c0.6,0,1-0.1,1.4-0.3s0.7-0.5,0.9-0.9s0.4-0.8,0.5-1.2c0.1-0.5,0.1-0.9,0.1-1.4s0-0.9-0.1-1.4
		s-0.2-0.9-0.5-1.2c-0.2-0.4-0.5-0.6-0.9-0.9c-0.4-0.2-0.8-0.3-1.4-0.3c-0.6,0-1,0.1-1.4,0.3s-0.7,0.5-0.9,0.9s-0.4,0.8-0.5,1.2
		c-0.1,0.5-0.1,0.9-0.1,1.4S229.5,46.3,229.6,46.7z"/>
	<path class="st6" d="M242.7,51.6l-4.1-11.9h3.4l2.5,8.1l0,0l2.5-8.1h3.2l-4,11.9H242.7z"/>
	<path class="st6" d="M250.7,43c0-0.8,0.2-1.4,0.6-1.9s0.8-0.9,1.3-1.2s1.1-0.5,1.8-0.7c0.7-0.1,1.3-0.2,2-0.2c0.6,0,1.2,0,1.8,0.1
		c0.6,0.1,1.2,0.2,1.7,0.5c0.5,0.2,0.9,0.6,1.2,1c0.3,0.4,0.5,1,0.5,1.7v6.2c0,0.5,0,1.1,0.1,1.5s0.2,0.9,0.3,1.1h-3.3
		c-0.1-0.2-0.1-0.4-0.1-0.6c0-0.2-0.1-0.4-0.1-0.6c-0.5,0.5-1.1,0.9-1.8,1.1c-0.7,0.2-1.4,0.3-2.2,0.3c-0.6,0-1.1-0.1-1.6-0.2
		c-0.5-0.1-0.9-0.4-1.3-0.6c-0.4-0.3-0.7-0.7-0.9-1.1s-0.3-1-0.3-1.6c0-0.7,0.1-1.2,0.4-1.7c0.2-0.4,0.5-0.8,0.9-1
		c0.4-0.3,0.8-0.5,1.3-0.6s1-0.2,1.5-0.3s1-0.1,1.4-0.2c0.5,0,0.9-0.1,1.3-0.2c0.4-0.1,0.7-0.2,0.9-0.4s0.3-0.4,0.3-0.8
		c0-0.4-0.1-0.6-0.2-0.8s-0.3-0.4-0.5-0.5s-0.4-0.2-0.7-0.2c-0.3,0-0.5-0.1-0.8-0.1c-0.6,0-1.2,0.1-1.5,0.4
		c-0.4,0.3-0.6,0.7-0.6,1.4h-3.4V43z M258.3,45.5c-0.1,0.1-0.3,0.2-0.5,0.3s-0.4,0.1-0.7,0.2c-0.2,0-0.5,0.1-0.7,0.1
		c-0.3,0-0.5,0.1-0.8,0.1c-0.2,0-0.5,0.1-0.7,0.2c-0.2,0.1-0.4,0.2-0.6,0.3c-0.2,0.1-0.3,0.3-0.4,0.5c-0.1,0.2-0.2,0.5-0.2,0.8
		s0.1,0.5,0.2,0.7c0.1,0.2,0.3,0.4,0.4,0.5c0.2,0.1,0.4,0.2,0.6,0.2s0.5,0.1,0.8,0.1c0.6,0,1.1-0.1,1.5-0.3s0.6-0.5,0.8-0.8
		c0.2-0.3,0.3-0.6,0.3-0.9c0-0.3,0.1-0.6,0.1-0.7L258.3,45.5L258.3,45.5z"/>
	<path class="st6" d="M270.4,39.6v2.2H268v5.9c0,0.6,0.1,0.9,0.3,1.1c0.2,0.2,0.6,0.3,1.1,0.3c0.2,0,0.4,0,0.5,0
		c0.2,0,0.3,0,0.5-0.1v2.5c-0.3,0-0.6,0.1-0.9,0.1s-0.7,0-1,0c-0.5,0-1,0-1.4-0.1c-0.5-0.1-0.9-0.2-1.2-0.4
		c-0.3-0.2-0.6-0.5-0.8-0.9c-0.2-0.4-0.3-0.9-0.3-1.4v-7h-2v-2.2h2V36h3.3v3.6H270.4z"/>
	<path class="st6" d="M271.8,37.8v-2.7h3.3v2.7H271.8z M275.1,39.7v11.9h-3.3V39.7H275.1z"/>
	<path class="st6" d="M277,42.8c0.3-0.8,0.7-1.4,1.2-2c0.5-0.5,1.2-1,1.9-1.3c0.8-0.3,1.6-0.4,2.5-0.4s1.8,0.1,2.5,0.4
		c0.8,0.3,1.4,0.7,1.9,1.3c0.5,0.5,1,1.2,1.2,2c0.3,0.8,0.4,1.6,0.4,2.6s-0.1,1.8-0.4,2.6s-0.7,1.4-1.2,2c-0.5,0.5-1.2,1-1.9,1.3
		c-0.8,0.3-1.6,0.4-2.5,0.4s-1.8-0.1-2.5-0.4c-0.8-0.3-1.4-0.7-1.9-1.3c-0.5-0.5-1-1.2-1.2-2c-0.3-0.8-0.4-1.6-0.4-2.6
		C276.6,44.4,276.8,43.5,277,42.8z M280,46.7c0.1,0.5,0.2,0.9,0.5,1.2c0.2,0.4,0.5,0.6,0.9,0.9s0.8,0.3,1.4,0.3s1-0.1,1.4-0.3
		s0.7-0.5,0.9-0.9c0.2-0.4,0.4-0.8,0.5-1.2c0.1-0.5,0.1-0.9,0.1-1.4s0-0.9-0.1-1.4s-0.2-0.9-0.5-1.2c-0.2-0.4-0.5-0.6-0.9-0.9
		s-0.8-0.3-1.4-0.3s-1,0.1-1.4,0.3s-0.7,0.5-0.9,0.9c-0.2,0.4-0.4,0.8-0.5,1.2c-0.1,0.5-0.1,0.9-0.1,1.4S279.9,46.3,280,46.7z"/>
	<path class="st6" d="M293.8,39.7v1.7h0.1c0.4-0.7,1-1.2,1.6-1.5c0.7-0.3,1.3-0.5,2-0.5c0.9,0,1.6,0.1,2.2,0.4s1,0.6,1.3,1
		s0.5,0.9,0.7,1.5c0.1,0.6,0.2,1.3,0.2,2v7.3h-3.3v-6.7c0-1-0.2-1.7-0.5-2.2s-0.9-0.7-1.6-0.7c-0.9,0-1.5,0.3-1.9,0.8
		s-0.6,1.4-0.6,2.6v6.2h-3.3V39.7H293.8z"/>
	<path class="st6" d="M307.6,43c0-0.8,0.2-1.4,0.6-1.9s0.8-0.9,1.3-1.2s1.1-0.5,1.8-0.7c0.7-0.1,1.3-0.2,2-0.2c0.6,0,1.2,0,1.8,0.1
		c0.6,0.1,1.2,0.2,1.7,0.5c0.5,0.2,0.9,0.6,1.2,1c0.3,0.4,0.5,1,0.5,1.7v6.2c0,0.5,0,1.1,0.1,1.5s0.2,0.9,0.3,1.1h-3.3
		c-0.1-0.2-0.1-0.4-0.1-0.6c0-0.2-0.1-0.4-0.1-0.6c-0.5,0.5-1.1,0.9-1.8,1.1c-0.7,0.2-1.4,0.3-2.2,0.3c-0.6,0-1.1-0.1-1.6-0.2
		c-0.5-0.1-0.9-0.4-1.3-0.6c-0.4-0.3-0.7-0.7-0.9-1.1s-0.3-1-0.3-1.6c0-0.7,0.1-1.2,0.4-1.7c0.2-0.4,0.5-0.8,0.9-1
		c0.4-0.3,0.8-0.5,1.3-0.6s1-0.2,1.5-0.3s1-0.1,1.4-0.2s0.9-0.1,1.3-0.2c0.4-0.1,0.7-0.2,0.9-0.4s0.3-0.4,0.3-0.8
		c0-0.4-0.1-0.6-0.2-0.8s-0.3-0.4-0.5-0.5s-0.4-0.2-0.7-0.2c-0.3,0-0.5-0.1-0.8-0.1c-0.6,0-1.2,0.1-1.5,0.4
		c-0.4,0.3-0.6,0.7-0.6,1.4h-3.4V43z M315.1,45.5c-0.1,0.1-0.3,0.2-0.5,0.3s-0.4,0.1-0.7,0.2c-0.2,0-0.5,0.1-0.7,0.1
		c-0.3,0-0.5,0.1-0.8,0.1c-0.2,0-0.5,0.1-0.7,0.2c-0.2,0.1-0.4,0.2-0.6,0.3s-0.3,0.3-0.4,0.5s-0.2,0.5-0.2,0.8s0.1,0.5,0.2,0.7
		s0.3,0.4,0.4,0.5c0.2,0.1,0.4,0.2,0.6,0.2s0.5,0.1,0.8,0.1c0.6,0,1.1-0.1,1.5-0.3s0.6-0.5,0.8-0.8c0.2-0.3,0.3-0.6,0.3-0.9
		c0-0.3,0.1-0.6,0.1-0.7L315.1,45.5L315.1,45.5z"/>
	<path class="st6" d="M324,39.7v1.7h0.1c0.4-0.7,1-1.2,1.6-1.5c0.7-0.3,1.3-0.5,2-0.5c0.9,0,1.6,0.1,2.2,0.4s1,0.6,1.3,1
		s0.5,0.9,0.7,1.5c0.1,0.6,0.2,1.3,0.2,2v7.3h-3.3v-6.7c0-1-0.2-1.7-0.5-2.2s-0.9-0.7-1.6-0.7c-0.9,0-1.5,0.3-1.9,0.8
		s-0.6,1.4-0.6,2.6v6.2h-3.3V39.7H324z"/>
	<path class="st6" d="M342.2,49.8c-0.4,0.6-0.9,1.1-1.5,1.4s-1.3,0.4-2.1,0.4c-0.9,0-1.7-0.2-2.3-0.5c-0.7-0.3-1.2-0.8-1.7-1.4
		c-0.4-0.6-0.8-1.3-1-2c-0.2-0.8-0.3-1.6-0.3-2.4c0-0.8,0.1-1.6,0.3-2.3s0.6-1.4,1-2s1-1,1.6-1.4c0.7-0.3,1.4-0.5,2.3-0.5
		c0.7,0,1.4,0.1,2,0.4c0.6,0.3,1.1,0.7,1.5,1.3l0,0v-6h3.3v16.4h-3.1L342.2,49.8L342.2,49.8z M342.1,43.9c-0.1-0.5-0.2-0.9-0.5-1.2
		c-0.2-0.3-0.5-0.6-0.9-0.8s-0.8-0.3-1.3-0.3s-1,0.1-1.4,0.3s-0.7,0.5-0.9,0.9c-0.2,0.4-0.4,0.8-0.5,1.2c-0.1,0.5-0.1,0.9-0.1,1.4
		s0.1,0.9,0.2,1.4s0.3,0.9,0.5,1.2c0.2,0.4,0.5,0.7,0.9,0.9s0.8,0.3,1.3,0.3s1-0.1,1.3-0.3s0.6-0.5,0.9-0.9c0.2-0.4,0.4-0.8,0.5-1.2
		s0.1-0.9,0.1-1.4S342.2,44.3,342.1,43.9z"/>
	<path class="st6" d="M364,34.7v3h-8.7v3.5h8V44h-8v4h8.9v3h-12.5V34.7H364z"/>
	<path class="st6" d="M369.4,39.3V41h0.1c0.4-0.7,1-1.2,1.6-1.5c0.7-0.3,1.3-0.5,2-0.5c0.9,0,1.6,0.1,2.2,0.4s1,0.6,1.3,1
		s0.5,0.9,0.7,1.5c0.1,0.6,0.2,1.3,0.2,2v7.3h-3.3v-6.7c0-1-0.2-1.7-0.5-2.2s-0.9-0.7-1.6-0.7c-0.9,0-1.5,0.3-1.9,0.8
		s-0.6,1.4-0.6,2.6v6.2h-3.3V39.3H369.4z"/>
	<path class="st6" d="M386.4,39.1v2.2H384v5.9c0,0.6,0.1,0.9,0.3,1.1c0.2,0.2,0.6,0.3,1.1,0.3c0.2,0,0.4,0,0.5,0
		c0.2,0,0.3,0,0.5-0.1V51c-0.3,0-0.6,0.1-0.9,0.1s-0.7,0-1,0c-0.5,0-1,0-1.4-0.1c-0.5-0.1-0.9-0.2-1.2-0.4c-0.3-0.2-0.6-0.5-0.8-0.9
		c-0.2-0.4-0.3-0.9-0.3-1.4v-7h-2v-2.2h2v-3.6h3.3v3.6C384.1,39.1,386.4,39.1,386.4,39.1z"/>
	<path class="st6" d="M391.1,39.3v2.2l0,0c0.2-0.4,0.4-0.7,0.6-1c0.3-0.3,0.6-0.6,0.9-0.8s0.7-0.4,1.1-0.5s0.8-0.2,1.2-0.2
		c0.2,0,0.5,0,0.7,0.1v3c-0.2,0-0.3-0.1-0.6-0.1s-0.4,0-0.6,0c-0.6,0-1.1,0.1-1.5,0.3s-0.7,0.5-1,0.8s-0.4,0.7-0.5,1.2
		s-0.2,1-0.2,1.5v5.4H388V39.3H391.1z"/>
	<path class="st6" d="M400,48c0.5,0.5,1.2,0.7,2.1,0.7c0.7,0,1.2-0.2,1.7-0.5s0.8-0.7,0.9-1h2.9c-0.5,1.4-1.2,2.4-2.1,3.1
		c-1,0.6-2.1,0.9-3.5,0.9c-0.9,0-1.8-0.1-2.5-0.4c-0.8-0.3-1.4-0.7-1.9-1.3s-0.9-1.2-1.2-2c-0.3-0.8-0.4-1.6-0.4-2.5
		s0.1-1.7,0.4-2.5s0.7-1.4,1.2-2s1.2-1,1.9-1.3c0.7-0.3,1.6-0.5,2.5-0.5c1,0,1.9,0.2,2.6,0.6s1.4,0.9,1.9,1.6c0.5,0.7,0.8,1.4,1,2.3
		c0.2,0.8,0.3,1.7,0.2,2.6h-8.6C399.3,46.8,399.5,47.5,400,48z M403.7,41.7c-0.4-0.4-1-0.6-1.8-0.6c-0.5,0-1,0.1-1.3,0.3
		s-0.6,0.4-0.8,0.7s-0.4,0.5-0.4,0.8c-0.1,0.3-0.1,0.6-0.1,0.8h5.3C404.4,42.8,404.1,42.2,403.7,41.7z"/>
	<path class="st6" d="M412,38.8v1.5l0,0c0.4-0.6,0.9-1.1,1.5-1.4c0.6-0.3,1.3-0.4,2-0.4c0.9,0,1.7,0.2,2.4,0.5
		c0.7,0.4,1.2,0.8,1.7,1.4c0.4,0.6,0.8,1.3,1,2c0.2,0.8,0.3,1.6,0.3,2.4c0,0.8-0.1,1.6-0.3,2.3s-0.5,1.4-1,2c-0.4,0.6-1,1-1.6,1.4
		s-1.4,0.5-2.3,0.5c-0.7,0-1.4-0.1-2-0.4c-0.6-0.3-1.1-0.7-1.5-1.3l0,0v5.6h-3.3V38.8H412z M416.3,48.2c0.4-0.2,0.7-0.5,0.9-0.8
		c0.2-0.3,0.4-0.7,0.5-1.2s0.1-0.9,0.1-1.4s0-0.9-0.1-1.4s-0.3-0.9-0.5-1.2c-0.2-0.4-0.5-0.7-0.9-0.9S415.5,41,415,41
		s-1,0.1-1.3,0.3c-0.4,0.2-0.7,0.5-0.9,0.9c-0.2,0.4-0.4,0.8-0.5,1.2s-0.1,0.9-0.1,1.4s0,0.9,0.2,1.4c0.1,0.5,0.3,0.9,0.5,1.2
		s0.5,0.6,0.9,0.8s0.8,0.3,1.3,0.3C415.5,48.5,415.9,48.4,416.3,48.2z"/>
	<path class="st6" d="M425.6,39.3v2.2l0,0c0.2-0.4,0.4-0.7,0.6-1c0.3-0.3,0.6-0.6,0.9-0.8s0.7-0.4,1.1-0.5s0.8-0.2,1.2-0.2
		c0.2,0,0.5,0,0.7,0.1v3c-0.2,0-0.3-0.1-0.6-0.1s-0.4,0-0.6,0c-0.6,0-1.1,0.1-1.5,0.3s-0.7,0.5-1,0.8s-0.4,0.7-0.5,1.2
		s-0.2,1-0.2,1.5v5.4h-3.3V39.3H425.6z"/>
	<path class="st6" d="M434.5,48c0.5,0.5,1.2,0.7,2.1,0.7c0.7,0,1.2-0.2,1.7-0.5s0.8-0.7,0.9-1h2.9c-0.5,1.4-1.2,2.4-2.1,3.1
		c-1,0.6-2.1,0.9-3.5,0.9c-0.9,0-1.8-0.1-2.5-0.4c-0.8-0.3-1.4-0.7-1.9-1.3s-0.9-1.2-1.2-2c-0.3-0.8-0.4-1.6-0.4-2.5
		s0.1-1.7,0.4-2.5s0.7-1.4,1.2-2s1.2-1,1.9-1.3c0.7-0.3,1.6-0.5,2.5-0.5c1,0,1.9,0.2,2.6,0.6s1.4,0.9,1.9,1.6c0.5,0.7,0.8,1.4,1,2.3
		c0.2,0.8,0.3,1.7,0.2,2.6h-8.6C433.8,46.8,434.1,47.5,434.5,48z M438.2,41.7c-0.4-0.4-1-0.6-1.8-0.6c-0.5,0-1,0.1-1.3,0.3
		s-0.6,0.4-0.8,0.7s-0.4,0.5-0.4,0.8c-0.1,0.3-0.1,0.6-0.1,0.8h5.3C438.9,42.8,438.6,42.2,438.2,41.7z"/>
	<path class="st6" d="M447.1,39.3V41h0.1c0.4-0.7,1-1.2,1.6-1.5c0.7-0.3,1.3-0.5,2-0.5c0.9,0,1.6,0.1,2.2,0.4s1,0.6,1.3,1
		s0.5,0.9,0.7,1.5c0.1,0.6,0.2,1.3,0.2,2v7.3h-3.3v-6.7c0-1-0.2-1.7-0.5-2.2s-0.9-0.7-1.6-0.7c-0.9,0-1.5,0.3-1.9,0.8
		s-0.6,1.4-0.6,2.6v6.2H444V39.3H447.1z"/>
	<path class="st6" d="M460.5,48c0.5,0.5,1.2,0.7,2.1,0.7c0.7,0,1.2-0.2,1.7-0.5s0.8-0.7,0.9-1h2.9c-0.5,1.4-1.2,2.4-2.1,3.1
		c-1,0.6-2.1,0.9-3.5,0.9c-0.9,0-1.8-0.1-2.5-0.4c-0.8-0.3-1.4-0.7-1.9-1.3s-0.9-1.2-1.2-2c-0.3-0.8-0.4-1.6-0.4-2.5
		s0.1-1.7,0.4-2.5s0.7-1.4,1.2-2s1.2-1,1.9-1.3c0.7-0.3,1.6-0.5,2.5-0.5c1,0,1.9,0.2,2.6,0.6s1.4,0.9,1.9,1.6c0.5,0.7,0.8,1.4,1,2.3
		c0.2,0.8,0.3,1.7,0.2,2.6h-8.6C459.7,46.8,460,47.5,460.5,48z M464.2,41.7c-0.4-0.4-1-0.6-1.8-0.6c-0.5,0-1,0.1-1.3,0.3
		s-0.6,0.4-0.8,0.7s-0.4,0.5-0.4,0.8c-0.1,0.3-0.1,0.6-0.1,0.8h5.3C464.8,42.8,464.6,42.2,464.2,41.7z"/>
	<path class="st6" d="M478.1,50.9v-1.7H478c-0.4,0.7-1,1.2-1.6,1.5c-0.7,0.3-1.3,0.5-2,0.5c-0.9,0-1.6-0.1-2.2-0.3s-1-0.6-1.3-1
		s-0.5-0.9-0.7-1.5c-0.1-0.6-0.2-1.3-0.2-2V39h3.3v6.7c0,1,0.2,1.7,0.5,2.2s0.9,0.7,1.6,0.7c0.9,0,1.5-0.3,1.9-0.8s0.6-1.4,0.6-2.6
		V39h3.3v11.9H478.1z"/>
	<path class="st6" d="M486.6,39.3v2.2l0,0c0.2-0.4,0.4-0.7,0.6-1c0.3-0.3,0.6-0.6,0.9-0.8s0.7-0.4,1.1-0.5s0.8-0.2,1.2-0.2
		c0.2,0,0.5,0,0.7,0.1v3c-0.2,0-0.3-0.1-0.6-0.1s-0.4,0-0.6,0c-0.6,0-1.1,0.1-1.5,0.3s-0.7,0.5-1,0.8s-0.4,0.7-0.5,1.2
		s-0.2,1-0.2,1.5v5.4h-3.3V39.3H486.6z"/>
	<path class="st6" d="M494.5,47.9c0.1,0.3,0.3,0.5,0.6,0.6c0.2,0.2,0.5,0.3,0.8,0.4c0.3,0.1,0.6,0.1,0.9,0.1c0.2,0,0.5,0,0.7-0.1
		s0.5-0.1,0.7-0.3c0.2-0.1,0.4-0.3,0.5-0.5s0.2-0.4,0.2-0.7c0-0.5-0.3-0.9-1-1.1s-1.6-0.5-2.7-0.7c-0.5-0.1-0.9-0.2-1.4-0.4
		c-0.5-0.1-0.9-0.3-1.2-0.6c-0.4-0.2-0.6-0.5-0.9-0.9s-0.3-0.8-0.3-1.3c0-0.8,0.1-1.4,0.4-1.9s0.7-0.9,1.2-1.2s1-0.5,1.7-0.6
		c0.6-0.1,1.2-0.2,1.9-0.2c0.6,0,1.3,0.1,1.9,0.2s1.1,0.3,1.6,0.6s0.9,0.7,1.2,1.2c0.3,0.5,0.5,1.1,0.6,1.8h-3.1
		c0-0.6-0.3-1.1-0.7-1.3c-0.4-0.2-0.9-0.3-1.5-0.3c-0.2,0-0.4,0-0.6,0s-0.4,0.1-0.6,0.1c-0.2,0.1-0.3,0.2-0.4,0.3s-0.2,0.3-0.2,0.6
		s0.1,0.5,0.3,0.7c0.2,0.2,0.5,0.3,0.8,0.4c0.3,0.1,0.7,0.2,1.2,0.3c0.4,0.1,0.9,0.2,1.4,0.3s0.9,0.2,1.4,0.4s0.9,0.4,1.2,0.6
		s0.6,0.6,0.9,0.9c0.2,0.4,0.3,0.8,0.3,1.4c0,0.8-0.2,1.4-0.5,2c-0.3,0.5-0.7,1-1.2,1.3s-1.1,0.5-1.7,0.7c-0.7,0.1-1.3,0.2-2,0.2
		s-1.4-0.1-2-0.2c-0.7-0.1-1.2-0.4-1.8-0.7c-0.5-0.3-0.9-0.7-1.3-1.3c-0.3-0.5-0.5-1.2-0.5-2h3.1C494.3,47.3,494.4,47.6,494.5,47.9z
		"/>
	<path class="st6" d="M506.5,34.7v6.2h0.1c0.4-0.7,0.9-1.2,1.6-1.5c0.6-0.3,1.3-0.5,1.9-0.5c0.9,0,1.6,0.1,2.2,0.4s1,0.6,1.3,1
		s0.5,0.9,0.7,1.5c0.1,0.6,0.2,1.3,0.2,2v7.3h-3.3v-6.7c0-1-0.2-1.7-0.5-2.2s-0.9-0.7-1.6-0.7c-0.9,0-1.5,0.3-1.9,0.8
		s-0.6,1.4-0.6,2.6v6.2h-3.3V34.7H506.5z"/>
	<path class="st6" d="M516.6,37.4v-2.7h3.3v2.7H516.6z M519.9,39.3v11.9h-3.3V39.3H519.9z"/>
	<path class="st6" d="M524.9,38.8v1.5l0,0c0.4-0.6,0.9-1.1,1.5-1.4c0.6-0.3,1.3-0.4,2-0.4c0.9,0,1.7,0.2,2.4,0.5
		c0.7,0.4,1.2,0.8,1.7,1.4c0.4,0.6,0.8,1.3,1,2c0.2,0.8,0.3,1.6,0.3,2.4c0,0.8-0.1,1.6-0.3,2.3s-0.5,1.4-1,2c-0.4,0.6-1,1-1.6,1.4
		s-1.4,0.5-2.3,0.5c-0.7,0-1.4-0.1-2-0.4c-0.6-0.3-1.1-0.7-1.5-1.3l0,0v5.6h-3.3V38.8H524.9z M529.1,48.2c0.4-0.2,0.7-0.5,0.9-0.8
		s0.4-0.7,0.5-1.2s0.1-0.9,0.1-1.4s0-0.9-0.1-1.4s-0.3-0.9-0.5-1.2c-0.2-0.4-0.5-0.7-0.9-0.9s-0.8-0.3-1.3-0.3s-1,0.1-1.3,0.3
		c-0.4,0.2-0.7,0.5-0.9,0.9s-0.4,0.8-0.5,1.2s-0.1,0.9-0.1,1.4s0,0.9,0.2,1.4c0.1,0.5,0.3,0.9,0.5,1.2s0.5,0.6,0.9,0.8
		s0.8,0.3,1.3,0.3C528.3,48.5,528.8,48.4,529.1,48.2z"/>
</g>
<g>
	<rect x="175.6" y="0.5" class="st6" width="2" height="59.4"/>
</g>
<g>
	<path class="st6" d="M87.6,6.6c1-2.7,4.5-2.7,7.2-2.7h0.5V0.1c0,0-10.8,0.2-14.1,0.2c-3.4,0-13.5-0.2-13.5-0.2v3.8h0.5
		c2.8,0,6.2,0,7.2,2.7c0.7,3.9,1,7.8,0.9,11.8v24c0.2,3.9-0.1,7.9-0.9,11.8c-1,2.7-4.5,2.7-7.2,2.7h-0.5v3.8c0,0,8.7-0.4,13.5-0.4
		c5.5,0,14.1,0.4,14.1,0.4v-3.8h-0.5c-2.8,0-6.2,0-7.2-2.7c-0.7-3.9-1-7.8-0.9-11.8v-24C86.5,14.4,86.8,10.5,87.6,6.6z"/>
	<path class="st6" d="M103.5,0.2v15.7h3.7v-0.5c0.3-10.2,4.2-10.6,13.1-10.6c0.3,0,0.6,0,0.9,0c2.2,0,4.3,0,5.1,0.8
		c0.3,0.3,0.4,0.7,0.4,1.1V48c0,6.1-0.9,8.7-9.5,9h-0.5v3.7c0,0,10.1-0.4,15.9-0.4c4.4,0,14.4,0.4,14.4,0.4V57h-0.5
		c-8.6-0.4-9.5-2.9-9.5-9V6.6c0-0.4,0.1-0.8,0.4-1c1-1,3.7-0.9,5.9-0.9c0.4,0,0.8,0,1.2,0c8.6,0,11.4,2.5,11.9,10.7v0.5h3.7V0.2
		c0,0-21.7,0.1-28.3,0.1S103.5,0.2,103.5,0.2z"/>
	<path class="st6" d="M59.5,56.9c-3.4-0.1-6.5-1.7-8.5-4.5L33.1,31.9c9.4-1.2,15.2-7.4,15.2-16.4c0.4-5.1-2.2-10-6.7-12.5
		c-4.5-2.1-9.4-3.1-14.4-2.8c-1.9,0-6.4,0.2-11.4,0.2c-5.2,0-15.9-0.2-15.9-0.2V4h0.7c2.9,0,6.1,0,6.9,2.7c0.6,3.7,0.9,7.4,0.8,11.1
		v24.7c0.1,3.2-0.1,6.5-0.4,9.7c-0.1,0.7-0.2,1.4-0.4,2.1C6.6,57,3.1,57,0.4,57h-0.5v3.8c0,0,8.4-0.4,14-0.4
		c4.8,0,13.2,0.4,13.2,0.4V57h-0.7c-2.8,0-6,0-6.9-2.7c-0.2-0.7-0.3-1.4-0.4-2.1c-0.3-3-0.4-6-0.4-9V32.9c3.3,0,3.6,0.4,5.4,2.5
		c0.3,0.4,0.7,0.8,1.1,1.3l14.9,18.5l4.4,5.4c0,0,4.8-0.2,7.1-0.2c3.4,0,8.4,0.2,8.4,0.2v-3.7H59.5z M18.6,28.8c0,0,0-21.9,0-22
		c0-0.9,0-2.1,0.7-2.4c1.9-0.1,3.8-0.1,5.6,0C32.6,4.4,37,8.9,37,16.7c0,5.7-1.5,9-4.9,10.6C28.9,28.8,18.6,28.8,18.6,28.8z"/>
</g>
</svg>
