<?xml version="1.0" encoding="utf-8"?>
<!-- Generator: Adobe Illustrator 25.1.0, SVG Export Plug-In . SVG Version: 6.00 Build 0)  -->
<svg version="1.1" id="Layer_2_1_" xmlns="http://www.w3.org/2000/svg" xmlns:xlink="http://www.w3.org/1999/xlink" x="0px" y="0px"
	 viewBox="0 0 321.1 110.9" style="enable-background:new 0 0 321.1 110.9;" xml:space="preserve">
<style type="text/css">
	.st0{fill-rule:evenodd;clip-rule:evenodd;}
</style>
<path class="st0" d="M146.6,45.1C146.6,45.1,146.6,45.1,146.6,45.1c-0.3-0.4-0.6-0.7-0.9-1c-2-2-5.1-2.4-7.7-1.9
	c-5.1,0.8-9.7,4.3-12.9,7.5c-2.4,2.4-5.2,5.6-7,7.5c-0.5,0.5-1.1,1.1-1.7,1.6c-2.9,2.7-11.9,9-17.5,8.6c-2-0.1-3.4-1-3.8-2.9
	c0,0,0,0,0,0c0,0,0.1,0,0.1,0c1.7-0.1,4.9-0.8,7.5-1.9c4.4-1.6,9.7-4.2,12.9-8.8c0.9-1.3,1.7-2.8,2.2-4.4c0.9-2.8,1.1-7.7-6.5-7.5
	c-4,0.1-8.1,1.4-11.8,3.5c-6.3,3.3-12.7,10-14.8,16.9c-1.6,5.5-0.9,11.8,6.4,13.2c1.1,0.2,2.1,0.3,3.2,0.2c7.2-0.4,16.4-6.6,22-12
	c-0.8,3.2-0.8,6.4,0.8,9.1c0.6,1,1.4,1.8,2.5,2.4c3.6,1.7,8.5-0.4,11.6-2.9c0.4-0.3,0.7-0.6,1.1-0.8c0,0-3.2,6-5.1,9.5
	c-3.1,5.9-9.8,16.7-18.4,20c-5.7,2.2-10.5-0.4-9.8-6.2c0.2-1.5,0.5-2.8,0.6-3.2c0,0-0.1,0-0.2,0.1c-3.8,2.4-5.8,6.9-5.2,10.3
	c0.3,3.4,2.3,7.1,8.5,8.5c16.4,2.6,29.3-18.5,34.3-28c2-3.7,21.6-40.1,21.6-40.1c-4.3,0-10.1,0-10.7,0L146.6,45.1L146.6,45.1z
	 M95.7,58.2C95.7,58.2,95.7,58.2,95.7,58.2c0.7-3.1,2-6.3,5.6-8.7c3.7-2.5,5.7-1.7,6.3-0.3c1.1,2.4-2.6,5.2-4.2,6.2
	c-2.8,1.8-5.7,2.6-7,2.7L95.7,58.2L95.7,58.2z M139.3,48c0.3,0,0.5-0.1,0.8-0.1c1.8-0.1,3.4,1.7,3.2,3.3c0,0,0,0,0,0
	c0,0-1.7,3.2-3.1,5.9c-0.1,0.1-0.1,0.2-0.1,0.3c-2.1,4-4.7,6.9-8.4,8.9c-0.4,0.2-1.1,0.5-1.8,0.7c-2.4,0.2-3.5-1.5-2.9-4
	C128.5,56.8,135.3,48.3,139.3,48L139.3,48z M246.1,62l-4.9,3.5c-0.5-3.4,10.9-22.9,10.9-22.9h-10.8c0,0-0.8,1.6-0.8,1.5
	c0-0.1-4.2-3.7-11.7-0.3c-1.9,0.5-4.9,2.4-7.9,5c-9.4,8.1-4.5,4.8-13.8,12c-2.5,1.9-4.5,3.4-4.5,3.4c1.3-2.7,2.4-5,3.4-7.1
	c0.1-0.1,0.1-0.2,0.1-0.3c2.2-4.5,4.1-9,3.9-11.7c-0.5-3.1-3.8-5.7-18,2.9c-0.1,0.1-1.3,0.9-2.3,1.6c0.6-1.8,0.9-3.3,0.8-4.5
	c-0.5-3.1-3.8-5.7-18,2.9c-0.1,0.1-0.7,0.5-1.4,1l3.3-6.2c0-0.1,0-0.1,0-0.1h-10.7l-16.9,31.5h10.6c0,0,0-0.1,0.1-0.2l10-18.6
	c2.1-1.6,3.6-2.7,5.9-4.1c1.8-1.1,3.4-1.8,4.1-1.3c0.3,0.2,0.4,0.9,0.4,1.2c-0.2,0.9-1.1,2.6-1.4,3.1c-0.2,0.5-10.5,19.9-10.5,19.9
	h11.3c0,0,0-0.1,0.1-0.2c0,0,3.8-7.1,6.6-12.4c1.1-2,2.2-4.2,3.2-6.3c2-1.5,3.6-2.6,5.7-4c1.8-1.1,3.4-1.8,4.1-1.3
	c0.3,0.2,0.4,0.9,0.4,1.2c-0.2,0.9-1.1,2.6-1.4,3.1c-0.1,0.1-0.5,0.9-2.1,3.9h0c-1.7,3.2-3.9,7.3-5,10.4c-1,2.8-1.1,6.2,2.4,6.5
	c3.5,0.2,8-3.1,9.7-4.4c2.3-1.7,7.1-6,9.5-8.1c-1.2,3.2-1.5,6.5-0.4,9.7c0.1,0.2,0.2,0.5,0.3,0.7c2.2,4.5,8.2,3.5,12.6,0.9
	c3-1.8,5.6-4.3,5.6-4.3s-0.4,6.1,4.5,6.1c4,0,13.7-8,16.9-10.8l-5,9.3h10.6c0,0,0-0.1,0.1-0.2l10-18.6c2.1-1.6,3.6-2.7,5.9-4.1
	c1.8-1.1,3.4-1.8,4.1-1.3c0.3,0.2,0.4,0.9,0.4,1.2c-0.2,0.9-1.1,2.6-1.4,3.1c0,0.1-0.5,1-2.2,4.1h0c-1.7,3.2-3.8,7.1-4.9,10.2
	c-1,2.6-1.1,5.7,1.8,6.4c4.1,1,9.4-2.6,12.3-5.1c1.7-1.2,3-2.2,3.8-2.9c0.2,1.5,0.8,3,1.7,4.4c5.2,7.6,16.8,5.3,21,3.5
	c6.3-2.7,12-9.1,2.7-23.5c-1.1-1.7-1.7-3.5-1.1-4.8c0.5-1.2,1.6-2.3,3.8-2c2.1,0.5,1.1,4.7,0,6.5c5.3,0,8.8-2.7,6.4-6.8
	c-0.9-1.5-6.8-5.7-13.9,0.4c-3.8,3.3-5,9.9-2.2,16.8c1.1,2.7,1.5,4.7,1.5,6.2c0,2.8-1.8,4.4-4.6,4.4c-4.1,0-7.1-3.9-6.5-7.9
	c0.4-2.6,2.2-5.4,5.9-8.1c-4.1-1-7.2-0.3-9.6,1.2c-2.2,1.4-3.6,3.1-4.4,4.8c-0.7,0.5-1.5,1.1-2.4,1.8c-2.5,1.9-4.5,3.4-4.5,3.4
	c0.8-1.7,3.5-6.5,4.2-7.9c1.4-2.8,6.4-11.7,5.1-15.1c-0.9-2.7-4.7-4.3-17.8,3.6c-0.1,0.1-0.7,0.5-1.4,1l3.3-6.2c0-0.1,0-0.1,0-0.1
	H262c0,0-1,1.8-2.7,5C256.5,52.4,256,55,246.1,62L246.1,62z M233.3,48c0.3,0,0.5-0.1,0.8-0.1c1.8-0.1,2.9,1.7,2.8,3.3c0,0,0,0,0,0
	c0,0-1.7,3.2-3.1,5.9c-0.1,0.1-0.1,0.2-0.1,0.3c-2.1,4-4.7,6.9-8.4,8.9c-0.4,0.3-0.9,0.5-1.5,0.7c-2.2,0.2-3.2-1.1-2.9-3.3
	C221.9,57.5,229.1,48.3,233.3,48L233.3,48z M20.3,52.8c-3.2,7.2-5.5,14.3-4.6,18.6c0.5,3.6,2.9,6.1,9,5c5.3-1.2,13.4-6.1,16.2-8.7
	c0,3,0.9,5.7,2.9,7.4c2.3,1.8,5.4,2.1,8.9,1.3c19-4.2,39.4-26,44.7-47c2-8,2.5-20.5-4.7-26.5c-4.8-4-11.9-4.2-18,1.4c0,0,0,0,0,0
	c1.2-0.2,3.7-0.4,6.1,1.2c2.7,1.8,4.4,5.3,5.1,10.3C87,31.5,79,49.1,68.6,59.4c-3.1,2.9-5.9,4.9-7.8,5.8c-2.4,1.1-4,0.9-4.9,0
	c-2.3-2.4-0.3-7.1,0.9-9.3C57.7,54,74.1,23,74.1,23H62.3c0,0-13.1,24.4-17.5,32.4c-1.3,2.1-3.3,3.9-7.8,7.3c-1.2,1-2.3,1.8-3.3,2.3
	c-4.8,2.4-4.8-1.2-3.6-5.2c1.8-5.9,13.3-28.2,17.9-35.1c0.6-1.1,1-1.8,1-1.8c-0.1,0-11.9,0-11.9,0s0,0,0,0.1
	c-1.5,2.1-2.9,4.1-4.2,6.2c-0.2,0.4-0.6,0.9-0.9,1.6c-1.8,3-3.8,6.3-6.8,9.4c-7.4,7.6-14.9,9.2-25.2,9.8c0,0,0,0,0,0
	c0.1,0.1,0.3,0.3,0.5,0.5c4.3,3.9,14.6,4.1,19.1,2.6C19.6,53,19.9,52.9,20.3,52.8L20.3,52.8z"/>
</svg>
