<svg xmlns="http://www.w3.org/2000/svg" xmlns:xlink="http://www.w3.org/1999/xlink" width="859.7368" height="495" viewBox="0 0 859.7368 495">
  <defs>
    <style>
      .cls-1 {
        fill: none;
      }

      .cls-2 {
        clip-path: url(#clip-path);
      }

      .cls-3 {
        fill: #ff9c4a;
      }

      .cls-4 {
        fill: #193787;
      }

      .cls-5 {
        fill: #44c6e6;
      }

      .cls-6 {
        fill: #13358c;
      }
    </style>
    <clipPath id="clip-path" transform="translate(0 0)">
      <path class="cls-1" d="M0,26.0526V353.9455a26.0526,26.0526,0,0,0,7.6306,18.422L122.6325,487.3694A26.0526,26.0526,0,0,0,141.0545,495H364.7368A26.0527,26.0527,0,0,0,390.79,468.9474V388.5545a26.0523,26.0523,0,0,0-7.6307-18.422L271.645,258.6187A6.5132,6.5132,0,0,1,276.2505,247.5h88.4863A26.0527,26.0527,0,0,0,390.79,221.4474V141.0545a26.0523,26.0523,0,0,0-7.6307-18.422L268.157,7.6306A26.053,26.053,0,0,0,249.735,0H26.0526A26.0527,26.0527,0,0,0,0,26.0526Z"/>
    </clipPath>
  </defs>
  <g id="Layer_2" data-name="Layer 2">
    <g id="H">
      <g>
        <g class="cls-2">
          <polygon class="cls-3" points="130.263 495 0 364.737 0 0 130.263 0 130.263 495"/>
          <polygon class="cls-4" points="260.526 0 390.789 130.263 390.789 247.5 260.526 247.5 260.526 0"/>
          <polygon class="cls-4" points="260.526 247.5 390.789 377.763 390.789 495 260.526 495 260.526 247.5"/>
          <rect class="cls-5" x="130.2632" width="130.2632" height="78.1579"/>
          <rect class="cls-4" x="130.2632" y="416.8421" width="130.2632" height="78.1579"/>
          <rect class="cls-5" x="130.2632" y="208.4211" width="130.2632" height="78.1579"/>
          <rect class="cls-6" x="260.5263" y="208.4211" width="26.0526" height="78.1579"/>
        </g>
        <path class="cls-3" d="M588.1352,493.0974,476.578,382.4053a25.81,25.81,0,0,1-7.6306-18.3211V26.0526A26.0526,26.0526,0,0,1,495,0h78.1579a26.0526,26.0526,0,0,1,26.0526,26.0526v462.432A6.4982,6.4982,0,0,1,588.1352,493.0974Z" transform="translate(0 0)"/>
        <path class="cls-4" d="M740.5923,1.9605,852.1062,113.4743a26.0528,26.0528,0,0,1,7.6306,18.422V468.9474A26.0526,26.0526,0,0,1,833.6842,495H755.5263a26.0526,26.0526,0,0,1-26.0526-26.0526V6.566A6.5131,6.5131,0,0,1,740.5923,1.9605Z" transform="translate(0 0)"/>
        <rect class="cls-5" x="599.2105" y="208.4211" width="130.2632" height="78.1579"/>
      </g>
    </g>
  </g>
</svg>
