<?xml version="1.0" encoding="utf-8"?>
<!-- Generator: Adobe Illustrator 25.2.3, SVG Export Plug-In . SVG Version: 6.00 Build 0)  -->
<svg version="1.1" id="Layer_1" xmlns="http://www.w3.org/2000/svg" xmlns:xlink="http://www.w3.org/1999/xlink" x="0px" y="0px"
	 viewBox="0 0 425 356" style="enable-background:new 0 0 425 356;" xml:space="preserve">
<style type="text/css">
	.st0{fill:none;stroke:#1447C8;stroke-width:1.6859;stroke-dasharray:6.7402,6.7402;}
	.st1{fill:#FF9C4A;}
	.st2{fill:#1447C8;}
	.st3{fill:#44C6E6;}
	.st4{fill:#193787;}
	.st5{fill:#FFFFFF;}
	.st6{fill-rule:evenodd;clip-rule:evenodd;fill:#193787;}
	.st7{fill:none;stroke:#193787;stroke-width:4;stroke-linecap:round;}
	.st8{fill:none;stroke:#193787;stroke-width:12;stroke-linecap:round;}
	.st9{fill:none;}
	.st10{fill:none;stroke:#FF9C4A;stroke-width:6.3575;stroke-linecap:round;}
	.st11{fill:none;stroke:#1447C8;stroke-width:1.5894;stroke-linecap:round;}
	.st12{fill:#1447C8;stroke:#1447C8;stroke-width:1.5894;}
	.st13{fill:#FFFFFF;stroke:#1447C8;stroke-width:1.5894;}
	.st14{fill:none;stroke:#44C6E6;stroke-width:1.0881;stroke-opacity:0.25;}
	.st15{fill:none;stroke:#1447C8;stroke-width:3.1787;}
	.st16{fill:#193787;stroke:#1447C8;stroke-width:1.5894;}
	.st17{fill:#DEE1E8;}
	.st18{fill:#EFF0F2;}
	.st19{fill:none;stroke:#1447C8;stroke-width:1.5894;}
	.st20{fill:none;stroke:#1447C8;stroke-width:1.5894;stroke-dasharray:6.3544,6.3544;}
</style>
<path class="st0" d="M231.1,281.7h-65"/>
<rect y="-21.5" class="st9" width="381.9" height="401.5"/>
<path class="st3" d="M233.4,292.2c-8.6-4.4-0.2-17.3,1-20.5l52-105.1c1.8-0.7,3.7-0.9,5.6-0.7l89.9,58.4c8.5,5.9,11,7.3,9.5,13.8
	L358,340.6c-1.7,7.1-9.6,10.8-16.2,7.5L233.4,292.2z"/>
<path class="st10" d="M115,24.2C57.9,5.9,9.7,49,27.1,93.8c17.3,44.7,87.6-34,117.6,14.8c12,19.5-79.8,53.4-68.8,130.5"/>
<line class="st11" x1="15.2" y1="58.4" x2="35.9" y2="119"/>
<circle class="st12" cx="27.1" cy="94.9" r="3.1"/>
<path class="st11" d="M115.2,67l37.4,52.5"/>
<path class="st11" d="M67.3,179.1l8.1,57.2"/>
<circle class="st13" cx="144.6" cy="108.4" r="3.1"/>
<circle class="st13" cx="76.1" cy="239" r="3.1"/>
<line class="st11" x1="115.1" y1="24.6" x2="57.3" y2="4.6"/>
<circle class="st13" cx="113.8" cy="24.2" r="3.1"/>
<rect x="53.8" y="2" transform="matrix(0.8867 -0.4624 0.4624 0.8867 4.478 26.2249)" class="st13" width="3.9" height="3.9"/>
<rect x="13" y="56" transform="matrix(0.559 -0.8291 0.8291 0.559 -41.3989 37.9414)" class="st13" width="3.9" height="3.9"/>
<rect x="33.4" y="117.2" transform="matrix(0.559 -0.8291 0.8291 0.559 -83.1579 81.8534)" class="st13" width="3.9" height="3.9"/>
<rect x="113.4" y="64.9" transform="matrix(0.4027 -0.9153 0.9153 0.4027 7.728 145.4224)" class="st13" width="3.9" height="3.9"/>
<rect x="150.8" y="118.7" transform="matrix(0.4269 -0.9043 0.9043 0.4269 -21.5053 207.2739)" class="st13" width="3.9" height="3.9"/>
<rect x="65.3" y="175.1" transform="matrix(0.6775 -0.7355 0.7355 0.6775 -108.5567 106.5371)" class="st13" width="3.9" height="3.9"/>
<circle class="st2" cx="45.4" cy="160.8" r="16.5"/>
<circle class="st2" cx="373.6" cy="224.2" r="50.7"/>
<path class="st1" d="M381.9,224.2l-48.2-31.3c-6.8,8.6-10.8,19.5-10.8,31.3c0,28,22.7,50.7,50.7,50.7c2,0,4-0.1,5.9-0.4l11.9-36.6
	C392.9,231.5,390.4,230.2,381.9,224.2z"/>
<path class="st5" d="M56.4,63h299.2c7,0,12.7,5.7,12.7,12.7v175.4c0,7-5.7,12.7-12.7,12.7H56.4c-7,0-12.7-5.7-12.7-12.7V75.7
	C43.7,68.7,49.3,63,56.4,63z"/>
<path class="st14" d="M56.4,63.5h299.2c6.7,0,12.2,5.4,12.2,12.2v175.4c0,6.7-5.4,12.2-12.2,12.2H56.4c-6.7,0-12.2-5.4-12.2-12.2
	V75.7C44.2,69,49.6,63.5,56.4,63.5z"/>
<path class="st3" d="M43.7,75.7c0-7,5.7-12.7,12.7-12.7h299.2c7,0,12.7,5.7,12.7,12.7v14.8H43.7V75.7z"/>
<circle class="st5" cx="61.5" cy="76.7" r="5.5"/>
<circle class="st1" cx="83.5" cy="76.7" r="5.5"/>
<path class="st4" d="M62.4,109.7h285.8c3.5,0,6.4,2.8,6.4,6.4v56.1c0,3.5-2.8,6.4-6.4,6.4H62.4c-3.5,0-6.4-2.8-6.4-6.4v-56.1
	C56,112.6,58.9,109.7,62.4,109.7z"/>
<circle class="st5" cx="190.9" cy="166.1" r="2.8"/>
<circle class="st5" cx="206" cy="166.1" r="2.8"/>
<circle class="st5" cx="221.1" cy="166.1" r="2.8"/>
<ellipse transform="matrix(7.088903e-02 -0.9975 0.9975 7.088903e-02 -127.7904 346.4385)" class="st1" cx="122.1" cy="241.8" rx="39.9" ry="39.9"/>
<rect x="80.6" y="200.3" class="st15" width="83" height="83"/>
<rect x="158.6" y="198.6" class="st13" width="6.7" height="6.7"/>
<rect x="158.6" y="278.4" class="st16" width="6.7" height="6.7"/>
<rect x="78.8" y="278.4" class="st13" width="6.7" height="6.7"/>
<rect x="78.8" y="198.6" class="st13" width="6.7" height="6.7"/>
<path class="st4" d="M204.1,301.7l-16.3,5.9l-5.9,16.3c-0.6,1.6-2.8,1.6-3.5,0l-15.8-39.3c-0.5-1.3,0.8-2.6,2.1-2.1l39.3,15.8
	C205.7,298.9,205.7,301.1,204.1,301.7z"/>
<path class="st17" d="M188.5,200.5h162.9c1.8,0,3.2,1.4,3.2,3.2v7.4c0,1.8-1.4,3.2-3.2,3.2H188.5c-1.8,0-3.2-1.4-3.2-3.2v-7.4
	C185.4,202,186.8,200.5,188.5,200.5z"/>
<path class="st18" d="M188.5,228.1h162.9c1.8,0,3.2,1.4,3.2,3.2v7.4c0,1.8-1.4,3.2-3.2,3.2H188.5c-1.8,0-3.2-1.4-3.2-3.2v-7.4
	C185.4,229.5,186.8,228.1,188.5,228.1z"/>
<line class="st11" x1="232.9" y1="62.2" x2="309.8" y2="62.2"/>
<rect x="228.6" y="29.2" class="st19" width="84.1" height="45.6"/>
<rect x="309.2" y="27.2" class="st13" width="5.5" height="5.5"/>
<rect x="309.2" y="71.2" class="st13" width="5.5" height="5.5"/>
<rect x="226.6" y="71.2" class="st13" width="5.5" height="5.5"/>
<rect x="226.6" y="27.2" class="st13" width="5.5" height="5.5"/>
<path class="st2" d="M4.5,110.3l6.1,6.1l-3,3l-6.1-6.1L4.5,110.3z"/>
<path class="st2" d="M16.4,103.3l10.5-10.5L5.5,102l0.1,0.1l0,0l-0.5,7.6l6.1,6.1l7.6-0.5l0,0l0.1,0.1L28.1,94l-10.5,10.5
	c0.2,0.6,0,1.2-0.4,1.6c-0.7,0.7-1.7,0.6-2.4,0c-0.7-0.7-0.7-1.8,0-2.4C15.2,103.3,15.8,103.1,16.4,103.3z"/>
<path class="st4" d="M248.8,63l8.2-24.1h7.7l8.5,24.1h-4.8l-2.2-6.4h-10.5l-2.1,6.4H248.8z M256.9,52.6h7.8l-3.3-9.8h-1.2
	L256.9,52.6z"/>
<path class="st4" d="M281.4,63.4c-2,0-3.6-0.5-4.8-1.5c-1.2-1-1.7-2.4-1.7-4.3c0-2,0.7-3.4,2.1-4.3c1.4-0.9,3.3-1.4,5.7-1.4h3.7
	v-0.2c0-2-1-3.1-3.1-3.1c-0.6,0-1.2,0-2,0c-0.8,0-1.6,0.1-2.3,0.1c-0.8,0-1.5,0.1-2.1,0.1V45c0.7-0.1,1.6-0.1,2.7-0.2
	c1.1,0,2-0.1,2.9-0.1c2.8,0,4.8,0.6,6.2,1.7c1.4,1.1,2.1,2.9,2.1,5.4V63h-3.6v-3.4C286.4,62.1,284.4,63.4,281.4,63.4z M282.7,60.2
	c0.6,0,1.2-0.1,1.8-0.3c0.5-0.2,1-0.6,1.4-1.2c0.4-0.6,0.6-1.3,0.6-2.3v-1.7h-3.7c-1.1,0-1.9,0.3-2.4,0.8c-0.6,0.5-0.8,1.2-0.8,2
	c0,0.8,0.3,1.5,0.8,2C280.8,59.9,281.6,60.2,282.7,60.2z"/>
<path class="st20" d="M163.3,354.6v-68.8"/>
</svg>
