<svg width="425" height="356" viewBox="0 0 425 356" fill="none" xmlns="http://www.w3.org/2000/svg">
<path d="M29.633 203.143L52.5279 153.852C57.0688 144.075 71.1957 144.779 74.7429 154.958L93.3281 208.289C96.21 216.559 89.5495 225.031 80.8332 224.182L39.353 220.142C31.1204 219.34 26.1486 210.645 29.633 203.143Z" fill="#FF9C4A"/>
<path d="M10.0123 118.749L117.186 9.02365C121.981 4.1145 129.909 4.21893 134.573 9.25267L202.229 82.2714C205.687 86.0039 206.416 91.5116 204.046 96.0146L143.756 210.609C140.421 216.947 132.312 218.972 126.389 214.944L11.849 137.057C5.67166 132.857 4.79246 124.093 10.0123 118.749Z" fill="#1447C8"/>
<circle cx="378" cy="309" r="46.5" fill="#FF9C4A"/>
<circle cx="131" cy="301" r="19.5" fill="#44C6E6"/>
<rect x="213.5" y="277.5" width="60" height="78" rx="12" fill="#193787"/>
<rect x="84.5" y="76.5" width="318" height="220.833" rx="6" fill="#44C6E6"/>
<rect x="97.75" y="91.9584" width="291.5" height="157.896" rx="2" fill="white"/>
<rect x="186.5" y="333.5" width="114.833" height="22.0833" rx="4" fill="#193787"/>
<path d="M84.5 264.5H402.5V291.5C402.5 294.814 399.814 297.5 396.5 297.5H90.5C87.1863 297.5 84.5 294.814 84.5 291.5V264.5Z" fill="#193787"/>
<path fill-rule="evenodd" clip-rule="evenodd" d="M85.9082 187.142L48.5 161.704L52.3361 153.445C56.8769 143.669 71.0038 144.373 74.551 154.552L85.9082 187.142Z" fill="#193787"/>
<path d="M278 220.825L324 174.825" stroke="#193787" stroke-width="4" stroke-linecap="round"/>
<path d="M205 221L159 175" stroke="#193787" stroke-width="4" stroke-linecap="round"/>
<path d="M196 138C196 133.582 199.582 130 204 130H280C284.418 130 288 133.582 288 138V250H196V138Z" fill="#FF9C4A"/>
<path d="M219 168L219 179" stroke="#193787" stroke-width="12" stroke-linecap="round"/>
<path d="M268.976 168.258C270.222 167.167 270.349 165.271 269.258 164.024C268.167 162.778 266.271 162.651 265.024 163.742L268.976 168.258ZM265.024 182.258C266.271 183.349 268.167 183.222 269.258 181.976C270.349 180.729 270.222 178.833 268.976 177.742L265.024 182.258ZM259 173L257.024 170.742C256.373 171.312 256 172.135 256 173C256 173.865 256.373 174.688 257.024 175.258L259 173ZM265.024 163.742L257.024 170.742L260.976 175.258L268.976 168.258L265.024 163.742ZM257.024 175.258L265.024 182.258L268.976 177.742L260.976 170.742L257.024 175.258Z" fill="#193787"/>
<path fill-rule="evenodd" clip-rule="evenodd" d="M234 193C234 197.418 237.582 201 242 201C246.418 201 250 197.418 250 193H234Z" fill="#193787"/>
<path d="M156 174L159 172" stroke="#193787" stroke-width="12" stroke-linecap="round"/>
<path d="M321 172.601L324.045 174.991" stroke="#193787" stroke-width="12" stroke-linecap="round"/>
</svg>
