<?xml version="1.0" encoding="utf-8"?>
<!-- Generator: Adobe Illustrator 25.2.3, SVG Export Plug-In . SVG Version: 6.00 Build 0)  -->
<svg version="1.1" id="Layer_1" xmlns="http://www.w3.org/2000/svg" xmlns:xlink="http://www.w3.org/1999/xlink" x="0px" y="0px"
	 viewBox="0 0 425 356" style="enable-background:new 0 0 425 356;" xml:space="preserve">
<style type="text/css">
	.st0{fill:none;}
	.st1{fill:#1B336D;}
	.st2{fill:#1447C8;}
	.st3{fill:#6AC5E3;}
	.st4{fill-rule:evenodd;clip-rule:evenodd;fill:#FF9C4A;}
	.st5{fill:#FFFFFF;}
	.st6{fill:none;stroke:#6AC5E3;stroke-width:1.2032;stroke-opacity:0.25;}
	.st7{fill:#DEE1E8;}
	.st8{fill:#EFF0F2;}
	.st9{fill:#FF9C4A;}
	.st10{fill:#FF9534;}
	.st11{fill:none;stroke:#6AC5E3;stroke-width:1.2069;stroke-opacity:0.25;}
	.st12{fill:none;stroke:#1447C8;stroke-width:6;}
	.st13{fill:none;stroke:#1B336D;stroke-width:4;stroke-linecap:round;}
	.st14{fill:#1B336D;stroke:#1B336D;stroke-width:4;}
	.st15{fill:none;stroke:#6AC5E3;stroke-width:12;stroke-linecap:round;}
	.st16{fill:none;stroke:#193787;stroke-width:3.5754;stroke-linecap:round;}
	.st17{fill-rule:evenodd;clip-rule:evenodd;fill:#193787;}
	.st18{fill:none;stroke:#193787;stroke-width:10.7261;stroke-linecap:round;}
	.st19{fill:#193787;}
</style>
<rect x="-11.9" y="-19.6" class="st0" width="351" height="369"/>
<path class="st1" d="M124.8,301.5l-86.7,41.8c-2,1-4.4,0.2-5.3-1.9c-6.7-14.8-31.2-71.8-30.1-111.2c0-0.8,0.6-1.5,1.4-1.8l59.5-19
	c4.9-1.6,10.2,0.1,13.2,4.2l52.3,69.8C133.7,289.6,131.6,298.3,124.8,301.5z"/>
<path class="st2" d="M418.9,143.6c5.9,6.4,3.2,16.8-5.1,19.5l-172.1,56.4c-5.8,1.9-12-0.8-14.6-6.3l-27.1-58
	c-1.6-3.4-1.5-7.4,0.3-10.8L273.4,8.3c3.9-7.3,13.8-8.5,19.4-2.4L418.9,143.6z"/>
<circle class="st3" cx="367.3" cy="190.9" r="46.5"/>
<path class="st4" d="M406.3,165.6L311,192.4c6.2-29,30.4-47.6,57.9-47.8C383.6,144.4,398.2,152.6,406.3,165.6z"/>
<path class="st5" d="M74.2,94.4h169.3c6.4,0,11.6,3.6,11.6,8v235c0,4.4-5.2,8-11.6,8H74.2c-6.4,0-11.6-3.6-11.6-8v-235
	C62.6,98,67.8,94.4,74.2,94.4z"/>
<path class="st6" d="M74.2,94.9h169.4c6,0,10.9,3.4,10.9,7.5v235c0,4.1-4.9,7.5-10.9,7.5H74.2c-6,0-10.9-3.4-10.9-7.5v-235
	C63.3,98.3,68.2,94.9,74.2,94.9z"/>
<path class="st7" d="M112.7,123.4h89.7c6.4,0,11.6,3.6,11.6,8v9c0,4.4-5.2,8-11.6,8h-89.7c-6.4,0-11.6-3.6-11.6-8v-9
	C101.1,127,106.3,123.4,112.7,123.4z"/>
<path class="st7" d="M112.7,176.4h89.7c6.4,0,11.6,3.6,11.6,8v9c0,4.4-5.2,8-11.6,8h-89.7c-6.4,0-11.6-3.6-11.6-8v-9
	C101.1,180,106.3,176.4,112.7,176.4z"/>
<path class="st7" d="M112.7,229.4h89.7c6.4,0,11.6,3.6,11.6,8v9c0,4.4-5.2,8-11.6,8h-89.7c-6.4,0-11.6-3.6-11.6-8v-9
	C101.1,233,106.3,229.4,112.7,229.4z"/>
<path class="st8" d="M112.7,282.4h89.7c6.4,0,11.6,3.6,11.6,8v9c0,4.4-5.2,8-11.6,8h-89.7c-6.4,0-11.6-3.6-11.6-8v-9
	C101.1,286,106.3,282.4,112.7,282.4z"/>
<path class="st9" d="M248.6,278.5l69.9-34.5c6.5-3.2,14.4,0.1,16.7,7l29.6,88.7c3.4,10.3-7.6,19.5-17.1,14.3l-99.4-54.1
	C239.6,295.1,239.8,282.8,248.6,278.5z"/>
<path class="st10" d="M120.2,49.1c-0.8-0.5-0.5-1.8,0.5-1.8h72.6c1.1,0,2,0.9,2,2v21c0,1.1-0.9,2-2,2h-72.1c-1,0-1.4-1.4-0.5-1.9
	l16.1-8.8c0.7-0.4,0.7-1.3,0.1-1.7L120.2,49.1z"/>
<path class="st5" d="M188.8,30.4h169.7c6.4,0,11.6,3.6,11.6,8v230c0,4.4-5.2,8-11.6,8H188.8c-6.4,0-11.6-3.6-11.6-8v-230
	C177.2,34,182.4,30.4,188.8,30.4z"/>
<path class="st11" d="M188.7,30.9h170.4c6,0,10.9,3.4,10.9,7.5v230c0,4.1-4.9,7.5-10.9,7.5H188.7c-6,0-10.9-3.4-10.9-7.5v-230
	C177.8,34.3,182.7,30.9,188.7,30.9z"/>
<path class="st7" d="M221.5,59.4h103.6c7.4,0,13.4,3.6,13.4,8v9c0,4.4-6,8-13.4,8H221.5c-7.4,0-13.4-3.6-13.4-8v-9
	C208.1,63,214.1,59.4,221.5,59.4z"/>
<path class="st7" d="M221.5,112.4h103.6c7.4,0,13.4,3.6,13.4,8v9c0,4.4-6,8-13.4,8H221.5c-7.4,0-13.4-3.6-13.4-8v-9
	C208.1,116,214.1,112.4,221.5,112.4z"/>
<path class="st7" d="M221.5,165.4h103.6c7.4,0,13.4,3.6,13.4,8v9c0,4.4-6,8-13.4,8H221.5c-7.4,0-13.4-3.6-13.4-8v-9
	C208.1,169,214.1,165.4,221.5,165.4z"/>
<path class="st8" d="M221.5,218.4h103.6c7.4,0,13.4,3.6,13.4,8v9c0,4.4-6,8-13.4,8H221.5c-7.4,0-13.4-3.6-13.4-8v-9
	C208.1,222,214.1,218.4,221.5,218.4z"/>
<path class="st3" d="M6.8,229.1c-0.1-0.9,0.4-1.8,1.3-2.1l97.9-33.6c1.2-0.4,2.5,0.4,2.7,1.7c4.3,37.8,24.8,67.3,54.6,89.1
	c1.3,1,1,3-0.5,3.6L62.1,322.2c-0.6,0.2-1.2,0.1-1.7-0.2C40.2,309.7,12.8,277,6.8,229.1z"/>
<circle class="st5" cx="358.6" cy="284.9" r="36.5"/>
<path class="st3" d="M392.1,288.9c0-4.8-0.9-9.5-2.8-14c-1.8-4.4-4.5-8.5-7.9-11.8c-3.4-3.4-7.4-6.1-11.8-7.9
	c-4.4-1.8-9.2-2.8-14-2.8v36.5L392.1,288.9L392.1,288.9z"/>
<circle class="st12" cx="358.6" cy="284.9" r="33.5"/>
<path class="st13" d="M356.1,270.4v18h18.5"/>
<path class="st14" d="M37.1,104.2h38c5.5,0,10,4.5,10,10v38c0,5.5-4.5,10-10,10h-38c-5.5,0-10-4.5-10-10v-38
	C27.1,108.7,31.6,104.2,37.1,104.2z"/>
<path class="st15" d="M42.6,123.2l18.3,18.3c0.4,0.4,1,0.4,1.4,0l44.8-44.8"/>
<path class="st16" d="M132.3,191.8L104.6,240"/>
<path class="st17" d="M106.8,221c0.9-5.8,7.3-8.8,12.3-5.8l0,0c4.9,2.9,5.4,9.9,0.9,13.4l-11.4,9.2c-0.8,0.6-1.9,0.7-2.8,0.2l0,0
	c-0.9-0.5-1.4-1.5-1.2-2.5L106.8,221z"/>
<path class="st18" d="M184.9,101.2l3.2-5.6"/>
<path class="st2" d="M175.6,99.9c1-1.7,3.2-2.3,4.9-1.3l8.8,5.1c1.7,1,2.3,3.2,1.3,4.9L123.4,225c-1,1.7-3.2,2.3-4.9,1.3l-8.8-5.1
	c-1.7-1-2.3-3.2-1.3-4.9L175.6,99.9z"/>
<path class="st2" d="M193,117.5L193,117.5c1.4,0.8,1.9,2.6,1.1,3.9L178.2,149c-0.8,1.4-2.6,1.9-3.9,1.1l0,0
	c-1.4-0.8-1.9-2.6-1.1-3.9l15.9-27.5C189.9,117.2,191.6,116.7,193,117.5z"/>
<path class="st2" d="M182.7,116.5c0.4-0.8,1.4-1,2.1-0.6l5.3,3.1c0.5,0.3,0.6,0.9,0.4,1.3l0,0c-0.5,0.9-3.4,0.7-4.3,0.1
	c-0.6-0.3-1.2-0.6-1.9-0.7c-1.3-0.2-2.4-1.7-1.7-2.8L182.7,116.5z"/>
<path class="st9" d="M134,172l15,8.7c-5.8,13.2-9.5,20.1-17.7,30.6l-15-8.7C121.1,189.8,125,183.2,134,172z"/>
<path class="st19" d="M25.7,241.6l68.7-25.2c1.9-0.7,4,0.3,4.7,2.2l0,0c0.7,1.9-0.3,4-2.2,4.7l-68.7,25.2c-1.9,0.7-4-0.3-4.7-2.2
	l0,0C22.8,244.4,23.8,242.3,25.7,241.6z"/>
<path class="st19" d="M35,262.5l37.4-13.7c1.7-0.6,3.6,0.2,4.2,1.9l0,0c0.6,1.7-0.2,3.6-1.9,4.2l-37.4,13.7
	c-1.7,0.6-3.6-0.2-4.2-1.9l0,0C32.4,265,33.3,263.1,35,262.5z"/>
</svg>
