<svg width="351" height="369" viewBox="0 0 351 369" fill="none" xmlns="http://www.w3.org/2000/svg">
<g clip-path="url(#clip0)">
<path d="M136.69 321.13L50.0312 362.929C48.0362 363.891 45.6621 363.081 44.7483 361.063C38.0496 346.272 13.4993 289.222 14.601 249.881C14.6244 249.043 15.1812 248.332 15.9798 248.078L75.5206 229.093C80.388 227.542 85.7042 229.242 88.7682 233.33L141.079 303.125C145.61 309.17 143.495 317.848 136.69 321.13Z" fill="#1B336D"/>
<path d="M331.803 145.215C337.687 151.644 334.971 162.004 326.689 164.719L154.559 221.163C148.791 223.054 142.519 220.341 139.949 214.842L112.833 156.831C111.229 153.397 111.34 149.407 113.134 146.069L186.319 9.89545C190.232 2.61501 200.161 1.37737 205.742 7.47458L331.803 145.215Z" fill="#1447C8"/>
<circle cx="280.151" cy="192.501" r="46.5" fill="#6AC5E3"/>
<path fill-rule="evenodd" clip-rule="evenodd" d="M313.374 159.514L234.651 185.328C238.1 163.053 257.359 146.001 280.601 146.001C293.387 146.001 304.968 151.162 313.374 159.514Z" fill="#FF9C4A"/>
<rect x="68" y="108.001" width="133" height="251" rx="8" fill="white"/>
<rect x="68.5" y="108.501" width="132" height="250" rx="7.5" stroke="#6AC5E3" stroke-opacity="0.25"/>
<rect x="94.6427" y="137.001" width="78" height="25" rx="8" fill="#DEE1E8"/>
<rect x="94.6427" y="190.001" width="78" height="25" rx="8" fill="#DEE1E8"/>
<rect x="94.6427" y="243.001" width="78" height="25" rx="8" fill="#DEE1E8"/>
<rect x="94.6427" y="296.001" width="78" height="25" rx="8" fill="#EFF0F2"/>
<path d="M170.718 284.487L240.575 249.947C247.1 246.721 254.972 250.001 257.276 256.906L286.867 345.59C290.316 355.926 279.315 365.137 269.746 359.927L170.299 305.783C161.762 301.135 162.005 288.796 170.718 284.487Z" fill="#FF9C4A"/>
<path d="M88.5068 62.8426C87.6672 62.3029 88.0495 61.0015 89.0475 61.0015H161.643C162.747 61.0015 163.643 61.8969 163.643 63.0015V84.0015C163.643 85.106 162.747 86.0015 161.643 86.0015H89.5508C88.5156 86.0015 88.1625 84.6215 89.0704 84.1244L105.167 75.3097C105.832 74.9453 105.865 74.0017 105.227 73.5915L88.5068 62.8426Z" fill="#FF9534"/>
<rect x="150" y="32.0015" width="133" height="246" rx="8" fill="white"/>
<rect x="150.5" y="32.5015" width="132" height="245" rx="7.5" stroke="#6AC5E3" stroke-opacity="0.25"/>
<rect x="176.643" y="61.0015" width="78" height="25" rx="8" fill="#DEE1E8"/>
<rect x="176.643" y="114.001" width="78" height="25" rx="8" fill="#DEE1E8"/>
<rect x="176.643" y="167.001" width="78" height="25" rx="8" fill="#DEE1E8"/>
<rect x="176.643" y="220.001" width="78" height="25" rx="8" fill="#EFF0F2"/>
<path d="M18.68 248.663C18.5633 247.732 19.1201 246.842 20.008 246.537L117.924 212.915C119.148 212.495 120.443 213.335 120.59 214.621C124.917 252.457 145.352 281.896 175.228 303.693C176.55 304.658 176.259 306.73 174.71 307.262L74.0033 341.842C73.4488 342.032 72.8482 341.978 72.3483 341.671C52.1504 329.289 24.6835 296.605 18.68 248.663Z" fill="#6AC5E3"/>
<circle cx="271.535" cy="286.501" r="36.5" fill="white"/>
<path d="M305 290.458C305 285.664 304.056 280.918 302.221 276.49C300.387 272.061 297.698 268.037 294.309 264.648C290.92 261.259 286.896 258.57 282.468 256.736C278.039 254.902 273.293 253.958 268.5 253.958L268.5 290.458H305Z" fill="#6AC5E3"/>
<circle cx="271.535" cy="286.501" r="33.5" stroke="#1447C8" stroke-width="6"/>
<path d="M269 271.958V289.958H287.5" stroke="#1B336D" stroke-width="4" stroke-linecap="round"/>
<rect x="32.6505" y="144.501" width="58" height="58" rx="10" fill="#1B336D" stroke="#1B336D" stroke-width="4"/>
<path d="M48.1505 163.501L66.4434 181.794C66.8339 182.185 67.4671 182.185 67.8576 181.794L112.651 137.001" stroke="#6AC5E3" stroke-width="12" stroke-linecap="round"/>
<path d="M144.182 211.419L116.515 259.658" stroke="#193787" stroke-width="3.57537" stroke-linecap="round"/>
<path fill-rule="evenodd" clip-rule="evenodd" d="M118.744 240.549C119.608 234.776 126.056 231.728 131.065 234.725V234.725C135.969 237.658 136.444 244.582 131.988 248.158L120.548 257.338C119.757 257.973 118.657 258.057 117.778 257.55V257.55C116.902 257.044 116.425 256.055 116.574 255.055L118.744 240.549Z" fill="#193787"/>
<path d="M196.846 120.747L200.063 115.175" stroke="#193787" stroke-width="10.7261" stroke-linecap="round"/>
<path d="M187.557 119.514C188.545 117.804 190.731 117.218 192.441 118.206L201.238 123.285C202.949 124.272 203.534 126.459 202.547 128.169L135.346 244.564C134.359 246.274 132.172 246.86 130.462 245.873L121.665 240.794C119.955 239.806 119.369 237.62 120.357 235.91L187.557 119.514Z" fill="#1447C8"/>
<rect x="202.424" y="135.665" width="5.76956" height="37.5264" rx="2.88478" transform="rotate(30 202.424 135.665)" fill="#1447C8"/>
<path d="M194.619 136.133C195.052 135.383 196.012 135.126 196.762 135.559L202.064 138.62C202.525 138.886 202.682 139.475 202.417 139.936V139.936C201.895 140.84 198.982 140.611 198.086 140.074C197.52 139.735 196.861 139.49 196.143 139.359C194.892 139.131 193.763 137.616 194.398 136.515L194.619 136.133Z" fill="#1447C8"/>
<path d="M145.916 191.643L160.906 200.298C155.117 213.537 151.403 220.43 143.212 230.945L128.222 222.29C133.001 209.429 136.947 202.749 145.916 191.643Z" fill="#FF9C4A"/>
<rect x="34.1334" y="262.417" width="80.5654" height="7.39044" rx="3.69522" transform="rotate(-20.1363 34.1334 262.417)" fill="#193787"/>
<rect x="43.8432" y="283.199" width="46.3185" height="6.5355" rx="3.26775" transform="rotate(-20.1363 43.8432 283.199)" fill="#193787"/>
</g>
<defs>
<clipPath id="clip0">
<rect width="351" height="369" fill="white"/>
</clipPath>
</defs>
</svg>
