<?xml version="1.0" encoding="utf-8"?>
<!-- Generator: Adobe Illustrator 25.2.3, SVG Export Plug-In . SVG Version: 6.00 Build 0)  -->
<svg version="1.1" id="Layer_1" xmlns="http://www.w3.org/2000/svg" xmlns:xlink="http://www.w3.org/1999/xlink" x="0px" y="0px"
	 viewBox="0 0 425 356" style="enable-background:new 0 0 425 356;" xml:space="preserve">
<style type="text/css">
	.st0{fill:#1447C8;}
	.st1{fill:#FFFFFF;stroke:#44C6E6;stroke-linecap:round;stroke-opacity:0.25;}
	.st2{fill:none;}
	.st3{fill:#FF9C4A;}
	.st4{clip-path:url(#SVGID_2_);}
	.st5{fill:#193787;}
	.st6{fill:#44C6E6;}
	.st7{fill:#13358C;}
	.st8{fill:#FFFFFF;}
	.st9{fill:none;stroke:#44C6E6;stroke-opacity:0.25;}
	.st10{fill:#DEE1E8;}
	.st11{fill:#EFF0F2;}
	.st12{fill:none;stroke:#193787;stroke-width:2;stroke-linecap:round;}
	.st13{fill-rule:evenodd;clip-rule:evenodd;fill:#44C6E6;}
	.st14{fill:none;stroke:#193787;stroke-width:6;stroke-linecap:round;}
	.st15{fill-rule:evenodd;clip-rule:evenodd;fill:#193787;}
</style>
<path class="st0" d="M69.7,9.3C72.8,1.2,83.3-1,89.4,5.2l127.2,128.9c4.3,4.3,4.6,11.1,0.9,15.9l-39.9,50.1c-2.4,3-6,4.6-9.8,4.5
	l-154.5-4.8c-8.3-0.3-13.8-8.6-10.8-16.3L69.7,9.3z"/>
<path class="st1" d="M224.4,34.5l5.4-20.3c0.6-2.1,2.8-3.4,4.9-2.8l42,11.3c1,0.3,1.9,1,2.4,1.9l5.3,9.3c0.5,0.9,0.7,2,0.4,3
	l-5.4,20.3c-0.6,2.1-2.8,3.4-4.9,2.8l-42-11.3c-1-0.3-1.9-1-2.4-1.9l-5.3-9.3C224.3,36.6,224.2,35.5,224.4,34.5z"/>
<path class="st2" d="M234.1,14.4l42,11.3l5.2,9L275.5,56l-43-11.5l-4.5-7.8L234.1,14.4z"/>
<path class="st3" d="M338.7,150.8c6.9-9.9,18.8-7.3,23.4,2.1l59.7,109.6c2.5,5.1-0.5,11.3-6.9,14.4L317.9,321c-4,2-8.8,2.4-12.9,1.2
	L272,263.5c-6.7-7.6-9-12.4-3.7-17.7L338.7,150.8z"/>
<g id="Layer_2_1_">
	<g id="H">
		<g>
			<g>
				<g>
					<g>
						<defs>
							<path id="SVGID_1_" d="M233.8,17.7L229.1,36c-0.1,0.4,0,0.8,0.2,1.1l4.7,8.1c0.2,0.3,0.5,0.6,0.9,0.7l12.5,3.3
								c0.8,0.2,1.6-0.3,1.8-1.1l0,0l1.2-4.5c0.1-0.4,0-0.8-0.2-1.1l-4.6-7.8c-0.1-0.2,0-0.4,0.1-0.5s0.2-0.1,0.3,0l4.9,1.3
								c0.8,0.2,1.6-0.3,1.8-1.1l0,0l1.2-4.5c0.1-0.4,0-0.8-0.2-1.1l-4.7-8.1c-0.2-0.3-0.5-0.6-0.9-0.7l-12.5-3.3
								C234.9,16.4,234,16.9,233.8,17.7z"/>
						</defs>
						<clipPath id="SVGID_2_">
							<use xlink:href="#SVGID_1_"  style="overflow:visible;"/>
						</clipPath>
						<g class="st4">
							<polygon class="st3" points="234.3,45.8 228.9,36.6 234.2,16.2 241.5,18.1 							"/>
							<polygon class="st5" points="248.8,20 254.1,29.2 252.4,35.7 245.2,33.8 							"/>
							<polygon class="st5" points="245.2,33.8 250.5,43 248.8,49.5 241.6,47.6 							"/>
							
								<rect x="242.3" y="17.5" transform="matrix(0.2522 -0.9677 0.9677 0.2522 162.3348 252.5201)" class="st6" width="4.5" height="7.5"/>
							
								<rect x="236.3" y="40.7" transform="matrix(0.2522 -0.9677 0.9677 0.2522 135.3048 264.0834)" class="st5" width="4.5" height="7.5"/>
							
								<rect x="239.2" y="29.1" transform="matrix(0.2522 -0.9677 0.9677 0.2522 148.7852 258.2647)" class="st6" width="4.5" height="7.5"/>
							
								<rect x="243.6" y="33.3" transform="matrix(0.2522 -0.9677 0.9677 0.2522 150.8936 263.4254)" class="st7" width="4.5" height="1.5"/>
						</g>
					</g>
				</g>
			</g>
			<path class="st3" d="M259.9,52.3l-4.6-7.8c-0.2-0.3-0.3-0.7-0.2-1.1l4.9-18.9c0.2-0.8,1-1.3,1.8-1.1l0,0l4.4,1.1
				c0.8,0.2,1.3,1,1.1,1.8l0,0l-6.7,25.8c-0.1,0.2-0.3,0.3-0.5,0.3C260,52.5,259.9,52.4,259.9,52.3z"/>
			<path class="st5" d="M275.5,27.1l4.6,7.8c0.2,0.3,0.3,0.8,0.2,1.1l-4.9,18.8c-0.2,0.8-1,1.3-1.8,1.1l0,0l-4.4-1.1
				c-0.8-0.2-1.3-1-1.1-1.8l0,0l6.7-25.8c0.1-0.2,0.3-0.3,0.5-0.3C275.4,27,275.5,27,275.5,27.1z"/>
			
				<rect x="265.5" y="36" transform="matrix(0.2522 -0.9677 0.9677 0.2522 161.79 288.7669)" class="st6" width="4.5" height="7.5"/>
		</g>
	</g>
</g>
<ellipse class="st0" cx="326.5" cy="312" rx="22.5" ry="22.5"/>
<path class="st8" d="M120.6,43.6h191.9c3.3,0,6,2.7,6,6v287.9c0,3.3-2.7,6-6,6H120.6c-3.3,0-6-2.7-6-6V49.6
	C114.6,46.3,117.3,43.6,120.6,43.6z"/>
<path class="st9" d="M120.6,44.1h191.9c3,0,5.5,2.5,5.5,5.5v287.9c0,3-2.5,5.5-5.5,5.5H120.6c-3,0-5.5-2.5-5.5-5.5V49.6
	C115.1,46.6,117.6,44.1,120.6,44.1z"/>
<path class="st0" d="M155.4,112.2v-2.4h3.8c0.7,0,1.2-0.2,1.6-0.6c0.4-0.4,0.5-0.9,0.5-1.6s-0.2-1.2-0.5-1.6
	c-0.4-0.4-0.9-0.6-1.6-0.6h-3.8v-1.8h3.6c1,0,1.9,0.1,2.7,0.4c0.8,0.2,1.4,0.6,1.9,1.2s0.7,1.3,0.7,2.3v0.3c0,0.9-0.2,1.7-0.6,2.3
	c-0.4,0.6-1,1.1-1.8,1.5c-0.8,0.3-1.8,0.5-2.9,0.5L155.4,112.2L155.4,112.2z M152.9,112.2V96.7h2.9v15.5H152.9z M155.4,105v-1.8h3.3
	c0.7,0,1.2-0.2,1.6-0.6c0.3-0.4,0.5-0.9,0.5-1.5s-0.2-1.1-0.5-1.5s-0.9-0.6-1.6-0.6h-3.3v-2.4h3c1.7,0,3.1,0.4,3.9,1.1
	c0.9,0.7,1.4,1.8,1.4,3.1v0.3c0,1-0.2,1.7-0.7,2.3c-0.4,0.6-1.1,1-1.9,1.2c-0.8,0.2-1.7,0.4-2.8,0.4H155.4z M167.3,112.1V96.7h3
	v15.4H167.3z M176.7,112.1l-4.7-6.7h3.3l4.9,6.7H176.7z M169.4,107v-2.4h3.9c0.5,0,1-0.1,1.4-0.3c0.4-0.2,0.7-0.5,0.9-0.9
	s0.3-0.9,0.3-1.4s-0.1-1-0.3-1.4s-0.5-0.7-0.9-0.9c-0.4-0.2-0.9-0.3-1.4-0.3h-3.9v-2.5h3.6c1.2,0,2.3,0.2,3.2,0.5
	c0.9,0.4,1.6,0.9,2.1,1.7c0.5,0.7,0.7,1.7,0.7,2.8v0.3c0,1.1-0.3,2.1-0.8,2.8c-0.5,0.7-1.2,1.3-2.1,1.6c-0.9,0.4-2,0.5-3.2,0.5
	L169.4,107L169.4,107z M182.5,112.1V96.8h3v15.3C185.5,112.1,182.5,112.1,182.5,112.1z M196.2,112.5c-1.4,0-2.6-0.2-3.6-0.7
	s-1.8-1.1-2.4-1.9c-0.6-0.8-1.1-1.6-1.4-2.6c-0.3-0.9-0.4-1.8-0.4-2.7v-0.5c0-1,0.1-1.9,0.4-2.8c0.3-0.9,0.8-1.8,1.4-2.5
	c0.6-0.8,1.4-1.4,2.4-1.8c1-0.5,2.1-0.7,3.5-0.7s2.6,0.3,3.6,0.8s1.9,1.2,2.5,2.1s1,1.9,1.1,3.2h-3c-0.1-0.7-0.4-1.3-0.8-1.8
	c-0.4-0.5-0.9-0.9-1.4-1.1c-0.6-0.3-1.3-0.4-2-0.4c-0.8,0-1.4,0.1-2,0.4s-1.1,0.6-1.5,1.1s-0.7,1-0.9,1.7c-0.2,0.6-0.3,1.4-0.3,2.1
	c0,0.8,0.1,1.5,0.3,2.1s0.5,1.2,0.9,1.7s0.9,0.8,1.5,1.1c0.6,0.3,1.3,0.4,2.1,0.4c1.1,0,2.1-0.3,2.9-0.8c0.8-0.6,1.3-1.4,1.4-2.4h3
	c-0.1,1.1-0.5,2.1-1.1,3s-1.4,1.6-2.5,2.2C198.9,112.2,197.6,112.5,196.2,112.5z M216,112.1l-5.6-7.2h-2.2l6.7-8.2h3.4l-6,7.3
	l-0.1-1.5l7.4,9.5L216,112.1L216,112.1z M206.1,112.1V96.8h3v15.3C209.1,112.1,206.1,112.1,206.1,112.1z M231.4,112.1V96.8h3v15.3
	C234.4,112.1,231.4,112.1,231.4,112.1z M221.3,112.1V96.8h3v15.3C224.3,112.1,221.3,112.1,221.3,112.1z M223.8,105.7v-2.6h8.2v2.6
	H223.8z M236.6,112.1l5.2-15.3h4.9l5.4,15.3H249l-4.6-13.3l1.1,0.5h-2.6l1.1-0.5l-4.4,13.3H236.6z M240.3,108l0.9-2.5h6.2l0.9,2.5
	H240.3z M260.7,112.5c-1.4,0-2.6-0.2-3.6-0.7s-1.8-1.1-2.4-1.9c-0.6-0.8-1.1-1.6-1.4-2.6c-0.3-0.9-0.4-1.8-0.4-2.7v-0.5
	c0-1,0.1-1.9,0.4-2.8c0.3-0.9,0.8-1.8,1.4-2.5c0.6-0.8,1.4-1.4,2.4-1.8c1-0.5,2.1-0.7,3.5-0.7s2.6,0.3,3.6,0.8s1.9,1.2,2.5,2.1
	s1,1.9,1.1,3.2h-3c-0.1-0.7-0.4-1.3-0.8-1.8s-0.9-0.9-1.4-1.1c-0.6-0.3-1.3-0.4-2-0.4c-0.8,0-1.4,0.1-2,0.4s-1.1,0.6-1.5,1.1
	s-0.7,1-0.9,1.7c-0.2,0.6-0.3,1.4-0.3,2.1c0,0.8,0.1,1.5,0.3,2.1s0.5,1.2,0.9,1.7s0.9,0.8,1.5,1.1c0.6,0.3,1.3,0.4,2.1,0.4
	c1.1,0,2.1-0.3,2.9-0.8c0.8-0.6,1.3-1.4,1.4-2.4h3c-0.1,1.1-0.5,2.1-1.1,3s-1.4,1.6-2.5,2.2C263.4,112.2,262.2,112.5,260.7,112.5z
	 M280.5,112.1l-5.6-7.2h-2.2l6.7-8.2h3.4l-6,7.3l-0.1-1.5l7.4,9.5L280.5,112.1L280.5,112.1z M270.6,112.1V96.8h3v15.3
	C273.6,112.1,270.6,112.1,270.6,112.1z"/>
<path class="st3" d="M141.1,150.1h149.4c2.2,0,4,1.8,4,4v16c0,2.2-1.8,4-4,4H141.1c-2.2,0-4-1.8-4-4v-16
	C137.1,151.9,138.9,150.1,141.1,150.1z"/>
<path class="st10" d="M144,202.1h147c2.2,0,4,1.8,4,4v7c0,2.2-1.8,4-4,4H144c-2.2,0-4-1.8-4-4v-7C140,203.9,141.8,202.1,144,202.1z"
	/>
<path class="st11" d="M144,225.1h147c2.2,0,4,1.8,4,4v7c0,2.2-1.8,4-4,4H144c-2.2,0-4-1.8-4-4v-7C140,226.9,141.8,225.1,144,225.1z"
	/>
<path class="st3" d="M103.2,71.7l39.2-39.2c0.8-0.8,2-0.8,2.8,0l5.2,5.2c0.8,0.8,0.8,2,0,2.8l-39.2,39.2c-0.8,0.8-2,0.8-2.8,0
	l-5.2-5.2C102.5,73.7,102.5,72.5,103.2,71.7z"/>
<path class="st6" d="M282.4,345.7l39.2-39.2c0.8-0.8,2-0.8,2.8,0l5.2,5.2c0.8,0.8,0.8,2,0,2.8l-39.2,39.2c-0.8,0.8-2,0.8-2.8,0
	l-5.2-5.2C281.6,347.8,281.6,346.5,282.4,345.7z"/>
<path class="st5" d="M193.6,262.5h46c2.2,0,4,1.8,4,4V308c0,2.2-1.8,4-4,4h-46c-2.2,0-4-1.8-4-4v-41.5
	C189.6,264.3,191.4,262.5,193.6,262.5z"/>
<path class="st12" d="M307,250.1l-12.1,28.7"/>
<path class="st13" d="M294.8,268c0.1-3.3,3.5-5.4,6.4-4.1l0,0c2.9,1.3,3.7,5.1,1.4,7.4l-5.7,5.9c-0.4,0.4-1,0.5-1.5,0.3l0,0
	c-0.5-0.2-0.9-0.7-0.8-1.3L294.8,268z"/>
<path class="st14" d="M330.1,196.2l1.4-3.3"/>
<path class="st0" d="M324.8,196.1c0.4-1,1.6-1.5,2.6-1.1l5.2,2.2c1,0.4,1.5,1.6,1.1,2.6L304.2,269c-0.4,1-1.6,1.5-2.6,1.1l-5.2-2.2
	c-1-0.4-1.5-1.6-1.1-2.6L324.8,196.1z"/>
<path class="st0" d="M335.7,204.7L335.7,204.7c0.8,0.3,1.2,1.3,0.9,2.1l-7,16.3c-0.3,0.8-1.3,1.2-2.1,0.9l0,0
	c-0.8-0.3-1.2-1.3-0.9-2.1l7-16.3C333.9,204.8,334.9,204.4,335.7,204.7z"/>
<path class="st0" d="M329.9,204.9c0.2-0.4,0.7-0.7,1.2-0.5l3.2,1.3c0.3,0.1,0.4,0.4,0.3,0.7l0,0c-0.2,0.5-1.9,0.6-2.4,0.4
	c-0.3-0.2-0.7-0.2-1.1-0.3C330.4,206.5,329.7,205.7,329.9,204.9L329.9,204.9z"/>
<path class="st3" d="M306.6,239l8.9,3.8c-2.3,7.7-3.9,11.8-7.8,18.2l-8.9-3.8C300.6,249.7,302.4,245.8,306.6,239z"/>
<circle class="st6" cx="323.9" cy="92.2" r="32.1"/>
<path class="st15" d="M318.2,60.6c-15,2.7-26.5,15.8-26.5,31.6s11.4,29,26.5,31.6V60.6z"/>
<path class="st5" d="M42.3,212.7c-1-2.5,0.3-5.4,2.9-6.3l73.7-27.9c3.8-1.4,8.1,0.5,9.5,4.3L169.7,292c1.4,3.8-0.5,8.1-4.3,9.5
	l-73.7,27.9c-2.5,1-5.4-0.3-6.3-2.9L42.3,212.7z"/>
<path class="st5" d="M35.3,214.6c-0.4-1-0.1-2.1,0.7-2.8l1.9-1.6c1.3-1.1,3.3-0.6,3.9,1l44.1,116.5c0.6,1.6-0.5,3.3-2.2,3.3
	l-2.5,0.1c-1,0-2-0.6-2.4-1.6L35.3,214.6z"/>
<circle class="st3" cx="139.1" cy="290.7" r="9.6"/>
<ellipse class="st6" cx="101.8" cy="277.8" rx="22.5" ry="22.5"/>
<path class="st0" d="M65.1,219.9l45.7-18.1c2.5-1,5.4,0.2,6.4,2.8l5.4,13.7c1,2.5-0.2,5.4-2.8,6.4l-45.7,18.1
	c-2.5,1-5.4-0.2-6.4-2.8l-5.4-13.7C61.3,223.7,62.6,220.9,65.1,219.9z"/>
</svg>
