<?xml version="1.0" encoding="utf-8"?>
<!-- Generator: Adobe Illustrator 24.3.0, SVG Export Plug-In . SVG Version: 6.00 Build 0)  -->
<svg version="1.1" id="Layer_1" xmlns="http://www.w3.org/2000/svg" xmlns:xlink="http://www.w3.org/1999/xlink" x="0px" y="0px"
	 viewBox="0 0 1330.2 1327.9" style="enable-background:new 0 0 1330.2 1327.9;" xml:space="preserve">
<style type="text/css">
	.st0{fill:#FFFFFF;}
	.st1{fill:#F3EBDF;}
	.st2{fill:#F9A465;}
	.st3{fill:#45529A;}
	.st4{fill:#F16469;}
	.st5{fill:#293E81;}
	.st6{fill:#1D315F;}
	.st7{fill:#455195;}
	.st8{fill:#F9A46A;}
	.st9{fill:#FAC4BC;}
	.st10{fill:none;stroke:#1D315F;stroke-width:4.405;stroke-miterlimit:10;}
</style>
<g>
	<polygon class="st0" points="26.6,997.9 653,468.8 843.3,472 1328.9,1005.8 26.6,997.9 	"/>
	<circle class="st1" cx="748" cy="450.7" r="40.4"/>
	<g>
		<g>
			
				<rect x="1111.8" y="648.4" transform="matrix(-1 -4.481005e-11 4.481005e-11 -1 2286.5325 1584.6357)" class="st2" width="62.9" height="287.8"/>
			
				<rect x="787.3" y="648.4" transform="matrix(-1 -4.498325e-11 4.498325e-11 -1 1637.5298 1584.6357)" class="st3" width="62.9" height="287.8"/>
			
				<rect x="1053.3" y="727.2" transform="matrix(-1 -4.485180e-11 4.485180e-11 -1 2166.283 1663.4503)" class="st4" width="59.7" height="209"/>
			
				<rect x="884.4" y="723.3" transform="matrix(-0.9407 0.3393 -0.3393 -0.9407 2055.074 1296.2887)" class="st4" width="59.7" height="209"/>
			
				<rect x="977.7" y="683.3" transform="matrix(-1 -4.502721e-11 4.502721e-11 -1 2031.0411 1619.5071)" class="st2" width="75.6" height="252.9"/>
			
				<rect x="977.7" y="714.5" transform="matrix(-1 -4.500279e-11 4.500279e-11 -1 2031.0411 1506.8131)" class="st3" width="75.6" height="77.8"/>
			<circle class="st5" cx="1143.3" cy="695.4" r="21.8"/>
		</g>
		<g>
			<path class="st2" d="M897.6,877.2H442.2c-9.1,0-16.5-7.4-16.5-16.5V557.6c0-9.1,7.4-16.5,16.5-16.5h455.3
				c9.1,0,16.5,7.4,16.5,16.5v303.1C914.1,869.8,906.7,877.2,897.6,877.2z"/>
			<path class="st6" d="M897.6,541.1H442.2c-9.1,0-16.5,7.4-16.5,16.5v267h488.4v-267C914.1,548.5,906.7,541.1,897.6,541.1z"/>
			<rect x="562.4" y="924.1" class="st2" width="230.5" height="11"/>
			<rect x="608.4" y="877.2" class="st2" width="137.2" height="46.9"/>
			<rect x="455.2" y="569.5" class="st0" width="427.9" height="231.7"/>
			<circle class="st7" cx="678.6" cy="849.8" r="9.5"/>
			<polygon class="st4" points="608.4,877.2 608.4,895.4 745.7,877.2 			"/>
			<polygon class="st4" points="713.1,924.1 792.8,924.1 792.8,930.7 			"/>
		</g>
		<g>
			<polyline class="st8" points="874.5,675 780.2,675 780.2,553 902.2,553 902.2,647.3 			"/>
			<polyline class="st4" points="874.5,675 874.5,647.3 902.2,647.3 			"/>
		</g>
		<g>
			<rect x="336.6" y="747.7" class="st9" width="16" height="6.2"/>
			<rect x="282.5" y="915.7" class="st3" width="100.1" height="17.6"/>
			<rect x="336.6" y="753.9" class="st3" width="13.9" height="33.4"/>
			<path class="st3" d="M343.6,734.5L343.6,734.5c2.4,0,4.4,2,4.4,4.4v8.8h-8.8v-8.8C339.2,736.5,341.2,734.5,343.6,734.5z"/>
			<path class="st3" d="M370.8,690.9L370.8,690.9c2.9,0,5.3,2.4,5.3,5.3v7.4c0,0.3-0.2,0.5-0.5,0.5H366c-0.3,0-0.5-0.2-0.5-0.5v-7.4
				C365.5,693.3,367.8,690.9,370.8,690.9z"/>
			<polygon class="st6" points="282.5,915.7 282.5,924.5 339.9,915.7 			"/>
			<path class="st3" d="M397.8,818c41.8,0,41.8,63.2,0,63.2v18.3c66.8,0,66.8-100.1,0-100.1V818z"/>
			<path class="st6" d="M415.5,876.3c-4.7,3.1-10.6,4.9-17.7,4.9V898L415.5,876.3z"/>
			<path class="st6" d="M417.2,824c0.7-8.2,5.9-11.8,11.8-13.2l-0.1-1.8c-7.9-5.9-18.2-9.6-31-9.6V818
				C405.8,818,412.2,820.3,417.2,824z"/>
			<rect x="283.9" y="682" class="st9" width="26.2" height="101.2"/>
			<rect x="325.2" y="693.9" class="st4" width="16" height="9.2"/>
			<rect x="325.2" y="703.1" class="st3" width="16" height="6.2"/>
			<rect x="325.2" y="709.3" class="st8" width="16" height="73.9"/>
			<rect x="352.6" y="717.7" class="st4" width="16" height="9.2"/>
			<rect x="352.6" y="727" class="st3" width="16" height="6.2"/>
			<rect x="352.6" y="733.2" class="st8" width="16" height="73.9"/>
			<rect x="362.8" y="706.7" class="st3" width="16" height="82.3"/>
			<rect x="306.7" y="726" class="st9" width="16" height="9.2"/>
			<rect x="306.7" y="735.2" class="st3" width="16" height="6.2"/>
			<rect x="306.7" y="741.4" class="st8" width="16" height="73.9"/>
			<rect x="360.6" y="703.6" class="st9" width="21.5" height="6.5"/>
			<rect x="376.1" y="705.6" class="st9" width="6.1" height="45.8"/>
			<polygon class="st4" points="309.6,682 296.8,783.2 309.6,783.2 			"/>
			<circle class="st0" cx="297" cy="692.7" r="4.3"/>
			<rect x="283.8" y="704.8" class="st0" width="9.5" height="2.1"/>
			<rect x="283.8" y="721.5" class="st0" width="9.5" height="2.1"/>
			<rect x="283.8" y="738.2" class="st0" width="9.5" height="2.1"/>
			<rect x="283.8" y="755" class="st0" width="9.5" height="2.1"/>
			<rect x="283.8" y="771.7" class="st0" width="9.5" height="2.1"/>
			<rect x="266.7" y="783.2" class="st3" width="132.5" height="132.5"/>
			<polygon class="st6" points="399.2,783.2 399.2,795.9 267,783.2 			"/>
			<polyline class="st6" points="322.7,735.2 322.7,741.4 319,741.4 320.6,735.2 			"/>
			<polyline class="st4" points="320.6,735.2 322.7,726.4 322.7,735.2 			"/>
		</g>
		<g>
			<path class="st4" d="M741.3,801.4H582.9V651.8c0-9.1,7.4-16.5,16.5-16.5h125.3c9.1,0,16.5,7.4,16.5,16.5V801.4z"/>
			<path class="st10" d="M582.9,734.5h-16.1c-8.9,0-16.1-7.2-16.1-16.1V683"/>
			<path class="st6" d="M550.7,699.5L550.7,699.5c-2.6,0-4.7-2.1-4.7-4.7V687c0-2.6,2.1-4.7,4.7-4.7l0,0c2.6,0,4.7,2.1,4.7,4.7v7.8
				C555.4,697.4,553.3,699.5,550.7,699.5z"/>
			<path class="st6" d="M625.9,731.2L625.9,731.2c-5.3,0-9.6-4.3-9.6-9.6v-16.8c0-5.3,4.3-9.6,9.6-9.6l0,0c5.3,0,9.6,4.3,9.6,9.6
				v16.8C635.5,726.9,631.2,731.2,625.9,731.2z"/>
			<path class="st6" d="M692.3,731.2L692.3,731.2c-5.3,0-9.6-4.3-9.6-9.6v-16.8c0-5.3,4.3-9.6,9.6-9.6l0,0c5.3,0,9.6,4.3,9.6,9.6
				v16.8C701.9,726.9,697.6,731.2,692.3,731.2z"/>
			<path class="st6" d="M659.6,752.8L659.6,752.8c-7.1,0-12.8-5.7-12.8-12.8v-2.9h25.6v2.9C672.4,747.1,666.7,752.8,659.6,752.8z"/>
			<line class="st10" x1="744.6" y1="734.5" x2="744.6" y2="801.4"/>
		</g>
	</g>
	<g>
		<path class="st6" d="M843.3,471.6l-190.1-2.1l9.2-55.8c9.5-40.4,45.8-68.8,87.3-68.3h0c41.5,0.5,77.1,29.7,85.7,70.3L843.3,471.6z
			"/>
		<path class="st6" d="M787.1,396.4l-78.2-0.9l0.5-46.3c0.2-21.6,17.9-38.9,39.5-38.7h0c21.6,0.2,38.9,17.9,38.7,39.5L787.1,396.4z"
			/>
		<rect x="742.2" y="1" class="st6" width="11.1" height="366.4"/>
	</g>
</g>
<polyline class="st9" points="127.3,933.8 1186.9,933.8 1186.9,1012.5 -0.4,1012.5 -0.4,933.8 127.3,933.8 "/>
<rect x="48.6" y="1011.2" class="st9" width="1138.3" height="317.7"/>
</svg>
