<?xml version="1.0" encoding="utf-8"?>
<!-- Generator: Adobe Illustrator 25.0.0, SVG Export Plug-In . SVG Version: 6.00 Build 0)  -->
<svg version="1.1" id="Layer_1" xmlns="http://www.w3.org/2000/svg" xmlns:xlink="http://www.w3.org/1999/xlink" x="0px" y="0px"
	 viewBox="0 0 1188 1353.7" style="enable-background:new 0 0 1188 1353.7;" xml:space="preserve">
<style type="text/css">
	.st0{fill:#FFFFFF;}
	.st1{fill:#F3EBDF;}
	.st2{fill:#F9A465;}
	.st3{fill:#45529A;}
	.st4{fill:#F16469;}
	.st5{fill:#293E81;}
	.st6{fill:#1D315F;}
	.st7{fill:#455195;}
	.st8{fill:#F9A46A;}
	.st9{fill:#FAC4BC;}
	.st10{fill:none;stroke:#1D315F;stroke-width:4.405;stroke-miterlimit:10;}
</style>
<g>
	<polygon class="st0" points="1189.3,850.1 845.9,471.6 655.8,471.5 28.6,997.9 1189.3,1005 	"/>
	<circle class="st1" cx="750" cy="450.7" r="40.4"/>
	<g>
		<g>
			<rect x="1113.8" y="648.4" class="st2" width="62.9" height="287.8"/>
			<rect x="789.3" y="648.4" class="st3" width="62.9" height="287.8"/>
			<rect x="1055.3" y="727.2" class="st4" width="59.7" height="209"/>
			
				<rect x="886.3" y="723.2" transform="matrix(0.9407 -0.3393 0.3393 0.9407 -226.4882 359.9474)" class="st4" width="59.7" height="209"/>
			<rect x="979.7" y="683.3" class="st2" width="75.6" height="252.9"/>
			<rect x="979.7" y="714.5" class="st3" width="75.6" height="77.8"/>
			<circle class="st5" cx="1145.3" cy="695.4" r="21.8"/>
		</g>
		<g>
			<path class="st2" d="M899.6,877.2H444.2c-9.1,0-16.5-7.4-16.5-16.5V557.6c0-9.1,7.4-16.5,16.5-16.5h455.3
				c9.1,0,16.5,7.4,16.5,16.5v303.1C916.1,869.8,908.7,877.2,899.6,877.2z"/>
			<path class="st6" d="M899.6,541.1H444.2c-9.1,0-16.5,7.4-16.5,16.5v267h488.4v-267C916.1,548.5,908.7,541.1,899.6,541.1z"/>
			<rect x="564.3" y="924.1" class="st2" width="230.5" height="11"/>
			<rect x="610.4" y="877.2" class="st2" width="137.2" height="46.9"/>
			<rect x="457.2" y="569.5" class="st0" width="427.9" height="231.7"/>
			<circle class="st7" cx="680.6" cy="849.8" r="9.5"/>
			<polygon class="st4" points="610.4,877.2 610.4,895.3 747.7,877.2 			"/>
			<polygon class="st4" points="715.1,924.1 794.8,924.1 794.8,930.7 			"/>
		</g>
		<g>
			<polyline class="st8" points="876.5,675 782.1,675 782.1,553 904.2,553 904.2,647.3 			"/>
			<polyline class="st4" points="876.5,675 876.5,647.3 904.2,647.3 			"/>
		</g>
		<g>
			<rect x="338.6" y="747.7" class="st9" width="16" height="6.2"/>
			<rect x="284.5" y="915.7" class="st3" width="100.1" height="17.6"/>
			<rect x="338.6" y="753.9" class="st3" width="13.9" height="33.4"/>
			<path class="st3" d="M345.6,734.5L345.6,734.5c2.4,0,4.4,2,4.4,4.4v8.8h-8.8v-8.8C341.2,736.4,343.2,734.5,345.6,734.5z"/>
			<path class="st3" d="M372.8,690.9L372.8,690.9c2.9,0,5.3,2.4,5.3,5.3v7.4c0,0.3-0.2,0.5-0.5,0.5h-9.7c-0.3,0-0.5-0.2-0.5-0.5
				v-7.4C367.5,693.3,369.8,690.9,372.8,690.9z"/>
			<polygon class="st6" points="284.5,915.7 284.5,924.5 341.9,915.7 			"/>
			<path class="st3" d="M399.8,818c41.8,0,41.8,63.2,0,63.2v18.3c66.8,0,66.8-100.1,0-100.1V818z"/>
			<path class="st6" d="M417.5,876.3c-4.7,3.1-10.6,4.9-17.7,4.9V898L417.5,876.3z"/>
			<path class="st6" d="M419.2,824c0.7-8.2,5.9-11.8,11.8-13.2l-0.1-1.8c-7.9-5.9-18.2-9.6-31-9.6V818
				C407.8,818,414.2,820.3,419.2,824z"/>
			<rect x="285.8" y="682" class="st9" width="26.2" height="101.2"/>
			<rect x="327.2" y="693.9" class="st4" width="16" height="9.2"/>
			<rect x="327.2" y="703.1" class="st3" width="16" height="6.2"/>
			<rect x="327.2" y="709.3" class="st8" width="16" height="73.9"/>
			<rect x="354.6" y="717.7" class="st4" width="16" height="9.2"/>
			<rect x="354.6" y="726.9" class="st3" width="16" height="6.2"/>
			<rect x="354.6" y="733.2" class="st8" width="16" height="73.9"/>
			<rect x="364.8" y="706.7" class="st3" width="16" height="82.3"/>
			<rect x="308.7" y="726" class="st9" width="16" height="9.2"/>
			<rect x="308.7" y="735.2" class="st3" width="16" height="6.2"/>
			<rect x="308.7" y="741.4" class="st8" width="16" height="73.9"/>
			<rect x="362.6" y="703.6" class="st9" width="21.5" height="6.5"/>
			<rect x="378.1" y="705.6" class="st9" width="6.1" height="45.8"/>
			<polygon class="st4" points="311.6,682 298.8,783.2 311.6,783.2 			"/>
			<circle class="st0" cx="299" cy="692.7" r="4.3"/>
			<rect x="285.8" y="704.7" class="st0" width="9.5" height="2.1"/>
			<rect x="285.8" y="721.5" class="st0" width="9.5" height="2.1"/>
			<rect x="285.8" y="738.2" class="st0" width="9.5" height="2.1"/>
			<rect x="285.8" y="755" class="st0" width="9.5" height="2.1"/>
			<rect x="285.8" y="771.7" class="st0" width="9.5" height="2.1"/>
			<rect x="268.7" y="783.2" class="st3" width="132.5" height="132.5"/>
			<polygon class="st6" points="401.2,783.2 401.2,795.9 269,783.2 			"/>
			<polyline class="st6" points="324.7,735.2 324.7,741.4 321,741.4 322.5,735.2 			"/>
			<polyline class="st4" points="322.5,735.2 324.7,726.3 324.7,735.2 			"/>
		</g>
		<g>
			<path class="st4" d="M743.3,801.4H584.9V651.8c0-9.1,7.4-16.5,16.5-16.5h125.3c9.1,0,16.5,7.4,16.5,16.5L743.3,801.4L743.3,801.4
				z"/>
			<path class="st10" d="M584.9,734.5h-16.1c-8.9,0-16.1-7.2-16.1-16.1V683"/>
			<path class="st6" d="M552.7,699.4L552.7,699.4c-2.6,0-4.7-2.1-4.7-4.7v-7.8c0-2.6,2.1-4.7,4.7-4.7l0,0c2.6,0,4.7,2.1,4.7,4.7v7.8
				C557.4,697.3,555.3,699.4,552.7,699.4z"/>
			<path class="st6" d="M627.9,731.2L627.9,731.2c-5.3,0-9.6-4.3-9.6-9.6v-16.8c0-5.3,4.3-9.6,9.6-9.6l0,0c5.3,0,9.6,4.3,9.6,9.6
				v16.8C637.5,726.9,633.2,731.2,627.9,731.2z"/>
			<path class="st6" d="M694.3,731.2L694.3,731.2c-5.3,0-9.6-4.3-9.6-9.6v-16.8c0-5.3,4.3-9.6,9.6-9.6l0,0c5.3,0,9.6,4.3,9.6,9.6
				v16.8C703.9,726.9,699.6,731.2,694.3,731.2z"/>
			<path class="st6" d="M661.6,752.8L661.6,752.8c-7.1,0-12.8-5.7-12.8-12.8v-2.9h25.6v2.9C674.4,747.1,668.7,752.8,661.6,752.8z"/>
			<line class="st10" x1="746.6" y1="734.5" x2="746.6" y2="801.4"/>
		</g>
	</g>
	<g>
		<path class="st6" d="M845.9,471.6l-190.1-0.2l8.6-55.9c9.1-40.5,45.1-69.3,86.6-69.2l0,0c41.5,0.1,77.4,28.9,86.4,69.4
			L845.9,471.6z"/>
		<path class="st6" d="M789.1,396.4l-78.2-0.9l0.5-46.3c0.2-21.6,17.9-38.9,39.5-38.7l0,0c21.6,0.2,38.9,17.9,38.7,39.5L789.1,396.4
			z"/>
		<rect x="744.2" y="1" class="st6" width="11.1" height="366.4"/>
	</g>
</g>
<polyline class="st9" points="128.3,933.7 1187.8,933.7 1187.8,1012.5 0.6,1012.5 0.6,933.7 128.3,933.7 "/>
<rect x="49.6" y="1011.2" class="st9" width="1138.3" height="342"/>
</svg>
