<?xml version="1.0" encoding="utf-8"?>
<!-- Generator: Adobe Illustrator 24.3.0, SVG Export Plug-In . SVG Version: 6.00 Build 0)  -->
<svg version="1.1" id="Layer_1" xmlns="http://www.w3.org/2000/svg" xmlns:xlink="http://www.w3.org/1999/xlink" x="0px" y="0px"
	 viewBox="0 0 1523.5 1353.7" style="enable-background:new 0 0 1523.5 1353.7;" xml:space="preserve">
<style type="text/css">
	.st0{fill:#FFFFFF;}
	.st1{fill:#F3EBDF;}
	.st2{fill:#F9A465;}
	.st3{fill:#45529A;}
	.st4{fill:#F16469;}
	.st5{fill:#293E81;}
	.st6{fill:#1D315F;}
	.st7{fill:#455195;}
	.st8{fill:#F9A46A;}
	.st9{fill:#FAC4BC;}
	.st10{fill:none;stroke:#1D315F;stroke-width:4.405;stroke-miterlimit:10;}
</style>
<g>
	<polygon class="st0" points="1522.4,850.1 1178.4,472 988.1,468.8 361.7,997.9 1522.4,1005 	"/>
	<circle class="st1" cx="1083.1" cy="450.7" r="40.4"/>
	<g>
		<g>
			
				<rect x="1446.9" y="648.4" transform="matrix(-1 -4.481005e-11 4.481005e-11 -1 2956.7163 1584.5957)" class="st2" width="62.9" height="287.8"/>
			
				<rect x="1122.4" y="648.4" transform="matrix(-1 -4.495438e-11 4.495438e-11 -1 2307.7136 1584.5957)" class="st3" width="62.9" height="287.8"/>
			
				<rect x="1388.4" y="727.2" transform="matrix(-1 -4.488244e-11 4.488244e-11 -1 2836.4668 1663.4103)" class="st4" width="59.7" height="209"/>
			
				<rect x="1219.5" y="723.3" transform="matrix(-0.9407 0.3393 -0.3393 -0.9407 2705.3711 1182.548)" class="st4" width="59.7" height="209"/>
			
				<rect x="1312.8" y="683.3" transform="matrix(-1 -4.502721e-11 4.502721e-11 -1 2701.2251 1619.467)" class="st2" width="75.6" height="252.9"/>
			
				<rect x="1312.8" y="714.5" transform="matrix(-1 -4.500279e-11 4.500279e-11 -1 2701.2251 1506.7731)" class="st3" width="75.6" height="77.8"/>
			<circle class="st5" cx="1478.4" cy="695.4" r="21.8"/>
		</g>
		<g>
			<path class="st2" d="M1232.7,877.2H777.3c-9.1,0-16.5-7.4-16.5-16.5V557.6c0-9.1,7.4-16.5,16.5-16.5h455.3
				c9.1,0,16.5,7.4,16.5,16.5v303.1C1249.2,869.8,1241.8,877.2,1232.7,877.2z"/>
			<path class="st6" d="M1232.7,541.1H777.3c-9.1,0-16.5,7.4-16.5,16.5v267h488.4v-267C1249.2,548.5,1241.8,541.1,1232.7,541.1z"/>
			<rect x="897.4" y="924.1" class="st2" width="230.5" height="11"/>
			<rect x="943.5" y="877.2" class="st2" width="137.2" height="46.9"/>
			<rect x="790.3" y="569.5" class="st0" width="427.9" height="231.7"/>
			<circle class="st7" cx="1013.7" cy="849.8" r="9.5"/>
			<polygon class="st4" points="943.5,877.2 943.5,895.3 1080.8,877.2 			"/>
			<polygon class="st4" points="1048.2,924.1 1127.9,924.1 1127.9,930.7 			"/>
		</g>
		<g>
			<polyline class="st8" points="1209.6,675 1115.2,675 1115.2,553 1237.3,553 1237.3,647.3 			"/>
			<polyline class="st4" points="1209.6,675 1209.6,647.3 1237.3,647.3 			"/>
		</g>
		<g>
			<rect x="671.7" y="747.7" class="st9" width="16" height="6.2"/>
			<rect x="617.6" y="915.7" class="st3" width="100.1" height="17.6"/>
			<rect x="671.7" y="753.9" class="st3" width="13.9" height="33.4"/>
			<path class="st3" d="M678.7,734.5L678.7,734.5c2.4,0,4.4,2,4.4,4.4v8.8h-8.8v-8.8C674.3,736.4,676.3,734.5,678.7,734.5z"/>
			<path class="st3" d="M705.9,690.9L705.9,690.9c2.9,0,5.3,2.4,5.3,5.3v7.4c0,0.3-0.2,0.5-0.5,0.5H701c-0.3,0-0.5-0.2-0.5-0.5v-7.4
				C700.6,693.3,702.9,690.9,705.9,690.9z"/>
			<polygon class="st6" points="617.6,915.7 617.6,924.5 675,915.7 			"/>
			<path class="st3" d="M732.9,818c41.8,0,41.8,63.2,0,63.2v18.3c66.8,0,66.8-100.1,0-100.1V818z"/>
			<path class="st6" d="M750.6,876.3c-4.7,3.1-10.6,4.9-17.7,4.9V898L750.6,876.3z"/>
			<path class="st6" d="M752.3,824c0.7-8.2,5.9-11.8,11.8-13.2l-0.1-1.8c-7.9-5.9-18.2-9.6-31-9.6V818
				C740.9,818,747.3,820.3,752.3,824z"/>
			<rect x="618.9" y="682" class="st9" width="26.2" height="101.2"/>
			<rect x="660.3" y="693.9" class="st4" width="16" height="9.2"/>
			<rect x="660.3" y="703.1" class="st3" width="16" height="6.2"/>
			<rect x="660.3" y="709.3" class="st8" width="16" height="73.9"/>
			<rect x="687.7" y="717.7" class="st4" width="16" height="9.2"/>
			<rect x="687.7" y="726.9" class="st3" width="16" height="6.2"/>
			<rect x="687.7" y="733.2" class="st8" width="16" height="73.9"/>
			<rect x="697.9" y="706.7" class="st3" width="16" height="82.3"/>
			<rect x="641.8" y="726" class="st9" width="16" height="9.2"/>
			<rect x="641.8" y="735.2" class="st3" width="16" height="6.2"/>
			<rect x="641.8" y="741.4" class="st8" width="16" height="73.9"/>
			<rect x="695.7" y="703.6" class="st9" width="21.5" height="6.5"/>
			<rect x="711.2" y="705.6" class="st9" width="6.1" height="45.8"/>
			<polygon class="st4" points="644.7,682 631.9,783.2 644.7,783.2 			"/>
			<circle class="st0" cx="632.1" cy="692.7" r="4.3"/>
			<rect x="618.9" y="704.7" class="st0" width="9.5" height="2.1"/>
			<rect x="618.9" y="721.5" class="st0" width="9.5" height="2.1"/>
			<rect x="618.9" y="738.2" class="st0" width="9.5" height="2.1"/>
			<rect x="618.9" y="755" class="st0" width="9.5" height="2.1"/>
			<rect x="618.9" y="771.7" class="st0" width="9.5" height="2.1"/>
			<rect x="601.8" y="783.2" class="st3" width="132.5" height="132.5"/>
			<polygon class="st6" points="734.3,783.2 734.3,795.9 602.1,783.2 			"/>
			<polyline class="st6" points="657.8,735.2 657.8,741.4 654.1,741.4 655.6,735.2 			"/>
			<polyline class="st4" points="655.6,735.2 657.8,726.3 657.8,735.2 			"/>
		</g>
		<g>
			<path class="st4" d="M1076.4,801.4H918V651.8c0-9.1,7.4-16.5,16.5-16.5h125.3c9.1,0,16.5,7.4,16.5,16.5V801.4z"/>
			<path class="st10" d="M918,734.5h-16.1c-8.9,0-16.1-7.2-16.1-16.1V683"/>
			<path class="st6" d="M885.8,699.4L885.8,699.4c-2.6,0-4.7-2.1-4.7-4.7v-7.8c0-2.6,2.1-4.7,4.7-4.7h0c2.6,0,4.7,2.1,4.7,4.7v7.8
				C890.5,697.3,888.4,699.4,885.8,699.4z"/>
			<path class="st6" d="M961,731.2L961,731.2c-5.3,0-9.6-4.3-9.6-9.6v-16.8c0-5.3,4.3-9.6,9.6-9.6h0c5.3,0,9.6,4.3,9.6,9.6v16.8
				C970.6,726.9,966.3,731.2,961,731.2z"/>
			<path class="st6" d="M1027.4,731.2L1027.4,731.2c-5.3,0-9.6-4.3-9.6-9.6v-16.8c0-5.3,4.3-9.6,9.6-9.6h0c5.3,0,9.6,4.3,9.6,9.6
				v16.8C1037,726.9,1032.7,731.2,1027.4,731.2z"/>
			<path class="st6" d="M994.7,752.8L994.7,752.8c-7.1,0-12.8-5.7-12.8-12.8v-2.9h25.6v2.9C1007.5,747.1,1001.8,752.8,994.7,752.8z"
				/>
			<line class="st10" x1="1079.7" y1="734.5" x2="1079.7" y2="801.4"/>
		</g>
	</g>
	<g>
		<path class="st6" d="M1178.4,471.6l-190.1-2.1l9.2-55.8c9.5-40.4,45.8-68.8,87.3-68.3h0c41.5,0.5,77.1,29.7,85.7,70.3
			L1178.4,471.6z"/>
		<path class="st6" d="M1122.2,396.4l-78.2-0.9l0.5-46.3c0.2-21.6,17.9-38.9,39.5-38.7h0c21.6,0.2,38.9,17.9,38.7,39.5L1122.2,396.4
			z"/>
		<rect x="1077.3" y="1" class="st6" width="11.1" height="366.4"/>
	</g>
</g>
<polyline class="st9" points="461.4,933.7 1520.9,933.7 1520.9,1012.5 333.7,1012.5 333.7,933.7 461.4,933.7 "/>
<rect x="382.7" y="1011.2" class="st9" width="1138.3" height="317.7"/>
<g>
	<path class="st6" d="M1522.4,1351.7c-0.1-2.5-0.1-5.1,0-7.7v-230l-1523.1,0.7l0.1,239.9l1523-0.7V1351.7z"/>
	<rect x="-1.1" y="891.4" class="st6" width="66" height="315.4"/>
	<rect x="71" y="955.4" class="st6" width="43" height="251.3"/>
	<rect x="182.3" y="982.9" class="st6" width="49.6" height="216.8"/>
	<rect x="125.9" y="967" class="st6" width="74.4" height="239.6"/>
	<rect x="228.7" y="1022" class="st6" width="32.3" height="181.7"/>
	<rect x="269.3" y="987.1" class="st6" width="32.3" height="219.5"/>
	<polygon class="st6" points="445.4,963.2 424.8,963.3 424.9,1075.9 402.5,1075.9 402.4,985.8 378.4,985.8 378.5,1075.9 368,1075.9 
		368,965.5 350.9,965.5 350.9,1075.9 328.9,1075.9 329,1207.6 469.4,1207.5 469.4,1075.9 445.4,1075.9 	"/>
	<rect x="1031.7" y="961.7" class="st6" width="71.6" height="245.5"/>
	<rect x="1113.7" y="938.1" class="st6" width="35.1" height="269.1"/>
	<rect x="1159.1" y="903.4" class="st6" width="32.3" height="303.8"/>
	<polygon class="st6" points="1522.4,914.1 1488.4,914.1 1488.2,1183.2 1522.4,1183.2 	"/>
	<rect x="1445.7" y="879.4" class="st6" width="32.3" height="303.8"/>
	<rect x="1201.8" y="904.6" class="st6" width="105.3" height="302.5"/>
	<rect x="1317.4" y="970.3" class="st6" width="57.5" height="236.8"/>
	<rect x="1370.4" y="937.3" class="st6" width="62.5" height="236.8"/>
	<rect x="589.5" y="1061.4" class="st6" width="402.8" height="17.4"/>
	<path class="st6" d="M539.9,1071.5l91.7-43.2l-2.1-3.4l62.6-29.5l5.3,15.3l13.5-5.2l6.6,8.7c0.9,1.2,2.9,0.3,2.5-1l-3-10.1
		l12.5-4.9l-18-26.9l-24.4,9.5l1.9,5.5l-64.4,30.4l-2.5-4.2l-110.6,52.2l0.4,0.6l0,26.8l-28.1,0l0.1,115.3l537.6-0.3l-0.1-115.3
		l-481.4,0.2L539.9,1071.5z"/>
</g>
</svg>
