<svg width="1438" height="1024" viewBox="0 0 1438 1024" fill="none" xmlns="http://www.w3.org/2000/svg">
<g clip-path="url(#clip0)">
<g clip-path="url(#clip1)">
<path d="M143.032 356.343C146.218 357.022 148.777 358.615 150.709 361.121C152.642 363.576 153.608 366.396 153.608 369.582C153.608 374.178 151.989 377.834 148.751 380.55C145.565 383.214 141.099 384.545 135.354 384.545H109.737V329.55H134.493C140.081 329.55 144.442 330.83 147.576 333.389C150.762 335.948 152.354 339.421 152.354 343.808C152.354 347.046 151.493 349.736 149.769 351.877C148.098 354.019 145.852 355.507 143.032 356.343ZM123.133 351.799H131.907C134.101 351.799 135.772 351.329 136.921 350.389C138.123 349.396 138.723 347.96 138.723 346.08C138.723 344.2 138.123 342.764 136.921 341.771C135.772 340.779 134.101 340.283 131.907 340.283H123.133V351.799ZM133.004 373.734C135.25 373.734 136.974 373.238 138.175 372.246C139.428 371.201 140.055 369.713 140.055 367.78C140.055 365.848 139.402 364.333 138.096 363.237C136.843 362.14 135.093 361.592 132.848 361.592H123.133V373.734H133.004ZM189.424 384.545L177.986 363.785H174.774V384.545H161.378V329.55H183.862C188.196 329.55 191.878 330.307 194.908 331.822C197.989 333.337 200.287 335.426 201.802 338.089C203.316 340.701 204.073 343.625 204.073 346.863C204.073 350.519 203.029 353.784 200.94 356.656C198.903 359.529 195.874 361.565 191.852 362.767L204.544 384.545H189.424ZM174.774 354.306H183.078C185.533 354.306 187.361 353.705 188.562 352.504C189.815 351.303 190.442 349.605 190.442 347.412C190.442 345.323 189.815 343.678 188.562 342.476C187.361 341.275 185.533 340.675 183.078 340.675H174.774V354.306ZM225.879 329.55V384.545H212.483V329.55H225.879ZM233.315 356.969C233.315 351.538 234.491 346.707 236.841 342.476C239.191 338.194 242.455 334.877 246.633 332.527C250.864 330.125 255.643 328.923 260.97 328.923C267.498 328.923 273.086 330.647 277.735 334.094C282.383 337.541 285.49 342.241 287.057 348.195H272.329C271.232 345.897 269.666 344.148 267.629 342.946C265.644 341.745 263.372 341.145 260.813 341.145C256.687 341.145 253.345 342.581 250.785 345.453C248.226 348.326 246.947 352.165 246.947 356.969C246.947 361.774 248.226 365.613 250.785 368.486C253.345 371.358 256.687 372.794 260.813 372.794C263.372 372.794 265.644 372.194 267.629 370.992C269.666 369.791 271.232 368.042 272.329 365.744H287.057C285.49 371.698 282.383 376.398 277.735 379.845C273.086 383.24 267.498 384.937 260.97 384.937C255.643 384.937 250.864 383.762 246.633 381.412C242.455 379.009 239.191 375.693 236.841 371.462C234.491 367.232 233.315 362.401 233.315 356.969ZM327.146 384.545L308.657 360.26V384.545H295.261V329.55H308.657V353.679L326.989 329.55H342.736L321.427 356.499L343.519 384.545H327.146ZM397.517 329.55V384.545H384.12V361.905H363.282V384.545H349.885V329.55H363.282V351.094H384.12V329.55H397.517ZM441.422 374.831H420.897L417.607 384.545H403.584L423.482 329.55H438.994L458.892 384.545H444.713L441.422 374.831ZM437.975 364.49L431.16 344.357L424.422 364.49H437.975ZM462.677 356.969C462.677 351.538 463.852 346.707 466.202 342.476C468.552 338.194 471.816 334.877 475.995 332.527C480.225 330.125 485.004 328.923 490.331 328.923C496.859 328.923 502.448 330.647 507.096 334.094C511.744 337.541 514.852 342.241 516.418 348.195H501.69C500.594 345.897 499.027 344.148 496.99 342.946C495.005 341.745 492.733 341.145 490.174 341.145C486.048 341.145 482.706 342.581 480.147 345.453C477.587 348.326 476.308 352.165 476.308 356.969C476.308 361.774 477.587 365.613 480.147 368.486C482.706 371.358 486.048 372.794 490.174 372.794C492.733 372.794 495.005 372.194 496.99 370.992C499.027 369.791 500.594 368.042 501.69 365.744H516.418C514.852 371.698 511.744 376.398 507.096 379.845C502.448 383.24 496.859 384.937 490.331 384.937C485.004 384.937 480.225 383.762 475.995 381.412C471.816 379.009 468.552 375.693 466.202 371.462C463.852 367.232 462.677 362.401 462.677 356.969ZM556.507 384.545L538.018 360.26V384.545H524.622V329.55H538.018V353.679L556.35 329.55H572.097L550.788 356.499L572.88 384.545H556.507ZM631.023 337.384L611.36 384.545H597.65L617.548 338.873H593.184V327.435H631.023V337.384Z" fill="white"/>
<path d="M563.01 531.095H165.456C150.519 531.095 138.507 518.978 138.507 504.146V503.832C138.507 488.895 150.623 476.883 165.456 476.883H563.01C577.947 476.883 589.959 489 589.959 503.832V504.146C589.959 518.978 577.947 531.095 563.01 531.095Z" fill="white"/>
<path d="M227.001 508.188C227.001 508.555 226.977 508.886 226.93 509.182H219.454C219.513 509.964 219.803 510.591 220.324 511.065C220.845 511.538 221.484 511.775 222.242 511.775C223.331 511.775 224.1 511.319 224.55 510.408H226.734C226.438 511.307 225.9 512.047 225.118 512.627C224.349 513.195 223.39 513.48 222.242 513.48C221.306 513.48 220.466 513.272 219.72 512.858C218.986 512.432 218.406 511.84 217.98 511.082C217.566 510.313 217.358 509.425 217.358 508.419C217.358 507.413 217.56 506.531 217.962 505.773C218.377 505.003 218.951 504.412 219.685 503.997C220.43 503.583 221.283 503.376 222.242 503.376C223.165 503.376 223.988 503.577 224.71 503.979C225.432 504.382 225.994 504.95 226.397 505.684C226.799 506.406 227.001 507.241 227.001 508.188ZM224.888 507.549C224.876 506.803 224.609 506.205 224.088 505.755C223.568 505.305 222.922 505.08 222.153 505.08C221.454 505.08 220.857 505.305 220.359 505.755C219.862 506.193 219.566 506.791 219.472 507.549H224.888ZM233.929 503.376C234.699 503.376 235.385 503.536 235.989 503.855C236.605 504.175 237.084 504.648 237.427 505.276C237.771 505.903 237.942 506.661 237.942 507.549V513.32H235.936V507.851C235.936 506.975 235.717 506.306 235.279 505.844C234.841 505.37 234.243 505.134 233.485 505.134C232.728 505.134 232.124 505.37 231.674 505.844C231.236 506.306 231.017 506.975 231.017 507.851V513.32H228.993V503.536H231.017V504.654C231.349 504.252 231.769 503.938 232.278 503.713C232.799 503.488 233.349 503.376 233.929 503.376ZM242.886 505.187V510.603C242.886 510.97 242.969 511.236 243.135 511.402C243.312 511.556 243.608 511.633 244.023 511.633H245.266V513.32H243.668C242.756 513.32 242.058 513.107 241.572 512.681C241.087 512.254 240.844 511.562 240.844 510.603V505.187H239.69V503.536H240.844V501.103H242.886V503.536H245.266V505.187H242.886ZM256.099 508.188C256.099 508.555 256.075 508.886 256.028 509.182H248.552C248.611 509.964 248.901 510.591 249.422 511.065C249.943 511.538 250.582 511.775 251.34 511.775C252.429 511.775 253.199 511.319 253.648 510.408H255.833C255.537 511.307 254.998 512.047 254.217 512.627C253.447 513.195 252.488 513.48 251.34 513.48C250.405 513.48 249.564 513.272 248.818 512.858C248.085 512.432 247.504 511.84 247.078 511.082C246.664 510.313 246.457 509.425 246.457 508.419C246.457 507.413 246.658 506.531 247.061 505.773C247.475 505.003 248.049 504.412 248.783 503.997C249.529 503.583 250.381 503.376 251.34 503.376C252.263 503.376 253.086 503.577 253.808 503.979C254.53 504.382 255.093 504.95 255.495 505.684C255.898 506.406 256.099 507.241 256.099 508.188ZM253.986 507.549C253.974 506.803 253.708 506.205 253.187 505.755C252.666 505.305 252.021 505.08 251.251 505.08C250.553 505.08 249.955 505.305 249.458 505.755C248.961 506.193 248.665 506.791 248.57 507.549H253.986ZM260.115 504.956C260.411 504.459 260.802 504.074 261.287 503.802C261.785 503.518 262.371 503.376 263.045 503.376V505.471H262.53C261.737 505.471 261.134 505.672 260.719 506.075C260.317 506.477 260.115 507.176 260.115 508.17V513.32H258.091V503.536H260.115V504.956ZM278.326 503.536L272.325 517.919H270.229L272.218 513.16L268.365 503.536H270.62L273.372 510.994L276.231 503.536H278.326ZM284.098 513.48C283.175 513.48 282.34 513.272 281.594 512.858C280.849 512.432 280.263 511.84 279.836 511.082C279.41 510.313 279.197 509.425 279.197 508.419C279.197 507.424 279.416 506.542 279.854 505.773C280.292 505.003 280.89 504.412 281.648 503.997C282.405 503.583 283.252 503.376 284.187 503.376C285.122 503.376 285.969 503.583 286.726 503.997C287.484 504.412 288.082 505.003 288.52 505.773C288.958 506.542 289.177 507.424 289.177 508.419C289.177 509.413 288.952 510.295 288.502 511.065C288.052 511.834 287.436 512.432 286.655 512.858C285.886 513.272 285.033 513.48 284.098 513.48ZM284.098 511.722C284.619 511.722 285.104 511.597 285.554 511.349C286.016 511.1 286.389 510.727 286.673 510.23C286.957 509.733 287.099 509.129 287.099 508.419C287.099 507.708 286.963 507.111 286.691 506.625C286.418 506.128 286.057 505.755 285.607 505.507C285.158 505.258 284.672 505.134 284.151 505.134C283.631 505.134 283.145 505.258 282.695 505.507C282.257 505.755 281.908 506.128 281.648 506.625C281.387 507.111 281.257 507.708 281.257 508.419C281.257 509.472 281.523 510.289 282.056 510.869C282.601 511.437 283.281 511.722 284.098 511.722ZM300.039 503.536V513.32H298.014V512.166C297.695 512.568 297.275 512.888 296.754 513.124C296.245 513.349 295.7 513.462 295.12 513.462C294.35 513.462 293.658 513.302 293.042 512.982C292.439 512.663 291.959 512.189 291.604 511.562C291.261 510.934 291.089 510.177 291.089 509.289V503.536H293.096V508.987C293.096 509.863 293.315 510.538 293.753 511.011C294.191 511.473 294.788 511.704 295.546 511.704C296.304 511.704 296.902 511.473 297.34 511.011C297.789 510.538 298.014 509.863 298.014 508.987V503.536H300.039ZM304.734 504.956C305.03 504.459 305.421 504.074 305.906 503.802C306.403 503.518 306.989 503.376 307.664 503.376V505.471H307.149C306.356 505.471 305.752 505.672 305.338 506.075C304.935 506.477 304.734 507.176 304.734 508.17V513.32H302.71V503.536H304.734V504.956ZM323.105 508.188C323.105 508.555 323.081 508.886 323.034 509.182H315.558C315.617 509.964 315.907 510.591 316.428 511.065C316.949 511.538 317.588 511.775 318.346 511.775C319.435 511.775 320.205 511.319 320.654 510.408H322.839C322.543 511.307 322.004 512.047 321.223 512.627C320.453 513.195 319.494 513.48 318.346 513.48C317.411 513.48 316.57 513.272 315.824 512.858C315.09 512.432 314.51 511.84 314.084 511.082C313.67 510.313 313.463 509.425 313.463 508.419C313.463 507.413 313.664 506.531 314.066 505.773C314.481 505.003 315.055 504.412 315.789 503.997C316.535 503.583 317.387 503.376 318.346 503.376C319.269 503.376 320.092 503.577 320.814 503.979C321.536 504.382 322.099 504.95 322.501 505.684C322.904 506.406 323.105 507.241 323.105 508.188ZM320.992 507.549C320.98 506.803 320.714 506.205 320.193 505.755C319.672 505.305 319.027 505.08 318.257 505.08C317.559 505.08 316.961 505.305 316.464 505.755C315.966 506.193 315.67 506.791 315.576 507.549H320.992ZM336.941 503.376C337.711 503.376 338.397 503.536 339.001 503.855C339.617 504.175 340.096 504.648 340.439 505.276C340.794 505.903 340.972 506.661 340.972 507.549V513.32H338.965V507.851C338.965 506.975 338.746 506.306 338.308 505.844C337.87 505.37 337.273 505.134 336.515 505.134C335.757 505.134 335.154 505.37 334.704 505.844C334.266 506.306 334.047 506.975 334.047 507.851V513.32H332.04V507.851C332.04 506.975 331.821 506.306 331.383 505.844C330.945 505.37 330.347 505.134 329.59 505.134C328.832 505.134 328.228 505.37 327.778 505.844C327.34 506.306 327.121 506.975 327.121 507.851V513.32H325.097V503.536H327.121V504.654C327.453 504.252 327.873 503.938 328.382 503.713C328.891 503.488 329.436 503.376 330.016 503.376C330.797 503.376 331.496 503.541 332.111 503.873C332.727 504.204 333.2 504.684 333.532 505.311C333.828 504.719 334.289 504.252 334.917 503.908C335.544 503.553 336.219 503.376 336.941 503.376ZM342.873 508.383C342.873 507.401 343.074 506.531 343.477 505.773C343.891 505.015 344.448 504.429 345.146 504.015C345.856 503.589 346.638 503.376 347.49 503.376C348.259 503.376 348.928 503.53 349.497 503.837C350.077 504.133 350.538 504.506 350.882 504.956V503.536H352.924V513.32H350.882V511.864C350.538 512.325 350.071 512.71 349.479 513.018C348.887 513.326 348.212 513.48 347.455 513.48C346.614 513.48 345.845 513.266 345.146 512.84C344.448 512.402 343.891 511.799 343.477 511.029C343.074 510.248 342.873 509.366 342.873 508.383ZM350.882 508.419C350.882 507.744 350.74 507.158 350.455 506.661C350.183 506.164 349.822 505.785 349.372 505.524C348.922 505.264 348.437 505.134 347.916 505.134C347.395 505.134 346.91 505.264 346.46 505.524C346.01 505.773 345.643 506.146 345.359 506.643C345.087 507.128 344.951 507.708 344.951 508.383C344.951 509.058 345.087 509.65 345.359 510.159C345.643 510.668 346.01 511.059 346.46 511.331C346.922 511.591 347.407 511.722 347.916 511.722C348.437 511.722 348.922 511.591 349.372 511.331C349.822 511.071 350.183 510.692 350.455 510.194C350.74 509.685 350.882 509.094 350.882 508.419ZM356.613 502.239C356.246 502.239 355.938 502.115 355.689 501.866C355.441 501.618 355.316 501.31 355.316 500.943C355.316 500.576 355.441 500.268 355.689 500.02C355.938 499.771 356.246 499.647 356.613 499.647C356.968 499.647 357.27 499.771 357.518 500.02C357.767 500.268 357.891 500.576 357.891 500.943C357.891 501.31 357.767 501.618 357.518 501.866C357.27 502.115 356.968 502.239 356.613 502.239ZM357.607 503.536V513.32H355.583V503.536H357.607ZM362.289 500.179V513.32H360.265V500.179H362.289ZM371.921 505.187V510.603C371.921 510.97 372.004 511.236 372.17 511.402C372.347 511.556 372.643 511.633 373.058 511.633H374.301V513.32H372.703C371.791 513.32 371.093 513.107 370.607 512.681C370.122 512.254 369.879 511.562 369.879 510.603V505.187H368.725V503.536H369.879V501.103H371.921V503.536H374.301V505.187H371.921ZM380.41 513.48C379.487 513.48 378.652 513.272 377.907 512.858C377.161 512.432 376.575 511.84 376.149 511.082C375.723 510.313 375.509 509.425 375.509 508.419C375.509 507.424 375.728 506.542 376.166 505.773C376.604 505.003 377.202 504.412 377.96 503.997C378.718 503.583 379.564 503.376 380.499 503.376C381.434 503.376 382.281 503.583 383.039 503.997C383.796 504.412 384.394 505.003 384.832 505.773C385.27 506.542 385.489 507.424 385.489 508.419C385.489 509.413 385.264 510.295 384.814 511.065C384.364 511.834 383.749 512.432 382.967 512.858C382.198 513.272 381.346 513.48 380.41 513.48ZM380.41 511.722C380.931 511.722 381.417 511.597 381.867 511.349C382.328 511.1 382.701 510.727 382.985 510.23C383.269 509.733 383.411 509.129 383.411 508.419C383.411 507.708 383.275 507.111 383.003 506.625C382.731 506.128 382.37 505.755 381.92 505.507C381.47 505.258 380.985 505.134 380.464 505.134C379.943 505.134 379.457 505.258 379.008 505.507C378.57 505.755 378.22 506.128 377.96 506.625C377.7 507.111 377.569 507.708 377.569 508.419C377.569 509.472 377.836 510.289 378.368 510.869C378.913 511.437 379.594 511.722 380.41 511.722ZM395.654 513.48C394.885 513.48 394.192 513.343 393.577 513.071C392.973 512.787 392.494 512.408 392.138 511.935C391.783 511.449 391.594 510.911 391.57 510.319H393.666C393.701 510.733 393.896 511.082 394.252 511.366C394.619 511.639 395.074 511.775 395.619 511.775C396.187 511.775 396.625 511.668 396.933 511.455C397.253 511.23 397.412 510.946 397.412 510.603C397.412 510.236 397.235 509.964 396.88 509.786C396.536 509.608 395.986 509.413 395.228 509.2C394.494 508.999 393.896 508.803 393.435 508.614C392.973 508.425 392.571 508.135 392.227 507.744C391.896 507.353 391.73 506.838 391.73 506.199C391.73 505.678 391.884 505.205 392.192 504.779C392.499 504.341 392.938 503.997 393.506 503.749C394.086 503.5 394.749 503.376 395.495 503.376C396.607 503.376 397.501 503.66 398.176 504.228C398.863 504.784 399.229 505.548 399.277 506.519H397.253C397.217 506.081 397.039 505.731 396.72 505.471C396.4 505.211 395.968 505.08 395.424 505.08C394.891 505.08 394.482 505.181 394.198 505.382C393.914 505.584 393.772 505.85 393.772 506.181C393.772 506.442 393.867 506.661 394.056 506.838C394.246 507.016 394.476 507.158 394.749 507.265C395.021 507.359 395.424 507.484 395.956 507.637C396.667 507.827 397.247 508.022 397.696 508.223C398.158 508.413 398.555 508.697 398.886 509.076C399.218 509.455 399.389 509.958 399.401 510.585C399.401 511.142 399.247 511.639 398.939 512.077C398.632 512.515 398.194 512.858 397.625 513.107C397.069 513.355 396.412 513.48 395.654 513.48ZM403.95 505.187V510.603C403.95 510.97 404.033 511.236 404.199 511.402C404.376 511.556 404.672 511.633 405.087 511.633H406.33V513.32H404.732C403.82 513.32 403.122 513.107 402.636 512.681C402.151 512.254 401.908 511.562 401.908 510.603V505.187H400.754V503.536H401.908V501.103H403.95V503.536H406.33V505.187H403.95ZM407.521 508.383C407.521 507.401 407.722 506.531 408.124 505.773C408.539 505.015 409.095 504.429 409.794 504.015C410.504 503.589 411.285 503.376 412.138 503.376C412.907 503.376 413.576 503.53 414.144 503.837C414.724 504.133 415.186 504.506 415.529 504.956V503.536H417.571V513.32H415.529V511.864C415.186 512.325 414.718 512.71 414.126 513.018C413.534 513.326 412.86 513.48 412.102 513.48C411.262 513.48 410.492 513.266 409.794 512.84C409.095 512.402 408.539 511.799 408.124 511.029C407.722 510.248 407.521 509.366 407.521 508.383ZM415.529 508.419C415.529 507.744 415.387 507.158 415.103 506.661C414.831 506.164 414.47 505.785 414.02 505.524C413.57 505.264 413.085 505.134 412.564 505.134C412.043 505.134 411.557 505.264 411.108 505.524C410.658 505.773 410.291 506.146 410.007 506.643C409.734 507.128 409.598 507.708 409.598 508.383C409.598 509.058 409.734 509.65 410.007 510.159C410.291 510.668 410.658 511.059 411.108 511.331C411.569 511.591 412.055 511.722 412.564 511.722C413.085 511.722 413.57 511.591 414.02 511.331C414.47 511.071 414.831 510.692 415.103 510.194C415.387 509.685 415.529 509.094 415.529 508.419ZM429.038 503.536L423.036 517.919H420.94L422.929 513.16L419.076 503.536H421.331L424.083 510.994L426.942 503.536H429.038ZM444.039 503.536V513.32H442.015V512.166C441.695 512.568 441.275 512.888 440.754 513.124C440.245 513.349 439.7 513.462 439.12 513.462C438.351 513.462 437.658 513.302 437.043 512.982C436.439 512.663 435.959 512.189 435.604 511.562C435.261 510.934 435.089 510.177 435.089 509.289V503.536H437.096V508.987C437.096 509.863 437.315 510.538 437.753 511.011C438.191 511.473 438.789 511.704 439.546 511.704C440.304 511.704 440.902 511.473 441.34 511.011C441.79 510.538 442.015 509.863 442.015 508.987V503.536H444.039ZM448.734 504.974C449.078 504.524 449.545 504.145 450.137 503.837C450.729 503.53 451.398 503.376 452.144 503.376C452.996 503.376 453.771 503.589 454.47 504.015C455.18 504.429 455.737 505.015 456.139 505.773C456.542 506.531 456.743 507.401 456.743 508.383C456.743 509.366 456.542 510.248 456.139 511.029C455.737 511.799 455.18 512.402 454.47 512.84C453.771 513.266 452.996 513.48 452.144 513.48C451.398 513.48 450.735 513.332 450.155 513.036C449.575 512.728 449.101 512.349 448.734 511.899V517.972H446.71V503.536H448.734V504.974ZM454.683 508.383C454.683 507.708 454.541 507.128 454.257 506.643C453.985 506.146 453.618 505.773 453.156 505.524C452.706 505.264 452.221 505.134 451.7 505.134C451.191 505.134 450.705 505.264 450.244 505.524C449.794 505.785 449.427 506.164 449.143 506.661C448.87 507.158 448.734 507.744 448.734 508.419C448.734 509.094 448.87 509.685 449.143 510.194C449.427 510.692 449.794 511.071 450.244 511.331C450.705 511.591 451.191 511.722 451.7 511.722C452.221 511.722 452.706 511.591 453.156 511.331C453.618 511.059 453.985 510.668 454.257 510.159C454.541 509.65 454.683 509.058 454.683 508.383ZM458.07 508.383C458.07 507.401 458.271 506.531 458.674 505.773C459.088 505.015 459.644 504.429 460.343 504.015C461.053 503.589 461.84 503.376 462.705 503.376C463.344 503.376 463.971 503.518 464.587 503.802C465.214 504.074 465.711 504.441 466.078 504.903V500.179H468.12V513.32H466.078V511.846C465.747 512.319 465.285 512.71 464.693 513.018C464.113 513.326 463.444 513.48 462.687 513.48C461.834 513.48 461.053 513.266 460.343 512.84C459.644 512.402 459.088 511.799 458.674 511.029C458.271 510.248 458.07 509.366 458.07 508.383ZM466.078 508.419C466.078 507.744 465.936 507.158 465.652 506.661C465.38 506.164 465.019 505.785 464.569 505.524C464.119 505.264 463.634 505.134 463.113 505.134C462.592 505.134 462.107 505.264 461.657 505.524C461.207 505.773 460.84 506.146 460.556 506.643C460.284 507.128 460.147 507.708 460.147 508.383C460.147 509.058 460.284 509.65 460.556 510.159C460.84 510.668 461.207 511.059 461.657 511.331C462.119 511.591 462.604 511.722 463.113 511.722C463.634 511.722 464.119 511.591 464.569 511.331C465.019 511.071 465.38 510.692 465.652 510.194C465.936 509.685 466.078 509.094 466.078 508.419ZM470.105 508.383C470.105 507.401 470.306 506.531 470.708 505.773C471.123 505.015 471.679 504.429 472.378 504.015C473.088 503.589 473.869 503.376 474.721 503.376C475.491 503.376 476.16 503.53 476.728 503.837C477.308 504.133 477.77 504.506 478.113 504.956V503.536H480.155V513.32H478.113V511.864C477.77 512.325 477.302 512.71 476.71 513.018C476.118 513.326 475.444 513.48 474.686 513.48C473.845 513.48 473.076 513.266 472.378 512.84C471.679 512.402 471.123 511.799 470.708 511.029C470.306 510.248 470.105 509.366 470.105 508.383ZM478.113 508.419C478.113 507.744 477.971 507.158 477.687 506.661C477.415 506.164 477.054 505.785 476.604 505.524C476.154 505.264 475.669 505.134 475.148 505.134C474.627 505.134 474.141 505.264 473.692 505.524C473.242 505.773 472.875 506.146 472.591 506.643C472.318 507.128 472.182 507.708 472.182 508.383C472.182 509.058 472.318 509.65 472.591 510.159C472.875 510.668 473.242 511.059 473.692 511.331C474.153 511.591 474.639 511.722 475.148 511.722C475.669 511.722 476.154 511.591 476.604 511.331C477.054 511.071 477.415 510.692 477.687 510.194C477.971 509.685 478.113 509.094 478.113 508.419ZM485.176 505.187V510.603C485.176 510.97 485.259 511.236 485.424 511.402C485.602 511.556 485.898 511.633 486.312 511.633H487.555V513.32H485.957C485.046 513.32 484.347 513.107 483.862 512.681C483.376 512.254 483.134 511.562 483.134 510.603V505.187H481.979V503.536H483.134V501.103H485.176V503.536H487.555V505.187H485.176ZM498.388 508.188C498.388 508.555 498.365 508.886 498.317 509.182H490.842C490.901 509.964 491.191 510.591 491.712 511.065C492.233 511.538 492.872 511.775 493.629 511.775C494.719 511.775 495.488 511.319 495.938 510.408H498.122C497.826 511.307 497.287 512.047 496.506 512.627C495.737 513.195 494.778 513.48 493.629 513.48C492.694 513.48 491.854 513.272 491.108 512.858C490.374 512.432 489.794 511.84 489.368 511.082C488.953 510.313 488.746 509.425 488.746 508.419C488.746 507.413 488.947 506.531 489.35 505.773C489.764 505.003 490.338 504.412 491.072 503.997C491.818 503.583 492.671 503.376 493.629 503.376C494.553 503.376 495.376 503.577 496.098 503.979C496.82 504.382 497.382 504.95 497.785 505.684C498.187 506.406 498.388 507.241 498.388 508.188ZM496.275 507.549C496.263 506.803 495.997 506.205 495.476 505.755C494.955 505.305 494.31 505.08 493.541 505.08C492.842 505.08 492.244 505.305 491.747 505.755C491.25 506.193 490.954 506.791 490.859 507.549H496.275ZM499.706 508.383C499.706 507.401 499.907 506.531 500.31 505.773C500.724 505.015 501.28 504.429 501.979 504.015C502.689 503.589 503.476 503.376 504.34 503.376C504.98 503.376 505.607 503.518 506.223 503.802C506.85 504.074 507.347 504.441 507.714 504.903V500.179H509.756V513.32H507.714V511.846C507.383 512.319 506.921 512.71 506.329 513.018C505.749 513.326 505.08 513.48 504.323 513.48C503.47 513.48 502.689 513.266 501.979 512.84C501.28 512.402 500.724 511.799 500.31 511.029C499.907 510.248 499.706 509.366 499.706 508.383ZM507.714 508.419C507.714 507.744 507.572 507.158 507.288 506.661C507.016 506.164 506.655 505.785 506.205 505.524C505.755 505.264 505.27 505.134 504.749 505.134C504.228 505.134 503.743 505.264 503.293 505.524C502.843 505.773 502.476 506.146 502.192 506.643C501.92 507.128 501.783 507.708 501.783 508.383C501.783 509.058 501.92 509.65 502.192 510.159C502.476 510.668 502.843 511.059 503.293 511.331C503.754 511.591 504.24 511.722 504.749 511.722C505.27 511.722 505.755 511.591 506.205 511.331C506.655 511.071 507.016 510.692 507.288 510.194C507.572 509.685 507.714 509.094 507.714 508.419Z" fill="#455296"/>
<path d="M159.527 438.878V440.53H154.289V444.17H158.373V445.821H154.289V451.219H152.264V438.878H159.527ZM170.371 446.088C170.371 446.455 170.347 446.786 170.3 447.082H162.824C162.883 447.863 163.173 448.491 163.694 448.964C164.215 449.438 164.854 449.675 165.612 449.675C166.701 449.675 167.47 449.219 167.92 448.307H170.104C169.808 449.207 169.27 449.947 168.488 450.527C167.719 451.095 166.76 451.379 165.612 451.379C164.676 451.379 163.836 451.172 163.09 450.758C162.356 450.332 161.776 449.74 161.35 448.982C160.936 448.213 160.728 447.325 160.728 446.318C160.728 445.312 160.93 444.43 161.332 443.673C161.746 442.903 162.321 442.311 163.055 441.897C163.8 441.483 164.653 441.275 165.612 441.275C166.535 441.275 167.358 441.477 168.08 441.879C168.802 442.282 169.364 442.85 169.767 443.584C170.169 444.306 170.371 445.141 170.371 446.088ZM168.257 445.448C168.246 444.702 167.979 444.105 167.458 443.655C166.938 443.205 166.292 442.98 165.523 442.98C164.824 442.98 164.227 443.205 163.729 443.655C163.232 444.093 162.936 444.691 162.841 445.448H168.257ZM174.387 442.891C174.73 442.418 175.198 442.033 175.79 441.737C176.394 441.429 177.062 441.275 177.796 441.275C178.661 441.275 179.442 441.483 180.14 441.897C180.839 442.311 181.389 442.903 181.792 443.673C182.194 444.43 182.396 445.3 182.396 446.283C182.396 447.265 182.194 448.147 181.792 448.929C181.389 449.698 180.833 450.302 180.123 450.74C179.424 451.166 178.649 451.379 177.796 451.379C177.039 451.379 176.364 451.231 175.772 450.935C175.192 450.639 174.73 450.261 174.387 449.799V451.219H172.363V438.079H174.387V442.891ZM180.336 446.283C180.336 445.608 180.194 445.028 179.91 444.543C179.637 444.045 179.27 443.673 178.809 443.424C178.359 443.164 177.873 443.033 177.353 443.033C176.843 443.033 176.358 443.164 175.896 443.424C175.447 443.684 175.08 444.063 174.795 444.56C174.523 445.058 174.387 445.644 174.387 446.318C174.387 446.993 174.523 447.585 174.795 448.094C175.08 448.591 175.447 448.97 175.896 449.231C176.358 449.491 176.843 449.621 177.353 449.621C177.873 449.621 178.359 449.491 178.809 449.231C179.27 448.958 179.637 448.568 179.91 448.059C180.194 447.55 180.336 446.958 180.336 446.283ZM189.862 448.467C190.999 447.484 191.893 446.679 192.544 446.052C193.207 445.413 193.757 444.75 194.195 444.063C194.633 443.377 194.852 442.69 194.852 442.003C194.852 441.293 194.681 440.737 194.337 440.334C194.006 439.932 193.479 439.73 192.757 439.73C192.058 439.73 191.514 439.955 191.123 440.405C190.744 440.843 190.543 441.435 190.52 442.181H188.566C188.602 440.831 189.004 439.801 189.774 439.091C190.555 438.369 191.544 438.008 192.739 438.008C194.03 438.008 195.036 438.363 195.758 439.073C196.492 439.784 196.859 440.731 196.859 441.915C196.859 442.767 196.64 443.59 196.202 444.383C195.776 445.164 195.261 445.869 194.657 446.496C194.065 447.112 193.307 447.828 192.384 448.645L191.585 449.355H197.214V451.042H188.584V449.568L189.862 448.467ZM198.992 444.578C198.992 442.53 199.336 440.932 200.022 439.784C200.721 438.624 201.916 438.044 203.609 438.044C205.302 438.044 206.492 438.624 207.178 439.784C207.877 440.932 208.226 442.53 208.226 444.578C208.226 446.65 207.877 448.272 207.178 449.444C206.492 450.604 205.302 451.184 203.609 451.184C201.916 451.184 200.721 450.604 200.022 449.444C199.336 448.272 198.992 446.65 198.992 444.578ZM206.237 444.578C206.237 443.619 206.172 442.808 206.042 442.145C205.924 441.483 205.675 440.944 205.296 440.53C204.917 440.103 204.355 439.89 203.609 439.89C202.863 439.89 202.301 440.103 201.922 440.53C201.543 440.944 201.289 441.483 201.159 442.145C201.04 442.808 200.981 443.619 200.981 444.578C200.981 445.573 201.04 446.407 201.159 447.082C201.277 447.757 201.526 448.301 201.905 448.716C202.295 449.13 202.863 449.337 203.609 449.337C204.355 449.337 204.917 449.13 205.296 448.716C205.687 448.301 205.941 447.757 206.06 447.082C206.178 446.407 206.237 445.573 206.237 444.578ZM218.146 443.939V445.644H210.848V443.939H218.146ZM221.874 448.467C223.011 447.484 223.904 446.679 224.555 446.052C225.218 445.413 225.769 444.75 226.207 444.063C226.645 443.377 226.864 442.69 226.864 442.003C226.864 441.293 226.692 440.737 226.349 440.334C226.017 439.932 225.491 439.73 224.769 439.73C224.07 439.73 223.526 439.955 223.135 440.405C222.756 440.843 222.555 441.435 222.531 442.181H220.578C220.613 440.831 221.016 439.801 221.785 439.091C222.567 438.369 223.555 438.008 224.751 438.008C226.041 438.008 227.047 438.363 227.77 439.073C228.503 439.784 228.87 440.731 228.87 441.915C228.87 442.767 228.651 443.59 228.213 444.383C227.787 445.164 227.272 445.869 226.669 446.496C226.077 447.112 225.319 447.828 224.396 448.645L223.597 449.355H229.226V451.042H220.596V449.568L221.874 448.467ZM230.738 440.121V438.274H234.431V451.219H232.389V440.121H230.738ZM244.648 453.226H242.624V436.996H244.648V453.226ZM258.872 451.219L256.03 446.283H254.485V451.219H252.461V438.878H256.723C257.67 438.878 258.469 439.044 259.12 439.375C259.783 439.707 260.274 440.151 260.594 440.707C260.925 441.264 261.091 441.885 261.091 442.572C261.091 443.377 260.854 444.111 260.381 444.774C259.919 445.425 259.203 445.869 258.232 446.105L261.286 451.219H258.872ZM254.485 444.667H256.723C257.481 444.667 258.049 444.478 258.428 444.099C258.818 443.72 259.014 443.211 259.014 442.572C259.014 441.932 258.824 441.435 258.445 441.08C258.067 440.713 257.492 440.53 256.723 440.53H254.485V444.667ZM269.31 451.344C268.162 451.344 267.102 451.077 266.131 450.545C265.172 450 264.409 449.248 263.841 448.289C263.284 447.319 263.006 446.23 263.006 445.022C263.006 443.815 263.284 442.731 263.841 441.773C264.409 440.814 265.172 440.068 266.131 439.535C267.102 438.991 268.162 438.718 269.31 438.718C270.47 438.718 271.53 438.991 272.488 439.535C273.459 440.068 274.223 440.814 274.779 441.773C275.335 442.731 275.614 443.815 275.614 445.022C275.614 446.23 275.335 447.319 274.779 448.289C274.223 449.248 273.459 450 272.488 450.545C271.53 451.077 270.47 451.344 269.31 451.344ZM269.31 449.586C270.127 449.586 270.855 449.402 271.494 449.035C272.133 448.656 272.63 448.124 272.986 447.437C273.353 446.739 273.536 445.934 273.536 445.022C273.536 444.111 273.353 443.312 272.986 442.625C272.63 441.938 272.133 441.411 271.494 441.044C270.855 440.678 270.127 440.494 269.31 440.494C268.493 440.494 267.765 440.678 267.126 441.044C266.486 441.411 265.983 441.938 265.616 442.625C265.261 443.312 265.084 444.111 265.084 445.022C265.084 445.934 265.261 446.739 265.616 447.437C265.983 448.124 266.486 448.656 267.126 449.035C267.765 449.402 268.493 449.586 269.31 449.586ZM276.931 445.022C276.931 443.815 277.209 442.731 277.766 441.773C278.334 440.814 279.097 440.068 280.056 439.535C281.027 438.991 282.086 438.718 283.235 438.718C284.549 438.718 285.715 439.044 286.733 439.695C287.763 440.334 288.509 441.246 288.97 442.43H286.538C286.218 441.778 285.774 441.293 285.206 440.973C284.638 440.654 283.981 440.494 283.235 440.494C282.418 440.494 281.69 440.678 281.051 441.044C280.411 441.411 279.908 441.938 279.541 442.625C279.186 443.312 279.009 444.111 279.009 445.022C279.009 445.934 279.186 446.733 279.541 447.419C279.908 448.106 280.411 448.639 281.051 449.018C281.69 449.384 282.418 449.568 283.235 449.568C283.981 449.568 284.638 449.408 285.206 449.089C285.774 448.769 286.218 448.284 286.538 447.632H288.97C288.509 448.816 287.763 449.728 286.733 450.367C285.715 451.006 284.549 451.326 283.235 451.326C282.075 451.326 281.015 451.06 280.056 450.527C279.097 449.982 278.334 449.231 277.766 448.272C277.209 447.313 276.931 446.23 276.931 445.022ZM301.195 438.878V451.219H299.171V445.821H293.364V451.219H291.34V438.878H293.364V444.17H299.171V438.878H301.195ZM305.884 440.512V444.134H310.146V445.786H305.884V449.568H310.679V451.219H303.86V438.86H310.679V440.512H305.884ZM317.239 451.344C316.41 451.344 315.664 451.202 315.001 450.918C314.338 450.622 313.817 450.207 313.439 449.675C313.06 449.142 312.87 448.52 312.87 447.81H315.037C315.084 448.343 315.291 448.781 315.658 449.124C316.037 449.467 316.564 449.639 317.239 449.639C317.937 449.639 318.482 449.473 318.872 449.142C319.263 448.798 319.458 448.36 319.458 447.828C319.458 447.413 319.334 447.076 319.085 446.816C318.849 446.555 318.547 446.354 318.18 446.212C317.825 446.07 317.327 445.916 316.688 445.75C315.883 445.537 315.226 445.324 314.717 445.111C314.22 444.886 313.794 444.543 313.439 444.081C313.083 443.619 312.906 443.004 312.906 442.234C312.906 441.524 313.083 440.902 313.439 440.37C313.794 439.837 314.291 439.429 314.93 439.144C315.569 438.86 316.309 438.718 317.15 438.718C318.346 438.718 319.322 439.02 320.08 439.624C320.849 440.216 321.275 441.033 321.358 442.074H319.121C319.085 441.625 318.872 441.24 318.482 440.92C318.091 440.601 317.576 440.441 316.937 440.441C316.357 440.441 315.883 440.589 315.516 440.885C315.149 441.181 314.966 441.607 314.966 442.163C314.966 442.542 315.078 442.856 315.303 443.104C315.54 443.341 315.836 443.531 316.191 443.673C316.546 443.815 317.031 443.969 317.647 444.134C318.464 444.359 319.127 444.584 319.636 444.809C320.157 445.034 320.595 445.383 320.95 445.857C321.317 446.318 321.5 446.94 321.5 447.721C321.5 448.349 321.329 448.941 320.985 449.497C320.654 450.053 320.163 450.503 319.512 450.847C318.872 451.178 318.115 451.344 317.239 451.344ZM331.862 438.878V440.53H328.577V451.219H326.553V440.53H323.25V438.878H331.862ZM335.936 440.512V444.134H340.198V445.786H335.936V449.568H340.731V451.219H333.912V438.86H340.731V440.512H335.936ZM349.635 451.219L346.794 446.283H345.249V451.219H343.224V438.878H347.486C348.433 438.878 349.232 439.044 349.883 439.375C350.546 439.707 351.038 440.151 351.357 440.707C351.689 441.264 351.854 441.885 351.854 442.572C351.854 443.377 351.618 444.111 351.144 444.774C350.682 445.425 349.966 445.869 348.995 446.105L352.05 451.219H349.635ZM345.249 444.667H347.486C348.244 444.667 348.812 444.478 349.191 444.099C349.581 443.72 349.777 443.211 349.777 442.572C349.777 441.932 349.587 441.435 349.209 441.08C348.83 440.713 348.256 440.53 347.486 440.53H345.249V444.667ZM361.081 438.878V451.219H359.057V438.878H361.081ZM373.878 451.219H371.854L365.763 442.003V451.219H363.739V438.86H365.763L371.854 448.059V438.86H373.878V451.219ZM380.603 451.344C379.774 451.344 379.028 451.202 378.366 450.918C377.703 450.622 377.182 450.207 376.803 449.675C376.424 449.142 376.235 448.52 376.235 447.81H378.401C378.448 448.343 378.656 448.781 379.023 449.124C379.401 449.467 379.928 449.639 380.603 449.639C381.301 449.639 381.846 449.473 382.237 449.142C382.627 448.798 382.823 448.36 382.823 447.828C382.823 447.413 382.698 447.076 382.45 446.816C382.213 446.555 381.911 446.354 381.544 446.212C381.189 446.07 380.692 445.916 380.052 445.75C379.247 445.537 378.59 445.324 378.081 445.111C377.584 444.886 377.158 444.543 376.803 444.081C376.448 443.619 376.27 443.004 376.27 442.234C376.27 441.524 376.448 440.902 376.803 440.37C377.158 439.837 377.655 439.429 378.294 439.144C378.934 438.86 379.674 438.718 380.514 438.718C381.71 438.718 382.686 439.02 383.444 439.624C384.214 440.216 384.64 441.033 384.723 442.074H382.485C382.45 441.625 382.237 441.24 381.846 440.92C381.455 440.601 380.94 440.441 380.301 440.441C379.721 440.441 379.247 440.589 378.88 440.885C378.513 441.181 378.33 441.607 378.33 442.163C378.33 442.542 378.442 442.856 378.667 443.104C378.904 443.341 379.2 443.531 379.555 443.673C379.91 443.815 380.396 443.969 381.011 444.134C381.828 444.359 382.491 444.584 383 444.809C383.521 445.034 383.959 445.383 384.314 445.857C384.681 446.318 384.865 446.94 384.865 447.721C384.865 448.349 384.693 448.941 384.35 449.497C384.018 450.053 383.527 450.503 382.876 450.847C382.237 451.178 381.479 451.344 380.603 451.344ZM395.226 438.878V440.53H391.941V451.219H389.917V440.53H386.614V438.878H395.226ZM399.301 438.878V451.219H397.276V438.878H399.301ZM409.932 438.878V440.53H406.646V451.219H404.622V440.53H401.319V438.878H409.932ZM413.988 438.878V446.745C413.988 447.68 414.231 448.384 414.716 448.858C415.213 449.331 415.9 449.568 416.776 449.568C417.664 449.568 418.351 449.331 418.836 448.858C419.333 448.384 419.582 447.68 419.582 446.745V438.878H421.606V446.709C421.606 447.715 421.387 448.568 420.949 449.266C420.511 449.965 419.925 450.485 419.191 450.829C418.457 451.172 417.646 451.344 416.758 451.344C415.871 451.344 415.06 451.172 414.326 450.829C413.603 450.485 413.029 449.965 412.603 449.266C412.177 448.568 411.964 447.715 411.964 446.709V438.878H413.988ZM432.215 438.878V440.53H428.93V451.219H426.905V440.53H423.603V438.878H432.215ZM436.289 440.512V444.134H440.551V445.786H436.289V449.568H441.084V451.219H434.265V438.86H441.084V440.512H436.289ZM453.819 451.344C452.671 451.344 451.611 451.077 450.64 450.545C449.681 450 448.918 449.248 448.35 448.289C447.793 447.319 447.515 446.23 447.515 445.022C447.515 443.815 447.793 442.731 448.35 441.773C448.918 440.814 449.681 440.068 450.64 439.535C451.611 438.991 452.671 438.718 453.819 438.718C454.979 438.718 456.039 438.991 456.997 439.535C457.968 440.068 458.732 440.814 459.288 441.773C459.845 442.731 460.123 443.815 460.123 445.022C460.123 446.23 459.845 447.319 459.288 448.289C458.732 449.248 457.968 450 456.997 450.545C456.039 451.077 454.979 451.344 453.819 451.344ZM453.819 449.586C454.636 449.586 455.364 449.402 456.003 449.035C456.642 448.656 457.139 448.124 457.495 447.437C457.862 446.739 458.045 445.934 458.045 445.022C458.045 444.111 457.862 443.312 457.495 442.625C457.139 441.938 456.642 441.411 456.003 441.044C455.364 440.678 454.636 440.494 453.819 440.494C453.002 440.494 452.274 440.678 451.635 441.044C450.995 441.411 450.492 441.938 450.125 442.625C449.77 443.312 449.593 444.111 449.593 445.022C449.593 445.934 449.77 446.739 450.125 447.437C450.492 448.124 450.995 448.656 451.635 449.035C452.274 449.402 453.002 449.586 453.819 449.586ZM469.377 438.878V440.53H464.139V444.17H468.223V445.821H464.139V451.219H462.115V438.878H469.377ZM483.839 438.878V440.53H480.554V451.219H478.53V440.53H475.227V438.878H483.839ZM487.914 440.512V444.134H492.175V445.786H487.914V449.568H492.708V451.219H485.889V438.86H492.708V440.512H487.914ZM494.527 445.022C494.527 443.815 494.805 442.731 495.361 441.773C495.93 440.814 496.693 440.068 497.652 439.535C498.623 438.991 499.682 438.718 500.831 438.718C502.145 438.718 503.311 439.044 504.329 439.695C505.359 440.334 506.104 441.246 506.566 442.43H504.133C503.814 441.778 503.37 441.293 502.802 440.973C502.233 440.654 501.576 440.494 500.831 440.494C500.014 440.494 499.286 440.678 498.646 441.044C498.007 441.411 497.504 441.938 497.137 442.625C496.782 443.312 496.604 444.111 496.604 445.022C496.604 445.934 496.782 446.733 497.137 447.419C497.504 448.106 498.007 448.639 498.646 449.018C499.286 449.384 500.014 449.568 500.831 449.568C501.576 449.568 502.233 449.408 502.802 449.089C503.37 448.769 503.814 448.284 504.133 447.632H506.566C506.104 448.816 505.359 449.728 504.329 450.367C503.311 451.006 502.145 451.326 500.831 451.326C499.67 451.326 498.611 451.06 497.652 450.527C496.693 449.982 495.93 449.231 495.361 448.272C494.805 447.313 494.527 446.23 494.527 445.022ZM518.791 438.878V451.219H516.767V445.821H510.96V451.219H508.936V438.878H510.96V444.17H516.767V438.878H518.791ZM531.595 451.219H529.571L523.48 442.003V451.219H521.456V438.86H523.48L529.571 448.059V438.86H531.595V451.219ZM539.883 451.344C538.734 451.344 537.675 451.077 536.704 450.545C535.745 450 534.982 449.248 534.413 448.289C533.857 447.319 533.579 446.23 533.579 445.022C533.579 443.815 533.857 442.731 534.413 441.773C534.982 440.814 535.745 440.068 536.704 439.535C537.675 438.991 538.734 438.718 539.883 438.718C541.043 438.718 542.102 438.991 543.061 439.535C544.032 440.068 544.795 440.814 545.352 441.773C545.908 442.731 546.186 443.815 546.186 445.022C546.186 446.23 545.908 447.319 545.352 448.289C544.795 449.248 544.032 450 543.061 450.545C542.102 451.077 541.043 451.344 539.883 451.344ZM539.883 449.586C540.699 449.586 541.428 449.402 542.067 449.035C542.706 448.656 543.203 448.124 543.558 447.437C543.925 446.739 544.109 445.934 544.109 445.022C544.109 444.111 543.925 443.312 543.558 442.625C543.203 441.938 542.706 441.411 542.067 441.044C541.428 440.678 540.699 440.494 539.883 440.494C539.066 440.494 538.338 440.678 537.698 441.044C537.059 441.411 536.556 441.938 536.189 442.625C535.834 443.312 535.656 444.111 535.656 445.022C535.656 445.934 535.834 446.739 536.189 447.437C536.556 448.124 537.059 448.656 537.698 449.035C538.338 449.402 539.066 449.586 539.883 449.586ZM550.203 449.586H554.376V451.219H548.178V438.878H550.203V449.586ZM561.698 451.344C560.549 451.344 559.49 451.077 558.519 450.545C557.56 450 556.797 449.248 556.228 448.289C555.672 447.319 555.394 446.23 555.394 445.022C555.394 443.815 555.672 442.731 556.228 441.773C556.797 440.814 557.56 440.068 558.519 439.535C559.49 438.991 560.549 438.718 561.698 438.718C562.858 438.718 563.917 438.991 564.876 439.535C565.847 440.068 566.611 440.814 567.167 441.773C567.723 442.731 568.002 443.815 568.002 445.022C568.002 446.23 567.723 447.319 567.167 448.289C566.611 449.248 565.847 450 564.876 450.545C563.917 451.077 562.858 451.344 561.698 451.344ZM561.698 449.586C562.515 449.586 563.243 449.402 563.882 449.035C564.521 448.656 565.018 448.124 565.373 447.437C565.74 446.739 565.924 445.934 565.924 445.022C565.924 444.111 565.74 443.312 565.373 442.625C565.018 441.938 564.521 441.411 563.882 441.044C563.243 440.678 562.515 440.494 561.698 440.494C560.881 440.494 560.153 440.678 559.514 441.044C558.874 441.411 558.371 441.938 558.004 442.625C557.649 443.312 557.471 444.111 557.471 445.022C557.471 445.934 557.649 446.739 558.004 447.437C558.371 448.124 558.874 448.656 559.514 449.035C560.153 449.402 560.881 449.586 561.698 449.586ZM578.925 442.43C578.606 441.814 578.162 441.352 577.594 441.044C577.025 440.725 576.368 440.565 575.623 440.565C574.806 440.565 574.078 440.749 573.438 441.116C572.799 441.483 572.296 442.003 571.929 442.678C571.574 443.353 571.396 444.134 571.396 445.022C571.396 445.91 571.574 446.697 571.929 447.384C572.296 448.059 572.799 448.579 573.438 448.946C574.078 449.313 574.806 449.497 575.623 449.497C576.724 449.497 577.617 449.189 578.304 448.574C578.991 447.958 579.411 447.123 579.565 446.07H574.93V444.454H581.731V446.034C581.601 446.993 581.258 447.875 580.701 448.68C580.157 449.485 579.44 450.13 578.553 450.616C577.677 451.089 576.7 451.326 575.623 451.326C574.462 451.326 573.403 451.06 572.444 450.527C571.485 449.982 570.722 449.231 570.153 448.272C569.597 447.313 569.319 446.23 569.319 445.022C569.319 443.815 569.597 442.731 570.153 441.773C570.722 440.814 571.485 440.068 572.444 439.535C573.415 438.991 574.474 438.718 575.623 438.718C576.937 438.718 578.103 439.044 579.121 439.695C580.151 440.334 580.896 441.246 581.358 442.43H578.925ZM592.873 438.878L588.788 446.745V451.219H586.764V446.745L582.662 438.878H584.917L587.776 444.933L590.635 438.878H592.873Z" fill="white"/>
<path d="M120.676 413.981C121.268 413.511 121.538 413.293 121.485 413.328C123.192 411.918 124.532 410.76 125.507 409.855C126.499 408.949 127.335 408.001 128.014 407.008C128.693 406.016 129.032 405.05 129.032 404.11C129.032 403.396 128.867 402.839 128.536 402.438C128.205 402.038 127.709 401.838 127.048 401.838C126.386 401.838 125.864 402.09 125.481 402.595C125.115 403.082 124.932 403.779 124.932 404.684H120.624C120.658 403.204 120.972 401.968 121.564 400.976C122.173 399.984 122.965 399.252 123.94 398.782C124.932 398.312 126.029 398.077 127.23 398.077C129.302 398.077 130.86 398.608 131.905 399.67C132.967 400.732 133.498 402.116 133.498 403.822C133.498 405.685 132.862 407.417 131.591 409.019C130.321 410.603 128.701 412.153 126.734 413.667H133.785V417.297H120.676V413.981ZM135.751 407.766C135.751 404.771 136.326 402.412 137.475 400.689C138.641 398.965 140.512 398.103 143.089 398.103C145.665 398.103 147.528 398.965 148.677 400.689C149.844 402.412 150.427 404.771 150.427 407.766C150.427 410.795 149.844 413.171 148.677 414.895C147.528 416.618 145.665 417.48 143.089 417.48C140.512 417.48 138.641 416.618 137.475 414.895C136.326 413.171 135.751 410.795 135.751 407.766ZM146.04 407.766C146.04 406.007 145.848 404.658 145.465 403.718C145.082 402.76 144.29 402.282 143.089 402.282C141.888 402.282 141.096 402.76 140.713 403.718C140.33 404.658 140.138 406.007 140.138 407.766C140.138 408.949 140.208 409.933 140.347 410.716C140.486 411.482 140.765 412.109 141.183 412.597C141.618 413.067 142.253 413.302 143.089 413.302C143.925 413.302 144.551 413.067 144.969 412.597C145.404 412.109 145.692 411.482 145.831 410.716C145.97 409.933 146.04 408.949 146.04 407.766ZM152.629 413.981C153.221 413.511 153.491 413.293 153.439 413.328C155.145 411.918 156.485 410.76 157.46 409.855C158.453 408.949 159.288 408.001 159.967 407.008C160.646 406.016 160.986 405.05 160.986 404.11C160.986 403.396 160.82 402.839 160.49 402.438C160.159 402.038 159.663 401.838 159.001 401.838C158.34 401.838 157.817 402.09 157.434 402.595C157.069 403.082 156.886 403.779 156.886 404.684H152.577C152.612 403.204 152.925 401.968 153.517 400.976C154.127 399.984 154.919 399.252 155.894 398.782C156.886 398.312 157.983 398.077 159.184 398.077C161.256 398.077 162.814 398.608 163.858 399.67C164.92 400.732 165.451 402.116 165.451 403.822C165.451 405.685 164.816 407.417 163.545 409.019C162.274 410.603 160.655 412.153 158.688 413.667H165.738V417.297H152.629V413.981ZM167.234 402.647V398.495H174.468V417.558H169.82V402.647H167.234ZM194.599 408.157C195.661 408.384 196.514 408.915 197.158 409.75C197.802 410.568 198.124 411.508 198.124 412.57C198.124 414.102 197.584 415.321 196.505 416.226C195.443 417.114 193.955 417.558 192.04 417.558H183.5V399.226H191.752C193.615 399.226 195.069 399.653 196.113 400.506C197.175 401.359 197.706 402.517 197.706 403.979C197.706 405.058 197.419 405.955 196.844 406.669C196.287 407.383 195.539 407.879 194.599 408.157ZM187.966 406.643H190.891C191.622 406.643 192.179 406.486 192.562 406.173C192.962 405.842 193.162 405.363 193.162 404.736C193.162 404.11 192.962 403.631 192.562 403.3C192.179 402.969 191.622 402.804 190.891 402.804H187.966V406.643ZM191.256 413.954C192.005 413.954 192.579 413.789 192.98 413.458C193.397 413.11 193.606 412.614 193.606 411.97C193.606 411.326 193.389 410.821 192.953 410.455C192.536 410.09 191.952 409.907 191.204 409.907H187.966V413.954H191.256ZM205.179 405.415C205.702 404.614 206.354 403.988 207.138 403.535C207.921 403.065 208.792 402.83 209.749 402.83V407.557H208.522C207.408 407.557 206.572 407.8 206.015 408.288C205.458 408.758 205.179 409.593 205.179 410.795V417.558H200.714V402.987H205.179V405.415ZM214.129 401.472C213.346 401.472 212.702 401.246 212.197 400.793C211.71 400.323 211.466 399.749 211.466 399.07C211.466 398.373 211.71 397.799 212.197 397.346C212.702 396.876 213.346 396.641 214.129 396.641C214.895 396.641 215.522 396.876 216.01 397.346C216.514 397.799 216.767 398.373 216.767 399.07C216.767 399.749 216.514 400.323 216.01 400.793C215.522 401.246 214.895 401.472 214.129 401.472ZM216.349 402.987V417.558H211.884V402.987H216.349ZM218.697 410.272C218.697 408.758 219.002 407.435 219.611 406.303C220.238 405.172 221.1 404.301 222.196 403.692C223.311 403.082 224.581 402.778 226.009 402.778C227.837 402.778 229.36 403.257 230.579 404.214C231.815 405.172 232.624 406.521 233.007 408.262H228.255C227.854 407.147 227.08 406.59 225.931 406.59C225.112 406.59 224.46 406.912 223.972 407.557C223.485 408.183 223.241 409.089 223.241 410.272C223.241 411.456 223.485 412.37 223.972 413.014C224.46 413.641 225.112 413.954 225.931 413.954C227.08 413.954 227.854 413.397 228.255 412.283H233.007C232.624 413.989 231.815 415.33 230.579 416.305C229.343 417.28 227.82 417.767 226.009 417.767C224.581 417.767 223.311 417.462 222.196 416.853C221.1 416.244 220.238 415.373 219.611 414.242C219.002 413.11 218.697 411.787 218.697 410.272ZM244.301 417.558L239.861 411.448V417.558H235.396V398.234H239.861V408.915L244.275 402.987H249.785L243.726 410.299L249.837 417.558H244.301ZM256.315 408.366C256.315 406.556 256.707 404.945 257.49 403.535C258.274 402.108 259.362 401.002 260.754 400.219C262.165 399.418 263.757 399.017 265.533 399.017C267.709 399.017 269.572 399.592 271.122 400.741C272.671 401.89 273.707 403.457 274.229 405.441H269.32C268.954 404.675 268.432 404.092 267.753 403.692C267.091 403.291 266.334 403.091 265.481 403.091C264.106 403.091 262.991 403.57 262.138 404.527C261.285 405.485 260.859 406.764 260.859 408.366C260.859 409.968 261.285 411.247 262.138 412.205C262.991 413.162 264.106 413.641 265.481 413.641C266.334 413.641 267.091 413.441 267.753 413.04C268.432 412.64 268.954 412.057 269.32 411.291H274.229C273.707 413.275 272.671 414.842 271.122 415.991C269.572 417.123 267.709 417.689 265.533 417.689C263.757 417.689 262.165 417.297 260.754 416.514C259.362 415.713 258.274 414.607 257.49 413.197C256.707 411.787 256.315 410.177 256.315 408.366ZM279.209 401.472C278.426 401.472 277.782 401.246 277.277 400.793C276.79 400.323 276.546 399.749 276.546 399.07C276.546 398.373 276.79 397.799 277.277 397.346C277.782 396.876 278.426 396.641 279.209 396.641C279.975 396.641 280.602 396.876 281.09 397.346C281.594 397.799 281.847 398.373 281.847 399.07C281.847 399.749 281.594 400.323 281.09 400.793C280.602 401.246 279.975 401.472 279.209 401.472ZM281.429 402.987V417.558H276.964V402.987H281.429ZM292.786 413.772V417.558H290.515C288.896 417.558 287.633 417.166 286.728 416.383C285.823 415.582 285.37 414.285 285.37 412.492V406.695H283.594V402.987H285.37V399.435H289.836V402.987H292.76V406.695H289.836V412.544C289.836 412.98 289.94 413.293 290.149 413.484C290.358 413.676 290.706 413.772 291.194 413.772H292.786ZM310.159 402.987L301.019 424.478H296.214L299.556 417.062L293.629 402.987H298.616L301.985 412.1L305.328 402.987H310.159ZM312.792 399.226H317.362L314.437 406.225H311.434L312.792 399.226ZM325.913 417.767C324.642 417.767 323.51 417.549 322.518 417.114C321.526 416.679 320.742 416.087 320.168 415.338C319.593 414.572 319.271 413.719 319.201 412.779H323.615C323.667 413.284 323.902 413.693 324.32 414.007C324.737 414.32 325.251 414.477 325.86 414.477C326.417 414.477 326.844 414.372 327.14 414.163C327.453 413.937 327.61 413.65 327.61 413.302C327.61 412.884 327.392 412.579 326.957 412.388C326.522 412.179 325.817 411.952 324.842 411.709C323.797 411.465 322.927 411.213 322.231 410.951C321.534 410.673 320.934 410.246 320.429 409.672C319.924 409.08 319.671 408.288 319.671 407.295C319.671 406.46 319.898 405.703 320.35 405.024C320.82 404.327 321.499 403.779 322.387 403.378C323.293 402.978 324.363 402.778 325.599 402.778C327.427 402.778 328.863 403.23 329.908 404.136C330.97 405.041 331.579 406.242 331.736 407.739H327.61C327.54 407.235 327.314 406.834 326.931 406.538C326.565 406.242 326.078 406.094 325.469 406.094C324.946 406.094 324.546 406.199 324.267 406.408C323.989 406.599 323.85 406.869 323.85 407.217C323.85 407.635 324.067 407.948 324.502 408.157C324.955 408.366 325.651 408.575 326.592 408.784C327.671 409.062 328.55 409.341 329.229 409.62C329.908 409.881 330.5 410.316 331.005 410.925C331.527 411.517 331.797 412.318 331.814 413.328C331.814 414.181 331.571 414.947 331.083 415.626C330.613 416.287 329.925 416.81 329.02 417.193C328.132 417.576 327.096 417.767 325.913 417.767ZM354.051 405.128C354.051 406.19 353.807 407.165 353.32 408.053C352.832 408.923 352.084 409.628 351.074 410.168C350.064 410.708 348.811 410.977 347.313 410.977H344.545V417.558H340.08V399.226H347.313C348.776 399.226 350.012 399.479 351.022 399.984C352.031 400.489 352.789 401.185 353.294 402.073C353.798 402.961 354.051 403.979 354.051 405.128ZM346.974 407.426C347.827 407.426 348.462 407.226 348.88 406.825C349.298 406.425 349.507 405.859 349.507 405.128C349.507 404.397 349.298 403.831 348.88 403.431C348.462 403.03 347.827 402.83 346.974 402.83H344.545V407.426H346.974ZM360.841 405.415C361.363 404.614 362.016 403.988 362.799 403.535C363.583 403.065 364.453 402.83 365.411 402.83V407.557H364.184C363.069 407.557 362.234 407.8 361.677 408.288C361.12 408.758 360.841 409.593 360.841 410.795V417.558H356.376V402.987H360.841V405.415ZM381.281 410.037C381.281 410.455 381.255 410.89 381.203 411.343H371.097C371.166 412.248 371.454 412.945 371.958 413.432C372.481 413.902 373.116 414.137 373.865 414.137C374.979 414.137 375.754 413.667 376.189 412.727H380.942C380.698 413.685 380.254 414.546 379.61 415.312C378.983 416.078 378.191 416.679 377.233 417.114C376.276 417.549 375.205 417.767 374.021 417.767C372.594 417.767 371.323 417.462 370.209 416.853C369.095 416.244 368.224 415.373 367.597 414.242C366.971 413.11 366.657 411.787 366.657 410.272C366.657 408.758 366.962 407.435 367.571 406.303C368.198 405.172 369.069 404.301 370.183 403.692C371.297 403.082 372.576 402.778 374.021 402.778C375.432 402.778 376.685 403.074 377.782 403.666C378.879 404.258 379.732 405.102 380.341 406.199C380.968 407.295 381.281 408.575 381.281 410.037ZM376.711 408.862C376.711 408.096 376.45 407.487 375.928 407.034C375.405 406.582 374.753 406.355 373.969 406.355C373.221 406.355 372.585 406.573 372.063 407.008C371.558 407.443 371.245 408.061 371.123 408.862H376.711ZM402.23 402.83C404.04 402.83 405.476 403.378 406.538 404.475C407.618 405.572 408.157 407.095 408.157 409.045V417.558H403.718V409.646C403.718 408.706 403.466 407.983 402.961 407.478C402.473 406.956 401.794 406.695 400.924 406.695C400.053 406.695 399.366 406.956 398.861 407.478C398.373 407.983 398.13 408.706 398.13 409.646V417.558H393.69V409.646C393.69 408.706 393.438 407.983 392.933 407.478C392.446 406.956 391.767 406.695 390.896 406.695C390.026 406.695 389.338 406.956 388.833 407.478C388.346 407.983 388.102 408.706 388.102 409.646V417.558H383.637V402.987H388.102V404.815C388.555 404.205 389.147 403.727 389.878 403.378C390.609 403.013 391.436 402.83 392.359 402.83C393.455 402.83 394.43 403.065 395.283 403.535C396.154 404.005 396.833 404.675 397.32 405.546C397.825 404.745 398.513 404.092 399.383 403.587C400.254 403.082 401.202 402.83 402.23 402.83ZM413.526 401.472C412.743 401.472 412.099 401.246 411.594 400.793C411.106 400.323 410.863 399.749 410.863 399.07C410.863 398.373 411.106 397.799 411.594 397.346C412.099 396.876 412.743 396.641 413.526 396.641C414.292 396.641 414.919 396.876 415.406 397.346C415.911 397.799 416.164 398.373 416.164 399.07C416.164 399.749 415.911 400.323 415.406 400.793C414.919 401.246 414.292 401.472 413.526 401.472ZM415.746 402.987V417.558H411.28V402.987H415.746ZM432.718 410.037C432.718 410.455 432.692 410.89 432.639 411.343H422.533C422.603 412.248 422.89 412.945 423.395 413.432C423.917 413.902 424.553 414.137 425.301 414.137C426.416 414.137 427.19 413.667 427.626 412.727H432.378C432.134 413.685 431.691 414.546 431.046 415.312C430.42 416.078 429.628 416.679 428.67 417.114C427.713 417.549 426.642 417.767 425.458 417.767C424.031 417.767 422.76 417.462 421.645 416.853C420.531 416.244 419.661 415.373 419.034 414.242C418.407 413.11 418.094 411.787 418.094 410.272C418.094 408.758 418.399 407.435 419.008 406.303C419.635 405.172 420.505 404.301 421.619 403.692C422.734 403.082 424.013 402.778 425.458 402.778C426.868 402.778 428.122 403.074 429.218 403.666C430.315 404.258 431.168 405.102 431.778 406.199C432.404 407.295 432.718 408.575 432.718 410.037ZM428.148 408.862C428.148 408.096 427.887 407.487 427.364 407.034C426.842 406.582 426.189 406.355 425.406 406.355C424.657 406.355 424.022 406.573 423.5 407.008C422.995 407.443 422.681 408.061 422.559 408.862H428.148ZM439.539 405.415C440.061 404.614 440.714 403.988 441.497 403.535C442.281 403.065 443.151 402.83 444.109 402.83V407.557H442.881C441.767 407.557 440.932 407.8 440.374 408.288C439.817 408.758 439.539 409.593 439.539 410.795V417.558H435.073V402.987H439.539V405.415ZM459.979 410.037C459.979 410.455 459.953 410.89 459.901 411.343H449.795C449.864 412.248 450.151 412.945 450.656 413.432C451.179 413.902 451.814 414.137 452.563 414.137C453.677 414.137 454.451 413.667 454.887 412.727H459.639C459.396 413.685 458.952 414.546 458.308 415.312C457.681 416.078 456.889 416.679 455.931 417.114C454.974 417.549 453.903 417.767 452.719 417.767C451.292 417.767 450.021 417.462 448.907 416.853C447.793 416.244 446.922 415.373 446.295 414.242C445.669 413.11 445.355 411.787 445.355 410.272C445.355 408.758 445.66 407.435 446.269 406.303C446.896 405.172 447.766 404.301 448.881 403.692C449.995 403.082 451.274 402.778 452.719 402.778C454.129 402.778 455.383 403.074 456.48 403.666C457.576 404.258 458.429 405.102 459.039 406.199C459.665 407.295 459.979 408.575 459.979 410.037ZM455.409 408.862C455.409 408.096 455.148 407.487 454.626 407.034C454.103 406.582 453.45 406.355 452.667 406.355C451.918 406.355 451.283 406.573 450.761 407.008C450.256 407.443 449.943 408.061 449.821 408.862H455.409ZM483.746 399.226V417.558H479.28V410.011H472.334V417.558H467.868V399.226H472.334V406.408H479.28V399.226H483.746ZM486.081 410.246C486.081 408.749 486.36 407.435 486.917 406.303C487.491 405.172 488.266 404.301 489.241 403.692C490.216 403.082 491.304 402.778 492.505 402.778C493.532 402.778 494.429 402.987 495.195 403.405C495.978 403.822 496.579 404.371 496.997 405.05V402.987H501.462V417.558H496.997V415.495C496.562 416.174 495.952 416.722 495.169 417.14C494.403 417.558 493.506 417.767 492.479 417.767C491.295 417.767 490.216 417.462 489.241 416.853C488.266 416.226 487.491 415.347 486.917 414.216C486.36 413.067 486.081 411.743 486.081 410.246ZM496.997 410.272C496.997 409.158 496.683 408.279 496.057 407.635C495.447 406.991 494.699 406.669 493.811 406.669C492.923 406.669 492.166 406.991 491.539 407.635C490.93 408.262 490.625 409.132 490.625 410.246C490.625 411.36 490.93 412.248 491.539 412.91C492.166 413.554 492.923 413.876 493.811 413.876C494.699 413.876 495.447 413.554 496.057 412.91C496.683 412.266 496.997 411.387 496.997 410.272ZM503.805 410.272C503.805 408.758 504.11 407.435 504.719 406.303C505.346 405.172 506.207 404.301 507.304 403.692C508.418 403.082 509.689 402.778 511.117 402.778C512.945 402.778 514.468 403.257 515.687 404.214C516.923 405.172 517.732 406.521 518.115 408.262H513.362C512.962 407.147 512.187 406.59 511.038 406.59C510.22 406.59 509.567 406.912 509.08 407.557C508.592 408.183 508.349 409.089 508.349 410.272C508.349 411.456 508.592 412.37 509.08 413.014C509.567 413.641 510.22 413.954 511.038 413.954C512.187 413.954 512.962 413.397 513.362 412.283H518.115C517.732 413.989 516.923 415.33 515.687 416.305C514.451 417.28 512.927 417.767 511.117 417.767C509.689 417.767 508.418 417.462 507.304 416.853C506.207 416.244 505.346 415.373 504.719 414.242C504.11 413.11 503.805 411.787 503.805 410.272ZM529.408 417.558L524.969 411.448V417.558H520.504V398.234H524.969V408.915L529.382 402.987H534.892L528.834 410.299L534.945 417.558H529.408ZM535.758 410.246C535.758 408.749 536.037 407.435 536.594 406.303C537.168 405.172 537.943 404.301 538.918 403.692C539.893 403.082 540.981 402.778 542.182 402.778C543.209 402.778 544.106 402.987 544.872 403.405C545.655 403.822 546.256 404.371 546.674 405.05V402.987H551.139V417.558H546.674V415.495C546.239 416.174 545.629 416.722 544.846 417.14C544.08 417.558 543.183 417.767 542.156 417.767C540.972 417.767 539.893 417.462 538.918 416.853C537.943 416.226 537.168 415.347 536.594 414.216C536.037 413.067 535.758 411.743 535.758 410.246ZM546.674 410.272C546.674 409.158 546.36 408.279 545.734 407.635C545.124 406.991 544.376 406.669 543.488 406.669C542.6 406.669 541.843 406.991 541.216 407.635C540.607 408.262 540.302 409.132 540.302 410.246C540.302 411.36 540.607 412.248 541.216 412.91C541.843 413.554 542.6 413.876 543.488 413.876C544.376 413.876 545.124 413.554 545.734 412.91C546.36 412.266 546.674 411.387 546.674 410.272ZM562.491 413.772V417.558H560.219C558.6 417.558 557.338 417.166 556.433 416.383C555.527 415.582 555.075 414.285 555.075 412.492V406.695H553.299V402.987H555.075V399.435H559.54V402.987H562.465V406.695H559.54V412.544C559.54 412.98 559.645 413.293 559.854 413.484C560.063 413.676 560.411 413.772 560.898 413.772H562.491ZM573.935 402.83C575.607 402.83 576.947 403.387 577.957 404.501C578.967 405.598 579.471 407.113 579.471 409.045V417.558H575.032V409.646C575.032 408.671 574.78 407.913 574.275 407.374C573.77 406.834 573.091 406.564 572.238 406.564C571.385 406.564 570.706 406.834 570.201 407.374C569.696 407.913 569.444 408.671 569.444 409.646V417.558H564.978V398.234H569.444V404.945C569.896 404.301 570.515 403.788 571.298 403.405C572.081 403.022 572.96 402.83 573.935 402.83ZM589.207 417.767C587.78 417.767 586.492 417.462 585.343 416.853C584.211 416.244 583.314 415.373 582.653 414.242C582.009 413.11 581.687 411.787 581.687 410.272C581.687 408.775 582.017 407.461 582.679 406.329C583.341 405.18 584.246 404.301 585.395 403.692C586.544 403.082 587.832 402.778 589.26 402.778C590.687 402.778 591.975 403.082 593.124 403.692C594.273 404.301 595.179 405.18 595.84 406.329C596.502 407.461 596.833 408.775 596.833 410.272C596.833 411.77 596.493 413.093 595.814 414.242C595.153 415.373 594.239 416.244 593.072 416.853C591.923 417.462 590.635 417.767 589.207 417.767ZM589.207 413.902C590.06 413.902 590.783 413.589 591.375 412.962C591.984 412.335 592.289 411.439 592.289 410.272C592.289 409.106 591.993 408.209 591.401 407.583C590.826 406.956 590.113 406.643 589.26 406.643C588.389 406.643 587.667 406.956 587.092 407.583C586.518 408.192 586.23 409.089 586.23 410.272C586.23 411.439 586.509 412.335 587.066 412.962C587.641 413.589 588.354 413.902 589.207 413.902ZM608.08 402.83C609.786 402.83 611.144 403.387 612.154 404.501C613.181 405.598 613.695 407.113 613.695 409.045V417.558H609.255V409.646C609.255 408.671 609.003 407.913 608.498 407.374C607.993 406.834 607.314 406.564 606.461 406.564C605.608 406.564 604.929 406.834 604.424 407.374C603.919 407.913 603.667 408.671 603.667 409.646V417.558H599.202V402.987H603.667V404.919C604.12 404.275 604.729 403.77 605.495 403.405C606.261 403.022 607.123 402.83 608.08 402.83Z" fill="white"/>
<path d="M550.475 504.459H568.128" stroke="#455296" stroke-width="1.04454" stroke-miterlimit="10" stroke-linecap="round" stroke-linejoin="round"/>
<path d="M561.338 497.774L568.128 504.459L561.338 511.249" stroke="#455296" stroke-width="1.04454" stroke-miterlimit="10" stroke-linecap="round" stroke-linejoin="round"/>
<path d="M561.338 521.172C570.569 521.172 578.051 513.689 578.051 504.459C578.051 495.229 570.569 487.747 561.338 487.747C552.108 487.747 544.626 495.229 544.626 504.459C544.626 513.689 552.108 521.172 561.338 521.172Z" stroke="#455296" stroke-width="1.04454" stroke-miterlimit="10"/>
<path d="M378.961 789.307L1033.26 236.638L1232.14 239.981L1739.27 797.559L378.961 789.307Z" fill="white"/>
<path d="M1132.5 259.931C1155.8 259.931 1174.69 241.038 1174.69 217.732C1174.69 194.426 1155.8 175.532 1132.5 175.532C1109.19 175.532 1090.3 194.426 1090.3 217.732C1090.3 241.038 1109.19 259.931 1132.5 259.931Z" fill="#F4ECE0"/>
<path d="M1173.61 724.891L1239.31 724.891L1239.31 424.271L1173.61 424.271L1173.61 724.891Z" fill="#455296"/>
<path d="M1313.79 724.857L1372.45 703.698L1298.38 498.334L1239.72 519.493L1313.79 724.857Z" fill="#F1646B"/>
<path d="M1372.51 724.861L1451.47 724.861L1451.47 460.696L1372.51 460.696L1372.51 724.861Z" fill="#F9A36A"/>
<path d="M1372.51 574.558L1451.47 574.558L1451.47 493.292L1372.51 493.292L1372.51 574.558Z" fill="#455296"/>
<path d="M1288.76 663.23H813.073C803.568 663.23 795.839 655.5 795.839 645.995V329.394C795.839 319.888 803.568 312.159 813.073 312.159H1288.65C1298.16 312.159 1305.89 319.888 1305.89 329.394V645.995C1305.99 655.5 1298.26 663.23 1288.76 663.23Z" fill="#F9A36A"/>
<path d="M1288.76 312.159H813.073C803.568 312.159 795.839 319.888 795.839 329.394V608.287H1305.99V329.394C1305.99 319.888 1298.26 312.159 1288.76 312.159Z" fill="#1B315E"/>
<path d="M1179.4 712.219H938.628V723.709H1179.4V712.219Z" fill="#F9A36A"/>
<path d="M1130.09 663.23H986.781V712.219H1130.09V663.23Z" fill="#F9A36A"/>
<path d="M1273.61 341.824H826.652V583.845H1273.61V341.824Z" fill="white"/>
<path d="M1060 644.533C1065.48 644.533 1069.93 640.09 1069.93 634.609C1069.93 629.129 1065.48 624.686 1060 624.686C1054.52 624.686 1050.08 629.129 1050.08 634.609C1050.08 640.09 1054.52 644.533 1060 644.533Z" fill="#455292"/>
<path d="M986.781 663.23V682.241L1130.09 663.23H986.781Z" fill="#F1646B"/>
<path d="M1096.04 712.219H1179.29V719.113L1096.04 712.219Z" fill="#F1646B"/>
<path d="M1264.63 452.023H1166.13V324.589H1293.56V423.089" fill="#F7A36F"/>
<path d="M1264.63 452.023V423.089H1293.56" fill="#F1646B"/>
<path d="M719.587 527.961H702.874V534.438H719.587V527.961Z" fill="#F9C3BC"/>
<path d="M750.819 703.445H646.26V721.829H750.819V703.445Z" fill="#455296"/>
<path d="M717.393 534.438H702.874V569.325H717.393V534.438Z" fill="#455296"/>
<path d="M710.081 514.173C712.588 514.173 714.677 516.263 714.677 518.769V527.961H705.485V518.769C705.485 516.263 707.575 514.173 710.081 514.173Z" fill="#455296"/>
<path d="M738.493 468.631C741.522 468.631 744.029 471.138 744.029 474.167V481.897C744.029 482.21 743.82 482.419 743.507 482.419H733.375C733.061 482.419 732.852 482.21 732.852 481.897V474.167C732.957 471.138 735.464 468.631 738.493 468.631Z" fill="#455296"/>
<path d="M646.26 703.445V712.637L706.217 703.445H646.26Z" fill="#1B315E"/>
<path d="M766.696 601.393C810.358 601.393 810.358 667.408 766.696 667.408V686.523C836.471 686.523 836.471 581.964 766.696 581.964V601.393Z" fill="#455296"/>
<path d="M785.184 662.29C780.275 665.528 774.112 667.408 766.696 667.408V684.957L785.184 662.29Z" fill="#1B315E"/>
<path d="M786.96 607.66C787.691 599.095 793.123 595.335 799.286 593.872L799.077 591.992C790.825 585.829 780.066 581.964 766.696 581.964V601.393C775.052 601.393 781.737 603.795 786.96 607.66Z" fill="#1B315E"/>
<path d="M675.089 459.335H647.722V565.043H675.089V459.335Z" fill="#F9C3BC"/>
<path d="M707.575 471.765H690.862V481.375H707.575V471.765Z" fill="#F1646B"/>
<path d="M707.575 481.375H690.862V487.851H707.575V481.375Z" fill="#455296"/>
<path d="M707.575 487.851H690.862V565.043H707.575V487.851Z" fill="#F7A36F"/>
<path d="M736.3 496.625H719.587V506.235H736.3V496.625Z" fill="#F1646B"/>
<path d="M736.3 506.339H719.587V512.816H736.3V506.339Z" fill="#455296"/>
<path d="M736.3 512.816H719.587V590.007H736.3V512.816Z" fill="#F7A36F"/>
<path d="M746.849 485.135H730.137V571.101H746.849V485.135Z" fill="#455296"/>
<path d="M688.355 505.295H671.642V514.905H688.355V505.295Z" fill="#F9C3BC"/>
<path d="M688.355 514.905H671.642V521.381H688.355V514.905Z" fill="#455296"/>
<path d="M688.355 521.381H671.642V598.573H688.355V521.381Z" fill="#F7A36F"/>
<path d="M750.296 481.897H727.839V488.687H750.296V481.897Z" fill="#F9C3BC"/>
<path d="M750.401 483.986H744.029V531.826H750.401V483.986Z" fill="#F9C3BC"/>
<path d="M674.567 459.335L661.301 565.043H674.567V459.335Z" fill="#F1646B"/>
<path d="M661.406 475.003C663.886 475.003 665.897 472.992 665.897 470.512C665.897 468.031 663.886 466.02 661.406 466.02C658.925 466.02 656.914 468.031 656.914 470.512C656.914 472.992 658.925 475.003 661.406 475.003Z" fill="white"/>
<path d="M657.541 483.15H647.618V485.344H657.541V483.15Z" fill="white"/>
<path d="M657.541 500.594H647.618V502.788H657.541V500.594Z" fill="white"/>
<path d="M657.541 518.038H647.618V520.232H657.541V518.038Z" fill="white"/>
<path d="M657.541 535.587H647.618V537.78H657.541V535.587Z" fill="white"/>
<path d="M657.541 553.031H647.618V555.224H657.541V553.031Z" fill="white"/>
<path d="M768.158 565.043H629.756V703.445H768.158V565.043Z" fill="#455296"/>
<path d="M768.158 565.043V578.309L630.069 565.043H768.158Z" fill="#1B315E"/>
<path d="M688.355 514.905V521.381H684.386L686.057 514.905" fill="#1B315E"/>
<path d="M686.057 514.905L688.355 505.713V514.905" fill="#F1646B"/>
<path d="M1125.5 584.054H960.041V427.79C960.041 418.284 967.771 410.555 977.276 410.555H1108.26C1117.77 410.555 1125.5 418.284 1125.5 427.79V584.054Z" fill="#F1646B"/>
<path d="M960.041 514.173H943.224C933.927 514.173 926.407 506.653 926.407 497.356V460.379" stroke="#1B315E" stroke-width="4.60122" stroke-miterlimit="10"/>
<path d="M926.407 477.614C923.691 477.614 921.497 475.421 921.497 472.705V464.558C921.497 461.842 923.691 459.648 926.407 459.648C929.122 459.648 931.316 461.842 931.316 464.558V472.705C931.316 475.421 929.122 477.614 926.407 477.614Z" fill="#1B315E"/>
<path d="M1004.96 510.726C999.42 510.726 994.929 506.235 994.929 500.699V483.15C994.929 477.614 999.42 473.123 1004.96 473.123C1010.49 473.123 1014.98 477.614 1014.98 483.15V500.699C1014.98 506.235 1010.49 510.726 1004.96 510.726Z" fill="#1B315E"/>
<path d="M1074.31 510.726C1068.78 510.726 1064.29 506.235 1064.29 500.699V483.15C1064.29 477.614 1068.78 473.123 1074.31 473.123C1079.85 473.123 1084.34 477.614 1084.34 483.15V500.699C1084.34 506.235 1079.85 510.726 1074.31 510.726Z" fill="#1B315E"/>
<path d="M1040.16 533.289C1032.74 533.289 1026.79 527.335 1026.79 519.918V516.889H1053.53V519.918C1053.53 527.335 1047.57 533.289 1040.16 533.289Z" fill="#1B315E"/>
<path d="M1128.94 514.173V584.054" stroke="#1B315E" stroke-width="4.60122" stroke-miterlimit="10"/>
<path d="M1232.14 239.563L1033.58 237.369L1043.19 179.084C1053.11 136.884 1091.03 107.219 1134.38 107.741C1177.72 108.263 1214.91 138.764 1223.89 181.173L1232.14 239.563Z" fill="#1B315E"/>
<path d="M1173.34 161.013L1091.65 160.073L1092.18 111.71C1092.38 89.1483 1110.87 71.0777 1133.44 71.2866C1156 71.4955 1174.07 89.9839 1173.86 112.546L1173.34 161.013Z" fill="#1B315E"/>
<path d="M1138.03 -252H1126.44V130.721H1138.03V-252Z" fill="#1B315E"/>
<path d="M483.102 722.247H1589.9V804.557H349.714V722.247H483.102Z" fill="#F9C3BC"/>
<path d="M1585.51 803.199H400.896V1135.05H1585.51V803.199Z" fill="#F9C3BC"/>
<path d="M1437.71 911.1H0.417969V1161.69H1437.71V911.1Z" fill="#1B315E"/>
<path d="M69.0444 678.063H0.104492V1007.51H69.0444V678.063Z" fill="#1B315E"/>
<path d="M120.227 744.913H75.3118V1007.41H120.227V744.913Z" fill="#1B315E"/>
<path d="M243.379 773.638H191.57V1000.1H243.379V773.638Z" fill="#1B315E"/>
<path d="M210.371 757.135H132.657V1007.41H210.371V757.135Z" fill="#1B315E"/>
<path d="M273.775 814.48H240.036V1004.27H273.775V814.48Z" fill="#1B315E"/>
<path d="M316.184 778.025H282.445V1007.3H316.184V778.025Z" fill="#1B315E"/>
<path d="M466.389 753.165H444.872L444.976 870.781H421.578V776.668H396.509V870.781H385.646L385.541 755.463H367.68V870.781H344.804V1008.35L491.563 1008.24L491.458 870.781H466.389V753.165Z" fill="#1B315E"/>
<path d="M1153.6 751.494H1078.81V1007.93H1153.6V751.494Z" fill="#1B315E"/>
<path d="M1201.12 726.843H1164.46V1007.93H1201.12V726.843Z" fill="#1B315E"/>
<path d="M1245.62 690.597H1211.88V1007.93H1245.62V690.597Z" fill="#1B315E"/>
<path d="M1366.47 691.85H1256.48V1007.83H1366.47V691.85Z" fill="#1B315E"/>
<path d="M1437.29 760.477H1377.23V1007.83H1437.29V760.477Z" fill="#1B315E"/>
<path d="M1037.65 855.635H616.908V873.81H1037.65V855.635Z" fill="#1B315E"/>
<path d="M565.099 866.185L660.883 821.061L658.69 817.509L724.078 786.695L729.615 802.677L743.716 797.245L750.61 806.333C751.55 807.586 753.639 806.646 753.221 805.288L750.088 794.738L763.144 789.62L744.343 761.522L718.856 771.445L720.84 777.19L653.572 808.944L650.96 804.557L535.434 859.082L535.851 859.709V887.703H506.5L506.604 1008.14L1068.15 1007.83L1068.05 887.389L565.203 887.598L565.099 866.185Z" fill="#1B315E"/>
</g>
</g>
<defs>
<clipPath id="clip0">
<rect width="1438" height="1024" fill="white"/>
</clipPath>
<clipPath id="clip1">
<rect width="1739.27" height="1414" fill="white" transform="translate(0 -252)"/>
</clipPath>
</defs>
</svg>
