<?xml version="1.0" encoding="utf-8"?>
<!-- Generator: Adobe Illustrator 24.3.0, SVG Export Plug-In . SVG Version: 6.00 Build 0)  -->
<svg version="1.1" id="Layer_1" xmlns="http://www.w3.org/2000/svg" xmlns:xlink="http://www.w3.org/1999/xlink" x="0px" y="0px"
	 viewBox="0 0 1525.2 475.3" style="enable-background:new 0 0 1525.2 475.3;" xml:space="preserve">
<style type="text/css">
	.st0{fill:#FFFFFF;}
	.st1{fill:#F3EBDF;}
	.st2{fill:#F9A465;}
	.st3{fill:#45529A;}
	.st4{fill:#F16469;}
	.st5{fill:#293E81;}
	.st6{fill:#1D315F;}
	.st7{fill:#455195;}
	.st8{fill:#F9A46A;}
	.st9{fill:#FAC4BC;}
	.st10{fill:none;stroke:#1D315F;stroke-width:4.405;stroke-miterlimit:10;}
</style>
<g>
	<rect x="0.5" y="234.9" class="st6" width="1524.6" height="239.9"/>
	<rect x="0.1" y="11.9" class="st6" width="66" height="315.4"/>
	<rect x="72.2" y="75.9" class="st6" width="43" height="251.3"/>
	<rect x="183.5" y="103.4" class="st6" width="49.6" height="216.8"/>
	<rect x="127.1" y="87.5" class="st6" width="74.4" height="239.6"/>
	<rect x="229.8" y="142.4" class="st6" width="32.3" height="181.7"/>
	<rect x="270.5" y="107.6" class="st6" width="32.3" height="219.5"/>
	<polygon class="st6" points="446.6,83.7 426,83.7 426.1,196.4 403.7,196.4 403.6,106.3 379.6,106.3 379.7,196.4 369.2,196.4 
		369.2,86 352.1,86 352.1,196.4 330.1,196.4 330.2,328 470.6,328 470.6,196.3 446.6,196.4 	"/>
	<rect x="1032.9" y="82.2" class="st6" width="71.6" height="245.5"/>
	<rect x="1114.9" y="58.6" class="st6" width="35.1" height="269.1"/>
	<rect x="1160.3" y="23.9" class="st6" width="32.3" height="303.8"/>
	<rect x="1489.5" y="34.6" class="st6" width="35.1" height="269.1"/>
	<rect x="1446.9" y="-0.1" class="st6" width="32.3" height="303.8"/>
	<rect x="1203" y="25.1" class="st6" width="105.3" height="302.5"/>
	<rect x="1318.6" y="90.7" class="st6" width="57.5" height="236.8"/>
	<rect x="1371.6" y="57.7" class="st6" width="62.5" height="236.8"/>
	<rect x="590.7" y="181.9" class="st6" width="402.8" height="17.4"/>
	<path class="st6" d="M541.1,192l91.7-43.2l-2.1-3.4l62.6-29.5l5.3,15.3l13.5-5.2l6.6,8.7c0.9,1.2,2.9,0.3,2.5-1l-3-10.1l12.5-4.9
		l-18-26.9l-24.4,9.5l1.9,5.5l-64.4,30.4l-2.5-4.2l-110.6,52.2l0.4,0.6l0,26.8l-28.1,0L485,328l537.6-0.3l-0.1-115.3l-481.4,0.2
		L541.1,192z"/>
</g>
</svg>
