<?xml version="1.0" encoding="utf-8"?>
<!-- Generator: Adobe Illustrator 20.1.0, SVG Export Plug-In . SVG Version: 6.00 Build 0)  -->
<svg version="1.1" id="Layer_1" xmlns="http://www.w3.org/2000/svg" xmlns:xlink="http://www.w3.org/1999/xlink" x="0px" y="0px"
	 viewBox="0 0 1000 1000" style="enable-background:new 0 0 1000 1000;" xml:space="preserve">
<style type="text/css">
	.st0{fill:none;}
	.st1{fill:#FFFFFF;}
	.st2{fill:#F58625;}
	.st3{enable-background:new    ;}
	.st4{fill:#D87027;}
</style>
<g>
	<path class="st0" d="M668,841.2c-5.8-0.1-11.5-1.7-16.5-4.5L155.3,549.4c-10.6-6.1-17.3-17.6-17.3-29.9V272.3
		c0-13.8,8.2-26.3,21-31.7l187.7-79.1c4.3-1.8,8.8-2.7,13.4-2.7c5.6,0,11.2,1.4,16.1,4l0.3,0.1l467.2,266.2c5.3,2.8,9.8,7,12.9,12.1
		c3.4,5.5,5.2,11.8,5.2,18.2l-1,262.5v1.5c0,11.8-6.5,22.6-16.9,28.2l-1.4,0.7l-157.8,84.6c-5,2.6-10.6,4-16.2,4
		C668.4,841.2,668.2,841.2,668,841.2z"/>
</g>
<g>
	<g>
		<path class="st1" d="M687.9,537l160.4-90.3c-2.2-3.6-5.4-6.6-9.3-8.7L371.6,171.7c-6.5-3.5-14.2-3.8-21-0.9l-187.7,79.1
			c-9,3.8-14.9,12.7-14.9,22.5v247.3c0,8.8,4.7,16.9,12.3,21.2L656.5,828c3.6,2.1,7.7,3.2,11.7,3.2l1.1-264.9
			C669.3,553.8,676.5,542.4,687.9,537z"/>
	</g>
	<g>
		<polygon class="st1" points="838,743.7 838,743.7 759,786.5 		"/>
	</g>
	<path class="st2" d="M838,743.7l1.4-0.7c7.2-3.8,11.6-11.2,11.6-19.3v-1.5C851,731.1,846,739.4,838,743.7z"/>
	<path class="st2" d="M838,743.7c8-4.2,13-12.5,13-21.6l1-262.5c0-4.7-1.3-9.1-3.7-12.9L687.9,537c-11.3,5.4-18.6,16.8-18.6,29.4
		l-1.1,264.9c4.1,0.1,8.2-0.9,11.9-2.8"/>
</g>
<path class="st2" d="M838,743.7c0,0,13-12,13-20.1v-1.5l1-262.5c0-4.7-1.3-9.1-3.7-12.9c-2.2-3.6-5.4-6.6-9.3-8.7L371.6,171.7
	c-6.5-3.5-14.2-3.8-21-0.9l-187.7,79.1c-9,3.8-14.9,12.7-14.9,22.5v247.3c0,8.8,4.7,16.9,12.3,21.2l496.1,287.2
	c3.6,2.1,7.7,3.2,11.7,3.2c4.1,0.1,8.2-0.9,11.9-2.8L838,743.7z"/>
<g class="st3">
	<path class="st1" d="M228.5,276.2l130.8-57.5l35.3,20.1c12.7,7.2,19.2,14,19.6,20.5s-5.2,12.3-17,17.4c-6.8,3-13.7,4.8-20.8,5.6
		c-7.1,0.8-14.1,0.4-20.9-1.2c3.3,3.7,3.9,7.4,1.8,11.2c-2.2,3.7-6.8,7.1-13.8,10.2c-12.8,5.6-25.5,8.1-38,7.5s-24.9-4.4-37-11.1
		L228.5,276.2z M307.8,265.2L276.5,279l15.5,8.8c4.3,2.4,8.9,3.7,13.8,3.9c4.9,0.2,9.7-0.8,14.4-2.9c10.9-4.8,12.3-9.5,4.2-14.2
		L307.8,265.2z M328.5,256.2l12.4,7c5.2,2.9,10.2,4.5,14.9,4.6c4.7,0.2,9.4-0.8,14.2-2.9c5.5-2.4,8.3-4.9,8.4-7.3
		c0-2.4-2.6-5.2-7.9-8.2l-11.6-6.6L328.5,256.2z"/>
	<path class="st1" d="M400.6,327.5l-12.8-7.3l-46.3,20.3L317.8,327l130.8-57.5l38.7,22c11.7,6.6,17.3,13.3,17,20.1
		c-0.3,6.8-6.7,12.9-19.3,18.4c-9.1,4-18,6.5-26.8,7.6s-17.9,0.7-27.5-1l-32.3,34.9l-1.3,0.6l-25.4-14.5L400.6,327.5z M412,309.5
		l15,8.5c4.5,2.6,9.5,3.8,14.9,3.7c5.4-0.1,11-1.4,16.6-3.9s8.9-5.1,9.8-7.8s-0.9-5.3-5.3-7.9l-15-8.5L412,309.5z"/>
	<path class="st1" d="M433.3,392.7l-23.6-13.5l130.8-57.5l23.6,13.5L433.3,392.7z"/>
	<path class="st1" d="M573.7,428c-9.4,3.8-19.3,6.3-29.7,7.4s-20.5,0.8-30.4-1c-9.9-1.8-18.8-4.9-26.7-9.4
		c-12.9-7.4-17.5-15.6-13.7-24.8c3.8-9.1,15.9-18.2,36.3-27.2l6.5-2.8c12.8-5.6,25.7-9.6,38.7-11.9s25.2-2.8,36.8-1.5
		c11.5,1.3,21.5,4.3,29.8,9c11.9,6.8,17.4,14.1,16.3,21.9c-1.1,7.8-8.5,15.2-22.2,22.2l-23.6-13.5c7.8-3.6,12-7,12.6-10.1
		s-2-6.4-7.8-9.7c-5.9-3.4-13.2-4.5-21.8-3.5s-19.4,4.3-32.4,9.9l-9.3,4.1c-14,6.1-22.6,11.3-26,15.4s-1.8,8,4.6,11.7
		c5.4,3.1,11.3,4.7,17.6,4.9c6.3,0.1,13.2-1.4,20.9-4.5L573.7,428z"/>
	<path class="st1" d="M622.7,451.5l-23.9,0.7l-34.5,15.2l-23.7-13.5l130.8-57.5l23.7,13.5l-57.7,25.3l24.9-2.6l62.3-6l29.3,16.7
		l-91.1,6.5l-39.7,51l-28.1-16L622.7,451.5z"/>
</g>
<path class="st4" d="M836.9,743.7c8-4.2,13-12.5,13-21.6l1-262.5c0-4.7-1.3-9.1-3.7-12.9L686.8,537c-11.3,5.4-18.6,16.8-18.6,29.4
	l-1.1,264.9c4.1,0.1,8.2-0.9,11.9-2.8L836.9,743.7z"/>
<g class="st3">
	<path class="st1" d="M788.4,667.5l25.6-13.3l0.2,6.4l-25.6,13.3l1.1,46.7l-5.5,2.9l-1.1-46.7l-71.9,37.4l-0.1-3.5l67.9-158l6.6-3.4
		L788.4,667.5z M719.6,703.3l63.3-32.9l-2.6-110.6l-8.2,20.7L719.6,703.3z"/>
</g>
<g class="st3">
	<path class="st1" d="M279.9,551.2l-4.2-2.5v-87.9L203,418.6v87.9l-4.2-2.5V326.8l4.2,2.5v82.8l72.6,42.2v-82.8l4.2,2.4L279.9,551.2
		L279.9,551.2z"/>
	<path class="st1" d="M372.4,552l-55.7-32.3L304,565.3l-4.6-2.7L342,410l5.2,3l42.6,202l-4.6-2.7L372.4,552z M318.3,514l52.6,30.5
		l-26.2-125L318.3,514z"/>
	<path class="st1" d="M484.5,615.8c-1.1,17.6-5.1,29.3-12.1,35s-16.5,5.1-28.4-1.8c-8.1-4.7-15.2-12-21.4-22
		c-6.2-10-11.1-21.8-14.5-35.6c-3.4-13.7-5.2-28.1-5.2-43.3v-27.4c0-15.1,1.7-27.6,5.1-37.5s8.2-16.3,14.5-19.2
		c6.3-2.8,13.5-1.9,21.6,2.8c11.9,6.9,21.3,17.3,28.4,31.1c7,13.8,11.1,30.1,12.2,49l-4.2-2.5c-1.2-17-4.8-31.5-10.9-43.5
		s-14.6-21.2-25.4-27.5c-11-6.4-20-5.1-26.8,3.9s-10.2,24.5-10.2,46.3v26.1c0,14,1.5,27.2,4.5,39.7s7.4,23.4,13,32.7
		s12.1,16,19.4,20.3c10.9,6.3,19.4,7.1,25.5,2.3s9.7-15.2,10.8-31.3L484.5,615.8z"/>
	<path class="st1" d="M533.3,605.1l-18.2,15.6v67.1l-4.2-2.5V508.1l4.2,2.5V613l18.7-17.7l47.2-46.5l6.1,3.5l-50.7,50L591,731.9
		l-5.5-3.2L533.3,605.1z"/>
</g>
</svg>
