<?xml version="1.0" encoding="utf-8"?>
<!-- Generator: Adobe Illustrator 21.1.0, SVG Export Plug-In . SVG Version: 6.00 Build 0)  -->
<svg version="1.1" xmlns="http://www.w3.org/2000/svg" xmlns:xlink="http://www.w3.org/1999/xlink" x="0px" y="0px"
	 viewBox="0 0 1000 1000" style="enable-background:new 0 0 1000 1000;" xml:space="preserve">
<style type="text/css">
	.st0{fill:#363447;}
	.st1{fill:#FFFFFF;}
	.st2{fill:#F58625;}
	.st3{fill:#E97926;}
	.st4{fill:#E27126;}
	.st5{fill:#9A9090;}
	.st6{font-family:'Roboto-Black';}
	.st7{font-size:200.9186px;}
	.st8{fill:#D87027;}
	.st9{font-family:'Roboto-Thin';}
	.st10{font-size:241.1293px;}
	.st11{font-size:249.3108px;}
</style>
<g id="Layer_3">
	<rect x="-5779" y="-1205.1" class="st0" width="4464" height="956"/>
	<rect x="-3739" class="st0" width="1000" height="1000"/>
	<rect x="-2496.2" class="st0" width="1000" height="1000"/>
	<rect x="-1263.1" class="st0" width="1006" height="1000"/>
</g>
<g id="Layer_1">
	<g>
		<g>
			<polygon class="st1" points="-1040.8,-2414.4 -1646.5,-2133.7 -1646.5,-1788.8 -1460.8,-1686.9 -846.5,-2033.9 -846.5,-2346.4 
							"/>
		</g>
	</g>
	<g>
		<g>
			<path class="st1" d="M-4903.2-2222.2c0.3-2.9-2.3-5.7-7.7-8.2c-5.5-2.6-11.6-3.9-18.2-3.8c-6.6,0-12.9,1.5-18.9,4.4l-19.8,9.7
				l35.1,16.8l20-10C-4906.7-2216.2-4903.5-2219.2-4903.2-2222.2z"/>
		</g>
		<g>
			<path class="st1" d="M-5041.9-2151.7c7.2-3.7,11.2-7.1,12.2-10.2c0.9-3.1-1.1-5.9-6.2-8.5c-5.7-2.9-11.7-4.1-18-3.6
				c-6.3,0.5-13.2,2.6-20.8,6.3l-15.4,7.6l32.2,16.5L-5041.9-2151.7z"/>
		</g>
		<g>
			<polygon class="st1" points="-4805.3,-2150.5 -4805.9,-2150.1 -4808.7,-2135.7 -4840.4,-1993.4 -4771.2,-2031.9 -4802.4,-2139 
							"/>
		</g>
		<g>
			<path class="st1" d="M-5002-2115l22.3-11.4c6.8-3.5,10.6-6.8,11.2-9.9c0.7-3.1-1.8-6.1-7.4-8.9c-6-3-12-4.6-18-4.6
				c-6-0.1-12.3,1.6-18.8,4.9l-24.1,12.1L-5002-2115z"/>
		</g>
		<g>
			<path class="st1" d="M-4629.2-2467l-605.7,280.7v345l185.8,101.9l614.2-346.9V-2399L-4629.2-2467z M-4807.2-2322.4
				c14.9-7.2,30.4-10.9,46.6-11.1c16.2-0.2,32.6,2.8,49.4,9l0.4,0.3l-26.2,13c-9.1-3.6-17.3-5.5-24.6-5.9
				c-7.3-0.3-14.6,1.3-21.9,4.9c-6.2,3.1-8.4,6.7-6.3,11c2.1,4.3,7.7,8.4,17,12.5l28.7,12.6c9.5,4.2,19.2,6.6,29.1,7.2
				c9.8,0.6,18.2-0.9,25-4.4c6.6-3.4,9.2-6.7,7.7-9.8c-1.4-3.2-6.4-6.8-15-10.8l26.2-13.3l0.7,0.2c15.7,7.1,24.1,14.5,25.3,22
				c1.2,7.6-5.4,15.2-19.8,22.7c-14.6,7.6-32,11.5-52,11.6c-20,0.1-38.4-3.6-55.2-11.1l-28.5-12.7c-16.3-7.3-25-15.4-26.2-24.3
				C-4827.9-2307.8-4821.4-2315.6-4807.2-2322.4z M-4892.8-1887.9l-5.8,3.3v-108.6l-102.6,56.4v111.2l-6.1,3.5v-0.2l-0.1,0.2
				l-139-76.2h-0.1v-258l-0.2-0.1l48.2-23.3c17.1-8.3,33.5-13.2,49-14.8c15.6-1.6,29.4,0.7,41.7,6.7c6.4,3.2,10.7,6.8,12.7,10.8
				c2,4,1.2,8.3-2.6,12.7c9.8-3.1,19.3-4.2,28.6-3.4c9.3,0.8,17.6,3,24.8,6.6c13.6,6.7,19.6,14.1,17.8,22.1
				c-1.8,8.1-11.1,16.6-27.9,25.3l-55.1,28.7l-122.5-63.8v250.5h0l124.8,68.5v-225.5l6.1-3.2v113.1l102.6-56.2V-2112l5.8-3V-1887.9z
				 M-5022.4-2216.6l50.6-24.5c15-7.2,30.3-11.3,46.1-12.2c15.7-0.9,29.8,1.6,42.3,7.4c7,3.2,11.3,6.9,12.9,10.9
				c1.6,4.1,0.6,8.5-2.9,13.5c10.2-2.8,19.8-3.8,28.8-2.9c9,0.9,17.7,3.3,26.1,7.1l8.8,4.1c3.7,1.7,8.3,3.4,14,5
				c5.7,1.7,10.8,2.3,15.2,2l1.9,0.9l-30.3,15.7c-4.3,0.3-9.5-0.6-15.3-2.6c-5.8-2-10.9-4-15.2-6l-8.4-4c-6.6-3.1-13.3-4.7-20-4.7
				c-6.7,0-13.2,1.6-19.5,4.8l-20.9,10.5l53.7,25.7l-30.8,16L-5022.4-2216.6z M-4752.8-1968.4l-16.5-56.4l-73.3,41l-17.2,76.9
				l-6.3,3.6l56.9-255.4l6.8-3.5l55.3,190.5L-4752.8-1968.4z M-4763.7-2213l-136.8-62.6l28.7-13.9l136.7,61.6L-4763.7-2213z
				 M-4712-2020.8c8.5,11.1,19.7,12.7,33.5,4.8c13.5-7.8,24.2-18.9,32-33.5c7.8-14.5,11.6-31.9,11.6-52.1l4.4-2.4l0.2,0.8
				c0.2,21.7-4,40.9-12.9,57.5c-8.9,16.7-20.6,29.3-35.3,37.7c-15.5,8.9-28,7.4-37.4-4.8c-9.5-12.2-14.3-32.7-14.3-61.4v-32.7
				c0-28.6,4.8-54.3,14.3-77c9.5-22.6,21.9-37.9,37.4-46c14.7-7.6,26.4-7.9,35.3-0.9c8.8,7,13.1,21.3,12.9,43l-0.2,1l-4.4,2.3
				c0-19.3-3.9-32.1-11.6-38.4c-7.8-6.4-18.4-6.1-32,1c-13.8,7.2-25,21.1-33.5,41.6c-8.6,20.6-12.8,44-12.8,70.2v33
				C-4724.8-2050.8-4720.5-2031.9-4712-2020.8z M-4744.1-2351.2l26.5-12.8l52.1,21.6l8.9-4.4l-27.6-33.4l31.6-15.3l26.4,41.1
				l112,11.7l-30.7,16l-80.3-10l-12,6.1l55.6,23.1l-26.3,13.7L-4744.1-2351.2z M-4507.3-2109.6l-5.6,3.2l-62.4-68.2l-16.9,9.3v104.6
				l-5,2.9v-211.4l5-2.6v98.9l18.3-10l54.2-126.7l5.7-3l0.2,0.6l-56,131.7l62.8,69.8L-4507.3-2109.6z"/>
		</g>
	</g>
	<rect x="-4347" y="-2467" class="st2" width="800" height="727.5"/>
	<g>
		<g>
			<polygon class="st1" points="629.2,-2593.9 23.5,-2313.3 23.5,-1968.3 209.3,-1866.5 823.5,-2213.4 823.5,-2525.9 			"/>
		</g>
	</g>
	<rect x="-3455" y="-2467" class="st2" width="900" height="818.4"/>
	<g>
		<g>
			<path class="st1" d="M-3066.7-2165.3c0.3-2.7-2.1-5.1-6.9-7.4c-5-2.3-10.4-3.5-16.4-3.5c-6,0-11.7,1.4-17.1,4l-17.9,8.8
				l31.7,15.2l18.1-9C-3069.8-2159.9-3067-2162.6-3066.7-2165.3z"/>
		</g>
		<g>
			<path class="st1" d="M-3192-2101.6c6.5-3.3,10.1-6.4,11-9.2c0.9-2.8-1-5.4-5.6-7.7c-5.2-2.6-10.6-3.7-16.3-3.3
				c-5.7,0.4-11.9,2.3-18.8,5.7l-13.9,6.8l29.1,14.9L-3192-2101.6z"/>
		</g>
		<g>
			<polygon class="st1" points="-2978.1,-2100.5 -2978.7,-2100.2 -2981.2,-2087.1 -3009.9,-1958.4 -2947.4,-1993.3 -2975.5,-2090.1 
							"/>
		</g>
		<g>
			<path class="st1" d="M-3156-2068.4l20.1-10.3c6.2-3.2,9.6-6.2,10.2-9c0.6-2.8-1.6-5.5-6.7-8c-5.5-2.7-10.9-4.1-16.3-4.2
				c-5.4-0.1-11.1,1.4-17,4.4l-21.8,11L-3156-2068.4z"/>
		</g>
		<g>
			<path class="st1" d="M-2819-2386.6l-547.6,253.8v311.9l168,92.1l555.3-313.7v-282.6L-2819-2386.6z M-2979.9-2255.9
				c13.5-6.5,27.5-9.8,42.2-10c14.6-0.2,29.5,2.5,44.6,8.1l0.4,0.3l-23.7,11.8c-8.3-3.2-15.7-5-22.2-5.3c-6.6-0.3-13.2,1.2-19.8,4.4
				c-5.7,2.8-7.6,6.1-5.7,9.9c1.9,3.9,7,7.6,15.4,11.3l25.9,11.4c8.6,3.8,17.4,6,26.3,6.5c8.9,0.5,16.4-0.8,22.6-4c6-3,8.3-6,7-8.9
				c-1.3-2.9-5.8-6.1-13.6-9.8l23.7-12l0.7,0.1c14.2,6.4,21.8,13.1,22.9,19.9c1.1,6.9-4.9,13.7-17.9,20.5
				c-13.2,6.9-28.9,10.4-47,10.5c-18.1,0.1-34.7-3.3-49.9-10l-25.8-11.5c-14.8-6.6-22.6-13.9-23.7-22
				C-2998.6-2242.7-2992.7-2249.8-2979.9-2255.9z M-3057.3-1863.1l-5.3,3v-98.2l-92.8,51v100.5l-5.5,3.2v-0.2l-0.1,0.2l-125.6-68.9
				h-0.1v-233.3l-0.2-0.1l43.6-21.1c15.5-7.5,30.3-11.9,44.3-13.3c14.1-1.4,26.6,0.6,37.7,6.1c5.8,2.9,9.6,6.1,11.5,9.7
				c1.8,3.6,1,7.5-2.4,11.5c8.8-2.8,17.5-3.8,25.9-3.1c8.4,0.7,15.9,2.7,22.4,6c12.3,6.1,17.7,12.7,16.1,20
				c-1.6,7.3-10,15-25.2,22.9l-49.8,25.9l-110.7-57.7v226.5h0l112.9,61.9v-203.9l5.5-2.9v102.3l92.8-50.8v-99.9l5.3-2.7V-1863.1z
				 M-3174.4-2160.3l45.7-22.1c13.5-6.6,27.4-10.2,41.7-11c14.2-0.8,27,1.4,38.3,6.6c6.3,2.9,10.2,6.2,11.7,9.9
				c1.4,3.7,0.6,7.7-2.7,12.2c9.2-2.5,17.9-3.4,26-2.6c8.1,0.8,16,2.9,23.6,6.5l8,3.7c3.3,1.5,7.5,3.1,12.7,4.6
				c5.1,1.5,9.7,2.1,13.7,1.8l1.8,0.8l-27.4,14.2c-3.9,0.2-8.5-0.5-13.8-2.4c-5.3-1.8-9.9-3.6-13.7-5.5l-7.6-3.6
				c-6-2.8-12-4.2-18.1-4.2c-6.1,0-12,1.4-17.6,4.3l-18.9,9.5l48.5,23.3l-27.8,14.5L-3174.4-2160.3z M-2930.6-1935.9l-14.9-51
				l-66.3,37l-15.5,69.6l-5.7,3.2l51.5-230.9l6.2-3.2l50,172.2L-2930.6-1935.9z M-2940.5-2157l-123.7-56.6l25.9-12.5l123.6,55.7
				L-2940.5-2157z M-2893.8-1983.2c7.7,10,17.8,11.5,30.3,4.3c12.2-7,21.8-17.1,28.9-30.3c7-13.1,10.5-28.8,10.5-47.1l3.9-2.2
				l0.2,0.7c0.2,19.6-3.6,37-11.6,52c-8,15.1-18.6,26.5-31.9,34.1c-14,8.1-25.3,6.6-33.9-4.4c-8.6-11.1-12.9-29.6-12.9-55.6v-29.6
				c0-25.9,4.3-49.1,12.9-69.6c8.6-20.4,19.8-34.3,33.9-41.6c13.3-6.9,23.9-7.2,31.9-0.8c8,6.3,11.8,19.3,11.6,38.9l-0.2,0.9
				l-3.9,2.1c0-17.4-3.5-29-10.5-34.7c-7.1-5.8-16.7-5.5-28.9,0.9c-12.5,6.5-22.6,19-30.3,37.6c-7.7,18.6-11.6,39.8-11.6,63.5v29.8
				C-2905.4-2010.3-2901.5-1993.3-2893.8-1983.2z M-2922.8-2282l23.9-11.6l47.1,19.6l8-4l-25-30.2l28.6-13.8l23.8,37.1l101.2,10.6
				l-27.8,14.5l-72.6-9.1l-10.8,5.5l50.3,20.8l-23.8,12.4L-2922.8-2282z M-2708.7-2063.5l-5.1,2.9l-56.4-61.7l-15.3,8.4v94.5
				l-4.5,2.6v-191.1l4.5-2.4v89.4l16.5-9l49-114.6l5.2-2.7l0.2,0.6l-50.6,119.1l56.7,63.1L-2708.7-2063.5z"/>
		</g>
	</g>
	<g>
		<path class="st1" d="M-1963-2108l-51.5,230.9l5.7-3.2l15.5-69.6l66.3-37l14.9,51l5.4-3.1l-50-172.2L-1963-2108z M-1991.4-1958.4
			l28.7-128.7l2.5-13.1l0.6-0.3l2.6,10.4l28.2,96.8L-1991.4-1958.4z"/>
		<path class="st1" d="M-2052.7-2137.6l18.9-9.5c5.7-2.9,11.6-4.3,17.6-4.3c6.1,0,12.1,1.4,18.1,4.2l7.6,3.6
			c3.9,1.8,8.5,3.6,13.7,5.5c5.3,1.8,9.9,2.6,13.8,2.4l27.4-14.2l-1.8-0.8c-4,0.3-8.6-0.3-13.7-1.8c-5.1-1.5-9.4-3-12.7-4.6l-8-3.7
			c-7.6-3.5-15.5-5.7-23.6-6.5c-8.1-0.8-16.8,0.1-26,2.6c3.2-4.4,4.1-8.5,2.7-12.2c-1.4-3.7-5.3-7-11.7-9.9
			c-11.3-5.2-24-7.4-38.3-6.6c-14.3,0.8-28.1,4.4-41.7,11l-45.7,22.1l124,60.5l27.8-14.5L-2052.7-2137.6z M-2074.9-2148.2
			l-31.7-15.2l17.9-8.8c5.4-2.7,11.1-4,17.1-4c6,0,11.5,1.1,16.4,3.5c4.9,2.3,7.2,4.8,6.9,7.4c-0.3,2.7-3.1,5.4-8.6,8.1
			L-2074.9-2148.2z"/>
		<path class="st1" d="M-2044.1-1965.8l-92.8,50.8v-102.3l-5.5,2.9v203.9l-112.9-61.9h0V-2099l110.7,57.7l49.8-25.9
			c15.2-7.9,23.6-15.5,25.2-22.9c1.6-7.3-3.7-13.9-16.1-20c-6.5-3.2-14-5.2-22.4-6c-8.4-0.8-17,0.3-25.9,3.1c3.4-4,4.2-7.9,2.4-11.5
			c-1.8-3.6-5.6-6.9-11.5-9.7c-11.1-5.5-23.6-7.5-37.7-6.1c-14.1,1.4-28.8,5.8-44.3,13.3l-43.6,21.1l0.2,0.1v233.3h0.1l125.6,68.9
			l0.1-0.2v0.2l5.5-3.2v-100.5l92.8-51v98.2l5.3-3v-205.4l-5.3,2.7V-1965.8z M-2130.3-2099.9c5.4,0.1,10.8,1.4,16.3,4.2
			c5.1,2.5,7.3,5.2,6.7,8c-0.6,2.8-4,5.8-10.2,9l-20.1,10.3l-31.5-16.1l21.8-11C-2141.4-2098.5-2135.7-2100-2130.3-2099.9z
			 M-2203.3-2116c6.9-3.4,13.1-5.3,18.8-5.7c5.7-0.4,11.1,0.6,16.3,3.3c4.6,2.3,6.5,4.9,5.6,7.7c-0.9,2.8-4.5,5.9-11,9.2l-14.5,7.2
			l-29.1-14.9L-2203.3-2116z"/>
		<polygon class="st1" points="-2045.8,-2213.6 -1922.1,-2157 -1896.2,-2170.4 -2019.8,-2226.1 		"/>
		<path class="st1" d="M-1955.5-2212.7l25.8,11.5c15.2,6.8,31.8,10.1,49.9,10c18.1-0.1,33.7-3.6,47-10.5c13.1-6.8,19-13.6,17.9-20.5
			c-1.1-6.8-8.7-13.4-22.9-19.9l-0.7-0.1l-23.7,12c7.8,3.7,12.3,6.9,13.6,9.8c1.3,2.9-1,5.8-7,8.9c-6.2,3.2-13.7,4.5-22.6,4
			c-8.9-0.5-17.7-2.7-26.3-6.5l-25.9-11.4c-8.4-3.7-13.5-7.5-15.4-11.3c-1.9-3.8,0-7.1,5.7-9.9c6.6-3.3,13.2-4.7,19.8-4.4
			c6.6,0.3,14,2.1,22.2,5.3l23.7-11.8l-0.4-0.3c-15.1-5.6-30-8.3-44.6-8.1c-14.7,0.2-28.7,3.5-42.2,10
			c-12.8,6.2-18.7,13.3-17.7,21.2C-1978.1-2226.7-1970.2-2219.3-1955.5-2212.7z"/>
		<path class="st1" d="M-1875.3-2127.5c7.7-18.5,17.8-31.1,30.3-37.6c12.2-6.4,21.8-6.7,28.9-0.9c7,5.8,10.5,17.3,10.5,34.7l3.9-2.1
			l0.2-0.9c0.2-19.6-3.6-32.6-11.6-38.9c-8-6.3-18.6-6.1-31.9,0.8c-14,7.3-25.3,21.1-33.9,41.6c-8.6,20.5-12.9,43.7-12.9,69.6v29.6
			c0,26,4.3,44.5,12.9,55.6c8.6,11,19.8,12.4,33.9,4.4c13.3-7.6,23.9-19,31.9-34.1c8-15,11.8-32.3,11.6-52l-0.2-0.7l-3.9,2.2
			c0,18.3-3.5,34-10.5,47.1c-7.1,13.2-16.7,23.3-28.9,30.3c-12.5,7.2-22.6,5.8-30.3-4.3c-7.7-10.1-11.6-27.1-11.6-51.1v-29.8
			C-1886.9-2087.7-1883.1-2108.9-1875.3-2127.5z"/>
		<polygon class="st1" points="-1850.3,-2308.1 -1825.3,-2278 -1833.3,-2274 -1880.5,-2293.5 -1904.4,-2282 -1781.4,-2230.2 
			-1757.6,-2242.6 -1807.9,-2263.4 -1797,-2268.9 -1724.4,-2259.8 -1696.7,-2274.3 -1797.9,-2284.8 -1821.7,-2322 		"/>
		<polygon class="st1" points="-1750.5,-2129.9 -1767,-2120.8 -1767,-2210.2 -1771.6,-2207.9 -1771.6,-2016.7 -1767,-2019.3 
			-1767,-2113.9 -1751.7,-2122.3 -1695.3,-2060.6 -1690.2,-2063.5 -1690,-2064.4 -1746.7,-2127.5 -1696.1,-2246.6 -1696.3,-2247.1 
			-1701.5,-2244.4 		"/>
	</g>
	<g>
		<path class="st2" d="M-1216.1-2108l-51.5,230.9l5.7-3.2l15.5-69.6l66.3-37l14.9,51l5.4-3.1l-50-172.2L-1216.1-2108z
			 M-1244.5-1958.4l28.7-128.7l2.5-13.1l0.6-0.3l2.6,10.4l28.2,96.8L-1244.5-1958.4z"/>
		<path class="st2" d="M-1305.8-2137.6l18.9-9.5c5.7-2.9,11.6-4.3,17.6-4.3c6.1,0,12.1,1.4,18.1,4.2l7.6,3.6
			c3.9,1.8,8.5,3.6,13.7,5.5c5.3,1.8,9.9,2.6,13.8,2.4l27.4-14.2l-1.8-0.8c-4,0.3-8.6-0.3-13.7-1.8c-5.1-1.5-9.4-3-12.7-4.6l-8-3.7
			c-7.6-3.5-15.5-5.7-23.6-6.5c-8.1-0.8-16.8,0.1-26,2.6c3.2-4.4,4.1-8.5,2.7-12.2c-1.4-3.7-5.3-7-11.7-9.9
			c-11.3-5.2-24-7.4-38.3-6.6c-14.3,0.8-28.1,4.4-41.7,11l-45.7,22.1l124,60.5l27.8-14.5L-1305.8-2137.6z M-1327.9-2148.2
			l-31.7-15.2l17.9-8.8c5.4-2.7,11.1-4,17.1-4c6,0,11.5,1.1,16.4,3.5c4.9,2.3,7.2,4.8,6.9,7.4c-0.3,2.7-3.1,5.4-8.6,8.1
			L-1327.9-2148.2z"/>
		<path class="st2" d="M-1508.2-2099l110.7,57.7l49.8-25.9c15.2-7.9,23.6-15.5,25.2-22.9c1.6-7.3-3.7-13.9-16.1-20
			c-6.5-3.2-14-5.2-22.4-6c-8.4-0.8-17,0.3-25.9,3.1c3.4-4,4.2-7.9,2.4-11.5c-1.8-3.6-5.6-6.9-11.5-9.7c-11.1-5.5-23.6-7.5-37.7-6.1
			c-14.1,1.4-28.8,5.8-44.3,13.3l-43.6,21.1l0.2,0.1 M-1395.5-1803.5l0.1-0.2v0.2l5.5-3.2v-100.5l92.8-51v98.2l5.3-3v-205.4
			l-5.3,2.7v99.9l-92.8,50.8v-102.3l-5.5,2.9v203.9 M-1383.3-2099.9c5.4,0.1,10.8,1.4,16.3,4.2c5.1,2.5,7.3,5.2,6.7,8
			c-0.6,2.8-4,5.8-10.2,9l-20.1,10.3l-31.5-16.1l21.8-11C-1394.4-2098.5-1388.7-2100-1383.3-2099.9z M-1456.3-2116
			c6.9-3.4,13.1-5.3,18.8-5.7c5.7-0.4,11.1,0.6,16.3,3.3c4.6,2.3,6.5,4.9,5.6,7.7c-0.9,2.8-4.5,5.9-11,9.2l-14.5,7.2l-29.1-14.9
			L-1456.3-2116z"/>
		<polygon class="st2" points="-1298.8,-2213.6 -1175.1,-2157 -1149.3,-2170.4 -1272.9,-2226.1 		"/>
		<path class="st2" d="M-1208.5-2212.7l25.8,11.5c15.2,6.8,31.8,10.1,49.9,10c18.1-0.1,33.7-3.6,47-10.5c13.1-6.8,19-13.6,17.9-20.5
			c-1.1-6.8-8.7-13.4-22.9-19.9l-0.7-0.1l-23.7,12c7.8,3.7,12.3,6.9,13.6,9.8c1.3,2.9-1,5.8-7,8.9c-6.2,3.2-13.7,4.5-22.6,4
			c-8.9-0.5-17.7-2.7-26.3-6.5l-25.9-11.4c-8.4-3.7-13.5-7.5-15.4-11.3c-1.9-3.8,0-7.1,5.7-9.9c6.6-3.3,13.2-4.7,19.8-4.4
			c6.6,0.3,14,2.1,22.2,5.3l23.7-11.8l-0.4-0.3c-15.1-5.6-30-8.3-44.6-8.1c-14.7,0.2-28.7,3.5-42.2,10
			c-12.8,6.2-18.7,13.3-17.7,21.2C-1231.2-2226.7-1223.3-2219.3-1208.5-2212.7z"/>
		<path class="st2" d="M-1128.4-2127.5c7.7-18.5,17.8-31.1,30.3-37.6c12.2-6.4,21.8-6.7,28.9-0.9c7,5.8,10.5,17.3,10.5,34.7l3.9-2.1
			l0.2-0.9c0.2-19.6-3.6-32.6-11.6-38.9c-8-6.3-18.6-6.1-31.9,0.8c-14,7.3-25.3,21.1-33.9,41.6c-8.6,20.5-12.9,43.7-12.9,69.6v29.6
			c0,26,4.3,44.5,12.9,55.6c8.6,11,19.8,12.4,33.9,4.4c13.3-7.6,23.9-19,31.9-34.1c8-15,11.8-32.3,11.6-52l-0.2-0.7l-3.9,2.2
			c0,18.3-3.5,34-10.5,47.1c-7.1,13.2-16.7,23.3-28.9,30.3c-12.5,7.2-22.6,5.8-30.3-4.3c-7.7-10.1-11.6-27.1-11.6-51.1v-29.8
			C-1140-2087.7-1136.1-2108.9-1128.4-2127.5z"/>
		<polygon class="st2" points="-1103.3,-2308.1 -1078.4,-2278 -1086.4,-2274 -1133.5,-2293.5 -1157.4,-2282 -1034.4,-2230.2 
			-1010.6,-2242.6 -1060.9,-2263.4 -1050,-2268.9 -977.5,-2259.8 -949.7,-2274.3 -1050.9,-2284.8 -1074.8,-2322 		"/>
		<polygon class="st2" points="-1003.5,-2129.9 -1020.1,-2120.8 -1020.1,-2210.2 -1024.6,-2207.9 -1024.6,-2016.7 -1020.1,-2019.3 
			-1020.1,-2113.9 -1004.8,-2122.3 -948.4,-2060.6 -943.3,-2063.5 -943,-2064.4 -999.8,-2127.5 -949.2,-2246.6 -949.3,-2247.1 
			-954.5,-2244.4 		"/>
	</g>
	<g>
		<path class="st2" d="M-1421.8-1803.5l-125.7-60.2v-7.8l68.9-46.4c13.1-8.8,22.6-17.3,28.7-25.4c6-8.1,9-16.8,9-26.1
			c0-15.3-4.2-29.3-12.7-41.9c-8.5-12.6-20.8-22.8-37.1-30.6c-17.2-8.2-30.6-9.6-40-4c-9.4,5.6-14.1,16.4-14.1,32.5l-6.6-3.2l-0.3-1
			c-0.5-17.3,4.9-29.2,16.1-35.7c11.2-6.6,26.2-5.4,45,3.6c17.4,8.3,31.4,20,41.9,34.9c10.5,14.9,15.8,31.3,15.8,49.2
			c0,11.6-3.8,21.7-11.3,30.2c-7.6,8.5-18.2,17.5-32,27l-60.2,41.5l0.3,0.9l114.5,54.8V-1803.5z"/>
	</g>
	<path class="st1" d="M699.6-2191.6"/>
</g>
<g id="Layer_2">
	<g>
		<g>
			<path class="st1" d="M-4251.4-681.1l187.4-87.3c-2.2-3.6-5.4-6.6-9.3-8.7l-494.3-269.3c-6.5-3.5-14.2-3.8-21-0.9l-187.7,79.1
				c-9,3.8-14.9,12.7-14.9,22.5v250.3c0,8.8,4.7,16.9,12.3,21.2l496.1,284.2c3.6,2.1,7.7,3.2,11.7,3.2l1.1-264.9
				C-4270-664.3-4262.7-675.7-4251.4-681.1z"/>
		</g>
		<g>
			<polygon class="st1" points="-4071.3,-489.4 -4071.3,-489.4 -4180.2,-431.6 			"/>
		</g>
		<path class="st2" d="M-4071.3-489.4l1.4-0.7c7.2-3.8,11.6-11.2,11.6-19.3v-1.5C-4058.3-501.9-4063.3-493.6-4071.3-489.4z"/>
		<path class="st2" d="M-4251.4-681.1c-11.3,5.4-18.6,16.8-18.6,29.4l-1.1,264.9c4.1,0.1,8.2-0.9,11.9-2.8l78.9-41.9l109-57.8
			c8-4.2,13-12.5,13-21.6l-2-244.5c0-4.7-1.3-9.1-3.7-12.9L-4251.4-681.1z"/>
	</g>
	<g>
		<g>
			<path class="st1" d="M-4251.4-681.1l187.4-87.3c-2.2-3.6-5.4-6.6-9.3-8.7l-494.3-269.3c-6.5-3.5-14.2-3.8-21-0.9l-187.7,79.1
				c-9,3.8-14.9,12.7-14.9,22.5v250.3c0,8.8,4.7,16.9,12.3,21.2l496.1,284.2c3.6,2.1,7.7,3.2,11.7,3.2l1.1-264.9
				C-4270-664.3-4262.7-675.7-4251.4-681.1z"/>
		</g>
		<g>
			<polygon class="st1" points="-4071.3,-489.4 -4071.3,-489.4 -4180.2,-431.6 			"/>
		</g>
		<path class="st2" d="M-4071.3-489.4l1.4-0.7c7.2-3.8,11.6-11.2,11.6-19.3v-1.5C-4058.3-501.9-4063.3-493.6-4071.3-489.4z"/>
		<path class="st2" d="M-4251.4-681.1c-11.3,5.4-18.6,16.8-18.6,29.4l-1.1,264.9c4.1,0.1,8.2-0.9,11.9-2.8l78.9-41.9l109-57.8
			c8-4.2,13-12.5,13-21.6l-2-244.5c0-4.7-1.3-9.1-3.7-12.9L-4251.4-681.1z"/>
	</g>
	<text transform="matrix(0.6925 0.3675 -0.9204 0.3909 -4723.8535 -941.5472)" class="st2 st6" style="font-size:207.5098px;">BRICK</text>
	<g>
		<path class="st2" d="M-4647.4-672.4l-4.4-2.5v-83.7l-75-43.1v83.7l-4.4-2.5v-175.3l4.4,2.5v85.1l75,43.1v-85.1l4.4,2.5V-672.4z"/>
		<path class="st2" d="M-4551.9-669.8l-57.4-33l-13.1,44.9l-4.8-2.7l43.9-150.1l5.3,3.1l43.9,200.6l-4.8-2.7L-4551.9-669.8z
			 M-4607.7-708.4l54.2,31.1l-24.6-112.9l-2.3-11.2l-0.5-0.3l-2.2,8.6L-4607.7-708.4z"/>
		<path class="st2" d="M-4437.6-605.5l0.2,0.8c0.2,18.1-3.4,29.8-10.9,35c-7.5,5.2-17.4,4.3-29.6-2.8c-12.8-7.4-23.1-20.4-30.9-39
			c-7.7-18.6-11.6-39.4-11.6-62.5v-26.2c0-23,3.9-39.3,11.6-49.1c7.7-9.8,18-10.9,30.9-3.6c12.3,7,22.1,17.5,29.6,31.4
			c7.5,13.9,11.1,29.6,10.9,47.2l-0.2,0.6l-3.7-2.1c0-15.8-3.3-29.9-9.9-42.3s-15.5-21.8-26.8-28.3c-11.4-6.6-20.7-5.4-27.7,3.5
			c-7,8.9-10.5,23.9-10.5,44.9v26.5c0,21.3,3.5,40.4,10.5,57.3c7,16.9,16.2,28.6,27.7,35.2c11.3,6.5,20.2,7.5,26.8,3
			s9.9-15,9.9-31.6L-4437.6-605.5z"/>
		<path class="st2" d="M-4386.6-608.1l-18-10.3v85.6l-4.4-2.5v-175.3l4.4,2.5v83.3l19.2,11l49.8-54.7l5.2,3l0.2,0.7l-51.5,57.2
			l55.2,118.9l-0.2,0.6l-5.1-2.9L-4386.6-608.1z"/>
	</g>
	<text transform="matrix(0.8644 -0.4497 2.387000e-02 0.9997 -4195.478 -501.3077)" class="st1 st9" style="font-size:150.1444px;">3</text>
	<g>
		<g>
			<path class="st1" d="M-5065.9-681.1l187.4-87.3c-2.2-3.6-5.4-6.6-9.3-8.7l-494.3-269.3c-6.5-3.5-14.2-3.8-21-0.9l-187.7,79.1
				c-9,3.8-14.9,12.7-14.9,22.5v250.3c0,8.8,4.7,16.9,12.3,21.2l496.1,284.2c3.6,2.1,7.7,3.2,11.7,3.2l1.1-264.9
				C-5084.4-664.3-5077.2-675.7-5065.9-681.1z"/>
		</g>
		<g>
			<polygon class="st1" points="-4885.7,-489.4 -4885.7,-489.4 -4994.7,-431.6 			"/>
		</g>
		<path class="st2" d="M-4885.7-489.4l1.4-0.7c7.2-3.8,11.6-11.2,11.6-19.3v-1.5C-4872.8-501.9-4877.8-493.6-4885.7-489.4z"/>
		<path class="st2" d="M-5065.9-681.1c-11.3,5.4-18.6,16.8-18.6,29.4l-1.1,264.9c4.1,0.1,8.2-0.9,11.9-2.8l78.9-41.9l109-57.8
			c8-4.2,13-12.5,13-21.6l-2-244.5c0-4.7-1.3-9.1-3.7-12.9L-5065.9-681.1z"/>
	</g>
	<g>
		<g>
			<path class="st1" d="M-5065.9-681.1l187.4-87.3c-2.2-3.6-5.4-6.6-9.3-8.7l-494.3-269.3c-6.5-3.5-14.2-3.8-21-0.9l-187.7,79.1
				c-9,3.8-14.9,12.7-14.9,22.5v250.3c0,8.8,4.7,16.9,12.3,21.2l496.1,284.2c3.6,2.1,7.7,3.2,11.7,3.2l1.1-264.9
				C-5084.4-664.3-5077.2-675.7-5065.9-681.1z"/>
		</g>
		<g>
			<polygon class="st1" points="-4885.7,-489.4 -4885.7,-489.4 -4994.7,-431.6 			"/>
		</g>
		<path class="st1" d="M-4885.7-489.4l1.4-0.7c7.2-3.8,11.6-11.2,11.6-19.3v-1.5C-4872.8-501.9-4877.8-493.6-4885.7-489.4z"/>
		<path class="st1" d="M-5065.9-681.1c-11.3,5.4-18.6,16.8-18.6,29.4l-1.1,264.9c4.1,0.1,8.2-0.9,11.9-2.8l78.9-41.9l109-57.8
			c8-4.2,13-12.5,13-21.6l-2-244.5c0-4.7-1.3-9.1-3.7-12.9L-5065.9-681.1z"/>
	</g>
	<text transform="matrix(0.6925 0.3675 -0.9204 0.3909 -5538.3125 -941.5472)" class="st2 st6" style="font-size:207.5098px;">BRICK</text>
	<g>
		<path class="st2" d="M-5461.9-672.4l-4.4-2.5v-83.7l-75-43.1v83.7l-4.4-2.5v-175.3l4.4,2.5v85.1l75,43.1v-85.1l4.4,2.5V-672.4z"/>
		<path class="st2" d="M-5366.3-669.8l-57.4-33l-13.1,44.9l-4.8-2.7l43.9-150.1l5.3,3.1l43.9,200.6l-4.8-2.7L-5366.3-669.8z
			 M-5422.1-708.4l54.2,31.1l-24.6-112.9l-2.3-11.2l-0.5-0.3l-2.2,8.6L-5422.1-708.4z"/>
		<path class="st2" d="M-5252.1-605.5l0.2,0.8c0.2,18.1-3.4,29.8-10.9,35c-7.5,5.2-17.4,4.3-29.6-2.8c-12.8-7.4-23.1-20.4-30.9-39
			c-7.7-18.6-11.6-39.4-11.6-62.5v-26.2c0-23,3.9-39.3,11.6-49.1c7.7-9.8,18-10.9,30.9-3.6c12.3,7,22.1,17.5,29.6,31.4
			c7.5,13.9,11.1,29.6,10.9,47.2l-0.2,0.6l-3.7-2.1c0-15.8-3.3-29.9-9.9-42.3c-6.6-12.4-15.5-21.8-26.8-28.3
			c-11.4-6.6-20.7-5.4-27.7,3.5c-7,8.9-10.5,23.9-10.5,44.9v26.5c0,21.3,3.5,40.4,10.5,57.3s16.2,28.6,27.7,35.2
			c11.3,6.5,20.2,7.5,26.8,3c6.6-4.5,9.9-15,9.9-31.6L-5252.1-605.5z"/>
		<path class="st2" d="M-5201.1-608.1l-18-10.3v85.6l-4.4-2.5v-175.3l4.4,2.5v83.3l19.2,11l49.8-54.7l5.2,3l0.2,0.7l-51.5,57.2
			l55.2,118.9l-0.2,0.6l-5.1-2.9L-5201.1-608.1z"/>
	</g>
	
		<text transform="matrix(0.8644 -0.4497 2.387000e-02 0.9997 -5029.9341 -513.3174)" class="st2 st9" style="font-size:150.1444px;">3</text>
	<g>
		<g>
			<path class="st1" d="M-3455-681.1l187.4-87.3c-2.2-3.6-5.4-6.6-9.3-8.7l-494.3-269.3c-6.5-3.5-14.2-3.8-21-0.9l-187.7,79.1
				c-9,3.8-14.9,12.7-14.9,22.5v250.3c0,8.8,4.7,16.9,12.3,21.2l496.1,284.2c3.6,2.1,7.7,3.2,11.7,3.2l1.1-264.9
				C-3473.5-664.3-3466.3-675.7-3455-681.1z"/>
		</g>
		<g>
			<polygon class="st1" points="-3274.8,-489.4 -3274.8,-489.4 -3383.8,-431.6 			"/>
		</g>
		<path class="st2" d="M-3274.8-489.4l1.4-0.7c7.2-3.8,11.6-11.2,11.6-19.3v-1.5C-3261.8-501.9-3266.8-493.6-3274.8-489.4z"/>
		<path class="st2" d="M-3455-681.1c-11.3,5.4-18.6,16.8-18.6,29.4l-1.1,264.9c4.1,0.1,8.2-0.9,11.9-2.8l78.9-41.9l109-57.8
			c8-4.2,13-12.5,13-21.6l-2-244.5c0-4.7-1.3-9.1-3.7-12.9L-3455-681.1z"/>
	</g>
	<g>
		<g>
			<path class="st2" d="M-3455-681.1l187.4-87.3c-2.2-3.6-5.4-6.6-9.3-8.7l-494.3-269.3c-6.5-3.5-14.2-3.8-21-0.9l-187.7,79.1
				c-9,3.8-14.9,12.7-14.9,22.5v250.3c0,8.8,4.7,16.9,12.3,21.2l496.1,284.2c3.6,2.1,7.7,3.2,11.7,3.2l1.1-264.9
				C-3473.5-664.3-3466.3-675.7-3455-681.1z"/>
		</g>
		<g>
			<polygon class="st2" points="-3274.8,-489.4 -3274.8,-489.4 -3383.8,-431.6 			"/>
		</g>
		<path class="st2" d="M-3274.8-489.4l1.4-0.7c7.2-3.8,11.6-11.2,11.6-19.3v-1.5C-3261.8-501.9-3266.8-493.6-3274.8-489.4z"/>
		<path class="st2" d="M-3455-681.1c-11.3,5.4-18.6,16.8-18.6,29.4l-1.1,264.9c4.1,0.1,8.2-0.9,11.9-2.8l78.9-41.9l109-57.8
			c8-4.2,13-12.5,13-21.6l-2-244.5c0-4.7-1.3-9.1-3.7-12.9L-3455-681.1z"/>
	</g>
	<text transform="matrix(0.6925 0.3675 -0.9204 0.3909 -3927.3931 -941.5472)" class="st1 st6" style="font-size:207.5098px;">BRICK</text>
	<g>
		<path class="st1" d="M-3850.9-672.4l-4.4-2.5v-83.7l-75-43.1v83.7l-4.4-2.5v-175.3l4.4,2.5v85.1l75,43.1v-85.1l4.4,2.5V-672.4z"/>
		<path class="st1" d="M-3755.4-669.8l-57.4-33l-13.1,44.9l-4.8-2.7l43.9-150.1l5.3,3.1l43.9,200.6l-4.8-2.7L-3755.4-669.8z
			 M-3811.2-708.4l54.2,31.1l-24.6-112.9l-2.3-11.2l-0.5-0.3l-2.2,8.6L-3811.2-708.4z"/>
		<path class="st1" d="M-3641.1-605.5l0.2,0.8c0.2,18.1-3.4,29.8-10.9,35c-7.5,5.2-17.4,4.3-29.6-2.8c-12.8-7.4-23.1-20.4-30.9-39
			c-7.7-18.6-11.6-39.4-11.6-62.5v-26.2c0-23,3.9-39.3,11.6-49.1c7.7-9.8,18-10.9,30.9-3.6c12.3,7,22.1,17.5,29.6,31.4
			c7.5,13.9,11.1,29.6,10.9,47.2l-0.2,0.6l-3.7-2.1c0-15.8-3.3-29.9-9.9-42.3c-6.6-12.4-15.5-21.8-26.8-28.3
			c-11.4-6.6-20.7-5.4-27.7,3.5c-7,8.9-10.5,23.9-10.5,44.9v26.5c0,21.3,3.5,40.4,10.5,57.3s16.2,28.6,27.7,35.2
			c11.3,6.5,20.2,7.5,26.8,3c6.6-4.5,9.9-15,9.9-31.6L-3641.1-605.5z"/>
		<path class="st1" d="M-3590.2-608.1l-18-10.3v85.6l-4.4-2.5v-175.3l4.4,2.5v83.3l19.2,11l49.8-54.7l5.2,3l0.2,0.7l-51.5,57.2
			l55.2,118.9l-0.2,0.6l-5.1-2.9L-3590.2-608.1z"/>
	</g>
	
		<text transform="matrix(0.8644 -0.4497 2.387000e-02 0.9997 -3411.0273 -512.3165)" class="st1 st9" style="font-size:150.1444px;">3</text>
	<g>
		<g>
			<path class="st1" d="M-2576.8-376.9c-5.8-0.1-11.5-1.7-16.5-4.5l-496.1-284.2c-10.7-6.1-17.3-17.6-17.3-29.9v-250.3
				c0-13.8,8.2-26.3,21-31.7l187.7-79.1c4.3-1.8,8.8-2.7,13.4-2.7c5.6,0,11.2,1.4,16.1,4l492.4,269.4c5.3,2.8,9.8,7,13,12.2
				c3.4,5.5,5.2,11.8,5.2,18.2l2,244.4v1.6c0,11.8-6.5,22.6-16.9,28.2l-1.4,0.7l-185.9,99.6c-5,2.6-10.6,4-16.2,4
				C-2576.4-376.9-2576.6-376.9-2576.8-376.9z"/>
		</g>
		<g>
			<g>
				<path class="st1" d="M-2557-681.1l185.4-87.3c-2.2-3.6-5.4-6.6-9.3-8.7l-492.3-269.3c-6.5-3.5-14.2-3.8-21-0.9l-187.7,79.1
					c-9,3.8-14.9,12.7-14.9,22.5v250.3c0,8.8,4.7,16.9,12.3,21.2l496.1,284.2c3.6,2.1,7.7,3.2,11.7,3.2l1.1-264.9
					C-2575.5-664.3-2568.3-675.7-2557-681.1z"/>
			</g>
			<g>
				<polygon class="st1" points="-2378.8,-489.4 -2378.8,-489.4 -2485.8,-431.6 				"/>
			</g>
			<path class="st2" d="M-2378.8-489.4l1.4-0.7c7.2-3.8,11.6-11.2,11.6-19.3v-1.5C-2365.8-501.9-2370.8-493.6-2378.8-489.4z"/>
			<path class="st2" d="M-2378.8-489.4c8-4.2,13-12.5,13-21.6l-2-244.5c0-4.7-1.3-9.1-3.7-12.9l-185.4,87.3
				c-11.3,5.4-18.6,16.8-18.6,29.4l-1.1,264.9c4.1,0.1,8.2-0.9,11.9-2.8"/>
		</g>
		<path class="st2" d="M-2378.8-489.4c0,0,13-12,13-20.1v-1.5l-2-244.5c0-4.7-1.3-9.1-3.7-12.9c-2.2-3.6-5.4-6.6-9.3-8.7
			l-492.3-269.3c-6.5-3.5-14.2-3.8-21-0.9l-187.7,79.1c-9,3.8-14.9,12.7-14.9,22.5v250.3c0,8.8,4.7,16.9,12.3,21.2l496.1,284.2
			c3.6,2.1,7.7,3.2,11.7,3.2c4.1,0.1,8.2-0.9,11.9-2.8"/>
		<text transform="matrix(0.6925 0.3675 -0.9204 0.3909 -3031.3948 -941.5472)" class="st1 st6" style="font-size:207.5098px;">BRICK</text>
		<g>
			<path class="st1" d="M-2952.9-672.4l-4.4-2.5v-83.7l-75-43.1v83.7l-4.4-2.5v-175.3l4.4,2.5v85.1l75,43.1v-85.1l4.4,2.5V-672.4z"
				/>
			<path class="st1" d="M-2857.4-669.8l-57.4-33l-13.1,44.9l-4.8-2.7l43.9-150.1l5.3,3.1l43.9,200.6l-4.8-2.7L-2857.4-669.8z
				 M-2913.2-708.4l54.2,31.1l-24.6-112.9l-2.3-11.2l-0.5-0.3l-2.2,8.6L-2913.2-708.4z"/>
			<path class="st1" d="M-2743.1-605.5l0.2,0.8c0.2,18.1-3.4,29.8-10.9,35c-7.5,5.2-17.4,4.3-29.6-2.8c-12.8-7.4-23.1-20.4-30.9-39
				c-7.7-18.6-11.6-39.4-11.6-62.5v-26.2c0-23,3.9-39.3,11.6-49.1c7.7-9.8,18-10.9,30.9-3.6c12.3,7,22.1,17.5,29.6,31.4
				c7.5,13.9,11.1,29.6,10.9,47.2l-0.2,0.6l-3.7-2.1c0-15.8-3.3-29.9-9.9-42.3c-6.6-12.4-15.5-21.8-26.8-28.3
				c-11.4-6.6-20.7-5.4-27.7,3.5c-7,8.9-10.5,23.9-10.5,44.9v26.5c0,21.3,3.5,40.4,10.5,57.3s16.2,28.6,27.7,35.2
				c11.3,6.5,20.2,7.5,26.8,3c6.6-4.5,9.9-15,9.9-31.6L-2743.1-605.5z"/>
			<path class="st1" d="M-2692.2-608.1l-18-10.3v85.6l-4.4-2.5v-175.3l4.4,2.5v83.3l19.2,11l49.8-54.7l5.2,3l0.2,0.7l-51.5,57.2
				l55.2,118.9l-0.2,0.6l-5.1-2.9L-2692.2-608.1z"/>
		</g>
		
			<text transform="matrix(0.8644 -0.4497 2.387000e-02 0.9997 -2535.6516 -499.3944)" class="st1 st9" style="font-size:211.5849px;">3</text>
	</g>
	<g>
		<g>
			<g>
				<path class="st1" d="M2653.8-2240.6l124.4-58.6c-1.5-2.4-3.6-4.4-6.2-5.8l-330.4-180.8c-4.4-2.3-9.6-2.5-14.1-0.6l-126,53.1
					c-6.1,2.6-10,8.5-10,15.1v167.9c0,5.9,3.1,11.3,8.3,14.2l333,190.7c2.4,1.4,5.1,2.1,7.9,2.2l0.7-177.7
					C2641.3-2229.4,2646.2-2237,2653.8-2240.6z"/>
			</g>
			<g>
				<polygon class="st1" points="2773.3,-2112 2773.3,-2112 2701.6,-2073.2 				"/>
			</g>
			<path class="st2" d="M2773.3-2112l0.9-0.5c4.8-2.5,7.8-7.5,7.8-13v-1C2782-2120.4,2778.7-2114.8,2773.3-2112z"/>
			<path class="st2" d="M2773.3-2112c5.4-2.8,8.7-8.4,8.7-14.5l-1.3-164.1c0-3.1-0.9-6.1-2.5-8.7l-124.4,58.6
				c-7.6,3.6-12.5,11.3-12.5,19.7l-0.7,177.7c2.7,0,5.5-0.6,8-1.9"/>
		</g>
		<path class="st2" d="M2773.3-2112c0,0,8.7-8,8.7-13.5v-1l-1.3-164.1c0-3.1-0.9-6.1-2.5-8.7c-1.5-2.4-3.6-4.4-6.2-5.8l-330.4-180.8
			c-4.4-2.3-9.6-2.5-14.1-0.6l-126,53.1c-6.1,2.6-10,8.5-10,15.1v167.9c0,5.9,3.1,11.3,8.3,14.2l333,190.7c2.4,1.4,5.1,2.1,7.9,2.2
			c2.7,0,5.5-0.6,8-1.9"/>
		<text transform="matrix(0.6925 0.3675 -0.9204 0.3909 2335.3987 -2415.4363)" class="st1 st6" style="font-size:139.2646px;">BRICK</text>
		<g>
			<path class="st1" d="M2388-2234.8l-2.9-1.7v-56.2l-50.3-28.9v56.2l-2.9-1.7v-117.7l2.9,1.7v57.1l50.3,28.9v-57.1l2.9,1.7V-2234.8
				z"/>
			<path class="st1" d="M2452.2-2233.1l-38.5-22.1l-8.8,30.1l-3.2-1.8l29.4-100.7l3.6,2.1l29.5,134.6l-3.2-1.8L2452.2-2233.1z
				 M2414.7-2259l36.4,20.9l-16.5-75.7l-1.5-7.5l-0.3-0.2l-1.5,5.8L2414.7-2259z"/>
			<path class="st1" d="M2528.8-2189.9l0.1,0.5c0.1,12.1-2.3,20-7.3,23.5c-5,3.5-11.7,2.9-19.9-1.9c-8.6-5-15.5-13.7-20.7-26.2
				c-5.2-12.5-7.8-26.5-7.8-41.9v-17.6c0-15.4,2.6-26.4,7.8-32.9c5.2-6.5,12.1-7.3,20.7-2.4c8.2,4.7,14.9,11.7,19.9,21
				c5,9.3,7.5,19.9,7.3,31.7l-0.1,0.4l-2.5-1.4c0-10.6-2.2-20.1-6.6-28.4c-4.4-8.3-10.4-14.6-18-19c-7.7-4.4-13.9-3.6-18.6,2.3
				c-4.7,6-7,16-7,30.1v17.8c0,14.3,2.3,27.1,7,38.4c4.7,11.3,10.9,19.2,18.6,23.6c7.6,4.4,13.6,5,18,2s6.6-10.1,6.6-21.2
				L2528.8-2189.9z"/>
			<path class="st1" d="M2563-2191.7l-12.1-6.9v57.5l-2.9-1.7v-117.7l2.9,1.7v55.9l12.9,7.4l33.4-36.7l3.5,2l0.1,0.5l-34.6,38.4
				l37.1,79.8l-0.2,0.4l-3.4-2L2563-2191.7z"/>
		</g>
		
			<text transform="matrix(0.8644 -0.4497 2.387000e-02 0.9997 2668.0325 -2118.5994)" class="st1 st9" style="font-size:141.9996px;">3</text>
	</g>
	<g>
		<g>
			<path class="st1" d="M1733.1-2428.3c1.7-2.2,3.9-4,6.6-5.1l129-49.1c4.6-1.9,9.7-1.7,14.1,0.6l326.4,178.7
				c2.6,1.4,4.7,3.4,6.2,5.8c1,1.6,1.7,3.4,2.1,5.2c0.2,1.1,0.4,2.3,0.4,3.4l6.9,108l0.4,51v1c0,0,0,0,0,0c0,5.4-3,10.4-7.8,13
				l-0.9,0.5l0,0l-76.8,41.8l76.8-41.8l-129.8,69.9c-2.5,1.3-5.2,2-8,1.9"/>
			<g>
				<path class="st3" d="M1657.2-2302.3c-1.5-2.4-3.6-4.4-6.2-5.7l-331.4-173.7c-4.4-2.3-9.6-2.5-14.1-0.6l-129,49.1
					c-2.7,1.1-4.9,2.9-6.6,5.1l0,0l338.6,182.5c3.7,2,6.2,5.6,6.9,9.7l0.2-5.9L1657.2-2302.3z"/>
				<path class="st4" d="M1658.7-2180.5l1.1-113c0-1.2-0.1-2.3-0.4-3.4c-0.4-1.9-1.1-3.6-2.1-5.2c0,0,0-0.1-0.1-0.1l-141.6,60.3
					l-0.2,5.9c0.1,0.7,0.2,1.4,0.2,2.2v182.8l0,0c2.7,0,5.5-0.6,8-1.9l124.8-61.9l0.9-0.5c4.8-2.5,7.8-7.5,7.8-13v0v-1
					L1658.7-2180.5z"/>
			</g>
			<path class="st2" d="M2078.8-2242l-345.7-186.3l0,0c-2.2,2.8-3.4,6.3-3.4,10v167.9c0,1.6,0.2,3.1,0.7,4.6c1.2,4,3.9,7.5,7.6,9.7
				l333,190.7c2.4,1.4,5.1,2.1,7.9,2.2l0,0l0,0V-2242z"/>
			<polygon class="st1" points="2216.5,-2115 2216.5,-2115 2139.7,-2073.2 			"/>
			<path class="st3" d="M2216.5-2115l0.9-0.5c4.8-2.5,7.8-7.5,7.8-13v0v-1l-0.4-51l-1.9-111c0-1.2-0.1-2.3-0.4-3.4
				c-0.4-1.9-1.1-3.6-2.1-5.2c-1.5-2.4-3.6-4.4-6.2-5.8l-331.4-175.7c-4.4-2.3-9.6-2.5-14.1-0.6l-129,49.1c-2.7,1.1-4.9,2.9-6.6,5.1
				l0,0l338.6,182.5c4.4,2.4,7.1,6.9,7.1,11.9v190.8l0,0c2.7,0,5.5-0.6,8-1.9L2216.5-2115z"/>
		</g>
		<text transform="matrix(0.6925 0.3675 -0.9204 0.3909 1788.5906 -2423.4426)" class="st1 st6" style="font-size:139.2646px;">BRICK</text>
		<g>
			<path class="st1" d="M1825.2-2224.8l-2.9-1.7v-56.2l-50.3-28.9v56.2l-2.9-1.7v-117.7l2.9,1.7v57.1l50.3,28.9v-57.1l2.9,1.7
				V-2224.8z"/>
			<path class="st1" d="M1889.3-2223.1l-38.5-22.1l-8.8,30.1l-3.2-1.8l29.4-100.7l3.6,2.1l29.5,134.6l-3.2-1.8L1889.3-2223.1z
				 M1851.9-2249l36.4,20.9l-16.5-75.7l-1.5-7.5l-0.3-0.2l-1.5,5.8L1851.9-2249z"/>
			<path class="st1" d="M1966-2179.9l0.1,0.5c0.1,12.1-2.3,20-7.3,23.5c-5,3.5-11.7,2.9-19.9-1.9c-8.6-5-15.5-13.7-20.7-26.2
				c-5.2-12.5-7.8-26.5-7.8-41.9v-17.6c0-15.4,2.6-26.4,7.8-32.9c5.2-6.5,12.1-7.3,20.7-2.4c8.2,4.7,14.9,11.7,19.9,21
				c5,9.3,7.5,19.9,7.3,31.7l-0.1,0.4l-2.5-1.4c0-10.6-2.2-20.1-6.6-28.4c-4.4-8.3-10.4-14.6-18-19c-7.7-4.4-13.9-3.6-18.6,2.3
				c-4.7,6-7,16-7,30.1v17.8c0,14.3,2.3,27.1,7,38.4c4.7,11.3,10.9,19.2,18.6,23.6c7.6,4.4,13.6,5,18,2c4.4-3,6.6-10.1,6.6-21.2
				L1966-2179.9z"/>
			<path class="st1" d="M2000.2-2181.6l-12.1-6.9v57.5l-2.9-1.7v-117.7l2.9,1.7v55.9l12.9,7.4l33.4-36.7l3.5,2l0.1,0.5l-34.6,38.4
				l37.1,79.8l-0.2,0.4l-3.4-2L2000.2-2181.6z"/>
		</g>
		
			<text transform="matrix(0.8644 -0.4497 2.387000e-02 0.9997 2117.2209 -2114.5962)" class="st1 st9" style="font-size:141.9996px;">3</text>
	</g>
	<g>
		<g>
			<path class="st2" d="M1515.6-2242L1170-2428.3l0,0c-2.2,2.8-3.4,6.3-3.4,10v167.9c0,1.6,0.2,3.1,0.7,4.6c1.2,4,3.9,7.5,7.6,9.7
				l333,182.7c2.4,1.4,5.1,2.1,7.9,2.2h0l0,0V-2242z"/>
			<polygon class="st1" points="1648.4,-2115 1648.4,-2115 1576.6,-2073.2 			"/>
		</g>
		<text transform="matrix(0.6925 0.3675 -0.9204 0.3909 1225.4584 -2423.4426)" class="st1 st6" style="font-size:139.2646px;">BRICK</text>
		<g>
			<path class="st1" d="M1262.1-2224.8l-2.9-1.7v-56.2l-50.3-28.9v56.2l-2.9-1.7v-117.7l2.9,1.7v57.1l50.3,28.9v-57.1l2.9,1.7
				V-2224.8z"/>
			<path class="st1" d="M1326.2-2223.1l-38.5-22.1l-8.8,30.1l-3.2-1.8l29.4-100.7l3.6,2.1l29.5,134.6l-3.2-1.8L1326.2-2223.1z
				 M1288.8-2249l36.4,20.9l-16.5-75.7l-1.5-7.5l-0.3-0.2l-1.5,5.8L1288.8-2249z"/>
			<path class="st1" d="M1402.9-2179.9l0.1,0.5c0.1,12.1-2.3,20-7.3,23.5c-5,3.5-11.7,2.9-19.9-1.9c-8.6-5-15.5-13.7-20.7-26.2
				c-5.2-12.5-7.8-26.5-7.8-41.9v-17.6c0-15.4,2.6-26.4,7.8-32.9c5.2-6.5,12.1-7.3,20.7-2.4c8.2,4.7,14.9,11.7,19.9,21
				c5,9.3,7.5,19.9,7.3,31.7l-0.1,0.4l-2.5-1.4c0-10.6-2.2-20.1-6.6-28.4c-4.4-8.3-10.4-14.6-18-19c-7.7-4.4-13.9-3.6-18.6,2.3
				c-4.7,6-7,16-7,30.1v17.8c0,14.3,2.3,27.1,7,38.4c4.7,11.3,10.9,19.2,18.6,23.6c7.6,4.4,13.6,5,18,2c4.4-3,6.6-10.1,6.6-21.2
				L1402.9-2179.9z"/>
			<path class="st1" d="M1437.1-2181.6l-12.1-6.9v57.5l-2.9-1.7v-117.7l2.9,1.7v55.9l12.9,7.4l33.4-36.7l3.5,2l0.1,0.5l-34.6,38.4
				l37.1,79.8l-0.2,0.4l-3.4-2L1437.1-2181.6z"/>
		</g>
		
			<text transform="matrix(0.8644 -0.4497 2.387000e-02 0.9997 1554.0889 -2112.5945)" class="st1 st9" style="font-size:141.9996px;">3</text>
	</g>
	<g>
		<path class="st1" d="M-1693.8-376.9c-5.8-0.1-11.5-1.7-16.5-4.5l-496.1-284.2c-10.7-6.1-17.3-17.6-17.3-29.9v-250.3
			c0-13.8,8.2-26.3,21-31.7l187.7-79.1c4.3-1.8,8.8-2.7,13.4-2.7c5.6,0,11.2,1.4,16.1,4l467.4,256.3c5.3,2.8,9.8,7,13,12.2
			c3.4,5.5,5.2,11.8,5.2,18.2l-1,272.5v1.5c0,11.8-6.5,22.6-16.9,28.2l-1.4,0.7l-157.8,84.6c-5,2.6-10.6,4-16.2,4
			C-1693.4-376.9-1693.6-376.9-1693.8-376.9z"/>
	</g>
	<g>
		<g>
			<path class="st1" d="M-1674-681.1l160.4-100.3c-2.2-3.6-5.4-6.6-9.3-8.7l-467.3-256.3c-6.5-3.5-14.2-3.8-21-0.9l-187.7,79.1
				c-9,3.8-14.9,12.7-14.9,22.5v250.3c0,8.8,4.7,16.9,12.3,21.2l496.1,284.2c3.6,2.1,7.7,3.2,11.7,3.2l1.1-264.9
				C-1692.5-664.3-1685.3-675.7-1674-681.1z"/>
		</g>
		<g>
			<polygon class="st1" points="-1523.9,-474.4 -1523.9,-474.4 -1602.8,-431.6 			"/>
		</g>
		<path class="st2" d="M-1523.9-474.4l1.4-0.7c7.2-3.8,11.6-11.2,11.6-19.3v-1.5C-1510.9-486.9-1515.9-478.6-1523.9-474.4z"/>
		<path class="st2" d="M-1523.9-474.4c8-4.2,13-12.5,13-21.6l1-272.5c0-4.7-1.3-9.1-3.7-12.9L-1674-681.1
			c-11.3,5.4-18.6,16.8-18.6,29.4l-1.1,264.9c4.1,0.1,8.2-0.9,11.9-2.8"/>
	</g>
	<path class="st2" d="M-1523.9-474.4c0,0,13-12,13-20.1v-1.5l1-272.5c0-4.7-1.3-9.1-3.7-12.9c-2.2-3.6-5.4-6.6-9.3-8.7l-467.3-256.3
		c-6.5-3.5-14.2-3.8-21-0.9l-187.7,79.1c-9,3.8-14.9,12.7-14.9,22.5v250.3c0,8.8,4.7,16.9,12.3,21.2l496.1,284.2
		c3.6,2.1,7.7,3.2,11.7,3.2c4.1,0.1,8.2-0.9,11.9-2.8"/>
	<text transform="matrix(0.6925 0.3675 -0.9204 0.3909 -2153.3984 -936.5432)" class="st1 st6" style="font-size:207.5098px;">BRICK</text>
	<g>
		<path class="st1" d="M-2076-666.4l-4.4-2.5v-83.7l-75-43.1v83.7l-4.4-2.5v-175.3l4.4,2.5v85.1l75,43.1v-85.1l4.4,2.5V-666.4z"/>
		<path class="st1" d="M-1980.4-663.8l-57.4-33l-13.1,44.9l-4.8-2.7l43.9-150.1l5.3,3.1l43.9,200.6l-4.8-2.7L-1980.4-663.8z
			 M-2036.2-702.4l54.2,31.1l-24.6-112.9l-2.3-11.2l-0.5-0.3l-2.2,8.6L-2036.2-702.4z"/>
		<path class="st1" d="M-1866.2-599.5l0.2,0.8c0.2,18.1-3.4,29.8-10.9,35s-17.4,4.3-29.6-2.8c-12.8-7.4-23.1-20.4-30.9-39
			s-11.6-39.4-11.6-62.5v-26.2c0-23,3.9-39.3,11.6-49.1s18-10.9,30.9-3.6c12.3,7,22.1,17.5,29.6,31.4s11.1,29.6,10.9,47.2l-0.2,0.6
			l-3.7-2.1c0-15.8-3.3-29.9-9.9-42.3s-15.5-21.8-26.8-28.3c-11.4-6.6-20.7-5.4-27.7,3.5c-7,8.9-10.5,23.9-10.5,44.9v26.5
			c0,21.3,3.5,40.4,10.5,57.3c7,16.9,16.2,28.6,27.7,35.2c11.3,6.5,20.2,7.5,26.8,3c6.6-4.5,9.9-15,9.9-31.6L-1866.2-599.5z"/>
		<path class="st1" d="M-1815.2-602.1l-18-10.3v85.6l-4.4-2.5v-175.3l4.4,2.5v83.3l19.2,11l49.8-54.7l5.2,3l0.2,0.7l-51.5,57.2
			l55.2,118.9l-0.2,0.6l-5.1-2.9L-1815.2-602.1z"/>
	</g>
	
		<text transform="matrix(0.8644 -0.4497 2.387000e-02 0.9997 -1671.6667 -495.3911)" class="st1 st9" style="font-size:211.5849px;">3</text>
	<g>
		<path class="st1" d="M-3051.3,853.2c-5.8-0.1-11.5-1.7-16.5-4.5L-3564,564.5c-10.7-6.1-17.3-17.6-17.3-29.9V284.4
			c0-13.8,8.2-26.3,21-31.7l187.7-79.1c4.3-1.8,8.8-2.7,13.4-2.7c5.6,0,11.2,1.4,16.1,4l467.4,256.3c5.3,2.8,9.8,7,13,12.2
			c3.4,5.5,5.2,11.8,5.2,18.2l-1,272.5v1.5c0,11.8-6.5,22.6-16.9,28.2l-1.4,0.7l-157.8,84.6c-5,2.6-10.6,4-16.2,4
			C-3050.9,853.3-3051.1,853.3-3051.3,853.2z"/>
	</g>
	<g>
		<g>
			<path class="st1" d="M-3031.5,549l160.4-100.3c-2.2-3.6-5.4-6.6-9.3-8.7l-467.3-256.3c-6.5-3.5-14.2-3.8-21-0.9l-187.7,79.1
				c-9,3.8-14.9,12.7-14.9,22.5v250.3c0,8.8,4.7,16.9,12.3,21.2l496.1,284.2c3.6,2.1,7.7,3.2,11.7,3.2l1.1-264.9
				C-3050.1,565.8-3042.8,554.4-3031.5,549z"/>
		</g>
		<g>
			<polygon class="st1" points="-2881.4,755.8 -2881.4,755.8 -2960.3,798.5 			"/>
		</g>
		<path class="st2" d="M-2881.4,755.8l1.4-0.7c7.2-3.8,11.6-11.2,11.6-19.3v-1.5C-2868.4,743.2-2873.4,751.5-2881.4,755.8z"/>
		<path class="st2" d="M-2881.4,755.8c8-4.2,13-12.5,13-21.6l1-272.5c0-4.7-1.3-9.1-3.7-12.9L-3031.5,549
			c-11.3,5.4-18.6,16.8-18.6,29.4l-1.1,264.9c4.1,0.1,8.2-0.9,11.9-2.8"/>
	</g>
	<path class="st2" d="M-2881.4,755.8c0,0,13-12,13-20.1v-1.5l1-272.5c0-4.7-1.3-9.1-3.7-12.9c-2.2-3.6-5.4-6.6-9.3-8.7l-467.3-256.3
		c-6.5-3.5-14.2-3.8-21-0.9l-187.7,79.1c-9,3.8-14.9,12.7-14.9,22.5v250.3c0,8.8,4.7,16.9,12.3,21.2l496.1,284.2
		c3.6,2.1,7.7,3.2,11.7,3.2c4.1,0.1,8.2-0.9,11.9-2.8"/>
	<text transform="matrix(0.6925 0.3675 -0.9204 0.3909 -3510.938 293.5798)" class="st1 st6" style="font-size:207.5098px;">BRICK</text>
	<path class="st1" d="M-3433.5,563.7l-4.4-2.5v-83.7l-75-43.1v83.7l-4.4-2.5V340.3l4.4,2.5V428l75,43.1v-85.1l4.4,2.5V563.7z"/>
	<path class="st1" d="M-3337.9,566.3l-57.4-33l-13.1,44.9l-4.8-2.7l43.9-150.1l5.3,3.1L-3320,629l-4.8-2.7L-3337.9,566.3z
		 M-3393.7,527.7l54.2,31.1l-24.6-112.9l-2.3-11.2l-0.5-0.3l-2.2,8.6L-3393.7,527.7z"/>
	<path class="st1" d="M-3223.7,630.6l0.2,0.8c0.2,18.1-3.4,29.8-10.9,35c-7.5,5.2-17.4,4.3-29.6-2.8c-12.8-7.4-23.1-20.4-30.9-39
		c-7.7-18.6-11.6-39.4-11.6-62.5v-26.2c0-23,3.9-39.3,11.6-49.1c7.7-9.8,18-10.9,30.9-3.6c12.3,7,22.1,17.5,29.6,31.4
		c7.5,13.9,11.1,29.6,10.9,47.2l-0.2,0.6l-3.7-2.1c0-15.8-3.3-29.9-9.9-42.3c-6.6-12.4-15.5-21.8-26.8-28.3
		c-11.4-6.6-20.7-5.4-27.7,3.5s-10.5,23.9-10.5,44.9v26.5c0,21.3,3.5,40.4,10.5,57.3s16.2,28.6,27.7,35.2c11.3,6.5,20.2,7.5,26.8,3
		c6.6-4.5,9.9-15,9.9-31.6L-3223.7,630.6z"/>
	<path class="st1" d="M-3172.7,628l-18-10.3v85.6l-4.4-2.5V525.5l4.4,2.5v83.3l19.2,11l49.8-54.7l5.2,3l0.2,0.7l-51.5,57.2
		l55.2,118.9l-0.2,0.6l-5.1-2.9L-3172.7,628z"/>
	<g>
		<path class="st1" d="M-3272.4,1373.4l-4.4-2.5v-83.7l-75-43.1v83.7l-4.4-2.5V1150l4.4,2.5v85.1l75,43.1v-85.1l4.4,2.5V1373.4z"/>
		<path class="st1" d="M-3176.9,1375.9l-57.4-33l-13.1,44.9l-4.8-2.7l43.9-150.1l5.3,3.1l43.9,200.6l-4.8-2.7L-3176.9,1375.9z
			 M-3232.7,1337.4l54.2,31.1l-24.6-112.9l-2.3-11.2l-0.5-0.3l-2.2,8.6L-3232.7,1337.4z"/>
		<path class="st1" d="M-3062.6,1440.3l0.2,0.8c0.2,18.1-3.4,29.8-10.9,35c-7.5,5.2-17.4,4.3-29.6-2.8c-12.8-7.4-23.1-20.4-30.9-39
			s-11.6-39.4-11.6-62.5v-26.2c0-23,3.9-39.3,11.6-49.1c7.7-9.8,18-10.9,30.9-3.6c12.3,7,22.1,17.5,29.6,31.4
			c7.5,13.9,11.1,29.6,10.9,47.2l-0.2,0.6l-3.7-2.1c0-15.8-3.3-29.9-9.9-42.3s-15.5-21.8-26.8-28.3c-11.4-6.6-20.7-5.4-27.7,3.5
			c-7,8.9-10.5,23.9-10.5,44.9v26.5c0,21.3,3.5,40.4,10.5,57.3c7,16.9,16.2,28.6,27.7,35.2c11.3,6.5,20.2,7.5,26.8,3
			c6.6-4.5,9.9-15,9.9-31.6L-3062.6,1440.3z"/>
		<path class="st1" d="M-3011.7,1437.7l-18-10.3v85.6l-4.4-2.5v-175.3l4.4,2.5v83.3l19.2,11l49.8-54.7l5.2,3l0.2,0.7l-51.5,57.2
			l55.2,118.9l-0.2,0.6l-5.1-2.9L-3011.7,1437.7z"/>
	</g>
	<text transform="matrix(0.8644 -0.4497 2.387000e-02 0.9997 -3029.207 734.7319)" class="st1 st9" style="font-size:211.5849px;">4</text>
	<g>
		<path class="st1" d="M-1808.6,853.2c-5.8-0.1-11.5-1.7-16.5-4.5l-496.2-287.2c-10.6-6.1-17.3-17.6-17.3-29.9V284.4
			c0-13.8,8.2-26.3,21-31.7l187.7-79.1c4.3-1.8,8.8-2.7,13.4-2.7c5.6,0,11.2,1.4,16.1,4l0.3,0.1l467.2,266.2
			c5.3,2.8,9.7,7,12.9,12.1c3.4,5.5,5.2,11.8,5.2,18.2l-1,262.5v1.5c0,11.8-6.5,22.6-16.9,28.2l-1.4,0.7l-157.8,84.6
			c-5,2.6-10.6,4-16.2,4C-1808.2,853.3-1808.4,853.2-1808.6,853.2z"/>
	</g>
	<g>
		<g>
			<path class="st1" d="M-1788.7,549l160.4-90.3c-2.2-3.6-5.4-6.6-9.3-8.7L-2105,183.7c-6.5-3.5-14.2-3.8-21-0.9l-187.7,79.1
				c-9,3.8-14.9,12.7-14.9,22.5v247.3c0,8.8,4.7,16.9,12.3,21.2l496.1,287.2c3.6,2.1,7.7,3.2,11.7,3.2l1.1-264.9
				C-1807.3,565.8-1800.1,554.4-1788.7,549z"/>
		</g>
		<g>
			<polygon class="st1" points="-1638.6,755.8 -1638.6,755.8 -1717.6,798.5 			"/>
		</g>
		<path class="st2" d="M-1638.6,755.8l1.4-0.7c7.2-3.8,11.6-11.2,11.6-19.3v-1.5C-1625.6,743.2-1630.6,751.5-1638.6,755.8z"/>
		<path class="st2" d="M-1638.6,755.8c8-4.2,13-12.5,13-21.6l1-262.5c0-4.7-1.3-9.1-3.7-12.9l-160.4,90.3
			c-11.3,5.4-18.6,16.8-18.6,29.4l-1.1,264.9c4.1,0.1,8.2-0.9,11.9-2.8"/>
	</g>
	<path class="st2" d="M-1638.6,755.8c0,0,13-12,13-20.1v-1.5l1-262.5c0-4.7-1.3-9.1-3.7-12.9c-2.2-3.6-5.4-6.6-9.3-8.7L-2105,183.7
		c-6.5-3.5-14.2-3.8-21-0.9l-187.7,79.1c-9,3.8-14.9,12.7-14.9,22.5v247.3c0,8.8,4.7,16.9,12.3,21.2l496.1,287.2
		c3.6,2.1,7.7,3.2,11.7,3.2c4.1,0.1,8.2-0.9,11.9-2.8"/>
	<text transform="matrix(0.6865 0.3985 -0.9125 0.409 -2264.3279 290.6024)" class="st1 st6" style="font-size:201.5666px;">BRICK</text>
	<text transform="matrix(0.8644 -0.4497 2.387000e-02 0.9997 -1786.4507 734.7319)" class="st1 st9" style="font-size:211.5849px;">4</text>
	<text transform="matrix(0.6424 0.3727 0 1 -3372.895 1313.6116)" class="st5 st9" style="font-size:243.8472px;">HACK</text>
	<text transform="matrix(0.6417 0.3727 0 1 -2293.5769 504.8638)" class="st1 st9 st11">HACK</text>
	<g>
		<path class="st1" d="M-589.1,841.2c-5.8-0.1-11.5-1.7-16.5-4.5l-496.2-287.2c-10.6-6.1-17.3-17.6-17.3-29.9V272.3
			c0-13.8,8.2-26.3,21-31.7l187.7-79.1c4.3-1.8,8.8-2.7,13.4-2.7c5.6,0,11.2,1.4,16.1,4l0.3,0.1l467.2,266.2
			c5.3,2.8,9.7,7,12.9,12.1c3.4,5.5,5.2,11.8,5.2,18.2l-1,262.5v1.5c0,11.8-6.5,22.6-16.9,28.2l-1.4,0.7l-157.8,84.6
			c-5,2.6-10.6,4-16.2,4C-588.7,841.2-588.9,841.2-589.1,841.2z"/>
	</g>
	<g>
		<g>
			<path class="st1" d="M-569.3,537l160.4-90.3c-2.2-3.6-5.4-6.6-9.3-8.7l-467.3-266.3c-6.5-3.5-14.2-3.8-21-0.9l-187.7,79.1
				c-9,3.8-14.9,12.7-14.9,22.5v247.3c0,8.8,4.7,16.9,12.3,21.2L-600.6,828c3.6,2.1,7.7,3.2,11.7,3.2l1.1-264.9
				C-587.8,553.8-580.6,542.4-569.3,537z"/>
		</g>
		<g>
			<polygon class="st1" points="-419.2,743.7 -419.2,743.7 -498.1,786.5 			"/>
		</g>
		<path class="st2" d="M-419.2,743.7l1.4-0.7c7.2-3.8,11.6-11.2,11.6-19.3v-1.5C-406.2,731.1-411.2,739.4-419.2,743.7z"/>
		<path class="st2" d="M-419.2,743.7c8-4.2,13-12.5,13-21.6l1-262.5c0-4.7-1.3-9.1-3.7-12.9L-569.3,537
			c-11.3,5.4-18.6,16.8-18.6,29.4l-1.1,264.9c4.1,0.1,8.2-0.9,11.9-2.8"/>
	</g>
	<path class="st2" d="M-419.2,743.7c0,0,13-12,13-20.1v-1.5l1-262.5c0-4.7-1.3-9.1-3.7-12.9c-2.2-3.6-5.4-6.6-9.3-8.7l-467.3-266.3
		c-6.5-3.5-14.2-3.8-21-0.9l-187.7,79.1c-9,3.8-14.9,12.7-14.9,22.5v247.3c0,8.8,4.7,16.9,12.3,21.2l496.1,287.2
		c3.6,2.1,7.7,3.2,11.7,3.2c4.1,0.1,8.2-0.9,11.9-2.8L-419.2,743.7z"/>
	<text transform="matrix(0.6887 0.392 -0.9155 0.4023 -1036.0354 271.9505)" class="st1 st6 st7">BRICK</text>
	<text transform="matrix(0.8644 -0.4497 2.387000e-02 0.9997 -573.7971 745.0363)" class="st1 st9 st10">4</text>
	<text transform="matrix(0.6417 0.3727 0 1 -1073.9651 495.0067)" class="st1 st9 st11">HACK</text>
	<g>
		<path class="st1" d="M668,841.2c-5.8-0.1-11.5-1.7-16.5-4.5L155.3,549.4c-10.6-6.1-17.3-17.6-17.3-29.9V272.3
			c0-13.8,8.2-26.3,21-31.7l187.7-79.1c4.3-1.8,8.8-2.7,13.4-2.7c5.6,0,11.2,1.4,16.1,4l0.3,0.1l467.2,266.2
			c5.3,2.8,9.8,7,12.9,12.1c3.4,5.5,5.2,11.8,5.2,18.2l-1,262.5v1.5c0,11.8-6.5,22.6-16.9,28.2l-1.4,0.7l-157.8,84.6
			c-5,2.6-10.6,4-16.2,4C668.4,841.2,668.2,841.2,668,841.2z"/>
	</g>
	<g>
		<g>
			<path class="st1" d="M687.9,537l160.4-90.3c-2.2-3.6-5.4-6.6-9.3-8.7L371.6,171.7c-6.5-3.5-14.2-3.8-21-0.9l-187.7,79.1
				c-9,3.8-14.9,12.7-14.9,22.5v247.3c0,8.8,4.7,16.9,12.3,21.2L656.5,828c3.6,2.1,7.7,3.2,11.7,3.2l1.1-264.9
				C669.3,553.8,676.5,542.4,687.9,537z"/>
		</g>
		<g>
			<polygon class="st1" points="838,743.7 838,743.7 759,786.5 			"/>
		</g>
		<path class="st2" d="M838,743.7l1.4-0.7c7.2-3.8,11.6-11.2,11.6-19.3v-1.5C851,731.1,846,739.4,838,743.7z"/>
		<path class="st2" d="M838,743.7c8-4.2,13-12.5,13-21.6l1-262.5c0-4.7-1.3-9.1-3.7-12.9L687.9,537c-11.3,5.4-18.6,16.8-18.6,29.4
			l-1.1,264.9c4.1,0.1,8.2-0.9,11.9-2.8"/>
	</g>
	<path class="st2" d="M838,743.7c0,0,13-12,13-20.1v-1.5l1-262.5c0-4.7-1.3-9.1-3.7-12.9c-2.2-3.6-5.4-6.6-9.3-8.7L371.6,171.7
		c-6.5-3.5-14.2-3.8-21-0.9l-187.7,79.1c-9,3.8-14.9,12.7-14.9,22.5v247.3c0,8.8,4.7,16.9,12.3,21.2l496.1,287.2
		c3.6,2.1,7.7,3.2,11.7,3.2c4.1,0.1,8.2-0.9,11.9-2.8L838,743.7z"/>
	<text transform="matrix(0.6887 0.392 -0.9155 0.4023 221.0903 271.9505)" class="st1 st6 st7">BRICK</text>
	<path class="st8" d="M836.9,743.7c8-4.2,13-12.5,13-21.6l1-262.5c0-4.7-1.3-9.1-3.7-12.9L686.8,537c-11.3,5.4-18.6,16.8-18.6,29.4
		l-1.1,264.9c4.1,0.1,8.2-0.9,11.9-2.8L836.9,743.7z"/>
	<text transform="matrix(0.8644 -0.4497 2.387000e-02 0.9997 703.9952 765.1834)" class="st1 st9 st10">4</text>
	<text transform="matrix(0.6417 0.3727 0 1 183.1606 495.0067)" class="st1 st9 st11">HACK</text>
</g>
</svg>
