<?xml version="1.0" encoding="utf-8"?>
<!-- Generator: Adobe Illustrator 19.0.0, SVG Export Plug-In . SVG Version: 6.00 Build 0)  -->
<svg version="1.1" id="Layer_1" xmlns="http://www.w3.org/2000/svg" xmlns:xlink="http://www.w3.org/1999/xlink" x="0px" y="0px"
	 viewBox="0 0 691.3 503.2" style="enable-background:new 0 0 691.3 503.2;" xml:space="preserve">
<style type="text/css">
	.st0{font-family:'Helvetica-Bold';}
	.st1{font-size:14.0677px;}
	.st2{font-family:'HelveticaNeue-Medium';}
	.st3{font-size:22.9498px;}
	.st4{fill:none;stroke:#F15A29;stroke-width:4;stroke-miterlimit:10;}
	.st5{fill:none;stroke:#00AEEF;stroke-miterlimit:10;}
	.st6{fill:#00AEEF;}
	.st7{fill:none;stroke:#00AEEF;stroke-width:1.5;stroke-miterlimit:10;}
	.st8{fill:none;stroke:#00AEEF;stroke-width:2;stroke-miterlimit:10;}
	.st9{font-size:12px;}
	.st10{fill:none;stroke:#000000;stroke-miterlimit:10;}
	.st11{fill:#F15A29;}
	.st12{fill:none;}
	.st13{fill:none;stroke:#009444;stroke-miterlimit:10;}
	.st14{fill:#FFFFFF;}
	.st15{fill:#8DC63F;}
	.st16{fill:none;stroke:#8DC63F;stroke-width:2;stroke-miterlimit:10;}
	.st17{fill:none;stroke:#F15A29;stroke-width:4;stroke-linecap:round;stroke-miterlimit:10;}
	.st18{fill:#00A651;}
	.st19{fill:none;stroke:#F7941E;stroke-miterlimit:10;}
	.st20{fill:#F7941E;}
	.st21{fill:none;stroke:#662D91;stroke-miterlimit:10;}
	.st22{fill:#662D91;}
	.st23{fill:#ED1C24;}
</style>
<text transform="matrix(1 0 0 1 307.602 307.2509)"><tspan x="0" y="0" class="st0 st1">Game </tspan><tspan x="0" y="16.9" class="st0 st1">Room</tspan></text>
<text transform="matrix(1 0 0 1 341.8365 430.3461)" class="st2 st3">Downstairs</text>
<path class="st4" d="M459,491.2H242.9c-6.6,0-12-5.4-12-12V280.8c0-6.6,5.4-12,12-12H459c6.6,0,12,5.4,12,12v198.4
	C471,485.8,465.6,491.2,459,491.2z"/>
<g>
	<path class="st5" d="M288.3,418.3H316c0.9,0,1.7-0.7,1.7-1.7l0,0c0-0.9-0.7-1.7-1.7-1.7h-27.8c-0.9,0-1.7,0.7-1.7,1.7l0,0
		C286.6,417.5,287.4,418.3,288.3,418.3z"/>
	<path class="st6" d="M323.9,394.9l-10.4,15.2c-0.4,0.6-1.2,0.7-1.8,0.3v0c-0.6-0.4-0.7-1.2-0.3-1.8l10.4-15.2
		c0.4-0.6,1.2-0.7,1.8-0.3l0,0C324.2,393.5,324.3,394.3,323.9,394.9z"/>
	<path class="st6" d="M310.9,413.8h-18.4c-0.7,0-1.3-0.6-1.3-1.3l0,0c0-0.7,0.6-1.3,1.3-1.3h18.4c0.7,0,1.3,0.6,1.3,1.3l0,0
		C312.1,413.3,311.6,413.8,310.9,413.8z"/>
	<path class="st7" d="M296.1,409.1l-19.6-1.6c-1.9-0.2-3.4-1.8-3.2-3.8v0c0.2-1.9,1.8-3.4,3.8-3.2l19.6,1.6c1.9,0.2,3.4,1.8,3.2,3.8
		l0,0C299.7,407.8,298,409.3,296.1,409.1z"/>
	<path class="st8" d="M283.7,408.1c-0.6,10.9-1.3,23.2-1.3,23.2c0,0-18.3,0-18.3,0c0,0,1.1-19.8,1.8-31.5c0.3-5,4.6-8.9,9.7-8.6l0,0
		c5,0.3,8.9,4.6,8.6,9.7"/>
	<circle class="st8" cx="280.6" cy="378.4" r="10.6"/>
</g>
<g>
	<path class="st5" d="M99.3,201.2h35.7c1.2,0,2.1-1,2.1-2.1l0,0c0-1.2-1-2.1-2.1-2.1H99.3c-1.2,0-2.1,1-2.1,2.1l0,0
		C97.2,200.2,98.2,201.2,99.3,201.2z"/>
	<path class="st6" d="M145.2,171.1l-13.4,19.5c-0.5,0.7-1.5,0.9-2.3,0.4l0,0c-0.7-0.5-0.9-1.5-0.4-2.3l13.4-19.5
		c0.5-0.7,1.5-0.9,2.3-0.4l0,0C145.5,169.3,145.7,170.3,145.2,171.1z"/>
	<path class="st6" d="M128.4,195.4h-23.7c-0.9,0-1.6-0.7-1.6-1.6l0,0c0-0.9,0.7-1.6,1.6-1.6h23.7c0.9,0,1.6,0.7,1.6,1.6l0,0
		C130.1,194.7,129.3,195.4,128.4,195.4z"/>
	<path class="st7" d="M109.4,189.4l-25.2-2c-2.5-0.2-4.3-2.4-4.1-4.8v0c0.2-2.5,2.4-4.3,4.8-4.1l25.2,2c2.5,0.2,4.3,2.4,4.1,4.8h0
		C114.1,187.8,111.9,189.6,109.4,189.4z"/>
	<path class="st8" d="M93.5,188.1c-0.8,14-1.7,29.9-1.7,29.9c0,0-23.5,0-23.5,0c0,0,1.4-25.5,2.3-40.5c0.4-6.5,6-11.5,12.5-11.1h0
		c6.5,0.4,11.5,6,11.1,12.5"/>
	<circle class="st8" cx="89.5" cy="149.9" r="13.6"/>
</g>
<text transform="matrix(1 0 0 1 600.8187 326.1313)" class="st2 st9">Hacktivities</text>
<text transform="matrix(1 0 0 1 524.0369 326.1314)" class="st2 st9">Food</text>
<text transform="matrix(1 0 0 1 253.3785 446.2387)"><tspan x="0" y="0" class="st2 st9">Hacking Room</tspan><tspan x="37.6" y="14.4" class="st2 st9">2</tspan></text>
<text transform="matrix(1 0 0 1 51.3495 239.6288)" class="st2 st9">Main Hacking Room</text>
<text transform="matrix(1 0 0 1 540.9802 75.6609)" class="st2 st9">Quiet Rooms</text>
<g>
	<rect x="409.3" y="280.2" class="st10" width="42.7" height="61.2"/>
	<line class="st10" x1="409.3" y1="341.4" x2="409.3" y2="395.7"/>
	<line class="st10" x1="373.4" y1="395.7" x2="409.3" y2="395.7"/>
	<path class="st10" d="M376.5,326.1"/>
	<polyline class="st10" points="376.5,326.1 376.5,341.4 249.8,341.4 249.8,280.2 376.5,280.2 376.5,312.9 	"/>
	<path class="st10" d="M338.5,361"/>
	<polyline class="st10" points="338.5,361 338.5,479.8 249.8,479.8 249.8,341.4 338.5,341.4 	"/>
</g>
<line class="st10" x1="572.1" y1="109.8" x2="570.9" y2="181.5"/>
<line class="st10" x1="550" y1="92.6" x2="490.8" y2="119.7"/>
<line class="st10" x1="529.8" y1="61.3" x2="490.8" y2="80.2"/>
<path class="st10" d="M681.5,32.2c0,27.7-13.3,52.5-34.2,69"/>
<path class="st10" d="M601.2,121.1c-5.1-1-10.2-2.5-15.2-4.4c-42.8-16-68-57.7-62.5-98.9"/>
<line class="st10" x1="647.3" y1="181.5" x2="647.3" y2="101.2"/>
<line class="st10" x1="659.5" y1="181.5" x2="647.3" y2="181.5"/>
<line class="st10" x1="602.2" y1="181.5" x2="602" y2="120.9"/>
<rect x="547.5" y="215.7" class="st10" width="33.8" height="35"/>
<rect x="490.8" y="215.7" class="st10" width="35" height="35"/>
<line class="st10" x1="213.3" y1="181.5" x2="173.7" y2="181.5"/>
<line class="st10" x1="173.7" y1="181.5" x2="173.7" y2="46.5"/>
<polyline class="st10" points="338.4,360.8 373.3,360.8 373.3,395.7 338.4,395.7 338.4,360.8 "/>
<polyline class="st10" points="173.7,197.7 213.3,197.7 213.3,237.3 173.7,237.3 173.7,197.7 "/>
<polyline class="st10" points="213.3,197.7 213.3,329.3 36.9,329.3 36.9,46.5 213.3,46.5 213.3,181.5 "/>
<polyline class="st10" points="300.8,46.5 300.8,25.4 36.9,25.4 36.9,46.5 213.3,46.5 "/>
<line class="st10" x1="300.8" y1="46.5" x2="300.8" y2="181.5"/>
<line class="st10" x1="213.3" y1="181.5" x2="213.3" y2="46.5"/>
<path class="st10" d="M213.3,181.5"/>
<polygon class="st11" points="230.9,277.4 204.9,233.4 240.6,266.7 "/>
<polyline class="st10" points="300.8,237.3 213.3,237.3 213.3,197.7 "/>
<line class="st10" x1="300.8" y1="181.5" x2="434.9" y2="181.5"/>
<polyline class="st10" points="466,215.5 466,237.3 300.8,237.3 "/>
<polyline class="st10" points="434.9,181.4 300.8,181.4 300.8,17.7 466,17.7 466,181.4 "/>
<polyline class="st10" points="466,215.5 466,237.3 383.4,237.3 383.4,215.5 466,215.5 "/>
<rect x="490.8" y="215.5" class="st10" width="90.5" height="119.9"/>
<polyline class="st10" points="659.5,181.5 681.5,181.5 681.5,335.4 581.3,335.4 581.3,219.4 "/>
<line class="st10" x1="581.3" y1="181.5" x2="602.2" y2="181.5"/>
<polyline class="st10" points="490.8,32.2 490.8,181.5 598.7,181.5 "/>
<polyline class="st10" points="681.5,32.2 681.5,17.9 490.8,17.9 490.8,32.2 "/>
<polyline class="st10" points="659.5,181.5 681.5,181.5 681.5,32.2 "/>
<line class="st10" x1="598.7" y1="181.5" x2="602.2" y2="181.5"/>
<line class="st10" x1="466" y1="237.3" x2="466" y2="262.9"/>
<line class="st10" x1="466" y1="262.9" x2="490.8" y2="262.9"/>
<line class="st10" x1="466" y1="17.9" x2="490.8" y2="17.9"/>
<g>
	<path class="st12" d="M545.2,260.8c4.7,0,9.4,0,14.1,0c0,15.4,0,30.8,0,46.3c-15.4,0-30.8,0-46.2,0c0-15.4,0-30.8,0-46.3
		c3.8,0,7.7,0,11.5,0c-0.4,0.3-0.6,0.7-0.5,1.1c0,0.7,0,1.4,0,2c0,3.9,0,7.8,0,11.7c0,1.7,1.2,3.1,2.7,3.2c0.4,0,0.5,0.2,0.5,0.6
		c0,8.1,0,16.3,0,24.4c0,0.3,0,0.5,0,0.8c0.1,1.2,1,2.1,2.1,2.2c1.2,0.2,2.3-0.5,2.6-1.6c0.1-0.4,0.2-0.9,0.2-1.3
		c0-8.1,0-16.3,0-24.4c0-0.2,0-0.4,0-0.6c0.1,0,0.2-0.1,0.3-0.1c1.8-0.3,2.9-1.6,2.9-3.4c0-4.6,0-9.1,0-13.7c0-0.5-0.1-0.9-0.6-1.1
		c3.1,0,6.1,0,9.2,0c-0.6,0.3-1.2,0.5-1.7,0.8c-1.1,0.9-1.5,2.1-1.5,3.5c0,7.7,0,15.4,0,23c0,0.2,0,0.3,0,0.5c0.9,0,1.8,0,2.6,0
		c0,0.3,0,0.4,0,0.6c0,4.9,0,9.8,0,14.7c0,0.3,0,0.5,0.1,0.8c0.2,1.2,1.1,2,2.2,2.1c1.3,0.1,2.3-0.7,2.6-1.9
		c0.1-0.3,0.1-0.6,0.1-0.8c0-13,0-26,0-39c0-0.2,0-0.3,0-0.5c-0.1-1.1-0.4-2.2-1.4-2.9C546.5,261.3,545.8,261.1,545.2,260.8z"/>
	<path class="st13" d="M545.2,260.8c0.6,0.3,1.3,0.5,1.8,0.9c0.9,0.7,1.3,1.7,1.4,2.9c0,0.2,0,0.3,0,0.5c0,13,0,26,0,39
		c0,0.3,0,0.6-0.1,0.8c-0.3,1.3-1.2,2-2.6,1.9c-1.1,0-2.1-0.9-2.2-2.1c0-0.3-0.1-0.5-0.1-0.8c0-4.9,0-9.8,0-14.7c0-0.2,0-0.4,0-0.6
		c-0.9,0-1.7,0-2.6,0c0-0.2,0-0.4,0-0.5c0-7.7,0-15.4,0-23c0-1.4,0.3-2.6,1.5-3.5c0.5-0.4,1.1-0.6,1.7-0.8
		C544.4,260.8,544.8,260.8,545.2,260.8z"/>
	<path class="st13" d="M534.8,260.8c0.4,0.3,0.6,0.6,0.6,1.1c0,4.6,0,9.1,0,13.7c0,1.8-1.1,3.1-2.9,3.4c-0.1,0-0.1,0-0.3,0.1
		c0,0.2,0,0.4,0,0.6c0,8.1,0,16.3,0,24.4c0,0.4,0,0.9-0.2,1.3c-0.4,1.1-1.5,1.8-2.6,1.6c-1.1-0.1-2-1.1-2.1-2.2c0-0.3,0-0.5,0-0.8
		c0-8.1,0-16.3,0-24.4c0-0.4-0.1-0.6-0.5-0.6c-1.5-0.2-2.7-1.6-2.7-3.2c0-3.9,0-7.8,0-11.7c0-0.7,0-1.4,0-2c0-0.5,0.1-0.9,0.5-1.1
		c0.2,0,0.5,0,0.7,0c0.4,0.3,0.5,0.7,0.5,1.2c0,3.2,0,6.3,0,9.5c0,0.2,0,0.4,0,0.5c0.5,0,2.2,0,2.7,0c0-0.2,0-0.4,0-0.6
		c0-3.2,0-6.4,0-9.6c0-0.5,0.1-0.8,0.5-1.1c0.2,0,1.2,0,1.4,0c0.4,0.3,0.5,0.7,0.5,1.2c0,3.2,0,6.3,0,9.5c0,0.2,0,0.3,0,0.5
		c0.5,0,2.1,0,2.6,0c0-0.2,0-0.4,0-0.6c0-3.2,0-6.3,0-9.5c0-0.5,0.1-0.9,0.5-1.1C534.4,260.8,534.6,260.8,534.8,260.8z"/>
	<path class="st12" d="M534.1,260.8c-0.4,0.3-0.5,0.6-0.5,1.1c0,3.2,0,6.3,0,9.5c0,0.2,0,0.4,0,0.6c-0.5,0-1,0-1.5,0
		c0-0.2,0-0.4,0-0.5c0-3.2,0-6.3,0-9.5c0-0.5-0.1-0.9-0.5-1.2C532.5,260.8,533.3,260.8,534.1,260.8z"/>
	<path class="st12" d="M527.8,260.8c-0.5,0.2-0.6,0.6-0.6,1.1c0,3.2,0,6.3,0,9.5c0,0.2,0,0.4,0,0.6c-0.5,0-0.9,0-1.4,0
		c0-0.2,0-0.4,0-0.5c0-3.2,0-6.3,0-9.5c0-0.5-0.1-0.9-0.5-1.2C526.1,260.8,527,260.8,527.8,260.8z"/>
</g>
<text transform="matrix(1 0 0 1 319.1502 145.8503)" class="st2 st9">Ceremonies / Tech Talks</text>
<g>
	<path class="st14" d="M346.8,122c0-24.1,0-48.1,0-72.2c24.1,0,48.1,0,72.2,0c0,24.1,0,48.1,0,72.2C395,122,370.9,122,346.8,122z
		 M394.3,74.9C394.3,74.9,394.3,74.9,394.3,74.9c0.1-2.6,0.1-5.3,0-7.9c0-2,0.1-4.1-0.4-6.1c-1.3-5.6-6.4-9.1-12.2-8.6
		c-5.3,0.5-9.7,5-9.8,10.6c-0.2,8-0.1,15.9,0,23.9c0,1.7,0.6,3.4,1.4,4.9c2.3,4.4,7.4,6.5,12.2,5.4c4.8-1.1,8.4-5.2,8.6-10.2
		C394.4,82.9,394.3,78.9,394.3,74.9z M362.3,81.5c-1.8,11.6,4.6,23.3,18.4,25.6c0,2.6,0,5.3,0,8.2c-4.1,0-8.2,0-12.2,0
		c0,1.6,0,3,0,4.4c9.8,0,19.5,0,29.1,0c0-1.5,0-2.9,0-4.5c-4.1,0-8.1,0-12.2,0c0-2.8,0-5.5,0-8.1c13.3-2.1,20.3-13.5,18.4-25.5
		c-1.3,0-2.7,0-4.1,0c-0.1,2.3-0.1,4.6-0.4,6.8c-1,8-8,14.2-16.2,14.2c-8.1,0-15.3-6.1-16.3-14.1c-0.3-2.3-0.3-4.6-0.4-7
		C365,81.5,363.7,81.5,362.3,81.5z"/>
	<path class="st15" d="M394.3,74.9c0,4,0.1,8,0,12c-0.2,5-3.8,9.1-8.6,10.2c-4.8,1.1-9.9-1-12.2-5.4c-0.8-1.5-1.4-3.3-1.4-4.9
		c-0.1-8-0.2-15.9,0-23.9c0.1-5.6,4.5-10.1,9.8-10.6c5.8-0.5,10.9,2.9,12.2,8.6c0.4,1.9,0.3,4,0.4,6.1
		C394.4,69.6,394.4,72.2,394.3,74.9C394.3,74.9,394.3,74.9,394.3,74.9z"/>
	<path class="st16" d="M362.3,81.5c1.3,0,2.7,0,4.1,0c0.1,2.4,0.1,4.7,0.4,7c1,8,8.1,14.1,16.3,14.1c8.1,0,15.2-6.2,16.2-14.2
		c0.3-2.2,0.3-4.5,0.4-6.8c1.4,0,2.8,0,4.1,0c2,12-5,23.4-18.4,25.5c0,2.6,0,5.3,0,8.1c4.1,0,8.1,0,12.2,0c0,1.6,0,3,0,4.5
		c-9.6,0-19.3,0-29.1,0c0-1.4,0-2.8,0-4.4c4,0,8,0,12.2,0c0-2.9,0-5.6,0-8.2C366.9,104.8,360.5,93.2,362.3,81.5z"/>
</g>
<g>
	<path class="st14" d="M602.5,267.2c0-2.9,0-5.8,0-8.7c14.4,0,28.7,0,43.1,0c-0.2,0-0.3,0-0.5,0.1c-2.9,0.5-4.7,3-4.4,5.9
		c0.3,2.5,2.7,5.2,6.3,4.5c2.2-0.4,4-2.4,4.2-4.5c0.3-2.5-1.2-4.9-3.6-5.7c-0.4-0.1-0.9-0.2-1.4-0.3c4.5,0,8.9,0,13.4,0
		c0,16.9,0,33.7,0,50.6c-19.1,0-38.1,0-57.2,0c0-13.7,0-27.5,0-41.2c0.2,0.7,0.6,1.2,1.1,1.6c2.1,2.1,4.2,4.2,6.3,6.3
		c0.1,0.1,0.2,0.3,0.2,0.5c0,5.4,0,10.9,0,16.3c0,1,0,2,0,3c0,1.5,1.4,2.7,2.9,2.5c1.5-0.2,2.4-1.3,2.4-2.7c0-2.9,0-5.7,0-8.6
		c0-0.1,0-0.2,0-0.4c0.5,0,1,0,1.5,0c0,0.1,0,0.3,0,0.4c0,2.9,0,5.8,0,8.7c0,1.6,1.4,2.8,3,2.6c1.4-0.2,2.3-1.3,2.3-2.7
		c0-3.6,0-7.2,0-10.8c0-0.1,0-0.2,0-0.4c0.8,0.8,1.6,1.6,2.3,2.3c0.2,0.2,0.2,0.3,0.2,0.6c0,6.4,0,12.8,0,19.2
		c0,1.7,1.6,2.9,3.3,2.5c1.2-0.3,2-1.4,2-2.6c0-2.9,0-5.8,0-8.7c0-0.1,0-0.2,0-0.3c0.5,0,1,0,1.5,0c0,0.1,0,0.2,0,0.4
		c0,2.9,0,5.8,0,8.8c0,1.7,1.6,2.9,3.3,2.5c1.2-0.3,2-1.4,2-2.7c0-6.4,0-12.7,0-19.1c0-0.2,0.1-0.3,0.2-0.5c0.9-0.9,1.7-1.7,2.6-2.6
		c0.1-0.1,0.1-0.1,0.2-0.2c0,0.7,0,1.4,0,2.1c0,2.7,0,5.4,0,8.1c0,1.8,1.7,3,3.4,2.6c1.1-0.3,1.9-1.4,1.9-2.5c0-2.9,0-5.9,0-8.8
		c0-0.1,0-0.2,0-0.3c0.5,0,1,0,1.5,0c0,0.1,0,0.3,0,0.4c0,2.9,0,5.8,0,8.7c0,1.8,1.6,3,3.3,2.6c1.1-0.3,2-1.3,2-2.5
		c0-6.4,0-12.8,0-19.2c0-0.2,0.1-0.4,0.2-0.5c2.2-2.2,4.5-4.5,6.7-6.7c1.1-1.1,0.8-3-0.7-3.7c-0.9-0.4-1.9-0.2-2.6,0.5
		c-1.7,1.7-3.4,3.4-5.1,5.1c-0.1,0.1-0.3,0.2-0.4,0.2c-2.8,0-5.5,0-8.3,0c-0.1,0-0.3-0.1-0.4-0.2c-0.6-0.6-1.2-1.2-1.8-1.8
		c-1.2-1.2-2.3-2.4-3.5-3.5c-1-1-2.6-0.7-3.4,0.4c-0.6,0.9-0.5,2.1,0.3,3c2.2,2.2,4.4,4.4,6.7,6.7c0.1,0.1,0.2,0.3,0.2,0.5
		c0,0.8,0,1.6,0,2.3c0,0.1-0.1,0.3-0.1,0.4c-1.5,1.5-2.9,3-4.4,4.4c-0.1,0.1-0.2,0.2-0.3,0.2c-2.8,0-5.6,0-8.3,0
		c-0.1,0-0.2-0.1-0.3-0.1c-1.3-1.3-2.7-2.7-4-4c-0.1-0.1-0.1-0.2-0.1-0.3c0-0.5,0-0.9,0-1.4c0-0.2,0.1-0.3,0.2-0.5
		c1.3-1.3,2.7-2.6,4-4c0.9-0.9,1.8-1.8,2.7-2.7c0.8-0.8,0.9-2,0.3-2.9c-0.8-1.2-2.5-1.4-3.5-0.3c-1.7,1.7-3.4,3.4-5.1,5.1
		c-0.1,0.1-0.3,0.2-0.5,0.2c-2.7,0-5.4,0-8.2,0c-0.2,0-0.4-0.1-0.5-0.2c-1.7-1.7-3.4-3.4-5.1-5.1c-1-1-2.5-1-3.4,0.1
		C602.8,266.4,602.7,266.8,602.5,267.2z M630.8,281.4c2.9,0,5.3-2.3,5.3-5.2c0.1-2.9-2.3-5.4-5.3-5.4c-3,0-5.3,2.5-5.3,5.3
		C625.5,278.9,627.8,281.5,630.8,281.4z M616.1,270.6c2.9,0,5.3-2.3,5.3-5.3c0-3-2.3-5.3-5.3-5.3c-2.9,0-5.3,2.3-5.3,5.3
		C610.8,268.2,613.2,270.6,616.1,270.6z"/>
	<path class="st5" d="M602.5,267.2c0.2-0.4,0.3-0.8,0.5-1.1c0.9-1.1,2.4-1.1,3.4-0.1c1.7,1.7,3.4,3.4,5.1,5.1
		c0.1,0.1,0.3,0.2,0.5,0.2c2.7,0,5.4,0,8.2,0c0.2,0,0.4-0.1,0.5-0.2c1.7-1.7,3.4-3.4,5.1-5.1c1.1-1,2.7-0.9,3.5,0.3
		c0.6,0.9,0.5,2.1-0.3,2.9c-0.9,0.9-1.8,1.8-2.7,2.7c-1.3,1.3-2.6,2.7-4,4c-0.1,0.1-0.2,0.3-0.2,0.5c0,0.5,0,0.9,0,1.4
		c0,0.1,0.1,0.2,0.1,0.3c1.3,1.3,2.7,2.7,4,4c0.1,0.1,0.2,0.1,0.3,0.1c2.8,0,5.6,0,8.3,0c0.1,0,0.3-0.1,0.3-0.2
		c1.5-1.5,3-2.9,4.4-4.4c0.1-0.1,0.1-0.2,0.1-0.4c0-0.8,0-1.6,0-2.3c0-0.2-0.1-0.3-0.2-0.5c-2.2-2.2-4.4-4.4-6.7-6.7
		c-0.8-0.8-1-2-0.3-3c0.8-1.1,2.4-1.3,3.4-0.4c1.2,1.1,2.3,2.3,3.5,3.5c0.6,0.6,1.2,1.2,1.8,1.8c0.1,0.1,0.2,0.2,0.4,0.2
		c2.8,0,5.5,0,8.3,0c0.1,0,0.3-0.1,0.4-0.2c1.7-1.7,3.4-3.4,5.1-5.1c0.7-0.7,1.7-0.9,2.6-0.5c1.5,0.7,1.8,2.5,0.7,3.7
		c-2.2,2.2-4.5,4.5-6.7,6.7c-0.2,0.2-0.2,0.3-0.2,0.5c0,6.4,0,12.8,0,19.2c0,1.2-0.8,2.2-2,2.5c-1.7,0.4-3.3-0.8-3.3-2.6
		c0-2.9,0-5.8,0-8.7c0-0.1,0-0.2,0-0.4c-0.5,0-1,0-1.5,0c0,0.1,0,0.2,0,0.3c0,2.9,0,5.9,0,8.8c0,1.1-0.8,2.2-1.9,2.5
		c-1.7,0.5-3.4-0.8-3.4-2.6c0-2.7,0-5.4,0-8.1c0-0.7,0-1.4,0-2.1c-0.1,0.1-0.2,0.2-0.2,0.2c-0.9,0.9-1.7,1.7-2.6,2.6
		c-0.1,0.1-0.2,0.3-0.2,0.5c0,6.4,0,12.7,0,19.1c0,1.3-0.8,2.4-2,2.7c-1.6,0.4-3.3-0.8-3.3-2.5c0-2.9,0-5.8,0-8.8c0-0.1,0-0.2,0-0.4
		c-0.5,0-1,0-1.5,0c0,0.1,0,0.2,0,0.3c0,2.9,0,5.8,0,8.7c0,1.3-0.8,2.3-2,2.6c-1.6,0.4-3.2-0.9-3.3-2.5c0-6.4,0-12.8,0-19.2
		c0-0.2-0.1-0.4-0.2-0.6c-0.8-0.7-1.5-1.5-2.3-2.3c0,0.2,0,0.3,0,0.4c0,3.6,0,7.2,0,10.8c0,1.4-1,2.5-2.3,2.7c-1.5,0.2-3-1-3-2.6
		c0-2.9,0-5.8,0-8.7c0-0.1,0-0.2,0-0.4c-0.5,0-1,0-1.5,0c0,0.1,0,0.2,0,0.4c0,2.9,0,5.7,0,8.6c0,1.5-1,2.6-2.4,2.7
		c-1.4,0.2-2.8-1.1-2.9-2.5c0-1,0-2,0-3c0-5.4,0-10.9,0-16.3c0-0.2-0.1-0.4-0.2-0.5c-2.1-2.1-4.2-4.2-6.3-6.3
		c-0.5-0.5-0.9-1-1.1-1.6C602.5,267.7,602.5,267.4,602.5,267.2z"/>
	<path class="st5" d="M646.3,258.5c0.5,0.1,0.9,0.2,1.4,0.3c2.4,0.8,3.8,3.2,3.6,5.7c-0.2,2.1-2,4.1-4.2,4.5
		c-3.6,0.7-6.1-2.1-6.3-4.5c-0.3-2.9,1.6-5.5,4.4-5.9c0.2,0,0.3,0,0.5-0.1C645.9,258.5,646.1,258.5,646.3,258.5z"/>
	<path class="st5" d="M630.8,281.4c-3,0.1-5.3-2.5-5.3-5.3c0-2.8,2.3-5.3,5.3-5.3c3,0,5.4,2.5,5.3,5.4
		C636.1,279.1,633.7,281.4,630.8,281.4z"/>
	<path class="st5" d="M616.1,270.6c-3,0-5.3-2.3-5.3-5.3c0-2.9,2.4-5.3,5.3-5.3c3,0,5.3,2.4,5.3,5.3
		C621.4,268.2,619.1,270.6,616.1,270.6z"/>
</g>
<g>
	<path class="st14" d="M342.1,393c0-9.8,0-19.7,0-29.5c9.8,0,19.6,0,29.4,0c0,9.8,0,19.6,0,29.5C361.8,393,351.9,393,342.1,393z
		 M356.8,386.1c0.9,0,0.9,0,1-0.9c0-1.8,0-3.6,0-5.5c0.8,0,1.5,0,2.2,0c1.1,0,2.3,0,3.4,0c0.6,0,0.9-0.2,0.9-0.8c0-1.6,0-3.2,0-4.8
		c0-0.3,0-0.5,0-0.9c0.3,0,0.6,0,0.8,0c1.6,0,3.3,0,4.9,0c0.7,0,0.7-0.4,0.7-0.9c0-0.5,0-1-0.7-1c-2.3,0-4.6,0-6.9,0
		c-0.5,0-0.7,0.2-0.7,0.8c0,1.9,0,3.8,0,5.8c-1,0-2,0-3,0c-0.9,0-1.8,0-2.6,0c-0.6,0-0.8,0.2-0.8,0.8c0,1.9,0,3.7,0,5.7
		c-0.3,0-0.6,0-0.9,0c-1.6,0-3.2,0-4.8,0c-0.6,0-0.9,0.2-0.9,0.8c0,1.6,0,3.2,0,4.8c0,0.3,0,0.5,0,0.9c-1.9,0-3.7,0-5.5,0
		c-0.9,0-1,0-1,1c0,0.6,0.2,0.9,0.9,0.9c2.2,0,4.4,0,6.7,0c0.6,0,0.8-0.2,0.8-0.8c0-1.9,0-3.7,0-5.7
		C353.1,386.1,355,386.1,356.8,386.1z M351.8,369.4c-0.4-0.6-1-0.9-1.8-0.8c-1.1,0.2-2.1,0.3-3.2,0.6c-0.3,0.1-0.7,0.3-0.8,0.6
		c-0.5,0.9-0.9,1.9-1.3,2.9c-0.2,0.4-0.1,0.7,0.3,0.8c0.2,0.1,0.5,0.2,0.7,0.3c0.4,0.2,0.7,0.1,0.9-0.3c0.2-0.5,0.4-1,0.6-1.5
		c0.5-1.1,0.5-1.1,2-1.1c-0.3,1.1-0.6,2.1-0.9,3.1c-0.5,1.9-1.1,3.7-1.6,5.6c-0.1,0.3-0.4,0.7-0.7,0.9c-0.8,0.6-1.6,1-2.5,1.5
		c-0.5,0.3-0.6,0.5-0.3,1c0.7,1.1,0.6,1.1,1.7,0.4c0.9-0.5,1.8-1.1,2.7-1.7c0.3-0.2,0.7-0.7,0.8-1.1c0.4-1.2,0.8-2.5,1.2-3.9
		c0.7,0.4,1.3,0.8,1.9,1.2c0.2,0.1,0.2,0.4,0.2,0.6c0,1.2,0,2.5,0,3.7c0,0.8,0.4,0.9,1,0.9c0.6,0,1,0,1-0.8c0-1.5,0-3.1,0-4.6
		c0-0.5-0.2-0.9-0.6-1.1c-1-0.6-2-1.3-3.1-1.9c0.3-1,0.6-2,1-3.1c0.4,0.5,0.7,0.8,0.9,1.2c0.3,0.4,0.6,0.5,1,0.2
		c1.1-0.6,2.2-1.2,3.3-1.8c0.4-0.2,0.5-0.5,0.2-0.9c-0.1-0.2-0.2-0.3-0.3-0.5c-0.2-0.5-0.5-0.6-1-0.3c-0.8,0.4-1.5,0.8-2.3,1.3
		C352.5,370.4,352.1,369.9,351.8,369.4z M354,365.8c0-1.2-0.9-2.1-2.1-2.1c-1.1,0-2.1,1-2.1,2.1c0,1.2,0.9,2.1,2.1,2.1
		C353.1,367.9,354,367,354,365.8z"/>
	<path class="st11" d="M351.2,386.1c1.9,0,3.8,0,5.6,0c0.9,0,0.9,0,1-0.9c0-1.8,0-3.6,0-5.5c0.8,0,1.5,0,2.2,0c1.1,0,2.3,0,3.4,0
		c0.6,0,0.9-0.2,0.9-0.8c0-1.6,0-3.2,0-4.8c0-0.3,0-0.5,0-0.9c0.3,0,0.6,0,0.8,0c1.6,0,3.3,0,4.9,0c0.7,0,0.7-0.4,0.7-0.9
		c0-0.5,0-1-0.7-1c-2.3,0-4.6,0-6.9,0c-0.5,0-0.7,0.2-0.7,0.8c0,1.9,0,3.8,0,5.8c-1,0-2,0-3,0c-0.9,0-1.8,0-2.6,0
		c-0.6,0-0.8,0.2-0.8,0.8c0,1.9,0,3.7,0,5.7c-0.3,0-0.6,0-0.9,0c-1.6,0-3.2,0-4.8,0c-0.6,0-0.9,0.2-0.9,0.8c0,1.6,0,3.2,0,4.8
		c0,0.3,0,0.5,0,0.9c-1.9,0-3.7,0-5.5,0c-0.9,0-1,0-1,1c0,0.6,0.2,0.9,0.9,0.9c2.2,0,4.4,0,6.7,0c0.6,0,0.8-0.2,0.8-0.8
		C351.2,389.9,351.2,388.1,351.2,386.1z"/>
	<path class="st11" d="M352.9,370.9c-0.4-0.5-0.8-1-1.1-1.5c-0.4-0.6-1-0.9-1.8-0.8c-1.1,0.2-2.1,0.3-3.2,0.6
		c-0.3,0.1-0.7,0.3-0.8,0.6c-0.5,0.9-0.9,1.9-1.3,2.9c-0.2,0.4-0.1,0.7,0.3,0.8c0.2,0.1,0.5,0.2,0.7,0.3c0.4,0.2,0.7,0.1,0.9-0.3
		c0.2-0.5,0.4-1,0.6-1.5c0.5-1.1,0.5-1.1,2-1.1c-0.3,1.1-0.6,2.1-0.9,3.1c-0.5,1.9-1.1,3.7-1.6,5.6c-0.1,0.3-0.4,0.7-0.7,0.9
		c-0.8,0.6-1.6,1-2.5,1.5c-0.5,0.3-0.6,0.5-0.3,1c0.7,1.1,0.6,1.1,1.7,0.4c0.9-0.5,1.8-1.1,2.7-1.7c0.3-0.2,0.7-0.7,0.8-1.1
		c0.4-1.2,0.8-2.5,1.2-3.9c0.7,0.4,1.3,0.8,1.9,1.2c0.2,0.1,0.2,0.4,0.2,0.6c0,1.2,0,2.5,0,3.7c0,0.8,0.4,0.9,1,0.9c0.6,0,1,0,1-0.8
		c0-1.5,0-3.1,0-4.6c0-0.5-0.2-0.9-0.6-1.1c-1-0.6-2-1.3-3.1-1.9c0.3-1,0.6-2,1-3.1c0.4,0.5,0.7,0.8,0.9,1.2c0.3,0.4,0.6,0.5,1,0.2
		c1.1-0.6,2.2-1.2,3.3-1.8c0.4-0.2,0.5-0.5,0.2-0.9c-0.1-0.2-0.2-0.3-0.3-0.5c-0.2-0.5-0.5-0.6-1-0.3
		C354.5,370.1,353.7,370.5,352.9,370.9z"/>
	<path class="st11" d="M351.9,367.9c1.2,0,2.1-0.9,2.1-2.1c0-1.2-0.9-2.1-2.1-2.1c-1.1,0-2.1,1-2.1,2.1
		C349.8,367,350.7,367.9,351.9,367.9z"/>
</g>
<g>
	<path class="st14" d="M178.1,231.7c0-9.8,0-19.7,0-29.5c9.8,0,19.6,0,29.4,0c0,9.8,0,19.6,0,29.5
		C197.7,231.7,187.9,231.7,178.1,231.7z M192.8,224.9c0.9,0,0.9,0,1-0.9c0-1.8,0-3.6,0-5.5c0.8,0,1.5,0,2.2,0c1.1,0,2.3,0,3.4,0
		c0.6,0,0.9-0.2,0.9-0.8c0-1.6,0-3.2,0-4.8c0-0.3,0-0.5,0-0.9c0.3,0,0.6,0,0.8,0c1.6,0,3.3,0,4.9,0c0.7,0,0.7-0.4,0.7-0.9
		c0-0.5,0-1-0.7-1c-2.3,0-4.6,0-6.9,0c-0.5,0-0.7,0.2-0.7,0.8c0,1.9,0,3.8,0,5.8c-1,0-2,0-3,0c-0.9,0-1.8,0-2.6,0
		c-0.6,0-0.8,0.2-0.8,0.8c0,1.9,0,3.7,0,5.7c-0.3,0-0.6,0-0.9,0c-1.6,0-3.2,0-4.8,0c-0.6,0-0.9,0.2-0.9,0.8c0,1.6,0,3.2,0,4.8
		c0,0.3,0,0.5,0,0.9c-1.9,0-3.7,0-5.5,0c-0.9,0-1,0-1,1c0,0.6,0.2,0.9,0.9,0.9c2.2,0,4.4,0,6.7,0c0.6,0,0.8-0.2,0.8-0.8
		c0-1.9,0-3.7,0-5.7C189.1,224.9,190.9,224.9,192.8,224.9z M187.7,208.2c-0.4-0.6-1-0.9-1.8-0.8c-1.1,0.2-2.1,0.3-3.2,0.6
		c-0.3,0.1-0.7,0.3-0.8,0.6c-0.5,0.9-0.9,1.9-1.3,2.9c-0.2,0.4-0.1,0.7,0.3,0.8c0.2,0.1,0.5,0.2,0.7,0.3c0.4,0.2,0.7,0.1,0.9-0.3
		c0.2-0.5,0.4-1,0.6-1.5c0.5-1.1,0.5-1.1,2-1.1c-0.3,1.1-0.6,2.1-0.9,3.1c-0.5,1.9-1.1,3.7-1.6,5.6c-0.1,0.3-0.4,0.7-0.7,0.9
		c-0.8,0.6-1.6,1-2.5,1.5c-0.5,0.3-0.6,0.5-0.3,1c0.7,1.1,0.6,1.1,1.7,0.4c0.9-0.5,1.8-1.1,2.7-1.7c0.3-0.2,0.7-0.7,0.8-1.1
		c0.4-1.2,0.8-2.5,1.2-3.9c0.7,0.4,1.3,0.8,1.9,1.2c0.2,0.1,0.2,0.4,0.2,0.6c0,1.2,0,2.5,0,3.7c0,0.8,0.4,0.9,1,0.9c0.6,0,1,0,1-0.8
		c0-1.5,0-3.1,0-4.6c0-0.5-0.2-0.9-0.6-1.1c-1-0.6-2-1.3-3.1-1.9c0.3-1,0.6-2,1-3.1c0.4,0.5,0.7,0.8,0.9,1.2c0.3,0.4,0.6,0.5,1,0.2
		c1.1-0.6,2.2-1.2,3.3-1.8c0.4-0.2,0.5-0.5,0.2-0.9c-0.1-0.2-0.2-0.3-0.3-0.5c-0.2-0.5-0.5-0.6-1-0.3c-0.8,0.4-1.5,0.8-2.3,1.3
		C188.5,209.2,188.1,208.7,187.7,208.2z M189.9,204.6c0-1.2-0.9-2.1-2.1-2.1c-1.1,0-2.1,1-2.1,2.1c0,1.2,0.9,2.1,2.1,2.1
		C189,206.7,189.9,205.7,189.9,204.6z"/>
	<path class="st11" d="M187.2,224.9c1.9,0,3.8,0,5.6,0c0.9,0,0.9,0,1-0.9c0-1.8,0-3.6,0-5.5c0.8,0,1.5,0,2.2,0c1.1,0,2.3,0,3.4,0
		c0.6,0,0.9-0.2,0.9-0.8c0-1.6,0-3.2,0-4.8c0-0.3,0-0.5,0-0.9c0.3,0,0.6,0,0.8,0c1.6,0,3.3,0,4.9,0c0.7,0,0.7-0.4,0.7-0.9
		c0-0.5,0-1-0.7-1c-2.3,0-4.6,0-6.9,0c-0.5,0-0.7,0.2-0.7,0.8c0,1.9,0,3.8,0,5.8c-1,0-2,0-3,0c-0.9,0-1.8,0-2.6,0
		c-0.6,0-0.8,0.2-0.8,0.8c0,1.9,0,3.7,0,5.7c-0.3,0-0.6,0-0.9,0c-1.6,0-3.2,0-4.8,0c-0.6,0-0.9,0.2-0.9,0.8c0,1.6,0,3.2,0,4.8
		c0,0.3,0,0.5,0,0.9c-1.9,0-3.7,0-5.5,0c-0.9,0-1,0-1,1c0,0.6,0.2,0.9,0.9,0.9c2.2,0,4.4,0,6.7,0c0.6,0,0.8-0.2,0.8-0.8
		C187.1,228.7,187.2,226.8,187.2,224.9z"/>
	<path class="st11" d="M188.8,209.7c-0.4-0.5-0.8-1-1.1-1.5c-0.4-0.6-1-0.9-1.8-0.8c-1.1,0.2-2.1,0.3-3.2,0.6
		c-0.3,0.1-0.7,0.3-0.8,0.6c-0.5,0.9-0.9,1.9-1.3,2.9c-0.2,0.4-0.1,0.7,0.3,0.8c0.2,0.1,0.5,0.2,0.7,0.3c0.4,0.2,0.7,0.1,0.9-0.3
		c0.2-0.5,0.4-1,0.6-1.5c0.5-1.1,0.5-1.1,2-1.1c-0.3,1.1-0.6,2.1-0.9,3.1c-0.5,1.9-1.1,3.7-1.6,5.6c-0.1,0.3-0.4,0.7-0.7,0.9
		c-0.8,0.6-1.6,1-2.5,1.5c-0.5,0.3-0.6,0.5-0.3,1c0.7,1.1,0.6,1.1,1.7,0.4c0.9-0.5,1.8-1.1,2.7-1.7c0.3-0.2,0.7-0.7,0.8-1.1
		c0.4-1.2,0.8-2.5,1.2-3.9c0.7,0.4,1.3,0.8,1.9,1.2c0.2,0.1,0.2,0.4,0.2,0.6c0,1.2,0,2.5,0,3.7c0,0.8,0.4,0.9,1,0.9c0.6,0,1,0,1-0.8
		c0-1.5,0-3.1,0-4.6c0-0.5-0.2-0.9-0.6-1.1c-1-0.6-2-1.3-3.1-1.9c0.3-1,0.6-2,1-3.1c0.4,0.5,0.7,0.8,0.9,1.2c0.3,0.4,0.6,0.5,1,0.2
		c1.1-0.6,2.2-1.2,3.3-1.8c0.4-0.2,0.5-0.5,0.2-0.9c-0.1-0.2-0.2-0.3-0.3-0.5c-0.2-0.5-0.5-0.6-1-0.3
		C190.4,208.8,189.7,209.2,188.8,209.7z"/>
	<path class="st11" d="M187.9,206.7c1.2,0,2.1-0.9,2.1-2.1c0-1.2-0.9-2.1-2.1-2.1c-1.1,0-2.1,1-2.1,2.1
		C185.8,205.7,186.7,206.7,187.9,206.7z"/>
</g>
<line class="st17" x1="241.9" y1="268" x2="199.4" y2="226.4"/>
<line class="st17" x1="230.9" y1="280.8" x2="199.4" y2="226.4"/>
<g id="VAp56K.tif">
	<g>
		<path class="st18" d="M265.6,291.7c0-0.2,0-0.4,0-0.5c3.3-1.5,6.6-2.9,9.7-4.6c2.8-1.5,5.5-2.1,8.6-1.1c2.5,0.8,5.1,1.1,7.6,1.7
			c0,1-0.1,2,0,2.8c0.3,2.1-0.4,3.3-2.4,3.8c-0.3,0.1-0.7,0.7-0.7,1c0.6,3.4,1.3,6.7,2,10.1c0.1,0.4,0.5,0.9,0.9,1
			c1.3,0.5,2.7,0.8,4,1.2c0.4,0.1,0.8,0.6,0.8,1.1c0.3,1.4-1,1.8-1.7,2.6c-0.5,0.6-1.2,1.2-1.3,1.9c-0.2,2.1-0.1,4.3-0.3,6.5
			c-0.3,2.6,0.1,4.9,1.8,7c0.7,0.9,0.6,2-0.4,2.8c-2.7,2.3-5.4,4.5-8,6.9c-0.7,0.6-1.2,0.7-2,0.3c-5.4-2.3-10.8-4.5-16.2-6.7
			c-0.8-0.3-0.9-0.8-1-1.5c-0.3-8.7-0.7-17.5-1-26.2C266,298.5,265.8,295.1,265.6,291.7z M279.4,285.7c-4.3,1.9-8.3,3.7-12.2,5.5
			c-0.3,0.1-0.5,0.8-0.5,1.2c0.1,2.7,0.2,5.4,0.3,8.1c0.3,9,0.7,18,1,27c0,1,0.4,1.5,1.3,1.8c4.7,1.8,9.4,3.7,14.1,5.5
			c0.3,0.1,0.6,0.2,1,0.2c0.1-0.1,0.2-0.2,0.3-0.3c-0.7-1.1-1.6-2.2-2.2-3.4c-0.4-0.8-0.8-1.7-0.8-2.6c0-3.2,0.3-6.5,0.2-9.7
			c0-2.3,0.5-4.1,2.4-5.5c0.2-0.1,0.3-0.3,0.5-0.5c0.7-0.9,0.4-1.8-0.6-2.2c-0.9-0.3-1.8-0.7-2.7-0.8c-2.1-0.3-3-1.5-3.3-3.6
			c-0.8-4.4-1.8-8.7-2.8-13.1c1.1-0.5,2.2-0.9,3.3-1.5c0.3-0.2,0.7-0.6,0.7-0.9C279.4,289.4,279.4,287.6,279.4,285.7z M288.4,304.6
			c-0.6-3.1-1.1-6.2-1.7-9.2c0-0.2-0.4-0.5-0.6-0.5c-2.7,0-5.5,0-8.3,0c0.8,4,1.5,7.9,2.3,11.8C282.9,306,285.6,305.3,288.4,304.6z"
			/>
		<path class="st14" d="M265.6,291.7c0.2,3.4,0.4,6.7,0.5,10.1c0.4,8.7,0.7,17.5,1,26.2c0,0.7,0.2,1.2,1,1.5
			c5.4,2.2,10.8,4.4,16.2,6.7c0.8,0.3,1.3,0.3,2-0.3c2.6-2.3,5.3-4.6,8-6.9c1-0.9,1.1-2,0.4-2.8c-1.7-2.1-2.1-4.4-1.8-7
			c0.2-2.1,0.1-4.3,0.3-6.5c0.1-0.7,0.8-1.3,1.3-1.9c0.7-0.8,2-1.2,1.7-2.6c-0.1-0.4-0.5-0.9-0.8-1.1c-1.3-0.5-2.7-0.8-4-1.2
			c-0.4-0.1-0.9-0.6-0.9-1c-0.7-3.3-1.4-6.7-2-10.1c-0.1-0.3,0.4-0.9,0.7-1c2.1-0.5,2.8-1.8,2.4-3.8c-0.1-0.9,0-1.8,0-2.8
			c-2.6-0.5-5.2-0.9-7.6-1.7c-3.1-1-5.8-0.5-8.6,1.1c-3.1,1.7-6.5,3.1-9.7,4.6c0-2.3,0-4.5,0-6.8c10.4,0,20.7,0,31.1,0
			c0,17.6,0,35.2,0,52.8c-10.4,0-20.7,0-31.1,0C265.6,322.1,265.6,306.9,265.6,291.7z"/>
		<path class="st14" d="M279.4,285.7c0,2,0,3.7,0,5.4c0,0.3-0.4,0.8-0.7,0.9c-1,0.5-2.1,1-3.3,1.5c0.9,4.4,2,8.7,2.8,13.1
			c0.4,2.1,1.2,3.3,3.3,3.6c0.9,0.1,1.8,0.5,2.7,0.8c1,0.4,1.3,1.3,0.6,2.2c-0.1,0.2-0.3,0.3-0.5,0.5c-1.9,1.3-2.5,3.2-2.4,5.5
			c0.1,3.2-0.2,6.5-0.2,9.7c0,0.9,0.4,1.8,0.8,2.6c0.6,1.2,1.5,2.3,2.2,3.4c-0.1,0.1-0.2,0.2-0.3,0.3c-0.3-0.1-0.7-0.1-1-0.2
			c-4.7-1.8-9.4-3.7-14.1-5.5c-0.9-0.4-1.3-0.8-1.3-1.8c-0.3-9-0.7-18-1-27c-0.1-2.7-0.2-5.4-0.3-8.1c0-0.4,0.2-1.1,0.5-1.2
			C271.1,289.4,275.1,287.6,279.4,285.7z"/>
		<path class="st14" d="M288.4,304.6c-2.8,0.7-5.5,1.3-8.3,2c-0.8-3.9-1.5-7.7-2.3-11.8c2.9,0,5.6,0,8.3,0c0.2,0,0.6,0.3,0.6,0.5
			C287.3,298.5,287.8,301.5,288.4,304.6z"/>
	</g>
</g>
<g id="_x31_YDGbe.tif">
	<g>
		<path class="st14" d="M589.5,60.5c-12.7,0-25.5,0-38.2,0c0-13.1,0-26.3,0-39.4c14.7,0,29.4,0,44.2,0c0,5.8,0,11.6,0,17.5
			c-0.1-0.2-0.2-0.4-0.2-0.5c-0.4-2.7-1.5-5.1-3.1-7.3c-1.8-2.5-4.1-4.3-6.9-5.5c-1-0.4-1.8-0.2-2.3,0.8c-0.5,0.9-0.1,1.9,0.9,2.4
			c0.3,0.1,0.5,0.3,0.8,0.4c5.9,3,8.8,9.6,6.9,15.9c-0.6,2-1.8,3.8-2.8,5.7c0.6,0.6,1.3,1.4,2.4,2.5c1.1-2,2.3-3.8,3.2-5.7
			c0.6-1.3,0.8-2.8,1.2-4.1c0,5.8,0,11.6,0,17.5c-1.4,0-2.8,0-4.2,0c2.3-1.8,2.4-3.2,0.2-5.4c-10.7-10.7-21.4-21.4-32.1-32.1
			c-0.3-0.3-0.6-0.6-0.9-0.9c-1-0.8-2.1-0.9-3.1-0.2c-1.1,0.6-1.5,1.7-1.2,2.9c0.2,0.7,0.7,1.3,1.2,1.8
			c10.8,10.9,21.7,21.7,32.5,32.5C588.3,59.7,588.9,60,589.5,60.5z M575,52.6c0-0.9-0.1-1.8,0-2.6c0.1-1.4-0.4-2.3-1.4-3.3
			c-3.9-3.8-7.7-7.7-11.6-11.5c-3-3-3-3-7.2-2.9c0,0-0.1,0-0.1,0c-2,0.1-3.2,1.3-3.2,3.3c0,3.5,0,7.1,0,10.6c0,2.2,1.1,3.3,3.3,3.3
			c1.7,0,3.5-0.1,5.2,0c0.7,0,1.5,0.3,2,0.7c3.1,2.2,6.1,4.5,9.1,6.8c0.4,0.3,0.7,0.6,1.1,0.7c1.6,0.7,2.6,0.1,2.7-1.7
			C575,55,575,53.8,575,52.6z M585.8,47.7c0.2-0.2,0.3-0.2,0.4-0.4c4.3-5,1.9-14.2-4.4-16.3c-0.4-0.1-1-0.2-1.3,0
			c-0.5,0.4-1.1,1-1,1.5c0.1,0.6,0.6,1.4,1.2,1.7c2.2,1.2,3.6,2.9,4.1,5.3c0.4,2.1-0.2,4-1.3,5.8C584.3,46.1,585.1,46.9,585.8,47.7z
			 M574.9,36.5c0-0.5,0.1-0.9,0.1-1.2c0-3,0.1-6.1,0-9.1c0-0.7-0.3-1.9-0.9-2.1c-0.6-0.3-1.7,0-2.4,0.4c-1.5,0.9-2.8,2.1-4.2,3.1
			c-0.8,0.6-0.8,1-0.1,1.7c2.3,2.2,4.5,4.5,6.7,6.7C574.3,36.1,574.5,36.3,574.9,36.5z"/>
		<path class="st19" d="M589.5,60.5c-0.6-0.4-1.2-0.8-1.7-1.3c-10.8-10.8-21.7-21.7-32.5-32.5c-0.5-0.5-1-1.2-1.2-1.8
			c-0.3-1.2,0.1-2.2,1.2-2.9c1.1-0.6,2.1-0.5,3.1,0.2c0.3,0.3,0.6,0.6,0.9,0.9c10.7,10.7,21.4,21.4,32.1,32.1
			c2.2,2.2,2.1,3.5-0.2,5.4C590.6,60.5,590,60.5,589.5,60.5z"/>
		<path class="st20" d="M595.5,43c-0.4,1.4-0.6,2.9-1.2,4.1c-0.9,1.9-2,3.7-3.2,5.7c-1-1.1-1.8-1.9-2.4-2.5c1-1.9,2.2-3.7,2.8-5.7
			c1.9-6.3-1-12.9-6.9-15.9c-0.3-0.1-0.5-0.2-0.8-0.4c-1-0.5-1.4-1.5-0.9-2.4c0.5-1,1.4-1.2,2.3-0.8c2.8,1.2,5.1,3,6.9,5.5
			c1.6,2.2,2.7,4.6,3.1,7.3c0,0.2,0.2,0.4,0.2,0.5C595.5,40,595.5,41.5,595.5,43z"/>
		<path class="st20" d="M575,52.6c0,1.2,0,2.3,0,3.5c0,1.7-1.1,2.4-2.7,1.7c-0.4-0.2-0.8-0.5-1.1-0.7c-3-2.3-6-4.6-9.1-6.8
			c-0.6-0.4-1.3-0.6-2-0.7c-1.7-0.1-3.5,0-5.2,0c-2.2,0-3.3-1.2-3.3-3.3c0-3.5,0-7.1,0-10.6c0-2,1.2-3.2,3.2-3.3c0,0,0.1,0,0.1,0
			c4.2-0.1,4.2-0.1,7.2,2.9c3.8,3.8,7.7,7.7,11.6,11.5c1,0.9,1.5,1.9,1.4,3.3C574.9,50.9,575,51.8,575,52.6z"/>
		<path class="st20" d="M585.8,47.7c-0.8-0.8-1.5-1.6-2.3-2.4c1.1-1.8,1.8-3.6,1.3-5.8c-0.5-2.4-1.9-4.1-4.1-5.3
			c-0.6-0.3-1.1-1.1-1.2-1.7c-0.1-0.5,0.5-1.1,1-1.5c0.3-0.2,0.9-0.2,1.3,0c6.3,2.1,8.7,11.3,4.4,16.3
			C586.2,47.4,586,47.5,585.8,47.7z"/>
		<path class="st20" d="M574.9,36.5c-0.4-0.3-0.6-0.4-0.8-0.6c-2.2-2.2-4.5-4.5-6.7-6.7c-0.7-0.7-0.7-1.1,0.1-1.7
			c1.4-1,2.7-2.2,4.2-3.1c0.7-0.4,1.7-0.7,2.4-0.4c0.5,0.2,0.8,1.3,0.9,2.1c0.1,3,0,6.1,0,9.1C575,35.7,574.9,36,574.9,36.5z"/>
	</g>
</g>
<g id="HR69wR.tif_1_">
	<g>
		<path class="st14" d="M430.5,325.1c-4.4,0-8.9,0-13.3,0c0-4.7,0-9.4,0-14c0.9,0.8,1.4,0.6,1.7-0.5c0.5-1.5,0.9-3,1.4-4.5
			c0.1-0.2,0.2-0.4,0.3-0.6c0.1,0,0.2,0.1,0.2,0.1c-0.9,3-1.8,6-2.7,9.1c0.9,0,1.7,0,2.6,0c0,0.3,0,0.6,0,0.8c0,2,0,4,0,6
			c0,0.3,0.3,0.8,0.6,0.9c0.3,0.1,0.8,0,1-0.2c0.2-0.2,0.3-0.6,0.3-1c0-1.9,0-3.9,0-5.8c0-0.2,0.1-0.5,0.1-0.7c0.1,0,0.2,0,0.2,0
			c0,0.2,0.1,0.5,0.1,0.7c0,2,0,4,0,6c0,0.7,0.3,1.1,0.9,1.1c0.6,0,1-0.4,1-1.1c0-1.9,0-3.7,0-5.6c0-0.3,0-0.7,0-1.1
			c0.9,0,1.7,0,2.5,0c-0.9-3.1-1.8-6.1-2.7-9.1c0.1,0,0.2-0.1,0.2-0.1c0.1,0.2,0.3,0.4,0.3,0.6c0.5,1.6,1,3.2,1.4,4.8
			c0.1,0.5,0.4,0.8,1,0.6c0.6-0.1,0.7-0.6,0.5-1c-0.5-1.9-1.1-3.8-1.7-5.7c-0.4-1.3-1.3-1.9-2.6-1.9c-0.8,0-1.7,0-2.5,0
			c-1.3,0-2.1,0.6-2.6,1.8c-0.4,1.1-0.7,2.2-1,3.2c-0.3,0.9-0.6,1.7-0.8,2.6c0-4.6,0-9.3,0-13.9c9,0,18.1,0,27.1,0
			c0,9.5,0,19,0,28.5c-3.9,0-7.9,0-11.8,0c0-0.3,0-0.6,0-0.9c0-8.9,0-17.8,0-26.7c0-0.3,0-0.5,0-0.8c-0.7,0-1.3,0-2,0
			c0,0.2,0,0.3,0,0.4C430.5,306.5,430.5,315.8,430.5,325.1z M436.3,306c0.1,0,0.2,0,0.3,0c0,0.3,0.1,0.5,0.1,0.8c0,4.8,0,9.5,0,14.3
			c0,0.3,0,0.7,0.2,0.9c0.3,0.5,0.8,0.6,1.4,0.5c0.6-0.2,0.8-0.7,0.8-1.3c0-2.6,0-5.2,0-7.9c0-0.2,0-0.4,0-0.6
			c0-0.1,0.1-0.2,0.2-0.2c0.1,0,0.2,0.1,0.2,0.2c0,0.2,0,0.3,0,0.5c0,2.5,0,5.1,0,7.6c0,1.2,0.4,1.7,1.2,1.7c0.8,0,1.1-0.5,1.1-1.7
			c0-4.7,0-9.4,0-14c0-0.2,0.1-0.5,0.1-0.7c0.1,0,0.2,0,0.3,0c0,0.2,0,0.5,0,0.7c0,1.5,0,3,0,4.5c0,0.7,0.4,1.1,0.9,1.1
			c0.7,0,0.9-0.5,0.9-1.1c0-2,0-3.9,0-5.9c0-1.6-1.1-2.6-2.6-2.7c-1.4,0-2.8,0-4.3,0c-1.6,0-2.7,1.1-2.7,2.7c0,1.9,0,3.9,0,5.8
			c0,0.7,0.3,1.1,0.9,1.1c0.6,0,0.9-0.4,0.9-1.1c0-1.5,0-3,0-4.5C436.3,306.5,436.3,306.2,436.3,306z M422.7,302.2
			c1.2,0,2-0.8,2-1.9c0-1.1-0.8-2.1-1.9-2.1c-1.1,0-2,0.8-2,1.9C420.8,301.4,421.6,302.2,422.7,302.2z M439.3,302.2c1.2,0,2-0.8,2-2
			c0-1.1-0.9-2-2-2c-1.1,0-2,0.9-2,2C437.3,301.4,438.1,302.2,439.3,302.2z"/>
		<path class="st21" d="M417.1,310.5c0.3-0.9,0.6-1.7,0.8-2.6c0.3-1.1,0.6-2.2,1-3.2c0.4-1.2,1.3-1.8,2.6-1.8c0.8,0,1.7,0,2.5,0
			c1.3,0,2.3,0.6,2.6,1.9c0.6,1.9,1.1,3.8,1.7,5.7c0.1,0.5,0,0.9-0.5,1c-0.5,0.1-0.8-0.1-1-0.6c-0.5-1.6-0.9-3.2-1.4-4.8
			c-0.1-0.2-0.2-0.4-0.3-0.6c-0.1,0-0.2,0.1-0.2,0.1c0.9,3,1.8,6,2.7,9.1c-0.9,0-1.7,0-2.5,0c0,0.4,0,0.8,0,1.1c0,1.9,0,3.7,0,5.6
			c0,0.7-0.4,1.1-1,1.1c-0.6,0-0.9-0.4-0.9-1.1c0-2,0-4,0-6c0-0.2-0.1-0.5-0.1-0.7c-0.1,0-0.2,0-0.2,0c0,0.2-0.1,0.5-0.1,0.7
			c0,1.9,0,3.9,0,5.8c0,0.3-0.1,0.8-0.3,1c-0.2,0.2-0.8,0.3-1,0.2c-0.3-0.1-0.6-0.6-0.6-0.9c-0.1-2,0-4,0-6c0-0.3,0-0.5,0-0.8
			c-0.9,0-1.7,0-2.6,0c0.9-3.1,1.8-6.1,2.7-9.1c-0.1,0-0.2-0.1-0.2-0.1c-0.1,0.2-0.2,0.4-0.3,0.6c-0.5,1.5-0.9,3-1.4,4.5
			c-0.3,1.1-0.8,1.2-1.7,0.5C417.1,310.8,417.1,310.7,417.1,310.5z"/>
		<path class="st22" d="M430.5,325.1c0-9.3,0-18.6,0-28c0-0.1,0-0.2,0-0.4c0.6,0,1.2,0,2,0c0,0.3,0,0.5,0,0.8c0,8.9,0,17.8,0,26.7
			c0,0.3,0,0.6,0,0.9C431.8,325.1,431.1,325.1,430.5,325.1z"/>
		<path class="st21" d="M436.3,306c0,0.2,0,0.5,0,0.7c0,1.5,0,3,0,4.5c0,0.7-0.3,1.1-0.9,1.1c-0.6,0-0.9-0.4-0.9-1.1
			c0-1.9,0-3.9,0-5.8c0-1.6,1.1-2.7,2.7-2.7c1.4,0,2.8,0,4.3,0c1.6,0,2.6,1.1,2.6,2.7c0,2,0,3.9,0,5.9c0,0.6-0.2,1-0.9,1.1
			c-0.6,0-0.9-0.4-0.9-1.1c0-1.5,0-3,0-4.5c0-0.2,0-0.5,0-0.7c-0.1,0-0.2,0-0.3,0c0,0.2-0.1,0.5-0.1,0.7c0,4.7,0,9.4,0,14
			c0,1.2-0.3,1.7-1.1,1.7c-0.8,0-1.2-0.5-1.2-1.7c0-2.5,0-5.1,0-7.6c0-0.2,0-0.3,0-0.5c0-0.1-0.1-0.2-0.2-0.2
			c-0.1,0-0.2,0.1-0.2,0.2c0,0.2,0,0.4,0,0.6c0,2.6,0,5.2,0,7.9c0,0.6-0.2,1.1-0.8,1.3c-0.6,0.2-1.1,0-1.4-0.5
			c-0.2-0.3-0.2-0.6-0.2-0.9c0-4.8,0-9.5,0-14.3c0-0.3-0.1-0.5-0.1-0.8C436.5,306,436.4,306,436.3,306z"/>
		<path class="st21" d="M422.7,302.2c-1.2,0-2-0.8-1.9-2c0-1.1,0.9-1.9,2-1.9c1.1,0,2,1,1.9,2.1
			C424.7,301.5,423.9,302.3,422.7,302.2z"/>
		<path class="st21" d="M439.3,302.2c-1.1,0-2-0.8-2-2c0-1.1,0.9-2,2-2c1.1,0,1.9,0.9,2,2C441.3,301.4,440.5,302.3,439.3,302.2z"/>
	</g>
</g>
<g id="HR69wR.tif_3_">
	<g>
		<path class="st14" d="M564.2,247.5c-4.4,0-8.9,0-13.3,0c0-4.7,0-9.4,0-14c0.9,0.8,1.4,0.6,1.7-0.5c0.5-1.5,0.9-3,1.4-4.5
			c0.1-0.2,0.2-0.4,0.3-0.6c0.1,0,0.2,0.1,0.2,0.1c-0.9,3-1.8,6-2.7,9.1c0.9,0,1.7,0,2.6,0c0,0.3,0,0.6,0,0.8c0,2,0,4,0,6
			c0,0.3,0.3,0.8,0.6,0.9c0.3,0.1,0.8,0,1-0.2c0.2-0.2,0.3-0.6,0.3-1c0-1.9,0-3.9,0-5.8c0-0.2,0.1-0.5,0.1-0.7c0.1,0,0.2,0,0.2,0
			c0,0.2,0.1,0.5,0.1,0.7c0,2,0,4,0,6c0,0.7,0.3,1.1,0.9,1.1c0.6,0,1-0.4,1-1.1c0-1.9,0-3.7,0-5.6c0-0.3,0-0.7,0-1.1
			c0.9,0,1.7,0,2.5,0c-0.9-3.1-1.8-6.1-2.7-9.1c0.1,0,0.2-0.1,0.2-0.1c0.1,0.2,0.3,0.4,0.3,0.6c0.5,1.6,1,3.2,1.4,4.8
			c0.1,0.5,0.4,0.8,1,0.6c0.6-0.1,0.7-0.6,0.5-1c-0.5-1.9-1.1-3.8-1.7-5.7c-0.4-1.3-1.3-1.9-2.6-1.9c-0.8,0-1.7,0-2.5,0
			c-1.3,0-2.1,0.6-2.6,1.8c-0.4,1.1-0.7,2.2-1,3.2c-0.3,0.9-0.6,1.7-0.8,2.6c0-4.6,0-9.3,0-13.9c9,0,18.1,0,27.1,0
			c0,9.5,0,19,0,28.5c-3.9,0-7.9,0-11.8,0c0-0.3,0-0.6,0-0.9c0-8.9,0-17.8,0-26.7c0-0.3,0-0.5,0-0.8c-0.7,0-1.3,0-2,0
			c0,0.2,0,0.3,0,0.4C564.2,228.8,564.2,238.1,564.2,247.5z M570.1,228.4c0.1,0,0.2,0,0.3,0c0,0.3,0.1,0.5,0.1,0.8
			c0,4.8,0,9.5,0,14.3c0,0.3,0,0.7,0.2,0.9c0.3,0.5,0.8,0.6,1.4,0.5c0.6-0.2,0.8-0.7,0.8-1.3c0-2.6,0-5.2,0-7.9c0-0.2,0-0.4,0-0.6
			c0-0.1,0.1-0.2,0.2-0.2c0.1,0,0.2,0.1,0.2,0.2c0,0.2,0,0.3,0,0.5c0,2.5,0,5.1,0,7.6c0,1.2,0.4,1.7,1.2,1.7c0.8,0,1.1-0.5,1.1-1.7
			c0-4.7,0-9.4,0-14c0-0.2,0.1-0.5,0.1-0.7c0.1,0,0.2,0,0.3,0c0,0.2,0,0.5,0,0.7c0,1.5,0,3,0,4.5c0,0.7,0.4,1.1,0.9,1.1
			c0.7,0,0.9-0.5,0.9-1.1c0-2,0-3.9,0-5.9c0-1.6-1.1-2.6-2.6-2.7c-1.4,0-2.8,0-4.3,0c-1.6,0-2.7,1.1-2.7,2.7c0,1.9,0,3.9,0,5.8
			c0,0.7,0.3,1.1,0.9,1.1c0.6,0,0.9-0.4,0.9-1.1c0-1.5,0-3,0-4.5C570,228.9,570,228.6,570.1,228.4z M556.5,224.6c1.2,0,2-0.8,2-1.9
			c0-1.1-0.8-2.1-1.9-2.1c-1.1,0-2,0.8-2,1.9C554.5,223.8,555.3,224.6,556.5,224.6z M573,224.6c1.2,0,2-0.8,2-2c0-1.1-0.9-2-2-2
			c-1.1,0-2,0.9-2,2C571,223.8,571.9,224.6,573,224.6z"/>
		<path class="st21" d="M550.9,232.9c0.3-0.9,0.6-1.7,0.8-2.6c0.3-1.1,0.6-2.2,1-3.2c0.4-1.2,1.3-1.8,2.6-1.8c0.8,0,1.7,0,2.5,0
			c1.3,0,2.3,0.6,2.6,1.9c0.6,1.9,1.1,3.8,1.7,5.7c0.1,0.5,0,0.9-0.5,1c-0.5,0.1-0.8-0.1-1-0.6c-0.5-1.6-0.9-3.2-1.4-4.8
			c-0.1-0.2-0.2-0.4-0.3-0.6c-0.1,0-0.2,0.1-0.2,0.1c0.9,3,1.8,6,2.7,9.1c-0.9,0-1.7,0-2.5,0c0,0.4,0,0.8,0,1.1c0,1.9,0,3.7,0,5.6
			c0,0.7-0.4,1.1-1,1.1c-0.6,0-0.9-0.4-0.9-1.1c0-2,0-4,0-6c0-0.2-0.1-0.5-0.1-0.7c-0.1,0-0.2,0-0.2,0c0,0.2-0.1,0.5-0.1,0.7
			c0,1.9,0,3.9,0,5.8c0,0.3-0.1,0.8-0.3,1c-0.2,0.2-0.8,0.3-1,0.2c-0.3-0.1-0.6-0.6-0.6-0.9c-0.1-2,0-4,0-6c0-0.3,0-0.5,0-0.8
			c-0.9,0-1.7,0-2.6,0c0.9-3.1,1.8-6.1,2.7-9.1c-0.1,0-0.2-0.1-0.2-0.1c-0.1,0.2-0.2,0.4-0.3,0.6c-0.5,1.5-0.9,3-1.4,4.5
			c-0.3,1.1-0.8,1.2-1.7,0.5C550.9,233.2,550.9,233,550.9,232.9z"/>
		<path class="st22" d="M564.2,247.5c0-9.3,0-18.6,0-28c0-0.1,0-0.2,0-0.4c0.6,0,1.2,0,2,0c0,0.3,0,0.5,0,0.8c0,8.9,0,17.8,0,26.7
			c0,0.3,0,0.6,0,0.9C565.5,247.5,564.9,247.5,564.2,247.5z"/>
		<path class="st21" d="M570.1,228.4c0,0.2,0,0.5,0,0.7c0,1.5,0,3,0,4.5c0,0.7-0.3,1.1-0.9,1.1c-0.6,0-0.9-0.4-0.9-1.1
			c0-1.9,0-3.9,0-5.8c0-1.6,1.1-2.7,2.7-2.7c1.4,0,2.8,0,4.3,0c1.6,0,2.6,1.1,2.6,2.7c0,2,0,3.9,0,5.9c0,0.6-0.2,1-0.9,1.1
			c-0.6,0-0.9-0.4-0.9-1.1c0-1.5,0-3,0-4.5c0-0.2,0-0.5,0-0.7c-0.1,0-0.2,0-0.3,0c0,0.2-0.1,0.5-0.1,0.7c0,4.7,0,9.4,0,14
			c0,1.2-0.3,1.7-1.1,1.7c-0.8,0-1.2-0.5-1.2-1.7c0-2.5,0-5.1,0-7.6c0-0.2,0-0.3,0-0.5c0-0.1-0.1-0.2-0.2-0.2
			c-0.1,0-0.2,0.1-0.2,0.2c0,0.2,0,0.4,0,0.6c0,2.6,0,5.2,0,7.9c0,0.6-0.2,1.1-0.8,1.3c-0.6,0.2-1.1,0-1.4-0.5
			c-0.2-0.3-0.2-0.6-0.2-0.9c0-4.8,0-9.5,0-14.3c0-0.3-0.1-0.5-0.1-0.8C570.2,228.4,570.1,228.4,570.1,228.4z"/>
		<path class="st21" d="M556.5,224.6c-1.2,0-2-0.8-1.9-2c0-1.1,0.9-1.9,2-1.9c1.1,0,2,1,1.9,2.1
			C558.5,223.9,557.6,224.6,556.5,224.6z"/>
		<path class="st21" d="M573,224.6c-1.1,0-2-0.8-2-2c0-1.1,0.9-2,2-2c1.1,0,1.9,0.9,2,2C575,223.8,574.2,224.6,573,224.6z"/>
	</g>
</g>
<g id="HR69wR.tif_2_">
	<g>
		<path class="st14" d="M508.1,247.5c-4.4,0-8.9,0-13.3,0c0-4.7,0-9.4,0-14c0.9,0.8,1.4,0.6,1.7-0.5c0.5-1.5,0.9-3,1.4-4.5
			c0.1-0.2,0.2-0.4,0.3-0.6c0.1,0,0.2,0.1,0.2,0.1c-0.9,3-1.8,6-2.7,9.1c0.9,0,1.7,0,2.6,0c0,0.3,0,0.6,0,0.8c0,2,0,4,0,6
			c0,0.3,0.3,0.8,0.6,0.9c0.3,0.1,0.8,0,1-0.2c0.2-0.2,0.3-0.6,0.3-1c0-1.9,0-3.9,0-5.8c0-0.2,0.1-0.5,0.1-0.7c0.1,0,0.2,0,0.2,0
			c0,0.2,0.1,0.5,0.1,0.7c0,2,0,4,0,6c0,0.7,0.3,1.1,0.9,1.1c0.6,0,1-0.4,1-1.1c0-1.9,0-3.7,0-5.6c0-0.3,0-0.7,0-1.1
			c0.9,0,1.7,0,2.5,0c-0.9-3.1-1.8-6.1-2.7-9.1c0.1,0,0.2-0.1,0.2-0.1c0.1,0.2,0.3,0.4,0.3,0.6c0.5,1.6,1,3.2,1.4,4.8
			c0.1,0.5,0.4,0.8,1,0.6c0.6-0.1,0.7-0.6,0.5-1c-0.5-1.9-1.1-3.8-1.7-5.7c-0.4-1.3-1.3-1.9-2.6-1.9c-0.8,0-1.7,0-2.5,0
			c-1.3,0-2.1,0.6-2.6,1.8c-0.4,1.1-0.7,2.2-1,3.2c-0.3,0.9-0.6,1.7-0.8,2.6c0-4.6,0-9.3,0-13.9c9,0,18.1,0,27.1,0
			c0,9.5,0,19,0,28.5c-3.9,0-7.9,0-11.8,0c0-0.3,0-0.6,0-0.9c0-8.9,0-17.8,0-26.7c0-0.3,0-0.5,0-0.8c-0.7,0-1.3,0-2,0
			c0,0.2,0,0.3,0,0.4C508.1,228.8,508.1,238.1,508.1,247.5z M514,228.4c0.1,0,0.2,0,0.3,0c0,0.3,0.1,0.5,0.1,0.8c0,4.8,0,9.5,0,14.3
			c0,0.3,0,0.7,0.2,0.9c0.3,0.5,0.8,0.6,1.4,0.5c0.6-0.2,0.8-0.7,0.8-1.3c0-2.6,0-5.2,0-7.9c0-0.2,0-0.4,0-0.6
			c0-0.1,0.1-0.2,0.2-0.2c0.1,0,0.2,0.1,0.2,0.2c0,0.2,0,0.3,0,0.5c0,2.5,0,5.1,0,7.6c0,1.2,0.4,1.7,1.2,1.7c0.8,0,1.1-0.5,1.1-1.7
			c0-4.7,0-9.4,0-14c0-0.2,0.1-0.5,0.1-0.7c0.1,0,0.2,0,0.3,0c0,0.2,0,0.5,0,0.7c0,1.5,0,3,0,4.5c0,0.7,0.4,1.1,0.9,1.1
			c0.7,0,0.9-0.5,0.9-1.1c0-2,0-3.9,0-5.9c0-1.6-1.1-2.6-2.6-2.7c-1.4,0-2.8,0-4.3,0c-1.6,0-2.7,1.1-2.7,2.7c0,1.9,0,3.9,0,5.8
			c0,0.7,0.3,1.1,0.9,1.1c0.6,0,0.9-0.4,0.9-1.1c0-1.5,0-3,0-4.5C513.9,228.9,514,228.6,514,228.4z M500.4,224.6c1.2,0,2-0.8,2-1.9
			c0-1.1-0.8-2.1-1.9-2.1c-1.1,0-2,0.8-2,1.9C498.4,223.8,499.2,224.6,500.4,224.6z M516.9,224.6c1.2,0,2-0.8,2-2c0-1.1-0.9-2-2-2
			c-1.1,0-2,0.9-2,2C515,223.8,515.8,224.6,516.9,224.6z"/>
		<path class="st21" d="M494.8,232.9c0.3-0.9,0.6-1.7,0.8-2.6c0.3-1.1,0.6-2.2,1-3.2c0.4-1.2,1.3-1.8,2.6-1.8c0.8,0,1.7,0,2.5,0
			c1.3,0,2.3,0.6,2.6,1.9c0.6,1.9,1.1,3.8,1.7,5.7c0.1,0.5,0,0.9-0.5,1c-0.5,0.1-0.8-0.1-1-0.6c-0.5-1.6-0.9-3.2-1.4-4.8
			c-0.1-0.2-0.2-0.4-0.3-0.6c-0.1,0-0.2,0.1-0.2,0.1c0.9,3,1.8,6,2.7,9.1c-0.9,0-1.7,0-2.5,0c0,0.4,0,0.8,0,1.1c0,1.9,0,3.7,0,5.6
			c0,0.7-0.4,1.1-1,1.1c-0.6,0-0.9-0.4-0.9-1.1c0-2,0-4,0-6c0-0.2-0.1-0.5-0.1-0.7c-0.1,0-0.2,0-0.2,0c0,0.2-0.1,0.5-0.1,0.7
			c0,1.9,0,3.9,0,5.8c0,0.3-0.1,0.8-0.3,1c-0.2,0.2-0.8,0.3-1,0.2c-0.3-0.1-0.6-0.6-0.6-0.9c-0.1-2,0-4,0-6c0-0.3,0-0.5,0-0.8
			c-0.9,0-1.7,0-2.6,0c0.9-3.1,1.8-6.1,2.7-9.1c-0.1,0-0.2-0.1-0.2-0.1c-0.1,0.2-0.2,0.4-0.3,0.6c-0.5,1.5-0.9,3-1.4,4.5
			c-0.3,1.1-0.8,1.2-1.7,0.5C494.8,233.2,494.8,233,494.8,232.9z"/>
		<path class="st22" d="M508.1,247.5c0-9.3,0-18.6,0-28c0-0.1,0-0.2,0-0.4c0.6,0,1.2,0,2,0c0,0.3,0,0.5,0,0.8c0,8.9,0,17.8,0,26.7
			c0,0.3,0,0.6,0,0.9C509.5,247.5,508.8,247.5,508.1,247.5z"/>
		<path class="st21" d="M514,228.4c0,0.2,0,0.5,0,0.7c0,1.5,0,3,0,4.5c0,0.7-0.3,1.1-0.9,1.1c-0.6,0-0.9-0.4-0.9-1.1
			c0-1.9,0-3.9,0-5.8c0-1.6,1.1-2.7,2.7-2.7c1.4,0,2.8,0,4.3,0c1.6,0,2.6,1.1,2.6,2.7c0,2,0,3.9,0,5.9c0,0.6-0.2,1-0.9,1.1
			c-0.6,0-0.9-0.4-0.9-1.1c0-1.5,0-3,0-4.5c0-0.2,0-0.5,0-0.7c-0.1,0-0.2,0-0.3,0c0,0.2-0.1,0.5-0.1,0.7c0,4.7,0,9.4,0,14
			c0,1.2-0.3,1.7-1.1,1.7c-0.8,0-1.2-0.5-1.2-1.7c0-2.5,0-5.1,0-7.6c0-0.2,0-0.3,0-0.5c0-0.1-0.1-0.2-0.2-0.2
			c-0.1,0-0.2,0.1-0.2,0.2c0,0.2,0,0.4,0,0.6c0,2.6,0,5.2,0,7.9c0,0.6-0.2,1.1-0.8,1.3c-0.6,0.2-1.1,0-1.4-0.5
			c-0.2-0.3-0.2-0.6-0.2-0.9c0-4.8,0-9.5,0-14.3c0-0.3-0.1-0.5-0.1-0.8C514.2,228.4,514.1,228.4,514,228.4z"/>
		<path class="st21" d="M500.4,224.6c-1.2,0-2-0.8-1.9-2c0-1.1,0.9-1.9,2-1.9c1.1,0,2,1,1.9,2.1
			C502.4,223.9,501.6,224.6,500.4,224.6z"/>
		<path class="st21" d="M516.9,224.6c-1.1,0-2-0.8-2-2c0-1.1,0.9-2,2-2c1.1,0,1.9,0.9,2,2C518.9,223.8,518.1,224.6,516.9,224.6z"/>
	</g>
</g>
<g id="HR69wR.tif">
	<g>
		<path class="st14" d="M586.6,165.5c-4.4,0-8.9,0-13.3,0c0-4.7,0-9.4,0-14c0.9,0.8,1.4,0.6,1.7-0.5c0.5-1.5,0.9-3,1.4-4.5
			c0.1-0.2,0.2-0.4,0.3-0.6c0.1,0,0.2,0.1,0.2,0.1c-0.9,3-1.8,6-2.7,9.1c0.9,0,1.7,0,2.6,0c0,0.3,0,0.6,0,0.8c0,2,0,4,0,6
			c0,0.3,0.3,0.8,0.6,0.9c0.3,0.1,0.8,0,1-0.2c0.2-0.2,0.3-0.6,0.3-1c0-1.9,0-3.9,0-5.8c0-0.2,0.1-0.5,0.1-0.7c0.1,0,0.2,0,0.2,0
			c0,0.2,0.1,0.5,0.1,0.7c0,2,0,4,0,6c0,0.7,0.3,1.1,0.9,1.1c0.6,0,1-0.4,1-1.1c0-1.9,0-3.7,0-5.6c0-0.3,0-0.7,0-1.1
			c0.9,0,1.7,0,2.5,0c-0.9-3.1-1.8-6.1-2.7-9.1c0.1,0,0.2-0.1,0.2-0.1c0.1,0.2,0.3,0.4,0.3,0.6c0.5,1.6,1,3.2,1.4,4.8
			c0.1,0.5,0.4,0.8,1,0.6c0.6-0.1,0.7-0.6,0.5-1c-0.5-1.9-1.1-3.8-1.7-5.7c-0.4-1.3-1.3-1.9-2.6-1.9c-0.8,0-1.7,0-2.5,0
			c-1.3,0-2.1,0.6-2.6,1.8c-0.4,1.1-0.7,2.2-1,3.2c-0.3,0.9-0.6,1.7-0.8,2.6c0-4.6,0-9.3,0-13.9c9,0,18.1,0,27.1,0
			c0,9.5,0,19,0,28.5c-3.9,0-7.9,0-11.8,0c0-0.3,0-0.6,0-0.9c0-8.9,0-17.8,0-26.7c0-0.3,0-0.5,0-0.8c-0.7,0-1.3,0-2,0
			c0,0.2,0,0.3,0,0.4C586.6,146.8,586.6,156.2,586.6,165.5z M592.4,146.4c0.1,0,0.2,0,0.3,0c0,0.3,0.1,0.5,0.1,0.8
			c0,4.8,0,9.5,0,14.3c0,0.3,0,0.7,0.2,0.9c0.3,0.5,0.8,0.6,1.4,0.5c0.6-0.2,0.8-0.7,0.8-1.3c0-2.6,0-5.2,0-7.9c0-0.2,0-0.4,0-0.6
			c0-0.1,0.1-0.2,0.2-0.2c0.1,0,0.2,0.1,0.2,0.2c0,0.2,0,0.3,0,0.5c0,2.5,0,5.1,0,7.6c0,1.2,0.4,1.7,1.2,1.7c0.8,0,1.1-0.5,1.1-1.7
			c0-4.7,0-9.4,0-14c0-0.2,0.1-0.5,0.1-0.7c0.1,0,0.2,0,0.3,0c0,0.2,0,0.5,0,0.7c0,1.5,0,3,0,4.5c0,0.7,0.4,1.1,0.9,1.1
			c0.7,0,0.9-0.5,0.9-1.1c0-2,0-3.9,0-5.9c0-1.6-1.1-2.6-2.6-2.7c-1.4,0-2.8,0-4.3,0c-1.6,0-2.7,1.1-2.7,2.7c0,1.9,0,3.9,0,5.8
			c0,0.7,0.3,1.1,0.9,1.1c0.6,0,0.9-0.4,0.9-1.1c0-1.5,0-3,0-4.5C592.4,146.9,592.4,146.6,592.4,146.4z M578.9,142.6
			c1.2,0,2-0.8,2-1.9c0-1.1-0.8-2.1-1.9-2.1c-1.1,0-2,0.8-2,1.9C576.9,141.8,577.7,142.6,578.9,142.6z M595.4,142.6c1.2,0,2-0.8,2-2
			c0-1.1-0.9-2-2-2c-1.1,0-2,0.9-2,2C593.4,141.8,594.2,142.6,595.4,142.6z"/>
		<path class="st21" d="M573.3,150.9c0.3-0.9,0.6-1.7,0.8-2.6c0.3-1.1,0.6-2.2,1-3.2c0.4-1.2,1.3-1.8,2.6-1.8c0.8,0,1.7,0,2.5,0
			c1.3,0,2.3,0.6,2.6,1.9c0.6,1.9,1.1,3.8,1.7,5.7c0.1,0.5,0,0.9-0.5,1c-0.5,0.1-0.8-0.1-1-0.6c-0.5-1.6-0.9-3.2-1.4-4.8
			c-0.1-0.2-0.2-0.4-0.3-0.6c-0.1,0-0.2,0.1-0.2,0.1c0.9,3,1.8,6,2.7,9.1c-0.9,0-1.7,0-2.5,0c0,0.4,0,0.8,0,1.1c0,1.9,0,3.7,0,5.6
			c0,0.7-0.4,1.1-1,1.1c-0.6,0-0.9-0.4-0.9-1.1c0-2,0-4,0-6c0-0.2-0.1-0.5-0.1-0.7c-0.1,0-0.2,0-0.2,0c0,0.2-0.1,0.5-0.1,0.7
			c0,1.9,0,3.9,0,5.8c0,0.3-0.1,0.8-0.3,1c-0.2,0.2-0.8,0.3-1,0.2c-0.3-0.1-0.6-0.6-0.6-0.9c-0.1-2,0-4,0-6c0-0.3,0-0.5,0-0.8
			c-0.9,0-1.7,0-2.6,0c0.9-3.1,1.8-6.1,2.7-9.1c-0.1,0-0.2-0.1-0.2-0.1c-0.1,0.2-0.2,0.4-0.3,0.6c-0.5,1.5-0.9,3-1.4,4.5
			c-0.3,1.1-0.8,1.2-1.7,0.5C573.3,151.2,573.3,151,573.3,150.9z"/>
		<path class="st22" d="M586.6,165.5c0-9.3,0-18.6,0-28c0-0.1,0-0.2,0-0.4c0.6,0,1.2,0,2,0c0,0.3,0,0.5,0,0.8c0,8.9,0,17.8,0,26.7
			c0,0.3,0,0.6,0,0.9C587.9,165.5,587.3,165.5,586.6,165.5z"/>
		<path class="st21" d="M592.4,146.4c0,0.2,0,0.5,0,0.7c0,1.5,0,3,0,4.5c0,0.7-0.3,1.1-0.9,1.1c-0.6,0-0.9-0.4-0.9-1.1
			c0-1.9,0-3.9,0-5.8c0-1.6,1.1-2.7,2.7-2.7c1.4,0,2.8,0,4.3,0c1.6,0,2.6,1.1,2.6,2.7c0,2,0,3.9,0,5.9c0,0.6-0.2,1-0.9,1.1
			c-0.6,0-0.9-0.4-0.9-1.1c0-1.5,0-3,0-4.5c0-0.2,0-0.5,0-0.7c-0.1,0-0.2,0-0.3,0c0,0.2-0.1,0.5-0.1,0.7c0,4.7,0,9.4,0,14
			c0,1.2-0.3,1.7-1.1,1.7c-0.8,0-1.2-0.5-1.2-1.7c0-2.5,0-5.1,0-7.6c0-0.2,0-0.3,0-0.5c0-0.1-0.1-0.2-0.2-0.2
			c-0.1,0-0.2,0.1-0.2,0.2c0,0.2,0,0.4,0,0.6c0,2.6,0,5.2,0,7.9c0,0.6-0.2,1.1-0.8,1.3c-0.6,0.2-1.1,0-1.4-0.5
			c-0.2-0.3-0.2-0.6-0.2-0.9c0-4.8,0-9.5,0-14.3c0-0.3-0.1-0.5-0.1-0.8C592.6,146.4,592.5,146.4,592.4,146.4z"/>
		<path class="st21" d="M578.9,142.6c-1.2,0-2-0.8-1.9-2c0-1.1,0.9-1.9,2-1.9c1.1,0,2,1,1.9,2.1C580.9,141.9,580,142.7,578.9,142.6z
			"/>
		<path class="st21" d="M595.4,142.6c-1.1,0-2-0.8-2-2c0-1.1,0.9-2,2-2c1.1,0,1.9,0.9,2,2C597.4,141.8,596.6,142.6,595.4,142.6z"/>
	</g>
</g>
<g id="D6sQFK.tif_2_">
	<g>
		<path class="st14" d="M660.8,8.4c-2.2,0.1-4.5,0-6.7,0c-0.3,0-0.5,0-0.9,0c0.7,0.9,1.4,1.7,2.1,2.5c0.2,0.2,0.5,0.2,0.8,0.2
			c1.4,0,2.8,0,4.3,0c0,6,0,11.8,0,17.8c-8.6,0-17.1,0-25.7,0c0-5.9,0-11.8,0-17.8c0.9,0,1.8-0.1,2.7,0c1.6,0.2,2.7-0.3,3.5-1.7
			c0.2-0.3,0.5-0.6,0.8-1c-0.4,0-0.6-0.1-0.8-0.1c-2.3,0-4.7,0-7,0c-1.5,0-2.1,0.6-2.1,2.1c0,6.4,0,12.8,0,19.1c0,1.5,0.6,2.1,2,2.1
			c9.1,0,18.2,0,27.3,0c1,0,1.6-0.4,2.1-1.1c0,0.4,0,0.8,0,1.3c-10.5,0-21,0-31.5,0c0-8.9,0-17.9,0-26.8c10.5,0,21,0,31.5,0
			c0,1.5,0,3,0,4.6C662.6,8.7,661.8,8.4,660.8,8.4z M643.8,15.1c0,2.9,0,5.7,0,8.5c2.4,0,4.7,0,7.2,0c0-2.8,0-5.6,0-8.5
			c1.5,0,3,0,4.6,0c-2.8-3.4-5.5-6.6-8.2-9.9c-2.7,3.2-5.4,6.4-8.2,9.8C640.8,15.1,642.3,15.1,643.8,15.1z"/>
		<path class="st23" d="M663.1,9.6c-0.5-0.9-1.3-1.2-2.3-1.2c-2.2,0.1-4.5,0-6.7,0c-0.3,0-0.5,0-0.9,0c0.7,0.9,1.4,1.7,2.1,2.5
			c0.2,0.2,0.5,0.2,0.8,0.2c1.4,0,2.8,0,4.3,0c0,6,0,11.8,0,17.8c-8.6,0-17.1,0-25.7,0c0-5.9,0-11.8,0-17.8c0.9,0,1.8-0.1,2.7,0
			c1.6,0.2,2.7-0.3,3.5-1.7c0.2-0.3,0.5-0.6,0.8-1c-0.4,0-0.6-0.1-0.8-0.1c-2.3,0-4.7,0-7,0c-1.5,0-2.1,0.6-2.1,2.1
			c0,6.4,0,12.8,0,19.1c0,1.5,0.6,2.1,2,2.1c9.1,0,18.2,0,27.3,0c1,0,1.6-0.4,2.1-1.1C663.1,23.6,663.1,16.6,663.1,9.6z"/>
		<path class="st23" d="M639.2,15.1c1.7,0,3.1,0,4.6,0c0,2.9,0,5.7,0,8.5c2.4,0,4.7,0,7.2,0c0-2.8,0-5.6,0-8.5c1.5,0,3,0,4.6,0
			c-2.8-3.4-5.5-6.6-8.2-9.9C644.7,8.5,642,11.7,639.2,15.1z"/>
	</g>
</g>
<g id="D6sQFK.tif_1_">
	<g>
		<path class="st14" d="M271.6,18.4c-2.2,0.1-4.5,0-6.7,0c-0.3,0-0.5,0-0.9,0c0.7,0.9,1.4,1.7,2.1,2.5c0.2,0.2,0.5,0.2,0.8,0.2
			c1.4,0,2.8,0,4.3,0c0,6,0,11.8,0,17.8c-8.6,0-17.1,0-25.7,0c0-5.9,0-11.8,0-17.8c0.9,0,1.8-0.1,2.7,0c1.6,0.2,2.7-0.3,3.5-1.7
			c0.2-0.3,0.5-0.6,0.8-1c-0.4,0-0.6-0.1-0.8-0.1c-2.3,0-4.7,0-7,0c-1.5,0-2.1,0.6-2.1,2.1c0,6.4,0,12.8,0,19.1c0,1.5,0.6,2.1,2,2.1
			c9.1,0,18.2,0,27.3,0c1,0,1.6-0.4,2.1-1.1c0,0.4,0,0.8,0,1.3c-10.5,0-21,0-31.5,0c0-8.9,0-17.9,0-26.8c10.5,0,21,0,31.5,0
			c0,1.5,0,3,0,4.6C273.3,18.7,272.6,18.4,271.6,18.4z M254.5,25.1c0,2.9,0,5.7,0,8.5c2.4,0,4.7,0,7.2,0c0-2.8,0-5.6,0-8.5
			c1.5,0,3,0,4.6,0c-2.8-3.4-5.5-6.6-8.2-9.9c-2.7,3.2-5.4,6.4-8.2,9.8C251.6,25.1,253,25.1,254.5,25.1z"/>
		<path class="st23" d="M273.8,19.6c-0.5-0.9-1.3-1.2-2.3-1.2c-2.2,0.1-4.5,0-6.7,0c-0.3,0-0.5,0-0.9,0c0.7,0.9,1.4,1.7,2.1,2.5
			c0.2,0.2,0.5,0.2,0.8,0.2c1.4,0,2.8,0,4.3,0c0,6,0,11.8,0,17.8c-8.6,0-17.1,0-25.7,0c0-5.9,0-11.8,0-17.8c0.9,0,1.8-0.1,2.7,0
			c1.6,0.2,2.7-0.3,3.5-1.7c0.2-0.3,0.5-0.6,0.8-1c-0.4,0-0.6-0.1-0.8-0.1c-2.3,0-4.7,0-7,0c-1.5,0-2.1,0.6-2.1,2.1
			c0,6.4,0,12.8,0,19.1c0,1.5,0.6,2.1,2,2.1c9.1,0,18.2,0,27.3,0c1,0,1.6-0.4,2.1-1.1C273.8,33.6,273.8,26.6,273.8,19.6z"/>
		<path class="st23" d="M249.9,25.1c1.7,0,3.1,0,4.6,0c0,2.9,0,5.7,0,8.5c2.4,0,4.7,0,7.2,0c0-2.8,0-5.6,0-8.5c1.5,0,3,0,4.6,0
			c-2.8-3.4-5.5-6.6-8.2-9.9C255.4,18.6,252.8,21.7,249.9,25.1z"/>
	</g>
</g>
<g id="D6sQFK.tif">
	<g>
		<path class="st14" d="M8.2,20.2c0.1,2.2,0,4.5,0,6.7c0,0.3,0,0.5,0,0.9c0.9-0.7,1.7-1.4,2.5-2.1c0.2-0.2,0.2-0.5,0.2-0.8
			c0-1.4,0-2.8,0-4.3c6,0,11.8,0,17.8,0c0,8.6,0,17.1,0,25.7c-5.9,0-11.8,0-17.8,0c0-0.9-0.1-1.8,0-2.7c0.2-1.6-0.3-2.7-1.7-3.5
			c-0.3-0.2-0.6-0.5-1-0.8c0,0.4-0.1,0.6-0.1,0.8c0,2.3,0,4.7,0,7c0,1.5,0.6,2.1,2.1,2.1c6.4,0,12.8,0,19.1,0c1.5,0,2.1-0.6,2.1-2
			c0-9.1,0-18.2,0-27.3c0-1-0.4-1.6-1.1-2.1c0.4,0,0.8,0,1.3,0c0,10.5,0,21,0,31.5c-8.9,0-17.9,0-26.8,0c0-10.5,0-21,0-31.5
			c1.5,0,3,0,4.6,0C8.5,18.4,8.2,19.1,8.2,20.2z M14.9,37.2c2.9,0,5.7,0,8.5,0c0-2.4,0-4.7,0-7.2c-2.8,0-5.6,0-8.5,0
			c0-1.5,0-3,0-4.6c-3.4,2.8-6.6,5.5-9.9,8.2c3.2,2.7,6.4,5.4,9.8,8.2C14.9,40.1,14.9,38.7,14.9,37.2z"/>
		<path class="st23" d="M9.4,17.9c-0.9,0.5-1.2,1.3-1.2,2.3c0.1,2.2,0,4.5,0,6.7c0,0.3,0,0.5,0,0.9c0.9-0.7,1.7-1.4,2.5-2.1
			c0.2-0.2,0.2-0.5,0.2-0.8c0-1.4,0-2.8,0-4.3c6,0,11.8,0,17.8,0c0,8.6,0,17.1,0,25.7c-5.9,0-11.8,0-17.8,0c0-0.9-0.1-1.8,0-2.7
			c0.2-1.6-0.3-2.7-1.7-3.5c-0.3-0.2-0.6-0.5-1-0.8c0,0.4-0.1,0.6-0.1,0.8c0,2.3,0,4.7,0,7c0,1.5,0.6,2.1,2.1,2.1
			c6.4,0,12.8,0,19.1,0c1.5,0,2.1-0.6,2.1-2c0-9.1,0-18.2,0-27.3c0-1-0.4-1.6-1.1-2.1C23.4,17.9,16.4,17.9,9.4,17.9z"/>
		<path class="st23" d="M14.9,41.8c0-1.7,0-3.1,0-4.6c2.9,0,5.7,0,8.5,0c0-2.4,0-4.7,0-7.2c-2.8,0-5.6,0-8.5,0c0-1.5,0-3,0-4.6
			c-3.4,2.8-6.6,5.5-9.9,8.2C8.4,36.3,11.6,39,14.9,41.8z"/>
	</g>
</g>
</svg>
