<?xml version="1.0" encoding="UTF-8"?>
<svg width="228px" height="69px" viewBox="0 0 228 69" version="1.1" xmlns="http://www.w3.org/2000/svg" xmlns:xlink="http://www.w3.org/1999/xlink">
    <!-- Generator: Sketch 41.1 (35376) - http://www.bohemiancoding.com/sketch -->
    <title>rit</title>
    <desc>Created with Sketch.</desc>
    <defs></defs>
    <g id="Page-1" stroke="none" stroke-width="1" fill="none" fill-rule="evenodd">
        <g id="rit" fill="#000000">
            <path d="M20.859,7.16 L20.859,33.844 C33.638,33.844 42.942,33.537 42.942,18.713 C42.942,9.716 37.83,3.377 28.629,3.377 C27.402,3.377 22.903,3.07 21.983,3.479 C20.654,4.093 20.859,6.035 20.859,7.16 Z M36.194,34.866 L57.868,59.709 C61.14,63.492 62.673,64.924 67.888,65.741 L67.888,68.093 C64.82,67.99 61.753,67.786 58.687,67.684 C56.13,67.786 53.574,67.99 51.019,68.093 L46.213,62.163 L29.242,41.102 C25.868,37.218 26.277,36.604 20.859,36.604 L20.859,48.668 C20.859,51.939 20.859,59.505 21.779,62.266 C23.006,65.844 27.197,65.741 30.469,65.741 L30.469,68.093 C25.766,67.99 20.961,67.786 16.054,67.684 C10.942,67.786 5.83,67.99 0.718,68.093 L0.718,65.741 C3.99,65.741 8.284,65.741 9.408,62.266 C10.329,59.505 10.329,51.939 10.329,48.668 L10.329,19.837 C10.329,16.565 10.329,9 9.408,6.24 C8.284,2.661 3.99,2.764 0.718,2.764 L0.718,0.412 C6.545,0.515 12.476,0.719 18.303,0.821 C22.597,0.719 26.993,0.515 31.287,0.412 C42.942,0.412 54.699,3.07 54.699,17.281 C54.699,28.323 46.315,33.945 36.194,34.866 L36.194,34.866 Z" id="Fill-1"></path>
            <path d="M108.135,48.668 C108.135,51.939 108.135,59.505 107.113,62.266 C105.783,65.741 101.592,65.741 98.32,65.741 L98.32,68.093 C103.432,67.99 108.647,67.786 113.758,67.684 C118.666,67.786 123.676,67.99 128.481,68.093 L128.481,65.741 C125.209,65.741 121.018,65.741 119.688,62.266 C118.666,59.505 118.666,51.939 118.666,48.668 L118.666,19.837 C118.666,16.565 118.666,9 119.688,6.24 C121.018,2.764 125.209,2.764 128.481,2.764 L128.481,0.412 C123.369,0.515 118.256,0.719 113.043,0.821 C108.135,0.719 103.229,0.515 98.32,0.412 L98.32,2.764 C101.592,2.764 105.783,2.764 107.113,6.24 C108.135,9 108.135,16.565 108.135,19.837 L108.135,48.668" id="Fill-2"></path>
            <path d="M226.867,0.412 L164.094,0.412 L164.094,16.361 L166.445,16.361 C166.854,4.195 171.762,3.684 181.883,3.684 C185.973,3.684 190.471,3.377 190.471,6.444 L190.471,54.904 C190.471,62.47 189.039,65.332 179.123,65.741 L179.123,68.093 C184.643,67.99 189.959,67.786 195.379,67.684 C201,67.786 206.727,67.99 212.35,68.093 L212.35,65.741 C202.432,65.332 201,62.47 201,54.904 L201,6.444 C201,3.173 207.135,3.684 210.918,3.684 C220.527,3.684 224.414,6.342 225.027,16.361 L227.787,16.361 L226.867,0.412" id="Fill-3"></path>
            <path d="M71.952,34.367 C71.952,32.18 73.725,30.406 75.912,30.406 C78.099,30.406 79.872,32.18 79.872,34.367 C79.872,36.554 78.099,38.326 75.912,38.326 C73.725,38.326 71.952,36.554 71.952,34.367" id="Fill-4"></path>
            <path d="M147.283,33.986 C147.283,31.8 149.055,30.026 151.242,30.026 C153.43,30.026 155.203,31.8 155.203,33.986 C155.203,36.174 153.43,37.946 151.242,37.946 C149.055,37.946 147.283,36.174 147.283,33.986" id="Fill-5"></path>
        </g>
    </g>
</svg>
