<svg id="Layer_1" data-name="Layer 1" xmlns="http://www.w3.org/2000/svg" viewBox="0 0 504 196.5"><defs><style>.cls-1{fill:#fff;}</style></defs><title>new_RIT_logo1_w</title><path class="cls-1" d="M275.87,23.5c3.27-8.57,14.1-8.57,22.79-8.57h1.61V3.1s-33.87.75-44.23.75c-10.68,0-42.33-.75-42.33-.75V14.93h1.62c8.69,0,19.51,0,22.78,8.55,2.72,7.35,2.72,28.14,2.72,37V136c0,8.88,0,29.66-2.71,37-3.28,8.57-14.1,8.57-22.79,8.57h-1.62V193.4s27.38-1.17,42.38-1.17c17.25,0,44.18,1.17,44.18,1.17V181.57h-1.61c-8.69,0-19.52,0-22.79-8.55-2.72-7.36-2.72-28.14-2.72-37V60.49C273.15,51.62,273.15,30.83,275.87,23.5Z"/><path class="cls-1" d="M326,3.29V52.65H337.7l.06-1.55c1.07-32.12,13.36-33.48,41-33.48h2.84c6.88,0,13.38-.08,15.93,2.46a4.78,4.78,0,0,1,1.27,3.57V153.39c0,19.26-2.69,27.21-29.81,28.33l-1.54.07v11.76s31.6-1.16,49.89-1.16c14,0,45.13,1.16,45.13,1.16V181.79l-1.54-.07c-27.12-1.12-29.81-9.07-29.81-28.33V23.64a4.27,4.27,0,0,1,1.24-3.21c3.13-3.08,11.74-2.95,18.66-2.85,1.31,0,2.6,0,3.82,0,27.07,0,35.8,7.84,37.37,33.52l.1,1.51H504V3.29s-68.32.45-89,.45S326,3.29,326,3.29Z"/><path class="cls-1" d="M187.45,181.57c-13.65-2.14-17.75-3.68-26.72-14.06L104.55,103c29.58-3.86,47.82-23.42,47.82-51.67,0-18.39-7.1-31.66-21.09-39.43C120.63,6,105.84,3.12,86,3.12c-5.93.14-20.19.64-35.89.64C33.85,3.76,0,3.1,0,3.1V14.92H2.35c9-.06,19.07,0,21.74,8.5,2.46,7.37,2.46,28.16,2.46,35V136c0,8.56,0,21.57-1.14,30.47a35.81,35.81,0,0,1-1.33,6.6c-2.74,8.49-13.68,8.49-22.47,8.49H0v11.82s26.34-1.16,44-1.16c15.14,0,41.48,1.13,41.47,1.16V181.56H83.08c-8.82,0-18.83,0-21.75-8.51A36.49,36.49,0,0,1,60,166.47c-1.13-8.83-1.14-21.49-1.14-28.4V106.35c10.51.09,11.43,1.19,16.84,7.73,1,1.2,2.14,2.57,3.46,4.1l46.89,58.19,13.79,17s15.12-.64,22.47-.64c10.68,0,26.49.66,26.49.66V181.79ZM58.87,93.42s0-68.71,0-69.11c0-2.75-.12-6.5,2.17-7.56,1.58-.7,16.87-.14,17.71-.14,24.1,0,37.94,14.11,37.94,38.69,0,17.92-4.77,28.2-15.45,33.35C91.27,93.46,58.87,93.42,58.87,93.42Z"/></svg>