<?xml version="1.0" encoding="utf-8"?>
<!-- Generator: Adobe Illustrator 25.0.1, SVG Export Plug-In . SVG Version: 6.00 Build 0)  -->
<svg version="1.1" id="Layer_1" xmlns="http://www.w3.org/2000/svg" xmlns:xlink="http://www.w3.org/1999/xlink" x="0px" y="0px"
	 viewBox="0 0 763.2 633.6" style="enable-background:new 0 0 763.2 633.6;" xml:space="preserve">
<style type="text/css">
	.st0{fill:#445097;}
	.st1{fill:#FFFFFF;}
	.st2{fill:#F3EBDE;}
	.st3{fill:#1A305F;}
	.st4{fill:#F26368;}
	.st5{fill:#FAA264;}
	.st6{fill:#293C80;}
	.st7{fill:#F9C2BA;}
	.st8{fill:#445093;}
	.st9{fill:#F8A26A;}
	.st10{fill:none;stroke:#1A305F;stroke-width:2.344;stroke-miterlimit:10;}
	.st11{fill:#F6EEE3;}
	.st12{fill:#EE6670;}
	.st13{fill:#1C335B;}
	.st14{fill:#F7A470;}
	.st15{fill:#EF656E;}
	.st16{fill:#1B325C;}
	.st17{fill:none;stroke:#1B325C;stroke-width:3.0008;stroke-linecap:round;stroke-linejoin:round;stroke-miterlimit:10;}
	.st18{fill:none;stroke:#1B325C;stroke-width:1.5004;stroke-linecap:round;stroke-linejoin:round;stroke-miterlimit:10;}
	.st19{fill:#F5EDE1;}
	.st20{fill:none;stroke:#1B325C;stroke-width:3.1644;stroke-linecap:round;stroke-linejoin:round;stroke-miterlimit:10;}
	.st21{fill:#1E325E;}
	.st22{opacity:5.000000e-02;fill:#FFFFFF;}
	.st23{fill:none;stroke:#FFFFFF;stroke-width:1.5786;stroke-miterlimit:10;}
	.st24{fill:#F9C3BC;}
	.st25{fill:#455296;}
	.st26{fill:#F7A36F;}
	.st27{fill:#F1646B;}
	.st28{fill:#F4ECE0;}
	.st29{fill:#F9A36A;}
	.st30{fill:#1B315E;}
	.st31{fill:none;stroke:#1B325C;stroke-width:0.8703;stroke-linecap:round;stroke-linejoin:round;stroke-miterlimit:10;}
	.st32{fill:#455292;}
	.st33{fill:#102E4D;}
	.st34{opacity:0.42;fill:#081827;enable-background:new    ;}
	
		.st35{opacity:0.4;fill:none;stroke:#F7A36F;stroke-width:4.1141;stroke-linecap:round;stroke-linejoin:round;stroke-miterlimit:10;}
	.st36{opacity:0.4;fill:#F7A36F;}
	
		.st37{opacity:0.4;fill:none;stroke:#F7A36F;stroke-width:4.0531;stroke-linecap:round;stroke-linejoin:round;stroke-miterlimit:10;}
</style>
<g>
	<polygon class="st1" points="763.4,455.8 530.8,211 439.8,211 90.9,514.5 763.4,518 	"/>
	<circle class="st2" cx="485.3" cy="202.4" r="19.6"/>
	<g>
		<g>
			<rect x="734.7" y="314" class="st3" width="28.8" height="174.4"/>
			
				<rect x="489.6" y="314" transform="matrix(-1 -4.507429e-11 4.507429e-11 -1 1017.3575 802.4374)" class="st0" width="38.1" height="174.4"/>
			
				<rect x="699.2" y="361.8" transform="matrix(-1 -4.492374e-11 4.492374e-11 -1 1434.6082 850.2068)" class="st4" width="36.2" height="126.7"/>
			
				<rect x="538.2" y="359.6" transform="matrix(-0.984 0.1784 -0.1784 -0.984 1179.0022 739.7478)" class="st4" width="36.2" height="126.7"/>
			
				<rect x="653.4" y="335.1" transform="matrix(-1 -4.490731e-11 4.490731e-11 -1 1352.6382 823.5729)" class="st5" width="45.8" height="153.3"/>
			
				<rect x="653.4" y="354.1" transform="matrix(-1 -4.502633e-11 4.502633e-11 -1 1352.6382 755.2692)" class="st0" width="45.8" height="47.2"/>
			<path class="st6" d="M763.4,333.5c-2.4-2.6-5.9-4.3-9.7-4.3c-7.3,0-13.2,5.9-13.2,13.2s5.9,13.2,13.2,13.2c3.8,0,7.3-1.6,9.7-4.3
				V333.5z"/>
			<rect x="612.3" y="375.8" class="st6" width="41.2" height="112.2"/>
			<circle class="st7" cx="508.9" cy="337.2" r="12.9"/>
			<rect x="612.3" y="385" class="st3" width="41.2" height="94.7"/>
		</g>
		<g>
			<path class="st5" d="M493.8,458H251.5c-4.9,0-8.8-3.9-8.8-8.8V288c0-4.9,3.9-8.8,8.8-8.8h242.3c4.9,0,8.8,3.9,8.8,8.8v161.3
				C502.6,454.1,498.7,458,493.8,458z"/>
			<path class="st3" d="M493.8,279.2H251.5c-4.9,0-8.8,3.9-8.8,8.8V430h259.9V288C502.6,283.1,498.7,279.2,493.8,279.2z"/>
			<rect x="315.4" y="483" class="st5" width="122.6" height="5.9"/>
			<rect x="340" y="458" class="st5" width="73" height="25"/>
			<rect x="258.4" y="294.3" class="st1" width="227.7" height="123.3"/>
			<circle class="st8" cx="377.3" cy="443.5" r="5"/>
			<polygon class="st4" points="340,458 340,467.7 413,458 			"/>
			<polygon class="st4" points="395.7,483 438.1,483 438.1,486.5 			"/>
			<g>
				<g>
					<path class="st11" d="M388,325h-26.6c-1.7,0-3.1-1.4-3.1-3.1v-9.7c0-1.7,1.4-3.1,3.1-3.1H388c1.7,0,3.1,1.4,3.1,3.1v9.7
						C391.1,323.6,389.7,325,388,325z"/>
					<path class="st12" d="M388,309.1h-26.5c-1.7,0-3.2-1.4-3.2-3.2l0,0c0-1.7,1.4-3.2,3.2-3.2H388c1.7,0,3.2,1.4,3.2,3.2l0,0
						C391.1,307.7,389.7,309.1,388,309.1z"/>
					<polygon class="st11" points="365.2,309.1 364,309.1 362.5,302.8 363.8,302.8 					"/>
					<polygon class="st11" points="371.2,309.1 370,309.1 368.6,302.8 369.8,302.8 					"/>
					<polygon class="st11" points="381.6,309.1 380.4,309.1 379,302.8 380.2,302.8 					"/>
					<polygon class="st11" points="387.4,309.1 386.2,309.1 384.8,302.8 386,302.8 					"/>
					<rect x="369.9" y="302.8" class="st13" width="10.5" height="22.3"/>
				</g>
				<g>
					<path class="st11" d="M311,418h-26.6c-1.7,0-3.1-1.4-3.1-3.1v-9.7c0-1.7,1.4-3.1,3.1-3.1H311c1.7,0,3.1,1.4,3.1,3.1v9.7
						C314.1,416.6,312.7,418,311,418z"/>
					<path class="st14" d="M311,402.1h-26.5c-1.7,0-3.2-1.4-3.2-3.2l0,0c0-1.7,1.4-3.2,3.2-3.2H311c1.7,0,3.2,1.4,3.2,3.2l0,0
						C314.1,400.7,312.7,402.1,311,402.1z"/>
					<polygon class="st11" points="288.2,402.1 287,402.1 285.5,395.8 286.8,395.8 					"/>
					<polygon class="st11" points="294.2,402.1 293,402.1 291.6,395.8 292.8,395.8 					"/>
					<polygon class="st11" points="304.6,402.1 303.4,402.1 302,395.8 303.2,395.8 					"/>
					<polygon class="st11" points="310.4,402.1 309.2,402.1 307.8,395.8 309,395.8 					"/>
					<rect x="292.9" y="395.8" class="st13" width="10.5" height="22.3"/>
				</g>
				<g>
					<path class="st15" d="M413.4,417.7l-76.6,0l0-84.3c0-4.6,3.8-8.4,8.4-8.4l59.8,0c4.6,0,8.4,3.8,8.4,8.4L413.4,417.7z"/>
					<path class="st16" d="M398.9,371.2L398.9,371.2c-1.1,2.8-4.3,4.2-7.1,3.1l-6.6-2.6c-2.8-1.1-4.2-4.3-3.1-7.1l0,0
						c1.1-2.8,4.3-4.2,7.1-3.1l6.6,2.6C398.6,365.2,400,368.4,398.9,371.2z"/>
					<path class="st16" d="M348.2,371.4L348.2,371.4c-1.2-2.8,0.2-6,3-7.2l6.5-2.7c2.8-1.2,6,0.2,7.2,3l0,0c1.2,2.8-0.2,6-3,7.2
						l-6.5,2.7C352.6,375.5,349.4,374.2,348.2,371.4z"/>
					<g>
						<path class="st14" d="M393.6,417.5c4.6-4.5,7.5-10.7,7.5-17.6c0-13.7-11.4-24.9-25.6-24.9c-14.1,0-25.6,11.1-25.6,24.9
							c0,6.9,2.8,13.1,7.5,17.6L393.6,417.5z"/>
						<path class="st15" d="M361.9,417.5c-3.1-1.1-6-2.8-8.4-4.9c1,1.8,2.2,3.4,3.6,4.9L361.9,417.5z"/>
						<path class="st15" d="M379.6,417.5l15.5,0c4.2-4.4,6.8-10.3,6.8-16.8c0-7.3-3.3-13.9-8.5-18.5c2,3.5,3.1,7.6,3.1,11.9
							C396.5,404.9,389.4,414,379.6,417.5z"/>
						<path class="st16" d="M383.4,384.6l1.3-1.5c0.7-0.7,1.8-0.8,2.6-0.2l2,1.7c0.8,0.6,0.8,1.8,0.2,2.5l-1.3,1.5
							c-0.7,0.7-1.8,0.8-2.6,0.2l-2-1.7C382.8,386.5,382.7,385.4,383.4,384.6z"/>
						<path class="st16" d="M366.7,409.7l1.3-1.5c0.7-0.7,1.8-0.8,2.6-0.2l2,1.7c0.8,0.6,0.8,1.8,0.2,2.5l-1.3,1.5
							c-0.7,0.7-1.8,0.8-2.6,0.2l-2-1.7C366.2,411.6,366.1,410.5,366.7,409.7z"/>
						<path class="st16" d="M380.5,406.4l-1.9-2.8c-0.6-0.9-0.3-2,0.6-2.5l3.6-2.3c0.9-0.5,2-0.3,2.6,0.6l1.9,2.8
							c0.6,0.9,0.3,2-0.6,2.5l-3.6,2.3C382.2,407.5,381,407.2,380.5,406.4z"/>
						<path class="st16" d="M382.3,416.4l-0.3-0.7c-0.4-0.9,0-1.9,1-2.3l1.6-0.7c0.9-0.4,2,0,2.4,0.9l0.3,0.7c0.4,0.9,0,1.9-1,2.3
							l-1.6,0.7C383.8,417.7,382.7,417.3,382.3,416.4z"/>
						<path class="st16" d="M368.2,392.2l0-3.1c0-1.1,0.9-1.9,2-1.9l3.3,0c1.1,0,1.9,0.9,1.9,2l0,3.1c0,1.1-0.9,1.9-2,1.9l-3.3,0
							C369.1,394.2,368.2,393.3,368.2,392.2z"/>
						<path class="st16" d="M392.8,400.7l0.6-1.4c0.2-0.5,0.8-0.8,1.4-0.6l1.5,0.6c0.5,0.2,0.8,0.8,0.6,1.3l-0.6,1.4
							c-0.2,0.5-0.8,0.8-1.4,0.6l-1.5-0.6C392.8,401.8,392.6,401.2,392.8,400.7z"/>
						<path class="st16" d="M356.3,402.2l-0.4-1.5c-0.1-0.6,0.2-1.1,0.8-1.2l1.5-0.4c0.6-0.1,1.1,0.2,1.3,0.8l0.4,1.5
							c0.1,0.6-0.2,1.1-0.8,1.2l-1.5,0.4C357,403.1,356.5,402.7,356.3,402.2z"/>
					</g>
					<path class="st17" d="M335.9,385.9l-8.8,8.8c-1.6,1.6-0.5,4.2,1.8,4.2l26.1,0"/>
					<path class="st17" d="M413.9,386.7l7.2,7.2c1.6,1.6,0.5,4.2-1.8,4.2l-15.7,0"/>
					<path class="st16" d="M346.6,398.9L346.6,398.9c0-1.5,1.2-2.8,2.8-2.8l3.5,0c1.5,0,2.8,1.2,2.8,2.8l0,0c0,1.5-1.2,2.8-2.8,2.8
						l-3.5,0C347.8,401.7,346.6,400.4,346.6,398.9z"/>
					<path class="st16" d="M396.3,398.9L396.3,398.9c0-1.5,1.2-2.8,2.8-2.8l3.5,0c1.5,0,2.8,1.2,2.8,2.8v0c0,1.5-1.2,2.8-2.8,2.8
						l-3.5,0C397.6,401.7,396.3,400.5,396.3,398.9z"/>
					<path class="st15" d="M369.8,378.5c1.5,0,3-1,3.4-2.5c0.7,1.3,2.1,2.3,3.6,2.5c1.5,0.2,3.1-0.3,4.2-1.3c0.8-0.7,1.3-2,0.5-2.8
						c-0.3-0.3-0.7-0.4-1-0.5c-3.3-0.9-6.7-1.4-10.1-1.5c-1.3,0-2.7,0-3.9,0.5c-0.6,0.2-1.2,0.5-1.5,1.1c-0.9,1.4,0.4,2.1,1.4,2.6
						C367.5,377.2,368.3,378.4,369.8,378.5z"/>
					<path class="st18" d="M366.4,375.6c0,4.2,7,4.2,7,0c0,4.2,8.8,4.2,8.8,0"/>
				</g>
			</g>
		</g>
		<g>
			<polyline class="st9" points="481.5,350.4 431.3,350.4 431.3,285.5 496.3,285.5 496.3,335.7 			"/>
			<polyline class="st4" points="481.5,350.4 481.5,335.7 496.3,335.7 			"/>
		</g>
		<g>
			<rect x="193.8" y="378.5" class="st7" width="9.5" height="3.7"/>
			<rect x="161.6" y="478.4" class="st0" width="59.6" height="10.5"/>
			<rect x="193.8" y="382.2" class="st0" width="8.3" height="19.8"/>
			<path class="st0" d="M198,370.6L198,370.6c1.4,0,2.6,1.2,2.6,2.6v5.2h-5.2v-5.2C195.4,371.8,196.5,370.6,198,370.6z"/>
			<path class="st0" d="M214.1,344.7L214.1,344.7c1.7,0,3.2,1.4,3.2,3.2v4.4c0,0.2-0.1,0.3-0.3,0.3h-5.7c-0.2,0-0.3-0.1-0.3-0.3
				v-4.4C211,346.1,212.4,344.7,214.1,344.7z"/>
			<polygon class="st3" points="161.6,478.4 161.6,483.6 195.8,478.4 			"/>
			<path class="st0" d="M230.2,420.3c24.9,0,24.9,37.6,0,37.6v10.9c39.7,0,39.7-59.5,0-59.5V420.3z"/>
			<path class="st3" d="M240.7,454.9c-2.8,1.8-6.3,2.9-10.6,2.9v10L240.7,454.9z"/>
			<path class="st3" d="M241.7,423.9c0.4-4.9,3.5-7,7-7.8l-0.1-1.1c-4.7-3.5-10.8-5.7-18.4-5.7v11.1
				C234.9,420.3,238.8,421.7,241.7,423.9z"/>
			<rect x="162.4" y="339.4" class="st7" width="15.6" height="60.2"/>
			<rect x="187" y="346.5" class="st4" width="9.5" height="5.5"/>
			<rect x="187" y="351.9" class="st0" width="9.5" height="3.7"/>
			<rect x="187" y="355.6" class="st9" width="9.5" height="43.9"/>
			<rect x="203.3" y="360.6" class="st4" width="9.5" height="5.5"/>
			<rect x="203.3" y="366.1" class="st0" width="9.5" height="3.7"/>
			<rect x="203.3" y="369.8" class="st9" width="9.5" height="43.9"/>
			<rect x="209.4" y="354.1" class="st0" width="9.5" height="49"/>
			<rect x="176" y="365.5" class="st7" width="9.5" height="5.5"/>
			<rect x="176" y="371" class="st0" width="9.5" height="3.7"/>
			<rect x="176" y="374.7" class="st9" width="9.5" height="43.9"/>
			<rect x="208.1" y="352.2" class="st7" width="12.8" height="3.9"/>
			<rect x="217.3" y="353.4" class="st7" width="3.6" height="27.3"/>
			<polygon class="st4" points="177.7,339.4 170.1,399.6 177.7,399.6 			"/>
			<circle class="st1" cx="170.2" cy="345.8" r="2.6"/>
			<rect x="162.4" y="352.9" class="st1" width="5.7" height="1.2"/>
			<rect x="162.4" y="362.9" class="st1" width="5.7" height="1.2"/>
			<rect x="162.4" y="372.8" class="st1" width="5.7" height="1.2"/>
			<rect x="162.4" y="382.8" class="st1" width="5.7" height="1.2"/>
			<rect x="162.4" y="392.8" class="st1" width="5.7" height="1.2"/>
			<rect x="152.2" y="399.6" class="st0" width="78.8" height="78.8"/>
			<polygon class="st3" points="231,399.6 231,407.1 152.4,399.6 			"/>
			<polyline class="st3" points="185.6,371 185.6,374.7 183.3,374.7 184.3,371 			"/>
			<polyline class="st4" points="184.3,371 185.6,365.8 185.6,371 			"/>
		</g>
		
			<rect x="130.9" y="481.8" transform="matrix(-1.836970e-16 1 -1 -1.836970e-16 620.1902 348.976)" class="st7" width="9.5" height="5.5"/>
		
			<rect x="126.3" y="482.7" transform="matrix(-1.836970e-16 1 -1 -1.836970e-16 615.597 353.5692)" class="st0" width="9.5" height="3.7"/>
		<polygon class="st9" points="85.2,489.3 75.2,484.6 85.2,479.8 129.2,479.8 129.2,489.3 		"/>
		<polyline class="st3" points="132.9,489.3 129.2,489.3 129.2,487.1 132.9,488 		"/>
		<polyline class="st4" points="132.9,488 138.1,489.3 132.9,489.3 		"/>
	</g>
	<g>
		<path class="st3" d="M530.8,211h-91l4-26.6c4.6-19.6,22.2-33.4,42.4-33.1h0c20.1,0.2,37.4,14.4,41.6,34.1L530.8,211z"/>
		<path class="st3" d="M504.3,176l-38-0.4l0.3-22.5c0.1-10.5,8.7-18.9,19.2-18.8h0c10.5,0.1,18.9,8.7,18.8,19.2L504.3,176z"/>
		<rect x="482.5" y="2" class="st3" width="5.4" height="159.9"/>
	</g>
</g>
<polygon class="st7" points="763.4,487.2 84.4,489.1 0.4,489.3 0.5,538.1 763.4,536 "/>
<polygon class="st4" points="763.4,535.2 32.7,537.2 33,633.9 763.4,631.8 "/>
</svg>
