<?xml version="1.0" encoding="utf-8"?>
<!-- Generator: Adobe Illustrator 25.0.1, SVG Export Plug-In . SVG Version: 6.00 Build 0)  -->
<svg version="1.1" id="Layer_1" xmlns="http://www.w3.org/2000/svg" xmlns:xlink="http://www.w3.org/1999/xlink" x="0px" y="0px"
	 viewBox="0 0 763.2 633.6" style="enable-background:new 0 0 763.2 633.6;" xml:space="preserve">
<style type="text/css">
	.st0{fill:#445097;}
	.st1{fill:#FFFFFF;}
	.st2{fill:#F3EBDE;}
	.st3{fill:#1A305F;}
	.st4{fill:#F26368;}
	.st5{fill:#FAA264;}
	.st6{fill:#293C80;}
	.st7{fill:#F9C2BA;}
	.st8{fill:#445093;}
	.st9{fill:#F8A26A;}
	.st10{fill:none;stroke:#1A305F;stroke-width:2.344;stroke-miterlimit:10;}
	.st11{fill:#F6EEE3;}
	.st12{fill:#EE6670;}
	.st13{fill:#1C335B;}
	.st14{fill:#F7A470;}
	.st15{fill:#EF656E;}
	.st16{fill:#1B325C;}
	.st17{fill:none;stroke:#1B325C;stroke-width:3.0008;stroke-linecap:round;stroke-linejoin:round;stroke-miterlimit:10;}
	.st18{fill:none;stroke:#1B325C;stroke-width:1.5004;stroke-linecap:round;stroke-linejoin:round;stroke-miterlimit:10;}
	.st19{fill:#F5EDE1;}
	.st20{fill:none;stroke:#1B325C;stroke-width:3.1644;stroke-linecap:round;stroke-linejoin:round;stroke-miterlimit:10;}
	.st21{fill:#1E325E;}
	.st22{opacity:5.000000e-02;fill:#FFFFFF;}
	.st23{fill:none;stroke:#FFFFFF;stroke-width:1.5786;stroke-miterlimit:10;}
	.st24{fill:#F9C3BC;}
	.st25{fill:#455296;}
	.st26{fill:#F7A36F;}
	.st27{fill:#F1646B;}
	.st28{fill:#F4ECE0;}
	.st29{fill:#F9A36A;}
	.st30{fill:#1B315E;}
	.st31{fill:none;stroke:#1B325C;stroke-width:0.8703;stroke-linecap:round;stroke-linejoin:round;stroke-miterlimit:10;}
	.st32{fill:#455292;}
	.st33{fill:#102E4D;}
	.st34{opacity:0.42;fill:#081827;enable-background:new    ;}
	
		.st35{opacity:0.4;fill:none;stroke:#F7A36F;stroke-width:4.1141;stroke-linecap:round;stroke-linejoin:round;stroke-miterlimit:10;}
	.st36{opacity:0.4;fill:#F7A36F;}
	
		.st37{opacity:0.4;fill:none;stroke:#F7A36F;stroke-width:4.0531;stroke-linecap:round;stroke-linejoin:round;stroke-miterlimit:10;}
</style>
<g>
	<polygon class="st1" points="763.2,455.8 530.6,211 439.6,211 90.7,514.5 763.2,518 	"/>
	<circle class="st2" cx="485.1" cy="202.4" r="19.6"/>
	<g>
		<g>
			<rect x="734.5" y="314" class="st3" width="28.8" height="174.4"/>
			
				<rect x="489.4" y="314" transform="matrix(-1 -4.507429e-11 4.507429e-11 -1 1016.9575 802.4374)" class="st0" width="38.1" height="174.4"/>
			
				<rect x="699" y="361.8" transform="matrix(-1 -4.492374e-11 4.492374e-11 -1 1434.2083 850.2068)" class="st4" width="36.2" height="126.7"/>
			
				<rect x="538" y="359.6" transform="matrix(-0.984 0.1784 -0.1784 -0.984 1178.6055 739.7835)" class="st4" width="36.2" height="126.7"/>
			
				<rect x="653.2" y="335.1" transform="matrix(-1 -4.490731e-11 4.490731e-11 -1 1352.2383 823.5729)" class="st5" width="45.8" height="153.3"/>
			
				<rect x="653.2" y="354.1" transform="matrix(-1 -4.502633e-11 4.502633e-11 -1 1352.2383 755.2692)" class="st0" width="45.8" height="47.2"/>
			<path class="st6" d="M763.2,333.5c-2.4-2.6-5.9-4.3-9.7-4.3c-7.3,0-13.2,5.9-13.2,13.2s5.9,13.2,13.2,13.2c3.8,0,7.3-1.6,9.7-4.3
				V333.5z"/>
			<rect x="612.1" y="375.8" class="st6" width="41.2" height="112.2"/>
			<circle class="st7" cx="508.7" cy="337.2" r="12.9"/>
			<rect x="612.1" y="385" class="st3" width="41.2" height="94.7"/>
		</g>
		<g>
			<path class="st5" d="M493.6,458H251.3c-4.9,0-8.8-3.9-8.8-8.8V288c0-4.9,3.9-8.8,8.8-8.8h242.3c4.9,0,8.8,3.9,8.8,8.8v161.3
				C502.4,454.1,498.5,458,493.6,458z"/>
			<path class="st3" d="M493.6,279.2H251.3c-4.9,0-8.8,3.9-8.8,8.8V430h259.9V288C502.4,283.1,498.5,279.2,493.6,279.2z"/>
			<rect x="315.2" y="483" class="st5" width="122.6" height="5.9"/>
			<rect x="339.8" y="458" class="st5" width="73" height="25"/>
			<rect x="258.2" y="294.3" class="st1" width="227.7" height="123.3"/>
			<circle class="st8" cx="377.1" cy="443.5" r="5"/>
			<polygon class="st4" points="339.8,458 339.8,467.7 412.8,458 			"/>
			<polygon class="st4" points="395.5,483 437.9,483 437.9,486.5 			"/>
			<g>
				<g>
					
						<rect x="341.1" y="336" transform="matrix(1 -4.913054e-03 4.913054e-03 1 -1.8475 1.8739)" class="st15" width="78.8" height="81.9"/>
					<polygon class="st14" points="347.1,315.4 347.1,304.3 366.3,315.3 					"/>
					<polygon class="st14" points="414.8,315.1 414.8,304 395.7,315.2 					"/>
					<polygon class="st14" points="347.1,315.4 414.8,315.1 419.6,326.3 419.7,337.6 340.9,338 340.9,326.7 					"/>
					
						<rect x="365.5" y="328.5" transform="matrix(1 -4.913054e-03 4.913054e-03 1 -1.64 1.8361)" class="st19" width="14.9" height="12.5"/>
					
						<rect x="380.4" y="328.4" transform="matrix(1 -4.913054e-03 4.913054e-03 1 -1.6395 1.9093)" class="st19" width="14.9" height="12.5"/>
					
						<rect x="371.7" y="323.3" transform="matrix(1 -4.913054e-03 4.913054e-03 1 -1.6073 1.8725)" class="st16" width="17.2" height="9.6"/>
					<path class="st1" d="M369.2,346.3L369.2,346.3c-0.9,0-1.7-0.8-1.7-1.7l0-3.6l3.4,0l0,3.6C370.9,345.5,370.2,346.3,369.2,346.3z
						"/>
					<path class="st1" d="M347.7,349.6L347.7,349.6c-0.6,0-1.2-0.5-1.2-1.2l0-2.5l2.3,0l0,2.5C348.8,349,348.3,349.5,347.7,349.6z"
						/>
					<path class="st1" d="M343,349.6L343,349.6c-0.6,0-1.2-0.5-1.2-1.2l0-2.5l2.3,0l0,2.5C344.2,349,343.7,349.6,343,349.6z"/>
					<path class="st1" d="M352.3,349.5L352.3,349.5c-0.6,0-1.2-0.5-1.2-1.2l0-2.5l2.3,0l0,2.5C353.5,349,352.9,349.5,352.3,349.5z"
						/>
					<path class="st1" d="M412.8,349.2L412.8,349.2c-0.6,0-1.2-0.5-1.2-1.2l0-2.5l2.3,0l0,2.5C414,348.7,413.4,349.2,412.8,349.2z"
						/>
					<path class="st1" d="M408.2,349.3L408.2,349.3c-0.6,0-1.2-0.5-1.2-1.2l0-2.5l2.3,0l0,2.5C409.3,348.7,408.8,349.3,408.2,349.3z
						"/>
					<path class="st1" d="M417.4,349.2L417.4,349.2c-0.6,0-1.2-0.5-1.2-1.2l0-2.5l2.3,0l0,2.5C418.6,348.7,418.1,349.2,417.4,349.2z
						"/>
					<path class="st1" d="M391.6,346.2L391.6,346.2c-0.9,0-1.7-0.8-1.7-1.7l0-3.6l3.4,0l0,3.6C393.3,345.4,392.5,346.1,391.6,346.2z
						"/>
					
						<rect x="373.3" y="315.3" transform="matrix(1 -4.913054e-03 4.913054e-03 1 -1.554 1.8422)" class="st16" width="1.7" height="3.9"/>
					
						<rect x="379.4" y="315.3" transform="matrix(1 -4.913054e-03 4.913054e-03 1 -1.5538 1.8718)" class="st16" width="1.7" height="3.9"/>
					
						<rect x="385.2" y="315.2" transform="matrix(1 -4.913054e-03 4.913054e-03 1 -1.5536 1.9006)" class="st16" width="1.7" height="3.9"/>
					
						<rect x="359.3" y="330.1" transform="matrix(1 -4.913054e-03 4.913054e-03 1 -1.6191 1.7865)" class="st16" width="7.1" height="0.7"/>
					
						<rect x="359.3" y="332" transform="matrix(1 -4.913054e-03 4.913054e-03 1 -1.6283 1.7866)" class="st16" width="7.1" height="0.7"/>
					
						<rect x="359.3" y="333.8" transform="matrix(1 -4.913054e-03 4.913054e-03 1 -1.6375 1.7866)" class="st16" width="7.1" height="0.7"/>
					
						<rect x="394.2" y="329.9" transform="matrix(1 -4.913054e-03 4.913054e-03 1 -1.6179 1.9583)" class="st16" width="7.1" height="0.7"/>
					
						<rect x="394.3" y="331.8" transform="matrix(1 -4.913054e-03 4.913054e-03 1 -1.627 1.9583)" class="st16" width="7.1" height="0.7"/>
					
						<rect x="394.3" y="333.7" transform="matrix(1 -4.913054e-03 4.913054e-03 1 -1.6362 1.9584)" class="st16" width="7.1" height="0.7"/>
					
						<rect x="379.3" y="332.9" transform="matrix(1 -4.913054e-03 4.913054e-03 1 -1.6506 1.8725)" class="st14" width="2" height="8.1"/>
					
						<rect x="337.5" y="338" transform="matrix(1 -4.913054e-03 4.913054e-03 1 -1.6797 1.7067)" class="st14" width="18.1" height="9.5"/>
					
						<rect x="405.4" y="337.6" transform="matrix(1 -4.913054e-03 4.913054e-03 1 -1.6772 2.0403)" class="st14" width="18.1" height="9.5"/>
					<polygon class="st16" points="347.1,304.3 355.5,315.4 347.1,315.4 					"/>
					<polygon class="st16" points="414.8,304 406.5,315.1 414.8,315.1 					"/>
					<path class="st19" d="M394.2,326.6l7,0c1.8,0,3.2-1.5,3.2-3.3l0-3.4l-10.3,3.2L394.2,326.6z"/>
					<path class="st19" d="M366.8,326.7l-7,0c-1.8,0-3.2-1.4-3.3-3.2l0-3.4l10.3,3.1L366.8,326.7z"/>
					<path class="st16" d="M366.7,326.7l-7.2,0c-2,0-3.6-1.6-3.6-3.5l0,0l10.8-0.1L366.7,326.7z"/>
					<path class="st16" d="M401.2,326.6l-7.2,0l0-3.5l10.8-0.1l0,0C404.8,325,403.2,326.6,401.2,326.6z"/>
					<polygon class="st19" points="347.1,315.4 347.2,338 340.9,338 340.9,326.7 					"/>
					<polygon class="st19" points="414.8,315.1 414.9,337.6 421.3,337.6 421.2,326.3 					"/>
					
						<rect x="340.9" y="326.7" transform="matrix(1 -4.913054e-03 4.913054e-03 1 -1.6056 1.699)" class="st16" width="8.3" height="1.9"/>
					
						<rect x="340.9" y="329.9" transform="matrix(1 -4.913054e-03 4.913054e-03 1 -1.6211 1.6991)" class="st16" width="8.3" height="1.9"/>
					
						<rect x="340.9" y="333" transform="matrix(1 -4.913054e-03 4.913054e-03 1 -1.6367 1.6992)" class="st16" width="8.3" height="1.9"/>
					
						<rect x="413.2" y="326.3" transform="matrix(1 -4.913054e-03 4.913054e-03 1 -1.603 2.0542)" class="st16" width="8.3" height="1.9"/>
					
						<rect x="413.2" y="329.5" transform="matrix(1 -4.913054e-03 4.913054e-03 1 -1.6185 2.0543)" class="st16" width="8.3" height="1.9"/>
					
						<rect x="413.2" y="332.7" transform="matrix(1 -4.913054e-03 4.913054e-03 1 -1.6341 2.0545)" class="st16" width="8.3" height="1.9"/>
				</g>
				<path class="st16" d="M365.1,374.6L365.1,374.6c-3.2,0-5.8-2.6-5.8-5.8l0-7.4c0-3.2,2.6-5.8,5.8-5.8h0c3.2,0,5.8,2.6,5.8,5.8
					l0,7.4C370.9,372,368.3,374.6,365.1,374.6z"/>
				<path class="st16" d="M396,374.4L396,374.4c-3.2,0-5.8-2.6-5.8-5.8l0-7.4c0-3.2,2.6-5.8,5.8-5.8l0,0c3.2,0,5.8,2.6,5.8,5.8
					l0,7.4C401.8,371.8,399.2,374.4,396,374.4z"/>
				
					<rect x="357" y="352" transform="matrix(0.9051 0.4252 -0.4252 0.9051 186.582 -121.8173)" class="st15" width="18.4" height="10.3"/>
				<path class="st20" d="M378.2,381.7c4.9,0.4,9.8-1,12.5-3.6"/>
				<line class="st20" x1="413.8" y1="384.1" x2="384.3" y2="419.4"/>
				<path class="st21" d="M365.9,414.7l-67.1,0.3l-0.2-32.1c0-3.7,3-6.8,6.8-6.8l53.6-0.3c3.7,0,6.8,3,6.8,6.8L365.9,414.7z"/>
				
					<rect x="298.8" y="413.3" transform="matrix(1 -4.913054e-03 4.913054e-03 1 -2.0496 1.6915)" class="st21" width="88.9" height="9.4"/>
			</g>
		</g>
		<g>
			<polyline class="st9" points="481.3,350.4 431.1,350.4 431.1,285.5 496.1,285.5 496.1,335.7 			"/>
			<polyline class="st4" points="481.3,350.4 481.3,335.7 496.1,335.7 			"/>
		</g>
		<g>
			<rect x="193.6" y="378.5" class="st7" width="9.5" height="3.7"/>
			<rect x="161.4" y="478.4" class="st0" width="59.6" height="10.5"/>
			<rect x="193.6" y="382.2" class="st0" width="8.3" height="19.8"/>
			<path class="st0" d="M197.8,370.6L197.8,370.6c1.4,0,2.6,1.2,2.6,2.6v5.2h-5.2v-5.2C195.2,371.8,196.3,370.6,197.8,370.6z"/>
			<path class="st0" d="M213.9,344.7L213.9,344.7c1.7,0,3.2,1.4,3.2,3.2v4.4c0,0.2-0.1,0.3-0.3,0.3h-5.7c-0.2,0-0.3-0.1-0.3-0.3
				v-4.4C210.8,346.1,212.2,344.7,213.9,344.7z"/>
			<polygon class="st3" points="161.4,478.4 161.4,483.6 195.6,478.4 			"/>
			<path class="st0" d="M230,420.3c24.9,0,24.9,37.6,0,37.6v10.9c39.7,0,39.7-59.5,0-59.5V420.3z"/>
			<path class="st3" d="M240.5,454.9c-2.8,1.8-6.3,2.9-10.6,2.9v10L240.5,454.9z"/>
			<path class="st3" d="M241.5,423.9c0.4-4.9,3.5-7,7-7.8l-0.1-1.1c-4.7-3.5-10.8-5.7-18.4-5.7v11.1
				C234.7,420.3,238.6,421.7,241.5,423.9z"/>
			<rect x="162.2" y="339.4" class="st7" width="15.6" height="60.2"/>
			<rect x="186.8" y="346.5" class="st4" width="9.5" height="5.5"/>
			<rect x="186.8" y="351.9" class="st0" width="9.5" height="3.7"/>
			<rect x="186.8" y="355.6" class="st9" width="9.5" height="43.9"/>
			<rect x="203.1" y="360.6" class="st4" width="9.5" height="5.5"/>
			<rect x="203.1" y="366.1" class="st0" width="9.5" height="3.7"/>
			<rect x="203.1" y="369.8" class="st9" width="9.5" height="43.9"/>
			<rect x="209.2" y="354.1" class="st0" width="9.5" height="49"/>
			<rect x="175.8" y="365.5" class="st7" width="9.5" height="5.5"/>
			<rect x="175.8" y="371" class="st0" width="9.5" height="3.7"/>
			<rect x="175.8" y="374.7" class="st9" width="9.5" height="43.9"/>
			<rect x="207.9" y="352.2" class="st7" width="12.8" height="3.9"/>
			<rect x="217.1" y="353.4" class="st7" width="3.6" height="27.3"/>
			<polygon class="st4" points="177.5,339.4 169.9,399.6 177.5,399.6 			"/>
			<circle class="st1" cx="170" cy="345.8" r="2.6"/>
			<rect x="162.2" y="352.9" class="st1" width="5.7" height="1.2"/>
			<rect x="162.2" y="362.9" class="st1" width="5.7" height="1.2"/>
			<rect x="162.2" y="372.8" class="st1" width="5.7" height="1.2"/>
			<rect x="162.2" y="382.8" class="st1" width="5.7" height="1.2"/>
			<rect x="162.2" y="392.8" class="st1" width="5.7" height="1.2"/>
			<rect x="152" y="399.6" class="st0" width="78.8" height="78.8"/>
			<polygon class="st3" points="230.8,399.6 230.8,407.1 152.2,399.6 			"/>
			<polyline class="st3" points="185.4,371 185.4,374.7 183.1,374.7 184.1,371 			"/>
			<polyline class="st4" points="184.1,371 185.4,365.8 185.4,371 			"/>
		</g>
		
			<rect x="130.7" y="481.8" transform="matrix(-1.836970e-16 1 -1 -1.836970e-16 619.9902 349.176)" class="st7" width="9.5" height="5.5"/>
		
			<rect x="126.1" y="482.7" transform="matrix(-1.836970e-16 1 -1 -1.836970e-16 615.397 353.7692)" class="st0" width="9.5" height="3.7"/>
		<polygon class="st9" points="85,489.3 75,484.6 85,479.8 129,479.8 129,489.3 		"/>
		<polyline class="st3" points="132.7,489.3 129,489.3 129,487.1 132.7,488 		"/>
		<polyline class="st4" points="132.7,488 137.9,489.3 132.7,489.3 		"/>
	</g>
	<g>
		<path class="st3" d="M530.6,211h-91l4-26.6c4.6-19.6,22.2-33.4,42.4-33.1h0c20.1,0.2,37.4,14.4,41.6,34.1L530.6,211z"/>
		<path class="st3" d="M504.1,176l-38-0.4l0.3-22.5c0.1-10.5,8.7-18.9,19.2-18.8h0c10.5,0.1,18.9,8.7,18.8,19.2L504.1,176z"/>
		<rect x="482.3" y="2" class="st3" width="5.4" height="159.9"/>
	</g>
</g>
<polygon class="st7" points="763.2,487.2 84.2,489.1 0.2,489.3 0.3,538.1 763.2,536 "/>
<polygon class="st4" points="763.2,535.2 32.5,537.2 32.8,633.9 763.2,631.8 "/>
</svg>
