<?xml version="1.0" encoding="utf-8"?>
<!-- Generator: Adobe Illustrator 25.0.1, SVG Export Plug-In . SVG Version: 6.00 Build 0)  -->
<svg version="1.1" id="Layer_1" xmlns="http://www.w3.org/2000/svg" xmlns:xlink="http://www.w3.org/1999/xlink" x="0px" y="0px"
	 viewBox="0 0 643.7 396" style="enable-background:new 0 0 643.7 396;" xml:space="preserve">
<style type="text/css">
	.st0{fill:#FFFFFF;}
	.st1{fill:#F9A56F;}
	.st2{fill:#2A417D;}
	.st3{fill:#F1646E;}
</style>
<g>
	
		<image style="overflow:visible;opacity:0.25;" width="2907" height="1876" xlink:href="5DD5071842A0AF3F.png"  transform="matrix(0.24 0 0 0.24 -18.4597 -17.4243)">
	</image>
	<g>
		<g>
			<polygon class="st0" points="543,0.8 517.4,0.7 517.4,148.7 460.3,148.7 460.3,0.7 334.7,0.7 334.7,296.6 434.8,396.7 
				460.3,396.7 460.3,249.2 517.4,249.2 517.4,396.7 643,396.7 643,100.9 			"/>
			<path class="st0" d="M313.9,101.8L212.8,0.7h-87.7H108H-0.4v295.9L99.7,396.7h33h180.7V283.2l-64.6-64.6h64.5L313.9,101.8z
				 M125.1,101.2h62.2v47.5h-62.2V101.2z M125.1,249.2h62.2v47.1h-62.2V249.2z"/>
		</g>
	</g>
</g>
<g>
	
		<image style="overflow:visible;opacity:0.25;" width="2757" height="1726" xlink:href="5DD5071842A0AF3D.png"  transform="matrix(0.24 0 0 0.24 -0.4597 0.5757)">
	</image>
	<g>
		<g>
			<polygon class="st1" points="352.7,18.7 352.7,289.2 442.3,378.7 442.3,289.2 442.3,18.7 			"/>
			<polygon class="st2" points="295.4,200.6 205.4,200.6 205.4,18.7 295.8,109.2 			"/>
			<polygon class="st1" points="17.6,18.7 17.6,289.2 107.1,378.7 107.1,289.2 107.1,18.7 			"/>
			<polygon class="st2" points="535.4,18.7 625,108.3 625,378.7 535.4,378.7 			"/>
			<rect x="461.2" y="166.7" class="st3" width="74.2" height="64.5"/>
			<rect x="126" y="166.7" class="st3" width="79.3" height="64.5"/>
			<polygon class="st2" points="205.4,200.6 205.4,290.7 205.4,314.3 126,314.3 126,378.7 205.4,378.7 295.4,378.7 295.4,290.7 			
				"/>
			<rect x="126" y="18.7" class="st3" width="79.3" height="64.5"/>
		</g>
	</g>
</g>
</svg>
