<svg id="Layer_1" data-name="Layer 1" xmlns="http://www.w3.org/2000/svg" viewBox="0 0 720 720"><defs><style>.cls-1{fill:#f8f0e5;}.cls-2{fill:#475596;}.cls-3{fill:#1d325d;}.cls-4{fill:#fff;}.cls-5{fill:#475591;}.cls-6{fill:#2d417d;}.cls-7{font-size:17.96px;font-family:Poppins-Bold, Poppins;font-weight:700;}.cls-13,.cls-7{fill:#f4ede2;}.cls-15,.cls-16,.cls-8,.cls-9{fill:none;}.cls-8{stroke:#f4ede2;stroke-width:0.62px;}.cls-15,.cls-8{stroke-miterlimit:10;}.cls-15,.cls-9{stroke:#1d325d;stroke-width:2.48px;}.cls-16,.cls-9{stroke-linecap:round;stroke-linejoin:round;}.cls-10{fill:#fac5bf;}.cls-11{fill:#f9a570;}.cls-12{fill:#f0656f;}.cls-14,.cls-17{fill:#f6a475;}.cls-16{stroke:#f6a475;stroke-width:5px;}.cls-16,.cls-17{opacity:0.4;}</style></defs><path class="cls-1" d="M597.9,577.7c-15.25,12.11-32.85,21-51,28C468.4,636.08,380.32,632,298.25,613.36c-38.19-8.75-76-20.69-110.45-39.59-14.82-8.12-29.72-16.26-43.33-26.34-13.35-9.88-21.82-20.8-29.11-35.77C101.89,484,97.05,452.1,103.3,421.85c7.66-37,27.59-70.76,52.37-98.88,54.19-61.51,123.84-109.2,201.18-134.63,56.84-18.69,119.4-26.78,177.35-8,76.48,24.74,112.85,96.9,123.72,172C668.73,427,661.6,527.13,597.9,577.7Z"/><rect class="cls-2" x="156.49" y="266.14" width="130.9" height="168.16"/><rect class="cls-3" x="156.49" y="266.14" width="130.9" height="40.67"/><rect class="cls-3" x="156.49" y="416.42" width="130.9" height="19.09"/><circle class="cls-4" cx="171.06" cy="274.02" r="3.14"/><circle class="cls-4" cx="188.15" cy="274.02" r="3.14"/><circle class="cls-4" cx="205.23" cy="274.02" r="3.14"/><circle class="cls-4" cx="222.31" cy="274.02" r="3.14"/><circle class="cls-4" cx="239.39" cy="274.02" r="3.14"/><circle class="cls-4" cx="256.47" cy="274.02" r="3.14"/><circle class="cls-4" cx="273.55" cy="274.02" r="3.14"/><rect class="cls-5" x="169.2" y="260.54" width="3.48" height="13.48" rx="1.74"/><rect class="cls-5" x="186.29" y="260.54" width="3.48" height="13.48" rx="1.74"/><rect class="cls-5" x="203.37" y="260.54" width="3.48" height="13.48" rx="1.74"/><rect class="cls-5" x="220.45" y="260.54" width="3.48" height="13.48" rx="1.74"/><rect class="cls-5" x="237.53" y="260.54" width="3.48" height="13.48" rx="1.74"/><rect class="cls-5" x="254.61" y="260.54" width="3.48" height="13.48" rx="1.74"/><rect class="cls-5" x="271.69" y="260.54" width="3.48" height="13.48" rx="1.74"/><polygon class="cls-6" points="156.49 306.8 156.49 318.48 258.09 306.8 156.49 306.8"/><text class="cls-7" transform="translate(166.05 298.7)">february</text><rect class="cls-8" x="166.67" y="324.34" width="111.27" height="81.69"/><line class="cls-8" x1="166.67" y1="339.63" x2="277.94" y2="339.63"/><line class="cls-8" x1="166.67" y1="356.67" x2="277.94" y2="356.67"/><line class="cls-8" x1="166.67" y1="373.71" x2="277.94" y2="373.71"/><line class="cls-8" x1="166.67" y1="390.75" x2="277.94" y2="390.75"/><line class="cls-8" x1="230.62" y1="324.34" x2="230.62" y2="406.03"/><line class="cls-8" x1="214.51" y1="324.34" x2="214.51" y2="406.03"/><line class="cls-8" x1="246.72" y1="324.34" x2="246.72" y2="406.03"/><line class="cls-8" x1="262.83" y1="324.34" x2="262.83" y2="406.03"/><line class="cls-8" x1="198.41" y1="324.34" x2="198.41" y2="406.03"/><line class="cls-8" x1="182.3" y1="324.34" x2="182.3" y2="406.03"/><rect class="cls-9" x="331.56" y="193.85" width="299.71" height="214.33"/><line class="cls-9" x1="331.56" y1="322.45" x2="631.27" y2="322.45"/><line class="cls-9" x1="331.56" y1="365.31" x2="631.27" y2="365.31"/><line class="cls-9" x1="331.56" y1="408.18" x2="631.27" y2="408.18"/><line class="cls-9" x1="331.56" y1="279.58" x2="631.27" y2="279.58"/><line class="cls-9" x1="631.27" y1="236.72" x2="331.56" y2="236.72"/><line class="cls-9" x1="374.08" y1="193.85" x2="374.08" y2="408.18"/><line class="cls-9" x1="416.94" y1="193.85" x2="416.94" y2="408.18"/><line class="cls-9" x1="459.81" y1="193.85" x2="459.81" y2="408.18"/><line class="cls-9" x1="502.67" y1="193.85" x2="502.67" y2="408.18"/><line class="cls-9" x1="545.54" y1="193.85" x2="545.54" y2="408.18"/><line class="cls-9" x1="588.4" y1="193.85" x2="588.4" y2="408.18"/><rect class="cls-10" x="363.44" y="240.45" width="53.51" height="74.34"/><rect class="cls-4" x="367.42" y="247.05" width="45.54" height="57.68"/><rect class="cls-10" x="535.82" y="199.8" width="53.51" height="74.34"/><rect class="cls-4" x="539.8" y="206.39" width="45.8" height="57.99"/><path class="cls-11" d="M395.28,304.86A27.48,27.48,0,0,0,403,285.67c0-15-11.86-27.24-26.5-27.24a25.81,25.81,0,0,0-9.16,1.67v44.76Z"/><path class="cls-12" d="M396.85,290.7A27.92,27.92,0,0,1,393,304.86h2.55A27.75,27.75,0,0,0,403.86,285c0-15.14-11.87-27.41-26.51-27.41a25.75,25.75,0,0,0-10,2v3.86a27.18,27.18,0,0,1,3-.18C385,263.29,396.85,275.56,396.85,290.7Z"/><path class="cls-3" d="M387,295l-1.61-1.42a2,2,0,0,1-.19-2.74l1.82-2.16a1.85,1.85,0,0,1,2.67-.2l1.6,1.42a2,2,0,0,1,.19,2.75l-1.82,2.16A1.84,1.84,0,0,1,387,295Z"/><path class="cls-3" d="M383.35,280.33l-3,2a1.93,1.93,0,0,1-2.7-.61l-2.42-3.89a2,2,0,0,1,.6-2.77l3-2a1.91,1.91,0,0,1,2.69.61l2.42,3.89A2,2,0,0,1,383.35,280.33Z"/><path class="cls-3" d="M394.06,278.33l-.73.32a1.86,1.86,0,0,1-2.46-1l-.71-1.74a2,2,0,0,1,1-2.53l.74-.31a1.86,1.86,0,0,1,2.46,1l.71,1.74A1.94,1.94,0,0,1,394.06,278.33Z"/><path class="cls-3" d="M368.27,285.67h-.93v7.71h.93a2.08,2.08,0,0,0,2.08-2.08v-3.56A2.08,2.08,0,0,0,368.27,285.67Z"/><path class="cls-3" d="M377.31,267.23l-1.53-.61a1.14,1.14,0,0,1-.62-1.46l.6-1.57a1.09,1.09,0,0,1,1.42-.64l1.53.62a1.14,1.14,0,0,1,.62,1.46l-.6,1.57A1.08,1.08,0,0,1,377.31,267.23Z"/><path class="cls-3" d="M375.8,304.86h3.92c0-.05,0-.11,0-.16l-.38-1.64a1.09,1.09,0,0,0-1.32-.83l-1.59.39a1.13,1.13,0,0,0-.82,1.36Z"/><polygon class="cls-12" points="416.95 240.45 416.95 245.62 388.29 240.45 416.95 240.45"/><path class="cls-11" d="M413.29,246.78H391.92a27,27,0,0,0,21.37,25.6Z"/><path class="cls-3" d="M405,246.78a2,2,0,0,0-.24.94v3.56a2.08,2.08,0,0,0,2.08,2.08h3.35a2.08,2.08,0,0,0,2.08-2.08v-3.56a2,2,0,0,0-.24-.94Z"/><rect class="cls-13" x="387.35" y="229.07" width="8.55" height="19.96"/><polygon class="cls-10" points="387.35 229.07 395.9 232.08 395.9 229.07 387.35 229.07"/><rect class="cls-14" x="558.3" y="188.42" width="8.55" height="19.96"/><polygon class="cls-12" points="558.3 188.41 566.85 191.43 566.85 188.41 558.3 188.41"/><path class="cls-13" d="M564.47,245.11H539.83v19.27h24.64a3.75,3.75,0,0,0,3.75-3.75V248.87A3.75,3.75,0,0,0,564.47,245.11Z"/><path class="cls-11" d="M564.41,237.49H539.83v7.62h24.58a3.8,3.8,0,0,0,3.81-3.81h0A3.81,3.81,0,0,0,564.41,237.49Z"/><polygon class="cls-13" points="544.22 245.11 542.75 245.11 541.03 237.49 542.5 237.49 544.22 245.11"/><polygon class="cls-13" points="556.78 245.11 555.31 245.11 553.59 237.49 555.06 237.49 556.78 245.11"/><polygon class="cls-13" points="563.74 245.11 562.27 245.11 560.55 237.49 562.02 237.49 563.74 245.11"/><rect class="cls-3" x="542.56" y="237.49" width="12.62" height="26.89"/><path class="cls-13" d="M585.6,245.11h-7.91a3.75,3.75,0,0,0-3.75,3.76v11.76a3.75,3.75,0,0,0,3.75,3.75h7.91Z"/><path class="cls-12" d="M585.6,237.49h-7.85a3.82,3.82,0,0,0-3.81,3.81h0a3.81,3.81,0,0,0,3.81,3.81h7.85Z"/><polygon class="cls-13" points="582.23 245.11 580.76 245.11 579.04 237.49 580.51 237.49 582.23 245.11"/><path class="cls-13" d="M585.6,218.35l-.33,0h-32.1a3.75,3.75,0,0,0-3.76,3.75v11.76a3.76,3.76,0,0,0,3.76,3.76h32.1l.33,0Z"/><path class="cls-10" d="M585.6,210.72l-.39,0h-32a3.82,3.82,0,0,0-3.82,3.82h0a3.82,3.82,0,0,0,3.82,3.81h32l.39,0Z"/><polygon class="cls-13" points="557.7 218.33 556.23 218.33 554.51 210.71 555.98 210.71 557.7 218.33"/><polygon class="cls-13" points="565.02 218.33 563.55 218.33 561.83 210.71 563.3 210.71 565.02 218.33"/><polygon class="cls-13" points="577.57 218.33 576.1 218.33 574.38 210.71 575.86 210.71 577.57 218.33"/><polygon class="cls-13" points="584.53 218.33 583.07 218.33 581.35 210.71 582.82 210.71 584.53 218.33"/><rect class="cls-3" x="563.35" y="210.7" width="12.62" height="26.89"/><path class="cls-2" d="M651.14,493.11v-80.2H615.75V560.65C632.46,541.57,643.84,518.25,651.14,493.11Z"/><rect class="cls-2" x="433.23" y="412.91" width="35.39" height="161.88" transform="translate(901.86 987.69) rotate(-180)"/><path class="cls-12" d="M616.41,457.23H582.85V574.78h18.59a137.5,137.5,0,0,0,15-14.88Z"/><rect class="cls-12" x="487.84" y="455.03" width="33.55" height="117.55" transform="translate(1153.63 825.9) rotate(160.16)"/><rect class="cls-11" x="540.34" y="432.52" width="42.51" height="142.26" transform="translate(1123.19 1007.3) rotate(-180)"/><rect class="cls-2" x="540.34" y="450.07" width="42.51" height="43.77" transform="translate(1123.19 943.92) rotate(-180)"/><circle class="cls-6" cx="633.45" cy="439.34" r="12.28"/><path class="cls-10" d="M190.57,575.27c33.72,18,70.52,29.57,107.68,38.09,82.07,18.61,170.15,22.72,248.64-7.64,18.16-7,35.76-15.91,51-28,1-.8,2-1.6,3-2.43Z"/><rect class="cls-11" x="213.54" y="352.53" width="274.69" height="189.04" rx="9.29"/><path class="cls-3" d="M222.83,352.53H478.94a9.29,9.29,0,0,1,9.29,9.29V512a0,0,0,0,1,0,0H213.54a0,0,0,0,1,0,0V361.82A9.29,9.29,0,0,1,222.83,352.53Z"/><rect class="cls-11" x="290.4" y="567.97" width="129.62" height="6.19"/><rect class="cls-11" x="316.32" y="541.57" width="77.18" height="26.4"/><rect class="cls-4" x="230.11" y="368.52" width="240.7" height="130.31"/><circle class="cls-5" cx="355.78" cy="526.19" r="5.32"/><polygon class="cls-12" points="316.32 541.57 316.32 551.8 393.5 541.57 316.32 541.57"/><polygon class="cls-12" points="375.19 567.97 420.02 567.97 420.02 571.68 375.19 567.97"/><polyline class="cls-14" points="465.96 427.86 412.9 427.86 412.9 359.23 481.53 359.23 481.53 412.29"/><polyline class="cls-12" points="465.96 427.86 465.96 412.29 481.53 412.29"/><rect class="cls-10" x="168.08" y="456.34" width="10.05" height="3.91"/><path class="cls-2" d="M186.42,573H197V562H166.74C173.28,565.8,179.9,569.44,186.42,573Z"/><rect class="cls-2" x="168.08" y="460.25" width="8.76" height="20.98"/><path class="cls-2" d="M172.45,448h0a2.76,2.76,0,0,1,2.76,2.76v5.54a0,0,0,0,1,0,0h-5.52a0,0,0,0,1,0,0V450.8A2.76,2.76,0,0,1,172.45,448Z"/><path class="cls-2" d="M189.54,420.66h0a3.34,3.34,0,0,1,3.34,3.34v4.65a.31.31,0,0,1-.31.31H186.5a.31.31,0,0,1-.31-.31V424A3.34,3.34,0,0,1,189.54,420.66Z"/><path class="cls-3" d="M170,563.87,182.51,562H166.74Z"/><path class="cls-2" d="M206.52,500.54c26.28,0,26.28,39.72,0,39.72v11.5c42,0,42-62.91,0-62.91Z"/><path class="cls-3" d="M217.67,537.18a20.1,20.1,0,0,1-11.15,3.08v10.58Z"/><path class="cls-3" d="M218.7,504.34c.45-5.14,3.7-7.43,7.4-8.28L226,494.9c-5-3.74-11.46-6-19.5-6v11.69A19.72,19.72,0,0,1,218.7,504.34Z"/><rect class="cls-10" x="134.89" y="415.06" width="16.47" height="63.61"/><rect class="cls-12" x="160.89" y="422.51" width="10.05" height="5.8"/><rect class="cls-2" x="160.89" y="428.31" width="10.05" height="3.91"/><rect class="cls-14" x="160.89" y="432.22" width="10.05" height="46.45"/><rect class="cls-12" x="178.13" y="437.5" width="10.05" height="5.8"/><rect class="cls-2" x="178.13" y="443.3" width="10.05" height="3.91"/><rect class="cls-14" x="178.13" y="447.21" width="10.05" height="46.45"/><rect class="cls-2" x="184.51" y="430.59" width="10.05" height="51.77"/><rect class="cls-10" x="149.28" y="442.68" width="10.05" height="5.8"/><rect class="cls-2" x="149.28" y="448.48" width="10.05" height="3.91"/><rect class="cls-14" x="149.28" y="452.39" width="10.05" height="46.45"/><rect class="cls-10" x="183.16" y="428.61" width="13.54" height="4.12"/><rect class="cls-10" x="192.88" y="429.88" width="3.82" height="28.81"/><polygon class="cls-12" points="151.07 415.06 143.05 478.67 151.07 478.67 151.07 415.06"/><circle class="cls-4" cx="143.15" cy="421.78" r="2.7"/><rect class="cls-4" x="134.87" y="429.34" width="6" height="1.3"/><rect class="cls-4" x="134.87" y="439.87" width="6" height="1.3"/><rect class="cls-4" x="134.87" y="450.4" width="6" height="1.3"/><rect class="cls-4" x="134.87" y="460.93" width="6" height="1.3"/><rect class="cls-4" x="134.87" y="471.46" width="6" height="1.3"/><path class="cls-2" d="M124.12,526.75a88,88,0,0,0,20.08,20.48A253.46,253.46,0,0,0,166.74,562H207.4V478.67H124.12Z"/><polygon class="cls-3" points="207.4 478.67 207.4 486.65 124.28 478.67 207.4 478.67"/><polyline class="cls-3" points="159.33 448.48 159.33 452.39 157 452.39 157.96 448.48"/><polyline class="cls-12" points="157.96 448.48 159.33 442.93 159.33 448.48"/><path class="cls-12" d="M311.26,405.52h70.49a9.29,9.29,0,0,1,9.29,9.29V499a0,0,0,0,1,0,0H302a0,0,0,0,1,0,0V414.81A9.29,9.29,0,0,1,311.26,405.52Z"/><path class="cls-15" d="M302,461.31H292.9a9.06,9.06,0,0,1-9.06-9.06V432.38"/><rect class="cls-3" x="281.19" y="431.94" width="5.29" height="9.68" rx="2.65"/><rect class="cls-3" x="320.73" y="439.2" width="10.82" height="20.29" rx="5.41"/><rect class="cls-3" x="358.07" y="439.2" width="10.82" height="20.29" rx="5.41"/><path class="cls-3" d="M337.89,462.8H352.3a0,0,0,0,1,0,0v1.64a7.2,7.2,0,0,1-7.2,7.2h0a7.2,7.2,0,0,1-7.2-7.2V462.8A0,0,0,0,1,337.89,462.8Z"/><line class="cls-15" x1="392.9" y1="461.31" x2="392.9" y2="498.95"/><circle class="cls-16" cx="656.57" cy="376.36" r="23.13"/><polygon class="cls-16" points="134.01 230.68 135.2 291.37 188.02 260.54 134.01 230.68"/><polygon class="cls-17" points="68.91 521.68 121.3 513.7 88.57 471.51 68.91 521.68"/><polygon class="cls-17" points="486.48 182.3 513.69 163.81 484.06 148.93 486.48 182.3"/><polygon class="cls-17" points="253.25 111.44 247.12 83.2 225.28 102.45 253.25 111.44"/><line class="cls-16" x1="652.27" y1="324.23" x2="671.87" y2="312.73"/><line class="cls-16" x1="19.79" y1="413.36" x2="41.66" y2="419.49"/><circle class="cls-17" cx="310.17" cy="165.62" r="9.52"/><circle class="cls-17" cx="683.09" cy="484.24" r="9.52"/><circle class="cls-16" cx="114.76" cy="324.34" r="9.52"/></svg>