<?xml version="1.0" encoding="utf-8"?>
<!-- Generator: Adobe Illustrator 25.0.1, SVG Export Plug-In . SVG Version: 6.00 Build 0)  -->
<svg version="1.1" id="Layer_1" xmlns="http://www.w3.org/2000/svg" xmlns:xlink="http://www.w3.org/1999/xlink" x="0px" y="0px"
	 viewBox="0 0 756 295.2" style="enable-background:new 0 0 756 295.2;" xml:space="preserve">
<style type="text/css">
	.st0{fill:#445097;}
	.st1{fill:#FFFFFF;}
	.st2{fill:#F3EBDE;}
	.st3{fill:#1A305F;}
	.st4{fill:#F26368;}
	.st5{fill:#FAA264;}
	.st6{fill:#293C80;}
	.st7{fill:#F9C2BA;}
	.st8{fill:#445093;}
	.st9{fill:#F8A26A;}
	.st10{fill:none;stroke:#1A305F;stroke-width:2.344;stroke-miterlimit:10;}
	.st11{opacity:5.000000e-02;fill:#FFFFFF;}
	.st12{fill:none;stroke:#FFFFFF;stroke-width:1.5786;stroke-miterlimit:10;}
	.st13{fill:#F9C3BC;}
	.st14{fill:#455296;}
	.st15{fill:#F7A36F;}
	.st16{fill:#F1646B;}
	.st17{fill:#F4ECE0;}
	.st18{fill:#F9A36A;}
	.st19{fill:#1B315E;}
	.st20{fill:#EF656E;}
	.st21{fill:#F7A470;}
	.st22{fill:#F5EDE1;}
	.st23{fill:#1B325C;}
	.st24{fill:none;stroke:#1B325C;stroke-width:0.8703;stroke-linecap:round;stroke-linejoin:round;stroke-miterlimit:10;}
	.st25{fill:#455292;}
	.st26{fill:#102E4D;}
	.st27{opacity:0.42;fill:#081827;enable-background:new    ;}
	
		.st28{opacity:0.4;fill:none;stroke:#F7A36F;stroke-width:4.1141;stroke-linecap:round;stroke-linejoin:round;stroke-miterlimit:10;}
	.st29{opacity:0.4;fill:#F7A36F;}
	
		.st30{opacity:0.4;fill:none;stroke:#F7A36F;stroke-width:4.0531;stroke-linecap:round;stroke-linejoin:round;stroke-miterlimit:10;}
</style>
<g>
	<circle class="st30" cx="218.9" cy="275.3" r="18.7"/>
	<polygon class="st30" points="123.3,127.6 124.3,176.8 167.1,151.8 	"/>
	<polygon class="st30" points="582.6,212.3 583.5,261.5 626.4,236.5 	"/>
	<polygon class="st29" points="610,117.9 632.1,102.9 608.1,90.9 	"/>
	<polygon class="st29" points="28.9,216.2 23.9,193.3 6.2,208.9 	"/>
	<polygon class="st29" points="369.7,285.1 364.8,262.2 347.1,277.8 	"/>
	<line class="st30" x1="243.9" y1="11.3" x2="259.8" y2="2"/>
	<line class="st30" x1="572.6" y1="50.1" x2="590.3" y2="55"/>
	<circle class="st29" cx="282.9" cy="22.6" r="7.7"/>
	<path class="st29" d="M748.1,71.4c-0.4-0.1-0.9-0.1-1.3-0.1c-4.3,0-7.7,3.5-7.7,7.7s3.5,7.7,7.7,7.7c0.5,0,0.9,0,1.3-0.1V71.4z"/>
	<circle class="st30" cx="71.3" cy="220.3" r="7.7"/>
</g>
</svg>
