<?xml version="1.0" encoding="UTF-8" standalone="no"?>
<svg width="734px" height="664px" viewBox="0 0 734 664" version="1.1" xmlns="http://www.w3.org/2000/svg" xmlns:xlink="http://www.w3.org/1999/xlink">
    <!-- Generator: Sketch 3.7.2 (28276) - http://www.bohemiancoding.com/sketch -->
    <title>Group</title>
    <desc>Created with Sketch.</desc>
    <defs></defs>
    <g id="Page-1" stroke="none" stroke-width="1" fill="none" fill-rule="evenodd">
        <g id="brickhack_logo-white-transparent" transform="translate(-3735.000000, -1183.000000)" fill="#FFFFFF">
            <g id="Layer_2" transform="translate(3735.000000, 86.000000)">
                <g id="Group" transform="translate(0.000000, 1097.000000)">
                    <path d="M222.194,100.331 C227.931,97.894 230.822,95.481 230.87,93.095 C230.915,90.705 228.18,88.046 222.661,85.117 L210.593,78.712 L179.163,92.059 L192.002,98.873 C197.442,101.702 202.588,103.181 207.438,103.312 C212.284,103.442 217.204,102.449 222.194,100.331 L222.194,100.331 Z" id="Shape"></path>
                    <path d="M174.974,110.329 L157.713,101.167 L125.164,114.989 L141.302,123.554 C145.744,125.911 150.513,127.151 155.603,127.268 C160.691,127.385 165.694,126.402 170.606,124.316 C181.921,119.512 183.376,114.849 174.974,110.329 L174.974,110.329 Z" id="Shape"></path>
                    <path d="M296.923,155.575 C302.557,155.439 308.304,154.128 314.163,151.639 C320.021,149.152 323.428,146.567 324.375,143.884 C325.323,141.201 323.485,138.631 318.854,136.174 L303.278,127.906 L265.88,143.787 L281.456,152.055 C286.132,154.537 291.287,155.712 296.923,155.575 L296.923,155.575 Z" id="Shape"></path>
                    <polygon id="Shape" points="211.168 248.765 210.684 248.487 208.507 257.108 183.834 341.655 238.018 372.801 213.426 259.936"></polygon>
                    <path d="M731.196,294.601 C731.196,289.938 729.861,285.477 727.48,281.663 C725.24,278.074 722.077,275.056 718.2,273 L223.856,3.675 C217.345,0.222 209.624,-0.109 202.84,2.773 L15.139,81.825 C6.112,85.661 0.25,94.519 0.25,104.328 L0.25,354.578 C0.25,363.343 4.942,371.438 12.548,375.794 L508.695,659.958 C512.323,662.036 516.356,663.113 520.407,663.186 C524.486,663.259 528.583,662.314 532.303,660.341 L611.249,618.47 L720.203,560.684 C720.203,560.684 720.203,560.684 720.203,560.683 L721.571,559.958 C728.724,556.164 733.196,548.73 733.196,540.633 L733.196,539.084 L731.196,294.601 L731.196,294.601 Z M344.035,125.481 C356.147,131.91 362.05,138.455 361.737,145.113 C361.423,151.77 354.745,157.87 341.703,163.408 C332.262,167.418 322.997,169.976 313.909,171.087 C304.823,172.198 295.288,171.944 285.31,170.327 L251.811,204.931 L250.411,205.526 L224.03,191.523 L254.028,161.556 L240.698,154.481 L192.669,174.877 L168.042,161.805 L303.832,104.142 L344.035,125.481 L344.035,125.481 Z M144.083,377.682 L139.729,375.179 L139.729,291.5 L64.742,248.396 L64.742,332.075 L60.388,329.572 L60.388,154.267 L64.742,156.77 L64.742,241.894 L139.729,284.998 L139.729,199.874 L144.083,202.377 L144.083,377.682 L144.083,377.682 Z M155.204,145.234 C142.181,144.709 129.387,141.171 116.823,134.62 L75.356,112.611 L211.146,54.947 L247.841,74.424 C260.985,81.401 267.779,88.067 268.229,94.423 C268.676,100.78 262.807,106.546 250.623,111.72 C243.596,114.704 236.38,116.607 228.976,117.429 C221.568,118.25 214.322,117.908 207.236,116.404 C210.703,120.026 211.312,123.677 209.068,127.356 C206.822,131.036 202.031,134.434 194.695,137.549 C181.389,143.199 168.225,145.761 155.204,145.234 L155.204,145.234 Z M252.773,440.16 L239.63,380.23 L182.221,347.23 L169.159,392.096 L164.402,389.362 L208.265,239.27 L213.587,242.329 L257.531,442.894 L252.773,440.16 L252.773,440.16 Z M399.253,154.79 L423.81,167.824 L288.019,225.487 L263.462,212.453 L399.253,154.79 L399.253,154.79 Z M285.832,435.865 C292.82,452.765 302.039,464.506 313.488,471.087 C324.776,477.576 333.713,478.579 340.298,474.096 C346.883,469.613 350.175,459.065 350.175,442.449 L353.884,444.581 L354.045,445.396 C354.26,463.5 350.618,475.152 343.12,480.354 C335.621,485.555 325.744,484.634 313.488,477.589 C300.641,470.204 290.347,457.203 282.606,438.587 C274.866,419.97 270.995,399.143 270.995,376.107 L270.995,349.859 C270.995,326.902 274.865,310.545 282.606,300.787 C290.347,291.029 300.641,289.842 313.488,297.227 C325.744,304.272 335.621,314.726 343.12,328.588 C350.619,342.45 354.26,358.189 354.045,375.805 L353.884,376.435 L350.175,374.303 C350.175,358.49 346.883,344.397 340.298,332.023 C333.713,319.649 324.777,310.218 313.488,303.729 C302.038,297.147 292.82,298.31 285.832,307.216 C278.844,316.122 275.35,331.091 275.35,352.121 L275.35,378.61 C275.35,399.879 278.844,418.965 285.832,435.865 L285.832,435.865 Z M343.688,256.817 C330.262,249.691 325.503,241.612 329.414,232.578 C333.321,223.545 345.877,214.526 367.08,205.522 L373.795,202.67 C387.1,197.02 400.485,193 413.948,190.612 C427.413,188.224 440.137,187.613 452.128,188.779 C464.115,189.944 474.415,192.811 483.022,197.38 C495.416,203.958 501.043,211.089 499.9,218.769 C498.757,226.449 491.084,233.797 476.881,240.813 L452.323,227.778 C460.405,224.168 464.776,220.814 465.435,217.718 C466.092,214.622 463.407,211.473 457.373,208.271 C451.245,205.019 443.708,203.929 434.762,205.001 C425.815,206.075 414.588,209.413 401.08,215.014 L391.474,219.094 C376.987,225.245 368.001,230.367 364.523,234.461 C361.042,238.554 362.644,242.374 369.335,245.925 C374.994,248.929 381.093,250.473 387.63,250.557 C394.167,250.641 401.384,249.095 409.282,245.921 L433.768,258.918 C423.99,262.758 413.724,265.284 402.975,266.498 C392.222,267.711 381.686,267.481 371.371,265.808 C361.054,264.134 351.825,261.137 343.688,256.817 L343.688,256.817 Z M464.671,561.963 L459.591,559.043 L404.842,441.967 L386.862,431.631 L386.862,517.237 L382.508,514.734 L382.508,339.429 L386.862,341.932 L386.862,425.25 L406.052,436.281 L455.882,381.606 L461.042,384.572 L461.204,385.267 L409.681,442.46 L464.913,561.38 L464.671,561.963 L464.671,561.963 Z M526.315,279.615 L485.106,330.096 L455.918,314.604 L484.715,281.593 L459.876,282.489 L424.063,297.697 L399.438,284.626 L535.228,226.962 L559.854,240.033 L499.979,265.459 L525.793,262.676 L590.444,256.271 L620.895,272.434 L526.315,279.615 L526.315,279.615 Z M632.187,500.468 C626.913,508.903 619.946,515.37 611.286,519.877 C602.625,524.384 595.516,525.338 589.958,522.737 C584.4,520.139 581.515,514.393 581.302,505.499 L593.089,499.366 C593.223,504.987 594.915,508.657 598.164,510.38 C601.413,512.103 605.698,511.58 611.021,508.811 C616.682,505.865 620.972,501.902 623.89,496.919 C626.807,491.94 628.189,486.249 628.036,479.849 C627.888,473.644 626.128,469.737 622.753,468.128 C619.378,466.521 614.584,467.282 608.372,470.415 L599.563,474.999 L599.298,463.932 L608.107,459.349 C613.639,456.371 617.95,452.423 621.042,447.499 C624.132,442.577 625.61,437.33 625.477,431.761 C625.179,419.252 619.643,415.8 608.871,421.406 C603.802,424.044 599.796,427.824 596.855,432.742 C593.914,437.661 592.51,442.879 592.642,448.4 L580.918,454.501 C580.716,446.048 583.22,437.635 588.43,429.259 C593.642,420.883 600.367,414.551 608.604,410.266 C617.307,405.737 624.194,404.852 629.264,407.605 C634.333,410.36 636.982,416.475 637.208,425.956 C637.318,430.599 636.127,435.769 633.632,441.469 C631.139,447.171 627.677,452.261 623.251,456.74 C628.365,455.96 632.355,457.001 635.227,459.859 C638.096,462.72 639.606,467.253 639.754,473.458 C639.982,483.032 637.46,492.036 632.187,500.468 L632.187,500.468 Z" id="Shape"></path>
                </g>
            </g>
        </g>
    </g>
</svg>