<svg id="Asset" xmlns="http://www.w3.org/2000/svg" viewBox="0 0 567.38 753.94"><defs><style>.cls-1{fill:#f89520;}.cls-2{fill:none;stroke:#f7941d;stroke-miterlimit:10;stroke-width:0.25px;}.cls-3{fill:#df582d;}.cls-4{fill:#8b4232;}.cls-5{fill:#682e26;}.cls-6{fill:#f79a77;}.cls-7{fill:#f68a62;}.cls-8{fill:#414042;}.cls-9{fill:#f9f2aa;}.cls-10{fill:#232220;}.cls-11{fill:#444341;}.cls-12{fill:#d5d8df;}.cls-13{fill:#bcbcc1;}.cls-14{fill:#c0c3ca;}</style></defs><title>Asset</title><rect class="cls-1" x="237.58" y="480.51" width="12.03" height="12.03" rx="6.02" ry="6.02"/><rect class="cls-1" x="265.58" y="544.72" width="12.03" height="12.03" rx="6.02" ry="6.02"/><rect class="cls-1" x="288.97" y="528.12" width="12.03" height="12.03" rx="6.02" ry="6.02"/><rect class="cls-1" x="345.55" y="627.21" width="12.03" height="12.03" rx="6.02" ry="6.02"/><rect class="cls-1" x="399.26" y="661.69" width="12.03" height="12.03" rx="6.02" ry="6.02"/><rect class="cls-1" x="472.58" y="729.88" width="12.03" height="12.03" rx="6.02" ry="6.02"/><rect class="cls-1" x="498.69" y="741.91" width="12.03" height="12.03" rx="6.02" ry="6.02"/><rect class="cls-1" x="518.74" y="713.55" width="12.03" height="12.03" rx="6.02" ry="6.02"/><rect class="cls-1" x="522.43" y="699.83" width="12.03" height="12.03" rx="6.02" ry="6.02"/><rect class="cls-1" x="555.35" y="674.07" width="12.03" height="12.03" rx="6.02" ry="6.02"/><rect class="cls-1" x="552.56" y="720.37" width="12.03" height="12.03" rx="6.02" ry="6.02"/><rect class="cls-1" x="550.68" y="617.27" width="12.03" height="12.03" rx="6.02" ry="6.02"/><rect class="cls-1" x="498.31" y="567.79" width="12.03" height="12.03" rx="6.02" ry="6.02"/><rect class="cls-1" x="455.8" y="531.87" width="12.03" height="12.03" rx="6.02" ry="6.02"/><rect class="cls-1" x="357.99" y="547.12" width="12.03" height="12.03" rx="6.02" ry="6.02"/><rect class="cls-1" x="366.99" y="579.23" width="12.03" height="12.03" rx="6.02" ry="6.02"/><rect class="cls-1" x="379.57" y="596.19" width="12.03" height="12.03" rx="6.02" ry="6.02"/><rect class="cls-1" x="417.97" y="524.3" width="12.03" height="12.03" rx="6.02" ry="6.02"/><rect class="cls-1" x="422.84" y="501.61" width="12.03" height="12.03" rx="6.02" ry="6.02"/><rect class="cls-1" x="343.12" y="475.57" width="12.03" height="12.03" rx="6.02" ry="6.02"/><rect class="cls-1" x="336" y="439.86" width="12.03" height="12.03" rx="6.02" ry="6.02"/><rect class="cls-1" x="303.95" y="421.95" width="12.03" height="12.03" rx="6.02" ry="6.02"/><rect class="cls-1" x="303.12" y="386.48" width="12.03" height="12.03" rx="6.02" ry="6.02"/><rect class="cls-1" x="365.25" y="419.8" width="12.03" height="12.03" rx="6.02" ry="6.02"/><rect class="cls-1" x="359.23" y="383.33" width="12.03" height="12.03" rx="6.02" ry="6.02"/><rect class="cls-1" x="378.44" y="355.33" width="12.03" height="12.03" rx="6.02" ry="6.02"/><rect class="cls-1" x="312.82" y="317.5" width="12.03" height="12.03" rx="6.02" ry="6.02"/><rect class="cls-1" x="297.03" y="293.33" width="12.03" height="12.03" rx="6.02" ry="6.02"/><rect class="cls-1" x="233.88" y="367.04" width="12.03" height="12.03" rx="6.02" ry="6.02"/><rect class="cls-1" x="237.86" y="314.04" width="12.03" height="12.03" rx="6.02" ry="6.02"/><rect class="cls-1" x="257.6" y="304.29" width="12.03" height="12.03" rx="6.02" ry="6.02"/><rect class="cls-1" x="220.58" y="295.8" width="12.03" height="12.03" rx="6.02" ry="6.02"/><rect class="cls-1" x="239.22" y="278.37" width="12.03" height="12.03" rx="6.02" ry="6.02"/><rect class="cls-1" x="108.73" y="197.06" width="12.03" height="12.03" rx="6.02" ry="6.02"/><rect class="cls-1" x="135.44" y="167.77" width="12.03" height="12.03" rx="6.02" ry="6.02"/><rect class="cls-1" x="172.9" y="179.19" width="12.03" height="12.03" rx="6.02" ry="6.02"/><rect class="cls-1" x="154.7" y="154.31" width="12.03" height="12.03" rx="6.02" ry="6.02"/><rect class="cls-1" x="88.03" y="142.99" width="12.03" height="12.03" rx="6.02" ry="6.02"/><rect class="cls-1" x="42.46" y="153" width="12.03" height="12.03" rx="6.02" ry="6.02"/><rect class="cls-1" x="38.55" y="106.2" width="12.03" height="12.03" rx="6.02" ry="6.02"/><rect class="cls-1" x="14.67" y="87.6" width="12.03" height="12.03" rx="6.02" ry="6.02"/><rect class="cls-1" x="100.06" y="97.88" width="12.03" height="12.03" rx="6.02" ry="6.02"/><rect class="cls-1" x="118.41" y="102.74" width="12.03" height="12.03" rx="6.02" ry="6.02"/><rect class="cls-1" x="146.77" y="88.72" width="12.03" height="12.03" rx="6.02" ry="6.02"/><rect class="cls-1" x="301.16" y="178.99" width="12.03" height="12.03" rx="6.02" ry="6.02"/><rect class="cls-1" x="276.49" y="189.07" width="12.03" height="12.03" rx="6.02" ry="6.02"/><rect class="cls-1" x="309.36" y="222.96" width="12.03" height="12.03" rx="6.02" ry="6.02"/><rect class="cls-1" x="404.89" y="202.72" width="12.03" height="12.03" rx="6.02" ry="6.02"/><rect class="cls-1" x="58.47" width="12.03" height="12.03" rx="6.02" ry="6.02"/><rect class="cls-1" x="35.34" y="37.33" width="12.03" height="12.03" rx="6.02" ry="6.02"/><rect class="cls-1" y="8.36" width="12.03" height="12.03" rx="6.02" ry="6.02"/><line class="cls-2" x1="241.34" y1="407.85" x2="324.06" y2="525.36"/><line class="cls-2" x1="313.51" y1="579.23" x2="324.06" y2="525.36"/><line class="cls-2" x1="343.26" y1="579.23" x2="402.76" y2="663.93"/><line class="cls-2" x1="348.38" y1="628.13" x2="313.51" y2="579.23"/><line class="cls-2" x1="267.96" y1="545.95" x2="264.34" y2="541.35"/><line class="cls-2" x1="238.68" y1="504.35" x2="199.34" y2="448.68"/><line class="cls-2" x1="240.25" y1="481.53" x2="214.51" y2="445.18"/><line class="cls-2" x1="291.45" y1="529.27" x2="224.68" y2="433.98"/><line class="cls-2" x1="247.24" y1="325.04" x2="273.84" y2="362.68"/><line class="cls-2" x1="267.34" y1="390.18" x2="273.84" y2="362.68"/><line class="cls-2" x1="355.15" y1="515.43" x2="267.34" y2="390.18"/><line class="cls-2" x1="343.26" y1="579.23" x2="355.15" y2="515.43"/><line class="cls-2" x1="370.02" y1="511.93" x2="352.59" y2="486.5"/><line class="cls-2" x1="370.02" y1="511.93" x2="365.01" y2="547.33"/><line class="cls-2" x1="51.86" y1="163.99" x2="174.49" y2="338.94"/><line class="cls-2" x1="23.94" y1="98.67" x2="190.92" y2="339.39"/><line class="cls-2" x1="83.18" y1="167.02" x2="48.48" y2="116.78"/><line class="cls-2" x1="114.75" y1="173.02" x2="83.18" y2="167.02"/><line class="cls-2" x1="118.11" y1="208.07" x2="212.11" y2="341.91"/><line class="cls-2" x1="220.67" y1="300.81" x2="201.26" y2="297.56"/><line class="cls-2" x1="239.22" y1="283.31" x2="215.01" y2="279.81"/><line class="cls-2" x1="114.75" y1="173.02" x2="201.26" y2="297.56"/><line class="cls-2" x1="182.35" y1="190.14" x2="212.01" y2="232.52"/><line class="cls-2" x1="144.96" y1="178.67" x2="215.01" y2="279.81"/><line class="cls-2" x1="289.01" y1="274.68" x2="179.34" y2="118.35"/><line class="cls-2" x1="328.51" y1="281.56" x2="289.01" y2="274.68"/><line class="cls-2" x1="308.96" y1="300.42" x2="322.63" y2="302.81"/><line class="cls-2" x1="328.51" y1="281.56" x2="381.15" y2="356.31"/><line class="cls-2" x1="322.63" y1="302.81" x2="378.44" y2="381.85"/><line class="cls-2" x1="322.18" y1="328.52" x2="361.77" y2="384.44"/><line class="cls-2" x1="312.91" y1="397.17" x2="330.01" y2="421.95"/><line class="cls-2" x1="350.54" y1="424.52" x2="330.01" y2="421.95"/><line class="cls-2" x1="395.01" y1="459.02" x2="397.18" y2="447.52"/><line class="cls-2" x1="425.35" y1="502.74" x2="395.01" y2="459.02"/><line class="cls-2" x1="350.54" y1="424.52" x2="420.66" y2="525.3"/><line class="cls-2" x1="385.6" y1="509.35" x2="373.01" y2="579.23"/><line class="cls-2" x1="345.39" y1="450.85" x2="385.6" y2="509.35"/><line class="cls-2" x1="266.71" y1="315.46" x2="299.18" y2="361.34"/><line class="cls-2" x1="291.01" y1="401.18" x2="299.18" y2="361.34"/><line class="cls-2" x1="306.26" y1="423.23" x2="291.01" y2="401.18"/><line class="cls-2" x1="368.17" y1="420.67" x2="176.84" y2="146.94"/><line class="cls-2" x1="100.06" y1="150.06" x2="154.8" y2="159.27"/><line class="cls-2" x1="88.76" y1="132.06" x2="176.84" y2="146.94"/><line class="cls-2" x1="100.06" y1="102.74" x2="82.38" y2="101.56"/><line class="cls-2" x1="44.57" y1="48.43" x2="82.38" y2="101.56"/><line class="cls-2" x1="9.58" y1="19.21" x2="88.76" y2="132.06"/><line class="cls-2" x1="179.34" y1="118.35" x2="125.18" y2="108.76"/><line class="cls-2" x1="199.84" y1="103.89" x2="157.34" y2="95.52"/><line class="cls-2" x1="309.36" y1="227.93" x2="283.57" y2="223.93"/><line class="cls-2" x1="199.84" y1="103.89" x2="283.57" y2="223.93"/><line class="cls-2" x1="377.88" y1="212.43" x2="285.26" y2="195.09"/><line class="cls-2" x1="313.07" y1="186.19" x2="385.13" y2="197.93"/><line class="cls-2" x1="490.34" y1="373.02" x2="377.88" y2="212.43"/><line class="cls-2" x1="506.51" y1="370.85" x2="385.13" y2="197.93"/><line class="cls-2" x1="520.68" y1="368.35" x2="413.35" y2="212.41"/><line class="cls-2" x1="537.01" y1="364.52" x2="402.72" y2="171.42"/><line class="cls-2" x1="248.34" y1="143.85" x2="402.72" y2="171.42"/><line class="cls-2" x1="163.01" y1="22.15" x2="248.34" y2="143.85"/><line class="cls-2" x1="70.4" y1="7.05" x2="163.01" y2="22.15"/><line class="cls-2" x1="490.34" y1="373.02" x2="463.03" y2="531.99"/><line class="cls-2" x1="506.51" y1="370.85" x2="473.44" y2="553.94"/><line class="cls-2" x1="520.68" y1="368.35" x2="487.84" y2="550.18"/><line class="cls-2" x1="537.01" y1="364.52" x2="502.84" y2="547.12"/><line class="cls-2" x1="487.84" y1="550.18" x2="502.76" y2="571.43"/><line class="cls-2" x1="473.44" y1="553.94" x2="558.51" y2="676.06"/><line class="cls-2" x1="502.84" y1="547.12" x2="553.88" y2="619.68"/><rect class="cls-1" x="475.3" y="608.98" width="12.03" height="12.03" rx="6.02" ry="6.02"/><rect class="cls-1" x="462.05" y="665.9" width="12.03" height="12.03" rx="6.02" ry="6.02"/><line class="cls-2" x1="484.72" y1="619.96" x2="555.35" y2="721.3"/><line class="cls-2" x1="518.91" y1="718.19" x2="498.26" y2="714.81"/><line class="cls-2" x1="522.53" y1="704.79" x2="507.13" y2="702.31"/><line class="cls-2" x1="471.55" y1="676.81" x2="498.26" y2="714.81"/><line class="cls-2" x1="460.13" y1="635.06" x2="507.13" y2="702.31"/><line class="cls-2" x1="436.38" y1="650.18" x2="501.47" y2="742.86"/><line class="cls-2" x1="474.86" y1="731.19" x2="414.19" y2="644.17"/><polygon class="cls-3" points="215.13 541.06 242.01 498.68 264.88 527.56 234.01 567.93 215.13 541.06"/><polygon class="cls-4" points="242.01 498.68 260.01 490.93 282.51 519.68 264.88 527.56 242.01 498.68"/><path class="cls-5" d="M266.94,517.5l2.81,3.53s-.94-2.15.87-3.09,9.26-4.85,10.29-5.13a5.19,5.19,0,0,1,3.31.16,9.28,9.28,0,0,1,1.78,1.15l-3-3.59Z" transform="translate(-23.49 -18.82)"/><polygon class="cls-6" points="282.51 519.68 264.88 527.56 234.01 567.93 249.95 560.43 282.51 519.68"/><path class="cls-7" d="M303.88,540.84s-14.82,5.75-15.5,6.82-11.63,15.75-11.63,15.75,11-13.94,12.63-15.07S303.88,540.84,303.88,540.84Z" transform="translate(-23.49 -18.82)"/><polygon class="cls-3" points="403.05 384.18 415.67 432.75 378.96 429.76 370.52 379.63 403.05 384.18"/><polygon class="cls-4" points="415.67 432.75 409.05 451.19 372.68 448.01 378.96 429.76 415.67 432.75"/><path class="cls-5" d="M438.18,452.62l-4.5-.36s2.22.79,1.67,2.75-2.78,10.07-3.28,11a5.17,5.17,0,0,1-2.37,2.32,8.85,8.85,0,0,1-2.06.51l4.65.28Z" transform="translate(-23.49 -18.82)"/><polygon class="cls-6" points="372.68 448.01 378.96 429.76 370.52 379.63 365.12 396.4 372.68 448.01"/><path class="cls-7" d="M395.91,463.68s5.91-14.75,5.6-16-3.58-19.25-3.58-19.25,2.68,17.56,2.4,19.51S395.91,463.68,395.91,463.68Z" transform="translate(-23.49 -18.82)"/><polygon class="cls-3" points="227.72 211.32 275.99 225.06 254.8 255.19 207.31 237.06 227.72 211.32"/><polygon class="cls-4" points="275.99 225.06 288.53 240.12 267.35 269.86 254.8 255.19 275.99 225.06"/><path class="cls-5" d="M299.89,245.26,297.3,249s1.8-1.52,3.21,0,7.27,7.49,7.84,8.4a5.25,5.25,0,0,1,.79,3.22,9.79,9.79,0,0,1-.6,2l2.6-3.87Z" transform="translate(-23.49 -18.82)"/><polygon class="cls-6" points="267.35 269.86 254.8 255.19 207.31 237.06 219.03 250.21 267.35 269.86"/><path class="cls-7" d="M288,287.3s-9.72-12.57-10.93-12.92-18.4-6.68-18.4-6.68,16.48,6.59,18,7.83S288,287.3,288,287.3Z" transform="translate(-23.49 -18.82)"/><rect class="cls-8" x="412.88" y="242.14" width="7.38" height="0.97" rx="0.48" ry="0.48" transform="translate(81.31 -143.88) rotate(19.49)"/><rect class="cls-8" x="413.44" y="240.56" width="7.38" height="0.97" rx="0.48" ry="0.48" transform="translate(80.82 -144.16) rotate(19.49)"/><rect class="cls-8" x="413.96" y="239.07" width="7.37" height="0.97" rx="0.48" ry="0.48" transform="translate(80.35 -144.42) rotate(19.49)"/><path class="cls-9" d="M421.45,239.62l-6.8-2.36a14,14,0,0,0,1.08-6.5c-.29-3.42-1.8-4.44-2.77-7.79-.28-1-1.92-6.63,1-11.92a14.16,14.16,0,0,1,9-6.92,14,14,0,0,1,14.24,5.63,14.48,14.48,0,0,1,2.17,11,15.17,15.17,0,0,1-6.26,8.8c-3.4,2.36-5.62,1.82-8.38,4.53A13,13,0,0,0,421.45,239.62Z" transform="translate(-23.49 -18.82)"/><rect class="cls-8" x="311.66" y="675.34" width="7.37" height="0.97" rx="0.48" ry="0.48" transform="translate(-186.25 84.65) rotate(-14.86)"/><rect class="cls-8" x="311.23" y="673.71" width="7.37" height="0.97" rx="0.48" ry="0.48" transform="translate(-185.85 84.48) rotate(-14.86)"/><rect class="cls-8" x="310.82" y="672.19" width="7.37" height="0.97" rx="0.48" ry="0.48" transform="translate(-185.47 84.33) rotate(-14.86)"/><path class="cls-9" d="M317.68,670.58l-6.95,1.89a13.9,13.9,0,0,0-2.76-6c-2.18-2.66-4-2.65-6.69-4.87-.77-.63-5.33-4.39-5.94-10.38a14.17,14.17,0,0,1,3.55-10.81,14,14,0,0,1,14.93-3.38,14.5,14.5,0,0,1,8,7.83,15.24,15.24,0,0,1-.21,10.8c-1.47,3.87-3.61,4.67-4.36,8.47A13.24,13.24,0,0,0,317.68,670.58Z" transform="translate(-23.49 -18.82)"/><rect class="cls-8" x="304.1" y="359.59" width="7.37" height="0.97" rx="0.48" ry="0.48" transform="translate(-105.53 72.15) rotate(-14.86)"/><rect class="cls-8" x="303.67" y="357.96" width="7.38" height="0.97" rx="0.48" ry="0.48" transform="matrix(0.97, -0.26, 0.26, 0.97, -105.13, 71.98)"/><rect class="cls-8" x="303.27" y="356.44" width="7.37" height="0.97" rx="0.48" ry="0.48" transform="translate(-104.75 71.83) rotate(-14.86)"/><path class="cls-9" d="M310.13,354.83l-6.95,1.89a14.06,14.06,0,0,0-2.77-6c-2.17-2.66-4-2.65-6.69-4.87-.77-.63-5.32-4.39-5.94-10.38a14.19,14.19,0,0,1,3.56-10.81,14,14,0,0,1,14.93-3.38,14.52,14.52,0,0,1,8,7.83,15.19,15.19,0,0,1-.21,10.8c-1.47,3.87-3.61,4.67-4.35,8.47A13,13,0,0,0,310.13,354.83Z" transform="translate(-23.49 -18.82)"/><path class="cls-10" d="M152.79,351.5l93.89,9.79a1.42,1.42,0,0,1,1.16.84l23.54,52.77a1.42,1.42,0,0,1-1.44,2L175.47,408a1.41,1.41,0,0,1-1.18-.85l-23-53.62A1.43,1.43,0,0,1,152.79,351.5Z" transform="translate(-23.49 -18.82)"/><path class="cls-11" d="M157.75,356.75c.87.13,84.87,8.75,84.87,8.75l20.77,46.62L178.75,404Z" transform="translate(-23.49 -18.82)"/><path class="cls-10" d="M140.88,458.52h0a3.33,3.33,0,0,0,3,3.31l87.67,9.11a5.25,5.25,0,0,0,4.77-2.11l30.88-42a12.22,12.22,0,0,0,2.36-7.21h0Z" transform="translate(-23.49 -18.82)"/><path class="cls-12" d="M231.38,468.28l-88.63-9.07a2.59,2.59,0,0,1-1.83-4.11l32.58-44.46a5.9,5.9,0,0,1,5.29-2.38l87.8,8.12a3.24,3.24,0,0,1,2.32,5.13l-32.17,44.37A5.88,5.88,0,0,1,231.38,468.28Z" transform="translate(-23.49 -18.82)"/><path class="cls-13" d="M241.79,452.43l-86.7-9.71a1.15,1.15,0,0,1-.79-1.82l19.35-26.33a2.9,2.9,0,0,1,2.61-1.16l86.33,8.5a1.28,1.28,0,0,1,.92,2l-19,27.31A2.88,2.88,0,0,1,241.79,452.43Z" transform="translate(-23.49 -18.82)"/><polygon class="cls-10" points="166.66 390.49 165.01 392.18 232.68 399.6 233.88 396.89 166.66 390.49"/><polygon class="cls-14" points="177.76 443.6 153.01 440.93 161.51 428.85 185.42 431.43 177.76 443.6"/><polygon class="cls-10" points="189.45 428.65 154.32 424.62 157.82 420.43 192.95 424.46 189.45 428.65"/><polyline class="cls-10" points="150.45 419.62 155.95 420.12 152.45 424.31 146.95 423.81"/><polyline class="cls-10" points="142.95 418.93 148.45 419.43 144.95 423.62 139.45 423.12"/><polyline class="cls-10" points="135.82 418.34 141.32 418.84 137.82 423.03 132.32 422.53"/><polyline class="cls-10" points="151.07 413.65 156.57 414.15 153.07 418.34 147.57 417.84"/><polyline class="cls-10" points="158.45 414.24 163.95 414.74 160.45 418.93 154.95 418.43"/><polyline class="cls-10" points="165.63 414.93 171.13 415.43 167.63 419.62 162.13 419.12"/><polyline class="cls-10" points="173.07 415.74 178.57 416.24 175.07 420.43 169.57 419.93"/><polyline class="cls-10" points="180.48 416.59 185.98 417.09 182.48 421.28 176.98 420.78"/><polyline class="cls-10" points="194.82 424.54 200.32 425.04 196.82 429.23 191.32 428.73"/><polyline class="cls-10" points="202.45 425.24 207.95 425.74 204.45 429.93 198.95 429.43"/><polyline class="cls-10" points="188.26 417.28 193.76 417.78 190.26 421.96 184.76 421.46"/><polyline class="cls-10" points="195.45 418.09 200.95 418.59 197.45 422.78 191.95 422.28"/><polyline class="cls-10" points="202.45 418.93 207.95 419.43 204.45 423.62 198.95 423.12"/><polyline class="cls-10" points="210.07 419.62 215.57 420.12 212.07 424.31 206.57 423.81"/><polyline class="cls-10" points="209.73 425.93 222.32 427.13 218.82 431.32 206.23 430.12"/><polyline class="cls-10" points="217.45 420.28 226.45 421.28 222.95 425.46 213.95 424.46"/><polyline class="cls-10" points="140.32 412.34 149.32 413.34 145.82 417.53 136.82 416.53"/><polyline class="cls-10" points="157.82 408.32 163.32 408.82 159.82 413.01 154.32 412.51"/><polyline class="cls-10" points="165.2 408.92 170.7 409.42 167.2 413.6 161.7 413.1"/><polyline class="cls-10" points="172.38 409.6 177.88 410.1 174.38 414.29 168.88 413.79"/><polyline class="cls-10" points="179.82 410.42 185.32 410.92 181.82 415.1 176.32 414.6"/><polyline class="cls-10" points="187.23 411.26 192.73 411.76 189.23 415.95 183.73 415.45"/><polyline class="cls-10" points="195.01 411.95 200.51 412.45 197.01 416.63 191.51 416.13"/><polyline class="cls-10" points="202.2 412.76 207.7 413.26 204.2 417.45 198.7 416.95"/><polyline class="cls-10" points="209.2 413.6 214.7 414.1 211.2 418.29 205.7 417.79"/><polyline class="cls-10" points="216.82 414.29 222.32 414.79 218.82 418.98 213.32 418.48"/><polyline class="cls-10" points="159.11 402.35 164.61 402.85 161.11 407.04 155.61 406.54"/><polyline class="cls-10" points="166.48 402.95 171.98 403.45 168.48 407.63 162.98 407.13"/><polyline class="cls-10" points="173.67 403.63 179.17 404.13 175.67 408.32 170.17 407.82"/><polyline class="cls-10" points="181.11 404.45 186.61 404.95 183.11 409.13 177.61 408.63"/><polyline class="cls-10" points="188.52 405.29 194.02 405.79 190.52 409.98 185.02 409.48"/><polyline class="cls-10" points="196.3 405.98 201.8 406.48 198.3 410.67 192.8 410.17"/><polyline class="cls-10" points="203.48 406.79 208.98 407.29 205.48 411.48 199.98 410.98"/><polyline class="cls-10" points="210.48 407.63 215.98 408.13 212.48 412.32 206.98 411.82"/><polyline class="cls-10" points="218.11 408.32 223.61 408.82 220.11 413.01 214.61 412.51"/><polyline class="cls-10" points="152.57 395.62 158.07 396.12 154.57 400.31 149.07 399.81"/><polyline class="cls-10" points="159.95 396.21 165.45 396.71 161.95 400.9 156.45 400.4"/><polyline class="cls-10" points="167.13 396.9 172.63 397.4 169.13 401.59 163.63 401.09"/><polyline class="cls-10" points="174.57 397.71 180.07 398.21 176.57 402.4 171.07 401.9"/><polyline class="cls-10" points="181.98 398.56 187.48 399.06 183.98 403.24 178.48 402.74"/><polyline class="cls-10" points="189.76 399.24 195.26 399.74 191.76 403.93 186.26 403.43"/><polyline class="cls-10" points="196.95 400.06 202.45 400.56 198.95 404.74 193.45 404.24"/><polyline class="cls-10" points="203.95 400.9 209.45 401.4 205.95 405.59 200.45 405.09"/><polyline class="cls-10" points="211.57 401.59 217.07 402.09 213.57 406.28 208.07 405.78"/><polyline class="cls-10" points="219.37 402.4 224.87 402.9 221.37 407.09 215.87 406.59"/><polyline class="cls-10" points="226.07 402.89 238.67 404.1 235.17 408.28 222.57 407.08"/><polyline class="cls-10" points="144.52 406.56 157.12 407.76 153.62 411.95 141.02 410.74"/><polyline class="cls-10" points="148.46 401.17 157.36 402.06 153.86 406.24 144.96 405.35"/><polyline class="cls-10" points="225.41 409.25 234.95 409.85 227.07 419.93 220.37 419.24 225.14 413.64 221.91 413.44"/><path class="cls-10" d="M495.43,538l21.16,92a1.43,1.43,0,0,1-.42,1.36l-42.3,39.37a1.43,1.43,0,0,1-2.36-.71l-22.14-92.28a1.42,1.42,0,0,1,.43-1.39l43.29-39.09A1.42,1.42,0,0,1,495.43,538Z" transform="translate(-23.49 -18.82)"/><path class="cls-11" d="M492.08,544.43c.16.87,19.21,83.14,19.21,83.14L473.9,662.31,454.17,579.6Z" transform="translate(-23.49 -18.82)"/><path class="cls-10" d="M390.32,561.43h0a3.32,3.32,0,0,0-2.16,3.89l19.78,85.89a5.24,5.24,0,0,0,3.54,3.83l49.76,15.6a12.13,12.13,0,0,0,7.58-.1h0Z" transform="translate(-23.49 -18.82)"/><path class="cls-12" d="M410.41,650.21l-20.13-86.79a2.58,2.58,0,0,1,3.29-3l52.62,16.42a5.86,5.86,0,0,1,4,4.23l20.76,85.69a3.23,3.23,0,0,1-4.1,3.86l-52.4-16.06A5.87,5.87,0,0,1,410.41,650.21Z" transform="translate(-23.49 -18.82)"/><path class="cls-13" d="M428.77,654.94l-18.89-85.17a1.15,1.15,0,0,1,1.46-1.35l31.18,9.79a2.85,2.85,0,0,1,1.94,2.09l19.92,84.43a1.26,1.26,0,0,1-1.58,1.51l-32-9.15A2.92,2.92,0,0,1,428.77,654.94Z" transform="translate(-23.49 -18.82)"/><polygon class="cls-10" points="429.35 573.29 427.22 572.28 442.12 638.7 445.07 638.96 429.35 573.29"/><polygon class="cls-14" points="382.7 600.99 377.21 576.71 391.39 580.84 396.69 604.3 382.7 600.99"/><polygon class="cls-10" points="400.63 607.21 393.07 572.67 398.16 574.63 405.73 609.16 400.63 607.21"/><polyline class="cls-10" points="396.54 567.39 397.85 572.75 392.76 570.8 391.45 565.43"/><polyline class="cls-10" points="394.76 560.07 396.07 565.43 390.98 563.48 389.67 558.11"/><polyline class="cls-10" points="393.02 553.13 394.33 558.5 389.23 556.55 387.92 551.18"/><polyline class="cls-10" points="402.39 566.04 403.7 571.41 398.61 569.46 397.3 564.09"/><polyline class="cls-10" points="404.22 573.21 405.53 578.58 400.43 576.63 399.13 571.26"/><polyline class="cls-10" points="405.9 580.24 407.21 585.6 402.11 583.65 400.8 578.28"/><polyline class="cls-10" points="407.54 587.54 408.85 592.9 403.75 590.95 402.44 585.58"/><polyline class="cls-10" points="409.14 594.82 410.45 600.19 405.35 598.23 404.05 592.87"/><polyline class="cls-10" points="406.26 610.96 407.57 616.33 402.47 614.37 401.17 609.01"/><polyline class="cls-10" points="408.06 618.4 409.37 623.77 404.28 621.82 402.97 616.45"/><polyline class="cls-10" points="411.01 602.4 412.32 607.77 407.22 605.81 405.91 600.45"/><polyline class="cls-10" points="412.57 609.47 413.88 614.83 408.78 612.88 407.47 607.51"/><polyline class="cls-10" points="414.04 616.36 415.35 621.73 410.25 619.77 408.94 614.41"/><polyline class="cls-10" points="415.86 623.8 417.17 629.16 412.07 627.21 410.76 621.84"/><polyline class="cls-10" points="409.77 625.52 412.71 637.82 407.62 635.87 404.68 623.56"/><polyline class="cls-10" points="417.62 630.99 419.59 639.83 414.5 637.87 412.53 629.03"/><polyline class="cls-10" points="400.15 555.45 402.12 564.29 397.03 562.33 395.06 553.49"/><polyline class="cls-10" points="409.62 570.71 410.93 576.07 405.83 574.12 404.52 568.75"/><polyline class="cls-10" points="411.45 577.88 412.76 583.24 407.66 581.28 406.35 575.92"/><polyline class="cls-10" points="413.13 584.9 414.43 590.26 409.34 588.31 408.03 582.94"/><polyline class="cls-10" points="414.76 592.2 416.07 597.56 410.98 595.61 409.67 590.24"/><polyline class="cls-10" points="416.37 599.48 417.68 604.85 412.58 602.89 411.27 597.53"/><polyline class="cls-10" points="418.24 607.06 419.54 612.43 414.45 610.47 413.14 605.11"/><polyline class="cls-10" points="419.8 614.13 421.1 619.49 416.01 617.54 414.7 612.17"/><polyline class="cls-10" points="421.26 621.02 422.57 626.39 417.48 624.43 416.17 619.07"/><polyline class="cls-10" points="423.08 628.46 424.39 633.82 419.3 631.87 417.99 626.5"/><polyline class="cls-10" points="415.68 569.99 416.99 575.36 411.9 573.4 410.59 568.03"/><polyline class="cls-10" points="417.51 577.16 418.82 582.52 413.72 580.57 412.42 575.2"/><polyline class="cls-10" points="419.19 584.18 420.5 589.55 415.4 587.59 414.09 582.23"/><polyline class="cls-10" points="420.83 591.48 422.14 596.85 417.04 594.89 415.73 589.53"/><polyline class="cls-10" points="422.43 598.77 423.74 604.13 418.64 602.18 417.34 596.81"/><polyline class="cls-10" points="424.3 606.35 425.61 611.71 420.51 609.76 419.2 604.39"/><polyline class="cls-10" points="425.86 613.41 427.17 618.77 422.07 616.82 420.76 611.46"/><polyline class="cls-10" points="427.33 620.31 428.64 625.67 423.54 623.72 422.23 618.35"/><polyline class="cls-10" points="429.15 627.74 430.46 633.11 425.36 631.15 424.05 625.79"/><polyline class="cls-10" points="419.94 561.62 421.25 566.99 416.15 565.03 414.84 559.67"/><polyline class="cls-10" points="421.76 568.79 423.07 574.16 417.98 572.2 416.67 566.84"/><polyline class="cls-10" points="423.44 575.82 424.75 581.18 419.66 579.23 418.35 573.86"/><polyline class="cls-10" points="425.08 583.12 426.39 588.48 421.3 586.53 419.99 581.16"/><polyline class="cls-10" points="426.69 590.4 427.99 595.77 422.9 593.81 421.59 588.45"/><polyline class="cls-10" points="428.55 597.98 429.86 603.35 424.77 601.39 423.46 596.02"/><polyline class="cls-10" points="430.11 605.04 431.42 610.41 426.33 608.45 425.02 603.09"/><polyline class="cls-10" points="431.58 611.94 432.89 617.3 427.8 615.35 426.49 609.99"/><polyline class="cls-10" points="433.4 619.38 434.71 624.74 429.61 622.79 428.31 617.42"/><polyline class="cls-10" points="435.16 627.02 436.47 632.38 431.37 630.43 430.06 625.07"/><polyline class="cls-10" points="436.86 633.52 439.81 645.82 434.71 643.87 431.77 631.56"/><polyline class="cls-10" points="406.98 557.55 409.93 569.86 404.83 567.9 401.89 555.6"/><polyline class="cls-10" points="413.36 559.53 415.4 568.24 410.3 566.28 408.26 557.58"/><polyline class="cls-10" points="430.63 634.96 433.15 644.17 421.07 639.98 419.55 633.42 426.39 636.12 425.54 633"/></svg>