<?xml version="1.0" encoding="utf-8"?>
<!-- Generator: Adobe Illustrator 22.1.0, SVG Export Plug-In . SVG Version: 6.00 Build 0)  -->
<svg version="1.1" id="Layer_1" xmlns="http://www.w3.org/2000/svg" xmlns:xlink="http://www.w3.org/1999/xlink" x="0px" y="0px"
	 viewBox="0 0 265.1 144" style="enable-background:new 0 0 265.1 144;" xml:space="preserve">
<style type="text/css">
	.st0{fill:#FE414D;}
</style>
<g>
	<path d="M204.8,45.1c-2.8,2.2-6.4,3.5-10.3,3.5c-9,0-16.3-7.1-16.3-15.8S185.6,17,194.6,17c3.9,0,7.5,1.3,10.3,3.5l3.5-3.5
		c-3.7-3.1-8.5-4.9-13.7-4.9c-11.7,0-21.2,9.3-21.2,20.7s9.5,20.7,21.2,20.7c5.2,0,10-1.9,13.7-4.9L204.8,45.1z"/>
	<g>
		<path class="st0" d="M142.2,81.9c1.7,0,3.1-1.4,3.1-3.1c0-1.7-1.4-3.1-3.1-3.1c-1.7,0-3.1,1.4-3.1,3.1
			C139.1,80.5,140.5,81.9,142.2,81.9z"/>
		<rect x="139.8" y="87.8" class="st0" width="4.9" height="41.3"/>
	</g>
	<path d="M40,32.7c0-11.3-9-20.6-20-20.6c-5.9,0-11.4,2.6-15.1,7.1v-7.1H0l0,56.2h4.9V46.2c3.8,4.6,9.2,7.2,15.1,7.2
		C31,53.4,40,44.1,40,32.7z M20,48.5c-8.2,0-14.8-6.7-15.1-15.2l0-0.6C4.9,24,11.6,17,20,17s15.1,7,15.1,15.7
		C35.1,41.4,28.3,48.5,20,48.5z"/>
	<path class="st0" d="M58.1,129.1c5.9,0,11.3-2.6,15.1-7.2v7.2h4.9V87.8h-4.9v7.1c-3.8-4.5-9.2-7.1-15.1-7.1c-11,0-20,9.2-20,20.6
		C38.2,119.8,47.1,129.1,58.1,129.1z M43,108.3c0-8.7,6.8-15.7,15.1-15.7s15.1,7,15.1,15.7l0,0.6c-0.3,8.5-7,15.2-15.1,15.2
		C49.8,124.2,43,117.1,43,108.3z"/>
	<path class="st0" d="M130.8,108.3c0-11.3-9-20.6-20-20.6c-5.9,0-11.4,2.6-15.1,7.1v-7.1h-4.9V144h4.9v-22.1
		c3.8,4.6,9.2,7.2,15.1,7.2C121.9,129.1,130.8,119.8,130.8,108.3z M110.9,124.2c-8.2,0-14.8-6.7-15.1-15.2l0-0.6
		c0-8.7,6.8-15.7,15.1-15.7s15.1,7,15.1,15.7C126,117.1,119.2,124.2,110.9,124.2z"/>
	<path d="M76.4,12.1v24.4c0,6.7-5.3,12.1-12.1,12.1c-6.7-0.1-12-5.4-12-12.1V12.1h-4.8v24.4c0,9.3,7.5,16.9,16.8,16.9
		c9.4,0,17-7.6,17-16.9V12.1H76.4z"/>
	<path d="M110.9,12.1c-5.9,0-11.3,2.6-15.1,7.2V0h-4.9v53.5h4.9v-7.1c3.8,4.5,9.2,7.1,15.1,7.1c11,0,20-9.2,20-20.6
		C130.8,21.4,121.9,12.1,110.9,12.1z M126,32.8c0,8.7-6.8,15.7-15.1,15.7s-15.1-7-15.1-15.7l0-0.6c0.3-8.5,7-15.2,15.1-15.2
		C119.2,17,126,24.1,126,32.8z"/>
	<path d="M161.3,6.2c1.7,0,3.1-1.4,3.1-3.1c0-1.7-1.4-3.1-3.1-3.1c-1.7,0-3.1,1.4-3.1,3.1C158.2,4.8,159.6,6.2,161.3,6.2z"/>
	<rect x="158.9" y="12.1" width="4.9" height="41.3"/>
	<path d="M222.2,6.2c1.7,0,3.1-1.4,3.1-3.1c0-1.7-1.4-3.1-3.1-3.1c-1.7,0-3.1,1.4-3.1,3.1C219,4.8,220.4,6.2,222.2,6.2z"/>
	<rect x="219.7" y="12.1" width="4.9" height="41.3"/>
	<path class="st0" d="M221.8,87.8c-4.6,0-9,1.9-12.1,5.2v-5.2h-4.7v41.3h4.7v-24.5c0.2-6.7,5.6-12.1,12.1-12.1
		c6.7,0,12.1,5.4,12.1,12.1v24.5h4.8v-24.5C238.6,95.3,231,87.8,221.8,87.8z"/>
	<path class="st0" d="M263.7,124.4l-0.5,0.1c-0.5,0.1-1.2,0.3-2.4,0.3c-2,0-2.8-1.2-2.8-4.1V92.5h5.7v-4.7h-5.7V73.9h-5v13.9h-5.8
		v4.7h5.8v28.3c0,3.1,0.6,5.1,1.7,6.4c1.1,1.3,2.8,1.9,4.9,1.9c1.6,0,3-0.2,3.9-0.6l0.3-0.1L263.7,124.4z"/>
	<path class="st0" d="M187.8,117.2c-2.7,4.4-7.5,7.1-12.7,7.1c-8,0-14.7-6.4-15.3-14.7h32.8c1.3,0,2.4-1,2.4-2.2l0-0.4
		c-0.9-10.9-9.4-19.2-19.9-19.2c-11.1,0-20.1,9.3-20.1,20.7c0,11.3,9,20.6,20.1,20.6c6.8,0,13-3.5,16.7-9.3L187.8,117.2z
		 M175.1,92.6c7.1,0,13.2,5.2,14.7,12.3h-29.6C161.8,97.6,167.9,92.6,175.1,92.6z"/>
	<path class="st0" d="M27,109.2c0,0-1.3-1-2.6-1.6c-1.4-0.6-3.3-1.2-7.4-2.2c-0.6-0.1-1.1-0.2-1.6-0.4c-2.7-0.7-4.8-1.6-6.4-2.7
		C7.5,101,7,99.9,7,98.5c0.1-1.5,1-3,2.6-4.2c1.8-1.4,4.5-2,7.5-1.9c3.4,0.1,6,1.9,8.8,3.9l0.3,0.2l3.5-3.3
		c-0.4-0.4-0.5-0.5-1.7-1.3c-2.8-1.9-6.2-3.9-10.8-4.1c-4-0.2-7.5,0.6-10.3,2.4c-3,2-4.9,4.9-4.9,8c0,2.3,0.4,4.5,2.8,6.7
		c2.8,2.7,7.1,4.1,11,4.8c3.4,0.7,6.5,1.9,8.1,3.2c1.9,1.7,2.5,3,2.5,4.8c-0.1,1.7-1.2,3.3-3.1,4.5c-1.9,1.4-4.7,2.2-7.5,2.1
		c-3.8-0.2-7.7-1.8-11.6-4.9l-0.3-0.2l-3.5,3.2l0.3,0.3c4.6,3.9,9.5,6.1,14.8,6.4c3.9,0.2,7.3-0.8,10.5-2.9c3.2-2.2,5-5.1,5.2-8.3
		C31.5,114.6,29.8,111.2,27,109.2z"/>
	<path d="M260.7,33.5c0,0-1.3-1-2.6-1.6c-1.4-0.6-3.3-1.2-7.4-2.2c-0.6-0.1-1.1-0.2-1.6-0.4c-2.7-0.7-4.8-1.6-6.4-2.7
		c-1.5-1.3-2.1-2.4-2-3.8c0.1-1.5,1-3,2.6-4.2c1.8-1.4,4.5-2,7.5-1.9c3.4,0.1,6,1.9,8.8,3.9l0.3,0.2l3.5-3.3
		c-0.4-0.4-0.5-0.5-1.7-1.3c-2.8-1.9-6.2-3.9-10.8-4.1c-4-0.2-7.5,0.6-10.3,2.4c-3,2-4.9,4.9-4.9,8c0,2.3,0.4,4.5,2.8,6.7
		c2.8,2.7,7.1,4.1,11,4.8c3.4,0.7,6.5,1.9,8.1,3.2c1.9,1.7,2.5,3,2.5,4.8c-0.1,1.7-1.2,3.3-3.1,4.5c-1.9,1.4-4.7,2.2-7.5,2.1
		c-3.8-0.2-7.7-1.8-11.6-4.9l-0.3-0.2l-3.5,3.2l0.3,0.3c4.6,3.9,9.5,6.1,14.8,6.4c3.9,0.2,7.3-0.8,10.5-2.9c3.2-2.2,5-5.1,5.2-8.3
		C265.2,38.9,263.6,35.5,260.7,33.5z"/>
	<rect x="139.8" y="0" width="4.9" height="53.4"/>
</g>
</svg>
