<?xml version="1.0" encoding="utf-8"?>
<!-- Generator: Adobe Illustrator 19.1.1, SVG Export Plug-In . SVG Version: 6.00 Build 0)  -->
<svg version="1.1" id="Layer_1" xmlns="http://www.w3.org/2000/svg" xmlns:xlink="http://www.w3.org/1999/xlink" x="0px" y="0px"
	 viewBox="-1240.8 285 512 512" style="enable-background:new -1240.8 285 512 512;" xml:space="preserve">
<style type="text/css">
	.st0{fill:#FFFFFF;}
	.st1{fill:#F58625;}
</style>
<g id="Layer_3">
</g>
<g id="Layer_1_1_">
</g>
<g id="Layer_2">
	<g>
		<g>
			<g>
				<path class="st0" d="M-328.3,565.8l124.4-58.6c-1.5-2.4-3.6-4.4-6.2-5.8l-330.4-180.8c-4.4-2.3-9.6-2.5-14.1-0.6l-126,53.1
					c-6.1,2.6-10,8.5-10,15.1v167.9c0,5.9,3.1,11.3,8.3,14.2l333,190.7c2.4,1.4,5.1,2.1,7.9,2.2l0.7-177.7
					C-340.7,577.1-335.9,569.4-328.3,565.8z"/>
			</g>
			<g>
				<polygon class="st0" points="-208.7,694.5 -208.7,694.5 -280.5,733.3 				"/>
			</g>
			<path class="st1" d="M-208.7,694.5l0.9-0.5c4.8-2.5,7.8-7.5,7.8-13v-1C-200,686-203.4,691.6-208.7,694.5z"/>
			<path class="st1" d="M-208.7,694.5c5.4-2.8,8.7-8.4,8.7-14.5l-1.3-164.1c0-3.1-0.9-6.1-2.5-8.7l-124.4,58.6
				c-7.6,3.6-12.5,11.3-12.5,19.7l-0.7,177.7c2.7,0,5.5-0.6,8-1.9"/>
		</g>
		<path class="st1" d="M-208.7,694.5c0,0,8.7-8,8.7-13.5v-1l-1.3-164.1c0-3.1-0.9-6.1-2.5-8.7c-1.5-2.4-3.6-4.4-6.2-5.8
			l-330.5-180.8c-4.4-2.3-9.6-2.5-14.1-0.6l-126,53.1c-6.1,2.6-10,8.5-10,15.1v167.9c0,5.9,3.1,11.3,8.3,14.2l333,190.7
			c2.4,1.4,5.1,2.1,7.9,2.2c2.7,0,5.5-0.6,8-1.9"/>
		
			<text transform="matrix(0.6925 0.3675 -0.9204 0.3909 -646.6505 391.0171)" class="st0" style="font-family:'Roboto-Black'; font-size:139.2646px;">BRICK</text>
		<g>
			<path class="st0" d="M-594,571.7l-2.9-1.7v-56.2l-50.3-28.9V541l-2.9-1.7V421.7l2.9,1.7v57.1l50.3,28.9v-57.1l2.9,1.7V571.7z"/>
			<path class="st0" d="M-529.9,573.4l-38.5-22.1l-8.8,30.1l-3.2-1.8l29.4-100.7l3.6,2.1l29.5,134.6l-3.2-1.8L-529.9,573.4z
				 M-567.3,547.5l36.4,20.9l-16.5-75.7l-1.5-7.5l-0.3-0.2l-1.5,5.8L-567.3,547.5z"/>
			<path class="st0" d="M-453.2,616.5l0.1,0.5c0.1,12.1-2.3,20-7.3,23.5s-11.7,2.9-19.9-1.9c-8.6-5-15.5-13.7-20.7-26.2
				c-5.2-12.5-7.8-26.5-7.8-41.9V553c0-15.4,2.6-26.4,7.8-32.9c5.2-6.5,12.1-7.3,20.7-2.4c8.2,4.7,14.9,11.7,19.9,21
				s7.5,19.9,7.3,31.7l-0.1,0.4l-2.5-1.4c0-10.6-2.2-20.1-6.6-28.4c-4.4-8.3-10.4-14.6-18-19c-7.7-4.4-13.9-3.6-18.6,2.3
				c-4.7,6-7,16-7,30.1v17.8c0,14.3,2.3,27.1,7,38.4c4.7,11.3,10.9,19.2,18.6,23.6c7.6,4.4,13.6,5,18,2c4.4-3,6.6-10.1,6.6-21.2
				L-453.2,616.5z"/>
			<path class="st0" d="M-419,614.8l-12.1-6.9v57.5l-2.9-1.7V546l2.9,1.7v55.9l12.9,7.4l33.4-36.7l3.5,2l0.1,0.5l-34.6,38.4
				l37.1,79.8l-0.2,0.4l-3.4-2L-419,614.8z"/>
		</g>
		
			<text transform="matrix(0.8644 -0.4497 2.387000e-002 0.9997 -314.0175 687.854)" class="st0" style="font-family:'Roboto-Light'; font-size:141.9996px;">2</text>
	</g>
</g>
<g id="Layer_3_1_">
</g>
<g id="Layer_1_2_">
</g>
<g>
	<path class="st0" d="M-1080.7,385.5c3.9-1.6,5.8-3.3,5.8-4.9c0-1.6-1.8-3.4-5.5-5.4l-8.1-4.3l-21.1,9l8.6,4.6
		c3.7,1.9,7.1,2.9,10.4,3C-1087.4,387.6-1084.1,386.9-1080.7,385.5z"/>
	<polygon class="st0" points="-1086.7,485.2 -1087,485 -1088.5,490.8 -1105.1,547.5 -1068.7,568.4 -1085.2,492.7 	"/>
	<path class="st0" d="M-1112.4,392.2l-11.6-6.1l-21.8,9.3l10.8,5.7c3,1.6,6.2,2.4,9.6,2.5c3.4,0.1,6.8-0.6,10.1-2
		C-1107.8,398.4-1106.8,395.3-1112.4,392.2z"/>
	<path class="st0" d="M-1030.6,422.6c3.8-0.1,7.6-1,11.6-2.6c3.9-1.7,6.2-3.4,6.9-5.2s-0.6-3.5-3.7-5.2l-10.5-5.5l-25.1,10.7
		l10.5,5.5C-1037.8,421.9-1034.4,422.7-1030.6,422.6z"/>
	<path class="st0" d="M-739.1,515.9c0-3.1-0.9-6.1-2.5-8.7c-1.5-2.4-3.6-4.4-6.2-5.8l-330.5-180.8c-4.4-2.3-9.6-2.5-14.1-0.6
		l-126,53.1c-6.1,2.6-10,8.5-10,15.1v167.9c0,5.9,3.1,11.3,8.3,14.2l333,190.7c2.4,1.4,5.1,2.1,7.9,2.2c2.7,0,5.5-0.6,8-1.9
		l124.7-66.8c0,0,8.7-8,8.7-13.5v-1L-739.1,515.9z M-999,402.4c8.1,4.3,12.1,8.7,11.9,13.2c-0.2,4.5-4.7,8.6-13.4,12.3
		c-6.3,2.7-12.6,4.4-18.7,5.2c-6.1,0.7-12.5,0.6-19.2-0.5l-22.5,23.2l-0.9,0.4l-17.7-9.4l20.1-20.1l-8.9-4.7l-32.2,13.7l-16.5-8.8
		l91.1-38.7L-999,402.4z M-1131.8,571.7l-2.9-1.7v-56.2l-50.3-28.9V541l-2.9-1.7V421.7l2.9,1.7v57.1l50.3,28.9v-57.1l2.9,1.7V571.7z
		 M-1125.7,415.7c-8.7-0.4-17.3-2.7-25.8-7.1l-27.8-14.8l91.1-38.7l24.6,13.1c8.8,4.7,13.4,9.2,13.7,13.4s-3.6,8.1-11.8,11.6
		c-4.7,2-9.6,3.3-14.5,3.8c-5,0.6-9.8,0.3-14.6-0.7c2.3,2.4,2.7,4.9,1.2,7.4c-1.5,2.5-4.7,4.8-9.6,6.8
		C-1108.1,414.3-1116.9,416-1125.7,415.7z M-1058.9,613.8l-8.8-40.4l-38.5-22.1l-8.8,30.1l-3.2-1.8l29.4-100.7l3.6,2.1l29.5,134.6
		L-1058.9,613.8z M-961.9,422.1l16.5,8.7l-91.1,38.7l-16.5-8.7L-961.9,422.1z M-990.9,570.4l-0.1,0.4l-2.5-1.4
		c0-10.6-2.2-20.1-6.6-28.4c-4.4-8.3-10.4-14.6-18-19c-7.7-4.4-13.9-3.6-18.6,2.3c-4.7,6-7,16-7,30.1v17.8c0,14.3,2.3,27.1,7,38.4
		c4.7,11.3,10.9,19.2,18.6,23.6c7.6,4.4,13.6,5,18,2c4.4-3,6.6-10.1,6.6-21.2l2.5,1.5l0.1,0.5c0.1,12.1-2.3,20-7.3,23.5
		s-11.7,2.9-19.9-1.9c-8.6-5-15.5-13.7-20.7-26.2c-5.2-12.5-7.8-26.5-7.8-41.9V553c0-15.4,2.6-26.4,7.8-32.9
		c5.2-6.5,12.1-7.3,20.7-2.4c8.2,4.7,14.9,11.7,19.9,21S-990.7,558.6-990.9,570.4z M-999.2,490.5c-9-4.8-12.2-10.2-9.6-16.3
		c2.6-6.1,11-12.1,25.3-18.2l4.5-1.9c8.9-3.8,17.9-6.5,26.9-8.1c9-1.6,17.6-2,25.6-1.2c8,0.8,15,2.7,20.7,5.8
		c8.3,4.4,12.1,9.2,11.3,14.4c-0.8,5.2-5.9,10.1-15.4,14.8l-16.5-8.7c5.4-2.4,8.4-4.7,8.8-6.8c0.4-2.1-1.4-4.2-5.4-6.3
		c-4.1-2.2-9.2-2.9-15.2-2.2c-6,0.7-13.5,3-22.6,6.7l-6.4,2.7c-9.7,4.1-15.8,7.6-18.1,10.3c-2.3,2.7-1.3,5.3,3.2,7.7
		c3.8,2,7.9,3.1,12.3,3.1c4.4,0.1,9.2-1,14.5-3.1l16.4,8.7c-6.6,2.6-13.5,4.3-20.7,5.1c-7.2,0.8-14.3,0.7-21.2-0.5
		C-987.5,495.4-993.7,493.4-999.2,490.5z M-916.7,695.4l-3.4-2l-36.7-78.6l-12.1-6.9v57.5l-2.9-1.7V546l2.9,1.7v55.9l12.9,7.4
		l33.4-36.7l3.5,2l0.1,0.5l-34.6,38.4l37.1,79.8L-916.7,695.4z M-876.6,505.8l-27.7,33.9l-19.6-10.4l19.3-22.2l-16.7,0.6l-24,10.2
		l-16.5-8.8l91.1-38.7l16.5,8.8l-40.2,17.1l17.3-1.9l43.4-4.3l20.4,10.8L-876.6,505.8z M-843.6,683.6l-0.2-6.4l29-54.8
		c4.8-9.2,8.1-16.4,9.9-21.7c1.8-5.3,2.7-10,2.6-14c-0.2-6.4-1.9-10.6-5.2-12.6c-3.3-2-7.8-1.6-13.5,1.4
		c-5.9,3.1-10.6,7.7-14.1,13.9c-3.5,6.2-5.2,12.8-5,19.7l-7.1,3.7c-0.1-5.7,0.8-11.4,3-17.3c2.1-5.8,5.2-11.1,9.2-15.9
		c4-4.8,8.7-8.5,13.9-11.3c8-4.2,14.3-5,18.9-2.5c4.6,2.5,7,8,7.2,16.3c0.1,4.7-1,10.5-3.4,17.4c-2.4,6.9-6.7,16.2-12.9,27.9
		L-835,672l45.9-23.9l0.2,7L-843.6,683.6z"/>
</g>
</svg>
