<?xml version="1.0" encoding="utf-8"?>
<!-- Generator: Adobe Illustrator 23.0.6, SVG Export Plug-In . SVG Version: 6.00 Build 0)  -->
<svg version="1.1" id="Layer_1" xmlns="http://www.w3.org/2000/svg" xmlns:xlink="http://www.w3.org/1999/xlink" x="0px" y="0px"
	 viewBox="0 0 168.1 158.3" style="enable-background:new 0 0 168.1 158.3;" xml:space="preserve">
<style type="text/css">
	.st0{fill:#FFFFFF;}
	.st1{fill:#F58625;}
	.st2{enable-background:new    ;}
	.st3{fill:#D87027;}
</style>
<title>BH6 Logo</title>
<g>
	<g id="Layer_1-2">
		<path class="st0" d="M128.9,87.9l38.3-21.6c-0.5-0.9-1.3-1.6-2.2-2.1L53.4,0.7c-1.5-0.8-3.4-0.9-5-0.2L3.6,19.4
			c-2.2,0.9-3.6,3-3.6,5.4v59c0,2.1,1.1,4,2.9,5.1l118.5,68.6c0.9,0.5,1.8,0.8,2.8,0.8l0.3-63.2C124.5,91.9,126.2,89.2,128.9,87.9z"
			/>
		<polygon class="st0" points="164.8,137.3 164.8,137.3 145.9,147.5 		"/>
		<path class="st1" d="M164.8,137.3l0.3-0.2c1.7-0.9,2.8-2.7,2.8-4.6v-0.4C167.8,134.3,166.6,136.2,164.8,137.3z"/>
		<path class="st1" d="M164.8,137.3c1.9-1,3.1-3,3.1-5.2l0.2-62.7c0-1.1-0.3-2.2-0.9-3.1l-38.3,21.6c-2.7,1.3-4.4,4-4.4,7l-0.3,63.2
			c1,0,2-0.2,2.8-0.7"/>
		<path class="st1" d="M164.8,137.3c0,0,3.1-2.9,3.1-4.8v-0.4l0.2-62.7c0-1.1-0.3-2.2-0.9-3.1c-0.5-0.9-1.3-1.6-2.2-2.1L53.4,0.7
			c-1.5-0.8-3.4-0.9-5-0.2L3.6,19.4c-2.2,0.9-3.6,3-3.6,5.4v59c0,2.1,1.1,4,2.9,5.1l118.4,68.6c0.8,0.5,1.8,0.8,2.8,0.8
			c1,0,2-0.2,2.8-0.7L164.8,137.3z"/>
		<g class="st2">
			<path class="st0" d="M19.5,25.8l31.4-13.6l8.2,4.7c2.9,1.6,4.3,3.2,4.3,4.6c0,1.5-1.4,2.8-4.2,4c-1.5,0.7-3.2,1.1-5,1.3
				c-1.8,0.2-3.4,0.1-5-0.3c0.8,0.9,0.9,1.7,0.4,2.7c-0.5,0.9-1.7,1.8-3.4,2.5c-3,1.3-6,1.9-9,1.8s-5.8-1-8.5-2.5L19.5,25.8z
				 M38,22.6l-8.5,3.7l4.2,2.3c1.1,0.6,2.4,1,3.8,1c1.4,0,2.7-0.2,4-0.8c2.9-1.2,3.2-2.5,1-3.8L38,22.6z M42.6,20.6l3.6,2
				c2.5,1.4,5,1.5,7.6,0.4c1.4-0.6,2.1-1.2,2.1-1.9c0-0.6-0.7-1.3-2-2.1l-3.4-1.9L42.6,20.6z"/>
			<path class="st0" d="M60.8,37.7L57,35.5l-11.5,5l-4.8-2.7L72,24.1l8.7,4.9c2.8,1.6,4.1,3.1,4,4.7c-0.1,1.6-1.7,3-4.7,4.3
				c-2.1,0.9-4.3,1.5-6.4,1.7c-2.1,0.2-4.3,0.1-6.6-0.3L59.3,48L59,48.1l-5.2-2.9L60.8,37.7z M62.2,33.2l3.9,2.2
				c1.2,0.7,2.6,1,4.1,1.1c1.5,0,3-0.3,4.4-0.9c1.5-0.6,2.3-1.3,2.5-2.1c0.2-0.7-0.3-1.5-1.6-2.2l-3.9-2.2L62.2,33.2z"/>
			<path class="st0" d="M66.9,52.6l-4.8-2.7l31.4-13.6l4.8,2.7L66.9,52.6z"/>
			<path class="st0" d="M100.3,61c-3.6,1.4-7.2,2-10.8,1.9c-3.6-0.1-6.8-0.9-9.6-2.5c-3-1.7-4-3.6-3.1-5.8c1-2.2,3.8-4.3,8.6-6.3
				l1.9-0.8c3-1.3,6.1-2.2,9.2-2.8c3.1-0.5,6-0.7,8.7-0.4c2.7,0.3,5,1,7,2.1c2.7,1.5,3.9,3.2,3.7,5c-0.3,1.8-2,3.5-5.3,5.2l-4.8-2.7
				c1.9-0.9,3-1.8,3.1-2.6c0.2-0.8-0.5-1.6-2-2.5c-1.6-0.9-3.6-1.3-5.9-1c-2.3,0.2-5.2,1-8.4,2.4l-2.4,1c-3.4,1.5-5.5,2.8-6.3,3.9
				c-0.8,1.1-0.4,2.1,1.3,3.1c1.5,0.8,3.1,1.3,4.7,1.3c1.7,0,3.5-0.4,5.5-1.1L100.3,61z"/>
			<path class="st0" d="M113,66.1l-6.1,0.1l-9,3.9l-4.8-2.7l31.4-13.6l4.8,2.7l-14.2,6.2l6-0.5l16.3-1.1l6,3.4l-22.3,1.3l-8.8,12.4
				l-5.8-3.3L113,66.1z"/>
		</g>
		<path class="st3" d="M164.5,137.3c1.9-1,3.1-3,3.1-5.2l0.2-62.7c0-1.1-0.3-2.2-0.9-3.1l-38.3,21.6c-2.7,1.3-4.4,4-4.4,7l-0.2,63.3
			c1,0,2-0.2,2.8-0.7L164.5,137.3z"/>
		<g class="st2">
			<path class="st0" d="M155.1,89.7l-0.3,4.6l-0.8,0.4c-3.2,1.8-6,4.4-8.2,7.8c-2.2,3.4-4,7.7-5.1,12.7c2.1-3.7,4.7-6.3,7.6-7.7
				c1.9-0.9,3.5-1.2,4.8-0.7c1.3,0.5,2.3,1.5,3,3.3c0.7,1.7,0.9,3.8,0.8,6.4c-0.2,4.3-1.4,8.4-3.6,12.3c-2.2,3.9-4.9,6.6-8.2,8.2
				c-2.6,1.3-4.8,1.3-6.5,0c-1.7-1.3-2.7-3.7-3-7.2c-0.2-1.9,0-4.7,0.4-8.3c1-7.6,3.1-14.1,6.3-19.5c3.2-5.4,7.3-9.4,12.4-12.1
				L155.1,89.7z M147.4,112.3c-1.6,0.8-3,2.1-4.4,3.9s-2.4,3.7-3.1,5.8l-0.1,2l0,2.3c0,1.5,0.3,2.9,0.7,4.2c0.4,1.2,1.1,2,1.9,2.4
				c0.8,0.3,1.7,0.2,2.8-0.3c2-0.9,3.6-2.6,5-5.2c1.4-2.5,2.1-5.3,2.4-8.3c0.1-1.8,0-3.3-0.4-4.5s-0.9-2-1.7-2.5
				C149.6,111.7,148.6,111.8,147.4,112.3z"/>
		</g>
		<g class="st2">
			<path class="st0" d="M31.5,91.3l-1-0.6v-21l-17.3-10v21l-1-0.6V37.8l1,0.6v19.8l17.3,10V48.4l1,0.6V91.3z"/>
		</g>
		<g class="st2">
			<path class="st0" d="M53.5,91.4l-13.3-7.7l-3,10.9L36.1,94l10.1-36.5l1.2,0.7l10.1,48.2l-1.1-0.6L53.5,91.4z M40.6,82.4l12.5,7.2
				l-6.3-29.8L40.6,82.4z"/>
			<path class="st0" d="M80.2,106.5c-0.3,4.2-1.2,7-2.9,8.4c-1.7,1.4-3.9,1.2-6.8-0.4c-1.9-1.1-3.6-2.9-5.1-5.2
				c-1.5-2.4-2.6-5.2-3.5-8.5s-1.2-6.7-1.2-10.3v-6.5c0-3.6,0.4-6.6,1.2-9c0.8-2.4,2-3.9,3.5-4.6c1.5-0.7,3.2-0.5,5.1,0.6
				c2.8,1.6,5.1,4.1,6.8,7.4c1.7,3.3,2.6,7.2,2.9,11.7l-1-0.6c-0.3-4.1-1.2-7.5-2.6-10.4c-1.5-2.9-3.5-5-6-6.5
				c-2.6-1.5-4.8-1.2-6.4,1c-1.6,2.2-2.4,5.9-2.4,11.1v6.2c0,3.3,0.4,6.5,1.1,9.5c0.7,3,1.8,5.6,3.1,7.8c1.3,2.2,2.9,3.8,4.6,4.8
				c2.6,1.5,4.6,1.7,6.1,0.5c1.5-1.2,2.3-3.7,2.6-7.5L80.2,106.5z"/>
			<path class="st0" d="M91.8,103.9l-4.3,3.7v16l-1-0.6V80.8l1,0.6v24.5l4.5-4.2l11.2-11.1l1.5,0.8l-12.1,12l13,30.9l-1.3-0.8
				L91.8,103.9z"/>
		</g>
	</g>
</g>
</svg>
