<?xml version="1.0" encoding="utf-8"?>
<!-- Generator: Adobe Illustrator 17.0.1, SVG Export Plug-In . SVG Version: 6.00 Build 0)  -->
<!DOCTYPE svg PUBLIC "-//W3C//DTD SVG 1.1//EN" "http://www.w3.org/Graphics/SVG/1.1/DTD/svg11.dtd">
<svg version="1.1" id="Layer_1" xmlns="http://www.w3.org/2000/svg" xmlns:xlink="http://www.w3.org/1999/xlink" x="0px" y="0px"
	 width="800px" height="727.489px" viewBox="0 0 800 727.489" enable-background="new 0 0 800 727.489" xml:space="preserve">
<g>
	<g>
		<path fill="#FFFFFF" d="M-577.162-604.641c0.292-2.94-2.268-5.68-7.665-8.214c-5.501-2.591-11.557-3.864-18.178-3.837
			c-6.626,0.031-12.925,1.51-18.926,4.444l-19.797,9.708l35.096,16.84l19.974-9.978
			C-580.612-598.691-577.449-601.674-577.162-604.641z"/>
	</g>
	<g>
		<path fill="#FFFFFF" d="M-715.8-534.132c7.165-3.697,11.208-7.112,12.162-10.23c0.943-3.114-1.134-5.943-6.219-8.492
			c-5.743-2.891-11.738-4.079-18.002-3.6c-6.268,0.476-13.195,2.577-20.806,6.299l-15.407,7.564l32.193,16.473L-715.8-534.132z"/>
	</g>
	<g>
		<polygon fill="#FFFFFF" points="-479.2,-532.924 -479.815,-532.606 -482.594,-518.141 -514.324,-375.825 -445.16,-414.354 
			-476.31,-521.448 		"/>
	</g>
	<g>
		<path fill="#FFFFFF" d="M-675.93-497.485l22.259-11.423c6.824-3.505,10.567-6.821,11.234-9.928
			c0.661-3.103-1.822-6.059-7.435-8.87c-6.038-3.024-12.047-4.571-18.034-4.627c-5.982-0.058-12.258,1.568-18.833,4.87
			l-24.06,12.133L-675.93-497.485z"/>
	</g>
	<g>
		<path fill="#FFFFFF" d="M-303.164-849.457l-605.703,280.674v344.959l185.782,101.856l614.218-346.947v-312.532L-303.164-849.457z
			 M-481.148-704.893c14.916-7.211,30.429-10.864,46.64-11.055c16.204-0.188,32.623,2.799,49.371,8.976l0.396,0.318l-26.234,13.014
			c-9.138-3.581-17.316-5.533-24.583-5.862c-7.257-0.329-14.555,1.305-21.906,4.905c-6.25,3.057-8.36,6.707-6.296,10.959
			c2.067,4.272,7.739,8.446,17.026,12.523l28.695,12.601c9.516,4.187,19.214,6.584,29.063,7.165c9.85,0.584,18.18-0.878,25-4.379
			c6.581-3.373,9.159-6.657,7.739-9.842c-1.392-3.187-6.407-6.794-15.014-10.85l26.185-13.275l0.73,0.161
			c15.657,7.133,24.114,14.463,25.284,22.002c1.17,7.608-5.399,15.168-19.847,22.691c-14.628,7.618-31.963,11.496-51.952,11.579
			c-19.976,0.087-38.398-3.636-55.165-11.113l-28.524-12.718c-16.339-7.288-25.042-15.399-26.188-24.305
			C-501.866-690.217-495.308-698.042-481.148-704.893z M-566.748-270.336l-5.808,3.34v-108.578l-102.6,56.372v111.188l-6.108,3.52
			v-0.213l-0.124,0.227l-138.966-76.243h-0.1v-258.032l-0.221-0.115l48.24-23.337c17.14-8.299,33.461-13.191,49.045-14.754
			c15.56-1.558,29.435,0.67,41.69,6.719c6.43,3.174,10.655,6.76,12.67,10.759c2.016,4.014,1.153,8.252-2.636,12.714
			c9.783-3.091,19.314-4.232,28.594-3.4c9.283,0.824,17.555,3.014,24.8,6.585c13.615,6.699,19.568,14.065,17.758,22.124
			c-1.814,8.118-11.092,16.554-27.924,25.304l-55.137,28.692l-122.489-63.797v250.536h-0.041l124.839,68.493v-225.534l6.108-3.189
			v113.114l102.6-56.177v-110.451l5.808-3.022V-270.336z M-696.302-599.051l50.602-24.478c14.986-7.25,30.303-11.292,46.079-12.169
			c15.744-0.878,29.836,1.563,42.332,7.354c6.999,3.229,11.308,6.883,12.906,10.94c1.602,4.077,0.633,8.548-2.947,13.454
			c10.22-2.817,19.788-3.788,28.769-2.907c8.977,0.885,17.668,3.256,26.072,7.147l8.842,4.077c3.654,1.687,8.32,3.374,14.004,5.046
			c5.69,1.663,10.766,2.34,15.195,2.012l1.937,0.905l-30.267,15.735c-4.345,0.272-9.452-0.601-15.299-2.625
			c-5.821-2.016-10.896-4.025-15.202-6.046l-8.45-3.971c-6.634-3.113-13.301-4.666-20.022-4.666
			c-6.725-0.012-13.225,1.579-19.507,4.756l-20.859,10.547l53.692,25.747l-30.759,16.008L-696.302-599.051z M-426.681-350.863
			l-16.456-56.435l-73.284,40.974l-17.177,76.936l-6.253,3.593l56.936-255.436l6.805-3.54l55.349,190.511L-426.681-350.863z
			 M-437.576-595.451l-136.84-62.561l28.673-13.88l136.742,61.571L-437.576-595.451z M-385.887-403.211
			c8.52,11.116,19.687,12.665,33.498,4.751c13.523-7.762,24.164-18.925,31.97-33.483c7.773-14.498,11.645-31.851,11.645-52.079
			l4.363-2.43l0.179,0.772c0.246,21.721-4.014,40.875-12.854,57.497c-8.879,16.706-20.62,29.268-35.302,37.711
			c-15.501,8.933-27.99,7.354-37.447-4.815c-9.498-12.242-14.266-32.731-14.266-61.446v-32.714c0-28.616,4.769-54.299,14.266-76.994
			c9.457-22.591,21.947-37.911,37.447-45.975c14.682-7.646,26.422-7.93,35.302-0.91c8.842,6.99,13.102,21.316,12.854,43.022
			l-0.179,0.985l-4.363,2.34c0-19.252-3.872-32.051-11.645-38.424c-7.806-6.392-18.447-6.086-31.97,0.978
			c-13.811,7.223-24.978,21.07-33.498,41.573c-8.566,20.599-12.848,44.015-12.848,70.184v32.979
			C-398.734-433.216-394.453-414.369-385.887-403.211z M-418.042-733.668l26.454-12.807l52.148,21.633l8.867-4.406l-27.643-33.364
			l31.603-15.3l26.366,41.054l111.96,11.709l-30.716,15.987l-80.264-10.043l-11.994,6.057l55.595,23.061l-26.282,13.667
			L-418.042-733.668z M-181.174-492.011l-5.614,3.227l-62.398-68.236l-16.906,9.273v104.556l-5.02,2.888v-211.406l5.02-2.611v98.895
			l18.298-9.999l54.222-126.724l5.725-2.983l0.169,0.624l-55.993,131.733l62.764,69.76L-181.174-492.011z"/>
	</g>
</g>
<g>
	<g>
		<path fill="#333333" d="M-577.162,244.816c0.292-2.94-2.268-5.68-7.665-8.214c-5.501-2.591-11.557-3.864-18.178-3.837
			c-6.626,0.031-12.925,1.51-18.926,4.444l-19.797,9.708l35.096,16.84l19.974-9.978
			C-580.612,250.765-577.449,247.782-577.162,244.816z"/>
	</g>
	<g>
		<path fill="#333333" d="M-715.8,315.324c7.165-3.697,11.208-7.112,12.162-10.23c0.943-3.114-1.134-5.943-6.219-8.492
			c-5.743-2.891-11.738-4.079-18.002-3.6c-6.268,0.476-13.195,2.577-20.806,6.299l-15.407,7.564l32.193,16.473L-715.8,315.324z"/>
	</g>
	<g>
		<polygon fill="#333333" points="-479.2,316.532 -479.815,316.85 -482.594,331.316 -514.324,473.632 -445.16,435.103 
			-476.31,328.008 		"/>
	</g>
	<g>
		<path fill="#333333" d="M-675.93,351.972l22.259-11.423c6.824-3.505,10.567-6.821,11.234-9.928
			c0.661-3.103-1.822-6.059-7.435-8.87c-6.038-3.024-12.047-4.571-18.034-4.627c-5.982-0.058-12.258,1.568-18.833,4.87
			l-24.06,12.133L-675.93,351.972z"/>
	</g>
	<g>
		<path fill="#333333" d="M-303.164,0l-605.703,280.674v344.959l185.782,101.856l614.218-346.947V68.01L-303.164,0z
			 M-481.148,144.564c14.916-7.211,30.429-10.864,46.64-11.055c16.204-0.188,32.623,2.799,49.371,8.976l0.396,0.318l-26.234,13.014
			c-9.138-3.581-17.316-5.533-24.583-5.862c-7.257-0.329-14.555,1.305-21.906,4.905c-6.25,3.057-8.36,6.707-6.296,10.959
			c2.067,4.272,7.739,8.446,17.026,12.523l28.695,12.601c9.516,4.187,19.214,6.584,29.063,7.165c9.85,0.584,18.18-0.878,25-4.379
			c6.581-3.373,9.159-6.657,7.739-9.842c-1.392-3.187-6.407-6.794-15.014-10.85l26.185-13.275l0.73,0.161
			c15.657,7.133,24.114,14.463,25.284,22.002c1.17,7.608-5.399,15.168-19.847,22.691c-14.628,7.618-31.963,11.496-51.952,11.579
			c-19.976,0.087-38.398-3.636-55.165-11.113l-28.524-12.718c-16.339-7.288-25.042-15.399-26.188-24.305
			C-501.866,159.239-495.308,151.415-481.148,144.564z M-566.748,579.12l-5.808,3.34V473.882l-102.6,56.372v111.188l-6.108,3.52
			v-0.213l-0.124,0.227l-138.966-76.243h-0.1V310.7l-0.221-0.115l48.24-23.337c17.14-8.299,33.461-13.191,49.045-14.754
			c15.56-1.558,29.435,0.67,41.69,6.719c6.43,3.174,10.655,6.76,12.67,10.759c2.016,4.014,1.153,8.252-2.636,12.714
			c9.783-3.091,19.314-4.232,28.594-3.4c9.283,0.824,17.555,3.014,24.8,6.585c13.615,6.699,19.568,14.065,17.758,22.124
			c-1.814,8.118-11.092,16.554-27.924,25.304l-55.137,28.692l-122.489-63.797v250.536h-0.041l124.839,68.493V411.691l6.108-3.189
			v113.114l102.6-56.177V354.989l5.808-3.022V579.12z M-696.302,250.405l50.602-24.478c14.986-7.25,30.303-11.292,46.079-12.169
			c15.744-0.878,29.836,1.562,42.332,7.354c6.999,3.229,11.308,6.883,12.906,10.94c1.602,4.077,0.633,8.548-2.947,13.454
			c10.22-2.817,19.788-3.788,28.769-2.907c8.977,0.885,17.668,3.256,26.072,7.147l8.842,4.077c3.654,1.687,8.32,3.374,14.004,5.046
			c5.69,1.663,10.766,2.34,15.195,2.012l1.937,0.905l-30.267,15.735c-4.345,0.272-9.452-0.601-15.299-2.624
			c-5.821-2.016-10.896-4.025-15.202-6.046l-8.45-3.971c-6.634-3.113-13.301-4.666-20.022-4.666
			c-6.725-0.012-13.225,1.579-19.507,4.756l-20.859,10.547l53.692,25.747l-30.759,16.008L-696.302,250.405z M-426.681,498.594
			l-16.456-56.435l-73.284,40.974l-17.177,76.936l-6.253,3.593l56.936-255.436l6.805-3.54l55.349,190.511L-426.681,498.594z
			 M-437.576,254.005l-136.84-62.561l28.673-13.88l136.742,61.571L-437.576,254.005z M-385.887,446.246
			c8.52,11.116,19.687,12.665,33.498,4.751c13.523-7.762,24.164-18.925,31.97-33.483c7.773-14.498,11.645-31.851,11.645-52.079
			l4.363-2.43l0.179,0.772c0.246,21.721-4.014,40.875-12.854,57.497c-8.879,16.706-20.62,29.268-35.302,37.711
			c-15.501,8.933-27.99,7.354-37.447-4.815c-9.498-12.242-14.266-32.731-14.266-61.446v-32.714c0-28.616,4.769-54.299,14.266-76.994
			c9.457-22.591,21.947-37.911,37.447-45.975c14.682-7.646,26.422-7.93,35.302-0.91c8.842,6.99,13.102,21.316,12.854,43.022
			l-0.179,0.985l-4.363,2.34c0-19.252-3.872-32.051-11.645-38.424c-7.806-6.392-18.447-6.086-31.97,0.978
			c-13.811,7.223-24.978,21.07-33.498,41.573c-8.566,20.599-12.848,44.015-12.848,70.184v32.979
			C-398.734,416.24-394.453,435.088-385.887,446.246z M-418.042,115.788l26.454-12.807l52.148,21.633l8.867-4.406l-27.643-33.364
			l31.603-15.3l26.366,41.054l111.96,11.709l-30.716,15.987l-80.264-10.043l-11.994,6.057l55.595,23.061l-26.282,13.667
			L-418.042,115.788z M-181.174,357.446l-5.614,3.227l-62.398-68.236l-16.906,9.274v104.556l-5.02,2.888V197.749l5.02-2.611v98.895
			l18.298-9.999l54.222-126.724l5.725-2.983l0.169,0.624l-55.993,131.733l62.764,69.76L-181.174,357.446z"/>
	</g>
</g>
<rect x="-20.867" y="-849.457" fill="#F58625" width="800" height="727.489"/>
<g>
	<g>
		<path fill="#FFFFFF" d="M310.838-604.641c0.292-2.94-2.268-5.68-7.665-8.214c-5.501-2.591-11.557-3.864-18.178-3.837
			c-6.626,0.031-12.925,1.51-18.926,4.444l-19.797,9.708l35.096,16.84l19.974-9.978
			C307.388-598.691,310.551-601.674,310.838-604.641z"/>
	</g>
	<g>
		<path fill="#FFFFFF" d="M172.2-534.132c7.165-3.697,11.208-7.112,12.162-10.23c0.943-3.114-1.134-5.943-6.219-8.492
			c-5.743-2.891-11.738-4.079-18.002-3.6c-6.268,0.476-13.195,2.577-20.806,6.299l-15.407,7.564l32.193,16.473L172.2-534.132z"/>
	</g>
	<g>
		<polygon fill="#FFFFFF" points="408.8,-532.924 408.185,-532.606 405.406,-518.141 373.676,-375.825 442.84,-414.354 
			411.69,-521.448 		"/>
	</g>
	<g>
		<path fill="#FFFFFF" d="M212.07-497.485l22.259-11.423c6.824-3.505,10.567-6.821,11.234-9.928c0.662-3.103-1.822-6.059-7.435-8.87
			c-6.038-3.024-12.047-4.571-18.034-4.627c-5.982-0.058-12.258,1.568-18.833,4.87l-24.06,12.133L212.07-497.485z"/>
	</g>
	<g>
		<path fill="#FFFFFF" d="M584.836-849.457L-20.867-568.782v344.959l185.782,101.856l614.218-346.947v-312.532L584.836-849.457z
			 M406.852-704.893c14.916-7.211,30.429-10.864,46.64-11.055c16.204-0.188,32.623,2.799,49.371,8.976l0.396,0.318l-26.234,13.014
			c-9.138-3.581-17.316-5.533-24.583-5.862c-7.257-0.329-14.555,1.305-21.906,4.905c-6.25,3.057-8.36,6.707-6.296,10.959
			c2.067,4.272,7.739,8.446,17.026,12.523l28.695,12.601c9.516,4.187,19.214,6.584,29.063,7.165c9.85,0.584,18.18-0.878,25-4.379
			c6.581-3.373,9.159-6.657,7.739-9.842c-1.392-3.187-6.407-6.794-15.013-10.85l26.185-13.275l0.73,0.161
			c15.657,7.133,24.114,14.463,25.284,22.002c1.17,7.608-5.399,15.168-19.847,22.691c-14.628,7.618-31.963,11.496-51.952,11.579
			c-19.976,0.087-38.398-3.636-55.165-11.113l-28.524-12.718c-16.339-7.288-25.042-15.399-26.188-24.305
			C386.134-690.217,392.692-698.042,406.852-704.893z M321.252-270.336l-5.808,3.34v-108.578l-102.6,56.372v111.188l-6.108,3.52
			v-0.213l-0.124,0.227L67.646-280.725h-0.1v-258.032l-0.221-0.115l48.24-23.337c17.14-8.299,33.461-13.191,49.045-14.754
			c15.56-1.558,29.435,0.67,41.69,6.719c6.43,3.174,10.655,6.76,12.671,10.759c2.016,4.014,1.153,8.252-2.636,12.714
			c9.783-3.091,19.314-4.232,28.594-3.4c9.283,0.824,17.555,3.014,24.8,6.585c13.615,6.699,19.568,14.065,17.758,22.124
			c-1.814,8.118-11.092,16.554-27.923,25.304l-55.137,28.692L81.937-531.261v250.536h-0.041l124.839,68.493v-225.534l6.108-3.189
			v113.114l102.6-56.177v-110.451l5.808-3.022V-270.336z M191.698-599.051l50.602-24.478c14.986-7.25,30.303-11.292,46.079-12.169
			c15.744-0.878,29.836,1.563,42.332,7.354c6.999,3.229,11.308,6.883,12.906,10.94c1.602,4.077,0.633,8.548-2.946,13.454
			c10.22-2.817,19.787-3.788,28.769-2.907c8.977,0.885,17.668,3.256,26.072,7.147l8.842,4.077c3.654,1.687,8.32,3.374,14.004,5.046
			c5.69,1.663,10.766,2.34,15.195,2.012l1.937,0.905l-30.267,15.735c-4.345,0.272-9.452-0.601-15.299-2.625
			c-5.821-2.016-10.896-4.025-15.202-6.046l-8.45-3.971c-6.634-3.113-13.301-4.666-20.022-4.666
			c-6.725-0.012-13.225,1.579-19.507,4.756l-20.859,10.547l53.692,25.747l-30.759,16.008L191.698-599.051z M461.319-350.863
			l-16.456-56.435l-73.284,40.974l-17.177,76.936l-6.253,3.593l56.936-255.436l6.805-3.54l55.349,190.511L461.319-350.863z
			 M450.424-595.451l-136.84-62.561l28.673-13.88l136.742,61.571L450.424-595.451z M502.113-403.211
			c8.52,11.116,19.688,12.665,33.498,4.751c13.523-7.762,24.164-18.925,31.97-33.483c7.773-14.498,11.645-31.851,11.645-52.079
			l4.363-2.43l0.179,0.772c0.246,21.721-4.014,40.875-12.854,57.497c-8.879,16.706-20.62,29.268-35.302,37.711
			c-15.5,8.933-27.99,7.354-37.447-4.815c-9.498-12.242-14.266-32.731-14.266-61.446v-32.714c0-28.616,4.769-54.299,14.266-76.994
			c9.457-22.591,21.947-37.911,37.447-45.975c14.682-7.646,26.422-7.93,35.302-0.91c8.842,6.99,13.102,21.316,12.854,43.022
			l-0.179,0.985l-4.363,2.34c0-19.252-3.872-32.051-11.645-38.424c-7.806-6.392-18.447-6.086-31.97,0.978
			c-13.811,7.223-24.978,21.07-33.498,41.573c-8.566,20.599-12.848,44.015-12.848,70.184v32.979
			C489.266-433.216,493.547-414.369,502.113-403.211z M469.958-733.668l26.454-12.807l52.148,21.633l8.867-4.406l-27.643-33.364
			l31.603-15.3l26.366,41.054l111.96,11.709l-30.716,15.987l-80.264-10.043l-11.994,6.057l55.595,23.061l-26.282,13.667
			L469.958-733.668z M706.826-492.011l-5.614,3.227l-62.398-68.236l-16.906,9.274v104.556l-5.02,2.888v-211.406l5.02-2.611v98.895
			l18.298-9.999l54.222-126.724l5.725-2.983l0.169,0.624l-55.993,131.733l62.764,69.76L706.826-492.011z"/>
	</g>
</g>
<polygon fill="#F58625" points="30.133,615.543 30.133,292.9 602.133,19.543 779.133,115.543 779.133,367.63 184.582,715.716 "/>
<g>
	<g>
		<path fill="#FFFFFF" d="M331.704,244.816c0.292-2.94-2.268-5.68-7.665-8.214c-5.501-2.591-11.557-3.864-18.178-3.837
			c-6.626,0.031-12.925,1.51-18.926,4.444l-19.797,9.708l35.096,16.84l19.974-9.978
			C328.255,250.765,331.418,247.782,331.704,244.816z"/>
	</g>
	<g>
		<path fill="#FFFFFF" d="M193.067,315.324c7.165-3.697,11.208-7.112,12.162-10.23c0.943-3.114-1.134-5.943-6.219-8.492
			c-5.743-2.891-11.738-4.079-18.002-3.6c-6.268,0.476-13.195,2.577-20.806,6.299l-15.407,7.564l32.193,16.473L193.067,315.324z"/>
	</g>
	<g>
		<polygon fill="#FFFFFF" points="429.667,316.532 429.052,316.85 426.273,331.316 394.543,473.632 463.707,435.103 
			432.557,328.008 		"/>
	</g>
	<g>
		<path fill="#FFFFFF" d="M232.937,351.972l22.259-11.423c6.824-3.505,10.567-6.821,11.234-9.928
			c0.661-3.103-1.822-6.059-7.435-8.87c-6.038-3.024-12.047-4.571-18.034-4.627c-5.982-0.058-12.258,1.568-18.833,4.87
			l-24.06,12.133L232.937,351.972z"/>
	</g>
	<g>
		<path fill="#FFFFFF" d="M605.703,0L0,280.674v344.959l185.782,101.856L800,380.542V68.01L605.703,0z M427.719,144.564
			c14.916-7.211,30.429-10.864,46.64-11.055c16.204-0.188,32.623,2.799,49.371,8.976l0.396,0.318l-26.234,13.014
			c-9.138-3.581-17.316-5.533-24.583-5.862c-7.257-0.329-14.555,1.305-21.906,4.905c-6.25,3.057-8.36,6.707-6.296,10.959
			c2.067,4.272,7.739,8.446,17.026,12.523l28.695,12.601c9.516,4.187,19.214,6.584,29.063,7.165c9.85,0.584,18.18-0.878,25-4.379
			c6.581-3.373,9.159-6.657,7.74-9.842c-1.392-3.187-6.407-6.794-15.014-10.85l26.185-13.275l0.73,0.161
			c15.657,7.133,24.114,14.463,25.284,22.002c1.17,7.608-5.399,15.168-19.847,22.691c-14.628,7.618-31.963,11.496-51.952,11.579
			c-19.976,0.087-38.398-3.636-55.165-11.113l-28.524-12.718c-16.339-7.288-25.042-15.399-26.188-24.305
			C407.001,159.239,413.559,151.415,427.719,144.564z M342.118,579.12l-5.808,3.34V473.882l-102.6,56.372v111.188l-6.108,3.52
			v-0.213l-0.124,0.227L88.513,568.732h-0.1V310.7l-0.221-0.115l48.24-23.337c17.14-8.299,33.461-13.191,49.045-14.754
			c15.56-1.558,29.435,0.67,41.69,6.719c6.43,3.174,10.655,6.76,12.67,10.759c2.016,4.014,1.153,8.252-2.636,12.714
			c9.783-3.091,19.314-4.232,28.594-3.4c9.283,0.824,17.555,3.014,24.8,6.585c13.615,6.699,19.568,14.065,17.758,22.124
			c-1.814,8.118-11.092,16.554-27.923,25.304l-55.137,28.692l-122.489-63.797v250.536h-0.041l124.839,68.493V411.691l6.108-3.189
			v113.114l102.6-56.177V354.989l5.808-3.022V579.12z M212.565,250.405l50.602-24.478c14.986-7.25,30.303-11.292,46.079-12.169
			c15.744-0.878,29.836,1.562,42.332,7.354c6.999,3.229,11.308,6.883,12.906,10.94c1.602,4.077,0.633,8.548-2.946,13.454
			c10.22-2.817,19.787-3.788,28.769-2.907c8.977,0.885,17.668,3.256,26.072,7.147l8.842,4.077c3.654,1.687,8.32,3.374,14.004,5.046
			c5.69,1.663,10.766,2.34,15.195,2.012l1.937,0.905l-30.267,15.735c-4.345,0.272-9.452-0.601-15.299-2.624
			c-5.821-2.016-10.896-4.025-15.202-6.046l-8.45-3.971c-6.634-3.113-13.301-4.666-20.022-4.666
			c-6.725-0.012-13.225,1.579-19.507,4.756l-20.859,10.547l53.692,25.747l-30.759,16.008L212.565,250.405z M482.186,498.594
			l-16.456-56.435l-73.284,40.974l-17.177,76.936l-6.253,3.593l56.936-255.436l6.805-3.54l55.349,190.511L482.186,498.594z
			 M471.29,254.005l-136.84-62.561l28.673-13.88l136.742,61.571L471.29,254.005z M522.98,446.246
			c8.52,11.116,19.687,12.665,33.498,4.751c13.523-7.762,24.164-18.925,31.97-33.483c7.773-14.498,11.645-31.851,11.645-52.079
			l4.363-2.43l0.179,0.772c0.246,21.721-4.014,40.875-12.854,57.497c-8.878,16.706-20.62,29.268-35.302,37.711
			c-15.5,8.933-27.99,7.354-37.447-4.815c-9.498-12.242-14.266-32.731-14.266-61.446v-32.714c0-28.616,4.769-54.299,14.266-76.994
			c9.458-22.591,21.947-37.911,37.447-45.975c14.682-7.646,26.422-7.93,35.302-0.91c8.842,6.99,13.102,21.316,12.854,43.022
			l-0.179,0.985l-4.363,2.34c0-19.252-3.872-32.051-11.645-38.424c-7.806-6.392-18.447-6.086-31.97,0.978
			c-13.811,7.223-24.978,21.07-33.498,41.573c-8.566,20.599-12.848,44.015-12.848,70.184v32.979
			C510.132,416.24,514.414,435.088,522.98,446.246z M490.825,115.788l26.454-12.807l52.148,21.633l8.867-4.406l-27.643-33.364
			l31.603-15.3l26.366,41.054l111.96,11.709l-30.716,15.987l-80.264-10.043l-11.994,6.057l55.595,23.061l-26.282,13.667
			L490.825,115.788z M727.693,357.446l-5.614,3.227l-62.398-68.236l-16.906,9.273v104.556l-5.02,2.888V197.749l5.02-2.611v98.895
			l18.298-9.999l54.222-126.724l5.725-2.983l0.169,0.624l-55.993,131.733l62.764,69.761L727.693,357.446z"/>
	</g>
</g>
<rect x="871.133" y="-849.457" fill="#F58625" width="900" height="818.425"/>
<g>
	<g>
		<path fill="#FFFFFF" d="M1259.388-547.767c0.264-2.658-2.05-5.136-6.93-7.426c-4.973-2.342-10.449-3.493-16.434-3.469
			c-5.99,0.028-11.685,1.365-17.111,4.018l-17.898,8.777l31.73,15.225l18.058-9.021
			C1256.269-542.388,1259.129-545.084,1259.388-547.767z"/>
	</g>
	<g>
		<path fill="#FFFFFF" d="M1134.047-484.02c6.477-3.343,10.133-6.43,10.995-9.249c0.852-2.815-1.025-5.373-5.622-7.677
			c-5.192-2.614-10.613-3.688-16.275-3.255c-5.667,0.431-11.93,2.33-18.811,5.695l-13.929,6.838l29.105,14.893L1134.047-484.02z"/>
	</g>
	<g>
		<polygon fill="#FFFFFF" points="1347.955,-482.928 1347.398,-482.641 1344.886,-469.563 1316.199,-340.896 1378.73,-375.73 
			1350.567,-472.553 		"/>
	</g>
	<g>
		<path fill="#FFFFFF" d="M1170.093-450.888l20.124-10.328c6.169-3.169,9.553-6.167,10.156-8.976
			c0.598-2.806-1.648-5.478-6.722-8.02c-5.458-2.734-10.891-4.133-16.305-4.183c-5.408-0.053-11.082,1.418-17.026,4.403
			l-21.752,10.97L1170.093-450.888z"/>
	</g>
	<g>
		<path fill="#FFFFFF" d="M1507.107-769.102L959.497-515.347v311.873l167.963,92.087l555.308-313.671v-282.557L1507.107-769.102z
			 M1346.194-638.403c13.485-6.519,27.51-9.822,42.166-9.995c14.65-0.17,29.494,2.53,44.636,8.115l0.358,0.287l-23.718,11.766
			c-8.262-3.237-15.655-5.002-22.226-5.3c-6.561-0.297-13.159,1.18-19.805,4.435c-5.651,2.764-7.558,6.064-5.692,9.908
			c1.869,3.862,6.997,7.636,15.393,11.322l25.943,11.393c8.603,3.785,17.371,5.953,26.275,6.477
			c8.905,0.528,16.437-0.794,22.602-3.959c5.95-3.049,8.28-6.019,6.997-8.898c-1.259-2.882-5.792-6.142-13.573-9.809l23.674-12.002
			l0.66,0.146c14.156,6.449,21.801,13.076,22.859,19.892c1.058,6.878-4.881,13.713-17.943,20.514
			c-13.225,6.887-28.897,10.394-46.969,10.468c-18.06,0.078-34.716-3.288-49.874-10.047l-25.788-11.498
			c-14.772-6.589-22.64-13.922-23.676-21.974C1327.462-625.135,1333.392-632.209,1346.194-638.403z M1268.803-245.525l-5.251,3.02
			v-98.164l-92.76,50.965v100.524l-5.522,3.182v-0.193l-0.112,0.205l-125.637-68.931h-0.09v-233.284l-0.199-0.104l43.613-21.099
			c15.496-7.503,30.251-11.926,44.341-13.339c14.068-1.409,26.612,0.605,37.691,6.075c5.813,2.869,9.633,6.112,11.455,9.727
			c1.822,3.629,1.042,7.461-2.384,11.494c8.845-2.795,17.462-3.826,25.852-3.073c8.392,0.745,15.872,2.725,22.421,5.954
			c12.309,6.057,17.692,12.716,16.055,20.002c-1.64,7.34-10.028,14.967-25.245,22.877l-49.849,25.94l-110.741-57.678v226.507h-0.037
			l112.866,61.924v-203.903l5.522-2.883v102.265l92.76-50.789v-99.857l5.251-2.732V-245.525z M1151.675-542.713l45.749-22.13
			c13.549-6.554,27.396-10.209,41.66-11.001c14.234-0.794,26.975,1.413,38.272,6.649c6.328,2.919,10.224,6.223,11.668,9.891
			c1.448,3.686,0.572,7.728-2.664,12.163c9.24-2.546,17.89-3.425,26.01-2.628c8.116,0.8,15.973,2.944,23.571,6.461l7.994,3.686
			c3.303,1.525,7.522,3.05,12.661,4.562c5.144,1.503,9.733,2.116,13.737,1.819l1.751,0.818l-27.364,14.225
			c-3.928,0.246-8.545-0.543-13.832-2.373c-5.263-1.822-9.851-3.639-13.744-5.466l-7.639-3.59
			c-5.998-2.814-12.025-4.218-18.102-4.218c-6.08-0.011-11.957,1.427-17.636,4.3l-18.858,9.535l48.542,23.277l-27.809,14.473
			L1151.675-542.713z M1395.437-318.328l-14.878-51.023l-66.256,37.044l-15.529,69.557l-5.653,3.249l51.475-230.937l6.152-3.201
			l50.041,172.239L1395.437-318.328z M1385.586-539.458l-123.715-56.561l25.923-12.549l123.627,55.665L1385.586-539.458z
			 M1432.318-365.656c7.703,10.05,17.799,11.45,30.286,4.295c12.226-7.018,21.846-17.109,28.903-30.272
			c7.028-13.108,10.528-28.796,10.528-47.084l3.944-2.197l0.161,0.698c0.223,19.638-3.629,36.955-11.621,51.983
			c-8.027,15.104-18.642,26.461-31.916,34.094c-14.014,8.076-25.305,6.649-33.856-4.353c-8.587-11.068-12.897-29.592-12.897-55.553
			v-29.576c0-25.871,4.311-49.091,12.897-69.61c8.55-20.424,19.842-34.275,33.856-41.566c13.274-6.913,23.888-7.17,31.916-0.823
			c7.994,6.32,11.845,19.272,11.621,38.896l-0.161,0.89l-3.944,2.116c0-17.405-3.5-28.977-10.528-34.739
			c-7.057-5.779-16.677-5.503-28.903,0.884c-12.486,6.53-22.583,19.049-30.286,37.586c-7.745,18.624-11.615,39.794-11.615,63.453
			v29.816C1420.703-392.783,1424.573-375.744,1432.318-365.656z M1403.247-664.419l23.917-11.579l47.147,19.558l8.016-3.984
			l-24.992-30.164l28.572-13.833l23.838,37.116l101.222,10.586l-27.77,14.454l-72.566-9.08l-10.844,5.476l50.263,20.85
			l-23.762,12.357L1403.247-664.419z M1617.397-445.939l-5.076,2.917l-56.414-61.691l-15.285,8.384v94.528l-4.539,2.611v-191.13
			l4.539-2.36v89.41l16.543-9.04l49.022-114.569l5.176-2.697l0.153,0.564l-50.623,119.098l56.744,63.07L1617.397-445.939z"/>
	</g>
</g>
</svg>
