<?xml version="1.0" encoding="utf-8"?>
<!-- Generator: Adobe Illustrator 24.2.1, SVG Export Plug-In . SVG Version: 6.00 Build 0)  -->
<svg version="1.1" id="Layer_1" xmlns="http://www.w3.org/2000/svg" xmlns:xlink="http://www.w3.org/1999/xlink" x="0px" y="0px"
	 viewBox="0 0 672.8 544.7" style="enable-background:new 0 0 672.8 544.7;" xml:space="preserve">
<style type="text/css">
	.st0{fill:none;stroke:#475596;stroke-width:0.9521;stroke-linecap:round;stroke-linejoin:round;stroke-miterlimit:10;}
	.st1{fill:none;stroke:#475596;stroke-width:0.9653;stroke-linecap:round;stroke-linejoin:round;stroke-miterlimit:10;}
	.st2{fill:#F8F0E5;}
	.st3{fill:#475596;}
	.st4{fill:#1D325D;}
	.st5{fill:#FFFFFF;}
	.st6{fill:#475591;}
	.st7{fill:#2D417D;}
	.st8{fill:none;}
	.st9{enable-background:new    ;}
	.st10{fill:#F4EDE2;}
	.st11{fill:none;stroke:#F4EDE2;stroke-width:0.6174;stroke-miterlimit:10;}
	.st12{fill:none;stroke:#1D325D;stroke-width:2.4698;stroke-linecap:round;stroke-linejoin:round;stroke-miterlimit:10;}
	.st13{fill:#FAC5BF;}
	.st14{fill:#F9A570;}
	.st15{fill:#F0656F;}
	.st16{fill:#F6A475;}
	.st17{fill:none;stroke:#1D325D;stroke-width:2.4698;stroke-miterlimit:10;}
	
		.st18{opacity:0.4;fill:none;stroke:#F6A475;stroke-width:4.9842;stroke-linecap:round;stroke-linejoin:round;stroke-miterlimit:10;enable-background:new    ;}
	.st19{opacity:0.4;fill:#F6A475;enable-background:new    ;}
</style>
<g>
	<g>
		<line class="st0" x1="224.5" y1="272.4" x2="240.7" y2="272.4"/>
		<polyline class="st1" points="234.5,266.2 240.7,272.4 234.5,278.6 		"/>
	</g>
	<circle class="st0" cx="232.6" cy="272.4" r="15.4"/>
</g>
<g>
	<g>
		<path class="st2" d="M578.4,493.8c-15.2,12.1-32.7,20.9-50.9,27.9c-78.2,30.3-166,26.2-247.8,7.6c-38.1-8.7-75.7-20.6-110.1-39.5
			c-14.8-8.1-29.6-16.2-43.2-26.3c-13.3-9.9-21.8-20.7-29-35.7c-13.4-27.6-18.3-59.4-12-89.5c7.6-36.9,27.5-70.5,52.2-98.6
			c54-61.3,123.4-108.9,200.5-134.2c56.7-18.6,119-26.7,176.8-8c76.2,24.7,112.5,96.6,123.3,171.4
			C649,343.5,641.9,443.4,578.4,493.8z"/>
		<g>
			<rect x="138.4" y="183.2" class="st3" width="130.5" height="167.6"/>
			<rect x="138.4" y="183.2" class="st4" width="130.5" height="40.5"/>
			<rect x="138.4" y="333" class="st4" width="130.5" height="19"/>
			<circle class="st5" cx="152.9" cy="191.1" r="3.1"/>
			<circle class="st5" cx="170" cy="191.1" r="3.1"/>
			<circle class="st5" cx="187" cy="191.1" r="3.1"/>
			<circle class="st5" cx="204" cy="191.1" r="3.1"/>
			<circle class="st5" cx="221" cy="191.1" r="3.1"/>
			<circle class="st5" cx="238.1" cy="191.1" r="3.1"/>
			<circle class="st5" cx="255.1" cy="191.1" r="3.1"/>
			<path class="st6" d="M152.8,191.1L152.8,191.1c-1,0-1.7-0.8-1.7-1.7v-10c0-1,0.8-1.7,1.7-1.7l0,0c1,0,1.7,0.8,1.7,1.7v10
				C154.5,190.3,153.8,191.1,152.8,191.1z"/>
			<path class="st6" d="M169.8,191.1L169.8,191.1c-1,0-1.7-0.8-1.7-1.7v-10c0-1,0.8-1.7,1.7-1.7l0,0c1,0,1.7,0.8,1.7,1.7v10
				C171.6,190.3,170.8,191.1,169.8,191.1z"/>
			<path class="st6" d="M186.9,191.1L186.9,191.1c-1,0-1.7-0.8-1.7-1.7v-10c0-1,0.8-1.7,1.7-1.7l0,0c1,0,1.7,0.8,1.7,1.7v10
				C188.6,190.3,187.8,191.1,186.9,191.1z"/>
			<path class="st6" d="M203.9,191.1L203.9,191.1c-1,0-1.7-0.8-1.7-1.7v-10c0-1,0.8-1.7,1.7-1.7l0,0c1,0,1.7,0.8,1.7,1.7v10
				C205.6,190.3,204.8,191.1,203.9,191.1z"/>
			<path class="st6" d="M220.9,191.1L220.9,191.1c-1,0-1.7-0.8-1.7-1.7v-10c0-1,0.8-1.7,1.7-1.7l0,0c1,0,1.7,0.8,1.7,1.7v10
				C222.6,190.3,221.9,191.1,220.9,191.1z"/>
			<path class="st6" d="M237.9,191.1L237.9,191.1c-1,0-1.7-0.8-1.7-1.7v-10c0-1,0.8-1.7,1.7-1.7l0,0c1,0,1.7,0.8,1.7,1.7v10
				C239.7,190.3,238.9,191.1,237.9,191.1z"/>
			<path class="st6" d="M255,191.1L255,191.1c-1,0-1.7-0.8-1.7-1.7v-10c0-1,0.8-1.7,1.7-1.7l0,0c1,0,1.7,0.8,1.7,1.7v10
				C256.7,190.3,255.9,191.1,255,191.1z"/>
			<polygon class="st7" points="138.4,223.8 138.4,235.4 239.7,223.8 			"/>
			<g>
				<rect x="147.9" y="202.4" class="st8" width="129.3" height="18.5"/>
				<g class="st9">
					<path class="st10" d="M153.9,204.3c-0.5,0-0.9,0.1-1.1,0.3c-0.2,0.2-0.4,0.6-0.4,1h1.8v2.6h-1.8v7.4h-3.1v-7.4h-1.2v-2.6h1.2
						v-0.1c0-1.2,0.4-2.2,1.1-2.9s1.8-1,3.1-1c0.3,0,0.5,0,0.6,0v2.6L153.9,204.3z"/>
					<path class="st10" d="M165,211.2H158c0,0.8,0.2,1.3,0.6,1.6c0.3,0.3,0.8,0.5,1.3,0.5c0.5,0,0.8-0.1,1.1-0.3
						c0.3-0.2,0.5-0.5,0.6-0.9h3.2c-0.1,0.7-0.4,1.3-0.9,1.9c-0.4,0.6-1,1-1.7,1.3c-0.7,0.3-1.4,0.5-2.3,0.5c-1,0-1.8-0.2-2.6-0.6
						c-0.8-0.4-1.4-1-1.8-1.8c-0.4-0.8-0.6-1.7-0.6-2.7c0-1,0.2-2,0.6-2.7c0.4-0.8,1-1.4,1.8-1.8c0.8-0.4,1.6-0.6,2.6-0.6
						c1,0,1.9,0.2,2.6,0.6c0.8,0.4,1.3,1,1.7,1.7c0.4,0.7,0.6,1.6,0.6,2.5C165.1,210.7,165,210.9,165,211.2z M161.4,208.5
						c-0.4-0.3-0.8-0.5-1.4-0.5c-0.6,0-1,0.2-1.4,0.5s-0.6,0.8-0.6,1.5h3.9C162,209.3,161.8,208.8,161.4,208.5z"/>
					<path class="st10" d="M175.1,206.2c0.7,0.4,1.2,1,1.5,1.8c0.4,0.8,0.6,1.7,0.6,2.7c0,1-0.2,1.9-0.6,2.7
						c-0.4,0.8-0.9,1.4-1.5,1.8c-0.7,0.4-1.4,0.6-2.2,0.6c-0.8,0-1.4-0.2-2-0.5c-0.5-0.3-0.9-0.8-1.2-1.4v1.8h-3.1v-13.2h3.1v5.1
						c0.3-0.6,0.7-1.1,1.2-1.4c0.5-0.3,1.2-0.5,2-0.5C173.7,205.6,174.4,205.8,175.1,206.2z M170.3,208.9c-0.4,0.4-0.6,1-0.6,1.8
						c0,0.7,0.2,1.3,0.6,1.8c0.4,0.4,0.9,0.7,1.6,0.7c0.7,0,1.2-0.2,1.6-0.6c0.4-0.4,0.6-1,0.6-1.8c0-0.8-0.2-1.4-0.6-1.8
						c-0.4-0.4-0.9-0.6-1.6-0.6C171.3,208.3,170.7,208.5,170.3,208.9z"/>
					<path class="st10" d="M183.3,206.1c0.6-0.4,1.3-0.5,2-0.5v3.3h-0.9c-0.8,0-1.4,0.2-1.9,0.5c-0.4,0.3-0.7,0.9-0.7,1.8v4.5h-3.1
						v-10h3.1v1.9C182.2,207,182.7,206.5,183.3,206.1z"/>
					<path class="st10" d="M196.5,205.7v10h-3.1v-1.8c-0.3,0.6-0.7,1.1-1.3,1.4c-0.6,0.3-1.2,0.5-2,0.5c-1.1,0-2.1-0.4-2.7-1.1
						c-0.7-0.8-1-1.8-1-3.2v-5.8h3v5.4c0,0.7,0.2,1.2,0.5,1.6s0.8,0.6,1.4,0.6c0.6,0,1.1-0.2,1.5-0.6c0.4-0.4,0.5-1,0.5-1.7v-5.3
						H196.5z"/>
					<path class="st10" d="M204.4,206.1c0.5,0.3,1,0.8,1.2,1.4v-1.8h3v10h-3v-1.8c-0.3,0.6-0.7,1.1-1.2,1.4c-0.5,0.3-1.2,0.5-2,0.5
						c-0.8,0-1.6-0.2-2.2-0.6c-0.7-0.4-1.2-1-1.5-1.8c-0.4-0.8-0.6-1.7-0.6-2.7c0-1,0.2-2,0.6-2.7c0.4-0.8,0.9-1.4,1.5-1.8
						c0.7-0.4,1.4-0.6,2.2-0.6C203.2,205.6,203.8,205.7,204.4,206.1z M201.8,208.9c-0.4,0.4-0.6,1-0.6,1.8c0,0.8,0.2,1.4,0.6,1.8
						s0.9,0.6,1.6,0.6c0.6,0,1.2-0.2,1.6-0.7c0.4-0.4,0.6-1,0.6-1.8c0-0.8-0.2-1.3-0.6-1.8c-0.4-0.4-0.9-0.7-1.6-0.7
						C202.8,208.3,202.2,208.5,201.8,208.9z"/>
					<path class="st10" d="M215.3,206.1c0.6-0.4,1.3-0.5,2-0.5v3.3h-0.9c-0.8,0-1.4,0.2-1.9,0.5c-0.4,0.3-0.7,0.9-0.7,1.8v4.5h-3.1
						v-10h3.1v1.9C214.2,207,214.7,206.5,215.3,206.1z"/>
					<path class="st10" d="M220.9,205.7l2.4,6.1l2.2-6.1h3.4l-6.2,14.8h-3.4l2.3-5.1l-4.2-9.6H220.9z"/>
				</g>
				<rect x="148.5" y="241.2" class="st11" width="110.9" height="81.4"/>
				<line class="st11" x1="148.5" y1="256.5" x2="259.5" y2="256.5"/>
				<line class="st11" x1="148.5" y1="273.5" x2="259.5" y2="273.5"/>
				<line class="st11" x1="148.5" y1="290.5" x2="259.5" y2="290.5"/>
				<line class="st11" x1="148.5" y1="307.4" x2="259.5" y2="307.4"/>
				<line class="st11" x1="212.3" y1="241.2" x2="212.3" y2="322.7"/>
				<line class="st11" x1="196.2" y1="241.2" x2="196.2" y2="322.7"/>
				<line class="st11" x1="228.3" y1="241.2" x2="228.3" y2="322.7"/>
				<line class="st11" x1="244.4" y1="241.2" x2="244.4" y2="322.7"/>
				<line class="st11" x1="180.2" y1="241.2" x2="180.2" y2="322.7"/>
				<line class="st11" x1="164.1" y1="241.2" x2="164.1" y2="322.7"/>
			</g>
		</g>
		<g>
			<rect x="312.9" y="111.2" class="st12" width="298.8" height="213.6"/>
			<line class="st12" x1="312.9" y1="239.4" x2="611.7" y2="239.4"/>
			<line class="st12" x1="312.9" y1="282.1" x2="611.7" y2="282.1"/>
			<line class="st12" x1="312.9" y1="324.8" x2="611.7" y2="324.8"/>
			<line class="st12" x1="312.9" y1="196.6" x2="611.7" y2="196.6"/>
			<line class="st12" x1="611.7" y1="153.9" x2="312.9" y2="153.9"/>
			<line class="st12" x1="355.3" y1="111.2" x2="355.3" y2="324.8"/>
			<line class="st12" x1="398" y1="111.2" x2="398" y2="324.8"/>
			<line class="st12" x1="440.8" y1="111.2" x2="440.8" y2="324.8"/>
			<line class="st12" x1="483.5" y1="111.2" x2="483.5" y2="324.8"/>
			<line class="st12" x1="526.2" y1="111.2" x2="526.2" y2="324.8"/>
			<line class="st12" x1="568.9" y1="111.2" x2="568.9" y2="324.8"/>
		</g>
		<g>
			<rect x="344.7" y="157.6" class="st13" width="53.3" height="74.1"/>
			<rect x="348.7" y="164.2" class="st5" width="45.4" height="57.5"/>
			<rect x="516.5" y="117.1" class="st13" width="53.3" height="74.1"/>
			<rect x="520.5" y="123.7" class="st5" width="45.7" height="57.8"/>
			<g>
				<g>
					<path class="st14" d="M376.4,221.8c4.8-4.9,7.7-11.7,7.7-19.1c0-15-11.8-27.2-26.4-27.2c-3.2,0-6.3,0.6-9.1,1.7v44.6
						L376.4,221.8L376.4,221.8z"/>
					<path class="st15" d="M378,207.7c0,5.2-1.4,10-3.8,14.1h2.5c5.1-5,8.2-12,8.2-19.8c0-15.1-11.8-27.3-26.4-27.3
						c-3.5,0-6.9,0.7-10,2v3.8c1-0.1,2-0.2,3-0.2C366.2,180.4,378,192.6,378,207.7z"/>
					<path class="st4" d="M368.1,212l-1.6-1.4c-0.8-0.7-0.9-1.9-0.2-2.7l1.8-2.2c0.7-0.8,1.9-0.9,2.7-0.2l1.6,1.4
						c0.8,0.7,0.9,1.9,0.2,2.7l-1.8,2.2C370.1,212.6,368.9,212.7,368.1,212z"/>
					<path class="st4" d="M364.5,197.4l-3,2c-0.9,0.6-2.1,0.3-2.7-0.6l-2.4-3.9c-0.6-0.9-0.3-2.2,0.6-2.8l3-2
						c0.9-0.6,2.1-0.3,2.7,0.6l2.4,3.9C365.7,195.5,365.4,196.8,364.5,197.4z"/>
					<path class="st4" d="M375.2,195.4l-0.7,0.3c-1,0.4-2.1-0.1-2.5-1l-0.7-1.7c-0.4-1,0-2.1,1-2.5l0.7-0.3c1-0.4,2.1,0.1,2.5,1
						l0.7,1.7C376.6,193.8,376.2,195,375.2,195.4z"/>
					<path class="st4" d="M349.5,202.7h-0.9v7.7h0.9c1.1,0,2.1-0.9,2.1-2.1v-3.5C351.6,203.6,350.7,202.7,349.5,202.7z"/>
					<path class="st4" d="M358.5,184.3l-1.5-0.6c-0.6-0.2-0.8-0.9-0.6-1.5l0.6-1.6c0.2-0.6,0.9-0.9,1.4-0.6l1.5,0.6
						c0.6,0.2,0.8,0.9,0.6,1.5l-0.6,1.6C359.7,184.3,359.1,184.5,358.5,184.3z"/>
					<path class="st4" d="M357,221.8h3.9c0-0.1,0-0.1,0-0.2l-0.4-1.6c-0.1-0.6-0.7-1-1.3-0.8l-1.6,0.4c-0.6,0.1-1,0.8-0.8,1.4
						L357,221.8z"/>
				</g>
			</g>
			<polygon class="st15" points="398,157.6 398,162.8 369.5,157.6 			"/>
			<g>
				<g>
					<path class="st14" d="M394.4,163.9h-21.3c0.5,12.7,9.5,23.1,21.3,25.5V163.9z"/>
					<path class="st4" d="M386.1,163.9c-0.1,0.3-0.2,0.6-0.2,0.9v3.5c0,1.1,0.9,2.1,2.1,2.1h3.3c1.1,0,2.1-0.9,2.1-2.1v-3.5
						c0-0.3-0.1-0.7-0.2-0.9H386.1z"/>
				</g>
			</g>
			<rect x="368.5" y="146.3" class="st10" width="8.5" height="19.9"/>
			<polygon class="st13" points="368.5,146.3 377.1,149.3 377.1,146.3 			"/>
			<g>
				<rect x="538.9" y="105.7" class="st16" width="8.5" height="19.9"/>
				<polygon class="st15" points="538.9,105.7 547.5,108.7 547.5,105.7 				"/>
			</g>
			<g>
				<path class="st10" d="M545.1,162.3h-24.6v19.2h24.6c2.1,0,3.7-1.7,3.7-3.7V166C548.8,163.9,547.2,162.3,545.1,162.3z"/>
				<path class="st14" d="M545,154.7h-24.5v7.6H545c2.1,0,3.8-1.7,3.8-3.8l0,0C548.8,156.4,547.1,154.7,545,154.7z"/>
				<polygon class="st10" points="524.9,162.3 523.4,162.3 521.7,154.7 523.2,154.7 				"/>
				<polygon class="st10" points="537.4,162.3 536,162.3 534.2,154.7 535.7,154.7 				"/>
				<polygon class="st10" points="544.4,162.3 542.9,162.3 541.2,154.7 542.6,154.7 				"/>
				<rect x="523.2" y="154.7" class="st4" width="12.6" height="26.8"/>
			</g>
			<g>
				<path class="st10" d="M566.1,162.3h-7.9c-2.1,0-3.7,1.7-3.7,3.7v11.7c0,2.1,1.7,3.7,3.7,3.7h7.9V162.3z"/>
				<path class="st15" d="M566.1,154.7h-7.8c-2.1,0-3.8,1.7-3.8,3.8l0,0c0,2.1,1.7,3.8,3.8,3.8h7.8V154.7z"/>
				<polygon class="st10" points="562.8,162.3 561.3,162.3 559.6,154.7 561.1,154.7 				"/>
			</g>
			<g>
				<path class="st10" d="M566.1,135.6c-0.1,0-0.2,0-0.3,0h-32c-2.1,0-3.7,1.7-3.7,3.7V151c0,2.1,1.7,3.7,3.7,3.7h32
					c0.1,0,0.2,0,0.3,0V135.6z"/>
				<path class="st13" d="M566.1,128c-0.1,0-0.3,0-0.4,0h-31.9c-2.1,0-3.8,1.7-3.8,3.8l0,0c0,2.1,1.7,3.8,3.8,3.8h31.9
					c0.1,0,0.3,0,0.4,0V128z"/>
				<polygon class="st10" points="538.3,135.6 536.9,135.6 535.2,128 536.6,128 				"/>
				<polygon class="st10" points="545.6,135.6 544.2,135.6 542.5,128 543.9,128 				"/>
				<polygon class="st10" points="558.1,135.6 556.7,135.6 555,128 556.4,128 				"/>
				<polygon class="st10" points="565.1,135.6 563.6,135.6 561.9,128 563.4,128 				"/>
				<rect x="544" y="128" class="st4" width="12.6" height="26.8"/>
			</g>
		</g>
		<path class="st3" d="M631.5,409.5v-79.9h-35.3v147.3C612.9,457.8,624.2,434.5,631.5,409.5z"/>
		<rect x="414.2" y="329.5" class="st3" width="35.3" height="161.4"/>
		<path class="st15" d="M596.9,373.7h-33.4v117.2H582c5.4-4.6,10.4-9.6,14.9-14.8V373.7z"/>
		
			<rect x="468.7" y="371.5" transform="matrix(0.9407 -0.3393 0.3393 0.9407 -117.1297 190.2153)" class="st15" width="33.4" height="117.2"/>
		<rect x="521" y="349.1" class="st14" width="42.4" height="141.8"/>
		<rect x="521" y="366.6" class="st3" width="42.4" height="43.6"/>
		<circle class="st7" cx="613.8" cy="355.9" r="12.2"/>
		<g>
			<path class="st14" d="M459.8,457.8H204.5c-5.1,0-9.3-4.1-9.3-9.3V278.6c0-5.1,4.1-9.3,9.3-9.3h255.3c5.1,0,9.3,4.1,9.3,9.3v169.9
				C469.1,453.6,464.9,457.8,459.8,457.8z"/>
			<path class="st4" d="M459.8,269.3H204.5c-5.1,0-9.3,4.1-9.3,9.3v149.7H469V278.6C469.1,273.5,464.9,269.3,459.8,269.3z"/>
			<rect x="271.9" y="484.1" class="st14" width="129.2" height="6.2"/>
			<rect x="297.7" y="457.8" class="st14" width="76.9" height="26.3"/>
			<rect x="211.8" y="285.3" class="st5" width="239.9" height="129.9"/>
			<circle class="st6" cx="337.1" cy="442.5" r="5.3"/>
			<polygon class="st15" points="297.7,457.8 297.7,468 374.7,457.8 			"/>
			<polygon class="st15" points="356.4,484.1 401.1,484.1 401.1,487.8 			"/>
		</g>
		<g>
			<polyline class="st16" points="446.9,344.4 394,344.4 394,276 462.4,276 462.4,328.9 			"/>
			<polyline class="st15" points="446.9,344.4 446.9,328.9 462.4,328.9 			"/>
		</g>
		<rect x="149.9" y="372.8" class="st13" width="10" height="3.9"/>
		<path class="st3" d="M168.2,489.1h10.6v-11h-30.2C155.1,481.9,161.7,485.6,168.2,489.1z"/>
		<rect x="149.9" y="376.7" class="st3" width="8.7" height="20.9"/>
		<path class="st3" d="M154.3,364.6L154.3,364.6c1.5,0,2.8,1.2,2.8,2.8v5.5h-5.5v-5.5C151.6,365.8,152.8,364.6,154.3,364.6z"/>
		<path class="st3" d="M171.3,337.3L171.3,337.3c1.8,0,3.3,1.5,3.3,3.3v4.6c0,0.2-0.1,0.3-0.3,0.3h-6.1c-0.2,0-0.3-0.1-0.3-0.3v-4.6
			C168,338.7,169.5,337.3,171.3,337.3z"/>
		<path class="st4" d="M151.9,480l12.4-1.9h-15.7C149.7,478.7,150.8,479.4,151.9,480z"/>
		<path class="st3" d="M188.3,416.9c26.2,0,26.2,39.6,0,39.6V468c41.8,0,41.8-62.7,0-62.7V416.9z"/>
		<path class="st4" d="M199.4,453.4c-2.9,1.9-6.7,3.1-11.1,3.1V467L199.4,453.4z"/>
		<path class="st4" d="M200.4,420.7c0.5-5.1,3.7-7.4,7.4-8.3l-0.1-1.2c-4.9-3.7-11.4-6-19.4-6v11.7
			C193.3,416.9,197.3,418.3,200.4,420.7z"/>
		<rect x="116.9" y="331.7" class="st13" width="16.4" height="63.4"/>
		<rect x="142.8" y="339.1" class="st15" width="10" height="5.8"/>
		<rect x="142.8" y="344.9" class="st3" width="10" height="3.9"/>
		<rect x="142.8" y="348.8" class="st16" width="10" height="46.3"/>
		<rect x="160" y="354" class="st15" width="10" height="5.8"/>
		<rect x="160" y="359.8" class="st3" width="10" height="3.9"/>
		<rect x="160" y="363.7" class="st16" width="10" height="46.3"/>
		<rect x="166.3" y="347.2" class="st3" width="10" height="51.6"/>
		<rect x="131.2" y="359.2" class="st13" width="10" height="5.8"/>
		<rect x="131.2" y="365" class="st3" width="10" height="3.9"/>
		<rect x="131.2" y="368.9" class="st16" width="10" height="46.3"/>
		<rect x="165" y="345.2" class="st13" width="13.5" height="4.1"/>
		<rect x="174.7" y="346.4" class="st13" width="3.8" height="28.7"/>
		<polygon class="st15" points="133,331.7 125,395.1 133,395.1 		"/>
		<circle class="st5" cx="125.1" cy="338.4" r="2.7"/>
		<rect x="116.8" y="345.9" class="st5" width="6" height="1.3"/>
		<rect x="116.8" y="356.4" class="st5" width="6" height="1.3"/>
		<rect x="116.8" y="366.9" class="st5" width="6" height="1.3"/>
		<rect x="116.8" y="377.4" class="st5" width="6" height="1.3"/>
		<rect x="116.8" y="387.9" class="st5" width="6" height="1.3"/>
		<path class="st3" d="M106.1,443c5.4,7.7,11.8,14.3,20,20.4c7.2,5.3,14.8,10.1,22.5,14.7h40.5v-83h-83
			C106.1,395.1,106.1,443,106.1,443z"/>
		<polygon class="st4" points="189.1,395.1 189.1,403 106.3,395.1 		"/>
		<polyline class="st4" points="141.2,365 141.2,368.9 138.9,368.9 139.9,365 		"/>
		<polyline class="st15" points="139.9,365 141.2,359.5 141.2,365 		"/>
		<g>
			<path class="st15" d="M372.2,415.3h-88.8v-83.9c0-5.1,4.1-9.3,9.3-9.3H363c5.1,0,9.3,4.1,9.3,9.3L372.2,415.3L372.2,415.3z"/>
			<path class="st17" d="M283.4,377.8h-9c-5,0-9-4-9-9V349"/>
			<path class="st4" d="M265.3,358.1L265.3,358.1c-1.5,0-2.6-1.2-2.6-2.6v-4.4c0-1.5,1.2-2.6,2.6-2.6l0,0c1.5,0,2.6,1.2,2.6,2.6v4.4
				C268,357,266.8,358.1,265.3,358.1z"/>
			<path class="st4" d="M307.5,376L307.5,376c-3,0-5.4-2.4-5.4-5.4v-9.4c0-3,2.4-5.4,5.4-5.4l0,0c3,0,5.4,2.4,5.4,5.4v9.4
				C312.9,373.6,310.5,376,307.5,376z"/>
			<path class="st4" d="M344.7,376L344.7,376c-3,0-5.4-2.4-5.4-5.4v-9.4c0-3,2.4-5.4,5.4-5.4l0,0c3,0,5.4,2.4,5.4,5.4v9.4
				C350.1,373.6,347.7,376,344.7,376z"/>
			<path class="st4" d="M326.4,388.1L326.4,388.1c-4,0-7.2-3.2-7.2-7.2v-1.6h14.4v1.6C333.6,384.9,330.4,388.1,326.4,388.1z"/>
			<line class="st17" x1="374.1" y1="377.8" x2="374.1" y2="415.3"/>
		</g>
		<path class="st13" d="M168.2,489.1c0.5,0.3,0.9,0.5,1.4,0.8c34.4,18.8,72,30.7,110.1,39.5c81.8,18.5,169.6,22.6,247.9-7.6
			c18.1-7,35.7-15.9,50.9-27.9c1.9-1.5,3.8-3.1,5.6-4.7H168.2V489.1z"/>
	</g>
	<circle class="st18" cx="636.9" cy="293.1" r="23.1"/>
	<polygon class="st18" points="116,147.9 117.2,208.4 169.8,177.6 	"/>
	<polygon class="st19" points="51.1,438 103.3,430 70.7,387.9 	"/>
	<polygon class="st19" points="467.3,99.7 494.5,81.2 464.9,66.4 	"/>
	<polygon class="st19" points="234.9,29 228.7,0.9 207,20.1 	"/>
	<line class="st18" x1="632.6" y1="241.1" x2="652.1" y2="229.7"/>
	<line class="st18" x1="2.1" y1="330" x2="23.9" y2="336.1"/>
	<circle class="st19" cx="291.6" cy="83" r="9.5"/>
	<circle class="st19" cx="663.3" cy="400.6" r="9.5"/>
	<circle class="st18" cx="96.8" cy="241.2" r="9.5"/>
</g>
</svg>
