<svg width="409" height="658" viewBox="0 0 409 658" fill="none" xmlns="http://www.w3.org/2000/svg">
<g clip-path="url(#clip0)">
<path d="M283.579 465.421L353.078 425.296C356.469 423.338 360.78 424.123 363.264 427.152L391.93 462.107C394.253 464.94 394.355 468.99 392.177 471.936L356.68 519.959C354.121 523.42 349.283 524.237 345.731 521.807L283.064 478.953C278.201 475.628 278.478 468.366 283.579 465.421Z" fill="#1447C8"/>
<path d="M216.896 507.827C209.776 503.287 209.449 493.007 216.266 488.023L258.989 456.786C261.484 454.962 264.587 454.17 267.651 454.577L332.676 463.208C339.71 464.142 344.402 470.942 342.779 477.849L324.114 557.274C322.223 565.322 312.95 569.092 305.979 564.646L216.896 507.827Z" fill="#44C6E6"/>
<path fill-rule="evenodd" clip-rule="evenodd" d="M295.995 458.227L280.527 467.157C276.695 469.37 276.494 474.828 280.154 477.316L334.346 514.155L342.9 477.753C344.524 470.845 339.832 464.046 332.797 463.112L295.995 458.227Z" fill="#FF9C4A"/>
<path d="M121.964 188.718C59.6245 168.769 7.0099 215.898 25.9611 264.772C44.9123 313.646 121.598 227.591 154.381 280.98C167.474 302.304 67.1703 339.305 79.2068 423.56" stroke="#FF9C4A" stroke-width="5.84286" stroke-linecap="round"/>
<line x1="12.8193" y1="226.083" x2="35.5278" y2="292.461" stroke="#1447C8" stroke-width="1.46071" stroke-linecap="round"/>
<circle cx="25.9614" cy="266.019" r="3.22394" fill="#1447C8" stroke="#1447C8" stroke-width="1.46071"/>
<path d="M122.178 235.541L163.016 292.943" stroke="#1447C8" stroke-width="1.46071" stroke-linecap="round"/>
<path d="M69.8455 358.029L78.6793 420.547" stroke="#1447C8" stroke-width="1.46071" stroke-linecap="round"/>
<circle cx="154.364" cy="280.725" r="3.22394" fill="white" stroke="#1447C8" stroke-width="1.46071"/>
<circle cx="79.4714" cy="423.379" r="3.22394" fill="white" stroke="#1447C8" stroke-width="1.46071"/>
<line x1="122.282" y1="189.169" x2="58.8296" y2="167.205" stroke="#1447C8" stroke-width="1.46071" stroke-linecap="round"/>
<circle cx="120.718" cy="188.718" r="3.22394" fill="white" stroke="#1447C8" stroke-width="1.46071"/>
<rect x="54.594" y="165.843" width="3.9543" height="3.9543" transform="rotate(-27.5435 54.594 165.843)" fill="white" stroke="#1447C8" stroke-width="1.46071"/>
<rect x="12.1968" y="222.831" width="3.9543" height="3.9543" transform="rotate(33.9893 12.1968 222.831)" fill="white" stroke="#1447C8" stroke-width="1.46071"/>
<rect x="34.4853" y="289.7" width="3.9543" height="3.9543" transform="rotate(33.9893 34.4853 289.7)" fill="white" stroke="#1447C8" stroke-width="1.46071"/>
<rect x="121.295" y="232.689" width="3.9543" height="3.9543" transform="rotate(23.7452 121.295 232.689)" fill="white" stroke="#1447C8" stroke-width="1.46071"/>
<rect x="162.315" y="291.446" width="3.9543" height="3.9543" transform="rotate(25.2701 162.315 291.446)" fill="white" stroke="#1447C8" stroke-width="1.46071"/>
<rect x="69.6847" y="352.959" width="3.9543" height="3.9543" transform="rotate(42.6502 69.6847 352.959)" fill="white" stroke="#1447C8" stroke-width="1.46071"/>
<circle cx="46" cy="338" r="18" fill="#1447C8"/>
<rect x="44.0615" y="231.122" width="354.656" height="219.406" rx="11.6857" fill="white"/>
<rect x="44.5615" y="231.622" width="353.656" height="218.406" rx="11.1857" stroke="#44C6E6" stroke-opacity="0.25"/>
<path d="M44.0615 242.808C44.0615 236.354 49.2934 231.122 55.7472 231.122H387.032C393.486 231.122 398.718 236.354 398.718 242.808V261.178H44.0615V242.808Z" fill="#44C6E6"/>
<circle cx="63.5971" cy="246.15" r="6.01112" fill="white"/>
<circle cx="87.6417" cy="246.15" r="6.01112" fill="#FF9C4A"/>
<rect x="57.5859" y="282.216" width="326.103" height="75.139" rx="5.84286" fill="#193787"/>
<circle cx="204.859" cy="343.83" r="3.00556" fill="white"/>
<circle cx="221.39" cy="343.83" r="3.00556" fill="white"/>
<circle cx="237.92" cy="343.83" r="3.00556" fill="white"/>
<circle cx="129.721" cy="426.483" r="43.5806" fill="#FF9C4A"/>
<rect x="84.6792" y="381.442" width="90.0827" height="90.0827" stroke="#1447C8" stroke-width="2.92143"/>
<rect x="169.522" y="379.125" width="7.55597" height="7.55597" fill="white" stroke="#1447C8" stroke-width="1.46071"/>
<rect x="169.522" y="466.286" width="7.55597" height="7.55597" fill="#193787" stroke="#1447C8" stroke-width="1.46071"/>
<rect x="82.3612" y="466.286" width="7.55597" height="7.55597" fill="white" stroke="#1447C8" stroke-width="1.46071"/>
<rect x="82.3602" y="379.125" width="7.55597" height="7.55597" fill="white" stroke="#1447C8" stroke-width="1.46071"/>
<path d="M219.347 491.871L201.56 498.324L195.107 516.111C194.481 517.836 192.034 517.816 191.338 516.08L173.892 472.555C173.414 471.362 174.598 470.177 175.791 470.655L219.317 488.101C221.053 488.797 221.073 491.245 219.347 491.871Z" fill="#193787"/>
<rect x="198.847" y="381.4" width="184.842" height="15.0278" rx="2.92143" fill="#DEE1E8"/>
<rect x="198.847" y="411.455" width="184.842" height="15.0278" rx="2.92143" fill="#EFF0F2"/>
<line x1="250.672" y1="230.392" x2="334.87" y2="230.392" stroke="#1447C8" stroke-width="1.46071" stroke-linecap="round"/>
<rect x="246.206" y="194.325" width="91.6275" height="49.5497" stroke="#1447C8" stroke-width="1.46071"/>
<rect x="334.097" y="192.05" width="6.01112" height="6.01112" fill="white" stroke="#1447C8" stroke-width="1.46071"/>
<rect x="334.097" y="240.139" width="6.01112" height="6.01112" fill="white" stroke="#1447C8" stroke-width="1.46071"/>
<rect x="243.931" y="240.139" width="6.01112" height="6.01112" fill="white" stroke="#1447C8" stroke-width="1.46071"/>
<rect x="243.931" y="192.05" width="6.01112" height="6.01112" fill="white" stroke="#1447C8" stroke-width="1.46071"/>
<path d="M1.31354 282.79L7.96216 289.439L4.63785 292.763L-2.01077 286.115L1.31354 282.79Z" fill="#1447C8"/>
<path d="M14.2583 275.164L25.7741 263.649L2.40554 273.72L2.49311 273.808L2.46637 273.809L1.96245 282.109L8.66809 288.815L16.9684 288.311L16.97 288.284L17.0325 288.347L27.1038 264.978L15.588 276.494C15.7597 277.117 15.6052 277.807 15.122 278.29C14.4009 279.011 13.2211 279 12.4867 278.266C11.7523 277.531 11.7415 276.352 12.4625 275.63C12.9458 275.147 13.6351 274.993 14.2583 275.164Z" fill="#1447C8"/>
<path d="M268.12 231.122L277.1 204.794H285.468L294.701 231.122H289.435L287.019 224.125H275.549L273.241 231.122H268.12ZM276.992 219.797H285.54L281.897 209.086H280.563L276.992 219.797Z" fill="#193787"/>
<path d="M303.769 231.627C301.605 231.627 299.874 231.074 298.576 229.968C297.301 228.862 296.664 227.311 296.664 225.316C296.664 223.176 297.434 221.601 298.972 220.591C300.535 219.557 302.627 219.04 305.248 219.04H309.251V218.86C309.251 216.623 308.121 215.505 305.861 215.505C305.26 215.505 304.539 215.517 303.697 215.541C302.856 215.566 302.002 215.602 301.136 215.65C300.295 215.674 299.538 215.71 298.864 215.758V211.502C299.682 211.43 300.656 211.37 301.786 211.322C302.94 211.274 303.998 211.25 304.96 211.25C307.965 211.25 310.225 211.863 311.74 213.089C313.279 214.291 314.048 216.251 314.048 218.968V231.122H310.081V227.371C309.191 230.209 307.087 231.627 303.769 231.627ZM305.176 228.057C305.849 228.057 306.486 227.936 307.087 227.696C307.689 227.431 308.181 226.999 308.566 226.398C308.975 225.772 309.203 224.931 309.251 223.873V222.033H305.176C304.022 222.033 303.132 222.322 302.507 222.899C301.906 223.452 301.605 224.173 301.605 225.063C301.605 225.977 301.906 226.71 302.507 227.263C303.132 227.792 304.022 228.057 305.176 228.057Z" fill="#193787"/>
<path d="M174.802 549.712L174.802 474.573" stroke="#1447C8" stroke-width="1.46071" stroke-dasharray="5.84 5.84"/>
<path d="M240.925 470.064L177.808 470.064" stroke="#1447C8" stroke-width="1.46071" stroke-dasharray="5.84 5.84"/>
</g>
<defs>
<clipPath id="clip0">
<rect width="409" height="657.321" fill="white"/>
</clipPath>
</defs>
</svg>
