<svg width="351" height="369" viewBox="0 0 351 369" fill="none" xmlns="http://www.w3.org/2000/svg">
<g clip-path="url(#clip0)">
<path d="M257.882 251.057L315.963 217.524C318.895 215.831 322.622 216.51 324.769 219.128L348.696 248.304C350.705 250.754 350.793 254.254 348.91 256.802L319.236 296.946C317.024 299.938 312.841 300.645 309.77 298.544L257.436 262.756C253.232 259.881 253.471 253.603 257.882 251.057Z" fill="#1447C8"/>
<path d="M176.972 284.904C169.04 280.818 169.624 269.288 177.928 266.024L237.709 242.53C239.348 241.885 241.124 241.669 242.869 241.901L298.629 249.302C304.711 250.109 308.768 255.988 307.364 261.961L291.514 329.408C289.97 335.978 282.662 339.349 276.662 336.258L176.972 284.904Z" fill="#44C6E6"/>
<path fill-rule="evenodd" clip-rule="evenodd" d="M268.073 245.151L256.372 251.907C252.54 254.12 252.339 259.578 255.999 262.065L300.339 292.208L307.056 263.626C308.679 256.718 303.987 249.918 296.953 248.985L268.073 245.151Z" fill="#FF9C4A"/>
<path d="M105.664 41.9553C53.2139 25.1712 8.94604 64.8234 24.8908 105.944C40.8356 147.065 105.356 74.6619 132.938 119.581C143.954 137.522 59.5627 168.653 69.6896 239.542" stroke="#FF9C4A" stroke-width="5.84286" stroke-linecap="round"/>
<line x1="13.981" y1="73.4644" x2="33.012" y2="129.093" stroke="#1447C8" stroke-width="1.46071" stroke-linecap="round"/>
<circle cx="24.891" cy="106.993" r="2.82836" fill="#1447C8" stroke="#1447C8" stroke-width="1.46071"/>
<path d="M105.844 81.3503L140.203 129.645" stroke="#1447C8" stroke-width="1.46071" stroke-linecap="round"/>
<path d="M61.8133 184.407L69.2458 237.007" stroke="#1447C8" stroke-width="1.46071" stroke-linecap="round"/>
<circle cx="132.924" cy="119.366" r="2.82836" fill="white" stroke="#1447C8" stroke-width="1.46071"/>
<circle cx="69.9123" cy="239.39" r="2.82836" fill="white" stroke="#1447C8" stroke-width="1.46071"/>
<line x1="105.784" y1="42.4068" x2="52.6166" y2="24.0027" stroke="#1447C8" stroke-width="1.46071" stroke-linecap="round"/>
<circle cx="104.616" cy="41.9549" r="2.82836" fill="white" stroke="#1447C8" stroke-width="1.46071"/>
<rect x="48.825" y="22.6604" width="3.55871" height="3.55871" transform="rotate(-27.5435 48.825 22.6604)" fill="white" stroke="#1447C8" stroke-width="1.46071"/>
<rect x="13.2787" y="70.4954" width="3.55871" height="3.55871" transform="rotate(33.9893 13.2787 70.4954)" fill="white" stroke="#1447C8" stroke-width="1.46071"/>
<rect x="32.0315" y="126.756" width="3.55871" height="3.55871" transform="rotate(33.9893 32.0315 126.756)" fill="white" stroke="#1447C8" stroke-width="1.46071"/>
<rect x="105.042" y="78.7981" width="3.55871" height="3.55871" transform="rotate(23.7452 105.042 78.7981)" fill="white" stroke="#1447C8" stroke-width="1.46071"/>
<rect x="139.558" y="128.232" width="3.55871" height="3.55871" transform="rotate(25.2701 139.558 128.232)" fill="white" stroke="#1447C8" stroke-width="1.46071"/>
<rect x="61.6714" y="179.978" width="3.55871" height="3.55871" transform="rotate(42.6502 61.6714 179.978)" fill="white" stroke="#1447C8" stroke-width="1.46071"/>
<circle cx="41.7507" cy="167.555" r="15.1445" fill="#1447C8"/>
<rect x="40.1197" y="77.6318" width="298.394" height="184.599" rx="11.6857" fill="white"/>
<rect x="40.6197" y="78.1318" width="297.394" height="183.599" rx="11.1857" stroke="#44C6E6" stroke-opacity="0.25"/>
<path d="M40.1197 89.3176C40.1197 82.8637 45.3516 77.6318 51.8054 77.6318H326.828C333.281 77.6318 338.513 82.8637 338.513 89.3175V102.919H40.1197V89.3176Z" fill="#44C6E6"/>
<circle cx="56.5561" cy="90.2763" r="5.05752" fill="white"/>
<circle cx="76.7864" cy="90.2763" r="5.05752" fill="#FF9C4A"/>
<rect x="51.4986" y="120.621" width="274.37" height="63.219" rx="5.84286" fill="#193787"/>
<circle cx="175.408" cy="172.46" r="2.52876" fill="white"/>
<circle cx="189.317" cy="172.46" r="2.52876" fill="white"/>
<circle cx="203.225" cy="172.46" r="2.52876" fill="white"/>
<circle cx="112.19" cy="242.002" r="36.667" fill="#FF9C4A"/>
<rect x="74.0621" y="203.874" width="76.2555" height="76.2555" stroke="#1447C8" stroke-width="2.92143"/>
<rect x="145.793" y="202.271" width="6.12557" height="6.12557" fill="white" stroke="#1447C8" stroke-width="1.46071"/>
<rect x="145.793" y="275.607" width="6.12557" height="6.12557" fill="#193787" stroke="#1447C8" stroke-width="1.46071"/>
<rect x="72.4594" y="275.607" width="6.12557" height="6.12557" fill="white" stroke="#1447C8" stroke-width="1.46071"/>
<rect x="72.4586" y="202.271" width="6.12557" height="6.12557" fill="white" stroke="#1447C8" stroke-width="1.46071"/>
<path d="M187.598 297.017L172.633 302.446L167.204 317.411C166.677 318.863 164.618 318.846 164.032 317.386L149.555 281.268C149.077 280.075 150.262 278.89 151.455 279.368L187.573 293.845C189.033 294.43 189.05 296.49 187.598 297.017Z" fill="#193787"/>
<rect x="170.35" y="204.071" width="155.519" height="12.6438" rx="2.92143" fill="#DEE1E8"/>
<rect x="170.35" y="229.358" width="155.519" height="12.6438" rx="2.92143" fill="#EFF0F2"/>
<line x1="214.07" y1="76.9029" x2="284.679" y2="76.9029" stroke="#1447C8" stroke-width="1.46071" stroke-linecap="round"/>
<rect x="210.08" y="46.5577" width="77.3235" height="41.9209" stroke="#1447C8" stroke-width="1.46071"/>
<rect x="284.144" y="44.7588" width="5.05752" height="5.05752" fill="white" stroke="#1447C8" stroke-width="1.46071"/>
<rect x="284.144" y="85.2192" width="5.05752" height="5.05752" fill="white" stroke="#1447C8" stroke-width="1.46071"/>
<rect x="208.282" y="85.2192" width="5.05752" height="5.05752" fill="white" stroke="#1447C8" stroke-width="1.46071"/>
<rect x="208.282" y="44.7583" width="5.05752" height="5.05752" fill="white" stroke="#1447C8" stroke-width="1.46071"/>
<path d="M4.15328 121.104L9.74717 126.698L6.95022 129.495L1.35634 123.901L4.15328 121.104Z" fill="#1447C8"/>
<path d="M15.0445 114.688L24.7334 104.999L5.07205 113.473L5.14572 113.546L5.12323 113.548L4.69925 120.531L10.3411 126.173L17.3247 125.749L17.326 125.727L17.3786 125.779L25.8522 106.118L16.1632 115.807C16.3077 116.331 16.1777 116.911 15.7711 117.318C15.1645 117.924 14.1718 117.915 13.5539 117.297C12.9361 116.68 12.9269 115.687 13.5336 115.08C13.9402 114.674 14.5201 114.544 15.0445 114.688Z" fill="#1447C8"/>
<path d="M228.634 77.6324L236.189 55.4805H243.23L250.998 77.6324H246.568L244.534 71.7455H234.885L232.943 77.6324H228.634ZM236.098 68.104H243.29L240.225 59.0915H239.103L236.098 68.104Z" fill="#193787"/>
<path d="M258.628 78.0572C256.807 78.0572 255.351 77.5919 254.258 76.6614C253.186 75.7308 252.65 74.4259 252.65 72.7468C252.65 70.9464 253.297 69.6213 254.592 68.7716C255.907 67.9017 257.667 67.4668 259.872 67.4668H263.24V67.3151C263.24 65.4337 262.289 64.493 260.388 64.493C259.882 64.493 259.275 64.5031 258.567 64.5233C257.859 64.5435 257.141 64.5739 256.413 64.6143C255.705 64.6346 255.067 64.6649 254.501 64.7054V61.1247C255.189 61.064 256.008 61.0134 256.959 60.9729C257.93 60.9325 258.82 60.9122 259.629 60.9122C262.158 60.9122 264.06 61.4281 265.334 62.4598C266.629 63.4713 267.276 65.1201 267.276 67.4061V77.6324H263.938V74.4765C263.19 76.8637 261.42 78.0572 258.628 78.0572ZM259.811 75.0531C260.378 75.0531 260.914 74.9519 261.42 74.7496C261.925 74.5271 262.34 74.1629 262.664 73.6572C263.008 73.1312 263.2 72.4232 263.24 71.533V69.9854H259.811C258.84 69.9854 258.092 70.2282 257.566 70.7137C257.06 71.179 256.807 71.7859 256.807 72.5344C256.807 73.3032 257.06 73.9202 257.566 74.3855C258.092 74.8305 258.84 75.0531 259.811 75.0531Z" fill="#193787"/>
<path d="M150.12 345.681L150.12 282.462" stroke="#1447C8" stroke-width="1.46071" stroke-dasharray="5.84 5.84"/>
<path d="M205.753 278.669L152.649 278.669" stroke="#1447C8" stroke-width="1.46071" stroke-dasharray="5.84 5.84"/>
</g>
<defs>
<clipPath id="clip0">
<rect width="351" height="369" fill="white"/>
</clipPath>
</defs>
</svg>
