<svg width="409" height="658" viewBox="0 0 409 658" fill="none" xmlns="http://www.w3.org/2000/svg">
<path d="M166.04 445.129L79.3807 486.927C77.3857 487.89 75.0116 487.079 74.0978 485.062C67.3991 470.271 42.8488 413.22 43.9505 373.88C43.9739 373.042 44.5306 372.331 45.3292 372.076L104.87 353.092C109.737 351.54 115.054 353.24 118.118 357.328L170.429 427.123C174.96 433.169 172.844 441.847 166.04 445.129Z" fill="#1B336D"/>
<path d="M371.152 226.215C377.036 232.644 374.32 243.004 366.039 245.72L193.909 302.163C188.141 304.054 181.869 301.341 179.299 295.842L152.183 237.831C150.578 234.398 150.69 230.408 152.484 227.069L225.669 90.8956C229.581 83.6152 239.511 82.3776 245.091 88.4748L371.152 226.215Z" fill="#1447C8"/>
<circle cx="309.5" cy="286.5" r="46.5" fill="#6AC5E3"/>
<path fill-rule="evenodd" clip-rule="evenodd" d="M342.723 253.513L264 279.327C267.449 257.051 286.708 240 309.95 240C322.736 240 334.317 245.161 342.723 253.513Z" fill="#FF9C4A"/>
<rect x="96.9922" y="202" width="133" height="354" rx="8" fill="white"/>
<rect x="97.4922" y="202.5" width="132" height="353" rx="7.5" stroke="#6AC5E3" stroke-opacity="0.25"/>
<rect x="123.992" y="231" width="78" height="25" rx="8" fill="#DEE1E8"/>
<rect x="123.992" y="284" width="78" height="25" rx="8" fill="#DEE1E8"/>
<rect x="123.992" y="337" width="78" height="25" rx="8" fill="#DEE1E8"/>
<rect x="123.992" y="390" width="78" height="25" rx="8" fill="#EFF0F2"/>
<rect x="123.992" y="443" width="78" height="25" rx="8" fill="#EFF0F2"/>
<rect x="123.992" y="496" width="78" height="25" rx="8" fill="#EFF0F2"/>
<path d="M199.719 492.486L269.575 457.946C276.1 454.72 283.972 458 286.277 464.905L315.867 553.589C319.316 563.925 308.315 573.136 298.746 567.926L199.299 513.782C190.762 509.134 191.005 496.795 199.719 492.486Z" fill="#FF9C4A"/>
<path d="M117.856 156.841C117.017 156.301 117.399 155 118.397 155H190.992C192.097 155 192.992 155.895 192.992 157V178C192.992 179.105 192.097 180 190.992 180H118.9C117.865 180 117.512 178.62 118.42 178.123L134.516 169.308C135.182 168.944 135.215 168 134.577 167.59L117.856 156.841Z" fill="#FF9534"/>
<rect x="178.992" y="126" width="133" height="354" rx="8" fill="white"/>
<rect x="179.492" y="126.5" width="132" height="353" rx="7.5" stroke="#6AC5E3" stroke-opacity="0.25"/>
<rect x="205.992" y="155" width="78" height="25" rx="8" fill="#DEE1E8"/>
<rect x="205.992" y="208" width="78" height="25" rx="8" fill="#DEE1E8"/>
<rect x="205.992" y="261" width="78" height="25" rx="8" fill="#DEE1E8"/>
<rect x="205.992" y="314" width="78" height="25" rx="8" fill="#EFF0F2"/>
<rect x="205.992" y="367" width="78" height="25" rx="8" fill="#EFF0F2"/>
<rect x="205.992" y="420" width="78" height="25" rx="8" fill="#EFF0F2"/>
<path d="M48.0297 372.663C47.913 371.731 48.4698 370.841 49.3576 370.536L147.274 336.915C148.498 336.494 149.793 337.335 149.94 338.62C154.267 376.456 174.702 405.896 204.577 427.692C205.9 428.657 205.608 430.729 204.06 431.261L103.353 465.841C102.798 466.031 102.198 465.977 101.698 465.67C81.5001 453.288 54.0332 420.604 48.0297 372.663Z" fill="#6AC5E3"/>
<circle cx="300.536" cy="494.5" r="36.5" fill="white"/>
<path d="M334 498.457C334 493.663 333.056 488.917 331.222 484.489C329.387 480.06 326.699 476.037 323.309 472.647C319.92 469.258 315.896 466.569 311.468 464.735C307.04 462.901 302.293 461.957 297.5 461.957L297.5 498.457H334Z" fill="#6AC5E3"/>
<circle cx="300.536" cy="494.5" r="33.5" stroke="#1447C8" stroke-width="6"/>
<path d="M298 479.957V497.957H316.5" stroke="#1B336D" stroke-width="4" stroke-linecap="round"/>
<rect x="62" y="238.5" width="58" height="58" rx="10" fill="#1B336D" stroke="#1B336D" stroke-width="4"/>
<path d="M77.5 257.5L95.7929 275.793C96.1834 276.183 96.8166 276.183 97.2071 275.793L142 231" stroke="#6AC5E3" stroke-width="12" stroke-linecap="round"/>
<path d="M173.532 335.418L145.864 383.657" stroke="#193787" stroke-width="3.57537" stroke-linecap="round"/>
<path fill-rule="evenodd" clip-rule="evenodd" d="M148.094 364.548C148.958 358.775 155.405 355.727 160.415 358.723V358.723C165.318 361.657 165.794 368.581 161.337 372.157L149.898 381.337C149.107 381.972 148.006 382.056 147.127 381.549V381.549C146.252 381.043 145.774 380.054 145.924 379.054L148.094 364.548Z" fill="#193787"/>
<path d="M226.195 244.747L229.413 239.174" stroke="#193787" stroke-width="10.7261" stroke-linecap="round"/>
<path d="M216.907 243.513C217.894 241.803 220.081 241.217 221.791 242.205L230.588 247.284C232.298 248.271 232.884 250.458 231.896 252.168L164.696 368.563C163.708 370.273 161.522 370.859 159.812 369.872L151.015 364.793C149.304 363.805 148.719 361.619 149.706 359.909L216.907 243.513Z" fill="#1447C8"/>
<rect x="231.774" y="259.664" width="5.76956" height="37.5264" rx="2.88478" transform="rotate(30 231.774 259.664)" fill="#1447C8"/>
<path d="M223.968 260.132C224.401 259.382 225.361 259.125 226.111 259.558L231.413 262.619C231.874 262.885 232.032 263.474 231.766 263.935V263.935C231.244 264.839 228.331 264.61 227.435 264.073C226.869 263.734 226.211 263.489 225.492 263.358C224.241 263.13 223.112 261.615 223.748 260.514L223.968 260.132Z" fill="#1447C8"/>
<path d="M175.265 315.642L190.255 324.297C184.466 337.536 180.752 344.429 172.561 354.944L157.571 346.289C162.35 333.428 166.296 326.748 175.265 315.642Z" fill="#FF9C4A"/>
<rect x="63.4829" y="386.415" width="80.5654" height="7.39044" rx="3.69522" transform="rotate(-20.1363 63.4829 386.415)" fill="#193787"/>
<rect x="73.1929" y="407.198" width="46.3185" height="6.5355" rx="3.26775" transform="rotate(-20.1363 73.1929 407.198)" fill="#193787"/>
</svg>
