<?xml version="1.0" encoding="UTF-8" standalone="no"?>
<!DOCTYPE svg PUBLIC "-//W3C//DTD SVG 1.1//EN" "http://www.w3.org/Graphics/SVG/1.1/DTD/svg11.dtd">
<svg width="100%" height="100%" viewBox="0 0 1149 175" version="1.1" xmlns="http://www.w3.org/2000/svg" xmlns:xlink="http://www.w3.org/1999/xlink" xml:space="preserve" xmlns:serif="http://www.serif.com/" style="fill-rule:evenodd;clip-rule:evenodd;stroke-linejoin:round;stroke-miterlimit:2;">
    <g transform="matrix(1,0,0,1,-1,0)">
        <path d="M1154,272.6L1153.9,141.3L1150.1,141.3L1150.1,39.6L1127.5,39.6L1127.5,141.3L1120.8,141.3L1120.9,17.2L1100.1,17.2L1100,141.3L1091.8,141.3L1091.8,54.5L1051.5,54.5L1051.5,141.3L1047.5,141.3L1047.5,75.7L1010.4,75.7L1010.4,141.3L999.2,141.3L999.1,33.4L931.3,33.4L931.4,141.3L924.7,141.3L924.6,32.6L903.8,32.6L903.9,141.3L897.2,141.3L897.2,54.9L874.6,54.9L874.6,141.3L866.9,141.3L866.9,70.1L820.8,70.1L820.8,141.3L813.8,141.3L813.8,116.5L809.5,116.5L809.4,68.3L805.9,68.3L805.9,63.5L789,63.5L789,68.3L722,68.6L722.1,116.8L717.8,116.8L717.8,141.5L634,141.5L634,109.4L340.4,109.5L340.4,96.9L396.3,70.5L395,68.4L433.2,50.4L436.4,59.8L444.6,56.6L448.6,61.9C449.1,62.6 450.4,62.1 450.1,61.3L448.3,55.1L455.9,52.1L444.9,35.7L430,41.5L431.2,44.9L391.9,63.4L390.4,60.9L322.9,92.7L323.1,93.1L323.1,109.5L306,109.5L306,141.6L268.1,141.6L268.1,100.4L255,100.4L255,38.8L243.8,38.8L243.8,100.4L231.5,100.4L231.5,51.1L218.4,51.1L218.4,100.4L213.7,100.4L213.7,39.9L200.3,39.9L200.3,100.4L191.3,100.4L191.3,141.6L174.3,141.6L174.3,51.8L156.6,51.8L156.6,141.6L151,141.6L151,70.9L133.3,70.9L133.3,141.6L128.1,141.6L128.1,49.5L110.8,49.5L110.8,40.8L70.1,40.8L70.1,141.6L63.6,141.6L63.7,34.6L40.2,34.6L40.3,141.8L37,141.8L36.9,-0.4L0.8,-0.4L0.9,172.2L1,172.2L1,273.2L1154,272.6Z" style="fill:rgb(26,48,95);fill-rule:nonzero;"/>
        <rect x="370.6" y="90.9" width="245.7" height="10.6" style="fill:rgb(26,48,95);"/>
    </g>
</svg>
